<?xml version="1.0" encoding="utf-8"?>
<!-- Generator: Adobe Illustrator 19.0.0, SVG Export Plug-In . SVG Version: 6.00 Build 0)  -->
<svg version="1.1" id="圖層_1" xmlns="http://www.w3.org/2000/svg" xmlns:xlink="http://www.w3.org/1999/xlink" x="0px" y="0px"
	 viewBox="45 -33.8 150 150" style="enable-background:new 45 -33.8 150 150;" xml:space="preserve">
<style type="text/css">
	.st0{enable-background:new    ;}
	.st1{fill:#DC6200;}
</style>
<g class="st0">
	<path class="st1" d="M59.9,20.9c3.5,0,6.4-2.9,8.6-8.6c1.8-4.6,2.7-10.2,2.7-16.8h99c-2.3,5.5-5.5,11.2-9.6,17.1l3,2.4
		c6-5.1,11.3-10.1,15.9-14.9l4.8-0.7c1.4-0.1,2.1-0.7,2.1-1.6c0-2.1-3.6-6.4-10.8-13.2l-6,7.2h-46.1v-13c4.3-1.7,6.4-3.1,6.4-4.4
		c0-2.1-5-3.3-15-3.4v20.9H71.1C71.1-8.4,71-9,71-9.8c0-0.3-0.1-0.5-0.1-0.7c-0.1-1.3-0.3-2.5-0.4-3.6l-3.9-0.3
		C66-3.9,63.1,4.2,58,9.9c-2.3,2.6-3.4,4.6-3.4,5.9C54.5,19.2,56.3,20.9,59.9,20.9z"/>
	<path d="M185.1,31.5l1.8-3c-3.6-4.2-7.2-7.9-11-11.1l-8.2,10.3h-59.9l1.2-2.4c1.4-3.1,3.5-7.9,6.3-14.5c4.8-0.8,7.2-1.8,7.2-3.1
		c0-2-4.5-4-13.6-5.9c-3.2,8.8-6.9,17.4-11.1,25.9H53.3l1.8,3.7H96c-6.8,14.1-14.5,26.8-22.9,38.1l8.3,3.1c1.4-2,3.4-4.8,6-8.6
		c10.1,3.3,21.1,7.5,33.2,12.5c-13.9,13.5-35.4,21.7-64.5,24.6l1.6,3.7c32.9-1.3,56.7-9.5,71.3-24.5c13.3,5.9,25,12.3,35.1,19
		c4,2.6,6.6,3.9,7.8,3.9c2.6,0,3.9-1.4,3.9-4.2c0-5.9-14.2-14.1-42.6-24.8c9.2-13.1,16.1-27.4,20.5-42.9H185.1z M125,71.4
		c-8.5-3.1-20.2-6.7-35.1-11c5.8-9.2,11.2-18.8,16.2-28.9h37.5C139.3,47,133.1,60.3,125,71.4z"/>
</g>
</svg>
