<?xml version="1.0" encoding="utf-8"?>
<!-- Generator: Adobe Illustrator 19.0.0, SVG Export Plug-In . SVG Version: 6.00 Build 0)  -->
<svg version="1.1" id="圖層_1" xmlns="http://www.w3.org/2000/svg" xmlns:xlink="http://www.w3.org/1999/xlink" x="0px" y="0px"
	 viewBox="45 -33.8 150 150" style="enable-background:new 45 -33.8 150 150;" xml:space="preserve">
<style type="text/css">
	.st0{enable-background:new    ;}
	.st1{fill:#DC6200;}
</style>
<g class="st0">
	<path class="st1" d="M168.4-26l-5.8,7h-87c-3.2-1.8-6.5-3.4-10-4.8v53.8h8.6v-45.3h90.2v44.1h8.6v-41.2l3.9-2.6
		c0.8-0.5,1.2-1,1.2-1.6C178.1-18.2,174.9-21.4,168.4-26z"/>
	<path class="st1" d="M157.5,0.3c-2.5-3-5.7-6-9.4-9l-6.7,8.1H81l1.6,3.7h73.2L157.5,0.3z"/>
	<path class="st1" d="M82.6,22.5h73.2l1.6-2.9c-2.5-3-5.7-6-9.4-9l-6.7,8.1H81L82.6,22.5z"/>
	<path d="M157.4,29.9l-5.7,6.6H87c-4-2-7.3-3.5-10.2-4.5v73.2h8.7v-9.6h67.3v9.6h8.9V43.6l3.9-2.6c0.9-0.6,1.4-1.2,1.4-1.9
		C167,37.7,163.8,34.7,157.4,29.9z M152.9,91.9H85.6V76.3h67.3V91.9z M152.9,72.6H85.6V58h67.3V72.6z M152.9,54.2H85.6v-14h67.3
		V54.2z"/>
</g>
</svg>
