<?xml version="1.0" encoding="utf-8"?>
<!-- Generator: Adobe Illustrator 19.0.0, SVG Export Plug-In . SVG Version: 6.00 Build 0)  -->
<svg version="1.1" id="圖層_1" xmlns="http://www.w3.org/2000/svg" xmlns:xlink="http://www.w3.org/1999/xlink" x="0px" y="0px"
	 viewBox="45 -33.8 150 150" style="enable-background:new 45 -33.8 150 150;" xml:space="preserve">
<style type="text/css">
	.st0{enable-background:new    ;}
	.st1{fill:#DC6200;}
</style>
<g class="st0">
	<path d="M176,0.4l1.8-2.9c-3.6-4.2-7.4-8.1-11.4-11.6l-8.5,10.8H90.5c2.8-5.1,5.7-10.8,8.6-17.1c4.3-0.9,6.4-2,6.4-3.2
		c0-2-4.8-3.8-14.4-5.6c-8.3,25.4-19.9,46-34.9,61.9l2.6,2.6C71.3,24.3,81.1,12.7,88.2,0.4H176z"/>
	<path class="st1" d="M173.2,85.2c-1.3-3.1-1.8-9-1.7-17.7v-4.8l-4-1.7c-0.8,9.6-1.9,16.9-3.3,22c-1,3.9-3.2,6.3-6.4,7
		c-5.4,1.3-17.5,2-36.3,2c-16.4,0-27.3-0.5-32.9-1.5c-5-0.7-7.5-2.9-7.5-6.6c0-2.6,1.8-5.8,5.4-9.6c12.2-12.5,28-23.8,47.5-34
		c5.2-2.8,9-4.8,11.3-5.9l5.1-1.3c1.5-0.5,2.3-1.1,2.3-2c0-1.5-3.4-5.1-10.3-10.9l-6.6,6.9H75.9l1.5,3.7h58.2
		C93.1,53.7,71.9,71.7,71.9,85c0,5.5,2.9,9.5,8.7,12c4.9,2.1,20,3.1,45.3,3.1c25.4,0,41-0.7,46.9-2.1c4.5-1,6.8-4.2,7-9.6
		C176.3,88.5,174.1,87.4,173.2,85.2z"/>
</g>
</svg>
