<?xml version="1.0" encoding="utf-8"?>
<!-- Generator: Adobe Illustrator 19.0.0, SVG Export Plug-In . SVG Version: 6.00 Build 0)  -->
<svg version="1.1" id="圖層_1" xmlns="http://www.w3.org/2000/svg" xmlns:xlink="http://www.w3.org/1999/xlink" x="0px" y="0px"
	 viewBox="45 -33.8 150 150" style="enable-background:new 45 -33.8 150 150;" xml:space="preserve">
<style type="text/css">
	.st0{enable-background:new    ;}
	.st1{fill:#DC6200;}
</style>
<g class="st0">
	<path d="M98.7,27.2c11.4,6.5,19.8,14.4,25.1,23.4c2,3.2,3.8,4.8,5.5,4.8c3.3,0,5-1.8,5-5.3c0-8-11.2-16.9-33.7-26.6l-2.4,3.4
		L98.7,27.2z"/>
	<path class="st1" d="M166.2-7.3l-6,8h-46.7c1.4-2.9,3.6-8.1,6.6-15.6c4.9-0.6,7.4-1.7,7.4-3.3c0-2.1-4.8-4.3-14.3-6.6
		C101.9,10.2,84,37.8,59.7,58l2.6,3c14.2-9.7,25.9-20.8,35.2-33.3l0.6-1l0.1,0.1l2.4-3.4c0,0-0.1,0-0.1,0c3.5-5.2,7.3-11.5,11.3-19
		h49.3c-7.2,18.6-15.5,34-24.7,46.2c-16,21.2-39.4,38.1-70.2,50.5l2.3,3.4c21.8-6.9,39.7-15.9,53.7-27
		c19.2-15.4,35.3-38.7,48.3-69.9l4.7-2c0.9-0.4,1.3-1,1.3-1.6C176.4,2.4,173-1.4,166.2-7.3z"/>
</g>
</svg>
