<?xml version="1.0" encoding="utf-8"?>
<!-- Generator: Adobe Illustrator 19.0.0, SVG Export Plug-In . SVG Version: 6.00 Build 0)  -->
<svg version="1.1" id="圖層_1" xmlns="http://www.w3.org/2000/svg" xmlns:xlink="http://www.w3.org/1999/xlink" x="0px" y="0px"
	 viewBox="45 -33.8 150 150" style="enable-background:new 45 -33.8 150 150;" xml:space="preserve">
<style type="text/css">
	.st0{enable-background:new    ;}
	.st1{fill:#DC6200;}
</style>
<g class="st0">
	<path d="M97.4,20.9l-5.3,6.9H76.6l-3-1.6C78.4,13.6,82,0.8,84.6-12.3h25.9l1.6-3c-2.6-3.3-5.8-6.7-9.7-10.3l-7.4,9.6H52.3l1.2,3.7
		h21.6c-3.9,27.1-12.7,51.9-26.4,74.4l3.3,2.4c5.5-7.3,10.4-15.1,14.7-23.4v59.7h8.6V84.9h18.1v11.1h8.3V33.2l3.1-2.1
		c0.5-0.3,0.7-0.7,0.7-1.2C105.6,28.3,102.9,25.3,97.4,20.9z M93.4,81.1H75.3V31.5h18.1V81.1z"/>
	<path class="st1" d="M171.6-2.1c0,30.7-0.7,50.1-2,58.2c-0.9,5.8-3.6,8.7-8.2,8.7c-4.3,0-10.2-0.5-17.4-1.5v3.9
		c6.2,0.9,10.3,1.9,12.5,2.9c2.8,1.2,4.2,3.3,4.4,6.3c9.8-0.1,15.3-4.1,16.6-12c1.9-10.9,2.9-32.4,3-64.3l3.6-2.3
		c0.7-0.4,1.1-0.9,1.1-1.5c0-1.3-3.1-4.6-9.2-9.7l-5.8,7.6h-43.5c2.4-4.5,4.8-9.6,7-15.2c4.1-1.2,6.2-2.5,6.2-3.7
		c0-2.1-4.9-3.8-14.6-5c-4.4,17.8-11.9,34.8-22.3,51l3,2.1c7.5-8.5,13.7-17,18.6-25.5H171.6z"/>
	<path d="M185,79.2c0-3.1,0-5.8,0.1-8.1l-4-1.7c-0.7,6.3-1.8,11.9-3.1,16.8c-1,3.8-3.3,5.9-6.7,6.3c-4.1,0.5-10.2,0.7-18.3,0.7
		c-13.4,0-21.4-0.4-24-1.2c-1.7-0.6-2.6-2.3-2.6-4.9V50.7h22.2v6h8.6V24.1l3-2.3c0.9-0.7,1.3-1.3,1.3-1.8c0-1.1-3-4.1-9-8.9
		l-5.3,6.2h-19.3c-3.4-2.1-6.8-3.6-10-4.8V90c0,4.6,1.2,7.6,3.6,8.9c2.7,1.5,13.8,2.3,33.5,2.3c15.5,0,25.2-0.6,29.1-1.7
		c3.8-1,5.7-3.9,5.9-8.5C186.6,90.9,185,86.9,185,79.2z M126.4,21.1h22.2v25.9h-22.2V21.1z"/>
</g>
</svg>
