<?xml version="1.0" encoding="utf-8"?>
<!-- Generator: Adobe Illustrator 19.0.0, SVG Export Plug-In . SVG Version: 6.00 Build 0)  -->
<svg version="1.1" id="圖層_1" xmlns="http://www.w3.org/2000/svg" xmlns:xlink="http://www.w3.org/1999/xlink" x="0px" y="0px"
	 viewBox="45 -33.8 150 150" style="enable-background:new 45 -33.8 150 150;" xml:space="preserve">
<style type="text/css">
	.st0{enable-background:new    ;}
	.st1{fill:#DC6200;}
</style>
<g class="st0">
	<path class="st1" d="M85,72.3c2.9,6.9,4.4,13.3,4.4,19.3v1.8c-0.1,0.7-0.1,1.4-0.1,2.3c0,2.6,1.3,3.9,3.9,3.9
		c3.2,0,4.8-2.2,4.8-6.6c0-7.2-3.3-14.6-10-22.4L85,72.3z"/>
	<path class="st1" d="M60.9,72.4c-0.6,10.4-3.6,18.1-9,23.4c-1.5,1.4-2.3,2.7-2.3,4c0,1.1,0.5,2.2,1.5,3.1c1.2,1.2,2.5,1.8,4,1.8
		c2,0,3.9-1.3,5.7-3.9c3.2-4.9,4.8-11.3,4.8-19.3c0-2-0.2-4.7-0.7-8.1L60.9,72.4z"/>
	<path d="M179.8,86.4l-8,9.7h-19.9V70.4h29.4l1.7-2.7c-1.8-2.1-5-5.5-9.7-10.2l-7.2,9.2h-14.2V41.5h17.9v6h8.3V-12l4.2-2.7
		c0.7-0.4,1.1-0.9,1.1-1.6c0-1.4-3.1-4.6-9.2-9.6l-5.6,6.6h-40.8c-3.9-2.2-7.3-4-10.2-5.1v75h8.4v-9h17.1v25.2h-27.8l1.5,3.7h26.2
		v25.7h-35.4l1.8,3.7H188l1.5-2.6C186.3,93,183,89.3,179.8,86.4z M151.9-15.6h17.9V8.7h-17.9V-15.6z M151.9,12.4h17.9v25.3h-17.9
		V12.4z M143.2,37.8h-17.1V12.4h17.1V37.8z M143.2,8.7h-17.1v-24.3h17.1V8.7z"/>
	<path d="M98.4,65.7h7.5v-53l3-2c0.8-0.5,1.2-1.1,1.2-1.8c0-1.5-2.6-4.5-7.9-8.9l-5,6.3H85.7c5.4-6.5,9.7-12.7,13.1-18.6l3.7-1.7
		c1.1-0.4,1.7-1,1.7-1.8c0-1.5-2.9-4.5-8.6-9l-5.1,6.3h-13c0.3-0.7,0.5-1.2,0.6-1.5c0.6-1.5,1-2.6,1.2-3.1c4-1.1,6-2.1,6-3.1
		c0-1.9-4.5-3.2-13.5-4C67.2-11.4,59.9,5.2,49.6,19.6l2.6,2.3c2.2-2.4,4.6-5.2,7.1-8.3l0.9-1v55.4h7.6v-7h30.5V65.7z M79,57.3H67.9
		V34.9H79V57.3z M79,31.2H67.9v-21H79V31.2z M69.7,6.4c-0.4-0.1-0.9-0.4-1.6-0.8c-1.1-0.6-1.8-1-2.1-1.2c4.2-6.4,7.5-12.7,10-19
		h14.4c-1.8,6.2-4.9,13.2-9.2,21H69.7z M86.3,10.2h12.1v21H86.3V10.2z M86.3,57.3V34.9h12.1v22.3H86.3z"/>
	<path class="st1" d="M112.9,86.6c0-6.3-4.8-12.4-14.5-18.5L96.1,70c4.8,6.1,7.6,11.6,8.3,16.5c0.5,3.4,1.7,5.1,3.7,5.1
		C111.3,91.6,112.9,89.9,112.9,86.6z"/>
	<path class="st1" d="M71.7,73.1c1.1,4.9,1.6,9.4,1.6,13.5c0,2.8-0.2,5.9-0.7,9.3c0,0.6-0.1,1.2-0.2,1.8c0,0.6-0.1,0.9-0.1,1
		c0,2.7,1.3,4,4,4c3.8,0,5.7-2.9,5.7-8.7c0-6.2-2.3-13.4-7-21.8L71.7,73.1z"/>
</g>
</svg>
