<?xml version="1.0" encoding="utf-8"?>
<!-- Generator: Adobe Illustrator 19.0.0, SVG Export Plug-In . SVG Version: 6.00 Build 0)  -->
<svg version="1.1" id="圖層_1" xmlns="http://www.w3.org/2000/svg" xmlns:xlink="http://www.w3.org/1999/xlink" x="0px" y="0px"
	 viewBox="45 -33.8 150 150" style="enable-background:new 45 -33.8 150 150;" xml:space="preserve">
<style type="text/css">
	.st0{enable-background:new    ;}
	.st1{fill:#DC6200;}
</style>
<g class="st0">
	<path d="M82.5,58.2V25.8c4.4-1.5,6.6-2.9,6.6-4.1c0-2.3-5.2-3.6-15.5-3.7v57h8.9v-13h31.4v-3.7H82.5z"/>
	<path d="M156.2,61.9v9.9h8.9V23.7c4.4-1.4,6.6-2.7,6.6-4c0-2.4-5.2-3.9-15.5-4.4v42.9h-33.1v3.7H156.2z"/>
	<path class="st1" d="M179.9,88.5c-0.8-2.4-1.2-7.7-1.2-16v-3.9l-4-1.3c-0.6,8.5-1.6,15-3,19.6c-1,3.3-3.6,5.1-7.6,5.6
		c-6.2,0.5-12.5,0.7-18.8,0.7c-11.5,0-18.1-0.3-19.9-1c-1.5-0.6-2.3-2.2-2.3-4.8V61.9h0.1v-3.7H123V2.4c13-1.8,28-4.3,44.9-7.8
		c2.2,0.3,4.1,0.4,5.6,0.4c2.4,0,3.6-0.4,3.6-1.3c0-1.8-4-4.7-11.9-8.7c-12.7,4.2-26.8,7.9-42.2,11.1v-16.8c4.9-1.5,7.3-3,7.3-4.4
		c0-2.1-5.4-3.1-16.3-3.3v26.3c-16.8,3.1-36,6-57.4,8.6l1.5,3.9c11.7-1.1,25.2-2.6,40.4-4.7c8.4-1.1,13.6-1.8,15.6-2.1v54.6h-0.1
		v3.7h0.1v25.9c0,5.5,1.3,9.1,3.9,10.8c2.5,1.6,11.2,2.4,26.1,2.4c19.6,0,31.2-0.5,34.9-1.5c3.8-0.9,5.9-3.5,6.2-7.9
		C182.4,91.6,180.6,90.6,179.9,88.5z"/>
</g>
</svg>
