<?xml version="1.0" encoding="utf-8"?>
<!-- Generator: Adobe Illustrator 19.0.0, SVG Export Plug-In . SVG Version: 6.00 Build 0)  -->
<svg version="1.1" id="圖層_1" xmlns="http://www.w3.org/2000/svg" xmlns:xlink="http://www.w3.org/1999/xlink" x="0px" y="0px"
	 viewBox="45 -33.8 150 150" style="enable-background:new 45 -33.8 150 150;" xml:space="preserve">
<style type="text/css">
	.st0{enable-background:new    ;}
	.st1{fill:#DC6200;}
</style>
<g class="st0">
	<path d="M158.8-19.2l-5.9,7.5H85.2c-3.7-2.2-7-3.9-9.9-5v73.8h8.9v-9h70.2v8.6h8.9V-4.7l4.3-2.7c0.9-0.6,1.4-1.2,1.4-1.8
		C168.9-11,165.6-14.3,158.8-19.2z M154.4,44.4H84.2V-8h70.2V44.4z"/>
	<path class="st1" d="M171.8,82.3c-9.3-9.5-22.1-18.2-38.6-26.1l-1.9,3.1c16.3,11.2,28.3,22.9,36,35.1c2.4,3.8,4.5,5.7,6.2,5.7
		c3.5,0,5.3-2,5.3-5.9C178.7,90.9,176.4,86.9,171.8,82.3z"/>
	<path class="st1" d="M98,55.5C87.7,74.2,74.3,88.9,57.7,99.7l2.1,3.3c18.4-8.9,32.7-20.9,43-36c5.1,0,7.7-0.7,7.7-2.1
		C110.6,63,106.4,59.8,98,55.5z"/>
</g>
</svg>
