<?xml version="1.0" encoding="utf-8"?>
<!-- Generator: Adobe Illustrator 19.0.0, SVG Export Plug-In . SVG Version: 6.00 Build 0)  -->
<svg version="1.1" id="圖層_1" xmlns="http://www.w3.org/2000/svg" xmlns:xlink="http://www.w3.org/1999/xlink" x="0px" y="0px"
	 viewBox="45 -33.8 150 150" style="enable-background:new 45 -33.8 150 150;" xml:space="preserve">
<style type="text/css">
	.st0{enable-background:new    ;}
	.st1{fill:#DC6200;}
</style>
<g class="st0">
	<path d="M89.7,105.2h8.6v-7.9H157v7.9h8.4v-57l4-2.6c0.6-0.4,1-0.9,1-1.3c0-1.5-3.1-4.5-9.4-9l-5.5,6.2H99.9
		c-1.4-0.6-2.3-0.9-2.7-1.1l-7.6,9.9V105.2z M98.2,45.2H157v12.6H98.2V45.2z M98.2,61.6H157v13.5H98.2V61.6z M98.2,78.9H157v14.7
		H98.2V78.9z"/>
	<path class="st1" d="M104.8,29.9h81.3l1.5-2.7c-3.3-3.6-7-7-11.1-10l-8.3,9h-61.6c2.6-6,4.5-11,5.8-15h63.3l1.5-2.6
		c-3.1-3.3-6.7-6.7-10.8-10.2l-7.8,9h-45c1.6-5.7,2.8-11,3.7-16l-9.7,0.9c-1.1,5.5-2.3,10.6-3.6,15.2H62.2l1.4,3.7h39.3
		c-1.2,4-3.1,9-5.6,15H54.7l1.3,3.7h39.3C86.8,47.5,72.3,64,51.7,79.4l2.4,3c14.7-8.8,26.6-18.7,35.5-29.6c0,0,7.4-9.5,7.4-9.5
		C99.8,39.2,102.3,34.8,104.8,29.9z"/>
</g>
<g>
	<path d="M179.1-6.1l1.7-2.9c-2.8-3.6-5.8-6.7-9-9.4l-7.2,8.6h-27c4.8-4,8.8-8,12-12c4.5,0,6.7-0.7,6.7-2.1c0-2-4.3-4.5-13-7.7
		c-2.6,7-6.1,13.9-10.4,20.7l-0.6,1H61.7l1.6,3.7H179.1z"/>
	<path d="M98.4-15.2c0.9,3.2,2.5,4.8,4.7,4.8c1,0,2.1-0.4,3.1-1.3c1.6-1.2,2.4-2.7,2.4-4.5c0-6.4-6.6-11.3-19.7-14.4L87.5-28
		C93.5-24.3,97.2-20,98.4-15.2z"/>
</g>
</svg>
