<?xml version="1.0" encoding="utf-8"?>
<!-- Generator: Adobe Illustrator 19.0.0, SVG Export Plug-In . SVG Version: 6.00 Build 0)  -->
<svg version="1.1" id="圖層_1" xmlns="http://www.w3.org/2000/svg" xmlns:xlink="http://www.w3.org/1999/xlink" x="0px" y="0px"
	 viewBox="45 -33.8 150 150" style="enable-background:new 45 -33.8 150 150;" xml:space="preserve">
<style type="text/css">
	.st0{enable-background:new    ;}
	.st1{fill:#DC6200;}
</style>
<g class="st0">
	<path d="M160.8,61.3c2.3,2.9,4.2,5.4,5.6,7.6c2.1,3.7,3.9,5.6,5.4,5.6c3,0,4.5-1.7,4.5-5.1c0-3.7-3.4-8.3-10.3-13.9
		c2.2-2.4,4.3-4.8,6.3-7.3c0.7,0.1,1.6,0.1,2.9,0.1c2.1,0,3.1-0.6,3.1-1.7c0-1.9-3.2-4.6-9.6-8.4c-2.1,4.1-5,8.3-8.6,12.7
		c-4.5-2.9-9.9-6-16.2-9.2l-2,2.9c5.3,3.6,9.9,7.4,13.8,11.4c-3.5,4.4-8.1,8.9-13.9,13.6l2.9,2.5C151.3,68.8,156.6,65.2,160.8,61.3z
		"/>
	<path d="M61.3,39.1l2.1,3c9.1-3.9,17.3-8.9,24.6-15.2c3.4,3.2,6.1,6.3,8.2,9.3c1,1.6,2.2,2.4,3.6,2.4c2.9,0,4.4-1.5,4.4-4.6
		c0-3.6-3.8-7.9-11.4-12.9c3.2-3.2,5.6-6,7.3-8.6c1.7,0.2,2.6,0.3,2.9,0.3c2.2,0,3.4-0.6,3.4-1.7c0-2-3.4-4.8-10.1-8.3
		c-2.1,4.9-5.2,9.8-9.3,14.6c-6.4-3.3-12.4-6-18-8.2L67,12.1c6.6,3.7,11.8,7.1,15.7,10.2C76.6,28.7,69.5,34.3,61.3,39.1z"/>
	<path d="M58.3,80.2c9.7-4.7,17.8-10.2,24.3-16.5c1.8,2.2,3.4,4.3,4.9,6.4c2.6,3.6,4.6,5.4,6,5.4c2.5,0,3.8-1.5,3.8-4.5
		c0-3.7-3.2-8.1-9.5-13.3c1.7-2,4.2-5.1,7.7-9.4c4,0,6-0.6,6-1.8c0-1.8-3.2-4.5-9.7-8.3c-3.4,6.1-6.7,11.1-10,15.2
		c-5.1-3.1-10.5-5.7-16.3-7.8l-1.8,3c5.1,2.9,9.7,6.1,13.8,9.7c-6.7,7.8-13.8,14-21.3,18.6L58.3,80.2z"/>
	<path class="st1" d="M144.6,72.3c0.1,0,0.2-0.1,0.2-0.1l-2.9-2.5c0,0,0,0-0.1,0.1c-11.7-13.2-17.7-28.8-17.8-46.7V-1.7h58.3
		l1.7-2.9c-3.4-4.3-6.8-8.1-10.2-11.2l-8.1,10.3h-41.7V-21c4.6-1.6,6.9-3.1,6.9-4.5c0-2.1-5.3-3.5-15.9-4v24H57.3l1.5,3.7h56.3v36.2
		c0,21-7.3,37.5-21.8,49.3c-9.2,7.6-22.4,13.6-39.5,18l2,3.9c41.1-7.6,63.6-28,67.6-61c5.6,27.4,24.3,46.8,56.3,58
		c1.7-3.3,4.2-6.3,7.7-9C168.6,89,154.4,81.9,144.6,72.3z"/>
	<path d="M169,12c0.7,0.1,1.7,0.1,2.9,0.1c2.3,0,3.5-0.6,3.5-1.7c0-2-3.3-4.8-10-8.6c-2.5,4.9-5.7,9.5-9.6,13.7
		c-4.9-3-10.6-5.9-17.2-8.7l-2.1,3c5.8,3.6,10.8,7.2,15,10.6c-6.1,6.7-13,12.4-20.6,17.1l2.4,3c8.5-4,16.4-9.1,23.6-15.3
		c3,3,5.5,5.9,7.5,8.6c1.3,1.9,2.7,2.9,4,2.9c2.8,0,4.2-1.5,4.2-4.5c0-3.5-3.5-7.7-10.5-12.6C164.7,17.2,167,14.7,169,12z"/>
</g>
</svg>
