<?xml version="1.0" encoding="utf-8"?>
<!-- Generator: Adobe Illustrator 19.0.0, SVG Export Plug-In . SVG Version: 6.00 Build 0)  -->
<svg version="1.1" id="圖層_1" xmlns="http://www.w3.org/2000/svg" xmlns:xlink="http://www.w3.org/1999/xlink" x="0px" y="0px"
	 viewBox="45 -33.8 150 150" style="enable-background:new 45 -33.8 150 150;" xml:space="preserve">
<style type="text/css">
	.st0{enable-background:new    ;}
	.st1{fill:#DC6200;}
</style>
<g class="st0">
	<path d="M165.1,57.3c-1.7-5.3-2.9-10.5-3.7-15.8c4.1-1.4,6.2-2.7,6.2-3.9c0-2.2-4.9-3.5-14.7-4v6.2c0,12.5-1.6,23.6-4.7,33.2
		c-1.7,5.1-3.4,9.3-5.2,12.6c-2.9,5.2-7,10.4-12.3,15.6l2.3,2.6c15.3-10.2,24.5-27.2,27.5-51.3c4,20.7,10.9,37,20.9,49
		c1.8-3.3,4.2-6.1,7.4-8.3C178.1,84.7,170.2,72.8,165.1,57.3z"/>
	<path d="M74.9,12.4h89.2v5.3h8.4v-33l3.6-2.4c0.8-0.5,1.2-1.1,1.2-1.8c0-1.5-2.9-4.4-8.7-8.9l-5.9,6.6H76.2c-2.7-1.5-6-3-9.9-4.5
		v45h8.6V12.4z M139.9-18h24.2V8.7h-24.2V-18z M107.9-18h23.9V8.7h-23.9V-18z M74.9-18h24.9V8.7H74.9V-18z"/>
	<path class="st1" d="M155.6,27.4c2.1,0,3.1-0.5,3.1-1.5c0-1.6-3-4.5-9-8.7c-12.8,4.9-35.1,9.3-67,13.1l1.7,3.4
		c7.9-0.2,17.8-1,29.7-2.2v73.6h8.6V30.5c11.3-1.4,20.6-2.7,28.1-4.1C153.8,27.1,155.4,27.4,155.6,27.4z"/>
	<path d="M81.3,59.7c1.8-5.2,3.3-10.1,4.5-14.6c4.2-0.8,6.3-1.8,6.3-3c0-2.1-4.8-4.5-14.3-7c-3.8,26-12.5,47.4-26,64.4l2.9,2.7
		C66,91.6,74.4,78.9,79.8,64.1c6.8,8.1,11.3,15.8,13.3,23.2c1.2,4.3,2.9,6.4,5.1,6.4c3.4,0,5.1-1.9,5.1-5.7c0-2.9-1.4-6.5-4.3-10.9
		C94.7,70.9,88.8,65.1,81.3,59.7z"/>
</g>
</svg>
