<?xml version="1.0" encoding="utf-8"?>
<!-- Generator: Adobe Illustrator 19.0.0, SVG Export Plug-In . SVG Version: 6.00 Build 0)  -->
<svg version="1.1" id="圖層_1" xmlns="http://www.w3.org/2000/svg" xmlns:xlink="http://www.w3.org/1999/xlink" x="0px" y="0px"
	 viewBox="45 -33.8 150 150" style="enable-background:new 45 -33.8 150 150;" xml:space="preserve">
<style type="text/css">
	.st0{enable-background:new    ;}
	.st1{fill:#DC6200;}
</style>
<g class="st0">
	<path d="M124,40.3c0-2.2-4.5-4.3-13.5-6.3c-2.5,21.7-8.3,39.5-17.4,53.2l3,2.3c7.7-8.9,13.6-19.1,17.8-30.5
		c4.4,7.1,7.1,13.8,8,20.1c0.6,4,1.9,6,4,6c3.3,0,5-2,5-5.9c0-7.2-5.2-15.3-15.7-24.2c1.3-4.5,2.2-8.6,2.9-12.3
		C122,42.4,124,41.6,124,40.3z"/>
	<path class="st1" d="M93.8,19.1c7.2-8.5,12.3-17.2,15.5-25.9h1.3c4.1,5,6.7,10.8,7.5,17.3c0.4,3.8,1.8,5.7,4,5.7
		c3.4,0,5.1-1.7,5.1-5.1c0-5.3-4.1-11.3-12.3-17.9h24.9l1.6-2.9c-2.4-3.6-5.1-6.7-7.9-9.4l-6,8.6h-17.1c0.9-2.4,1.8-5.8,2.9-10.2
		c3.7-0.4,5.6-1.3,5.6-2.6c0-2-4.4-3.9-13.2-5.7c-2,17.4-6.9,32.7-14.7,45.9L93.8,19.1z"/>
	<path d="M181.5,89.6c-0.2-0.2-0.7-0.7-1.4-1.2c-0.5-0.4-0.8-0.7-1-0.9l-7.7,8.7H143V26.8h39.5l1.6-2.9c-3.1-4.2-6.2-7.5-9.2-9.7
		L168,23H95.6l1.3,3.7h37.6v69.4H87.9l1.7,3.7h97.6l1.5-3.1C186.5,93.9,184.1,91.5,181.5,89.6z"/>
	<path class="st1" d="M135.2,18.9c7.1-7.7,12.4-16.3,15.9-25.8h2.1c4.8,6,7.9,11.9,9.2,17.7c0.7,3.3,2.1,5,4.2,5c3.3,0,5-1.8,5-5.4
		c0-5.5-4.5-11.2-13.5-17.2h29.2l1.5-3c-2.6-3.4-5.7-6.7-9.2-9.7l-6.3,9h-20.7c1.1-3.3,2-6.8,2.6-10.6c3.8-0.8,5.7-1.7,5.7-2.7
		c0-1.9-4.3-3.8-13-5.6c-2.2,18.4-7.4,33.8-15.6,46.2L135.2,18.9z"/>
	<path d="M175.2,40.5c0-2.1-4.7-4.3-14-6.7c-2,21.8-7,39.4-15.2,53l2.8,2.2c7.2-8.8,12.6-18.6,16.4-29.5c4.8,7.2,7.6,13.7,8.5,19.6
		c0.8,4.2,2.2,6.3,4.4,6.3c3.2,0,4.8-2,4.8-5.9c0-2.1-0.5-4.1-1.5-6.2c-3.5-7.2-8.5-13.1-15-17.8c0.9-3.1,1.9-7.3,2.9-12.7
		C173.2,42.4,175.2,41.6,175.2,40.5z"/>
	<path d="M88.5,77V-1l3.7-2.6c0.4-0.3,0.6-0.6,0.6-1c0-1.4-2.8-4.3-8.3-8.9l-5.4,6.6H66.7c-0.6-0.3-9.6-5.1-10-5.3v95.9h8.1V66h15.9
		V77H88.5z M64.8,62.2V-3.2h15.9v65.4H64.8z"/>
</g>
</svg>
