<?xml version="1.0" encoding="utf-8"?>
<!-- Generator: Adobe Illustrator 19.0.0, SVG Export Plug-In . SVG Version: 6.00 Build 0)  -->
<svg version="1.1" id="圖層_1" xmlns="http://www.w3.org/2000/svg" xmlns:xlink="http://www.w3.org/1999/xlink" x="0px" y="0px"
	 viewBox="45 -33.8 150 150" style="enable-background:new 45 -33.8 150 150;" xml:space="preserve">
<style type="text/css">
	.st0{enable-background:new    ;}
	.st1{fill:#DC6200;}
</style>
<g class="st0">
	<path d="M73.6-8.2c0.6,2.4,2,3.6,4.2,3.6c3.4,0,5.1-2,5.1-5.9c0-6.7-6.2-12.1-18.6-16.2l-2.1,3C68.2-19.6,72-14.4,73.6-8.2z"/>
	<path d="M61.3,23.5c0.7,3.5,2.2,5.3,4.5,5.3c3.6,0,5.4-1.9,5.4-5.6c0-6.8-5.9-12.6-17.7-17.4l-2.3,2.5C57,13.1,60.3,18.2,61.3,23.5
		z"/>
	<path d="M179.7,12.3l-6,9.2h-29.2v-32.4c11.5-2,21.7-4.5,30.4-7.5c2.3,0.6,4,1,5,1c1.5,0,2.3-0.4,2.3-1.3c0-1.9-3.1-5.2-9.4-9.8
		c-7.1,5.2-16.5,9.7-28.1,13.6c-2-1.1-4.9-2.5-8.7-4.2v45.4c0,33.9-6.1,59.5-18.3,76.6l3,2.3c8.7-8.5,14.8-18.9,18.5-31.1
		c3.6-12.1,5.4-28,5.4-47.5v-1.3h17.4v80.1h8.6V25.2H186l1.5-2.9C184.5,18,181.9,14.6,179.7,12.3z"/>
	<path class="st1" d="M129.1,31.2c-6.1,2.6-11.9,5-17.3,7V7.2h18.8l1.5-3L131,2.5c-1.6-2.4-3.9-5.2-6.9-8.6l-6.4,9.4h-5.9v-24.8
		c4.6-1.5,6.9-2.9,6.9-4.3c0-2.4-5.1-3.8-15.3-4v33H88.9l-0.7,3.7h15.1v33.9c-4.9,1.7-11.5,3.6-19.8,5.9c2.8,8.6,5.3,12.9,7.3,12.9
		c1.4,0,2.1-2.1,2.3-6.4c0.6-0.2,2-0.9,4.3-1.9c2.3-1,4.2-1.8,5.9-2.5v39.5c0,2.9-1.7,4.3-5.1,4.3c-5.2,0-9.5-0.3-12.9-1v3.7
		c4.1,0.7,7.1,1.6,9,2.6c2.4,1.4,3.6,3.6,3.6,6.6c9.2,0.1,13.8-4,13.8-12.5V45.1c6.9-3.3,13.1-6.7,18.8-10.2L129.1,31.2z"/>
	<path d="M88.8,3.4L89.9-1l-3.7-2c-6.4,25.9-12.7,46.1-18.8,60.6c-1.7,3.9-4.7,5.9-9,5.9c-1.5,0-3.3-0.2-5.3-0.6v3.9
		c7.7,1.4,11.6,6.3,11.6,14.9c0,2.8-0.2,6.3-0.7,10.6c-0.7,4.3-1.1,6.8-1.1,7.5c0,3.5,1.9,5.3,5.6,5.3c4.4,0,6.6-3,6.6-9
		c0-2.4-0.5-6.3-1.5-11.5c-0.7-3.2-1-5.5-1-6.8c0-2.2,0.3-4.7,1-7.5c0.3-1,0.6-2,0.8-3.1c0.2-1,0.4-1.6,0.4-1.7L87.9,7.2h0.4
		l0.7-3.7H88.8z"/>
</g>
</svg>
