<?xml version="1.0" encoding="utf-8"?>
<!-- Generator: Adobe Illustrator 19.0.0, SVG Export Plug-In . SVG Version: 6.00 Build 0)  -->
<svg version="1.1" id="圖層_1" xmlns="http://www.w3.org/2000/svg" xmlns:xlink="http://www.w3.org/1999/xlink" x="0px" y="0px"
	 viewBox="45 -33.8 150 150" style="enable-background:new 45 -33.8 150 150;" xml:space="preserve">
<style type="text/css">
	.st0{enable-background:new    ;}
	.st1{fill:#DC6200;}
</style>
<g class="st0">
	<path d="M186.7,37.8c-3.1-4.3-6.3-8.3-9.6-12l-7.7,11.4h-17.2v3.7h32.9L186.7,37.8z"/>
	<path d="M173,82.3l-8.1,11.3H150l0-0.2h-9.2l0,0.2H99.2l0.4-4.7c1.7-15.2,2.9-27.6,3.6-37l0.9-11h38.6l0.1-3.7h-38.4l0.7-6.4
		L107.5-5l0.4-5.8h-9.3l-0.4,5.9L97.4,8.3l-0.7,8.9l-1.5,20h-42l1.2,3.7h40.5l-0.4,6.3c-0.8,9.3-2,21.7-3.6,37.1l-1,9.3H57l1.4,3.7
		h123l1.5-2.9C179.3,89.5,175.9,85.4,173,82.3z"/>
	<path class="st1" d="M107.9-10.9h36.3c-0.2,14.4-0.5,30.4-1,48h-0.3l-0.1,3.7h0.3l-0.1,4.5c-0.1,4.3-0.6,17.1-1.5,38.3l-0.4,9.7
		h9.2l0.1-4.5c1-24.1,1.5-36.6,1.5-37.5l0.4-10.5h0v-3.7h0l0.3-6.4c0.3-13,0.6-25.9,0.7-38.6l4-2.4c0.8-0.5,1.2-1,1.2-1.6
		c0-1.4-3.1-4.8-9.4-10.2l-5.9,7.5H66.3l1.5,3.7h30.8l0,0.1L107.9-10.9L107.9-10.9z"/>
</g>
</svg>
