<?xml version="1.0" encoding="utf-8"?>
<!-- Generator: Adobe Illustrator 19.0.0, SVG Export Plug-In . SVG Version: 6.00 Build 0)  -->
<svg version="1.1" id="圖層_1" xmlns="http://www.w3.org/2000/svg" xmlns:xlink="http://www.w3.org/1999/xlink" x="0px" y="0px"
	 viewBox="45 -33.8 150 150" style="enable-background:new 45 -33.8 150 150;" xml:space="preserve">
<style type="text/css">
	.st0{enable-background:new    ;}
	.st1{fill:#DC6200;}
</style>
<g class="st0">
	<path d="M84.9,8.5h101.1l1.4-2.9c-2.8-3.5-5.6-6.5-8.4-9c-0.2-0.1-0.6-0.4-1.2-1l-7,9.2h-14c0-0.1,0.1-0.1,0.1-0.2h-4.5
		c0,0.1-0.1,0.1-0.1,0.2H147V-23c3.5-1.2,5.3-2.4,5.3-3.4c0-2.1-4.5-3.1-13.4-3.3V4.7h-13.7v-27.6c3.5-1.2,5.2-2.4,5.2-3.4
		c0-2.3-4.4-3.4-13.3-3.4V4.7H83.2L84.9,8.5z"/>
	<path class="st1" d="M170-16.1c4.1-0.4,6.2-1.3,6.2-2.5c0-1.8-4.4-4.1-13.3-7c-2.7,11.3-6.2,21.3-10.4,30.2h4.5
		C162.2-2.3,166.6-9.2,170-16.1z"/>
	<path d="M106.5,11.3c4.1,3.5,6.7,7.7,7.5,12.7c0.4,2.5,1.8,3.7,4,3.7c3.4,0,5.1-1.8,5.1-5.3c0-5.6-5-10.1-15-13.5L106.5,11.3z"/>
	<path d="M72.8,14.8C76.4,4.7,79.9-7,83.2-20.2c4.3-0.7,6.4-1.8,6.4-3.1c0-2.1-4.8-4.1-14.3-5.9C70,3.3,61.2,31,49,54l3.4,2.2
		c4.5-7,8.9-14.9,13-23.7v72.7h8.4V22.3c4.1-1.4,6.2-2.7,6.2-4C80.1,16.8,77.6,15.7,72.8,14.8z"/>
	<path class="st1" d="M104.7,3.1c3.4,0,5.1-1.9,5.1-5.7c0-7-5.2-13.5-15.5-19.5l-2.1,2.2C97-14,99.9-7.6,100.7-0.8
		C101.1,1.8,102.4,3.1,104.7,3.1z"/>
	<path d="M136.9,68.4h48.5l1.8-2.7c-3-3.4-6.4-6.7-10.2-10.1l-7.7,9.1H135c0.9-3.6,1.3-7.5,1.3-11.6v-3.3h38.1l1.8-2.6
		c-3-3.5-6.2-6.6-9.6-9.4l-6.6,8.2h-23.7V32.3h46.2l1.6-2.7c-2.5-3.1-5.4-6.2-8.7-9.2l-0.9-0.7l-7,8.9h-21.9
		c3.8-3.5,7.1-7.2,9.9-11.1c3.5-0.3,5.3-1,5.3-2.1c0-1.8-4.2-3.9-12.5-6.3c-1.8,7-4.3,13.5-7.5,19.5H85.3l1.7,3.7h40.6V46h-36
		l1.8,3.7h34.2v2.7c0,3.9-0.6,8-1.7,12.2H82l1.7,3.7h41.1c-6.2,16.3-20.4,27.5-42.6,33.6l2.1,3.4c25.6-5,41.9-16.7,48.9-35.1
		c8.8,16.7,25,27.9,48.4,33.7c1.4-2.9,3.8-5.8,7.1-8.8C164.4,91.2,147.2,82.2,136.9,68.4z"/>
</g>
</svg>
