<?xml version="1.0" encoding="utf-8"?>
<!-- Generator: Adobe Illustrator 19.0.0, SVG Export Plug-In . SVG Version: 6.00 Build 0)  -->
<svg version="1.1" id="圖層_1" xmlns="http://www.w3.org/2000/svg" xmlns:xlink="http://www.w3.org/1999/xlink" x="0px" y="0px"
	 viewBox="45 -33.8 150 150" style="enable-background:new 45 -33.8 150 150;" xml:space="preserve">
<style type="text/css">
	.st0{enable-background:new    ;}
	.st1{fill:#DC6200;}
</style>
<g class="st0">
	<path d="M123-13.7h60.8l1.5-2.6c-3.2-3.8-6.8-7.5-10.9-11.2l-8.1,10H55.3l1.5,3.7h57.3v0.1h8.9V-13.7z"/>
	<rect x="72.8" y="63.4" width="8.7" height="41.8"/>
	<path d="M156.8,86.8c0,3-2.1,4.5-6.3,4.5c-7.4,0-14.7-0.4-21.9-1.1v4c7.9,1,13.2,2.1,15.9,3.1c3.3,1.3,4.9,3.4,4.9,6.3
		c2.2,0,4.3-0.2,6.2-0.7c6.7-1.2,10.1-5.1,10.1-11.8V63.6h-8.9V86.8z"/>
	<path class="st1" d="M180,49.3l-7,10.2h-7.3v-0.3h-8.9v0.3H123V36.2h33.7v-3.7H123V11h0.2V7.3H123v-20.9h-8.9V7.3h-0.3l0.1,3.7h0.2
		v21.5H81.5v3.7h32.6v23.3H81.5v-0.1h-8.7v0.1H51.4l1.5,3.7h19.8v0.1h8.7v-0.1h75.3v0.3h8.9v-0.3h21.6l1.6-2.9
		C186.4,56.5,183.4,52.9,180,49.3z"/>
	<path d="M81.5,36.2L81.5,36.2l0-3.7h0V11h32.5l-0.1-3.7H83.1c-3-1.5-6.4-3-10.3-4.5v56.6h8.7V36.2z"/>
	<path d="M156.8,11v21.5h-0.1v3.7h0.1v23h8.9V14.5l3.7-2.4c0.8-0.4,1.2-1,1.2-1.8c0-1.6-3.2-4.8-9.5-9.7l-5.9,6.7h-32.1V11H156.8z"
		/>
</g>
</svg>
