<?xml version="1.0" encoding="utf-8"?>
<!-- Generator: Adobe Illustrator 19.0.0, SVG Export Plug-In . SVG Version: 6.00 Build 0)  -->
<svg version="1.1" id="圖層_1" xmlns="http://www.w3.org/2000/svg" xmlns:xlink="http://www.w3.org/1999/xlink" x="0px" y="0px"
	 viewBox="45 -33.8 150 150" style="enable-background:new 45 -33.8 150 150;" xml:space="preserve">
<style type="text/css">
	.st0{enable-background:new    ;}
	.st1{fill:#DC6200;}
</style>
<g class="st0">
	<path class="st1" d="M91.3,23.5h72l1.7-2.9c-3-3.3-6.6-6.5-10.8-9.6l-7.9,8.7H91.3V3.9h72L165,1c-3.6-3.5-7.3-6.7-11.1-9.6
		l-8.1,8.7H91.3v-15.3h80l1.6-2.7c-3.3-3.5-7-7-11.3-10.5l-7.9,9.4H92.8c-4.1-2.2-7.6-4-10.6-5.1v64.4h9.2V23.5z"/>
	<path d="M142.1,73c7.4-4.1,14.9-9.2,22.5-15.3c2.3,0.2,3.6,0.3,3.7,0.3c2.4,0,3.6-0.5,3.6-1.6c0-1.9-3.7-5-11-9.3
		c-7.2,9.3-14.5,16.9-22,22.9c-6.6-6.1-12.6-14.6-18-25.8h65.3l1.7-2.7c-3.6-4.2-7.3-7.9-11.1-10.9l-8.2,9.9H91.3v-0.1h-9.2v0.1
		H52.6l1.3,3.7h28.2v43.5L80.3,88c-5.8,1.1-13.5,2.1-22.9,3.1c2.6,9.2,4.9,13.8,7,13.8c1.2,0,2.1-1.9,2.7-5.8
		c21.5-4.3,42.3-10.1,62.5-17.1l-1-3.9c-10.9,2.7-23.4,5.4-37.4,7.9V44.2h24.3c3.9,10,8,18.1,12.3,24.2c11.2,15.6,29,27,53.2,34.2
		c1.4-3,3.8-6.1,7.2-9.2C168.6,89,153.2,82.2,142.1,73z"/>
</g>
</svg>
