<?xml version="1.0" encoding="utf-8"?>
<!-- Generator: Adobe Illustrator 19.0.0, SVG Export Plug-In . SVG Version: 6.00 Build 0)  -->
<svg version="1.1" id="圖層_1" xmlns="http://www.w3.org/2000/svg" xmlns:xlink="http://www.w3.org/1999/xlink" x="0px" y="0px"
	 viewBox="45 -33.8 150 150" style="enable-background:new 45 -33.8 150 150;" xml:space="preserve">
<style type="text/css">
	.st0{enable-background:new    ;}
	.st1{fill:#DC6200;}
</style>
<g class="st0">
	<path d="M183.1,90.1c-0.7-2.5-1-9.3-1-20.1l-4-1.6c-0.9,12.1-1.9,19.7-2.9,22.7c-0.9,2.7-4.3,4-10.1,4c-4.8,0-7.2-1.3-7.2-4V52.4
		h9.4v7.3h8.9v-72.9l4-2.7c0.7-0.4,1.1-0.9,1.1-1.6c0-1.4-3.2-4.5-9.5-9.4l-6,7.2h-40.6c-3.3-1.7-6.7-3.3-10-4.8v84.4h8.9v-7.3h7.3
		c-0.4,24.3-13,40.8-37.6,49.7l2,3.7c15.6-4.4,26.8-10.8,33.6-19.3c6.8-8.3,10.5-19.7,11.1-34.1h8.9v40.4c0,4.3,1,7.1,2.9,8.3
		c2,1.2,6.5,1.8,13.8,1.8c10.2,0,16.5-0.5,19-1.5c2.3-0.9,3.6-3.3,3.7-7.3C185.7,94,183.9,92.7,183.1,90.1z M124-16.1h43.4V1.4H124
		V-16.1z M124,5.2h43.4v19.4H124V5.2z M124,48.7V28.3h43.4v20.4H124z"/>
	<path class="st1" d="M103.7,85.2c1.2,2.7,2.8,4.1,4.8,4.1c3.3,0,5-1.6,5-4.8c0-9.1-10.7-30.3-30.5-42.1l-0.8,4.2
		C93.7,54.4,101.2,79.4,103.7,85.2z"/>
	<path d="M84.2,54c0.5-3.6,0.9-9.1,1-16.5h23.7l1.8-3c-2.7-3.6-5.6-7-8.7-10.2l-6.7,9.4h-10V7.9h20.7l1.6-3.1
		c-3.5-4.1-6.4-7.3-8.6-9.3l-6.3,8.7h-7.5v-24c4.2-1.5,6.3-2.9,6.3-4.2c0-2.1-5-3.3-15-3.4V4.2H55.9l1.4,3.7h19.2v25.9H51.6l1.5,3.7
		h23.4c-0.4,26.9-8.6,47.8-24.6,62.8l2.6,3C70.6,91.8,80.3,77,83.4,58.6C83.4,58.7,84.2,54,84.2,54z"/>
</g>
</svg>
