<?xml version="1.0" encoding="utf-8"?>
<!-- Generator: Adobe Illustrator 19.0.0, SVG Export Plug-In . SVG Version: 6.00 Build 0)  -->
<svg version="1.1" id="圖層_1" xmlns="http://www.w3.org/2000/svg" xmlns:xlink="http://www.w3.org/1999/xlink" x="0px" y="0px"
	 viewBox="45 -33.8 150 150" style="enable-background:new 45 -33.8 150 150;" xml:space="preserve">
<style type="text/css">
	.st0{enable-background:new    ;}
	.st1{fill:#DC6200;}
</style>
<g class="st0">
	<path class="st1" d="M91.7,61.8C83.3,76.9,72.1,89.2,58,98.5l2.1,3.1c15.9-7.7,28.1-17.5,36.6-29.2c5,0,7.5-0.7,7.5-2.1
		C104.3,68,100.1,65.2,91.7,61.8z"/>
	<path d="M88.9-7V7.3h8.6V-7h22.8l1.5-2.9c-2.7-3.1-6-6.3-10-9.6l-6.8,8.7h-7.5v-10.8c4.1-1.4,6.2-2.7,6.2-3.9
		c0-2.2-4.9-3.3-14.7-3.3v18H54.3L55.8-7H88.9z"/>
	<path d="M140.4-7V7.3h8.6V-7h35.5l1.7-2.9c-2.9-3.4-6.5-6.8-10.8-10.2l-7.2,9.3h-19.2v-10.6c4-1.4,6-2.7,6-4
		c0-2.3-4.9-3.4-14.6-3.4v18h-15.2l1.5,3.7H140.4z"/>
	<path d="M122.3,7.3c4.4-0.3,6.6-1.1,6.6-2.4c0-1.9-4.2-4.1-12.6-6.4c-15.5,24.3-37.3,43-65.3,56l2,3.1c29-11.1,51.4-27,67.2-47.5
		c16.3,17.9,37,31.4,62,40.4c1-3.4,3-6.5,6-9.3C161.2,33.4,139.2,22.1,122.3,7.3z"/>
	<path class="st1" d="M168.1,52.9c-3-3-6.5-6-10.3-8.9l-7,7.8h-27v-15c4.2-1.5,6.3-2.9,6.3-4c0-2.2-5.1-3.6-15.2-4v23.1H71.4l2,3.7
		h41.5v49.7h8.9V55.6h42.8L168.1,52.9z"/>
	<path class="st1" d="M137.6,62.7l-1.8,3c14,8.3,23.7,16.6,29,25c2,3,3.8,4.5,5.5,4.5c3.5,0,5.3-1.9,5.3-5.6
		C175.5,81.1,162.9,72.1,137.6,62.7z"/>
</g>
</svg>
