<?xml version="1.0" encoding="utf-8"?>
<!-- Generator: Adobe Illustrator 19.0.0, SVG Export Plug-In . SVG Version: 6.00 Build 0)  -->
<svg version="1.1" id="圖層_1" xmlns="http://www.w3.org/2000/svg" xmlns:xlink="http://www.w3.org/1999/xlink" x="0px" y="0px"
	 viewBox="45 -33.8 150 150" style="enable-background:new 45 -33.8 150 150;" xml:space="preserve">
<style type="text/css">
	.st0{fill:#D3228C;}
	.st1{enable-background:new    ;}
	.st2{fill:#DC6200;}
</style>
<g>
	<path class="st0" d="M140.6,72.7c10.8-7.9,19.1-15.2,24.8-21.9c0.8,0.1,1.7,0.1,2.7,0.1c2.8,0,4.2-0.6,4.2-1.7
		c0-1.9-3.9-5.2-11.6-9.9c-6,11.1-13.6,21.3-23,30.5c-7.8-7.8-12.3-16.5-13.5-26.1V32.5c4-1.3,6-2.6,6-3.7c0-2.1-5-3.1-14.9-3.3V43
		c0,16-6.1,29.3-18.3,40c-9.9,8.7-23.6,14.9-41.1,18.5l1.8,3.4c38.8-5.6,60.6-22.1,65.4-49.7c6.2,22.1,24.7,38,55.4,47.9
		c1.7-3.8,4-7,7-9.6C167.2,90.3,152.3,83.3,140.6,72.7z"/>
	<path class="st0" d="M72,67.7c-3,2.3-4.5,4.3-4.5,6c0,3.4,1.8,5.1,5.4,5.1c3.9,0,7.6-2.8,11.2-8.3c4.5-7,7.1-16.3,7.7-27.8l-3.5-1
		C85.5,53.3,80.1,61.9,72,67.7z"/>
</g>
<g class="st1">
	<path class="st2" d="M166.2-10.4c2.1,0.2,3.3,0.3,3.5,0.3c2.5,0,3.7-0.6,3.7-1.7c0-2-4-5.4-11.9-10.2
		c-6.6,11.2-13.9,20.5-21.9,28.1l2.3,2.3C152.5,1.9,160.6-4.4,166.2-10.4z"/>
	<path class="st2" d="M124.6-11.6c0.1-1.1,0.1-2.7,0.1-5v-4.3c4-1.5,6-2.8,6-4c0-2-5-3.1-14.9-3.4v11.6c0,29.1-19.5,47.9-58.5,56.3
		l1.7,3.5c12-2.1,21.6-4.7,28.9-7.6c7.9-3.1,14.9-7.4,21.2-13c7.9-7,12.8-16.1,14.7-27.3C123.9-4.8,124.6-11.5,124.6-11.6z"/>
	<path class="st2" d="M74.9,17.6c3.2,0,6.5-2.1,9.7-6.4C89.8,4.4,92.7-5,93.5-17l-3.6-1C86.6-6.7,81.3,1.5,74,6.5
		c-3,2.1-4.5,4-4.5,5.7C69.5,15.8,71.3,17.6,74.9,17.6z"/>
</g>
<g>
	<path class="st2" d="M119.5,2.1C136.2,7.6,158.3,18,167.2,24c7.2,4.9,10.8,9,10.8,12.3c0,1.8-1.6,3-3.1,3.3
		c-1.3,0.2-4.4-0.7-7.2-4.2c-7-8.6-30.6-21.7-49.4-30.8L119.5,2.1z"/>
</g>
</svg>
