<?xml version="1.0" encoding="utf-8"?>
<!-- Generator: Adobe Illustrator 19.0.0, SVG Export Plug-In . SVG Version: 6.00 Build 0)  -->
<svg version="1.1" id="圖層_1" xmlns="http://www.w3.org/2000/svg" xmlns:xlink="http://www.w3.org/1999/xlink" x="0px" y="0px"
	 viewBox="45 -33.8 150 150" style="enable-background:new 45 -33.8 150 150;" xml:space="preserve">
<style type="text/css">
	.st0{enable-background:new    ;}
	.st1{fill:#DC6200;}
</style>
<g class="st0">
	<path d="M155.1,71.7V18.4h31.2l1.7-2.9c-2.7-3.4-5.2-6.2-7.7-8.5l-2.7-2.7l-7.8,10.3h-14.7v-32.8c4.4-1.6,6.6-3,6.6-4.2
		c0-2.2-5.2-3.6-15.5-4v41.1h-26.4v-32.5c4.7-1.7,7-3.2,7-4.4c0-2.2-5.3-3.6-15.9-4v40.9h-11v3.7h11v54.2h8.9V59.7h26.4v12H155.1z
		 M119.9,55.9V18.4h26.4v37.6H119.9z"/>
	<path class="st1" d="M84.1,14.6V-18c4.3-1.5,6.4-2.9,6.4-4.2c0-2.4-5.2-3.8-15.6-4.1v40.9H52.2l1.5,3.7H75v86.9h9.2V92h97.6
		l1.9-3.3c-5.4-5.5-9.2-9.2-11.4-10.9l-8.4,10.5H84.1V18.4H100v-3.7H84.1z"/>
</g>
</svg>
