<?xml version="1.0" encoding="utf-8"?>
<!-- Generator: Adobe Illustrator 19.0.0, SVG Export Plug-In . SVG Version: 6.00 Build 0)  -->
<svg version="1.1" id="圖層_1" xmlns="http://www.w3.org/2000/svg" xmlns:xlink="http://www.w3.org/1999/xlink" x="0px" y="0px"
	 viewBox="45 -33.8 150 150" style="enable-background:new 45 -33.8 150 150;" xml:space="preserve">
<style type="text/css">
	.st0{enable-background:new    ;}
	.st1{fill:#DC6200;}
</style>
<g class="st0">
	<path class="st1" d="M111.1,12.6v-30.3c4.6-1.6,6.9-3.1,6.9-4.5c0-2.4-5.4-3.7-16.3-3.9v38.7H60.3l1.3,3.7h40.1
		c-0.3,13.3-1.8,24.6-4.6,34.1c-6.3,22.1-20.8,39.3-43.5,51.4l2.2,3.4c20.6-8.5,35.2-20.6,43.7-36.1c7.4-13.5,11.3-31.1,11.7-52.8
		h15v-3.7H111.1z"/>
	<path d="M182,86.8c-0.8-3.1-1.2-12.1-1.2-27l-4.4-1.2c-1,18.9-2.8,29.5-5.2,31.8c-1.3,1.3-4.8,2-10.4,2c-4.3,0-7.1-0.3-8.5-1
		c-1.5-0.6-2.3-2.1-2.3-4.5V19.8l4.2-2.6c1-0.5,1.5-1.2,1.5-2.1c0-1.7-3.3-5-10-9.9l-6,7.3h-13.5v3.7h14.7v72.6c0,5,1.1,8.1,3.3,9.4
		c2.4,1.5,8.6,2.3,18.6,2.3c9,0,15-0.4,18-1.2c3.8-1.1,5.9-4.1,6.2-9C184.4,90.4,182.7,89.2,182,86.8z"/>
</g>
</svg>
