<?xml version="1.0" encoding="utf-8"?>
<!-- Generator: Adobe Illustrator 19.0.0, SVG Export Plug-In . SVG Version: 6.00 Build 0)  -->
<svg version="1.1" id="圖層_1" xmlns="http://www.w3.org/2000/svg" xmlns:xlink="http://www.w3.org/1999/xlink" x="0px" y="0px"
	 viewBox="45 -33.8 150 150" style="enable-background:new 45 -33.8 150 150;" xml:space="preserve">
<style type="text/css">
	.st0{enable-background:new    ;}
	.st1{fill:#DC6200;}
	.st2{fill:#D3228C;}
</style>
<g class="st0">
	<rect x="81.9" y="41.6" width="9" height="21.5"/>
	<path class="st1" d="M150.8,5.3l-5.4,6.3H92.5c-4.3-2.2-7.8-3.9-10.6-5v34.9h9v-0.5h55.4v4.2h8.6V18.3l3.7-2.4
		c0.8-0.5,1.2-1,1.2-1.6C159.9,12.9,156.9,9.9,150.8,5.3z M146.4,37.3H90.9v-22h55.4V37.3z"/>
	<path class="st2" d="M159.8,56.8l-5.4,6.4H90.9v-0.2h-9v42.2h9v-9.3h64.5v9.3h8.7V70l3.7-2.6c0.8-0.5,1.2-1,1.2-1.6
		C169.1,64.5,166,61.5,159.8,56.8z M155.4,92.2H90.9V67h64.5V92.2z"/>
	<path d="M175.7-17.1L170-9.9h-46.4v-11.9c4.5-1.7,6.7-3.1,6.7-4.3c0-2.3-5.1-3.5-15.3-3.7v19.9H71.8c0-0.4-0.3-2.1-0.7-5.1
		l-4.2-0.6c-0.5,11.1-3.7,19.7-9.7,25.8c-1.5,1.5-2.3,3.1-2.3,4.6c0,1.2,0.5,2.3,1.5,3.3c1.4,1.4,2.9,2.1,4.4,2.1
		c3.1,0,5.8-2.5,8.1-7.6C70.9,8.1,72,1.8,72-6.2h98.4c-1.9,4.5-4.6,9.4-8,14.7l2.7,2.2c6-4.1,10.9-8.3,14.6-12.3l4.5-0.6
		c1.5-0.1,2.3-0.7,2.3-1.8C186.4-5.8,182.8-10.2,175.7-17.1z"/>
</g>
</svg>
