<?xml version="1.0" encoding="utf-8"?>
<!-- Generator: Adobe Illustrator 19.0.0, SVG Export Plug-In . SVG Version: 6.00 Build 0)  -->
<svg version="1.1" id="圖層_1" xmlns="http://www.w3.org/2000/svg" xmlns:xlink="http://www.w3.org/1999/xlink" x="0px" y="0px"
	 viewBox="45 -33.8 150 150" style="enable-background:new 45 -33.8 150 150;" xml:space="preserve">
<style type="text/css">
	.st0{enable-background:new    ;}
	.st1{fill:#DC6200;}
</style>
<g class="st0">
	<path class="st1" d="M85.8,69.9c3.6,8.2,5.4,15.6,5.6,22c0,4.7,1.5,7,4.5,7c3.7,0,5.6-2.3,5.6-6.9c0-7.1-4.3-15.1-12.9-23.8
		L85.8,69.9z"/>
	<path class="st1" d="M55.6,91.2c-2.1,1.5-3.1,3.2-3.1,5.1c0,3.5,1.8,5.3,5.4,5.3c3.2,0,6.3-2.1,9.2-6.3c4.3-6.3,6.6-14.8,6.7-25.6
		l-3.7-1C67.5,78.2,62.7,85.7,55.6,91.2z"/>
	<path class="st1" d="M142.8,80.3c1,3,2.7,4.5,4.9,4.5c3.3,0,5-1.8,5-5.4c0-6.4-6.9-12.7-20.6-18.9L130,63
		C136.6,68.3,140.8,74.1,142.8,80.3z"/>
	<path class="st1" d="M108.4,64.3l-2.3,2.6c6.1,7.2,9.8,13.4,11.1,18.6c1,4,2.7,6,5.1,6c3.5,0,5.3-1.8,5.3-5.3
		C127.6,79.6,121.2,72.3,108.4,64.3z"/>
	<path d="M186.7,38.5c-3.6-4.2-7-7.7-10.3-10.5l-7.9,9.6H83.7v-12H151v5.1h8.6V-4.4l3.1-2.4c1-0.7,1.5-1.4,1.5-2.1
		c0-1.3-3-4.2-9-8.9l-5.5,6.9h-40.4c3.5-3.4,6.6-6.9,9.3-10.5c4.1-0.6,6.2-1.5,6.2-2.7c0-1.9-4.9-4.1-14.6-6.4
		c-1.7,7.9-3.8,14.4-6.3,19.6H84.7c-2.6-1.3-5.9-2.8-9.9-4.5v78.9h8.9v-5.7h84.9c-0.3,12.1-1.9,21.5-4.7,28.3
		c-1.9,4.6-5.2,6.9-9.7,6.9c-6.1,0-13-0.7-20.7-2v4c8.3,1.7,13.5,3.1,15.8,4.4c2.4,1.3,3.7,3.1,3.7,5.3c5,0,9.1-1.1,12.2-3.3
		c6.8-5,10.8-18.6,12-40.8l3.6-2.6c0.9-0.6,1.3-1.2,1.3-1.9c0-1.3-3-4.2-8.9-8.7l-5.6,6.6H83.7V41.4H185L186.7,38.5z M83.7-7.1H151
		V5.2H83.7V-7.1z M83.7,8.9H151v13H83.7V8.9z"/>
</g>
</svg>
