<?xml version="1.0" encoding="utf-8"?>
<!-- Generator: Adobe Illustrator 19.0.0, SVG Export Plug-In . SVG Version: 6.00 Build 0)  -->
<svg version="1.1" id="圖層_1" xmlns="http://www.w3.org/2000/svg" xmlns:xlink="http://www.w3.org/1999/xlink" x="0px" y="0px"
	 viewBox="45 -33.8 150 150" style="enable-background:new 45 -33.8 150 150;" xml:space="preserve">
<style type="text/css">
	.st0{enable-background:new    ;}
	.st1{fill:#DC6200;}
</style>
<g class="st0">
	<path d="M132.7,39.2c6.3,2.2,11.3,5.2,14.9,9.2c1.7,1.8,3.2,2.7,4.6,2.7c3.3,0,5-1.8,5-5.3c0-5.4-7.8-8.7-23.4-9.7L132.7,39.2z"/>
	<path d="M125.1,30.4l1.7,3.6c20.1-2.6,37.8-7.5,53.2-14.6c2.1,0.5,3.7,0.7,4.8,0.7c1.6,0,2.4-0.5,2.4-1.5c0-1.9-3.3-5-10-9.3
		C164.3,18.7,147,25.7,125.1,30.4z"/>
	<path d="M130.5,9.7l1.7,3.4c16.2-3.2,29.8-7.8,40.6-13.9c1.7,0.4,3.1,0.6,4.2,0.6c1.7,0,2.6-0.5,2.6-1.5c0-1.8-3.1-4.7-9.2-8.7
		C160.1-2,146.8,4.6,130.5,9.7z"/>
	<path d="M125.6-3.9c18.4-4.1,32.6-9.3,42.7-15.8c2.1,0.2,3.4,0.4,3.7,0.4c2.2,0,3.3-0.5,3.3-1.5c0-1.9-3.5-4.7-10.4-8.4
		C154.7-20,141-12.7,123.7-7.4L125.6-3.9z"/>
	<path d="M152.4,69.3c0.8,0.1,1.7,0.1,2.9,0.1c2.7,0,4-0.5,4-1.6c0-2-3.8-4.6-11.4-7.7c-5.4,6.9-11.5,13-18.5,18.3
		c-8.7-5-16.3-10.9-22.6-17.5l-0.7-0.7c0.7-1.1,1.3-2.4,2-3.7l0.3-0.7h77.9l1.8-3c-3.2-3.7-6.7-7.2-10.7-10.5l-8.1,9.7h-59.1
		c1.3-3.3,2.5-6.5,3.6-9.4c4.4-0.8,6.6-1.8,6.6-3c0-2.1-4.5-4.1-13.6-6c-1.8,6.6-4,12.8-6.4,18.5H51.7l2,3.7h44.8
		c-9.7,19.5-24.9,34.8-45.6,45.8l2.1,3.1c22.6-9.5,38.9-23,48.9-40.5c6.1,7.3,12.5,13.4,19.3,18.3C111,91,94.8,97.4,74.7,101.8
		l1.7,3.6c21.1-3,39.1-9.1,54-18.2c13.4,7.7,30,13.1,49.8,16.2c1.5-3,3.9-5.9,7-8.9c-19.9-1.3-36.7-5.4-50.4-12.2
		C142.6,78.4,147.8,74.1,152.4,69.3z"/>
	<path d="M53.1,9l1.5,3.7H78c-1.5,5.8-3.1,10.6-4.8,14.4l-3.3,0.1c-6.1,0.4-10.2,0.6-12.3,0.7c1.4,8.1,3.1,12.2,5.3,12.2
		c1.1,0,2.1-1.7,3-5c16.7-2.2,32-5,45.9-8.4c0.8,1,1.5,2.1,2.1,3.2c1.3,2.5,3,3.7,5,3.7c2.7,0,4-1.6,4-4.8c0-6.5-7.4-11.4-22.3-14.7
		l-1.9,2.4c4.1,2.3,7.4,4.6,9.9,6.9l-2.1,0.4c-8.5,1-17.2,1.9-26.1,2.6L79,26.6c3.3-3.7,6.6-8.3,10-13.9h37.4l1.6-2.6
		c-1.9-2.2-4.3-4.4-7.3-6.6L119.9,3l-5.4,6H77.4v0h-8.1v0H53.1z"/>
	<path class="st1" d="M77.4,0.9h39.3l1.6-2.4c-2.8-2.5-5.4-4.6-7.6-6.3l-5.3,5H77.4V-10h39.2l1.5-2.4c-2-1.9-4.5-3.8-7.6-5.9l-5,4.6
		H77.4v-6.7h44.8l1.5-2.7c-2.5-2.5-4.3-4.2-5.4-5.1c-1.6-1.5-2.7-2.4-3.3-2.7l-6.3,6.7h-30c-3.3-1.4-6.4-2.6-9.4-3.6V9h8.1V0.9z"/>
</g>
</svg>
