<?xml version="1.0" encoding="utf-8"?>
<!-- Generator: Adobe Illustrator 19.0.0, SVG Export Plug-In . SVG Version: 6.00 Build 0)  -->
<svg version="1.1" id="圖層_1" xmlns="http://www.w3.org/2000/svg" xmlns:xlink="http://www.w3.org/1999/xlink" x="0px" y="0px"
	 viewBox="45 -33.8 150 150" style="enable-background:new 45 -33.8 150 150;" xml:space="preserve">
<style type="text/css">
	.st0{enable-background:new    ;}
	.st1{fill:#DC6200;}
</style>
<g class="st0">
	<path class="st1" d="M106.2,53.7c13.6,5.7,23.4,11.6,29.4,17.7c2.3,2.5,4.2,3.7,5.7,3.7c3.1,0,4.6-1.7,4.6-5
		c0-7.4-12.7-13.9-38.1-19.5L106.2,53.7z"/>
	<path class="st1" d="M89.8,72.9l-1.8,3.6c23.8,7.4,42.5,16.4,56.1,27c1.6,1.1,3,1.7,4.2,1.7c3.2,0,4.8-1.7,4.8-5.1
		C153,91,131.9,82,89.8,72.9z"/>
	<path d="M129.2,25.9l-0.6-0.4C137,17.4,144.8,7.8,152-3.2l4.5-2c1.1-0.4,1.7-1,1.7-1.8c0-1.6-3.4-5.1-10.3-10.3l-6.2,7.5h-37
		c1.2-1.9,3-5.1,5.5-9.7c4.8-0.6,7.3-1.6,7.3-3c0-2.1-4.6-4.2-13.8-6.2C93.7-5.3,79,13.7,59.6,28.2l2.6,3.3
		c14.6-9.3,26.4-19.7,35.4-31.1c5.8,8.7,12.3,16.7,19.5,24.2c-16.7,16.5-38,30-64,40.4l2,3.6c27.8-9.2,50.3-21.5,67.3-36.8l1.1-1
		c14.4,12.4,33.6,22.9,57.9,31.5c1.7-3.6,4-6.7,7-9.3C163.4,46,143.7,37,129.2,25.9z M121.8,20c-8.3-7.6-15.5-15.4-21.6-23.2
		c1.2-1.6,1.9-2.6,2.1-2.9h39.9C137.2,2.7,130.4,11.4,121.8,20z"/>
</g>
</svg>
