<?xml version="1.0" encoding="utf-8"?>
<!-- Generator: Adobe Illustrator 19.0.0, SVG Export Plug-In . SVG Version: 6.00 Build 0)  -->
<svg version="1.1" id="圖層_1" xmlns="http://www.w3.org/2000/svg" xmlns:xlink="http://www.w3.org/1999/xlink" x="0px" y="0px"
	 viewBox="45 -33.8 150 150" style="enable-background:new 45 -33.8 150 150;" xml:space="preserve">
<style type="text/css">
	.st0{enable-background:new    ;}
	.st1{fill:#D3228C;}
	.st2{fill:#DC6200;}
</style>
<g class="st0">
	<path d="M126-15.4c1.1,10.4,2.8,19.4,5.1,27.2c3.3,10.9,8.3,20.8,14.9,29.8c1.7-3,3.9-5.5,6.7-7.6c-12.2-12.6-19.6-28.7-22.1-48.2
		l5-2.3c0.9-0.5,1.3-1,1.3-1.7c0-1.1-2.6-4.1-7.8-8.9l-5.4,8h-15l1.7,3.7C110.4-15.4,126-15.4,126-15.4z"/>
	<path class="st1" d="M182.6,44.8l-5.3,8.4h-5.9V19.6h15.3l1.5-3c-2-3-4.4-6-7.3-9.2l-5.1,8.4h-4.3v-30.2c4.1-1.6,7.4-3,10.2-4.3
		c1.4,0.3,2.5,0.4,3.3,0.4c1.7,0,2.6-0.4,2.6-1.3c0-1.6-3.1-4.4-9.2-8.4c-8.3,6.6-19.8,12.5-34.8,17.9l1.3,3.4
		c7-1.5,13-3.1,18.2-4.8v27.3h-17l1.5,3.7h15.3v33.6h-17.7l1.5,3.7h16.2v31.1c0,3.1-1.7,4.6-5.1,4.6c-2.1,0-6.2-0.3-12.3-1v3.7
		c4.5,1,7.5,2,9,3c1.7,1.1,2.6,3.1,2.9,5.9c9.3,0,14-4.1,14-12.3V56.9h17.1l1.5-3C188,50.9,185.6,47.9,182.6,44.8z"/>
	<path d="M133.9,29.2l-4.6,5.6h-27.5c5.2-11.3,8.8-22.8,10.9-34.4c3.6-0.6,5.4-1.5,5.4-2.9c0-1.9-4.1-4-12.3-6.3
		c-0.8,7.5-2.3,15.9-4.4,25c-2.4,10.4-5,19.2-7.8,26.4l3,2c1.9-3.3,3.5-6.4,4.8-9.3l1.3,3.1h6.6c-0.1,27.2-6,48.7-17.7,64.5l2.7,2.2
		c15.4-14.9,23.2-37.1,23.4-66.7h12.4c0,22.2-0.7,38-2.1,47.4c-0.6,4.6-2.7,6.9-6.3,6.9c-4,0-7.9-0.3-11.6-1v3.7
		c4.3,1,7.1,2,8.5,2.8c1.6,1,2.5,2.7,2.7,5.2c7.6,0.1,12.3-3.4,14.1-10.7c1.8-6.9,2.7-24.1,2.7-51.7l2.5-1.8c0.6-0.4,1-0.9,1-1.5
		C141.6,37,139,34.1,133.9,29.2z"/>
</g>
<path class="st2" d="M90.6,44.8l-5.3,8.4h-6.9V19.6h18.3l1.5-3c-2-3-4.4-6-7.3-9.2l-5.1,8.4h-7.3v-29.2c4.1-1.6,8.4-4,11.2-5.3
	c1.4,0.3,2.5,0.4,3.3,0.4c1.7,0,2.6-0.4,2.6-1.3c0-1.6-3.1-4.4-9.2-8.4c-8.3,6.6-17.8,12.5-32.8,17.9l1.3,3.4c7-1.5,10-2.1,15.2-3.8
	v26.3h-17l1.5,3.7h15.3v33.6H51.2l1.5,3.7h17.2V88c0,3.1-1.7,4.6-5.1,4.6c-2.1,0-4.2-0.3-10.3-1v3.7c4.5,1,5.5,2,7,3
	c1.7,1.1,2.6,3.1,2.9,5.9c9.3,0,14-4.1,14-12.3V56.9h18.1l1.5-3C96,50.9,93.6,47.9,90.6,44.8z"/>
</svg>
