<?xml version="1.0" encoding="utf-8"?>
<!-- Generator: Adobe Illustrator 19.0.0, SVG Export Plug-In . SVG Version: 6.00 Build 0)  -->
<svg version="1.1" id="圖層_1" xmlns="http://www.w3.org/2000/svg" xmlns:xlink="http://www.w3.org/1999/xlink" x="0px" y="0px"
	 viewBox="45 -33.8 150 150" style="enable-background:new 45 -33.8 150 150;" xml:space="preserve">
<style type="text/css">
	.st0{enable-background:new    ;}
	.st1{fill:#DC6200;}
</style>
<g class="st0">
	<path d="M123.9,11.4c4.1-1.6,6.2-2.9,6.2-4.1c0-2.2-5.1-3.4-15.3-3.6v24.5h9.2V11.4z"/>
	<path d="M174.3-14.5l-6.2,7.5h-44.4v-14.7c4.2-1.6,6.3-3.1,6.3-4.3c0-2.4-5.1-3.6-15.2-3.6v22.6H71.5c0-0.4-0.1-1-0.3-2
		c-0.2-1.3-0.3-2.3-0.4-3.1l-3.9-0.6c-0.5,11.2-3.5,19.7-9.2,25.3c-2,2-3,3.7-3,5.1c0,1.7,0.8,3.2,2.4,4.5c1.2,0.9,2.4,1.3,3.7,1.3
		c3,0,5.5-2.2,7.6-6.6c2.2-4.4,3.3-10.1,3.3-17.1v-3.1h96.8c-2.1,5.5-5.1,11.1-8.9,16.6l2.9,2.1c6.7-4.9,12-9.4,15.9-13.4l4.8-0.7
		c1.4-0.1,2.1-0.7,2.1-1.6C185.4-2.4,181.7-7.2,174.3-14.5z"/>
	<path class="st1" d="M163.7,21.4l-5.9,6.9h-33.9v-0.1h-9.2v0.1H81.8l-1-0.4c-4.1-2-7.2-3.4-9.4-4.2v81.6h9.2v-9.7h78.6v9.7h9.2v-70
		l3.6-2.3c1.1-0.8,1.7-1.5,1.7-2.1C173.5,29.4,170.3,26.3,163.7,21.4z M114.7,91.7H80.5V62.8h34.2V91.7z M114.7,59.1H80.5v-27h34.2
		V59.1z M159.1,91.7h-35.2V62.8h35.2V91.7z M159.1,59.1h-35.2v-27h35.2V59.1z"/>
</g>
</svg>
