<?xml version="1.0" encoding="utf-8"?>
<!-- Generator: Adobe Illustrator 19.0.0, SVG Export Plug-In . SVG Version: 6.00 Build 0)  -->
<svg version="1.1" id="圖層_1" xmlns="http://www.w3.org/2000/svg" xmlns:xlink="http://www.w3.org/1999/xlink" x="0px" y="0px"
	 viewBox="45 -33.8 150 150" style="enable-background:new 45 -33.8 150 150;" xml:space="preserve">
<style type="text/css">
	.st0{enable-background:new    ;}
	.st1{fill:#DC6200;}
</style>
<g class="st0">
	<path d="M86.2-13.1v9.5h8.6v-9.5h21.8l1.5-3.1c-2.7-3.3-5.8-6.6-9.4-9.7l-7.2,9.2h-6.6V-23c4-1.3,6-2.6,6-3.9
		c0-2.1-4.9-3.1-14.6-3.3v13.3H54.4l1.5,3.7H86.2z"/>
	<path d="M141.5-13.1v9.7h8.4v-9.7h34.6l1.5-3.1c-2.7-3.3-5.8-6.6-9.4-9.7l-7.3,9.2h-19.5v-5.7c3.7-1.5,5.6-2.9,5.6-4.2
		c0-2.1-4.7-3.1-14-3.3v13.2h-20.3l1.5,3.7H141.5z"/>
	<path class="st1" d="M88.5,64c-2.9,10.7-8,18.6-15.5,23.6c-2.2,1.5-3.3,3-3.3,4.6c0,3.3,1.7,5,5,5c2.7,0,5.5-1.8,8.3-5.3
		c4.9-5.8,7.9-14.7,9-26.7L88.5,64z"/>
	<path d="M142.9,46.1h42.9l1.6-2.9c-3-3.5-6.4-6.9-10.3-10.2l-7.5,9.3h-64.8c2.2-3.1,4.3-6.6,6.3-10.5h42.6v4.2h8.4V6.7l3.3-2.1
		c1-0.5,1.5-1.2,1.5-1.9c0-1.2-3-4.1-9.1-8.7l-5.3,6.3H86.6c-3-1.6-6.4-3.1-10.1-4.5v40.6h8.4v-4.5h16c-2,3.9-4.1,7.4-6.3,10.5h-42
		l1.8,3.7h37.4C82.4,58,68.8,67.9,51,76l2.3,3.3c21-7.5,37.3-18.5,48.7-33.2h35.4c11.9,14,26.8,23.4,44.7,28.3
		c1.3-3.1,3.5-6,6.5-8.9C169.5,62.5,154.3,56,142.9,46.1z M84.9,4h68.7v10H84.9V4z M84.9,28.2V17.8h68.7v10.4H84.9z"/>
	<path class="st1" d="M108,51.5v37.2c0,3.1-1.4,4.7-4.3,4.7c-5.4,0-10.7-0.3-16.1-1v3.7c5.3,0.8,9.1,1.7,11.3,2.5
		c2.7,1.2,4.2,3.3,4.3,6.3c8.8-0.6,13.3-4.3,13.3-11.1V58.9c3.7-1.4,5.6-2.6,5.6-3.8C122,53.2,117.3,52,108,51.5z"/>
	<path class="st1" d="M144,63.8l-2.1,2.9c10.7,8,17.7,15.5,20.7,22.4c1.3,3,3.1,4.5,5.2,4.5c3.2,0,4.8-1.7,4.8-5.1
		C172.7,81.4,163.1,73.2,144,63.8z"/>
	<path class="st1" d="M126,65.1l-2.4,2.3c7.4,8.3,11.9,16,13.5,23.3c0.7,3.6,2.2,5.4,4.5,5.4c3.6,0,5.4-2,5.4-5.9
		C147,83,140,74.6,126,65.1z"/>
</g>
</svg>
