<?xml version="1.0" encoding="utf-8"?>
<!-- Generator: Adobe Illustrator 19.0.0, SVG Export Plug-In . SVG Version: 6.00 Build 0)  -->
<svg version="1.1" id="圖層_1" xmlns="http://www.w3.org/2000/svg" xmlns:xlink="http://www.w3.org/1999/xlink" x="0px" y="0px"
	 viewBox="45 -33.8 150 150" style="enable-background:new 45 -33.8 150 150;" xml:space="preserve">
<style type="text/css">
	.st0{enable-background:new    ;}
	.st1{fill:#DC6200;}
</style>
<g class="st0">
	<path class="st1" d="M104.6-18.8c0-1.2-3-4.1-9-8.8l-5.3,7H72.8c-4-2-7.3-3.5-9.7-4.5v61.7c0,29.1-4.2,51-12.6,65.9l3.3,2.2
		c11.7-14.6,17.6-36.8,17.7-66.6c4.2,3.6,7.2,8.2,9,13.8c0.7,2.4,2,3.6,4,3.6c3,0,4.5-1.7,4.5-5.1c0-5.6-5.8-10.9-17.5-16V1
		c4.2,3.5,7.3,8.1,9,13.8c0.7,2.4,2.1,3.6,4,3.6c3,0,4.5-1.7,4.5-5.1c0-5.3-5.8-10.6-17.5-16v-14.1h19.9V87.7c0,2.8-1.6,4.2-4.8,4.2
		c-5.6,0-10.5-0.3-14.9-1v3.9c4.6,0.8,8,1.7,10,2.6c2.6,1.2,4,3.3,4.2,6.3c9.1,0.1,13.7-3.9,13.7-12V-14.3l3.6-2.6
		C104.2-17.5,104.6-18.1,104.6-18.8z"/>
	<path d="M116.7-28.2l-2.4,2.4c7.2,8.3,11.2,16.2,11.9,23.7c0.4,4.3,2,6.4,4.8,6.4c3.7,0,5.6-2.1,5.6-6.3
		C136.6-10.1,129.9-18.8,116.7-28.2z"/>
	<path d="M147.3,45.7h38.6l1.9-3c-2.9-3.9-6.3-7.4-10-10.8l-7.5,10h-24.5c0.1-1.1,0.1-3,0.1-5.6V11.8h34.4l1.8-3
		c-2.9-3.6-6-7-9.4-10.2L165.9,8H152c5.4-8.2,10.3-17.3,14.7-27.5c4.2-0.4,6.3-1.3,6.3-2.6c0-2.2-4.7-4.8-14-7.6
		c-3.3,14.1-6.9,26-10.9,35.7c-0.5,1.2-0.8,1.8-0.8,2h-39l1.3,3.7h27.6v24.6c0,2.6,0,4.4-0.1,5.6h-33.9l1.4,3.7H137
		c-0.6,7.8-2,14.7-4,20.9c-5,14.8-15.4,26.6-31.3,35.2l2.2,3.3c12.1-4.9,21.3-11.2,27.5-18.8c7.1-8.4,11.7-19.8,13.7-33.9
		c5.7,21.6,17.8,38,36.4,49.2c2.9-3.8,5.5-6.5,7.7-8.3C167.7,82.7,153.8,66.8,147.3,45.7z"/>
</g>
</svg>
