<?xml version="1.0" encoding="utf-8"?>
<!-- Generator: Adobe Illustrator 19.0.0, SVG Export Plug-In . SVG Version: 6.00 Build 0)  -->
<svg version="1.1" id="圖層_1" xmlns="http://www.w3.org/2000/svg" xmlns:xlink="http://www.w3.org/1999/xlink" x="0px" y="0px"
	 viewBox="45 -33.8 150 150" style="enable-background:new 45 -33.8 150 150;" xml:space="preserve">
<style type="text/css">
	.st0{enable-background:new    ;}
	.st1{fill:#DC6200;}
</style>
<g class="st0">
	<path d="M103,29.9c0-1.4-2.8-4.4-8.5-9l-5.4,6.9H74.7l-2.2-1.2c4.4-11.7,7.7-24.7,9.7-38.9H107l1.8-2.6c-2.3-3-4.5-5.4-6.6-7.3
		l-3.3-3.3l-7.4,9.4H52.2l1.2,3.7h19.3l-0.3,2C69,16.8,61.3,40.9,49,61.9l3,2.1c4.8-6.6,9.2-13.6,13-21v57.7h8.4V84.9h16.8v11.1h8.3
		v-62l3.3-2.3C102.6,31.1,103,30.5,103,29.9z M90.3,81.1H73.5V31.5h16.8V81.1z"/>
	<path class="st1" d="M125.4,92V71.4h0v-3.7h0V48.1h0v-3.7h0V25.9h0.2l2.2-3.7h-0.1c5.4-8.4,9.8-17.7,13.2-27.9h0l1.2-3.7H142
		c0.8-3,1.8-7.3,3.1-13c4.1-1.1,6.2-2.2,6.2-3.4c0-2.2-4.5-3.8-13.6-4.5c-1,6.9-2.5,13.9-4.5,21h-0.1l-1.2,3.7h0.1
		c-6.4,20.6-17.3,38.6-32.6,54l2.7,2.9c5.5-4.8,10.5-9.7,14.9-14.7v68.8h8.4v-9.4h0L125.4,92L125.4,92z"/>
	<path d="M186.3,92.9c-2.8-3.9-5.9-7.4-9.4-10.6l-7.3,9.7h-15.6V71.4h25l1.7-3c-2.7-3.5-5.8-6.9-9.3-10.2l-6.8,9.4h-10.6V48.1h25.2
		l1.5-3c-2.8-3.6-5.9-6.9-9.3-9.9l-6.8,9.2h-10.6V25.9h28.2l1.7-2.9c-2.7-3.8-5.8-7.2-9.3-10l-7,9.2h-16.2
		c3.8-5.4,6.6-10.2,8.4-14.6c3.2-0.6,4.8-1.4,4.8-2.5c0-1.8-4.3-3.6-13-5.6c-1.4,10.2-2.9,17.7-4.3,22.6h-19.4l-2.2,3.7h19.9v18.5
		h-20.1v3.7h20.1v19.6h-20.1v3.7h20.1V92h-20.1v3.7h59.7L186.3,92.9z"/>
	<path d="M179.3-16.6l-5.4,7.2h-31.7l-1.2,3.7h33.8c-1.1,4.1-2.9,8.7-5.4,14l2.7,1.8c5-4.7,8.9-8.8,11.5-12.3l4.4-1.3
		c0.8-0.2,1.2-0.7,1.2-1.4C189-6.6,185.7-10.5,179.3-16.6z"/>
	<path d="M115.8-9.5c-0.1-0.2-0.3-0.9-0.5-1.9c-0.3-1-0.5-1.9-0.7-2.7h-3.4c0.1,10.1-2,17.5-6.3,22.1c-1.6,1.8-2.4,3.3-2.4,4.5
		c0,3.2,1.9,4.8,5.6,4.8c2.3,0,4.2-1.5,5.9-4.6c1.9-3.4,2.9-7.9,2.9-13.7c0-0.9-0.1-2.5-0.3-4.8h15.5l1.2-3.7H115.8z"/>
</g>
</svg>
