<?xml version="1.0" encoding="utf-8"?>
<!-- Generator: Adobe Illustrator 19.0.0, SVG Export Plug-In . SVG Version: 6.00 Build 0)  -->
<svg version="1.1" id="圖層_1" xmlns="http://www.w3.org/2000/svg" xmlns:xlink="http://www.w3.org/1999/xlink" x="0px" y="0px"
	 viewBox="45 -33.8 150 150" style="enable-background:new 45 -33.8 150 150;" xml:space="preserve">
<style type="text/css">
	.st0{enable-background:new    ;}
	.st1{fill:#DC6200;}
</style>
<g class="st0">
	<path class="st1" d="M108.1,18.1c5.1,5,8.2,10.5,9.3,16.5c0.6,3.3,2.1,4.9,4.6,4.9c3.4,0,5.1-1.9,5.1-5.7c0-6.4-5.6-12.4-16.8-17.9
		L108.1,18.1z"/>
	<path class="st1" d="M162.8,10.5c2,0,3-0.4,3-1.3c0-1.9-3.4-4.7-10.1-8.4c-17.8,5.3-40.1,8.7-67,10.2c-3.3-2.1-6.5-3.7-9.4-5.1
		C74.9,23.4,67.7,37.7,57.6,49l2.7,2.7c11.8-9.9,20.7-22,26.5-36.5c26.8-0.7,50.1-2.5,69.9-5.6C159.3,10.2,161.3,10.5,162.8,10.5z"
		/>
	<path d="M139.6-10.6v11h8.4v-11h36.4l1.5-3.1c-2.7-3.3-5.9-6.6-9.4-9.7l-7.3,9.2h-21.2v-7.6c4-1.5,6-2.9,6-4.2
		c0-2.3-4.8-3.4-14.4-3.4v15.3h-16.4l1.5,3.7H139.6z"/>
	<path d="M126.6,59.5h57.6l1.6-2.9c-2.6-3.2-5.9-6.6-10-10.2l-7.6,9.3h-44.4v-6.3c4-1.3,6-2.6,6-3.9c0-2.1-5-3.3-14.9-3.7v13.9H54.7
		l1.5,3.7h53.4C94.4,75.9,74.8,88.8,50.7,98l2,3.3c25.1-7.5,45.9-19.1,62.3-34.9v38.8h8.9V62.1c16.2,16.3,35.3,28.6,57.4,37
		c1.6-3.4,4.1-6.5,7.3-9.3C164.7,83.2,144.1,73.1,126.6,59.5z"/>
	<path class="st1" d="M168.1,38.8c1.8,3.4,3.7,5.1,5.7,5.1c3.2,0,4.8-1.8,4.8-5.4c0-2.4-1.9-5.6-5.6-9.4c-5.9-6-14.5-11.4-25.8-16.2
		l-2.3,2.7C156,22.9,163.7,30.6,168.1,38.8z"/>
	<path d="M90.5-10.6V4.7h8.4v-15.3h19.8l1.5-3.1c-2.5-2.7-5.6-5.8-9.4-9.2l-6.6,8.6h-5.2v-8.1c4-1.3,6-2.7,6-4
		c0-2.1-4.8-3.1-14.4-3.3v15.5h-36l1.5,3.7H90.5z"/>
</g>
</svg>
