<?xml version="1.0" encoding="utf-8"?>
<!-- Generator: Adobe Illustrator 19.0.0, SVG Export Plug-In . SVG Version: 6.00 Build 0)  -->
<svg version="1.1" id="圖層_1" xmlns="http://www.w3.org/2000/svg" xmlns:xlink="http://www.w3.org/1999/xlink" x="0px" y="0px"
	 viewBox="45 -33.8 150 150" style="enable-background:new 45 -33.8 150 150;" xml:space="preserve">
<style type="text/css">
	.st0{enable-background:new    ;}
	.st1{fill:#DC6200;}
</style>
<g class="st0">
	<path d="M162.3-6.5c1,3.6,2.7,5.4,4.9,5.4c3.5,0,5.3-1.6,5.3-4.9c0-7.2-7-13.9-21-20.3l-1.8,2.7C156.1-18.3,160.3-12.6,162.3-6.5z"
		/>
	<path d="M182.7,85.7c0-2.8,0.6-10.5,1.7-23.2l-3.8-2.1c-2.5,19.2-5.1,28.8-7.8,28.8c-0.7,0-2.1-0.9-4-2.7c-7-6.7-13-14.6-17.9-23.5
		c7-7.1,13.8-15.9,20.4-26.4c0.8,0.1,1.8,0.2,3,0.2c2.8,0,4.2-0.7,4.2-2c0-2.2-3.8-5.4-11.4-9.4c-5.9,11.4-12.5,21.4-19.9,30.2
		c-4.5-11-7.7-23.8-9.6-38.2l46.3-4.6l1.4-2.9c-3.3-3.5-7-6.8-11-9.9l-6.4,10.5l-30.7,3c-1-8.2-1.5-18.8-1.7-31.8
		c3.6-1.7,5.4-3.1,5.4-4.3c0-2-4.8-3.2-14.3-3.7c0.1,17.3,0.8,30.8,2,40.5l-24.1,2.2l1.6,4l22.9-2.2l0.1,1.2
		c2,15.4,5.7,29.4,11.3,41.8l0.4,1.1C128.1,76.8,112.8,88.6,95,97.8l2.1,3.6c19.6-8.4,35.6-18.9,47.8-31.6
		c6.5,12.1,14.1,21.3,22.6,27.8c5.2,3.8,9.5,5.7,13,5.7c3.4,0,5.7-2.2,7.1-6.6C184.4,95.4,182.7,91.7,182.7,85.7z"/>
	<path class="st1" d="M110.3,30.6c-7.6,3.1-15.1,5.9-22.6,8.3l-2.6,1V7.2H108l1.7-2.9c-2.9-4-6.1-7.6-9.4-11.1L93,3.4h-7.9v-24.9
		c4.5-1.4,6.7-2.8,6.7-4.2c0-2.2-5.1-3.4-15.3-3.6V3.4H54l1.5,3.7h20.9v35.2c-8,2.4-15.6,4.4-23.1,6c2.2,8.9,4.5,13.4,6.9,13.4
		c1.3,0,2.2-2.1,2.7-6.2c3.5-1.3,8-3.1,13.5-5.3v37.8c0,2.9-1.6,4.3-4.8,4.3c-5.5,0-10.9-0.3-16.1-0.9v4c4.6,0.6,8,1.3,10.2,2.1
		c3.4,1.4,5.2,3.7,5.3,6.9l0.9-0.1c3.8-0.3,6.6-0.9,8.6-1.8c3-1.5,4.5-4.7,4.5-9.4V46.8c6-2.7,14.5-6.7,25.5-12.2L110.3,30.6z"/>
</g>
</svg>
