<?xml version="1.0" encoding="utf-8"?>
<!-- Generator: Adobe Illustrator 19.0.0, SVG Export Plug-In . SVG Version: 6.00 Build 0)  -->
<svg version="1.1" id="圖層_1" xmlns="http://www.w3.org/2000/svg" xmlns:xlink="http://www.w3.org/1999/xlink" x="0px" y="0px"
	 viewBox="45 -33.8 150 150" style="enable-background:new 45 -33.8 150 150;" xml:space="preserve">
<style type="text/css">
	.st0{enable-background:new    ;}
	.st1{fill:#DC6200;}
</style>
<g class="st0">
	<path d="M164.5,9.1c0-2.1-5-4.3-14.9-6.7c-2.2,31.7-9.5,57.5-21.9,77.2l3.1,2.3c10.4-12.3,17.8-26.2,22.2-42
		c7.5,10,12.7,19.7,15.5,29.2c1.2,4.1,2.9,6.2,5.1,6.2c3.4,0,5.1-1.9,5.1-5.6c0-3.6-1.7-8-5-13.2c-4.5-7.2-11-14.2-19.5-21.2
		c1.7-6.7,3-14.4,4.1-23.2C162.4,11.4,164.5,10.4,164.5,9.1z"/>
	<path d="M97.2,9.7c0-2.2-4.7-4.5-14.1-6.9C79.4,35,71,60.8,57.9,80.3l3,2.6c10.7-12.5,18.7-27,24-43.5C91.8,50,96.2,59.7,98.1,68.5
		c1.1,4.8,2.7,7.2,5,7.2c3.4,0,5.1-2,5.1-6c0-3.3-1.4-7.3-4.1-12.2c-4.7-8.2-10.6-15.7-17.9-22.6c1.8-6.2,3.5-13.5,5-22
		C95.2,12.1,97.2,11.1,97.2,9.7z"/>
	<path class="st1" d="M176,80.8l-8.3,9.9H124V-8.7h55.4l1.5-2.7c-3.8-4.9-7.6-8.8-11.3-11.8l-8.2,10.8h-102l1.3,3.7h54.5v99.5h-62
		l1.3,3.7h130.8l1.5-2.9C183.6,87.6,180,84,176,80.8z"/>
</g>
</svg>
