<?xml version="1.0" encoding="utf-8"?>
<!-- Generator: Adobe Illustrator 19.0.0, SVG Export Plug-In . SVG Version: 6.00 Build 0)  -->
<svg version="1.1" id="圖層_1" xmlns="http://www.w3.org/2000/svg" xmlns:xlink="http://www.w3.org/1999/xlink" x="0px" y="0px"
	 viewBox="45 -33.8 150 150" style="enable-background:new 45 -33.8 150 150;" xml:space="preserve">
<style type="text/css">
	.st0{enable-background:new    ;}
	.st1{fill:#DC6200;}
</style>
<g class="st0">
	<path d="M83,11.4C88.8,5.2,94-1.7,98.8-9.2h30.6c-3,6-7.8,13.1-14.3,21.3h5.2c6.9-5.5,13.1-11.3,18.6-17.4l4.3-1.2
		c1.4-0.5,2.1-1.1,2.1-2c0-1.9-3.5-5.7-10.4-11.5l-5.8,7h-28.3c2-3.6,3.5-6.4,4.4-8.3c5-0.7,7.5-1.8,7.5-3.3c0-2-4.7-3.7-14.1-5.2
		C88-4.8,73,15.4,53.6,30.9L56,34c7.5-5,13.5-9.7,18.2-14v0.1L83,11.4L83,11.4z"/>
	<path class="st1" d="M132.7,50.4h24.8v7.3h8.7V18.9l3.6-2.4c0.9-0.6,1.4-1.2,1.4-1.8c0-1.4-3.1-4.6-9.4-9.6l-6,7.2h-35.7
		c0.1,0,0.1-0.1,0.2-0.1H115c0,0-0.1,0.1-0.1,0.1H84.5l-1.4-0.8l-8.9,8.7v39h8.7v-8.7h27.6c0,0,0,0,0,0h9.6c0,0,0,0,0,0h3.9v0
		L132.7,50.4L132.7,50.4z M113.8,35.1c-0.6,4.1-1.4,7.9-2.3,11.6H82.9V16h32.2C114.7,24.5,114.3,30.8,113.8,35.1z M121,46.6
		c1.9-8.3,3-18.5,3.3-30.6h33.3v30.6H121z"/>
	<path d="M91.1,82.2c-8.8,8-21.6,14.7-38.2,20.1l1.8,3.5c17.4-4.1,31.1-9.9,41.1-17.5c11.9-9,20-21.6,24.3-37.8h-9.6
		C106.6,63.4,100.1,74,91.1,82.2z"/>
	<path d="M181.4,88.2c-0.8-2.4-1.2-9.6-1.2-21.8l-4.2-1.6l-0.3,3c-1.4,15.4-3.9,23.7-7.5,24.7c-1.7,0.5-7.3,0.7-17,0.7
		c-9,0-14.4-0.3-16.2-0.9c-1.6-0.6-2.3-2.1-2.3-4.6V50.4H124v37.9c0,5.3,1,8.7,3.1,10.2c2.8,1.9,11.2,2.9,25.1,2.9
		c15.2,0,24.6-0.7,28.3-2c3.5-1.2,5.3-3.9,5.4-8.2C183.6,91.2,182.1,90.2,181.4,88.2z"/>
</g>
</svg>
