<?xml version="1.0" encoding="utf-8"?>
<!-- Generator: Adobe Illustrator 19.0.0, SVG Export Plug-In . SVG Version: 6.00 Build 0)  -->
<svg version="1.1" id="圖層_1" xmlns="http://www.w3.org/2000/svg" xmlns:xlink="http://www.w3.org/1999/xlink" x="0px" y="0px"
	 viewBox="45 -33.8 150 150" style="enable-background:new 45 -33.8 150 150;" xml:space="preserve">
<style type="text/css">
	.st0{enable-background:new    ;}
	.st1{fill:#DC6200;}
</style>
<g class="st0">
	<path d="M101.8,29.6h-41l1.4,3.7h53.4l1.3-2.6c-2.2-2.8-5.2-5.9-8.8-9.3L101.8,29.6z"/>
	<path class="st1" d="M84.2-5.6v17.3h-24l1.2,3.7h55.8l1.5-2.6c-2.8-3.7-5.6-6.7-8.3-9.2l-6,8H92.6V-5.6h29.7l1.4-2.6
		c-2.7-3.8-5.7-7.3-9.2-10.5l-6.7,9.3H92.6v-12c4.3-1.6,6.4-3.1,6.4-4.3c0-2.3-5-3.6-14.9-3.7v20.1H54.7l1.2,3.7H84.2z"/>
	<path d="M78.5,65.5c0-2.2-4.4-4.7-13.2-7.4c-3.5,14.6-8.6,26.7-15.2,36l2.7,2.4c8.5-8,14.9-17.5,19.3-28.6
		C76.4,67.6,78.5,66.8,78.5,65.5z"/>
	<path d="M127,49.4c-2.7-3.2-5.9-6.3-9.6-9.3l-6.8,8.3H53.3l1.3,3.7h30.5v37.1c0,2.4-1.4,3.6-4.3,3.6c-4.9,0-9.9-0.3-15-0.9v3.9
		c4.8,0.8,8.2,1.7,10.3,2.7c2.9,1.4,4.4,3.5,4.4,6.4c8.7,0,13-3.8,13-11.4V52.1h31.9L127,49.4z"/>
	<path d="M114.7,85.6c3.4,0,5.1-1.9,5.1-5.7c0-6.3-6-13.9-18.1-22.9l-2.6,2.4c6.3,7.8,9.8,14.7,10.8,20.9
		C110.6,83.8,112.1,85.6,114.7,85.6z"/>
	<path d="M153.6,10.3V3h19.8c-2.1,11.5-5.1,21.8-9,30.9l3.7,1.6c5-7.8,9.8-17.6,14.2-29.4l3.7-1.7c1.1-0.4,1.7-1,1.7-1.8
		c0-1.4-3.2-5.2-9.6-11.2l-5.6,7.8h-33c2.2-7.2,4-13.9,5.3-20.2c4.1-0.8,6.2-1.9,6.2-3.3c0-2-4.9-3.9-14.7-5.7
		c-2.7,24.2-8.2,44.1-16.6,59.7l3.3,1.9c6.4-8.6,11.5-18.2,15.3-28.6h7v11.6c0,16.3-1.4,30.3-4.3,42.1c-4.6,18.8-15.4,34-32.2,45.3
		l2.4,3c13.5-6.9,23.4-15.6,29.7-26c6.2-10.4,10.1-24,11.7-40.9l0.1-1.6c1.3,12,3.6,22.5,6.7,31.3c4.3,11.8,11.7,23.4,22,34.6
		c2.2-3.2,5.1-5.8,8.4-8C165.7,73.6,153.6,45.5,153.6,10.3z"/>
</g>
</svg>
