<?xml version="1.0" encoding="utf-8"?>
<!-- Generator: Adobe Illustrator 19.0.0, SVG Export Plug-In . SVG Version: 6.00 Build 0)  -->
<svg version="1.1" id="圖層_1" xmlns="http://www.w3.org/2000/svg" xmlns:xlink="http://www.w3.org/1999/xlink" x="0px" y="0px"
	 viewBox="45 -33.8 150 150" style="enable-background:new 45 -33.8 150 150;" xml:space="preserve">
<style type="text/css">
	.st0{enable-background:new    ;}
	.st1{fill:#DC6200;}
</style>
<g class="st0">
	<path d="M157.6,91.5c-14.2,0-25.7-1.2-34.6-3.7V58.6h45.3l1.5-2.9c-2.3-3-5.1-6-8.4-9l-1.6-1.3l-7.3,9.4H123V29.4h-9.2v55.2
		C101,78.8,91.9,70.3,86.5,59.2c0.1-0.5,0.5-1.9,1.2-4.1c0.5-2,1-3.6,1.2-4.8c4.3-0.8,6.4-1.8,6.4-3.1c0-2.1-4.7-4.4-14.2-6.7
		C76.9,66.6,67.9,87,54,101.6l2.6,2.7c12.9-10.4,22.3-23.6,28.2-39.6c11.1,23.9,35.7,35.9,73.6,35.9h23.4c0.9-3.9,2.6-7.4,5.2-10.6
		C175.9,91,166.1,91.5,157.6,91.5z"/>
	<path class="st1" d="M123,29.3h56.7l1.8-3.1c-3.3-3.8-6.8-7.3-10.5-10.5l-7.6,9.9H123V2h47.1l1.8-3c-3.2-4.1-6.5-7.5-10-10.3
		l-7.2,9.6H123V-19c4.5-1.6,6.7-3.1,6.7-4.3c0-2.1-5.3-3.4-15.9-3.9v25.5H67.8L69.3,2h44.5v23.6H58.6l1.7,3.7h53.5v0.1L123,29.3
		L123,29.3z"/>
</g>
</svg>
