<?xml version="1.0" encoding="utf-8"?>
<!-- Generator: Adobe Illustrator 19.0.0, SVG Export Plug-In . SVG Version: 6.00 Build 0)  -->
<svg version="1.1" id="圖層_1" xmlns="http://www.w3.org/2000/svg" xmlns:xlink="http://www.w3.org/1999/xlink" x="0px" y="0px"
	 viewBox="45 -33.8 150 150" style="enable-background:new 45 -33.8 150 150;" xml:space="preserve">
<style type="text/css">
	.st0{enable-background:new    ;}
	.st1{fill:#DC6200;}
</style>
<g class="st0">
	<path class="st1" d="M71.7,24.7V-7.1h111.9l1.8-2.7c-3.6-4.5-6.9-8.1-10-10.8l-7.6,9.7h-43.1v-10.9c3.8-1.4,5.7-2.7,5.7-4
		c0-2.4-4.8-3.6-14.3-3.6v18.5H73c-2.9-1.5-6.3-2.8-10.2-4V25c0,35-4.6,61.4-13.8,79.4l3.1,2.1c7-9.3,12-20.1,14.8-32.4
		C70.1,61.5,71.7,45,71.7,24.7z"/>
	<path d="M134.6,87.1c6.6-3.6,13.3-8.1,20-13.5l5.1-1.9c1.1-0.5,1.7-1,1.7-1.5c0-1.3-3.3-4.5-9.9-9.6l-5.1,5.1h-30.8
		c3.2-2.9,6.2-5.9,9-9h31.1v3.6h8.6V25.2l3.4-2.3c1.1-0.8,1.7-1.5,1.7-2.1c0-1.2-3.1-4-9.3-8.6l-5.7,6.2h-29.4
		c2.9-2.7,5.9-6.3,9-10.7c0.4-0.4,0.6-0.7,0.7-0.9H180l1.3-2.7c-4.5-3.8-7.9-6.5-10.3-8.2l-7,7.2H77.4l1.9,3.7h43.1
		c-0.5,2.9-1.5,6.8-2.9,11.6h-18.6c-0.7-0.3-8.9-4.2-9.7-4.5v47.4h8.4v-4.6h14c-9.2,11.3-22.9,20.6-40.9,28.1l2,3.1
		c10.8-3.4,20.9-8.1,30.3-14c5.7,5.7,10.8,10,15.2,12.8c-16.2,7.8-34.1,13.5-53.8,16.9l1.7,3.3c22.7-2.7,42.5-7.9,59.4-15.7
		c12.5,6.3,29.7,10.6,51.3,12.9c1.3-3.5,3.6-6.6,6.7-9.4C164.2,94.2,147.2,91.7,134.6,87.1z M99.6,22.2h56.1v7.3H99.6V22.2z
		 M99.6,33.2h56.1v7.4H99.6V33.2z M99.6,52.9v-8.6h56.1v8.6H99.6z M126.3,83.3c-6.4-3.1-12.4-7-17.9-11.8l2.7-2.1h34.8
		C140,75.1,133.4,79.7,126.3,83.3z"/>
</g>
</svg>
