<?xml version="1.0" encoding="utf-8"?>
<!-- Generator: Adobe Illustrator 19.0.0, SVG Export Plug-In . SVG Version: 6.00 Build 0)  -->
<svg version="1.1" id="圖層_1" xmlns="http://www.w3.org/2000/svg" xmlns:xlink="http://www.w3.org/1999/xlink" x="0px" y="0px"
	 viewBox="45 -33.8 150 150" style="enable-background:new 45 -33.8 150 150;" xml:space="preserve">
<style type="text/css">
	.st0{enable-background:new    ;}
	.st1{fill:#DC6200;}
</style>
<g class="st0">
	<path class="st1" d="M108.9,37.5V88c0,3.3-1.5,5-4.4,5c-4.4,0-9.7-0.4-16-1.2v3.7c5.1,0.9,8.8,1.9,11.3,3c2.7,1.4,4,3.5,4,6.3
		c9.2,0,13.8-3.6,13.8-10.9V44.9c4.1-1.4,6.2-2.7,6.2-3.9C123.7,39,118.8,37.8,108.9,37.5z"/>
	<path class="st1" d="M89.5,57.5c-4.2,12.7-10.6,21.6-19.2,26.6c-1.9,1.2-2.9,2.5-2.9,4c0,1.1,0.3,2.2,1,3.3
		c1.1,1.8,2.5,2.7,4.3,2.7c3,0,6.4-2.5,10.3-7.5c5.1-6.9,8.5-16.2,10.2-28.1L89.5,57.5z"/>
	<path d="M144,29.1h42.2l1.6-2.9c-3-3.6-6.6-7.3-10.8-11.1l-8.1,10.3h-24.2V-1h35.2l1.5-2.9c-3.6-4.1-7-7.5-10.3-10.3l-7.2,9.4
		h-19.2v-15.9c4-1.5,6-2.9,6-4.2c0-2.2-4.9-3.5-14.6-4v24h-33.1v-15.6c4.1-1.5,6.2-2.9,6.2-4c0-2.1-4.9-3.3-14.7-3.7v23.4H60.2
		L61.6-1h32.7v26.3H51.7l2,3.7h37.2c-7.3,16.2-20.4,29.2-39.3,39l2.1,3.3c22.2-8.3,38.1-22.4,47.7-42.3H139
		c9.2,15.8,23.3,27.9,42.3,36.3c2.1-4.1,4.5-7.1,7.3-9C168.5,50.5,153.6,41.4,144,29.1z M136,25.3h-33.1V-1H136V25.3z"/>
	<path class="st1" d="M146.1,54.8l-2.4,2.9c10,8.4,17.4,17.5,22,27.3c2,4.1,3.9,6.2,5.9,6.2c3.4,0,5.1-1.9,5.1-5.7
		C176.7,77.2,166.5,67,146.1,54.8z"/>
	<path class="st1" d="M128.3,58l-2.6,2.1c6.6,9.9,10.4,19.2,11.1,28.1c0.4,4.7,2.1,7,5,7c3.5,0,5.3-2.2,5.3-6.7
		C147.2,79.8,140.9,69.6,128.3,58z"/>
</g>
</svg>
