<?xml version="1.0" encoding="utf-8"?>
<!-- Generator: Adobe Illustrator 19.0.0, SVG Export Plug-In . SVG Version: 6.00 Build 0)  -->
<svg version="1.1" id="圖層_1" xmlns="http://www.w3.org/2000/svg" xmlns:xlink="http://www.w3.org/1999/xlink" x="0px" y="0px"
	 viewBox="45 -33.8 150 150" style="enable-background:new 45 -33.8 150 150;" xml:space="preserve">
<style type="text/css">
	.st0{enable-background:new    ;}
	.st1{fill:#DC6200;}
</style>
<g class="st0">
	<path d="M174.1,91.2V56.7l3.1-2.1c0.8-0.5,1.2-1,1.2-1.6c0-1.3-2.8-4.1-8.5-8.3l-5.3,5.9h-42c-1.9-0.9-8.9-3.8-9.9-4.2v45.3h8.4
		v-5.9h44.5v5.4H174.1z M147.3,54.2h18.3v11.4h-18.3V54.2z M138.9,82h-17.8V69.4h17.8V82z M138.9,65.7h-17.8V54.2h17.8V65.7z
		 M147.3,82V69.4h18.3V82H147.3z"/>
	<path d="M180.9,88.6l-7.4,8.9h-72.7l1.8,3.7h85.5l1.7-3C186.6,94.3,183.7,91.1,180.9,88.6z"/>
	<path d="M184.5-17.7l1.8-3c-2.5-3.1-5.6-6.2-9.2-9.2l-7,8.4h-65.4l1.5,3.7H184.5z"/>
	<path d="M73.8,76.4v-18h14.9l1.3-2.7c-1.6-2.8-3.5-5.6-5.9-8.2l-4.5,7.2h-5.9v-9.7c3.4-1.3,5.1-2.5,5.1-3.6c0-2-4.3-3.1-12.9-3.4
		v16.8H51.7l1.5,3.7H66v19.5C58.8,79,53.5,79.7,50.3,80c2.4,8.2,4.5,12.3,6.4,12.3c1.2,0,2-1.7,2.3-5.2c7.6-2,17.8-5.5,30.5-10.5
		l0.4-4.2C84.1,74.1,78.7,75.5,73.8,76.4z"/>
	<path class="st1" d="M95.5,22.3L90.6,28H63.2c1.1-7.4,1.8-14.2,2.3-20.4h23.8V15h8.4v-30.3l3.4-2.1c0.9-0.4,1.4-1,1.4-1.8
		c0-1.3-2.9-4.3-8.7-8.9l-5.4,6.6H51.6l1.7,3.7h36V3.9h-22c-3.6-1.8-6.8-3.3-9.6-4.5l-0.4,4.9c-1,13.2-2.4,24.6-4,34.2l8.1,1.8
		c0-0.5,0.2-1.4,0.4-2.6c0.3-1.6,0.5-2.8,0.7-3.7l0.4-2.3h28.9C91.5,50,91,63.5,90.1,72.4c-0.1,0-0.1,0-0.1,0l-0.4,4.2
		c0,0,0.1,0,0.1-0.1c-0.7,6.5-1.4,10.7-2.1,12.6c-1,3-3.5,4.5-7.3,4.5c-3.7,0-9-0.5-15.8-1.5v4c5.6,1.1,9.3,2.1,11.1,2.9
		c2.4,1.2,3.7,3.2,3.9,6.2c6.3,0.2,10.8-1.7,13.6-5.8c4.1-5.8,6.5-27.3,7-64.5l3.3-2.1c0.6-0.4,0.9-0.9,0.9-1.3
		C104.1,30.2,101.3,27.1,95.5,22.3z"/>
	<path d="M187.2,36.8c-2.3-2.8-5.2-5.8-8.7-9l-6.3,8.1h-67.2l1.8,3.7h78.7L187.2,36.8z"/>
	<path d="M172.4,30.1V-0.6l3.6-2.6c0.5-0.5,0.7-0.8,0.7-1c0-1.1-2.8-3.9-8.3-8.3l-5.1,5.6h-39.6c0,0-8.7-3.7-9.4-4.2v41.5h8.1v-5h42
		v4.6H172.4z M147.2-3.2h17.1V7.2h-17.1V-3.2z M139,21.7h-16.8V10.9H139V21.7z M139,7.2h-16.8V-3.2H139V7.2z M147.2,21.7V10.9h17.1
		v10.8H147.2z"/>
</g>
</svg>
