<?xml version="1.0" encoding="utf-8"?>
<!-- Generator: Adobe Illustrator 19.0.0, SVG Export Plug-In . SVG Version: 6.00 Build 0)  -->
<svg version="1.1" id="圖層_1" xmlns="http://www.w3.org/2000/svg" xmlns:xlink="http://www.w3.org/1999/xlink" x="0px" y="0px"
	 viewBox="45 -33.8 150 150" style="enable-background:new 45 -33.8 150 150;" xml:space="preserve">
<style type="text/css">
	.st0{enable-background:new    ;}
	.st1{fill:#DC6200;}
</style>
<g class="st0">
	<path d="M136.9,71.1c10.2-11.1,18.9-25.1,26-42l4.6-2.4c1-0.4,1.5-1,1.5-1.8c0-1.3-3.3-4.8-9.9-10.7l-6.2,7.7H80.5v3.7H97
		c7.5,18.5,16.9,33.7,28.1,45.6C112,84.6,94.9,94.7,73.9,101.5l2,3.6c22.4-5.5,40.9-14.8,55.5-27.9c12.3,10.4,27.8,18.8,46.7,25.3
		c1.7-3.5,4.1-6.5,7-9C165.7,88.4,149.6,81,136.9,71.1z M130.4,65.7c-10.5-9.9-19.9-23.2-28.2-40.1h51.6
		C148.6,40.3,140.8,53.7,130.4,65.7z"/>
</g>
<path class="st1" d="M82-4.1c34.4-3.4,62.2-7.5,83.3-12.3c2.8,0.6,5,0.9,6.5,0.9c1.8,0,2.7-0.4,2.7-1.3c0-2-4-5.2-11.9-9.6
	C140.8-18,114.6-12,83.9-8.3c-3.7-1.9-7.4-3.5-11.2-4.8v38.2c0,33.8-5.9,59.6-17.6,77.3l3.3,2.4C74.1,86.8,82,60.3,82,25.1V-4.1z"/>
</svg>
