<?xml version="1.0" encoding="utf-8"?>
<!-- Generator: Adobe Illustrator 19.0.0, SVG Export Plug-In . SVG Version: 6.00 Build 0)  -->
<svg version="1.1" id="圖層_1" xmlns="http://www.w3.org/2000/svg" xmlns:xlink="http://www.w3.org/1999/xlink" x="0px" y="0px"
	 viewBox="45 -33.8 150 150" style="enable-background:new 45 -33.8 150 150;" xml:space="preserve">
<style type="text/css">
	.st0{enable-background:new    ;}
	.st1{fill:#DC6200;}
</style>
<g class="st0">
	<path d="M66.3,22.9c1,3.3,2.8,5,5.3,5c3.3,0,5-2,5-6c0-7-7.1-12.5-21.2-16.3l-1.3,2.6C60.6,12.4,64.7,17.3,66.3,22.9z"/>
	<path d="M78.9-8.7c0.7,2.4,2.2,3.6,4.5,3.6c3.7,0,5.6-2.1,5.6-6.2c0-7-7.4-12.1-22.2-15.5l-1.6,2.9C72.4-19.5,77-14.4,78.9-8.7z"/>
	<path class="st1" d="M102.6,25.3c-0.5,19.8-4.7,35.3-12.7,46.5c-1,1.3-1.5,2.5-1.5,3.7c0,3.3,1.8,5,5.3,5c2.9,0,5.4-2.3,7.6-6.9
		c4-7.6,6-18.1,6-31.7c0-4.6-0.3-9.9-1-15.9L102.6,25.3z"/>
	<path d="M75.6,75.6c0-2.5,0.7-6,2.1-10.3l22-66.8l-4.1-2.2c-8.5,26.3-16.9,46.9-25,61.7c-2,3.6-5,5.4-9.2,5.4
		c-1.8,0-3.9-0.2-6.4-0.6v3.9c4.1,0.8,7,1.9,8.7,3.4c2.6,2.3,3.9,6.2,3.9,11.7c0,3.1-0.3,7-0.9,11.6c-0.5,4.1-0.7,6.3-0.7,6.5
		c0,3.3,1.9,4.9,5.6,4.9c4.6,0,6.9-3.2,6.9-9.6c0-2.8-0.7-7.3-2-13.5C75.9,79.2,75.6,77.1,75.6,75.6z"/>
	<path class="st1" d="M147,3.9c2.1,3.8,4.2,5.7,6.2,5.7c3.2,0,4.8-1.8,4.8-5.3c0-3.4-2.3-7.4-6.9-12c-7.1-7-17.2-13.1-30.2-18.3
		l-1.9,3.4C132.5-14.5,141.8-5.6,147,3.9z"/>
	<path class="st1" d="M184.1,50.2C180,39.8,173,30,163.1,20.8l-2.7,2.1c9.1,13.7,14.4,26.7,15.9,38.8c0.6,5.4,2.3,8.1,5.1,8.1
		c3.8,0,5.7-2.5,5.7-7.6C187.1,59.3,186.1,55.3,184.1,50.2z"/>
	<path class="st1" d="M165.6,88.2c-0.8-2.5-1.2-10.3-1.2-23.2l-3.9-1.7c-0.9,16.3-2.6,25.6-5.1,27.9c-1.5,1.5-6,2.3-13.5,2.3
		c-4.5,0-7.6-0.2-9.3-0.7c-1.5-0.6-2.3-2.3-2.3-5v-74c4.2-1.5,6.3-2.9,6.3-4.2c0-2.4-5.1-3.9-15.3-4.4v84c0,4,0.7,6.8,2,8.4
		c2,2.4,8.4,3.6,19.5,3.6c11.9,0,19.5-0.5,22.9-1.5c3.4-0.9,5.1-3.6,5.3-8.3C168.1,91.5,166.3,90.4,165.6,88.2z"/>
</g>
</svg>
