<?xml version="1.0" encoding="utf-8"?>
<!-- Generator: Adobe Illustrator 19.0.0, SVG Export Plug-In . SVG Version: 6.00 Build 0)  -->
<svg version="1.1" id="圖層_1" xmlns="http://www.w3.org/2000/svg" xmlns:xlink="http://www.w3.org/1999/xlink" x="0px" y="0px"
	 viewBox="45 -33.8 150 150" style="enable-background:new 45 -33.8 150 150;" xml:space="preserve">
<style type="text/css">
	.st0{enable-background:new    ;}
	.st1{fill:#DC6200;}
</style>
<g class="st0">
	<path class="st1" d="M154.2,85.7c-0.6-2.7-0.9-7.3-0.9-13.9l-3.9-1.5c-0.6,13.1-3.5,20.1-8.9,20.9c-3.9,0.6-10.6,0.9-20.1,0.9
		c-10.1,0-16.2-0.3-18.3-0.9c-1.7-0.5-2.6-2-2.6-4.5V60.5c4.1-1.4,6.2-2.7,6.2-4c0-2.1-5-3.4-15-4v36.8c0,4.6,1.3,7.6,3.9,9
		c2.5,1.4,11.3,2.1,26.3,2.1c14.5,0,24.3-0.4,29.5-1.3c5.4-0.9,8.3-3.8,8.6-8.7C156.6,90.3,155,88.7,154.2,85.7z"/>
	<path class="st1" d="M155.9,52.8l-2.1,2.9C164.7,64.1,172,74,176,85.3c0.8,2.3,2.4,3.4,4.8,3.4c3.5,0,5.3-2,5.3-6
		C186,72.8,176,62.8,155.9,52.8z"/>
	<path class="st1" d="M56.9,84.9c-2.1,1.3-3.1,2.9-3.1,4.8c0,3.5,1.7,5.3,5.1,5.3c3.4,0,6.9-2.4,10.5-7.2c5.2-6.9,8.2-16.8,9-29.6
		l-3.9-1.3C71.9,69.4,66,78.7,56.9,84.9z"/>
	<path d="M79.6,37.8h80.6v7.9h8.6v-60.1l3.7-2.7c1-0.7,1.5-1.4,1.5-2.1c0-1.1-3-4-8.9-8.6l-6.3,6.7H81c-3.5-1.8-6.8-3.3-10-4.6v72.4
		h8.6V37.8z M123.8-17.5h36.4V6.3h-36.4V-17.5z M123.8,10h36.4v24h-36.4V10z M79.6-17.5h35.7V6.3H79.6V-17.5z M79.6,10h35.7v24H79.6
		V10z"/>
	<path class="st1" d="M110.3,46.9c8.3,7.1,13.6,13.9,16,20.4c1.2,3,2.9,4.5,4.9,4.5c3.4,0,5.1-1.9,5.1-5.6c0-6.9-7.9-14.2-23.8-22
		L110.3,46.9z"/>
</g>
</svg>
