<?xml version="1.0" encoding="utf-8"?>
<!-- Generator: Adobe Illustrator 19.0.0, SVG Export Plug-In . SVG Version: 6.00 Build 0)  -->
<svg version="1.1" id="圖層_1" xmlns="http://www.w3.org/2000/svg" xmlns:xlink="http://www.w3.org/1999/xlink" x="0px" y="0px"
	 viewBox="45 -33.8 150 150" style="enable-background:new 45 -33.8 150 150;" xml:space="preserve">
<style type="text/css">
	.st0{enable-background:new    ;}
	.st1{fill:#DC6200;}
</style>
<g class="st0">
	<path class="st1" d="M59-0.2c-0.1,16.1-2.2,27.7-6.3,34.9c-1.5,2.5-2.3,4.3-2.3,5.3c0,2.9,1.6,4.3,4.8,4.3c6.6,0,9.9-8,9.9-24
		c0-4.7-0.7-11.5-2.1-20.2L59-0.2z"/>
	<path class="st1" d="M87.6-25.7c0-2.2-5.1-3.4-15.2-3.6v134.5H81V-21.3C85.4-23,87.6-24.5,87.6-25.7z"/>
	<path class="st1" d="M99.6,13c0-6.5-3.9-13.5-11.6-20.9l-2.4,2.1c3.1,6,4.7,12.2,4.8,18.8c0,4.2,1.3,6.3,4,6.3
		C97.9,19.3,99.6,17.2,99.6,13z"/>
	<path d="M168.2,42.9l-6.1,7h-43.9c-4.3-2.4-7.9-4.2-10.8-5.6v60.9h8.7v-9.7h47.5v9.7h8.9V56.7l3.9-2.6c0.8-0.5,1.2-1.1,1.2-1.8
		C177.6,51,174.5,47.8,168.2,42.9z M163.7,91.7h-47.5V53.7h47.5V91.7z"/>
	<path d="M154.5-1.9l-2.2,2.8c8.2,7.6,14.3,14.5,18.2,20.7l0.4,0.6c-11.7,1-27.2,1.7-46.4,2l-6,0.1c9-13.9,16.5-28.3,22.6-43.1
		c4.9-0.4,7.3-1.3,7.3-2.7c0-2.2-4.9-4.8-14.8-7.6c-5.4,19-12.2,36.8-20.4,53.4l-9,0.1H93.8c1.7,9.3,3.6,13.9,5.7,13.9
		c1.1,0,2.2-1.9,3.3-5.7c23-1.3,45.4-3.2,67.2-5.9c1.5-0.1,2.6-0.3,3.4-0.4c1.5,2.8,2.8,5.8,4,8.9c1,2.8,2.6,4.2,4.8,4.2
		c3.3,0,5-2,5-5.9C187.1,23.2,176.2,11.4,154.5-1.9z"/>
</g>
</svg>
