<?xml version="1.0" encoding="utf-8"?>
<!-- Generator: Adobe Illustrator 19.0.0, SVG Export Plug-In . SVG Version: 6.00 Build 0)  -->
<svg version="1.1" id="圖層_1" xmlns="http://www.w3.org/2000/svg" xmlns:xlink="http://www.w3.org/1999/xlink" x="0px" y="0px"
	 viewBox="45 -33.8 150 150" style="enable-background:new 45 -33.8 150 150;" xml:space="preserve">
<style type="text/css">
	.st0{enable-background:new    ;}
	.st1{fill:#DC6200;}
</style>
<g class="st0">
	<path d="M57.7,86c-3,1.7-4.5,3.4-4.5,5.3c0,3.7,1.9,5.6,5.7,5.6c3,0,6.1-2.1,9.4-6.3c5.4-6.9,8.2-15.9,8.6-27.2l-3.7-1.2
		C70.7,73.8,65.5,81.7,57.7,86z"/>
	<path d="M86.5,29.6h66.4V36l8.9,0V-3.8l3.6-2.6c0.8-0.6,1.2-1.2,1.2-1.8c0-1.4-3.1-4.5-9.3-9.3l-5.9,7.2h-38.7
		c3.6-3.8,6.6-7.3,9-10.6c4.3-0.8,6.4-1.7,6.4-2.7c0-1.9-5.1-3.9-15.2-6c-1.1,6.6-2.9,13.1-5.2,19.3h-20c-1.7-0.9-5-2.3-10-4.2v50.8
		l8.7,0V29.6z M86.5-6.5h66.4v14H86.5V-6.5z M86.5,11.2h66.4v14.7H86.5V11.2z"/>
	<path d="M181.5,73.3c-5.6-5.9-12.9-10.8-22-14.9l-2.1,2.6c9.9,8.3,16.4,16.6,19.4,25c1.3,4,3.3,6,5.9,6c3.4,0,5.1-2.1,5.1-6.3
		C187.8,81.8,185.7,77.6,181.5,73.3z"/>
	<path d="M155.7,90.3c-1-1.9-1.5-6.9-1.5-15.2l-3.9-1.4c-0.7,8.6-1.9,14.1-3.6,16.5c-1.5,2.2-9.9,3.3-25.2,3.3
		c-10.8,0-17.2-0.2-19-0.7c-1.5-0.4-2.3-1.8-2.3-4.2V65.8c3.9-1.5,5.9-2.8,5.9-3.9c0-2-4.9-3.2-14.6-3.5v32.4c0,4.8,1.3,7.9,4,9.3
		c2.3,1.1,10.8,1.6,25.4,1.6c16.1,0,26.6-0.4,31.5-1.2c4.6-0.8,7.2-3.5,7.6-8.3C158,92.3,156.5,91.7,155.7,90.3z"/>
	<path d="M113.7,54.7c7.6,6.3,12.4,12.9,14.6,19.7c0.7,2.4,2.3,3.6,4.8,3.6c3.2,0,4.8-1.8,4.8-5.4c0-6.8-7.3-13.6-22-20.6
		L113.7,54.7z"/>
	<polygon class="st1" points="152.9,54.4 161.7,54.4 161.7,36 152.9,36 152.9,46.5 86.5,46.5 86.5,36.3 77.7,36.4 77.7,55.5 
		86.5,55.5 86.5,50.2 152.9,50.2 	"/>
</g>
</svg>
