<?xml version="1.0" encoding="utf-8"?>
<!-- Generator: Adobe Illustrator 19.0.0, SVG Export Plug-In . SVG Version: 6.00 Build 0)  -->
<svg version="1.1" id="圖層_1" xmlns="http://www.w3.org/2000/svg" xmlns:xlink="http://www.w3.org/1999/xlink" x="0px" y="0px"
	 viewBox="45 -33.8 150 150" style="enable-background:new 45 -33.8 150 150;" xml:space="preserve">
<style type="text/css">
	.st0{enable-background:new    ;}
	.st1{fill:#DC6200;}
</style>
<g class="st0">
	<path d="M75,4.3c-0.1-1.7-0.3-3.6-0.4-5.9l-4.1-0.9c-0.9,12.1-4,20.6-9.3,25.6c-2.2,1.9-3.3,3.6-3.3,5.2c0,3.3,1.9,5,5.7,5
		c3.5,0,6.3-2.9,8.6-8.6c1.8-4.3,2.7-9.9,2.9-16.8h37.6V4.3H75z"/>
	<path class="st1" d="M128.1-23.9c0-2.4-5.2-3.6-15.5-3.6V4.3h0V8h0c0,0.1,0,0.2,0,0.3v0.3V8.3c-0.5,16.3-2.5,30-6.1,41.1
		c-7.7,23.3-24.1,40.8-49.4,52.7l2.4,3.3C81.8,97,97.6,84.9,107.1,69c9.5-15.7,14.3-36.1,14.4-61h0.1V4.3h-0.1v-23.6
		C125.9-21.1,128.1-22.6,128.1-23.9z"/>
	<path d="M178.8,85.5c-0.9-3.1-1.3-10.2-1.3-21.3l-4-1c-1,17.2-3.3,26.5-6.9,28.1c-2,0.9-7,1.3-15,1.3c-9.8,0-15.8-0.3-18.1-0.9
		c-1.8-0.4-2.7-2-2.7-4.8V36.1c3.9-1.6,5.9-3.1,5.9-4.3c0-2.3-4.9-3.6-14.7-3.7v60c0,4.7,1,7.9,3,9.6c2.2,1.9,10.3,2.9,24.2,2.9
		c15.9,0,25.6-0.4,29.2-1.3c4.1-1.1,6.3-4.1,6.4-9C181.7,90,179.7,88.4,178.8,85.5z"/>
	<path d="M162.6,27.1l3,1.7c6-7.5,10.2-13.3,12.5-17.4l4.9-1.7c0.9-0.3,1.4-0.8,1.4-1.5c0-1.8-3.7-6.1-11-12.7l-6,8.9h-45.7V8h46.8
		C167.1,15,165.1,21.3,162.6,27.1z"/>
</g>
</svg>
