<?xml version="1.0" encoding="utf-8"?>
<!-- Generator: Adobe Illustrator 19.0.0, SVG Export Plug-In . SVG Version: 6.00 Build 0)  -->
<svg version="1.1" id="圖層_1" xmlns="http://www.w3.org/2000/svg" xmlns:xlink="http://www.w3.org/1999/xlink" x="0px" y="0px"
	 viewBox="45 -33.8 150 150" style="enable-background:new 45 -33.8 150 150;" xml:space="preserve">
<style type="text/css">
	.st0{enable-background:new    ;}
	.st1{fill:#DC6200;}
</style>
<g class="st0">
	<path d="M173.5-25.2l-6,7.3h-34.9c-3.7-2.1-7.1-3.8-10.2-5.1v61.7c0,15.1-1.9,27.5-5.8,37c-4.1,10-11.3,18.9-21.7,26.8l2.7,3
		c10.4-5.9,18.3-13,23.7-21.4c5.3-8.4,8.6-19.1,9.8-32.1H166l1.4-2.5c-2-2.7-4.4-5.5-7.3-8.4l-5.3,7.1h-23.4
		c0.2-4.2,0.3-7.4,0.3-9.6V17.8H166l1.4-2.5c-2-2.7-4.4-5.5-7.3-8.4l-5.3,7.2h-23.1v-28.2h37.2V86.6c0,3.2-1.5,4.8-4.6,4.8
		c-7.4,0-15.3-0.4-23.6-1.2v4.2c8.8,1.1,14.6,2.2,17.4,3.4c2.4,1,3.8,2.9,4.2,5.6c10.4,0,15.6-4.2,15.6-12.5V-11.6l3.4-2.9
		c0.8-0.7,1.2-1.3,1.2-2C182.4-17.6,179.4-20.6,173.5-25.2z"/>
	<path class="st1" d="M96.8,76.6h8.4V-8.2l3.1-2.4c0.9-0.7,1.3-1.4,1.3-2c0-1.3-2.8-4.1-8.5-8.5l-5.6,7H70.4c-4-2.2-7.4-4-10.3-5.1
		V82.3h8.7V66.6h27.9V76.6z M68.9-10.3h27.9v33.9H68.9V-10.3z M68.9,62.8V27.4h27.9v35.4H68.9z"/>
</g>
</svg>
