<?xml version="1.0" encoding="utf-8"?>
<!-- Generator: Adobe Illustrator 19.0.0, SVG Export Plug-In . SVG Version: 6.00 Build 0)  -->
<svg version="1.1" id="圖層_1" xmlns="http://www.w3.org/2000/svg" xmlns:xlink="http://www.w3.org/1999/xlink" x="0px" y="0px"
	 viewBox="45 -33.8 150 150" style="enable-background:new 45 -33.8 150 150;" xml:space="preserve">
<style type="text/css">
	.st0{enable-background:new    ;}
	.st1{fill:#DC6200;}
</style>
<g class="st0">
	<path d="M108,30.9c-8.9,3.5-16.5,6.3-22.8,8.2V7.2h21.6l1.6-2.9c-2.4-3.8-5.2-7.3-8.5-10.8l-6.7,9.9h-8v-24.9
		c4.5-1.5,6.7-2.9,6.7-4.2c0-2.2-5.2-3.4-15.5-3.6V3.4H54.7l1.3,3.7h20.4v34.5c-6.5,2-14.2,4-23.1,5.9c2.5,8.8,4.9,13.2,7,13.2
		c1.3,0,2.2-2,2.7-5.9c5.8-2.1,10.2-3.8,13.3-5.2v38.5c0,3.2-1.6,4.8-4.8,4.8c-3.6,0-9.1-0.5-16.5-1.4v3.9c5.3,1.1,8.9,2,10.8,2.7
		c2.8,1.4,4.3,3.5,4.5,6.4c9.8,0,14.7-3.9,14.7-11.6V45.8c6.7-2.8,14.5-6.6,23.4-11.2L108,30.9z"/>
	<path class="st1" d="M154.9-3.8v-2.4l5.8-2.3c1.6-0.6,2.4-1.4,2.4-2.4c0-1.8-3.2-5.1-9.6-10l-6.4,8.6h-27l1.7,3.7H150v4.7
		c0,41.4,10.4,76.5,31.2,105.5c2.7-3.9,5.6-6.7,8.7-8.6C166.6,65.8,154.9,33.5,154.9-3.8z"/>
	<path class="st1" d="M123.1,11.2c-2.8,39.3-12.8,69.2-29.8,89.7l2.9,2.6c19-19,30.7-46.7,35.1-82.8c4.3-1,6.4-2.2,6.4-3.4
		C137.7,15.1,132.9,13.1,123.1,11.2z"/>
</g>
</svg>
