<?xml version="1.0" encoding="utf-8"?>
<!-- Generator: Adobe Illustrator 19.0.0, SVG Export Plug-In . SVG Version: 6.00 Build 0)  -->
<svg version="1.1" id="圖層_1" xmlns="http://www.w3.org/2000/svg" xmlns:xlink="http://www.w3.org/1999/xlink" x="0px" y="0px"
	 viewBox="45 -33.8 150 150" style="enable-background:new 45 -33.8 150 150;" xml:space="preserve">
<style type="text/css">
	.st0{enable-background:new    ;}
	.st1{fill:#DC6200;}
</style>
<g class="st0">
	<path class="st1" d="M92.5,69.1l-1.4,0.4c5.4-15.2,10.3-32.8,14.7-52.7c3.7-0.6,5.6-1.5,5.6-2.7c0-2.2-5-4.6-14.9-7.2
		C93.5,32.9,90,54.1,86,70.7c-8.9,2.4-19.9,4.9-33,7.5c2.6,9.5,5,14.2,7.2,14.2c1.3,0,2.3-2,2.9-6c15.5-5.1,32.3-11.8,50.4-20.1
		l-1-3.3C103.9,65.8,97.2,67.8,92.5,69.1z"/>
	<path d="M185.8,11.9l1.8-2.9c-2.1-3.3-5.3-7.2-9.7-11.6l-7.5,10.8h-20.2v-27c4.8-1.6,7.2-3.1,7.2-4.5c0-2.2-5.3-3.6-15.9-4v74.1
		H128c-4.7-2.5-8.4-4.4-11.1-5.7v64.2h8.7v-9.4h45.1v9.4h8.7v-52l3.4-2.4c0.8-0.6,1.2-1.3,1.2-1.9c0-1.2-2.9-4.3-8.8-9.3l-5.9,7.2
		h-19V11.9H185.8z M170.7,50.5V92h-45.1V50.5H170.7z"/>
	<path class="st1" d="M73.8,66.3c3.7,0,5.6-3.2,5.6-9.7c0-13.8-5.3-28.7-15.9-44.8l-3.1,1.9c6.2,14.4,9.3,30,9.4,46.8
		C69.8,64.3,71.1,66.3,73.8,66.3z"/>
	<path d="M108.8-10.2l-7.5,10.5H87.3v-20.6c4.6-1.6,6.9-3.1,6.9-4.5c0-2.2-5.2-3.4-15.6-3.6V0.3H53.1L54.7,4h61.1l2-2.7
		C114.8-3.1,111.8-6.9,108.8-10.2z"/>
</g>
</svg>
