<?xml version="1.0" encoding="utf-8"?>
<!-- Generator: Adobe Illustrator 19.0.0, SVG Export Plug-In . SVG Version: 6.00 Build 0)  -->
<svg version="1.1" id="圖層_1" xmlns="http://www.w3.org/2000/svg" xmlns:xlink="http://www.w3.org/1999/xlink" x="0px" y="0px"
	 viewBox="45 -33.8 150 150" style="enable-background:new 45 -33.8 150 150;" xml:space="preserve">
<style type="text/css">
	.st0{enable-background:new    ;}
	.st1{fill:#DC6200;}
</style>
<g class="st0">
	<path class="st1" d="M101.5,2.7c3.5,0,5.3-2,5.3-6c0-8.3-7.3-16.6-21.9-24.9l-2.3,2.9c7,6.9,11.5,14.2,13.5,21.9
		C97.2,0.6,99,2.7,101.5,2.7z"/>
	<path class="st1" d="M103.8,9.4H138v0.1h8.9V9.4h30l1.5-2.9c-3.8-4.6-6.2-7.3-7-8.2c-0.9-0.8-1.9-1.7-2.9-2.7l-7.7,10h-24.6
		c6.6-8.5,11.8-16.6,15.6-24c4.7-0.1,7.1-0.9,7.1-2.3c0-2.4-4.9-5.2-14.7-8.6c-3.6,12.7-7.9,24.4-12.9,34.9H61.3l1.5,3.7h31.8v0.1
		L103.8,9.4L103.8,9.4z"/>
	<path d="M175.4,35.7l-8.1,10.5h-20.4V9.5H138v36.7h-34.2V9.5h-9.2v36.7H54.3l1.7,3.7h38.5C93,74.4,82.1,92.1,61.9,103l2.4,3.1
		c24.6-10.7,37.7-29.4,39.3-56.3h34.8v53.2h8.9V49.9h36.9l1.6-3C182.6,42.7,179.1,39,175.4,35.7z"/>
</g>
</svg>
