<?xml version="1.0" encoding="utf-8"?>
<!-- Generator: Adobe Illustrator 19.0.0, SVG Export Plug-In . SVG Version: 6.00 Build 0)  -->
<svg version="1.1" id="圖層_1" xmlns="http://www.w3.org/2000/svg" xmlns:xlink="http://www.w3.org/1999/xlink" x="0px" y="0px"
	 viewBox="45 -33.8 150 150" style="enable-background:new 45 -33.8 150 150;" xml:space="preserve">
<style type="text/css">
	.st0{enable-background:new    ;}
	.st1{fill:#DC6200;}
</style>
<g class="st0">
	<path class="st1" d="M147,90.6c3.3-24.1,5.8-47,7.5-68.8l3.7-2.1c1.1-0.6,1.6-1.3,1.6-2c0-1.6-3.3-5.1-9.9-10.6l-5.9,7h-43.8
		c0.9-6.2,2-13.3,3.1-21.5l0.3-3.2h-9.4L94-7.6c-3,23.9-8.3,51.6-15.9,83.3l9.2,2c5.5-22.8,9.7-42.7,12.5-59.8h45.6
		c-1.5,20.8-4.1,43.6-7.7,68.6l-1,7.6h9.9L147,90.6z"/>
	<path d="M177,83l-8.6,11.1h-21.9l0-0.1h-9.9l0,0.1h-84l1.3,3.7h131.4l2.1-3.4C184.6,90.9,181.1,87.1,177,83z"/>
	<path d="M103.7-10.6h78.4l1.7-2.9c-3.2-4.1-7-7.9-11.3-11.5l-8.1,10.6H56.4l1.4,3.7h36.5l0,0.1h9.4L103.7-10.6z"/>
	<path class="st1" d="M99.3,59.2c8.7,5,14.9,10.9,18.6,17.5c0.9,1.8,2.3,2.7,4.3,2.7c3.2,0,4.8-1.9,4.8-5.6c0-7.2-8.9-13-26.6-17.5
		L99.3,59.2z"/>
	<path class="st1" d="M127.6,51.5c3.2,0,4.8-1.8,4.8-5.4c0-7.2-8.9-13.2-26.6-17.8l-1.2,2.9c8.7,5,14.7,10.5,17.9,16.3
		C123.9,50.2,125.6,51.5,127.6,51.5z"/>
</g>
</svg>
