<?xml version="1.0" encoding="utf-8"?>
<!-- Generator: Adobe Illustrator 19.0.0, SVG Export Plug-In . SVG Version: 6.00 Build 0)  -->
<svg version="1.1" id="圖層_1" xmlns="http://www.w3.org/2000/svg" xmlns:xlink="http://www.w3.org/1999/xlink" x="0px" y="0px"
	 viewBox="45 -33.8 150 150" style="enable-background:new 45 -33.8 150 150;" xml:space="preserve">
<style type="text/css">
	.st0{enable-background:new    ;}
	.st1{fill:#DC6200;}
</style>
<g class="st0">
	<path class="st1" d="M92.4,17.8c0,3.6,2,5.4,6,5.4c6.3,0,9.4-7.6,9.6-22.8h63.3c-1.7,5.5-4,10.9-6.9,16.3l3.1,2.1
		c5.5-5.5,9.8-10.4,12.7-14.6l5.3-1.2c1.2-0.3,1.8-0.9,1.8-1.7c0-2.2-3.5-6.3-10.5-12.5l-6.2,7.8h-28.1v-18.3
		c4.6-1.2,6.9-2.5,6.9-3.9c0-2.4-5.2-3.7-15.5-3.9v26.1h-26.2c-0.1-0.7-0.2-1.7-0.3-2.9c-0.2-1.5-0.3-2.5-0.4-3l-3.7-0.6
		c-0.6,10.5-3.4,18.2-8.3,23.1C93.3,15,92.4,16.5,92.4,17.8z"/>
	<path d="M178.7,22.3L171,32.5h-79l1.7,3.7h43v50.5c0,3.4-2,5.1-6,5.1c-6.9,0-14.6-0.5-23.1-1.5v4c9.4,1.3,15.6,2.6,18.5,3.9
		c2.6,1.3,3.9,3.3,3.7,6.2c1.8,0,4.1-0.3,6.9-0.9c6-1.4,9-5.5,9-12.3V36.2h42l1.8-2.7C186.3,29.7,182.7,25.9,178.7,22.3z"/>
	<path d="M77.7,14.5C82.8,2.6,86.9-9.1,90-20.6c4.7-0.9,7-2.1,7-3.4c0-2.2-5.1-4.3-15.2-6.3C75,2.3,64.2,30.5,49.5,54.4l3.1,2.4
		c6.7-8.9,13.2-19.1,19.3-30.6v79h9V22.3c4-1.4,6-2.7,6-4C87,16.5,83.9,15.2,77.7,14.5z"/>
</g>
</svg>
