<?xml version="1.0" encoding="utf-8"?>
<!-- Generator: Adobe Illustrator 19.0.0, SVG Export Plug-In . SVG Version: 6.00 Build 0)  -->
<svg version="1.1" id="圖層_1" xmlns="http://www.w3.org/2000/svg" xmlns:xlink="http://www.w3.org/1999/xlink" x="0px" y="0px"
	 viewBox="45 -33.8 150 150" style="enable-background:new 45 -33.8 150 150;" xml:space="preserve">
<style type="text/css">
	.st0{enable-background:new    ;}
	.st1{fill:#DC6200;}
</style>
<g class="st0">
	<path d="M134.6-11.2l-5.1,7.4h-4.8v-5.9l3.1-2.1c0.9-0.6,1.3-1.2,1.3-1.9c0-1.4-2.8-4.1-8.5-8.1l-4.6,5.9h-18v-6.3
		c3.8-1.4,5.7-2.7,5.7-3.9c0-1.9-4.6-3-13.8-3.3v13.5H62.1l1.5,3.7H90v8.4H52L53.5,0H90v8.9H61l1.6,3.7H90v9.2H57.6l1.2,3.7H90v9.2
		H52.5l1.3,3.7h83.9l1.7-2.9c-2.6-2.4-5.7-4.8-9.3-7l-6,6.2H98.1v-9.2h33.4l1.5-2.9l-1.5-1.2c-2.8-2.3-5.2-4.1-7.3-5.4l-5.9,5.7
		H98.1v-9.2h19v3.1h7.6V0h15.5l1.8-2.9C139.4-6.3,136.9-9.1,134.6-11.2z M117.1,8.8h-19V0h19V8.8z M117.1-3.8h-19v-8.4h19V-3.8z"/>
	<path d="M124.8,82.6V53.1l3.3-2.1c0.7-0.4,1-0.8,1-1.3c0-1.3-2.8-3.9-8.5-7.8l-4.6,5H72.9c-3.8-1.9-6.7-3.2-8.9-4v42.7h8.1v-5.7
		H117v2.9H124.8z M97.9,50.5H117v10.7H97.9V50.5z M90.1,76H72.2V64.9h17.9V76z M90.1,61.2H72.2V50.5h17.9V61.2z M97.9,76V64.9H117
		V76H97.9z"/>
	<path class="st1" d="M51.4,93c1.7,8.5,3.6,12.7,5.9,12.7c1,0,1.9-1.8,2.7-5.4c25.3-2.4,51.4-6,78.3-10.8l-0.7-3.7
		C109.6,89.2,80.9,91.6,51.4,93z"/>
	<path d="M153.9-4.5c4-1.4,6-2.7,6-4c0-2.1-4.8-3.4-14.4-3.9v85h8.4V-4.5z"/>
	<path d="M172-27.5V87.3c0,3-1.9,4.5-5.7,4.5c-5.4,0-11.6-0.3-18.5-1v3.9c6.9,1,11.7,2,14.3,3c3.1,1.2,4.6,3.3,4.6,6.4
		c9.3-0.7,14-4.5,14-11.4v-112c3.8-1.4,5.7-2.6,5.7-3.8C186.4-25.5,181.6-26.9,172-27.5z"/>
</g>
</svg>
