<?xml version="1.0" encoding="utf-8"?>
<!-- Generator: Adobe Illustrator 19.0.0, SVG Export Plug-In . SVG Version: 6.00 Build 0)  -->
<svg version="1.1" id="圖層_1" xmlns="http://www.w3.org/2000/svg" xmlns:xlink="http://www.w3.org/1999/xlink" x="0px" y="0px"
	 viewBox="45 -33.8 150 150" style="enable-background:new 45 -33.8 150 150;" xml:space="preserve">
<style type="text/css">
	.st0{enable-background:new    ;}
	.st1{fill:#DC6200;}
</style>
<g class="st0">
	<path d="M178.9,7.9l1.6-2.9c-3.7-4.6-7.3-8.5-10.9-11.6l-8,10.8H124v-22.3c4.8-1.4,7.2-2.8,7.2-4.4c0-2.3-5.3-3.7-16-4.2V4.2H60.7
		l1.5,3.7H178.9z"/>
	<path class="st1" d="M78,20.3c11.1,19.8,17.4,38.2,18.8,55.2c0.6,6.3,2.2,9.4,4.9,9.4c3.8,0,5.7-2.9,5.7-8.6c0-4-1.1-9.6-3.4-16.8
		c-4.2-13.2-11.8-27.1-22.6-41.6L78,20.3z"/>
	<path class="st1" d="M183.6,90.6c-3-3.8-6.4-7.3-10.1-10.5l-8.6,11.9h-31.7l0.8-1.6c8.8-19.6,16.8-40.9,24-63.9
		c4.5-0.4,6.8-1.3,6.8-2.7c0-2.3-5.2-5.2-15.5-8.9c-6,28.4-12.6,52.9-20,73.4c-0.3,0.9-0.7,2.1-1.3,3.7H56.9l1.7,3.7h124.6l2.1-3
		L183.6,90.6z"/>
</g>
</svg>
