<?xml version="1.0" encoding="utf-8"?>
<!-- Generator: Adobe Illustrator 19.0.0, SVG Export Plug-In . SVG Version: 6.00 Build 0)  -->
<svg version="1.1" id="圖層_1" xmlns="http://www.w3.org/2000/svg" xmlns:xlink="http://www.w3.org/1999/xlink" x="0px" y="0px"
	 viewBox="45 -33.8 150 150" style="enable-background:new 45 -33.8 150 150;" xml:space="preserve">
<style type="text/css">
	.st0{enable-background:new    ;}
	.st1{fill:#DC6200;}
</style>
<g class="st0">
	<path class="st1" d="M165.3-3.4c3.9,0,5.9-0.6,5.9-1.9c0-2-3.6-5.2-10.9-9.4c-5.4,8.6-14.5,19-27.2,31.2l0.6,4.7
		C148.6,10.4,159.1,2.2,165.3-3.4z"/>
	<path class="st1" d="M165.6,55c1.7,2.9,3.4,4.3,5.2,4.3c3.2,0,4.8-1.8,4.8-5.3c0-2.4-1.8-5.5-5.3-9.4c-7.3-7.9-19.4-15.3-36.5-22.5
		l0.9,4.9C148.3,35.1,158.5,44.4,165.6,55z"/>
	<path d="M180.6,82.7c0-5,0.3-12,1-21.2l-4-1.9c-2.1,20.2-4.6,30.2-7.4,30.2c-0.7,0-1.7-0.5-3-1.5c-16.6-13.1-27.4-33.5-32.5-61.2
		c0,0,0,0,0.1,0l-0.9-4.9c0,0,0,0-0.1,0l-0.1-1c0,0,0,0,0,0l-0.6-4.7c0,0,0,0,0,0c-1.2-9-1.8-18.7-1.8-29l3.6-2.3
		c0.8-0.5,1.2-1,1.2-1.6c0-1.5-3.1-4.5-9.3-8.9l-5.7,6.2H56.5l1.7,3.7h64.2v2.1c0,48.4,11.4,83.6,34.1,105.5
		c8.8,8.5,16.2,12.7,22.3,12.7c4.1,0,6.8-2.5,7.8-7.5C182.6,96.5,180.6,91.6,180.6,82.7z"/>
</g>
</svg>
