<?xml version="1.0" encoding="utf-8"?>
<!-- Generator: Adobe Illustrator 19.0.0, SVG Export Plug-In . SVG Version: 6.00 Build 0)  -->
<svg version="1.1" id="圖層_1" xmlns="http://www.w3.org/2000/svg" xmlns:xlink="http://www.w3.org/1999/xlink" x="0px" y="0px"
	 viewBox="45 -33.8 150 150" style="enable-background:new 45 -33.8 150 150;" xml:space="preserve">
<style type="text/css">
	.st0{enable-background:new    ;}
	.st1{fill:#DC6200;}
</style>
<g class="st0">
	<path d="M145.4-22.3c7.8,5.2,12.5,10.8,14.4,16.6c1.2,3.6,3.1,5.4,5.6,5.4c3.7,0,5.6-2,5.6-6c0-2.9-1.9-6-5.6-9.3
		c-4.3-3.9-10.4-7.2-18.2-9.9L145.4-22.3z"/>
	<path d="M82.1,13.6c5-10.3,9.6-21.3,13.8-32.9c4.5-0.4,6.7-1.3,6.7-2.7c0-2.4-4.8-4.9-14.3-7.6C80.3,2.1,67.7,30,50.7,54.2l3.3,2.2
		c8.1-9.2,15-19,20.9-29.5v78.3h8.9V20.8c4-1.2,6-2.4,6-3.6C89.8,15.8,87.2,14.6,82.1,13.6z"/>
	<path class="st1" d="M180,79c0-5,0.3-12,1-21.2l-4-1.9c-2.1,20.2-4.6,30.2-7.4,30.2c-0.7,0-1.7-0.5-3-1.5
		c-6-4.3-11.5-10.3-16.8-18.1c-6.9-10.1-12.1-23.6-15.6-40.4l49.8-5.9l1.2-3c-3.1-3.2-6.2-6.1-9.4-8.6c-0.5-0.5-1-1-1.5-1.4
		L168,18.1l-34.5,4c-1.8-11.3-2.7-24.1-2.7-38.5v-2c3.8-1.4,5.7-2.7,5.7-3.9c0-2.5-4.9-3.8-14.7-4v9.2c0,15.1,1,28.5,2.9,40.2
		l-34.9,4.2l2.1,3.7l33.6-4c4.8,25.9,14.9,46.3,30.5,61.2c8.8,8.5,16.2,12.7,22.3,12.7c4.1,0,6.8-2.5,7.8-7.5
		C182,92.8,180,87.9,180,79z"/>
</g>
</svg>
