<?xml version="1.0" encoding="utf-8"?>
<!-- Generator: Adobe Illustrator 19.0.0, SVG Export Plug-In . SVG Version: 6.00 Build 0)  -->
<svg version="1.1" id="圖層_1" xmlns="http://www.w3.org/2000/svg" xmlns:xlink="http://www.w3.org/1999/xlink" x="0px" y="0px"
	 viewBox="45 -33.8 150 150" style="enable-background:new 45 -33.8 150 150;" xml:space="preserve">
<style type="text/css">
	.st0{enable-background:new    ;}
	.st1{fill:#DC6200;}
</style>
<g class="st0">
	<path class="st1" d="M156.8,29.8l-5.7,6.3H88.9c-3.7-1.7-7.1-3.1-10-4v73.2h8.9V74.4h64.7v12c0,3.2-2,4.8-5.9,4.8
		c-8.3,0-15.6-0.4-21.9-1.2v4.2c7.9,1,13.3,2.2,16.2,3.4c2.7,1.3,4.1,3.2,4.1,5.8c2.2,0,4.3-0.2,6.3-0.6c6.7-1.2,10-5.2,10-11.9
		V43.1l3.4-2.3c1-0.7,1.5-1.4,1.5-2.1C166.3,37.4,163.1,34.4,156.8,29.8z M152.4,70.7H87.8V56.4h64.7V70.7z M152.4,52.6H87.8V39.8
		h64.7V52.6z"/>
	<path d="M170.9-25.4l-5.7,6.6H75.3c-2.4-1.4-5.7-3-9.7-4.8v53.1h8.6v-5.9h92.2V28h8.6V-12l4-2.6c0.9-0.6,1.4-1.2,1.4-1.8
		C180.4-18,177.2-21,170.9-25.4z M115.2,19.9H74.2V3.6h41.1V19.9z M115.2-0.2H74.2V-15h41.1V-0.2z M166.4,19.9h-42.7V3.6h42.7V19.9z
		 M166.4-0.2h-42.7V-15h42.7V-0.2z"/>
</g>
</svg>
