<?xml version="1.0" encoding="utf-8"?>
<!-- Generator: Adobe Illustrator 19.0.0, SVG Export Plug-In . SVG Version: 6.00 Build 0)  -->
<svg version="1.1" id="圖層_1" xmlns="http://www.w3.org/2000/svg" xmlns:xlink="http://www.w3.org/1999/xlink" x="0px" y="0px"
	 viewBox="45 -33.8 150 150" style="enable-background:new 45 -33.8 150 150;" xml:space="preserve">
<style type="text/css">
	.st0{enable-background:new    ;}
	.st1{fill:#DC6200;}
	.st2{fill:#D3228C;}
</style>
<g class="st0">
	<path class="st1" d="M166.8,14.2c2,2.3,3.7,3.4,5.1,3.4c2.7,0,4-1.5,4-4.5c0-3.9-4.8-7.5-14.3-11c3.6-2.6,6.8-5.2,9.5-7.9
		c4,0,5.9-0.6,5.9-1.8c0-1.8-3.5-4.5-10.6-8.1c-2.7,6.5-5.8,12-9.2,16.4c-2.2-0.8-4.8-1.5-7.9-2.2l0.7,3.7
		C157.9,6,163.4,10,166.8,14.2z"/>
	<path d="M140.3-13.4c0.7,19.5,5.5,33.6,14.4,42.3c8,7.7,16.1,11.6,24.3,11.6c4.6,0,7.2-2.2,7.6-6.6c-2.9-0.6-4.4-3.4-4.4-8.6
		c0-1.5,0.2-4.8,0.7-9.7l-3.6-1.6c-1.8,10.7-4,16-6.4,16c-1.9,0-4.7-1.4-8.6-4.2c-7.5-5.6-12.3-13.5-14.4-23.7
		c0.1,0.1,0.2,0.1,0.3,0.2l-0.7-3.7c-0.1,0-0.1,0-0.2,0c-0.3-2-0.6-5-0.8-9l3.6-2.3c1-0.5,1.5-1.2,1.5-2.1c0-1.4-3.1-4.5-9.2-9.2
		l-5.4,6.9H59.7l1.3,3.7H140.3z"/>
	<path class="st2" d="M168.2,71.9c1.8,2.4,3.4,3.6,4.9,3.6c2.8,0,4.2-1.5,4.2-4.6c0-4.4-5.4-8.7-16.2-12.7c3.5-2.5,6.6-4.9,9.3-7.2
		c4,0,5.9-0.6,5.9-1.8c0-1.6-3.4-4.1-10.3-7.6c-2.6,5.8-5.6,10.8-9,15.1c-1.5-0.5-4-1.3-7.7-2.4l0.7,4.1
		C158.7,62.9,164.8,67.5,168.2,71.9z"/>
	<path d="M184.1,86.5c0-3.1,0.4-7.9,1.3-14.6l-3.9-1.6c-2.1,12.8-4.7,19.2-7.8,19.2c-1.9,0-5.1-2-9.6-5.9
		c-7.5-6.6-12.3-15.1-14.4-25.5c0.1,0.1,0.2,0.1,0.3,0.2l-0.7-4.1c-0.1,0-0.2-0.1-0.4-0.1c-0.2-2.1-0.4-5.2-0.5-9.3l3.5-2.3
		c0.9-0.6,1.3-1.2,1.3-1.8c0-1.1-3-4-8.9-8.6l-5.7,6.6h-17.9V3.3c4-1.4,5.9-2.7,5.9-4.1c0-2.1-4.8-3.3-14.5-3.7v43.2H90.6
		c0.1-1.1,0.1-3,0.1-5.6V8.5c3.6-1.5,7.2-3.1,10.6-4.9c2.3,0.2,3.5,0.3,3.6,0.3c2.4,0,3.7-0.5,3.7-1.5c0-1.8-3.1-4.5-9.4-8.3
		C88.6,2.4,74.4,9.3,56.6,14.6l1.8,3.4c8.4-1.8,16.3-3.9,23.6-6.3v21.3c0,2.7-0.1,4.8-0.2,6.3H53.9l1.3,3.7h26.4
		c-2,25.4-11.7,44.9-29.4,58.5l2.4,3.1c12.9-7.6,22.2-17.1,27.8-28.5c4.6-9.3,7.3-20.6,8.1-33.9h21.8v59.8h8.6V42.4h19.5
		c0.1,20.8,5.7,36.5,16.8,47.1c8.3,7.8,16.2,11.7,23.9,11.7c4.3,0,6.9-2.2,7.6-6.6C185.6,94,184.1,91.3,184.1,86.5z"/>
</g>
</svg>
