<?xml version="1.0" encoding="utf-8"?>
<!-- Generator: Adobe Illustrator 19.0.0, SVG Export Plug-In . SVG Version: 6.00 Build 0)  -->
<svg version="1.1" id="圖層_1" xmlns="http://www.w3.org/2000/svg" xmlns:xlink="http://www.w3.org/1999/xlink" x="0px" y="0px"
	 viewBox="45 -33.8 150 150" style="enable-background:new 45 -33.8 150 150;" xml:space="preserve">
<style type="text/css">
	.st0{enable-background:new    ;}
	.st1{fill:#DC6200;}
</style>
<g class="st0">
	<path d="M141.2,19h18.8v7.9h8.6V-9l4-2.4c0.9-0.4,1.4-1,1.4-1.8c0-1.6-3.2-4.9-9.7-9.7l-5.7,6.9H90c-3.7-2.3-7.1-4.1-10.3-5.6v32.2
		c0,34.6-9.1,61-27.2,79l2.7,3C68.8,82.3,78,69.3,83,53.8c3.3-10.4,5.1-22,5.6-34.8H136c6.9,28.4,21.7,51.5,44.2,69.3
		c2.1-3.5,4.9-6.4,8.3-8.6C165.1,65.1,149.3,44.9,141.2,19z M88.7,15.3v-27.6h71.2v27.6H88.7z"/>
	<path class="st1" d="M140.7,85.9c-12.7-7-29.1-12.9-49.2-17.8L90,71.7c20.8,7.4,37.5,16.4,50,27c3.2,2.8,5.6,4.2,7.2,4.2
		c3.3,0,5-1.8,5-5.4C152.2,94.1,148.3,90.2,140.7,85.9z"/>
	<path class="st1" d="M98.5,37.8c12.2,5.6,21.1,11.9,26.7,18.8c2.4,2.9,4.5,4.3,6.3,4.3c2.9,0,4.4-1.7,4.4-5.1c0-3.3-2.6-6.6-7.8-10
		c-6.6-4.2-15.9-7.9-27.9-11.1L98.5,37.8z"/>
</g>
</svg>
