<?xml version="1.0" encoding="utf-8"?>
<!-- Generator: Adobe Illustrator 19.0.0, SVG Export Plug-In . SVG Version: 6.00 Build 0)  -->
<svg version="1.1" id="圖層_1" xmlns="http://www.w3.org/2000/svg" xmlns:xlink="http://www.w3.org/1999/xlink" x="0px" y="0px"
	 viewBox="45 -33.8 150 150" style="enable-background:new 45 -33.8 150 150;" xml:space="preserve">
<style type="text/css">
	.st0{enable-background:new    ;}
	.st1{fill:#DC6200;}
</style>
<g class="st0">
	<path d="M102.1-16c0.8-0.3,1.2-0.8,1.2-1.5c0-1.6-3-4.9-8.9-10l-5.3,7H69.9c-2.4-1.5-5.7-3.2-9.9-5.1v130.8h8.6V68.2
		c6.6,2.1,10,4.9,10.2,8.4c12.2,0,18.3-8.2,18.3-24.6c0-13.1-5.1-24.4-15.3-34.1c6.5-10.3,12-21,16.3-32.2L102.1-16z M77.3,18.7
		C85.1,29,88.9,39,88.9,48.7c0,5.5-0.6,9.5-1.8,12c-1.5,3.1-4.2,4.6-8.2,4.6c-2.4,0-5.8-0.3-10.3-1v-81h21
		C85.6-1.5,81.5,10.3,77.3,18.7z"/>
	<path d="M184.5,35.6c1.3-3.1,3.2-6,5.7-8.7c-14.7-2.7-28-7.5-39.8-14.3c6.5-6.4,12.1-13,16.8-19.9l4.2-1.7c0.9-0.4,1.3-0.9,1.3-1.5
		c0-1.6-3.1-4.9-9.3-10l-5.7,6.6h-27c1-1.7,2.4-4.4,4.2-8c4.3-0.6,6.4-1.5,6.4-2.9c0-2.1-4.3-4-13-5.8c-6,18-16.1,33.3-30.2,45.8
		l2.7,2.7c9.5-6.5,17.3-13.9,23.4-22c5.1,6.8,10.1,12.3,15.1,16.5C129.3,22.8,116.1,31.3,99.9,38l2.2,3.3
		c17.5-6.1,31.9-14.1,43.4-24C157.4,25.9,170.4,32,184.5,35.6z M126.7-7.4l1.8-2.7h29.5c-3.1,5.7-7.9,11.8-14.4,18.3
		C138.5,4.3,132.8-0.9,126.7-7.4z"/>
	<path class="st1" d="M179,67l-7.3,9h-22V50.1H180l1.8-3.1c-2.4-2.8-5.4-5.7-9.2-8.9l-6.4,8.3h-16.5v-9.9c4-1.3,6-2.6,6-3.9
		c0-2.1-4.9-3.5-14.6-4v17.7h-34.9l1.5,3.7h33.5V76h-26.2c1-5,1.8-10,2.3-15.2c3.4-0.7,5.1-1.7,5.1-3c0-1.7-4.2-3.2-12.6-4.8
		c-1.2,10.6-3.1,21.5-5.6,32.5l8.4,0.9c0.5-2,1-4.2,1.5-6.7h27v25.5h8.6V79.7h36.8l2-3.4C185.8,73.2,182.6,70.1,179,67z"/>
</g>
</svg>
