<?xml version="1.0" encoding="utf-8"?>
<!-- Generator: Adobe Illustrator 19.0.0, SVG Export Plug-In . SVG Version: 6.00 Build 0)  -->
<svg version="1.1" id="圖層_1" xmlns="http://www.w3.org/2000/svg" xmlns:xlink="http://www.w3.org/1999/xlink" x="0px" y="0px"
	 viewBox="45 -33.8 150 150" style="enable-background:new 45 -33.8 150 150;" xml:space="preserve">
<style type="text/css">
	.st0{enable-background:new    ;}
	.st1{fill:#DC6200;}
</style>
<g class="st0">
	<path d="M153.9,13.3l-7.9,9.3H77.3l1.6,3.7h83.7l1.8-3.1C160.9,19.5,157.4,16.2,153.9,13.3z"/>
	<path class="st1" d="M144.2-26.8l-8.6,10.2H87.2l1.5,3.8h64.6l1.6-3.1C151.5-19.8,147.9-23.4,144.2-26.8z"/>
	<path class="st1" d="M171.6-7.6l-9.3,10.8H56.6L58.3,7h123.4l1.7-3C179.7-0.3,175.8-4.2,171.6-7.6z"/>
	<path d="M153.9,32.2l-8.2,9.7H77.3l1.6,3.7h83.7l1.8-3C160.9,38.7,157.4,35.2,153.9,32.2z"/>
	<path d="M159.5,54.8l-6.3,7.2H86.1l-2.1-1c-2.8-1.6-5.6-2.9-8.4-4.1v48.4h9.2v-9.3h69.7v9.3h9.2V68.7l3.9-2.6
		c0.9-0.6,1.4-1.2,1.4-1.9C168.9,62.7,165.8,59.5,159.5,54.8z M154.5,92.2H84.8V65.7h69.7V92.2z"/>
</g>
</svg>
