<?xml version="1.0" encoding="utf-8"?>
<!-- Generator: Adobe Illustrator 19.0.0, SVG Export Plug-In . SVG Version: 6.00 Build 0)  -->
<svg version="1.1" id="圖層_1" xmlns="http://www.w3.org/2000/svg" xmlns:xlink="http://www.w3.org/1999/xlink" x="0px" y="0px"
	 viewBox="45 -33.8 150 150" style="enable-background:new 45 -33.8 150 150;" xml:space="preserve">
<style type="text/css">
	.st0{enable-background:new    ;}
	.st1{fill:#DC6200;}
</style>
<g class="st0">
	<path d="M88.2-3v15.2h8.7V-3h22.5l1.5-2.7c-2.7-3.2-6.1-6.4-10.3-9.7l-6.6,8.7h-7.2v-14.1c4.1-1.3,6.2-2.6,6.2-3.9
		c0-2.2-5-3.3-14.9-3.3v21.3H54.3L55.8-3H88.2z"/>
	<path d="M140.2-3v15.2h8.7V-3h35.4l1.5-2.7c-2.5-3.1-6.1-6.6-10.8-10.3l-7.3,9.3h-18.8v-13.6c4.1-1.4,6.2-2.7,6.2-4
		c0-2.5-5-3.7-14.9-3.7v21.3h-15.9l1.5,3.7H140.2z"/>
	<path d="M152.8,22.9H70.2l2,3.7h96.9l1.5-2.7c-2.8-3.4-6.2-6.9-10-10.5L152.8,22.9z"/>
	<path d="M174.4,40.8l-8.6,10.5H54.4l2,3.7h46.9c0,0,0,0.1,0,0.1h11.9c0,0,0-0.1,0-0.1h68.3l1.7-2.7
		C182.1,48.4,178.5,44.5,174.4,40.8z"/>
	<path class="st1" d="M96.9,72.7c-2.1,5.2-4.7,10.6-7.8,16.3c-5.6,0.2-14.2,0.5-25.9,0.7c2.1,9.3,4.2,14,6.3,14
		c1.2,0,2.3-1.9,3.3-5.6c31.2-2.5,60-5.7,86.5-9.6c3.1,3.6,5.6,7,7.7,10.2c2.3,3.5,4.2,5.3,5.9,5.3c3.4,0,5.1-1.8,5.1-5.3
		c0-3.9-3.2-8.5-9.6-14.1c-7.9-6.9-17.7-13.5-29.4-19.7l-2.1,3.1c7.2,5.3,13.5,10.8,19,16.7c-18.3,1.6-38.8,2.9-61.6,3.9
		c3.7-4.9,7.6-10.7,11.8-17.4c2.2-3.5,5.3-8.9,9.3-16.2h-11.9C102.1,59.6,99.9,65.5,96.9,72.7z"/>
</g>
</svg>
