<?xml version="1.0" encoding="utf-8"?>
<!-- Generator: Adobe Illustrator 19.0.0, SVG Export Plug-In . SVG Version: 6.00 Build 0)  -->
<svg version="1.1" id="圖層_1" xmlns="http://www.w3.org/2000/svg" xmlns:xlink="http://www.w3.org/1999/xlink" x="0px" y="0px"
	 viewBox="45 -33.8 150 150" style="enable-background:new 45 -33.8 150 150;" xml:space="preserve">
<style type="text/css">
	.st0{enable-background:new    ;}
	.st1{fill:#DC6200;}
</style>
<g class="st0">
	<path d="M101.5,3.3h85l1.3-2.9c-2.8-3.9-6.1-7.4-9.7-10.5l-6.7,9.6h-24.2v-20.9c4.5-1.5,6.7-2.9,6.7-4.2c0-2.3-5.2-3.6-15.5-3.7
		v28.8h-38.4L101.5,3.3z"/>
	<path d="M152.2,12.3c0-2.3-4.5-5.2-13.6-8.6c-4.2,13-9.6,25.1-16,36.2c-3.7-3.1-9.1-6.8-16.2-11.1l-2.1,2.7
		c10.4,8.6,17.4,17.5,20.9,26.7c1.3,3.4,2.9,5.1,4.8,5.1c3.3,0,5-1.8,5-5.4c0-4.3-3.1-9.3-9.2-15.2c7.3-8.5,14-17.9,19.9-28.3
		C150,14.3,152.2,13.6,152.2,12.3z"/>
	<path class="st1" d="M101.1,44.5c0-1.4-3.1-4.5-9.3-9.2l-5.1,6.2H65.3l0.3-1.3c1.4-8.3,2.4-17.1,3-26.3h19.9v7.3h8.6v-36.8l3.4-2.1
		c0.9-0.4,1.4-1,1.4-1.8c0-1.4-3-4.5-8.9-9.2l-5.7,7.2H54.2l1.3,3.7h33v27.9H70c-0.8-0.4-9.4-4.3-9.4-4.3
		c-0.9,17.5-3.1,33.9-6.4,49.1l8.1,1.8c0.4-1.8,0.9-4.4,1.6-7.9c0.3-1.6,0.6-2.8,0.7-3.7h23.3c-0.4,17.1-1.7,30.2-3.7,39.5
		c-1.1,5-4.2,7.5-9.3,7.5c-5.6,0-11.4-0.6-17.6-1.8v4.2c5.9,1.2,10,2.4,12.3,3.4c3,1.5,4.5,3.7,4.5,6.4c7.2,0,12.3-2.2,15.3-6.7
		c4.3-6.6,6.7-23.1,7.1-49.5l3.3-2C100.7,45.8,101.1,45.2,101.1,44.5z"/>
	<path d="M158.5,64.1L156,67c6.1,6,10.9,11.8,14.5,17.6c-16.8,1.8-31.5,3-44.1,3.6c16.2-16.9,29.9-33.7,41.1-50.4
		c0.8,0.1,1.9,0.1,3.1,0.1c2.5,0,3.7-0.7,3.7-2c0-2.1-3.9-5.4-11.8-9.7c-13.6,24-27,43.9-40.4,59.8c-0.1,0.1-0.8,0.9-2,2.4l-10,0.4
		c-3.7,0.1-7.2,0.3-10.5,0.4c1.3,9.4,3.1,14.1,5.5,14.1c1.3,0,2.4-2,3.4-5.9c24.7-2.4,45.6-5.4,62.8-9c0.3-0.1,0.7-0.1,1.3-0.1
		c2.1,4,3.5,7.3,4.3,9.9c1.2,3.6,3,5.4,5.3,5.4c3.5,0,5.3-2,5.3-5.9c0-3.7-2.1-8.3-6.4-13.9C176.3,77.4,168.8,70.8,158.5,64.1z"/>
</g>
</svg>
