<?xml version="1.0" encoding="utf-8"?>
<!-- Generator: Adobe Illustrator 19.0.0, SVG Export Plug-In . SVG Version: 6.00 Build 0)  -->
<svg version="1.1" id="圖層_1" xmlns="http://www.w3.org/2000/svg" xmlns:xlink="http://www.w3.org/1999/xlink" x="0px" y="0px"
	 viewBox="45 -33.8 150 150" style="enable-background:new 45 -33.8 150 150;" xml:space="preserve">
<style type="text/css">
	.st0{enable-background:new    ;}
	.st1{fill:#DC6200;}
</style>
<g class="st0">
	<path class="st1" d="M89.9,35.5c1.6,3.7,3.6,5.6,6,5.6c3.6,0,5.4-2.1,5.4-6.4c0-3.4-2.1-6.9-6.3-10.6c-5.4-4.8-12.9-8.8-22.4-12
		l-1.8,3.1C79.8,21,86.1,27.8,89.9,35.5z"/>
	<path class="st1" d="M106.1-0.9c1.6,3.7,3.6,5.6,6,5.6c3.6,0,5.4-2.1,5.4-6.3c0-3.3-2.1-6.9-6.2-10.6c-5.2-4.9-12.6-8.8-22.1-11.9
		l-1.8,3C96.7-15,102.9-8.3,106.1-0.9z"/>
	<path d="M170,39.6l-6.3,12.3l-19.2,3.3v-71.7c4.6-1.6,6.9-3.1,6.9-4.6c0-2.5-5.4-4-16.2-4.4v82.4L58.4,70.3l1.8,3.7l75.4-13v44.1
		h9.3V59.3l35.4-6.2l1.2-3.1C178.5,46.7,174.7,43.2,170,39.6z"/>
</g>
</svg>
