<?xml version="1.0" encoding="utf-8"?>
<!-- Generator: Adobe Illustrator 19.0.0, SVG Export Plug-In . SVG Version: 6.00 Build 0)  -->
<svg version="1.1" id="圖層_1" xmlns="http://www.w3.org/2000/svg" xmlns:xlink="http://www.w3.org/1999/xlink" x="0px" y="0px"
	 viewBox="45 -33.8 150 150" style="enable-background:new 45 -33.8 150 150;" xml:space="preserve">
<style type="text/css">
	.st0{enable-background:new    ;}
	.st1{fill:#DC6200;}
</style>
<g class="st0">
	<path d="M91.9,72.4c3.3,0,5-1.7,5-5c0-5.9-5.2-11.6-15.7-17.2l-2,2.4c4.5,4.8,7.3,9.5,8.3,14.2C88.2,70.6,89.7,72.4,91.9,72.4z"/>
	<path d="M129.3,46.9l1.6-2.9c-2.3-2.8-4.8-5.1-7.3-6.9l-5.9,6h-2.8l-0.1,3.7H129.3z"/>
	<polygon points="72.6,46.9 107,46.9 107.2,43.2 73,43.2 	"/>
	<path class="st1" d="M123.3,67.3l-5.6,8.7h-4.2c0.8-12,1.2-21.7,1.2-29.1h0.1l0.1-3.7h0l0.1-13.3c0.1-3.1,0.1-7,0.1-11.7l3.4-2.4
		c0.7-0.4,1.1-0.9,1.1-1.6c0-1.6-2.7-4.5-8.1-8.7l-5.4,6.6h-30c-2.2-1.4-5.2-2.8-9-4.3c-0.4,11.5-1.2,22.5-2.3,32.8l-0.1,2.7h-0.1
		l-0.3,3.7h0.1c-1.8,16.5-3.7,30.1-5.7,40.6l8.1,1.9c0.8-4.3,1.4-7.5,1.8-9.7h36.5c-0.5,5.1-0.9,8.1-1.2,9c-0.7,2.8-2.8,4.2-6.1,4.2
		c-3.4,0-8.1-0.5-14.1-1.5v4c6.3,1.4,10.2,2.5,11.9,3.3c1.7,1.1,2.6,2.7,2.6,4.7c4.7-0.5,7.9-1.5,9.7-3c2.5-2.1,4.3-9,5.3-20.7h15.2
		l1.7-2.9C128.1,73.5,125.8,70.3,123.3,67.3z M107.3,43.2L107.3,43.2l-0.3,3.7h0.1c-0.3,11.6-0.8,21.3-1.5,29.1H69.1
		c1.4-10.1,2.5-19.8,3.4-29.1h0l0.4-3.7h-0.1c0.7-6.6,1.3-14.8,1.8-24.5c0.1-0.8,0.1-1.8,0.1-3h32.6C107.4,27.8,107.4,37,107.3,43.2
		z"/>
	<polygon points="51.2,43.2 52.5,46.9 64.4,46.9 64.6,43.2 	"/>
	<path d="M73.6-5.4h51.8l1.8-2.9c-3-3.8-6.1-7.2-9.4-10.3l-6.9,9.4H75.5c1.1-2.8,2.7-6.7,4.6-11.9c4-1,6-2.1,6-3.1
		c0-2-4.4-3.9-13.3-5.7C68.4-9.7,61.2,7.2,51.2,20.8l2.7,2.4C61.5,15.6,68.1,6,73.6-5.4z"/>
	<path d="M158.7,64.7c8-15.5,13.2-33.8,15.7-54.9c0.2-1.7,0.4-3,0.5-4h12.9l1.5-2.7c-2.3-3.3-5.4-6.8-9.3-10.3L173.5,2h-32.8
		c2.6-8,4.7-15.6,6.4-22.9c3.5-1.4,5.2-2.6,5.2-3.8c0-2-4.6-3.5-13.9-4.8c-2.2,24.2-8.2,45.2-17.7,63l3.3,2.1
		c4.3-6.2,8.1-12.8,11.1-19.8c2.2,15.8,7.2,31.8,15,48.2c-9.3,16.4-21.1,29-35.3,37.8l2.4,3.3c16-8.3,28.5-19.3,37.4-33.2
		c8.1,12.3,17.3,22.7,27.8,31.1c1.9-3.3,4.3-6,7.5-8.3C176.5,85.9,166.1,76,158.7,64.7z M153.9,56.7c-6.8-13.3-12-29.5-15.6-48.4
		c0.2-0.6,0.3-1,0.4-1.2l0.6-1.3h26.9l-0.3,1.6C163.8,26.7,159.8,43.1,153.9,56.7z"/>
	<path d="M88.7,35.2c0.8,2.9,2.2,4.3,4.3,4.3c3.3,0,5-1.7,5-5c0-5.3-5.3-10.7-15.9-16l-2,2.7C84.7,25.4,87.6,30.1,88.7,35.2z"/>
</g>
</svg>
