<?xml version="1.0" encoding="utf-8"?>
<!-- Generator: Adobe Illustrator 19.0.0, SVG Export Plug-In . SVG Version: 6.00 Build 0)  -->
<svg version="1.1" id="圖層_1" xmlns="http://www.w3.org/2000/svg" xmlns:xlink="http://www.w3.org/1999/xlink" x="0px" y="0px"
	 viewBox="45 -33.8 150 150" style="enable-background:new 45 -33.8 150 150;" xml:space="preserve">
<style type="text/css">
	.st0{enable-background:new    ;}
	.st1{fill:#DC6200;}
	.st2{fill:#D3228C;}
</style>
<g class="st0">
	<path d="M167.3-21.6l-5.6,6.6H94.4c0.9-1.2,2.2-3.4,4-6.4c4.7-0.4,7.1-1.3,7.1-2.7c0-2-4.5-3.9-13.5-5.9C84-12,72,3.1,55.8,15.3
		l2.3,2.9c7.3-4.3,14.4-9.6,21.2-15.7v0.2l6.8-7c0,0-0.1,0-0.1,0c1-1.1,3-3.4,5.8-6.9h71.5c-0.1,16-1,27.5-2.6,34.5
		c-0.9,4.2-3.7,6.3-8.4,6.3c-5.2,0-11.1-0.3-17.7-1v3.9c6.9,0.8,11.5,1.6,13.5,2.4c2.7,1,4.2,2.9,4.3,5.7c7.5,0,12.3-2.3,14.6-7
		c2.7-5.7,4.2-19.7,4.5-42.1l3.7-2.3c0.8-0.5,1.2-1,1.2-1.6C176.3-13.8,173.3-16.8,167.3-21.6z"/>
	<path class="st1" d="M94.2,35.9c9.5-4.7,15.7-10.4,18.6-17.2h21.6v3.9h8.1V3c3.3-1.4,5-2.6,5-3.7c0-2.1-4.4-3.2-13.1-3.4v19.3
		h-20.4c0.5-2.1,0.7-4,0.7-5.6V-1.3c3.4-1.3,5.1-2.6,5.1-3.7c0-1.8-4.4-2.9-13.3-3.1V9.4c0,1.9-0.3,3.8-0.9,5.7H87.2V1.7
		c3.4-1.2,5.1-2.3,5.1-3.4c0-1.4-2.1-2.3-6.3-2.7l-6.8,7v21.2h8v-5.1h16.9c-6,10.5-19.9,17.7-41.8,21.6l1.6,3.4
		c9.4-1.2,17.7-3.1,25.1-5.7c0,0-0.1,0.1-0.1,0.1L94.2,35.9C94.3,36,94.3,35.9,94.2,35.9z"/>
	<path class="st2" d="M76.1,87.3h8.1v-4.8h19.3c-6.2,10.8-20.3,18-42.3,21.8l1.8,3.4c26.8-2.2,43.2-10.6,49.4-25.2h25.2v3.4h8.1
		V66.1c3.3-1.4,5-2.5,5-3.4c0-1.8-4.4-2.9-13.1-3.3v19.3h-23.8c0.6-2.5,0.9-5,0.9-7.5V61c3.6-1.3,5.4-2.6,5.4-3.7
		c0-1.8-4.5-2.9-13.5-3.1v17.3c0,2.1-0.4,4.6-1.2,7.3H84.2V66c3.4-1.2,5.1-2.2,5.1-3.1c0-1.3-2.4-2.3-7.3-2.8l-6,5.2V87.3z"/>
	<path d="M172.4,40.5l-5.6,6.4H93.5c0.2-0.4,0.6-1,1.2-1.8c0.8-1.2,1.3-2,1.5-2.3c4.5-0.3,6.7-1,6.7-2.1c0-1.3-2.9-2.9-8.6-4.7
		l-5.4,2.2c-8.2,14.7-20.2,27.1-35.8,37.2l2.2,3c6.9-3.4,13.8-7.8,20.7-13.3v0.1l6-5.2c0,0-0.1,0-0.1,0c2.5-2.2,5.4-5.3,8.7-9.3
		h77.1c-0.1,16.6-0.9,28.2-2.3,34.8c-1.2,5.4-4.4,8.1-9.6,8.1c-6.3,0-13.6-0.5-22-1.5v3.9c8,1,13.4,2,16.2,3c3.1,1.2,4.7,3.2,4.8,6
		c7.5-0.1,12.7-2.3,15.5-6.6c3.8-5.5,5.7-20.7,5.9-45.6l3.4-2.3c0.9-0.6,1.3-1.1,1.3-1.6C180.9,47.6,178.1,44.8,172.4,40.5z"/>
</g>
</svg>
