<?xml version="1.0" encoding="utf-8"?>
<!-- Generator: Adobe Illustrator 19.0.0, SVG Export Plug-In . SVG Version: 6.00 Build 0)  -->
<svg version="1.1" id="圖層_1" xmlns="http://www.w3.org/2000/svg" xmlns:xlink="http://www.w3.org/1999/xlink" x="0px" y="0px"
	 viewBox="45 -33.8 150 150" style="enable-background:new 45 -33.8 150 150;" xml:space="preserve">
<style type="text/css">
	.st0{enable-background:new    ;}
	.st1{fill:#DC6200;}
</style>
<g class="st0">
	<path class="st1" d="M85.8,54.8C83.3,68.1,77.6,78,68.7,84.4c-1.9,1.3-2.9,2.8-2.9,4.5c0,3.3,1.8,5,5.3,5c2.8,0,5.7-1.9,8.6-5.6
		c6-7.7,9.3-18.5,10-32.4L85.8,54.8z"/>
	<path class="st1" d="M107.8,35.1v53.2c0,3.3-1.7,5-5,5c-4.7,0-10.4-0.4-16.9-1.2v4.1c5.2,0.9,8.8,1.7,11,2.5c3,1.2,4.6,3.4,4.8,6.4
		c9.9,0.1,14.9-4.2,14.9-12.9V42.8c4.3-1.3,6.4-2.6,6.4-3.9C123,36.8,117.9,35.5,107.8,35.1z"/>
	<path d="M136.8,16.5l-0.4-0.6h46.8l1.6-3c-3.3-3.8-7-7.4-11.1-11.1l-7.8,10.3h-52.8c2.8-5.8,5.6-13.3,8.2-22.4h49.4l1.5-2.7
		c-3.4-4-7-7.5-10.6-10.6l-7.7,9.6H67.1l1.8,3.7h42.3c-2.1,8.1-4.8,15.6-8.1,22.4H55.7l1.6,3.7h43.9c-9.8,18.8-25.8,34.1-48,45.6
		l2.3,3.3c26-10.4,44.6-26.7,55.7-48.9h19.9c11.8,19.5,28.5,34.4,50.1,44.7c1.8-3.4,4.1-6.4,7-9C166.6,44.1,149.4,32.4,136.8,16.5z"
		/>
	<path class="st1" d="M149.4,51.2l-2.6,2.4c10.4,10.8,17.3,21.5,20.7,32.2c1.3,3.9,3,5.9,5.1,5.9c3.4,0,5.1-2.1,5.1-6.3
		C177.8,76.2,168.3,64.8,149.4,51.2z"/>
	<path class="st1" d="M128,53.8l-2.9,2.4c6.9,10.4,11.3,20.9,13.2,31.8c0.7,4.5,2.4,6.7,5.1,6.7c3.4,0,5.1-2.2,5.1-6.7
		C148.5,78.4,141.7,67,128,53.8z"/>
</g>
</svg>
