<?xml version="1.0" encoding="utf-8"?>
<!-- Generator: Adobe Illustrator 19.0.0, SVG Export Plug-In . SVG Version: 6.00 Build 0)  -->
<svg version="1.1" id="圖層_1" xmlns="http://www.w3.org/2000/svg" xmlns:xlink="http://www.w3.org/1999/xlink" x="0px" y="0px"
	 viewBox="45 -33.8 150 150" style="enable-background:new 45 -33.8 150 150;" xml:space="preserve">
<style type="text/css">
	.st0{enable-background:new    ;}
	.st1{fill:#DC6200;}
</style>
<g class="st0">
	<polygon points="52.4,29.9 53.6,33.7 73.8,33.7 74.3,29.9 	"/>
	<path d="M80.8,103l2.3,3.1c11.8-7,20.8-16.3,27.1-27.9h-8.4C96.6,88,89.6,96.2,80.8,103z"/>
	<path class="st1" d="M176.2,63.3l-7.1,11.3h-11.6c1.2-18.8,1.9-29.2,1.9-31.3c0.1-2.1,0.3-5.3,0.4-9.6h0.1l0.1-3.7h-0.1l0.4-5.7
		c0.2-5.7,0.4-16.3,0.6-31.8l3.9-2.6c0.8-0.5,1.2-1.1,1.2-1.8c0-1.4-3.1-4.8-9.4-10l-6.2,7.3h-61c-3.9-2.3-7.3-4.1-10-5.4
		c-1.2,16.5-2.9,33.2-5,50h-0.1l-0.5,3.7H74c-2,15.8-4.8,33.6-8.6,53.6l9,1.2c0.9-4.8,1.4-7.5,1.5-8.1l0.3-2.1h25.6c0,0,0,0,0,0h8.4
		c0,0,0,0,0,0h37.6c-0.5,4.2-0.9,6.8-1.1,7.8c-0.9,3.5-3.5,5.3-7.6,5.3c-5.6,0-13-0.6-22.2-1.8v4c7.7,1.3,13,2.5,16,3.7
		c3.1,1.3,4.8,3.4,5.1,6.3c2.6-0.1,5-0.6,7.3-1.3c3.4-1.2,6-3,7.6-5.4c2-2.5,3.3-7.9,4-16c0-0.9,0.1-1.8,0.2-2.6h26.2l1.8-3
		C181.8,70.4,178.9,66.4,176.2,63.3z M151,29.9L151,29.9l-0.4,3.7h0.1l-0.6,13.8c-0.4,10.6-1,19-1.8,25.2c-0.1,0.4-0.1,1.1-0.1,1.8
		h-36.1c0,0,0,0,0-0.1h-8.4c0,0,0,0,0,0.1H77c2.5-15.6,4.4-29.2,5.7-40.9h0.1l0.4-3.7h-0.1c1.8-16.2,3.2-29.8,4.3-40.8h29.4l0,0h8.7
		l0,0H152C151.9,5.7,151.5,19.3,151,29.9z"/>
	<path d="M123.2,21.7c0.5-6.6,0.8-11,1-13.1c0.4-5,0.7-9.1,0.9-12.3l0.4-7.2h-8.7l-0.1,3.6c-0.3,8.4-1,18.3-2,29.7l-0.6,7.5H83.2
		l-0.4,3.7h30.9c-1,10.6-2.7,20-5.1,28.1c-1.4,4.5-3,8.7-4.9,12.7h8.4c0.3-0.7,0.6-1.4,0.9-2.1c4.7-10.5,7.9-23.5,9.4-38.7h28.1
		l0.3-3.7h-28.3C122.7,28.2,122.9,25.4,123.2,21.7z"/>
	<path d="M188,30.7c-3.3-4.9-6.4-8.8-9.2-11.6l-7,10.8H160l-0.1,3.7h26.4L188,30.7z"/>
</g>
</svg>
