<?xml version="1.0" encoding="utf-8"?>
<!-- Generator: Adobe Illustrator 19.0.0, SVG Export Plug-In . SVG Version: 6.00 Build 0)  -->
<svg version="1.1" id="圖層_1" xmlns="http://www.w3.org/2000/svg" xmlns:xlink="http://www.w3.org/1999/xlink" x="0px" y="0px"
	 viewBox="45 -33.8 150 150" style="enable-background:new 45 -33.8 150 150;" xml:space="preserve">
<style type="text/css">
	.st0{enable-background:new    ;}
	.st1{fill:#DC6200;}
</style>
<g class="st0">
	<path d="M99,58.3l-2.3,2.3c4.4,6.1,6.7,12.1,6.9,18c0.1,3.7,1.5,5.6,4,5.6c3.4,0,5.1-2,5.1-6C112.6,71.3,108.1,64.7,99,58.3z"/>
	<path d="M136.5,55.6V31l3.4-2.4c0.6-0.4,0.9-0.9,0.9-1.3c0-1.2-2.7-4-8.2-8.3l-4.9,5.9h-21.2c-3.5-1.9-6.4-3.3-8.9-4.2v35.7h8.3
		v-5.7h22.8v5H136.5z M105.9,46.9V28.6h22.8v18.3H105.9z"/>
	<path class="st1" d="M113.3-6.5v17.1h-19l1.5,3.7H142l1.5-2.7c-2.5-3.1-4.9-5.8-7.2-8.1c-0.2-0.1-0.6-0.5-1.2-1.1l-5.9,8.1h-7.6
		V-6.5h24.9l1.5-3c-3.1-3.9-6-6.9-8.6-9l-6.3,8.3h-11.4v-11.6c3.9-1.3,5.9-2.7,5.9-4c0-2.1-4.7-3.3-14.1-3.7v19.3H90.6l1.3,3.7
		H113.3z"/>
	<path d="M146.4,75.7c-5.6,1.9-13,4.1-22.2,6.6c3.8-6.1,6.7-11.5,8.6-16.3c3.6-0.4,5.4-1.3,5.4-2.6c0-2-4.2-4.1-12.5-6.3
		c-1.3,8.7-3.5,17.5-6.6,26.4c-9.2,2.3-19.7,4.4-31.6,6.4c3,8.5,5.5,12.7,7.4,12.7c1,0,1.8-2,2.3-5.9c17.1-4.5,33.8-10.3,50.1-17.4
		L146.4,75.7z"/>
	<path d="M154.6,64.9c3.5,0,5.3-2.7,5.3-8.1c0-9.9-4.2-20.9-12.6-33l-3,1.4c4.3,10.7,6.4,21.5,6.4,32.4
		C150.8,62.5,152.1,64.9,154.6,64.9z"/>
	<path d="M93.1,46.7c0-6.7-5.4-14.2-16.3-22.5l-0.7-0.6v-16h17.1L94.8,5c-1.5-2.5-3.8-5.2-6.7-8.2l-1.2-1.4l-6,8.4h-4.8v-25
		c4.4-1.4,6.6-2.7,6.6-4c0-2.4-4.9-3.8-14.7-4.1V3.9H50.9L52,7.6h15.7l-0.3,1.6C64,33.5,57.7,54.9,48.6,73.3l3.4,2.3
		c6.5-11.1,11.8-23.7,15.9-37.8v67.5h8.1V29.1c4.3,6.4,7.2,12.9,8.6,19.5c0.4,2.5,1.6,3.7,3.4,3.7C91.4,52.3,93.1,50.4,93.1,46.7z"
		/>
	<path d="M183.6,0.4l-5.3,10h-4.2v-29.1c3.9-1.5,5.9-2.9,5.9-4.2c0-2.3-4.8-3.7-14.3-4.2v37.5h-20.6l1.8,3.7h19.2v73.5
		c0,1.8-0.3,3.1-1,3.7c-0.8,0.6-2.6,0.9-5.6,0.9c-4.7,0-9.8-0.3-15.3-0.9v3.9c5.9,0.7,10.1,1.6,12.5,2.6c3.1,1.3,4.7,3.4,4.8,6.2
		c1.2,0,2.9-0.2,5.1-0.7c5.3-1.5,8-4.9,8-10.2v-79H189l1.3-3.1C188.6,7.6,186.3,4.1,183.6,0.4z"/>
</g>
</svg>
