<?xml version="1.0" encoding="utf-8"?>
<!-- Generator: Adobe Illustrator 19.0.0, SVG Export Plug-In . SVG Version: 6.00 Build 0)  -->
<svg version="1.1" id="圖層_1" xmlns="http://www.w3.org/2000/svg" xmlns:xlink="http://www.w3.org/1999/xlink" x="0px" y="0px"
	 viewBox="45 -33.8 150 150" style="enable-background:new 45 -33.8 150 150;" xml:space="preserve">
<style type="text/css">
	.st0{enable-background:new    ;}
	.st1{fill:#DC6200;}
</style>
<g class="st0">
	<path class="st1" d="M178.7,84.6c-6.6-6-13.5-10.4-20.6-13.5l-1.8,2.6c9.9,8.4,16,16.7,18.2,25c0.7,2.5,2.3,3.7,4.6,3.7
		c3.9,0,5.9-2.1,5.9-6.3C185,92.2,182.9,88.3,178.7,84.6z"/>
	<path class="st1" d="M127.2,70.9l-2.4,2.4c6.3,7.6,9.9,15.2,10.8,22.6c0.6,4.2,2.2,6.3,4.8,6.3c3.9,0,5.9-2.1,5.9-6.3
		C146.2,88.1,139.9,79.7,127.2,70.9z"/>
	<path d="M133.2-16.1c-0.9,18.8-10.8,32.7-29.8,41.8l1.6,3.1c13-4.9,22.3-11,28.1-18.5c5.2-6.6,8.2-15.5,9.2-26.5h27.2
		c-0.1,9.3-1,16.5-2.4,21.6c-0.7,3.1-3.1,4.6-7,4.6c-5.5,0-11.3-0.4-17.3-1.3v3.9c5.2,0.9,9,1.7,11.4,2.6c3.3,1.2,5.1,3.4,5.2,6.4
		c5.3,0,9.5-1.7,12.5-5c3.9-4.4,5.9-14.5,6-30.2l3.7-2.3c0.9-0.6,1.3-1.2,1.3-1.8c0-1.4-3-4.4-9-8.9l-5.6,6.6h-59.7l1.7,3.7H133.2z"
		/>
	<path d="M71.9,56.2h20.8v9h8.1V-12l3.3-2.4c0.9-0.7,1.3-1.4,1.3-2.1c0-1.4-2.8-4.2-8.3-8.6l-5.4,7H73.5c-3.8-2-7.1-3.6-10-4.8v92
		h8.4V56.2z M71.9-14.5h20.8V16H71.9V-14.5z M71.9,19.8h20.8v32.7H71.9V19.8z"/>
	<path class="st1" d="M96.4,73.9c2.8,6.9,4.2,13.8,4.2,20.7c0,1.4,0,2.5-0.1,3.3v1c0,3.1,1.4,4.7,4.3,4.7c4.2,0,6.3-2.4,6.3-7.3
		c0-6.5-3.9-14.5-11.6-23.9L96.4,73.9z"/>
	<path d="M125.3,61.4h42.6v7h8.7V34.8l3.3-2.1c0.8-0.5,1.2-1,1.2-1.6c0-1.3-3-4.1-9-8.4l-5.1,5.6h-40.4c-4.4-1.8-7.6-3-9.6-3.4v43.7
		h8.3V61.4z M125.3,31.9h42.6v25.8h-42.6V31.9z"/>
	<path class="st1" d="M59.7,94.6c-3.3,1.5-5,3.2-5,5.2c0,3.5,1.9,5.3,5.6,5.3c4.1,0,7.9-2.4,11.4-7.2c4.5-6.2,7.1-14.1,7.8-23.9
		l-3.4-1.2C72.9,83.9,67.5,91.1,59.7,94.6z"/>
</g>
</svg>
