<?xml version="1.0" encoding="utf-8"?>
<!-- Generator: Adobe Illustrator 19.0.0, SVG Export Plug-In . SVG Version: 6.00 Build 0)  -->
<svg version="1.1" id="圖層_1" xmlns="http://www.w3.org/2000/svg" xmlns:xlink="http://www.w3.org/1999/xlink" x="0px" y="0px"
	 viewBox="45 -33.8 150 150" style="enable-background:new 45 -33.8 150 150;" xml:space="preserve">
<style type="text/css">
	.st0{enable-background:new    ;}
	.st1{fill:#DC6200;}
</style>
<g class="st0">
	<path d="M121.8-7.1h62.5l1.5-3c-3.5-4.1-7.1-7.7-10.8-10.9l-8.1,10.2h-45.1v-9.9c4.3-1.7,6.4-3.1,6.4-4.4c0-2.3-5.1-3.6-15.3-3.7
		v18H55.2l1,3.7H113V7.7h8.9V-7.1z"/>
	<path d="M113,41.4c0,1.3-0.1,3.5-0.3,6.9h8.9c0.2-3.3,0.3-5.6,0.3-6.9v-8.5H113V41.4z"/>
	<path d="M153,82.3c-12.7-6.5-22.7-16.5-30-30.2h-10.9c-3.9,24.2-23.3,40.5-58.1,48.9l2,3.9c16.7-2.8,30-7.3,39.8-13.3
		c13-8.1,21.2-19.8,24.5-35.2c9.8,23,29.8,38.3,60.1,46.1c2-3.5,4.5-6.6,7.5-9.3C173.4,90.5,161.8,86.9,153,82.3z"/>
	<path class="st1" d="M123,52.1h46.1c-0.1,4.4-0.9,8.3-2.1,11.4c-1,2.5-3.1,3.7-6.3,3.7c-3.4,0-8.2-0.5-14.4-1.4V70
		c4.9,1,8.2,1.9,9.8,2.7c2.1,1,3.3,2.8,3.5,5.3c5.6,0.1,9.7-1.4,12.3-4.6c2.9-3.5,4.6-9.8,5.2-18.9l4-2.1c0.8-0.5,1.2-1,1.2-1.5
		c0-1.5-3.1-4.4-9.2-8.9l-5.3,6.3h-46.3c0-0.1,0-0.1,0-0.2h-8.9c0,0.1,0,0.1,0,0.2H76.5c1.3-5,2.5-10.2,3.6-15.6H113v0h8.9v0h35.8
		v6.3h8.6V14.5l3.7-2.6c0.7-0.4,1.1-0.9,1.1-1.6c0-1.4-3.1-4.4-9.2-9l-5.6,6.4h-34.4V7.7H113v0.1H64.2l1.7,3.7H113v0h8.9v0h35.8
		v17.6h-35.8v-0.2H113v0.2H82.2c-2.8-1.6-6-3.3-9.6-5.1c-2.1,13-5.2,25.3-9.4,36.9l8.6,3c0.4-1.3,1.7-5.2,3.7-11.7h36.6c0,0,0,0,0,0
		L123,52.1C123,52.1,123,52.1,123,52.1z"/>
	<rect x="113" y="11.5" width="8.9" height="17.4"/>
</g>
</svg>
