<?xml version="1.0" encoding="utf-8"?>
<!-- Generator: Adobe Illustrator 19.0.0, SVG Export Plug-In . SVG Version: 6.00 Build 0)  -->
<svg version="1.1" id="圖層_1" xmlns="http://www.w3.org/2000/svg" xmlns:xlink="http://www.w3.org/1999/xlink" x="0px" y="0px"
	 viewBox="45 -33.8 150 150" style="enable-background:new 45 -33.8 150 150;" xml:space="preserve">
<style type="text/css">
	.st0{enable-background:new    ;}
	.st1{fill:#DC6200;}
</style>
<g class="st0">
	<path d="M118.9,71.5c3-6.5,4.9-14.7,5.7-24.6h-9.1c-0.5,7.8-1.8,14.3-3.9,19.5c-8.7-6.6-16.1-13.5-22-20.6l-3.7,2.4
		c6.6,9.3,14.1,17.3,22.5,24c-10.8,14.8-29.3,24.4-55.7,28.8l1.5,3.9c29.3-2.7,49.7-11.7,61.2-27.1c15.8,11.1,37.8,19.3,66.1,24.8
		c1.7-3.9,4.1-7.1,7.4-9.8C160.1,89.7,136.8,82.6,118.9,71.5z"/>
	<path class="st1" d="M124.9,40h37.5v8.9h8.7V7.6l4.2-2.7c0.8-0.5,1.2-1.1,1.2-1.8c0-1.4-3.3-4.7-10-9.7l-5.5,6.9h-36.2v-19.8
		c4.5-1.7,6.7-3.1,6.7-4.2c0-2.1-5.3-3.3-15.9-3.7V0.3H79.2c-3.1-1.5-6.8-3-11.1-4.6v54.9h8.7V40h39c0,2.4-0.1,4.7-0.3,6.9h9.1
		C124.7,44.7,124.9,42.4,124.9,40z M124.9,4h37.5v32.2h-37.5V4z M115.8,36.2h-39V4h39V36.2z"/>
</g>
</svg>
