<?xml version="1.0" encoding="utf-8"?>
<!-- Generator: Adobe Illustrator 19.0.0, SVG Export Plug-In . SVG Version: 6.00 Build 0)  -->
<svg version="1.1" id="圖層_1" xmlns="http://www.w3.org/2000/svg" xmlns:xlink="http://www.w3.org/1999/xlink" x="0px" y="0px"
	 viewBox="45 -33.8 150 150" style="enable-background:new 45 -33.8 150 150;" xml:space="preserve">
<style type="text/css">
	.st0{enable-background:new    ;}
	.st1{fill:#DC6200;}
</style>
<g class="st0">
	<path d="M137.1,64.4V28.3l3.3-2.1c0.7-0.4,1-0.9,1-1.5c0-1.3-2.8-4-8.4-8.1l-5,6h-17.7c-2.7-1.6-5.9-3.1-9.6-4.6v48.4h8.1V56.1H129
		v8.3H137.1z M108.9,52.3v-26H129v26H108.9z"/>
	<path class="st1" d="M98.9-10.1v24.3h8.3V7.9h24.7v5.7h8.3v-23.7h44.4l1.6-3c-2.7-3.6-6.2-7.2-10.3-10.9l-7.5,10.2h-28.2v-8.6
		c3.8-1.4,5.7-2.6,5.7-3.7c0-2.1-4.7-3.3-14-3.4v15.7h-24.7V-22c4.4-1.5,6.6-2.9,6.6-4c0-2.1-5-3.3-14.9-3.4v15.6H54.5l1.5,3.7H98.9
		z M107.2-10.1h24.7V4.2h-24.7V-10.1z"/>
	<path d="M58.7,95.4c-2.5,1-3.7,2.5-3.7,4.5c0,3.9,1.8,5.9,5.3,5.9c3,0,6.1-1.6,9.3-4.8c6.4-6.4,9.7-15.3,9.9-26.7L75.9,73
		C72.9,84.5,67.2,91.9,58.7,95.4z"/>
	<path d="M157.4,71.4l-1.8,2.9c10,7.5,16.4,15.4,19.2,23.5c1,2.8,2.7,4.2,5.1,4.2c3.7,0,5.6-2,5.6-5.9
		C185.4,87.2,176.1,79,157.4,71.4z"/>
	<path d="M80,13.6v15.5H53.9l1.8,3.7H80v18.7c-8.9,4.2-18,7.4-27.3,9.9c2.7,7.8,5,11.7,7,11.7c1.3,0,2.1-2.1,2.4-6.2
		c6.3-3.2,12.3-6.8,17.9-10.8v12.4h8.4V20.8c3.6-1.3,5.4-2.6,5.4-3.7C93.9,14.9,89.2,13.8,80,13.6z"/>
	<path d="M183.6,55c-0.8-2.5-1.2-7.2-1.2-14.1l-3.7-1.2c-0.5,7.5-1.2,12.6-2.3,15.5c-1,2.8-4,4.2-9,4.2c-4.2,0-7.1-0.1-8.4-0.4
		c-1.3-0.3-1.9-1.6-1.9-4V39.2c9.2-4.4,16.3-8.8,21.1-13.2c1.5,0.4,2.9,0.6,4.1,0.6c1.6,0,2.4-0.4,2.4-1.3c0-1.9-3.1-5-9.3-9.3
		c-5.1,6.8-11.2,12.9-18.3,18.5v-13c4-1.3,6-2.6,6-3.9c0-2.1-4.8-3.4-14.4-3.9v43c0,3.9,0.9,6.4,2.7,7.8c2.1,1.5,7.9,2.3,17.4,2.3
		c8.1,0,13.2-0.5,15.5-1.5c2.5-1,3.8-3.5,4-7.4C185.8,57.8,184.3,56.9,183.6,55z"/>
	<path d="M127.3,70.6l-2.6,2.1c6.5,8.1,10.2,15.7,10.9,23.1c0.4,4.3,2,6.4,4.5,6.4c4,0,6-2.2,6-6.6
		C146.1,88.1,139.8,79.8,127.3,70.6z"/>
	<path d="M96.5,72.7c3,7.2,4.5,14.1,4.5,20.7c0,1-0.1,1.6-0.2,1.9c-0.1,1-0.1,1.9-0.1,2.7c0,3,1.4,4.5,4.2,4.5
		c4.1,0,6.2-2.4,6.2-7.3c0-6.9-3.8-14.9-11.4-24.2L96.5,72.7z"/>
</g>
</svg>
