<?xml version="1.0" encoding="utf-8"?>
<!-- Generator: Adobe Illustrator 19.0.0, SVG Export Plug-In . SVG Version: 6.00 Build 0)  -->
<svg version="1.1" id="圖層_1" xmlns="http://www.w3.org/2000/svg" xmlns:xlink="http://www.w3.org/1999/xlink" x="0px" y="0px"
	 viewBox="45 -33.8 150 150" style="enable-background:new 45 -33.8 150 150;" xml:space="preserve">
<style type="text/css">
	.st0{enable-background:new    ;}
	.st1{fill:#DC6200;}
</style>
<g class="st0">
	<path class="st1" d="M62.7,1c4.7,4.7,7.5,9.4,8.4,14.1c0.4,3.3,1.8,5,4.2,5c3.2,0,4.8-1.8,4.8-5.4c0-5.8-5.2-11.1-15.5-16L62.7,1z"
		/>
	<path class="st1" d="M88.8,21.3c7.8-4.8,15.4-10.2,22.8-16.3c1.8,0.2,2.8,0.3,3,0.3c2.5,0,3.7-0.6,3.7-1.8c0-2-3.1-4.9-9.2-8.6
		C93.9,11.8,75,25,52.6,34.5l2.1,3.1c10.4-3.6,20.6-8.4,30.5-14.3c0,0,0,0.1,0.1,0.1L88.8,21.3C88.8,21.3,88.8,21.3,88.8,21.3z"/>
	<path class="st1" d="M80.8-9.3C85.3-5.1,88-0.7,89,4c0.5,2.4,1.7,3.6,3.7,3.6c3.4,0,5.1-1.8,5.1-5.4c0-4.9-4.4-9.4-13.2-13.5
		c5.8-2.6,11.1-5.3,15.9-8.2c0.9,0.1,2.1,0.1,3.4,0.1c2.8,0,4.2-0.6,4.2-1.8c0-1.8-3.4-4.3-10.3-7.6C85.3-17.9,70.4-9.3,53.2-3
		l2,3.1C63.9-2.6,72.4-5.7,80.8-9.3z"/>
	<path d="M85.3,23.4c1.6,2.5,2.8,4.3,3.6,5.3c-9.6,13.9-21.6,25.3-36,34.4l2.1,3.1c15.2-7.8,27.9-17.8,38.1-30c1.9,3.7,3.3,7,4.3,10
		C85.9,64,71.1,78,53.1,88.2l2.4,3c18.5-8.9,33.4-20.6,44.8-35.1c1,5.2,1.5,10,1.5,14.4c0,14.6-3.6,21.9-10.8,21.9
		c-4.6,0-10.2-0.8-16.8-2.3v3.7c6.3,2,10.4,3.3,12,4c2.7,1.3,4.2,3.5,4.3,6.4c12.9,0.1,19.3-10.1,19.3-30.6c0-18.2-7-35.6-21-52.2
		L85.3,23.4z"/>
	<path d="M164.7,42.1c-2.2-3.2-5.4-6.5-9.4-9.7l-6.9,9h-29.7l1.8,3.7h42.3L164.7,42.1z"/>
	<path d="M176.4-7.3l-5.6,7h-39.6c2-5.1,4-11.8,6.2-20.3c3.9-0.9,5.9-2,5.9-3.3c0-2.1-4.8-4.2-14.4-6.2c-3.9,26.6-11,48.1-21.4,64.5
		l3.4,2.1c7.1-8.8,13.4-19.9,18.9-33.2h42.1c-0.1,37.3-2.1,63.6-5.9,78.9c-1.5,6.2-5.5,9.3-12,9.3c-5.3,0-12-0.8-19.9-2.4v4.4
		c8.3,1.9,13.7,3.4,16.3,4.5c2.7,1.3,4.1,3.3,4.2,5.9c7.1,0.1,12.4-2.6,16-8.1c6.4-9.4,9.7-39.2,9.9-89.4l3.9-2.7
		c0.9-0.6,1.4-1.3,1.4-2.1C185.8,0.3,182.7-2.7,176.4-7.3z"/>
</g>
</svg>
