<?xml version="1.0" encoding="utf-8"?>
<!-- Generator: Adobe Illustrator 19.0.0, SVG Export Plug-In . SVG Version: 6.00 Build 0)  -->
<svg version="1.1" id="圖層_1" xmlns="http://www.w3.org/2000/svg" xmlns:xlink="http://www.w3.org/1999/xlink" x="0px" y="0px"
	 viewBox="45 -33.8 150 150" style="enable-background:new 45 -33.8 150 150;" xml:space="preserve">
<style type="text/css">
	.st0{enable-background:new    ;}
	.st1{fill:#DC6200;}
</style>
<g class="st0">
	<path d="M88.9,60.5H53.3l1.5,3.7h46.4c-2.5,7.6-6.1,15.6-10.8,24c-9.3,0.3-17,0.4-23.2,0.4c2,9.6,4.1,14.4,6.4,14.4
		c1.2,0,2.2-1.9,3-5.6c24.9-1.8,51.3-4.6,79.2-8.4l4.1-0.6c2.4,2.8,4.4,5.7,6,8.6c1.6,2.8,3.3,4.2,5.1,4.2c3.5,0,5.3-1.9,5.3-5.6
		c0-3.2-2.3-6.9-7-11.1c-6.6-6.1-16.3-11.5-29.1-16.4l-1.9,2.9c7.5,4.6,13.6,9.3,18.5,14.1c-0.5,0-1,0-1.2,0.1
		c-18.4,1.5-36.4,2.4-54,2.9l-6,0.1c6.5-7.4,12.5-15.4,18-24h71.7l1.5-2.9l-1.3-1.5c-2.8-3.1-5.9-6-9.2-8.6l-7.8,9.2H98v0L88.9,60.5
		L88.9,60.5z"/>
	<path class="st1" d="M143,14.3H98.9l-3-1.5l-7.1,5.9c0,0,0.1,0,0.1-0.1v41.9H98V48.2h59.3l1.5-2.6c-3.1-3.1-6-5.7-8.7-7.8l-6.4,6.6
		H98V32.9h59.3l1.5-2.6c-3.5-3.6-6.3-6.2-8.5-7.8l-6.3,6.6H98V18.1h56.3l-8.6-6.1L143,14.3z"/>
	<path d="M136.1-4.1h46.2l1.5-2.9l-1.3-1.5c-2.8-3.3-5.9-6.3-9.2-9l-7.5,9.6h-51.8c2.3-3.5,4.9-7.9,7.6-13.2
		c4.9-0.4,7.4-1.3,7.4-2.7c0-2.1-4.8-4.3-14.3-6.6c-4,9.3-7.9,16.8-11.9,22.5H56.7l1.5,3.7h42.2C88.6,11.2,72.5,23.9,52.1,34l2,3.1
		C67.4,32.1,79,26,88.8,18.7l7.1-5.9l0,0c5.7-5.1,10.9-10.7,15.5-16.9h19.3c4.6,6.1,9.7,11.5,15.2,16l0,0l8.6,6.1h0.1
		c7.2,4.6,16.7,8.8,28.5,12.6c1.7-3.5,4-6.4,6.9-8.7C166.3,16.7,148.4,8,136.1-4.1z"/>
</g>
</svg>
