<?xml version="1.0" encoding="utf-8"?>
<!-- Generator: Adobe Illustrator 19.0.0, SVG Export Plug-In . SVG Version: 6.00 Build 0)  -->
<svg version="1.1" id="圖層_1" xmlns="http://www.w3.org/2000/svg" xmlns:xlink="http://www.w3.org/1999/xlink" x="0px" y="0px"
	 viewBox="45 -33.8 150 150" style="enable-background:new 45 -33.8 150 150;" xml:space="preserve">
<style type="text/css">
	.st0{enable-background:new    ;}
	.st1{fill:#DC6200;}
</style>
<g class="st0">
	<path d="M119.9,65.4H94.5c-2.7-1.5-6.1-3-10.2-4.5v44.4h8.6v-8.8h64.7v8.8h8.4V72.1l3-2.3c1-0.7,1.5-1.4,1.5-2.2
		c0-1.1-3-3.9-8.9-8.3l-5.3,6h-27.9v-0.3h-8.6V65.4z M157.6,69.1v23.6H92.9V69.1H157.6z"/>
	<path class="st1" d="M165.2,55V31.5h20.2l1.7-2.9c-2.4-3.3-5.4-6.6-9-9.9l-6.6,9h-6.3V16.2l3.1-2.3c1-0.7,1.5-1.3,1.5-1.9
		c0-1.3-3-4.2-8.9-8.7l-5.4,6.6h-27.1V3.7c4.2-1.4,6.3-2.6,6.3-3.7c0-2.1-5-3.4-14.9-4.2V9.9H83.6l1.6,3.7h34.6v14.1H73.8l-0.1,3.7
		h46.2v15.3H82.6l1.8,3.7h35.4v14.6h8.6V50.5h28.5V55H165.2z M128.4,13.6h28.5v14.1h-28.5V13.6z M128.4,46.8V31.5h28.5v15.3H128.4z"
		/>
	<path d="M174.4-19.4l-7.6,9.7h-42v-12.3c4.1-1.4,6.2-2.6,6.2-3.7c0-2.2-4.9-3.4-14.7-3.6v19.6H74.9c-4-1.8-7.3-3.1-10.2-4.2v39.6
		c0,34.1-5,60-14.9,77.6l3.3,2.2c12.9-16.8,19.8-41.5,20.4-74h0.1l0.1-3.7h-0.1V25V-5.9h109.1l1.8-2.9
		C181.8-12.2,178.4-15.7,174.4-19.4z"/>
</g>
</svg>
