<?xml version="1.0" encoding="utf-8"?>
<!-- Generator: Adobe Illustrator 19.0.0, SVG Export Plug-In . SVG Version: 6.00 Build 0)  -->
<svg version="1.1" id="圖層_1" xmlns="http://www.w3.org/2000/svg" xmlns:xlink="http://www.w3.org/1999/xlink" x="0px" y="0px"
	 viewBox="45 -33.8 150 150" style="enable-background:new 45 -33.8 150 150;" xml:space="preserve">
<style type="text/css">
	.st0{enable-background:new    ;}
	.st1{fill:#DC6200;}
</style>
<g class="st0">
	<path d="M62.9,22.6c0.9,3.6,2.5,5.4,4.9,5.4c3.4,0,5.1-2,5.1-5.9c0-6.7-6.3-12.2-19-16.5L52,8.2C58,12.9,61.6,17.7,62.9,22.6z"/>
	<path d="M156.7,28h-21.1v-9.9c3.7-1.4,5.6-2.6,5.6-3.7c0-2-4.7-3.1-14.1-3.6V28h-17.7c-0.6-0.3-1.6-0.9-3-1.7l-8,7.8v46.4h8.4v-9.3
		H127v17.5c0,4.7,0.9,7.8,2.7,9.4c2.3,2,10.1,3,23.4,3c12.3,0,20.8-0.5,25.6-1.5c5.1-0.9,7.7-3.9,7.8-8.9c-2.5,0-4.2-0.9-5-2.6
		c-0.9-2.1-1.3-7.4-1.3-16l-3.8-1.3c-0.9,9.6-2,15.8-3.4,18.5c-1.5,2.7-8.5,4-21.1,4c-7.6,0-12.3-0.3-14.1-1c-1.5-0.6-2.3-2.3-2.3-5
		V71.2h21.7v5.9h8.6V34.6l2.2-1.2l-9-7.8L156.7,28z M127,67.5h-20.2v-17H127V67.5z M127,46.8h-20.2v-15H127V46.8z M157.3,67.5h-21.7
		v-17h21.7V67.5z M157.3,46.8h-21.7v-15h21.7V46.8z"/>
	<path class="st1" d="M182.6,42.1c1.3-2.7,3.4-5.5,6.4-8.2c-18.8-7.2-33-18.7-42.6-34.6c-0.1-0.4-0.4-0.8-0.7-1.2h38.4l1.6-2.9
		c-3.3-3.7-6.8-7.2-10.5-10.5l-7.6,9.6h-40.5c2-4.1,3.9-9.2,5.9-15.3c4.4-0.9,6.6-2,6.6-3.1c0-2-4.8-3.9-14.4-5.9
		c-2,9.2-4.5,17.3-7.5,24.3H86.2l1.8,3.7h28.1c-8.6,18.2-20.2,32.8-34.9,43.7l2.4,3.1c6-3.8,10.9-7.4,14.7-10.9v0.1l8-7.8
		c0,0,0,0,0,0c7.5-8.4,13.9-17.8,19.2-28.2h15.7c4.6,10.9,10.6,20,17.9,27.3l-0.2,0.2l9,7.8l0.2-0.1
		C171.9,36.1,176.7,39.1,182.6,42.1z"/>
	<path d="M74.1-7.9c0.7,2.2,2.1,3.3,4,3.3c3.6,0,5.4-2,5.4-6c0-6.6-6.8-12-20.4-16l-1.8,2.7C67.9-19.5,72.1-14.2,74.1-7.9z"/>
	<path d="M71.8,76.3c0-1.7,0.7-5,2.1-9.7l0.3-1.2L91.2,4l-4-2c-6.7,23.6-13.4,42.3-19.9,56.1c-1.7,3.6-4.4,5.4-8.3,5.4
		c-1.3,0-3.3-0.2-6.2-0.7v3.9c3.9,1.1,6.7,2.3,8.3,3.7c2.1,2.1,3.1,5.8,3.1,11.1c0,3.1-0.3,7.1-0.9,11.9l-0.8,6.3
		c0,3.4,1.7,5.1,5.1,5.1c4.6,0,6.9-3,6.9-9c0-3.6-0.7-8.6-2.1-14.9C72.1,78.8,71.8,77.2,71.8,76.3z"/>
</g>
</svg>
