<?xml version="1.0" encoding="utf-8"?>
<!-- Generator: Adobe Illustrator 19.0.0, SVG Export Plug-In . SVG Version: 6.00 Build 0)  -->
<svg version="1.1" id="圖層_1" xmlns="http://www.w3.org/2000/svg" xmlns:xlink="http://www.w3.org/1999/xlink" x="0px" y="0px"
	 viewBox="45 -33.8 150 150" style="enable-background:new 45 -33.8 150 150;" xml:space="preserve">
<style type="text/css">
	.st0{enable-background:new    ;}
	.st1{fill:#DC6200;}
</style>
<g class="st0">
	<path class="st1" d="M78.1,20.3h82.3v5.9h8.6v-40.1l3.9-2.4c0.8-0.5,1.2-1,1.2-1.6c0-1.4-3.1-4.5-9.3-9.3l-5.6,6.7H79.4
		c-2.4-1.3-5.4-2.6-8.9-3.9l-1-0.4v51.1h8.6V20.3z M123.1-16.7h37.3v14.3h-37.3V-16.7z M123.1,1.3h37.3v15.3h-37.3V1.3z M78.1-16.7
		h36.5v14.3H78.1V-16.7z M78.1,1.3h36.5v15.3H78.1V1.3z"/>
	<path d="M185.6,42.4l1.5-3c-2.2-2.8-5-5.7-8.1-8.7l-1.6-1.5l-6.9,9.4h-18.5v-8.1c3.6-1.2,5.3-2.4,5.3-3.6c0-2-4.6-3.2-13.9-3.7
		v15.4h-20.4v-8.8c3.7-1.2,5.6-2.4,5.6-3.6c0-2-4.7-3.2-14.2-3.7v10.1h0.1v6H95.2v-8.1c3.6-1.2,5.3-2.4,5.3-3.6
		c0-2-4.6-3.2-13.9-3.7v15.4H52.8l1.3,3.7h32.6v18h-30l1.3,3.7h56.5v14.6H60.2l1.2,3.7h53v22.8h8.9V82.4h54.4l1.6-3
		c-3.1-3.7-6.4-7-9.9-9.9l-7.8,9.2h-38.3V64.1h58.6l1.5-3.3c-2.5-3-5.5-6.1-9-9.4l-6.8,9h-15.5v-18H185.6z M114.6,60.4H95.2v-18
		h19.3V60.4z M143.5,60.4h-20.4v-18h20.4V60.4z"/>
</g>
</svg>
