<?xml version="1.0" encoding="utf-8"?>
<!-- Generator: Adobe Illustrator 19.0.0, SVG Export Plug-In . SVG Version: 6.00 Build 0)  -->
<svg version="1.1" id="圖層_1" xmlns="http://www.w3.org/2000/svg" xmlns:xlink="http://www.w3.org/1999/xlink" x="0px" y="0px"
	 viewBox="45 -33.8 150 150" style="enable-background:new 45 -33.8 150 150;" xml:space="preserve">
<style type="text/css">
	.st0{enable-background:new    ;}
	.st1{fill:#DC6200;}
</style>
<g class="st0">
	<path d="M122.3-11.6h7.7c4.2,11.8,10.1,22.2,17.7,31.3c-7.9,9.4-17.1,16.9-27.6,22.3l2.3,3.1c12.2-4.6,22.4-11.2,30.6-19.8
		c7.4,7.3,17.2,13.7,29.2,19.2c1.8-3.5,3.8-6.2,6.2-7.9c-12.1-4.4-22.4-10.1-30.8-17c6.7-7.8,12.3-17.3,16.8-28.3l4-2
		c1-0.4,1.5-1,1.5-1.8c0-1.5-3.1-4.7-9.4-9.4l-5.3,6.4h-44.7L122.3-11.6z M165.6-11.6c-3.9,10.3-8.5,18.9-13.8,25.9
		c-7.1-7.3-12.9-15.9-17.4-25.9H165.6z"/>
	<path d="M70-18.6v47.5l-4.2,0.3c-1.7,0.1-3.6,0.2-5.7,0.4c-2.6,0.2-4.2,0.3-4.5,0.3c2,8.3,3.9,12.5,5.6,12.5c1,0,2-1.7,3-5
		c15.3-3,30.1-6.4,41-8.8v10.9h8.4V26.6l7.8-2.3l-1.1-3.1l-6.7,1.7v-41.6h15.5l1.5-2.9c-2.5-2.9-5.7-6-9.6-9.3l-7,8.4h-59l1.5,3.7
		H70z M78.5-18.6h26.7v11.7H78.5V-18.6z M78.5-3.2h26.7v12H78.5V-3.2z M78.5,12.6h26.7v11.8C97.5,25.7,88.6,27,78.5,28V12.6z"/>
	<path class="st1" d="M176,44.8l-7.8,7.2h-57.8c0.6-1,1.2-1.8,1.7-2.6c4.4-0.3,6.6-1,6.6-2.3c0-1.8-4-3.9-11.9-6.3
		c-3.1,5-5.5,8.7-7.3,11.1H53.1l1.3,3.7h42.2c-5.9,7.9-13.2,15.9-21.9,24L83,83c3-2.8,5.1-4.8,6.3-6c9,1.9,19.6,4.3,31.6,7.5
		c-14.3,9.6-36,15.5-65.1,17.6l1.6,3.6c33.7-1.2,58-7.4,72.8-18.5c14.6,4.3,26.8,9.1,36.7,14.4c3.9,2,6.5,3,7.8,3
		c2.6,0,3.9-1.5,3.9-4.5c0-5.8-14.5-11.9-43.4-18.5c7.2-7.4,13.3-15.7,18.2-25l0.6-0.9h31.1l1.5-2.9c-2.5-2.3-5.1-4.4-7.8-6.2
		C177,45.5,176.1,44.9,176,44.8z M126.4,79.7l-1.6-0.3c-11.9-2.4-22.7-4.3-32.4-5.6c5.7-6.3,10.8-12.3,15.2-18.2h35.9
		C138.9,64.5,133.2,72.5,126.4,79.7z"/>
</g>
</svg>
