<?xml version="1.0" encoding="utf-8"?>
<!-- Generator: Adobe Illustrator 19.0.0, SVG Export Plug-In . SVG Version: 6.00 Build 0)  -->
<svg version="1.1" id="圖層_1" xmlns="http://www.w3.org/2000/svg" xmlns:xlink="http://www.w3.org/1999/xlink" x="0px" y="0px"
	 viewBox="45 -33.8 150 150" style="enable-background:new 45 -33.8 150 150;" xml:space="preserve">
<style type="text/css">
	.st0{enable-background:new    ;}
	.st1{fill:#DC6200;}
</style>
<g class="st0">
	<path d="M183,4l1.8-2.9l-2-2.1c-2.9-3.4-6.2-6.7-9.9-10.1l-8.7,11.3h-40.5v-20.2c4.7-1.7,7-3.2,7-4.5c0-2.2-5.3-3.4-15.9-3.6V0.3
		H56.9L58.8,4H183z"/>
	<path class="st1" d="M180.4,87.4c-1-2.6-1.5-9.8-1.5-21.8l-3.9-1.4c-0.4,11.3-1.5,19.2-3.3,23.7c-1.2,3.1-5.1,4.6-11.7,4.6
		c-6.2,0-9.9-0.2-11.2-0.7c-1.4-0.6-2.1-2.1-2.1-4.3V32.2l3.9-2.3c1.1-0.6,1.7-1.3,1.7-1.9c0-1.4-3.2-4.8-9.7-10.1l-6.2,7.7h-34.6
		l-0.1-0.1l-1.5,3.8h37.7v59.8c0,4.5,0.9,7.5,2.7,8.9c2,1.7,7.4,2.6,16.2,2.6c12.2,0,20-0.4,23.4-1.3c3.8-0.9,5.7-3.8,5.9-8.6
		C183,90.7,181.2,89.6,180.4,87.4z"/>
	<path d="M100.2,24.9c-4.2-2.2-7.3-3.8-9.4-4.7v28.1c0,26.5-11.7,44.6-35.2,54.3l1.9,3.3c11.7-3.4,20.8-8.2,27.3-14.4
		c10.1-9.8,15.2-24.1,15.2-42.8V29.3h0.2l1.5-3.8L100.2,24.9z"/>
</g>
</svg>
