<?xml version="1.0" encoding="utf-8"?>
<!-- Generator: Adobe Illustrator 19.0.0, SVG Export Plug-In . SVG Version: 6.00 Build 0)  -->
<svg version="1.1" id="圖層_1" xmlns="http://www.w3.org/2000/svg" xmlns:xlink="http://www.w3.org/1999/xlink" x="0px" y="0px"
	 viewBox="45 -33.8 150 150" style="enable-background:new 45 -33.8 150 150;" xml:space="preserve">
<style type="text/css">
	.st0{enable-background:new    ;}
	.st1{fill:#DC6200;}
</style>
<g class="st0">
	<path class="st1" d="M71.1,64.7V-6.4c4-1.5,6-2.9,6-4.2c0-2.2-4.8-3.4-14.4-3.6v81.4c-2.9,0.9-7.1,2.1-12.5,3.6
		c3,8.4,5.4,12.6,7.2,12.6c1.3,0,2.3-2.2,2.9-6.6c11.8-4.9,21.5-9.6,29.2-14.2v-4.8C84.9,59.9,78.8,62.2,71.1,64.7z"/>
	<path d="M147.9,64.7c7.9-13.2,13.3-32,16.3-56.4h17.9l1.5-2.9c-2.5-3.1-5.9-6.8-10.1-10.9l-7.3,10h-39.1c2-6.3,3.9-14.1,5.8-23.2
		c4.2-0.9,6.3-2.1,6.3-3.4c0-2.1-4.9-4.1-14.6-5.9c-3.8,29.7-11.1,54.5-21.9,74.2l3.1,2.3c6-8.4,11.1-17.5,15.3-27.3
		c4.1,16.5,9.9,31,17.5,43.4c-9.4,16.4-21.6,28.8-36.4,37.4l2.1,3.4c16.2-7.1,29.3-18.2,39.3-33.3c8.7,11.9,20.7,22.4,35.8,31.3
		c2.1-2.8,4.9-5.6,8.1-8.2C170.6,87.1,157.4,77,147.9,64.7z M142.6,57.4c-7.8-12.4-14.2-26.6-19.1-42.5c0.1-0.3,0.2-0.6,0.4-1
		l0.5-1.6c0.5-1.4,1-2.7,1.5-4h28.9C152.6,28.3,148.5,44.7,142.6,57.4z"/>
	<path d="M104.5-21c0-2.3-5-3.6-14.9-4v82.8c0,0-0.1,0-0.1,0v4.8c0,0,0.1,0,0.1-0.1v42.6h8.7V-16.6C102.4-18.2,104.5-19.7,104.5-21z
		"/>
</g>
</svg>
