<?xml version="1.0" encoding="utf-8"?>
<!-- Generator: Adobe Illustrator 19.0.0, SVG Export Plug-In . SVG Version: 6.00 Build 0)  -->
<svg version="1.1" id="圖層_1" xmlns="http://www.w3.org/2000/svg" xmlns:xlink="http://www.w3.org/1999/xlink" x="0px" y="0px"
	 viewBox="45 -33.8 150 150" style="enable-background:new 45 -33.8 150 150;" xml:space="preserve">
<style type="text/css">
	.st0{enable-background:new    ;}
	.st1{fill:#DC6200;}
</style>
<g class="st0">
	<path class="st1" d="M82.6,42.2V14.7l-9.2-0.1v73.8c-6.9,1-13.3,1.9-19.3,2.5c2.5,9.2,4.8,13.8,6.9,13.8c1.4,0,2.4-2,3.1-5.9
		c21.8-4.5,44-10.9,66.6-19.2l-1.2-4.1c-14.7,4.4-29.7,8-45,10.8l-2,0.3V46h0L82.6,42.2L82.6,42.2z"/>
	<path d="M180.7,83.3c0-3.5,0.4-9.5,1.2-18.2l-3.9-2.1c-2.9,17.8-5.5,26.7-8,26.7c-1,0-3-1-6-3.1c-14.2-9.8-24.5-23.7-30.9-41.7h48
		l1.6-2.9c-2.4-3.6-5.8-7.5-10.2-11.6l-8.1,10.8H132c-2.3-8.5-3.8-17.4-4.4-26.7h30.3v7.8h9v-33.9l3.9-2.6c0.8-0.5,1.2-1.1,1.2-1.8
		c0-1.7-3.2-4.9-9.6-9.6l-5.7,6.7h-72c-3.5-2.1-7.3-4-11.3-5.6v39l9.2,0.1v-0.2h36.5c0.9,11.3,2.4,20.6,4.6,27.8H82.7V46h42.1
		c6.2,19.6,16.7,35.1,31.5,46.4c8.7,6.6,16.2,9.9,22.3,9.9c4,0,6.4-2.6,7.3-7.8C182.4,93.7,180.7,90,180.7,83.3z M82.6,10.7V-15
		h75.3v25.8H82.6z"/>
</g>
</svg>
