<?xml version="1.0" encoding="utf-8"?>
<!-- Generator: Adobe Illustrator 19.0.0, SVG Export Plug-In . SVG Version: 6.00 Build 0)  -->
<svg version="1.1" id="圖層_1" xmlns="http://www.w3.org/2000/svg" xmlns:xlink="http://www.w3.org/1999/xlink" x="0px" y="0px"
	 viewBox="45 -33.8 150 150" style="enable-background:new 45 -33.8 150 150;" xml:space="preserve">
<style type="text/css">
	.st0{enable-background:new    ;}
	.st1{fill:#DC6200;}
</style>
<g class="st0">
	<path d="M102.6,43.9c0-2-4.2-3.1-12.6-3.1v41.7h-8.7V28.8h17.7l1.8-2.7c-2.6-3.5-5.6-7-9.2-10.5L84.7,25h-3.4V-1.9h19l1.8-2.9
		c-2.5-3.4-5.4-6.7-8.7-9.9l-6.9,9H69.6c1.4-4,2.6-8.6,3.7-13.9c3.4-1.1,5.1-2.1,5.1-3.1c0-2.1-4.4-3.8-13.2-5.3
		c-2,18.5-5.8,34.6-11.6,48.3l3.1,1.8c4.7-7.9,8.5-15.9,11.4-24H73V25H51.2l1.3,3.7H73v53.7h-8.3V48c3.3-1.4,4.9-2.6,4.9-3.7
		c0-2.1-4.3-3.1-12.9-3.3v57.7h8V86.2H90V95h7.8V47.4C101,46.1,102.6,45,102.6,43.9z"/>
	<path d="M171.6-4.9c3.5,0,5.2-1.5,5.2-4.6c0-5.4-5.8-11.3-17.4-17.7l-2.1,2.5c5.3,5.8,8.6,11,10,15.7C168-6.4,169.5-5,171.6-4.9z"
		/>
	<path d="M128.1-19.8c4.2,0,6.3-0.7,6.3-2c0-2.1-3.5-4.2-10.4-6.4c-2.6,7-6.2,14.1-10.9,21.3l2.6,2.5
		C121.6-9.7,125.7-14.8,128.1-19.8z"/>
	<path d="M180.9-8l-4.6,6.3h-28.6v-20.4c3.6-1.3,5.4-2.6,5.4-3.9c0-2.1-4.4-3.1-13.2-3.3v27.6h-27.3c-0.4-2.5-0.6-3.9-0.7-4.2
		l-3.3-0.7c-0.4,8.3-2.7,15-6.7,20.1c-1.6,1.9-2.4,3.4-2.4,4.6c0,3.1,1.6,4.7,4.9,4.7c1.8,0,3.5-1.3,5.1-3.9c2.2-4.3,3.3-9.6,3.3-16
		V2h64.5c-0.4,2.3-1.6,5.8-3.7,10.6l2.9,1.7c2.1-2,4.9-4.8,8.1-8.4l4.5-0.9c0.8-0.1,1.2-0.6,1.2-1.3C190.1,1.7,187-2.2,180.9-8z"/>
	<path class="st1" d="M180.1,70.7l-6.7,7.3h-24.8V66.6h30.7l1.7-2.7c-2.2-2.5-5.1-5.1-8.6-7.6l-5.9,6.6h-17.9V50.9
		c5.8-0.5,13.6-1.4,23.5-2.9c2.2,0.6,3.9,0.9,4.9,0.9c1.3,0,2-0.4,2-1.2c0-1.2-2.7-3.8-8-7.7c-17.6,4.9-38.5,8.3-62.5,10.2l1.2,3.4
		c9.3-0.2,19.6-0.9,30.8-1.9v11.1h-33l1.8,3.7h31.1V78h-39.8l1.6,3.7h38.2v9c0,2.9-1.5,4.3-4.5,4.3c-4.1,0-9-0.3-14.6-1v3.9
		c4.4,0.8,7.5,1.6,9.1,2.4c2.2,1.1,3.5,2.8,3.8,5.1c9.4,0,14.1-4.2,14.1-12.5V81.7h38.8l1.8-2.7C186.3,75.8,183.3,73.1,180.1,70.7z"
		/>
	<path d="M169.7,38.5V18.6l2.4-1.8c0.9-0.6,1.3-1.2,1.3-1.8c0-1.5-2.7-4.3-8.1-8.4l-4.7,5.7h-33.9c-2.2-1.3-5.2-2.7-9.2-4.2v31.3h8
		v-5.2h36.3v4.3H169.7z M125.6,30.4V16h36.3v14.4H125.6z"/>
</g>
</svg>
