<?xml version="1.0" encoding="utf-8"?>
<!-- Generator: Adobe Illustrator 19.0.0, SVG Export Plug-In . SVG Version: 6.00 Build 0)  -->
<svg version="1.1" id="圖層_1" xmlns="http://www.w3.org/2000/svg" xmlns:xlink="http://www.w3.org/1999/xlink" x="0px" y="0px"
	 viewBox="45 -33.8 150 150" style="enable-background:new 45 -33.8 150 150;" xml:space="preserve">
<style type="text/css">
	.st0{enable-background:new    ;}
	.st1{fill:#DC6200;}
</style>
<g class="st0">
	<path d="M95.2,51.2h18.3v4.5h8.1V21.6l2.6-2c1-0.7,1.5-1.4,1.5-2.1c0-1.2-2.7-3.8-8.1-7.8l-5.3,6H95.2V3h35l1.5-2.6
		c-2.8-3.4-5.8-6.5-9-9.3l-6.4,8.1h-21v-13.3c8.2-1.1,15.5-2.1,21.9-3.1c2.2,0.5,3.8,0.7,4.7,0.7c1.6,0,2.4-0.4,2.4-1.3
		c0-1.7-2.6-4.7-7.8-9C99.5-21,78.9-16.9,54.5-14.7l1.3,3.9c8.5-0.4,17.7-1.1,27.5-2.1l3.1-0.3v12.5H52.8L54.2,3h32.2v12.7H70
		c-3.2-1.9-6.3-3.4-9.3-4.5v46h8.1v-6h17.7v0.3l8.7-0.1V51.2z M95.2,19.5h18.3v11.9H95.2V19.5z M95.2,35.1h18.3v12.5H95.2V35.1z
		 M86.5,47.5H68.8V35.1h17.7V47.5z M86.5,31.3H68.8V19.5h17.7V31.3z"/>
	<path d="M177.8,1.8L172.1,9h-17.9v-30c4-1.3,6-2.6,6-3.9c0-2.1-4.9-3.3-14.7-3.6V9.7h-20.7l1.5,3.7h19.1l-0.1,2.4
		c-0.6,16.1-2.5,29.6-5.5,40.5c-4.9,17.8-15,33.1-30.1,46.1l2.6,3c13.8-9.3,23.7-20.1,29.8-32.4c7.2-14.5,11.2-33.6,11.9-57.6
		c0.1-0.7,0.1-1.6,0.1-2.7h19.3v8.6c-0.1,28.2-1.6,48.7-4.2,61.7c-1.3,6.1-5,9.2-10.9,9.2c-4.8,0-10.7-0.6-17.7-1.8v4.2
		c7.6,1.4,12.5,2.6,14.7,3.6c3,1.4,4.5,3.3,4.5,5.9c6.6,0,11.6-2.9,15-8.6c4.7-7.9,7.2-34.7,7.4-80.4l3.3-2.5
		c0.8-0.6,1.2-1.2,1.2-1.8C186.5,9.7,183.6,6.7,177.8,1.8z"/>
	<path class="st1" d="M126.7,78c-13.7,2.7-24.2,4.6-31.5,5.7V69.3h30.3l1.7-2.9c-2.4-2.9-5.3-5.8-8.9-8.7l-6.7,7.8H95.2V51.4
		l-8.7,0.1v14H55.8l1.4,3.7h29.2v15.6l-2.3,0.3c-10.8,1.5-21.5,2.6-32.1,3.4c2.2,8.8,4.3,13.2,6.3,13.2c1.2,0,2.2-1.9,3-5.6
		c20.8-3.2,42.8-8,66.1-14.3L126.7,78z"/>
</g>
</svg>
