<?xml version="1.0" encoding="utf-8"?>
<!-- Generator: Adobe Illustrator 19.0.0, SVG Export Plug-In . SVG Version: 6.00 Build 0)  -->
<svg version="1.1" id="圖層_1" xmlns="http://www.w3.org/2000/svg" xmlns:xlink="http://www.w3.org/1999/xlink" x="0px" y="0px"
	 viewBox="45 -33.8 150 150" style="enable-background:new 45 -33.8 150 150;" xml:space="preserve">
<style type="text/css">
	.st0{enable-background:new    ;}
	.st1{fill:#DC6200;}
</style>
<g class="st0">
	<path class="st1" d="M152.7,43.5l-6.3,6.9H74.1l1.5,3.7h71.9c-5.7,16.2-13.5,32.3-23.5,48.3l8.4,3.7c9.3-15.2,17.3-31.4,24-48.6
		l3.7-2.1c1.1-0.6,1.7-1.3,1.7-1.9C161.7,52,158.7,48.7,152.7,43.5z"/>
	<path d="M123-21.3c4-0.9,5.9-2,5.9-3.3c0-1.8-4.3-3.5-12.9-5c-15,30-36.2,52.4-63.6,67.2l2.3,3.3c28.1-13.2,50-32.6,65.7-58.2
		c13,20.2,33,38,60,53.4c1.6-3.4,4.1-6.4,7.5-9C161.5,16,139.8-0.1,123-21.3z"/>
</g>
<g>
	<path d="M130.6,37.9c2.3,2.5,4.2,3.7,5.6,3.7c3.1,0,4.7-1.7,4.7-5c0-7.4-12.7-13.9-38.2-19.5l-1.6,3
		C114.7,25.9,124.5,31.8,130.6,37.9z"/>
</g>
</svg>
