<?xml version="1.0" encoding="utf-8"?>
<!-- Generator: Adobe Illustrator 19.0.0, SVG Export Plug-In . SVG Version: 6.00 Build 0)  -->
<svg version="1.1" id="圖層_1" xmlns="http://www.w3.org/2000/svg" xmlns:xlink="http://www.w3.org/1999/xlink" x="0px" y="0px"
	 viewBox="45 -33.8 150 150" style="enable-background:new 45 -33.8 150 150;" xml:space="preserve">
<style type="text/css">
	.st0{enable-background:new    ;}
	.st1{fill:#DC6200;}
</style>
<g class="st0">
	<path d="M176,69l-8.1,9.7h-36.3V64.6H160v5.1h8.6V33.1l2.9-2.6c1-0.9,1.5-1.6,1.5-2.1c0-1-2.7-3.6-8.2-7.9l-6,6.3h-27V14.6h48.1
		l1.5-2.7c-3-3.6-6.3-6.8-10-9.7l-7.1,8.7h-32.5V4.6c3.9-1.4,5.9-2.7,5.9-3.9c0-2.1-4.9-3.3-14.6-3.6v13.8H76.4l1.5,3.7h45v12.2
		H96.9c-3.4-1.7-6.6-2.9-9.4-3.6v47.9h8.4v-6.5h27.1v14.1H72.5l1.4,3.7h49v22.8h8.7V82.4H184l1.8-3C182.6,75.5,179.4,72,176,69z
		 M131.6,30.5H160v13h-28.3V30.5z M131.6,47.2H160v13.6h-28.3V47.2z M122.9,60.8H95.8V47.2h27.1V60.8z M122.9,43.5H95.8v-13h27.1
		V43.5z"/>
	<path class="st1" d="M73.5-5.9h109.4l1.8-2.9c-3.3-4-6.6-7.5-9.9-10.5l-7.5,9.6h-42.5v-12.3c4.3-1.3,6.4-2.6,6.4-3.9
		c0-2.3-5-3.4-15-3.4v19.6H75l-1-0.6c-2.9-1.3-6-2.5-9.2-3.6v39.4c0,34.5-5.2,60.2-15.5,77.3l3.1,2.4c14-17.5,21-44,21-79.7V-5.9z"
		/>
</g>
</svg>
