<?xml version="1.0" encoding="utf-8"?>
<!-- Generator: Adobe Illustrator 19.0.0, SVG Export Plug-In . SVG Version: 6.00 Build 0)  -->
<svg version="1.1" id="圖層_1" xmlns="http://www.w3.org/2000/svg" xmlns:xlink="http://www.w3.org/1999/xlink" x="0px" y="0px"
	 viewBox="45 -33.8 150 150" style="enable-background:new 45 -33.8 150 150;" xml:space="preserve">
<style type="text/css">
	.st0{enable-background:new    ;}
	.st1{fill:#DC6200;}
</style>
<g class="st0">
	<path d="M173.2,7.3l-8.3,10H79.3v3.7h103l1.6-3C181.1,14.7,177.5,11.1,173.2,7.3z"/>
	<path d="M162.6,38.8l-5.6,6.4h-56.7c-4.7-2.3-8.4-3.9-10.9-4.7v62.6h8.9v-9.7h59.8v9.7h8.9V52.3l4.2-2.9c0.7-0.4,1.1-0.9,1.1-1.6
		C172.3,46.2,169.1,43.2,162.6,38.8z M158.2,89.7H98.3V49h59.8V89.7z"/>
	<path class="st1" d="M79.3,17.3V-4.1c34.4-3.4,62.2-7.5,83.3-12.3c2.8,0.6,5,0.9,6.5,0.9c1.8,0,2.7-0.4,2.7-1.3c0-2-4-5.2-11.9-9.6
		C138.1-18,111.8-12,81.2-8.3c-3.7-1.9-7.4-3.5-11.2-4.8v38.2c0,33.8-5.9,59.6-17.6,77.3l3.3,2.4c15.7-18,23.6-44.5,23.6-79.7v-4
		h0.1L79.3,17.3L79.3,17.3z"/>
</g>
</svg>
