<?xml version="1.0" encoding="utf-8"?>
<!-- Generator: Adobe Illustrator 19.0.0, SVG Export Plug-In . SVG Version: 6.00 Build 0)  -->
<svg version="1.1" id="圖層_1" xmlns="http://www.w3.org/2000/svg" xmlns:xlink="http://www.w3.org/1999/xlink" x="0px" y="0px"
	 viewBox="45 -33.8 150 150" style="enable-background:new 45 -33.8 150 150;" xml:space="preserve">
<style type="text/css">
	.st0{enable-background:new    ;}
	.st1{fill:#DC6200;}
</style>
<g class="st0">
	<path class="st1" d="M85.8,18.9h20.4L108,16c-2.1-3.1-4.9-6.3-8.3-9.6l-6.9,8.7h-7V-3.2c4.2-0.8,10-2.2,17.3-4.2
		c1.9,0.3,3.3,0.4,4.3,0.4c1.7,0,2.6-0.4,2.6-1.2c0-1.4-3-4.2-8.9-8.3c-4.3,2.2-9.2,4.3-14.4,6.3l-0.9,0.3v-11.9
		c4.1-1.5,6.2-2.9,6.2-4c0-2.1-4.9-3.3-14.6-3.6v22.2l-0.9,0.3c-7.2,2.1-15,3.9-23.6,5.4L54.4,2C61,1.2,68.6,0,77.4-1.5v16.6H56.8
		l1.5,3.7h19v8.5h8.4V18.9z"/>
	<path d="M178.2-8.9l1.8-2.9c-3-4.1-6.2-7.7-9.6-10.6l-7,9.7h-46.2l1.5,3.7H178.2z"/>
	<path d="M157.9,55.7l-2.9,2.6c6.6,8,11.7,15.7,15.5,23.3l-1.2,0.3c-8.7,1.7-21,3.5-36.8,5.3l-2.4,0.1c8-18.7,14.2-35.6,18.6-50.6
		c0.1-0.4,0.3-1.1,0.6-2.1c0.2-1,0.4-1.8,0.6-2.3h35.7l1.6-2.9c-2.2-3.2-5.5-7-9.7-11.4l-7.6,10.5h-59.9l1.5,3.7h27.3
		c-3.1,18-7.2,35.1-12.3,51.4l-1.4,4.1c-5.4,0.4-10.6,0.9-15.5,1.3c2,9.2,4.1,13.8,6.3,13.8c1.2,0,2.1-1.9,2.9-5.7
		c20.6-3.7,38.5-7.7,53.5-11.9c1.5,3.4,2.8,6.9,3.8,10.7c1,4.5,2.7,6.7,5.1,6.7c3.4,0,5.1-2.2,5.1-6.7
		C186.3,85.6,176.8,72.1,157.9,55.7z"/>
	<path d="M85.8,53.8V41.7h25.9l1.5-2.9c-2.3-3.1-5.2-6.6-8.7-10.3l-6.9,9.4H85.8V27.4h-8.4v10.5h-25l1.3,3.7h23.3
		c-5.5,18-14.8,34.6-27.9,49.8l2.6,2.5c10.6-10,19.2-21.3,25.8-34v45.3h8.4V57.8c6.6,5.6,11,11.1,13.3,16.6c1.4,3.5,3.1,5.3,5.1,5.3
		c3.3,0,4.9-1.8,4.9-5.4C109.2,67.4,101.4,60.5,85.8,53.8z"/>
</g>
</svg>
