<?xml version="1.0" encoding="utf-8"?>
<!-- Generator: Adobe Illustrator 19.0.0, SVG Export Plug-In . SVG Version: 6.00 Build 0)  -->
<svg version="1.1" id="圖層_1" xmlns="http://www.w3.org/2000/svg" xmlns:xlink="http://www.w3.org/1999/xlink" x="0px" y="0px"
	 viewBox="45 -33.8 150 150" style="enable-background:new 45 -33.8 150 150;" xml:space="preserve">
<style type="text/css">
	.st0{enable-background:new    ;}
	.st1{fill:#DC6200;}
</style>
<g class="st0">
	<path d="M87.2-4.7h96.2l1.5-3.1c-3.1-3.8-6.7-7.4-10.6-10.9l-8.1,10.3H87.2v-13.5c4.1-1.5,6.2-2.9,6.2-4.2c0-2.4-5.2-3.7-15.5-4
		v21.8H56l1.8,3.7h20.1c-0.2,6.4-0.3,11.2-0.3,14.4c-0.3,9.6-1.2,19.2-2.7,28.8C72.6,51.8,69.5,63,65.6,72
		c-3.5,8.3-8.5,17.1-15.2,26.2l3.1,2.4c11.1-11.7,19.3-25.1,24.6-40.4C83.9,43.9,86.9,22.3,87.2-4.7z"/>
	<path class="st1" d="M91.8,50.8c-2.2,2.2-3.3,4-3.3,5.3c0,3.2,1.7,4.8,5.2,4.8c3.2,0,6.1-2.4,8.6-7.3c3.9-7.3,5.3-17.6,4.4-31.1
		l-4-1C101.4,35.6,97.8,45.3,91.8,50.8z"/>
	<path class="st1" d="M139.5,56.1c9.1-6.5,18-14.8,26.6-24.9c1.2,0.2,2.3,0.3,3.4,0.3c2.6,0,3.9-0.6,3.9-1.8
		c0-2.1-4.1-5.5-12.2-10.3c-6.7,11.7-14.7,22.5-24,32.4c-3.5-7.7-5.5-16.5-6-26.2v-2v-9.9c4.2-1.4,6.3-2.7,6.3-3.9
		c0-2.1-5.1-3.4-15.2-3.9v14.1c0,25-5.3,44-16,57.3c-6.6,8.1-16.9,15.5-30.9,22.3l2.2,3.3c17.3-6.4,29.9-14.5,37.9-24.3
		c7.2-8.9,12-20.7,14.2-35.2c2,9.9,5.8,19,11.3,27.5c7.7,11.8,19.3,21.3,34.8,28.6c2-3.6,4.7-6.4,8.1-8.4
		C163.3,83.6,148.5,72,139.5,56.1z"/>
</g>
</svg>
