<?xml version="1.0" encoding="utf-8"?>
<!-- Generator: Adobe Illustrator 19.0.0, SVG Export Plug-In . SVG Version: 6.00 Build 0)  -->
<svg version="1.1" id="圖層_1" xmlns="http://www.w3.org/2000/svg" xmlns:xlink="http://www.w3.org/1999/xlink" x="0px" y="0px"
	 viewBox="45 -33.8 150 150" style="enable-background:new 45 -33.8 150 150;" xml:space="preserve">
<style type="text/css">
	.st0{enable-background:new    ;}
	.st1{fill:#DC6200;}
</style>
<g class="st0">
	<path d="M109.7,58.7c3.1,0,4.7-1.8,4.7-5.3c0-3.2-2.4-6.6-7.2-10.2c-4.8-3.7-11.6-6.9-20.3-9.6v-0.4c6.2-7.6,12.4-16.8,18.5-27.8
		l4.3-2c0.9-0.4,1.4-0.9,1.4-1.5c0-1.5-3.1-5.1-9.3-10.6l-5.7,7.3h-9.7v-0.2H78v0.2H54.4l1.5,3.7h40.5
		C85.5,25.3,70.7,44.4,52.2,59.7l2.7,3.1c8.7-6.4,16.5-13,23.2-19.8v62.1H87V38c7.5,4.6,13.4,10.3,17.7,16.8
		C106.4,57.4,108,58.7,109.7,58.7z"/>
	<path class="st1" d="M86.4-21.7c4.1-1.5,6.2-2.9,6.2-4.2c0-2.2-4.9-3.4-14.6-3.6v28h8.4V-21.7z"/>
	<path d="M180.4,83l-1.7-1.6l-8.1,10.8h-24.5V27.7h34.1l1.9-3c-2.5-3.4-5.7-6.9-9.4-10.6l-7.5,9.9h-19v-39.3
		c4.3-1.6,6.4-3.1,6.4-4.3c0-2.4-5.2-3.7-15.6-3.9v47.5h-32.2l1.5,3.7h30.8v64.5H97l1.7,3.7h87.7l1.8-3.3
		C186.2,89.5,183.6,86.3,180.4,83z"/>
</g>
</svg>
