<?xml version="1.0" encoding="utf-8"?>
<!-- Generator: Adobe Illustrator 19.0.0, SVG Export Plug-In . SVG Version: 6.00 Build 0)  -->
<svg version="1.1" id="圖層_1" xmlns="http://www.w3.org/2000/svg" xmlns:xlink="http://www.w3.org/1999/xlink" x="0px" y="0px"
	 viewBox="45 -33.8 150 150" style="enable-background:new 45 -33.8 150 150;" xml:space="preserve">
<style type="text/css">
	.st0{enable-background:new    ;}
	.st1{fill:#DC6200;}
</style>
<g class="st0">
	<path d="M73.6,2.7C71.5,1.6,68.1,0,63.5-1.9v107.4h8.9v-99h43.3l2.4-3.7H73.6z"/>
	<path class="st1" d="M124.8,6.4h0.1l-1.1-3.7h-0.1c-1.7-6.8-2.7-13.9-3-21.3l6.4-2.7c1.2-0.4,1.8-1,1.8-1.8c0-1.5-3-4.7-8.9-9.6
		l-5.6,7.2H83.6l1.5,3.7h31.2c0.2,9.1,0.9,17.3,2.1,24.5H118l-2.4,3.7h0.2c-7.1,21.4-20.1,41.2-39.2,59.3l2.4,3.1
		c19.9-15.1,34.1-32.5,42.6-52.1c5.9,19.4,17,36,33.5,49.7c2.1-4,4.4-7,6.9-9C142.7,42,130.3,25,124.8,6.4z"/>
	<path d="M172.3-4.9l-5.6,7.5h-42.7l1.1,3.7h43v78.7c0,3.8-2,5.7-5.9,5.7c-7.9,0-16.2-0.4-25-1.3v4.2c9.3,1.4,15.4,2.4,18.1,3.1
		c3.8,1.4,5.7,3.5,5.9,6.4c10.5-0.7,15.7-5.1,15.7-13V9.4l4-2.4c0.8-0.5,1.2-1,1.2-1.6C182.1,3.9,178.8,0.5,172.3-4.9z"/>
</g>
</svg>
