<?xml version="1.0" encoding="utf-8"?>
<!-- Generator: Adobe Illustrator 19.0.0, SVG Export Plug-In . SVG Version: 6.00 Build 0)  -->
<svg version="1.1" id="圖層_1" xmlns="http://www.w3.org/2000/svg" xmlns:xlink="http://www.w3.org/1999/xlink" x="0px" y="0px"
	 viewBox="45 -33.8 150 150" style="enable-background:new 45 -33.8 150 150;" xml:space="preserve">
<style type="text/css">
	.st0{enable-background:new    ;}
	.st1{fill:#DC6200;}
</style>
<g class="st0">
	<path d="M91.1-1.6c0-2.1-4.3-3.7-12.9-5c-4.5,16.7-11.8,31.3-21.9,44.1l2.6,2.6c9.9-9.6,17.4-19.1,22.3-28.5h99.3l1.8-3
		c-2.6-3.1-6-6.3-10-9.7l-7.5,9H83.1c1-2.1,1.9-4.2,2.7-6.3C89.4,0.8,91.1-0.2,91.1-1.6z"/>
	<path d="M141.1-10.9V1h8.4v-11.9h35.1l1.7-3c-3-3.3-6.5-6.6-10.7-9.9l-7,9.2h-19v-8.3c3.9-1.3,5.9-2.6,5.9-3.9
		c0-2.1-4.8-3.1-14.3-3.1v15.3h-13.5l1.5,3.7H141.1z"/>
	<path d="M91.7-10.9V1h8.4v-11.9h22.5l1.5-3c-2.9-3.2-6.3-6.3-10.1-9.3l-6.7,8.6h-7.2v-8c4.2-1.3,6.3-2.6,6.3-3.9
		c0-2.1-4.9-3.3-14.7-3.4v15.3H54.2l1.5,3.7H91.7z"/>
	<path d="M119.5,74.6c1,1.6,2.4,2.4,4.1,2.4c3.1,0,4.6-1.6,4.6-4.8c0-6.3-8.7-11-26.1-14.1l-1.5,2.7C109.9,65,116.2,69.6,119.5,74.6
		z"/>
	<polygon points="86,56.2 150.2,56.2 150.6,52.5 86.6,52.5 	"/>
	<path d="M187.3,53.1c-2.3-3.3-5.2-6.8-8.9-10.3l-6.9,9.7h-12.3l-0.2,3.7h26.6L187.3,53.1z"/>
	<path class="st1" d="M173.2,70.4l-7.3,9.7h-8.9c0.8-8,1.4-15.9,1.8-23.9h0.1l0.2-3.7h-0.1c0.3-5.1,0.5-12.1,0.7-20.9l3.3-2.1
		c1.1-0.8,1.7-1.5,1.7-2.1c0-1.3-2.9-4.2-8.6-8.9l-5.6,6.4H90.8c-2.9-1.7-5.9-3.1-9.2-4.4c-1.1,10-2.5,20.6-4.3,32h-0.2l-0.7,3.7
		h0.3c-2.2,13.2-4.7,25.2-7.4,36l8.9,1.8c0.6-2.2,1.4-5.6,2.4-10.2h67c-0.4,2.8-1,4.9-1.6,6.2c-1.2,2.5-3.9,3.7-8.3,3.7
		c-3.4,0-8.7-0.5-16-1.5l-3.6-0.4v3.7c6.9,1.4,11.6,2.6,14.1,3.6c2.5,1.2,3.8,3.2,3.8,5.9c6.8-0.1,11.7-1.6,14.6-4.5
		c2.7-2.7,4.6-8.2,5.9-16.6h23.6l1.5-3C179.3,77.2,176.5,73.7,173.2,70.4z M150.7,52.5h-0.1l-0.4,3.7h0.2
		c-0.9,12.4-1.6,20.4-2.1,23.9H81.4c1.7-8,3.2-15.9,4.5-23.9H86l0.6-3.7h-0.1c0.8-5.1,1.9-13,3.3-23.9h61.7
		C151.3,38,151,45.9,150.7,52.5z"/>
	<polygon points="52.8,52.5 54.4,56.2 76.5,56.2 77.1,52.5 	"/>
	<path d="M121.3,47.1c1.4,2,3,3,4.7,3c3,0,4.5-1.6,4.5-4.8c0-6.2-8.6-10.8-25.8-13.9l-1.8,2.9C112.1,37.9,118.3,42.2,121.3,47.1z"/>
</g>
</svg>
