<?xml version="1.0" encoding="utf-8"?>
<!-- Generator: Adobe Illustrator 19.0.0, SVG Export Plug-In . SVG Version: 6.00 Build 0)  -->
<svg version="1.1" id="圖層_1" xmlns="http://www.w3.org/2000/svg" xmlns:xlink="http://www.w3.org/1999/xlink" x="0px" y="0px"
	 viewBox="45 -33.8 150 150" style="enable-background:new 45 -33.8 150 150;" xml:space="preserve">
<style type="text/css">
	.st0{enable-background:new    ;}
	.st1{fill:#DC6200;}
</style>
<g class="st0">
	<path class="st1" d="M77.4,38.2h80.6v9.3h9V-6.7l4-2.6c0.9-0.6,1.4-1.2,1.4-1.8c0-1.5-3.2-4.8-9.7-9.9l-6.1,7.5H78.7
		c-3.4-2-6.8-3.8-10.3-5.4v66.2h9V38.2z M121.6-9.7h36.3v44.2h-36.3V-9.7z M77.4-9.7h35.4v44.2H77.4V-9.7z"/>
	<path d="M179,84.4c-0.9-3.3-1.4-10.3-1.4-21l-4-1.2c-1,16.4-3.5,25.4-7.5,27.1c-3.3,1.3-17.8,2-43.4,2c-23.7,0-37.7-0.5-41.8-1.5
		c-2.3-0.6-3.4-2.6-3.4-5.9V47.4h-9v36.7c0,7.1,2,11.5,5.9,13.2c3.9,1.6,20.5,2.4,49.8,2.4c30.2,0,48.2-0.7,54.2-2
		c4.5-0.9,6.9-3.8,7.2-8.9C182,88.9,179.8,87.4,179,84.4z"/>
</g>
</svg>
