<?xml version="1.0" encoding="utf-8"?>
<!-- Generator: Adobe Illustrator 19.0.0, SVG Export Plug-In . SVG Version: 6.00 Build 0)  -->
<svg version="1.1" id="圖層_1" xmlns="http://www.w3.org/2000/svg" xmlns:xlink="http://www.w3.org/1999/xlink" x="0px" y="0px"
	 viewBox="45 -33.8 150 150" style="enable-background:new 45 -33.8 150 150;" xml:space="preserve">
<style type="text/css">
	.st0{enable-background:new    ;}
	.st1{fill:#DC6200;}
</style>
<g class="st0">
	<path d="M66.2,24.3c0.7,2.5,2.3,3.7,4.6,3.7c3.5,0,5.3-1.9,5.3-5.7c0-6.8-7.1-12.4-21.2-16.8l-1.5,2.6C60,12.8,64.2,18.1,66.2,24.3
		z"/>
	<path d="M77.6-8.7c0.9,2.4,2.4,3.6,4.5,3.6c3.6,0,5.4-2,5.4-6c0-6.9-7.3-12.1-22-15.7l-1.7,3C70.7-19.9,75.3-14.9,77.6-8.7z"/>
	<path d="M165.1,29.8l-5.3,6.3h-45.9c-2.9-1.5-6.3-2.9-10.2-4.3v73.5h8.6V68.4h48.6v19.5c0,2.9-1.6,4.3-4.8,4.3
		c-6.3,0-12.4-0.3-18.3-0.9v3.9c6.6,1.1,11,2,13,2.9c2.7,1,4.2,3.1,4.3,6.2c9.4,0,14.1-4,14.1-12V43l3.7-2.6c0.8-0.5,1.2-1,1.2-1.6
		C174.2,37.4,171.2,34.4,165.1,29.8z M131.9,64.7h-19.6V39.8h19.6V64.7z M160.8,64.7H140V39.8h20.8V64.7z"/>
	<path class="st1" d="M140.6,6.6h33.8l1.3-2.7c-3.1-3.8-6.3-6.9-9.4-9.4l-6.3,8.4h-19.3V-9.3h39.9L182-12c-2.9-3.5-6.1-6.7-9.7-9.7
		l-6.7,8.7h-24.9v-9.7c3.9-1.5,5.9-2.9,5.9-4c0-2.4-4.8-3.7-14.4-3.8v17.6H94.8l1.7,3.7H132V2.8h-30.6l1.7,3.7H132v13.8h8.6V6.6z"/>
	<path d="M177.5,11.2l-7.2,9.3h-29.7v-0.1H132v0.1H92.7l1.9,3.7h91.1l1.4-2.9C184.7,18.5,181.5,15.1,177.5,11.2z"/>
	<path d="M98.4,0.4l-3.6-2.3c-8.4,24.8-16.7,44.8-24.9,60c-2,3.5-5.1,5.3-9.4,5.3c-1.6,0-3.8-0.2-6.4-0.7v4c4.3,0.9,7.5,2.2,9.5,3.9
		c2.5,2.2,3.7,5.9,3.7,11.1c0,2.9-0.4,6.9-1.2,11.9c-0.6,3.6-0.9,5.8-0.9,6.4c0,3.2,1.7,4.8,5.1,4.8c4.6,0,6.9-3.1,6.9-9.4
		c0-4.1-0.6-8.7-1.8-13.8c-0.5-2.7-0.7-4.7-0.7-6.1c0-2.6,0.7-6.1,2.2-10.5L98.4,0.4z"/>
</g>
</svg>
