<?xml version="1.0" encoding="utf-8"?>
<!-- Generator: Adobe Illustrator 19.0.0, SVG Export Plug-In . SVG Version: 6.00 Build 0)  -->
<svg version="1.1" id="圖層_1" xmlns="http://www.w3.org/2000/svg" xmlns:xlink="http://www.w3.org/1999/xlink" x="0px" y="0px"
	 viewBox="45 -33.8 150 150" style="enable-background:new 45 -33.8 150 150;" xml:space="preserve">
<style type="text/css">
	.st0{enable-background:new    ;}
	.st1{fill:#DC6200;}
</style>
<g class="st0">
	<path d="M153.5,72.6c-3-3.8-6.6-7.5-10.8-11.2l-8.3,10.3H56.7l1.7,3.7h93.2L153.5,72.6z"/>
	<path class="st1" d="M152.2-7.2v27.8c0,3.2-1.7,4.8-5.1,4.8c-4.7,0-10.5-0.4-17.4-1.2V28c5.9,0.8,10.1,1.7,12.6,2.6
		c2.8,1,4.3,2.9,4.5,5.6c9.2,0,13.8-3.3,13.8-9.9V-4.3l3.3-2c0.9-0.4,1.3-1,1.3-1.6c0-1.2-3-4.4-9-9.4l-5.9,6.4h-40.9
		c3.8-3.8,6.8-7.2,9.2-10.4c4.1-0.6,6.2-1.5,6.2-2.7c0-1.9-4.8-4.1-14.5-6.4c-1.6,7.5-3.7,14-6.3,19.6H85.4l-0.8,3.7H152.2z"/>
	<path d="M123.2,7.8c-6.4-3.1-13.5-5.4-21.4-6.9l-1.8,3c8.3,3.7,15.3,8.2,20.9,13.5c1.7,2,3.1,3,4.2,3c3.2,0,4.8-1.6,4.8-4.8
		C130,13.1,127.7,10.5,123.2,7.8z"/>
	<path d="M173.5,39.2l-5.9,7.5H84.1V-7.2h0.4l0.8-3.7h-0.1c-3.7-2.1-7.1-3.7-10.2-5v71.8h9v-5.5h84.7c-1,20.6-3.8,34.2-8.4,40.6
		c-1.5,2.2-4.4,3.3-8.9,3.3c-5.1,0-13.8-0.9-25.9-2.7v4c8.8,1.7,14.7,3.1,17.7,4.2c3.8,1.5,5.7,3.7,5.9,6.4c9.6,0,16.2-3.1,19.8-9.4
		c4.6-8.3,7.5-22.7,8.7-43.2l4.2-2.7c0.7-0.4,1-0.9,1-1.6C182.9,47.8,179.8,44.4,173.5,39.2z"/>
</g>
</svg>
