<?xml version="1.0" encoding="utf-8"?>
<!-- Generator: Adobe Illustrator 19.0.0, SVG Export Plug-In . SVG Version: 6.00 Build 0)  -->
<svg version="1.1" id="圖層_1" xmlns="http://www.w3.org/2000/svg" xmlns:xlink="http://www.w3.org/1999/xlink" x="0px" y="0px"
	 viewBox="45 -33.8 150 150" style="enable-background:new 45 -33.8 150 150;" xml:space="preserve">
<style type="text/css">
	.st0{enable-background:new    ;}
	.st1{fill:#DC6200;}
</style>
<g class="st0">
	<path d="M135.3,19.4H92l1.5,3.7h93.5l2-3.1c-3.3-3.7-6.8-7.1-10.5-10l-7.3,9.4h-27.3v-0.1L135.3,19.4L135.3,19.4z"/>
	<path class="st1" d="M112.1,4h23.2v15.3h8.4V4h21.8v6h8.4v-25.6c4-1.3,6-2.6,6-3.9c0-2.1-4.8-3.1-14.4-3.3V0.3h-21.8v-22.3
		c4-1.3,6-2.6,6-3.9c0-2-4.8-3.2-14.4-3.5V0.3h-23.2v-15.7c3.8-1.5,5.7-2.9,5.7-4c0-2.1-4.7-3.3-14.1-3.4v33h8.4V4z"/>
	<path d="M94.2-6.3c0-1.5-2.9-4.5-8.6-9.2l-5.5,6.6H66.8c-2.8-1.8-6.1-3.5-9.9-5.2v94.8h8.4V64.4h16.2v10.7h8.1V-2.4l3.9-2.7
		C94-5.5,94.2-5.9,94.2-6.3z M81.5,60.7H65.3V-5.2h16.2V60.7z"/>
	<path d="M158.9,72.1l-2,2.9c5.3,3.9,9.8,8.2,13.3,12.7c-10.6,0.9-19.7,1.5-27.4,1.9V67.7h23.5v5.1h8.4v-24l3.7-2.4
		c0.8-0.5,1.2-1.1,1.2-1.8c0-1.5-3-4.4-9-8.7l-5.6,6h-22.3v-8.1c3.9-1.3,5.9-2.6,5.9-3.9c0-2-4.8-3.2-14.4-3.5v15.5h-21.6
		c-3.3-1.6-6.6-3-9.9-4.2V76h8.4v-8.3h23.1v22.3c-16.6,0.9-30.8,1.4-42.6,1.5c2.2,9.1,4.2,13.6,6,13.6c1.2,0,2.3-1.9,3.3-5.7
		c22.6-1.6,45.3-4.1,68.3-7.5l4.1-0.6c2,3.1,3.6,6,4.9,8.9c0.9,2,2.4,3,4.3,3c3.4,0,5.1-1.9,5.1-5.6c0-2.7-1.5-5.7-4.5-9
		C177.6,82.6,169.5,77.1,158.9,72.1z M142.9,45.7h23.5V64h-23.5V45.7z M134.3,64h-23.1V45.7h23.1V64z"/>
</g>
</svg>
