<?xml version="1.0" encoding="utf-8"?>
<!-- Generator: Adobe Illustrator 19.0.0, SVG Export Plug-In . SVG Version: 6.00 Build 0)  -->
<svg version="1.1" id="圖層_1" xmlns="http://www.w3.org/2000/svg" xmlns:xlink="http://www.w3.org/1999/xlink" x="0px" y="0px"
	 viewBox="45 -33.8 150 150" style="enable-background:new 45 -33.8 150 150;" xml:space="preserve">
<style type="text/css">
	.st0{enable-background:new    ;}
	.st1{fill:#DC6200;}
</style>
<g class="st0">
	<path d="M106.4,16.6h47.4v7h8.4v-36.7l3.6-2.3c0.8-0.5,1.2-1,1.2-1.6c0-1.3-3-4.3-8.9-9.2l-5.6,6.7H108c-2.5-1.2-5.9-2.6-10-4.2
		v47.8h8.4V16.6z M106.4-15.6h47.4v28.5h-47.4V-15.6z"/>
	<path d="M124.2,64.6h61.1l1.8-3.1c-2.6-3.4-5.7-6.8-9.3-10l-7.3,9.4h-9.6v-0.1h-8.7v0.1h-31.3c1.8-6.4,2.7-13.7,2.9-22.1h-9
		c-0.2,8.6-1.2,16-3.1,22.1H53.3l1.7,3.7h55.3c-3,7.6-7.8,14.4-14.5,20.4c-9.2,8.1-23.3,13.8-42.2,17.1l1.8,3.7
		c20-2.5,34.8-7.5,44.5-14.9c9.3-7,15.8-15.7,19.5-26.1c12.1,19.4,31.7,32.6,58.9,39.8c1.6-3.5,4.2-6.6,7.7-9.3
		C158.8,90.6,138.2,80.3,124.2,64.6z"/>
	<path d="M79.7,34.9V-8.2c4.3-1.3,6.4-2.7,6.4-4c0-2.1-5-3.4-15-3.9v62.7h8.6v-8h34.9c0,0,0,0.1,0,0.1h7.9v-3.8H79.7z"/>
	<path class="st1" d="M156.3,28.9l-5.3,6h-28.5v3.8h1.1c0,0,0-0.1,0-0.1h28.5v22.1h8.7V41.7l3.7-2.3c0.8-0.5,1.2-1,1.2-1.6
		C165.8,36.9,162.6,33.9,156.3,28.9z"/>
</g>
</svg>
