<?xml version="1.0" encoding="utf-8"?>
<!-- Generator: Adobe Illustrator 19.0.0, SVG Export Plug-In . SVG Version: 6.00 Build 0)  -->
<svg version="1.1" id="圖層_1" xmlns="http://www.w3.org/2000/svg" xmlns:xlink="http://www.w3.org/1999/xlink" x="0px" y="0px"
	 viewBox="45 -33.8 150 150" style="enable-background:new 45 -33.8 150 150;" xml:space="preserve">
<style type="text/css">
	.st0{enable-background:new    ;}
	.st1{fill:#DC6200;}
</style>
<g class="st0">
	<path d="M180.3,81.6l-6.6,11.7h-6.7v-0.1h-9.2v0.1h-20.2V-4.6H129v97.9h-19.9V-4.6h-8.9v97.9H80.7v-0.1h-9.2v0.1H50.7l1.5,3.7H187
		l1.7-3C186.4,89.9,183.6,85.8,180.3,81.6z"/>
	<path class="st1" d="M80.7-4.7h19.5v0.1h8.9v-0.1H129v0.1h8.6v-0.1h20.2v97.9h9.2V-2l3.3-2.3c1-0.7,1.5-1.4,1.5-2.1
		c0-1.2-3.1-4.3-9.4-9.4l-5.9,7.3H82.1c-3.8-2-7.3-3.6-10.5-4.9V93.2h9.2V-4.7z"/>
</g>
</svg>
