<?xml version="1.0" encoding="utf-8"?>
<!-- Generator: Adobe Illustrator 19.0.0, SVG Export Plug-In . SVG Version: 6.00 Build 0)  -->
<svg version="1.1" id="圖層_1" xmlns="http://www.w3.org/2000/svg" xmlns:xlink="http://www.w3.org/1999/xlink" x="0px" y="0px"
	 viewBox="45 -33.8 150 150" style="enable-background:new 45 -33.8 150 150;" xml:space="preserve">
<style type="text/css">
	.st0{enable-background:new    ;}
	.st1{fill:#DC6200;}
</style>
<g class="st0">
	<path d="M113.3,8.7c0-2.4-4.7-4.6-14.1-6.5C92.5,21.7,78.4,36,57,45.1l2,3.3c22.8-6.8,38.6-19.1,47.4-37.1
		C111,10.9,113.3,10,113.3,8.7z"/>
	<path class="st1" d="M174.1,85.2l-8.4,10H124V57.7h46.5l1.6-2.6c-2.8-3.2-6.4-6.7-10.8-10.5l-8,9.3H68.7l1.7,3.7h44.4v37.5H56.4
		l2,3.7h125.2l1.5-2.7C182.2,92.6,178.4,88.9,174.1,85.2z"/>
	<path d="M174.3-13.8l-6.2,7.3h-44.4v-15.3c4.4-1.7,6.6-3.1,6.6-4.3c0-2.2-5.2-3.4-15.5-3.6v23.2H73c-0.5-3.2-0.9-5-1-5.4l-3.6-0.3
		c-0.9,11.7-4.2,20.5-10,26.4c-1.4,1.6-2.1,3.1-2.1,4.7c0,3.3,1.9,4.9,5.7,4.9c3,0,5.7-2.2,8-6.7c2.5-4.9,3.6-11.5,3.3-19.8h53.9
		v31.6c0,4.5,1,7.5,3,9c2.1,1.4,9.7,2.1,22.7,2.1c12.2,0,20.1-0.7,23.7-2c2.7-1,4.1-3.3,4.2-6.7c-2,0-3.2-0.5-3.8-1.5
		c-0.7-1.2-1-4.3-1-9.2c0-3.1,0-5.5,0.1-7.2l-3.6-0.7c-1,8.5-2,13.7-3.1,15.6c-0.7,1.3-1.8,2.2-3.4,2.7c-2.1,0.6-6.5,0.9-13.1,0.9
		c-8.9,0-14-0.2-15.3-0.6c-1.2-0.4-1.8-1.7-1.8-3.9V-2.7h33c-1.7,4.4-4.1,8.9-7.2,13.3l2.7,2.3c6.2-4.1,10.7-7.6,13.8-10.6l5.6-0.8
		c1.4-0.1,2.1-0.7,2.1-1.6C185.8-2.3,182-6.8,174.3-13.8z"/>
</g>
</svg>
