<?xml version="1.0" encoding="utf-8"?>
<!-- Generator: Adobe Illustrator 19.0.0, SVG Export Plug-In . SVG Version: 6.00 Build 0)  -->
<svg version="1.1" id="圖層_1" xmlns="http://www.w3.org/2000/svg" xmlns:xlink="http://www.w3.org/1999/xlink" x="0px" y="0px"
	 viewBox="45 -33.8 150 150" style="enable-background:new 45 -33.8 150 150;" xml:space="preserve">
<style type="text/css">
	.st0{enable-background:new    ;}
	.st1{fill:#DC6200;}
</style>
<g class="st0">
	<path d="M182,89.2c-7.7-4.6-18.2-8.4-31.5-11.2l-1.8,3.3c13.3,5.4,23,11.5,29.3,18.2c2.2,2.4,4.1,3.6,5.6,3.6
		c3.4,0,5.1-1.9,5.1-5.7C188.7,94.5,186.5,91.8,182,89.2z"/>
	<path d="M125.9,78c-10,10.4-22.6,18.3-37.9,23.8l2.2,3.4c16.1-4.2,29.3-10,39.6-17.5c2,0.2,3.2,0.3,3.6,0.3c2.5,0,3.7-0.6,3.7-1.7
		C137.1,84.5,133.3,81.7,125.9,78z"/>
	<path d="M136.8-16.1c-0.7,6.2-1.8,12.6-3.4,19.3h-12.2c-4-2.1-7.2-3.8-9.7-5v80.3h8.7v-6h45.7v6h8.9V9.7l3.9-2.6
		c0.7-0.4,1.1-1,1.1-1.6c0-1.5-3.2-4.7-9.5-9.5l-5.6,7.1h-26.6c4.6-7,8.3-13.4,10.8-19.3h36.9l1.6-2.7c-4.1-4.5-7.7-8.1-10.9-10.8
		l-7.8,9.7H98.7l1.6,3.7H136.8z M165.8,68.7h-45.7V49.1h45.7V68.7z M165.8,45.4h-45.7V27.2h45.7V45.4z M165.8,6.9v16.6h-45.7V6.9
		H165.8z"/>
</g>
<g>
	<path class="st1" d="M102,23.2l1.5-3.1c-2.4-3.5-5.2-6.8-8.3-9.9l-6.7,9.3H69.8v-35.2c4.3-1.5,6.4-2.9,6.4-4.2c0-2.3-5-3.5-15-3.7
		v99.9c-5.6,1.4-2.2,0.6-7.9,1.7c2.8,8.7,5.2,13,7.2,13c1.2,0,2.1-2.1,2.7-6.2c15-5.2,28.8-11,41.4-17.4l-0.7-4.1
		c-7.2,2.9-22.2,8.1-34,10.4V23.2H102z"/>
</g>
</svg>
