<?xml version="1.0" encoding="utf-8"?>
<!-- Generator: Adobe Illustrator 19.0.0, SVG Export Plug-In . SVG Version: 6.00 Build 0)  -->
<svg version="1.1" id="圖層_1" xmlns="http://www.w3.org/2000/svg" xmlns:xlink="http://www.w3.org/1999/xlink" x="0px" y="0px"
	 viewBox="45 -33.8 150 150" style="enable-background:new 45 -33.8 150 150;" xml:space="preserve">
<style type="text/css">
	.st0{enable-background:new    ;}
	.st1{fill:#DC6200;}
</style>
<g class="st0">
	<path class="st1" d="M81.5-12.5c4.4,3.7,7.1,8.2,8.2,13.3C90.4,4.3,91.9,6,94.3,6c3.4,0,5.1-1.8,5.1-5.3c0-4.6-3.9-9-11.6-13.2
		h30.4l1.8-2.7c-1.8-2.7-4.7-6-8.7-9.9l-6.4,8.9H78.5c1-2.2,2-4.9,3-8c4.1-0.9,6.2-1.9,6.2-3c0-2-4.7-3.5-14-4.6
		c-3.9,18-11.3,32.8-22,44.5l2.6,2.7C64.2,7.2,71.7-2.1,76.6-12.5H81.5z"/>
	<path class="st1" d="M176.3-25.5l-6.6,9.3h-33c1.1-1.8,2-3.9,2.7-6.3c4.2-0.7,6.3-1.7,6.3-2.9c0-1.8-4.3-3.5-12.9-5
		C128.7-16,122.5-4.3,114,4.8l2.6,2.2C124,1.6,130-4.9,134.7-12.5h2.2c5.5,4.6,8.7,9.5,9.8,14.7c0.4,2.5,2,3.7,4.6,3.7
		c3.5,0,5.3-1.8,5.3-5.4c0-4.5-4.2-8.8-12.7-13H184l1.7-2.7C183.3-18.5,180.2-21.9,176.3-25.5z"/>
	<path d="M104,45.7h7.8V15.1l3.1-2.3c0.8-0.6,1.2-1.2,1.2-1.7c0-1.2-2.8-3.8-8.3-7.9l-4.9,6H73.3c-3.8-1.7-6.8-2.8-9-3.4v99.4h8.6
		V39.8H104V45.7z M72.9,13H104v9.3H72.9V13z M72.9,36.1v-10H104v10H72.9z"/>
	<path d="M172.8,2.8l-5.4,6.4h-30.6l-1.6-0.9c-2.7-1.3-5.2-2.3-7.5-3.1v39.1h8v-4.5h33V88c0,3-1.6,4.5-4.8,4.5
		c-4.3,0-9.7-0.3-16.1-0.9v3.9c10.4,1.7,15.7,4.6,15.7,8.9c9.1,0.1,13.7-3.3,13.7-10.5V16l3.4-2.3c1-0.7,1.5-1.3,1.5-1.9
		C182,10.6,178.9,7.6,172.8,2.8z M168.6,36.1h-33v-10h33V36.1z M168.6,22.3h-33V13h33V22.3z"/>
	<path d="M138.4,46.6l-4.9,5.6h-28.9c-3.6-1.6-6.8-2.9-9.7-3.7v49.4h8.1v-8.9h31.6v8h8.1V58.6l3-2.1c1-0.7,1.5-1.4,1.5-2.1
		C147.1,53.2,144.2,50.6,138.4,46.6z M134.5,85.2h-31.6V72h31.6V85.2z M134.5,68.2h-31.6V55.9h31.6V68.2z"/>
</g>
</svg>
