<?xml version="1.0" encoding="utf-8"?>
<!-- Generator: Adobe Illustrator 19.0.0, SVG Export Plug-In . SVG Version: 6.00 Build 0)  -->
<svg version="1.1" id="圖層_1" xmlns="http://www.w3.org/2000/svg" xmlns:xlink="http://www.w3.org/1999/xlink" x="0px" y="0px"
	 viewBox="45 -33.8 150 150" style="enable-background:new 45 -33.8 150 150;" xml:space="preserve">
<style type="text/css">
	.st0{enable-background:new    ;}
	.st1{fill:#DC6200;}
</style>
<g class="st0">
	<path class="st1" d="M149.1-9l-2.4,2.7c8.5,8.1,14.7,16.9,18.5,26.4c1.4,3.5,3.3,5.3,5.9,5.3c3.5,0,5.3-1.9,5.3-5.7
		c0-4.2-2.1-8.6-6.3-13.3C165.2,1,158.3-4.1,149.1-9z"/>
	<path class="st1" d="M88.4-8.4c27-1.5,51.7-4.6,74.2-9.2c2.5,0.6,4.5,0.9,5.9,0.9c2,0,3-0.5,3-1.5c0-2-3.7-5.2-11.2-9.7
		c-17.2,6.1-40.5,11-69.9,14.9c-4.7-2.1-8.4-3.6-11.2-4.5c-3.2,17.5-9.6,34.5-19.3,51l3.1,2.1C74.5,22.1,83,7.4,88.4-8.4z"/>
	<path class="st1" d="M105-4.1c5.8,6.4,9.5,13.1,11.3,20.2c1,3.9,2.8,5.9,5.5,5.9c3.5,0,5.3-2.1,5.3-6.2c0-7.3-6.4-14.8-19.3-22.5
		L105-4.1z"/>
	<path d="M125.9,50.2H182l1.6-2.9c-2.8-3.6-6.3-7.2-10.3-10.8l-8,9.9h-41.5V37c4.1-1.7,6.2-3.1,6.2-4.2c0-2-5-3.1-15-3.6v17.2H56.8
		l1.4,3.7h52.4c-15,18.6-34.6,33.4-58.8,44.7l1.9,3.4c25.2-9.6,45.7-22.7,61.2-39.1v46h8.9V53.5c14.2,17.3,33.1,31.4,56.7,42.3
		c1.8-3.8,4.1-7,7.2-9.6C163.3,77.7,142.8,65.7,125.9,50.2z"/>
</g>
</svg>
