<?xml version="1.0" encoding="utf-8"?>
<!-- Generator: Adobe Illustrator 19.0.0, SVG Export Plug-In . SVG Version: 6.00 Build 0)  -->
<svg version="1.1" id="圖層_1" xmlns="http://www.w3.org/2000/svg" xmlns:xlink="http://www.w3.org/1999/xlink" x="0px" y="0px"
	 viewBox="45 -33.8 150 150" style="enable-background:new 45 -33.8 150 150;" xml:space="preserve">
<style type="text/css">
	.st0{enable-background:new    ;}
	.st1{fill:#DC6200;}
</style>
<g class="st0">
	<path d="M171.1,85l-8.7,10H56.9l1.6,3.7H181l1.7-3.1C177.7,90.5,173.8,86.9,171.1,85z"/>
	<path class="st1" d="M104.8,22.9l4.2-2.1c1.1-0.6,1.7-1.2,1.7-1.8c0-1.4-3.2-4.7-9.6-9.9L95.5,16H58.5l1.5,3.7h36.3
		C86.3,43.5,71.5,61.6,51.9,74l2.6,3.3C77.7,65.5,94.5,47.4,104.8,22.9z"/>
	<path d="M155.3-11.6l5.1-0.7c1.3-0.1,2-0.6,2-1.4c0-1.7-3.7-5.5-11.1-11.4l-6.3,6.9H74.3l1.5,3.7h68.8C138.7-9,132.2-3.9,125.1,0.9
		l4.7,1.5C140.7-2.8,149.3-7.5,155.3-11.6z"/>
	<path class="st1" d="M145.2,35.5c11-7,20-13.9,27-20.7c2,0.3,3.3,0.5,4,0.5c2.1,0,3.1-0.6,3.1-1.7c0-2-3.8-5.5-11.4-10.6
		c-7.4,10.5-15.9,20.2-25.5,29.1c-5.7-7.3-10.7-15.8-15-25.5c2.3-0.9,3.4-1.8,3.4-2.6c0-0.5-0.4-1-1.2-1.5c0,0,0,0,0,0l-4.7-1.5
		c0,0-0.1,0.1-0.1,0.1c-2.1-0.4-4.8-0.7-8.1-0.9v69.6c0,3.2-1.8,4.8-5.3,4.8c-5.8,0-12.6-0.4-20.5-1.3v4c6.7,1,11.6,2.1,14.5,3.3
		c3,1.4,4.5,3.5,4.5,6.3c10.2,0,15.3-4.1,15.3-12.5V11.2c9.3,27.1,27.6,48,54.9,62.8c1.3-3.1,3.7-6.1,7-8.8
		C169.8,57.2,155.7,47.3,145.2,35.5z"/>
</g>
</svg>
