<?xml version="1.0" encoding="utf-8"?>
<!-- Generator: Adobe Illustrator 19.0.0, SVG Export Plug-In . SVG Version: 6.00 Build 0)  -->
<svg version="1.1" id="圖層_1" xmlns="http://www.w3.org/2000/svg" xmlns:xlink="http://www.w3.org/1999/xlink" x="0px" y="0px"
	 viewBox="45 -33.8 150 150" style="enable-background:new 45 -33.8 150 150;" xml:space="preserve">
<style type="text/css">
	.st0{enable-background:new    ;}
	.st1{fill:#DC6200;}
</style>
<g class="st0">
	<path class="st1" d="M86.3,103.2h8.9v-12h66.7v12h8.9V42.7l3.9-2.6c1.1-0.8,1.7-1.5,1.7-2.1c0-1.3-3.3-4.5-10-9.6l-6.2,7.5H96.3
		c-1.7-0.8-2.9-1.4-3.6-1.8l-6.4,9.2V103.2z M95.2,39.7h66.7v47.8H95.2V39.7z"/>
	<path d="M111.9-6.3l0.9-2.4h71.3l1.6-3.1c-4-4.5-7.8-8.2-11.4-11.1l-8.6,10.5H55.3l1.3,3.7h46.1c-10.5,33.6-28,60.4-52.5,80.4
		l2.6,3.3c13.2-9.4,24.4-20,33.6-31.9v0.2l6.4-9.2c0,0-0.1,0-0.1-0.1C100.1,22.4,106.5,9,111.9-6.3z"/>
</g>
</svg>
