<?xml version="1.0" encoding="utf-8"?>
<!-- Generator: Adobe Illustrator 19.0.0, SVG Export Plug-In . SVG Version: 6.00 Build 0)  -->
<svg version="1.1" id="圖層_1" xmlns="http://www.w3.org/2000/svg" xmlns:xlink="http://www.w3.org/1999/xlink" x="0px" y="0px"
	 viewBox="45 -33.8 150 150" style="enable-background:new 45 -33.8 150 150;" xml:space="preserve">
<style type="text/css">
	.st0{enable-background:new    ;}
	.st1{fill:#DC6200;}
</style>
<g class="st0">
	<path d="M72.5,76c0-2.6,0.8-6.2,2.3-10.8L96.1-1.1l-3.7-2.5C84,22,75.8,42.6,67.8,58.3c-1.7,3.4-4.5,5.1-8.6,5.1
		c-1.2,0-3.1-0.2-5.6-0.7v3.9c3.1,0.6,5.5,1.4,7.1,2.6c2.9,2,4.3,6,4.3,12c0,3.5-0.5,9.2-1.5,17.1c-0.1,0.5-0.1,1-0.1,1.6
		c0,3.3,1.8,5,5.4,5c4.3,0,6.4-3,6.4-8.9c0-3.6-0.7-8.4-2-14.6C72.8,78.7,72.5,77,72.5,76z"/>
	<path d="M73.8-9.5c1,3,2.5,4.5,4.3,4.5c3.6,0,5.4-1.9,5.4-5.7c0-6.6-6.7-12-20.1-16.2L61.6-24C68-19.7,72-14.8,73.8-9.5z"/>
	<path d="M63.6,22.6c0.9,3.6,2.5,5.4,4.9,5.4c3.3,0,5-1.9,5-5.6c0-6.8-6.3-12.4-18.9-16.8l-1.8,2.5C58.9,12.9,62.5,17.7,63.6,22.6z"
		/>
	<path d="M103.3,73.3c0,5.7,1.8,9.3,5.3,10.8c2.2,1,11.1,1.5,26.7,1.5c14,0,22.3-0.5,25-1.5c2.1-0.7,3.7-1.7,4.6-3
		c1.3-2,1-3.8-0.8-5.5c-1.3-1.1-3.1-1.2-5.3-0.4c-5.5,2.1-13.2,3.2-23.1,3.2c-12.5,0-19.6-0.3-21.1-0.9c-2.1-0.7-3.1-2.8-3.1-6.2V57
		c3-1.1,4.5-2.2,4.5-3.3c0-1.8-2.8-3-8.3-3.4l-4.3,3.8V73.3z"/>
	<path class="st1" d="M176.8,29.6l-5.6,6.6h-51c3.6-4.9,6.9-10.1,9.8-15.3h-10.2C111.1,38.8,99,52.5,83.8,62.2l2.1,3.4
		c6.2-3.3,12-7.2,17.4-11.7V54l4.3-3.8c0,0-0.1,0-0.1,0c3.4-3.1,6.6-6.6,9.7-10.4h55.4c-0.1,20.7-1.7,35.9-4.7,45.5
		c-1.5,4.8-4.6,7.2-9.3,7.2c-6.3,0-12.3-0.5-18-1.5v4.2c6.4,1.1,10.9,2.1,13.5,3.1c2.8,1.2,4.2,3.1,4.4,5.9c7.8-0.4,13.2-3.5,16-9.3
		c4.1-8.6,6.3-25.8,6.6-51.5l3.8-2.7c0.9-0.6,1.3-1.2,1.3-1.9C186.3,37.5,183.1,34.4,176.8,29.6z"/>
	<path d="M130.2,20.8H159v5.1h8.6v-41.1l3.7-2.4c0.9-0.6,1.4-1.2,1.4-1.9c0-1.6-3.1-4.6-9.2-9l-5.4,6.4h-45.8
		c-3.5-2.1-6.9-3.7-10.2-5v52.7h8.4v-4.8h9.4c0,0,0,0.1-0.1,0.1h10.2C130.1,20.9,130.2,20.8,130.2,20.8z M110.6,17V1.9h46.5l1.8-2.6
		c-2.1-2.4-4.5-4.8-7.3-7.2l-4.7,6.1h-36.3v-16.5H159V17H110.6z"/>
	<path d="M148.1,47.4c0-1.9-4.1-3.8-12.2-5.7c-2.8,13-8.3,23.4-16.3,31.2l2.7,2.6c6.8-4.6,12.3-10.6,16.4-17.9
		c5,3.5,8.4,7.2,10.3,11c1.4,2.6,2.8,3.9,4.3,3.9c3,0,4.5-1.6,4.5-4.8c0-5.1-5.8-9.6-17.4-13.3c0.2-0.4,0.9-1.9,2-4.3
		C146.3,49.5,148.1,48.6,148.1,47.4z"/>
</g>
</svg>
