<?xml version="1.0" encoding="utf-8"?>
<!-- Generator: Adobe Illustrator 19.0.0, SVG Export Plug-In . SVG Version: 6.00 Build 0)  -->
<svg version="1.1" id="圖層_1" xmlns="http://www.w3.org/2000/svg" xmlns:xlink="http://www.w3.org/1999/xlink" x="0px" y="0px"
	 viewBox="45 -33.8 150 150" style="enable-background:new 45 -33.8 150 150;" xml:space="preserve">
<style type="text/css">
	.st0{enable-background:new    ;}
	.st1{fill:#DC6200;}
</style>
<g class="st0">
	<path d="M92.4-19c4.3,0,6.4-0.7,6.4-2.2c0-2.1-3.8-4.9-11.4-8.4c-8.6,17.2-20.3,32.2-34.9,45l2.4,2.7C69.7,8.1,82.2-4.3,92.4-19z"
		/>
	<path d="M80.9,31.8c5-7,9.5-14.5,13.5-22.4c4.3-0.3,6.5-1.2,6.5-2.6c0-2.2-4-4.7-11.9-7.5c-9.7,23.2-22.2,43.1-37.5,59.5l2.7,2.6
		c7.9-6.8,14.9-14.1,21-21.9v65.8h8.4V38.8c3.5-1.1,5.3-2.2,5.3-3.4C88.9,33.7,86.2,32.5,80.9,31.8z"/>
	<path class="st1" d="M111,89.6c-4.2,0.8-10.2,1.6-18,2.6c2.5,9.2,4.8,13.8,6.7,13.8c1.1,0,2.1-2,3-5.9c16.5-4.1,31.7-8.9,45.5-14.5
		l-1.1-4.1c-9.6,2.6-18.8,4.8-27.4,6.6V37.4H111V89.6z"/>
	<path class="st1" d="M154.6,70.4c6.4-4.3,13.5-9.8,21-16.6c0.8,0.1,1.8,0.2,3,0.2c2.3,0,3.4-0.6,3.4-1.7c0-1.9-3.6-5.2-10.7-9.9
		c-5.5,9.1-12,17.2-19.3,24.3c-5.5-7.9-9.7-17.7-12.4-29.4H135c4.8,29.7,19.8,51.7,44.9,65.8c2-3.4,4.5-6.3,7.6-8.9
		C172.9,88,161.9,80,154.6,70.4z"/>
	<path d="M139.6,37.3h21V43h8.6v-54.8l3.7-2.4c1-0.6,1.5-1.3,1.5-2.1c0-1.4-3.1-4.5-9.4-9.2l-5.7,7h-38.5c-3.6-2.2-6.9-3.9-9.9-5.1
		v60.9h8.7v-0.1h15.2c0,0,0,0,0,0.1L139.6,37.3C139.6,37.4,139.6,37.4,139.6,37.3z M119.7-14.6h40.9V6.7h-40.9V-14.6z M119.7,33.6
		V10.5h40.9v23.1H119.7z"/>
</g>
</svg>
