<?xml version="1.0" encoding="utf-8"?>
<!-- Generator: Adobe Illustrator 19.0.0, SVG Export Plug-In . SVG Version: 6.00 Build 0)  -->
<svg version="1.1" id="圖層_1" xmlns="http://www.w3.org/2000/svg" xmlns:xlink="http://www.w3.org/1999/xlink" x="0px" y="0px"
	 viewBox="45 -33.8 150 150" style="enable-background:new 45 -33.8 150 150;" xml:space="preserve">
<style type="text/css">
	.st0{enable-background:new    ;}
	.st1{fill:#DC6200;}
</style>
<g class="st0">
	<path class="st1" d="M90-25.4c0-2.3-5.1-3.6-15.2-3.9v134.5h8.7v-126C87.8-22.6,90-24.1,90-25.4z"/>
	<path class="st1" d="M61.3-0.3c-0.1,16-2.2,27.6-6.3,34.6c-1.6,2.6-2.4,4.4-2.4,5.6c0,2.9,1.7,4.3,5,4.3c6.4,0,9.6-8.3,9.6-24.8
		c0-5.2-0.7-11.7-2-19.3L61.3-0.3z"/>
	<path d="M173.8-4.2l-6,7.5h-29.2c4.3-7.2,8.2-15,11.4-23.4c4-0.7,6-1.7,6-2.9c0-2.2-5-4.4-15-6.5c-1.7,12.8-4.1,23.8-7.2,32.9
		h-13.8l-2.6-1.5c-2.8-1.6-5.3-2.8-7.5-3.6v107.1h8.9V94.5h50.4v10.8h8.7V10l3.9-2.6c0.8-0.5,1.2-1.1,1.2-1.9
		C183,3.9,179.9,0.7,173.8-4.2z M169.1,90.7h-50.4V49h50.4V90.7z M169.1,45.2h-50.4V7h50.4V45.2z"/>
	<path class="st1" d="M86.5-2.3c4.9,9.6,7.5,18.5,7.6,26.7c0.1,4.4,1.5,6.6,4,6.6c3.4,0,5.1-2.3,5.1-6.9c0-8.7-4.6-18.1-13.8-28.1
		L86.5-2.3z"/>
</g>
</svg>
