<?xml version="1.0" encoding="utf-8"?>
<!-- Generator: Adobe Illustrator 19.0.0, SVG Export Plug-In . SVG Version: 6.00 Build 0)  -->
<svg version="1.1" id="圖層_1" xmlns="http://www.w3.org/2000/svg" xmlns:xlink="http://www.w3.org/1999/xlink" x="0px" y="0px"
	 viewBox="45 -33.8 150 150" style="enable-background:new 45 -33.8 150 150;" xml:space="preserve">
<style type="text/css">
	.st0{enable-background:new    ;}
	.st1{fill:#DC6200;}
</style>
<g class="st0">
	<path d="M106.7-0.5c4.6-0.4,6.9-1.3,6.9-2.7c0-2.2-4.8-4.3-14.4-6.4c-6.5,18.2-20.4,32.2-41.7,42l2.1,3.1
		C81.5,28.7,97.2,16.7,106.7-0.5z"/>
	<path d="M175.7,55.3l-8.9,10.4h-42.6V41.8h47.7l1.8-2.7c-3.4-4.1-7.2-7.6-11.2-10.8l-8,9.7H66.2l1.5,3.7h47.1v23.9H53.6l1.7,3.7
		h59.5v35.8h9.4V69.4h61.2l1.4-2.7C183.5,62.8,179.8,59,175.7,55.3z"/>
	<path class="st1" d="M176-22.8l-6.2,7.3H71.4c-0.2-1.6-0.5-3.4-1-5.6l-3.6-0.3c-1,11.7-4.1,20.1-9.3,25.2c-2,2.1-2.9,3.9-2.9,5.3
		c0,3.5,1.9,5.3,5.6,5.3c2.7,0,5.1-1.8,7.3-5.3C70.3,4.5,71.7-1.6,71.7-9v-2.7h55.7v0.1h8.9v-0.1h34.2c-3.2,4.9-6.2,9-9,12.2
		l2.3,2.6c5.9-2.9,11.3-6.1,16.1-9.6l5.3-0.8c1.3-0.1,2-0.6,2-1.5C187.2-10.8,183.5-15.4,176-22.8z"/>
	<path d="M127.3,14.6c0,4.5,1.4,7.4,4.2,8.6c2.5,1.1,8.2,1.7,17,1.7c13,0,21.3-0.5,24.7-1.5c3.4-1.1,5.1-3.8,5.3-8.1
		c-3.7-0.1-5.6-4.4-5.6-12.9L169.4,1c-1.2,6.4-2.3,10.5-3.4,12.5c-1.3,2.2-6.3,3.3-14.9,3.3c-7.6,0-11.8-0.2-12.7-0.6
		c-1.5-0.6-2.2-2-2.2-4.2v-23.6h-8.9V14.6z"/>
</g>
</svg>
