<?xml version="1.0" encoding="utf-8"?>
<!-- Generator: Adobe Illustrator 19.0.0, SVG Export Plug-In . SVG Version: 6.00 Build 0)  -->
<svg version="1.1" id="圖層_1" xmlns="http://www.w3.org/2000/svg" xmlns:xlink="http://www.w3.org/1999/xlink" x="0px" y="0px"
	 viewBox="45 -33.8 150 150" style="enable-background:new 45 -33.8 150 150;" xml:space="preserve">
<style type="text/css">
	.st0{enable-background:new    ;}
	.st1{fill:#DC6200;}
</style>
<g class="st0">
	<path d="M175.4,1.1l-6.2,7.8H147c0.1-2.6,0.1-5.3,0.1-8.3v-21.5c3.8-1.3,5.7-2.6,5.7-3.9c0-2.3-4.9-3.6-14.6-3.7V1.1
		c0,4.2,0,7.1-0.1,8.5h-23.6l1.5,3.7H138c-0.6,17-2.7,31.5-6.4,43.5c-5.5,18.4-16.2,33.5-32.1,45.4l2.5,3.2
		c17.3-10.3,29.3-24.1,36-41.6c5.2-13.5,8.2-30.6,9-51.3h23.8c0,33.7-1.4,57.1-4.3,70c-1.4,5.7-4.9,8.6-10.5,8.6
		c-6.4,0-13.4-0.6-20.7-1.8v4.2c8.8,1.5,14.4,2.8,16.8,4c2.5,1.2,3.8,3.1,3.8,5.9c7.6,0,13.2-3.3,16.9-10c4.4-8.3,6.7-34.4,6.9-78.1
		l4-2.6c0.8-0.5,1.2-1.1,1.2-1.8C184.8,9.1,181.7,5.9,175.4,1.1z"/>
	<path class="st1" d="M74.3,50.2h27.8v23.6l8.6-2.6V-8.2l3.9-2.6c0.8-0.5,1.2-1.1,1.2-1.8c0-1.5-3.1-4.6-9.2-9.3l-5.5,7.2H75
		c-3.5-2.2-6.7-4-9.4-5.1V83.5l8.7-2V50.2z M74.3-10.9h27.8v26.6H74.3V-10.9z M74.3,19.5h27.8v27H74.3V19.5z"/>
	<path d="M122.3,67.4c-4.8,1.7-8.7,3-11.7,4.1v-0.3l-8.6,2.6v0.4c-7,2.2-16.3,4.7-27.8,7.5v-0.2l-8.7,2v0.4
		c-0.7,0.1-2.2,0.4-4.4,0.9c-3.3,0.7-5.9,1.2-7.9,1.7c2.7,8.7,4.9,13,6.7,13c1.1,0,2.1-1.9,2.9-5.7c19.3-5.6,39.5-13,60.5-22.2
		L122.3,67.4z"/>
</g>
</svg>
