<?xml version="1.0" encoding="utf-8"?>
<!-- Generator: Adobe Illustrator 19.0.0, SVG Export Plug-In . SVG Version: 6.00 Build 0)  -->
<svg version="1.1" id="圖層_1" xmlns="http://www.w3.org/2000/svg" xmlns:xlink="http://www.w3.org/1999/xlink" x="0px" y="0px"
	 viewBox="45 -33.8 150 150" style="enable-background:new 45 -33.8 150 150;" xml:space="preserve">
<style type="text/css">
	.st0{enable-background:new    ;}
	.st1{fill:#DC6200;}
</style>
<g class="st0">
	<path d="M180,82.4l-7,9.7h-12.7V65.1h20.9l1.6-3c-2.7-3.6-5.5-6.7-8.3-9.4l-6.5,8.7h-7.6V35.9h20.7l1.5-3c-2.4-3.4-5.2-6.6-8.3-9.6
		l-6.3,8.9h-7.6V8h24.3l1.5-2.9c-2.4-3.4-5.2-6.7-8.5-9.9l-6.5,9h-13.2c5-7.5,9.3-15.2,12.7-23.1c4-0.4,6-1.3,6-2.7
		c0-2.1-4.3-4.3-13-6.6c-2.7,11.9-6.1,22.7-10,32.4h-17.6c4-8.2,7.3-16.6,9.7-25.2c4.3-0.6,6.4-1.6,6.4-3c0-2.1-4.5-4.2-13.5-6.2
		c-5.2,24.6-13.4,44.8-24.5,60.7l3.1,2.4c3.1-3.5,6.2-7.7,9.3-12.5v84.4h8.4v-9.2h52.4l1.6-3.1C186.7,89.5,183.7,86.1,180,82.4z
		 M151.9,92.2H135V65.1h16.9V92.2z M151.9,61.4H135V35.9h16.9V61.4z M151.9,32.2H135V8h16.9V32.2z"/>
	<path d="M113.9,59.3l-6.1,7.8H89c0.6-3.2,0.9-6.6,0.9-10.2v-2.3h26l1.6-2.9c-2.5-3.1-5.3-5.6-8.3-7.6l-5.6,6.7H89.9v-12h15.5v3.9
		h7.8V22l3-2.3c0.6-0.4,0.9-1,0.9-1.5c0-1.4-2.6-3.8-7.8-7.2l-4.8,5.6H89.9V4.8h-8.4v11.8H67.7c-3.5-2.1-6.5-3.6-9.2-4.6v32.4h8
		v-5.4h15v12H55l1.6,3.7h24.8v2.1c0,4-0.3,7.4-1,10.3H50.9l1.5,3.7h27.4c-4.4,14.3-13.9,24.8-28.4,31.5l1.9,3.3
		c15.8-5.3,26.4-14.1,31.9-26.4c8.3,5.2,14.8,11.2,19.8,18c2,2.9,3.6,4.3,5.1,4.3c2.9,0,4.3-1.6,4.3-4.8c0-6.5-9.2-13.6-27.6-21.1
		c0.7-1.8,1.2-3.4,1.6-4.8h32.6l1.7-2.7C120.3,65.2,117.4,62.2,113.9,59.3z M89.9,20.3h15.5v15H89.9V20.3z M81.5,35.4h-15v-15h15
		V35.4z"/>
	<path class="st1" d="M89.9,4.7h4.8v4.7h8.1v-20.9h18.4l1.6-2.9c-2.5-3.7-5.1-6.7-7.6-9l-5.7,8.1h-6.7v-7.6c3.7-1.4,5.5-2.6,5.5-3.8
		c0-1.9-4.5-2.9-13.6-3v14.4H76.7v-7.6c3.1-1.1,4.6-2.2,4.6-3.3c0-2-4.2-3-12.7-3.1v14.1h-17l1.3,3.7h15.7V9.9h8.1V4.7h4.8v0
		L89.9,4.7L89.9,4.7z M76.7,1v-12.5h17.9V1H76.7z"/>
</g>
</svg>
