<?xml version="1.0" encoding="utf-8"?>
<!-- Generator: Adobe Illustrator 19.0.0, SVG Export Plug-In . SVG Version: 6.00 Build 0)  -->
<svg version="1.1" id="圖層_1" xmlns="http://www.w3.org/2000/svg" xmlns:xlink="http://www.w3.org/1999/xlink" x="0px" y="0px"
	 viewBox="45 -33.8 150 150" style="enable-background:new 45 -33.8 150 150;" xml:space="preserve">
<style type="text/css">
	.st0{enable-background:new    ;}
	.st1{fill:#DC6200;}
</style>
<g class="st0">
	<path d="M171.7,24.9l-5.4,6.2H142c1-1,1.5-2.1,1.5-3.3c0-1.8-1.2-3.5-3.6-5.1c9.1-3.6,16.8-7.1,23.1-10.5l4.7-0.9
		c1.5-0.3,2.3-0.9,2.3-1.7c0-1.3-3.4-4.5-10.1-9.6l-5.5,5.4H97.7l2,3.7h53.8c-4.6,3.9-10.5,7.6-17.6,11.1c-4.9-2.2-12-4.2-21.1-5.9
		l-1.7,2.9c10.6,4,17.8,8.1,21.6,12.3l1.5,1.5h-30.3c-4.6-2.1-7.9-3.3-9.7-3.9v78.1h8.4V73.1h25.9v28.3h8.4V73.1h28.4v14.4
		c0,2.8-1.5,4.2-4.5,4.2c-4.6,0-10.1-0.3-16.4-1v3.9c5.3,0.9,9.1,1.7,11.2,2.6c2.9,1,4.5,3.1,4.6,6.1c9,0.1,13.5-3.7,13.5-11.6V37.5
		l3.7-2.4c0.8-0.5,1.2-1,1.2-1.6C180.8,32.2,177.8,29.4,171.7,24.9z M130.5,69.4h-25.9V53.5h25.9V69.4z M130.5,49.8h-25.9v-15h25.9
		V49.8z M167.4,69.4H139V53.5h28.4V69.4z M167.4,49.8H139v-15h28.4V49.8z"/>
	<path class="st1" d="M65.7,30.9c3.9,0,5.9-2.1,5.9-6.4c0-7.7-5.2-15.8-15.7-24.3l-2.6,2.4c4.7,7.8,7.5,15.6,8.2,23.5
		C61.8,29.3,63.2,30.9,65.7,30.9z"/>
	<path class="st1" d="M176.8-18.3l-7.5,9.6h-37.9v-12.7c4.1-1.4,6.2-2.7,6.2-3.9c0-2.1-4.9-3.3-14.7-3.8v20.4H86.3
		c-2-1.1-5.3-2.6-10.2-4.7v47.2c0,1.7-0.1,3.7-0.2,6c-7.4,5.4-16.3,10.4-26.5,15c3.3,7.9,5.8,11.9,7.6,11.9c1.3,0,2.1-2.1,2.6-6.3
		c5-3.7,9.9-8.1,14.7-13.2l1.3-1.4c-2,24-9.4,43-22.3,57.1l3,2.6c18.9-15.1,28.4-37.9,28.4-68.3V-5h100.9l1.5-2.9
		C183.4-12.2,180-15.7,176.8-18.3z"/>
</g>
</svg>
