<?xml version="1.0" encoding="utf-8"?>
<!-- Generator: Adobe Illustrator 19.0.0, SVG Export Plug-In . SVG Version: 6.00 Build 0)  -->
<svg version="1.1" id="圖層_1" xmlns="http://www.w3.org/2000/svg" xmlns:xlink="http://www.w3.org/1999/xlink" x="0px" y="0px"
	 viewBox="45 -33.8 150 150" style="enable-background:new 45 -33.8 150 150;" xml:space="preserve">
<style type="text/css">
	.st0{enable-background:new    ;}
	.st1{fill:#DC6200;}
</style>
<g class="st0">
	<path class="st1" d="M98.1,60.8c2.9,0,4.4-1.6,4.4-4.8c0-4.8-4.2-10-12.6-15.6c3.9-3.4,7.3-7.1,10.3-10.9c3.3,0,5-0.5,5-1.5
		c0-1.8-3.4-4.1-10.3-7c-2.5,7-5.2,12.9-8.1,17.6c-1.7-1-4-2.1-6.9-3.5v-1.5c5.6-8.1,11.1-17.6,16.5-28.6l4-2.3
		c0.7-0.4,1.1-0.9,1.1-1.5c0-1.4-3-4.7-9-9.9l-5.9,7.5h-7.5v-20.4c4.5-1.5,6.7-2.9,6.7-4.2c0-2.3-5-3.4-15-3.4v28.1H51.3l1.5,3.7
		h34.8c-9.3,21.9-21.7,41-37.2,57.1l2.6,3c7.5-6.5,13.7-12.6,18.6-18.3v60.9H80V39.4l0.6,0.6c6.1,5.3,10.4,10.9,12.9,16.7
		C94.8,59.4,96.3,60.8,98.1,60.8z"/>
	<path d="M154.6,74c7.5-8.6,14.1-19.6,19.8-33l4-2c1-0.4,1.5-0.9,1.5-1.6c0-1.6-3-4.8-9-9.7l-5.6,6.6h-14.8V0.3H173
		c-1.2,5.3-3.2,11.3-6.2,18l3,1.8c5-5.4,9-10.8,12-16l4.2-1.2c1.1-0.3,1.7-0.9,1.7-1.7c0-1.9-3.4-5.8-10.1-11.8l-5.7,7.2h-21.4
		v-18.3c4.3-1.3,6.4-2.7,6.4-4c0-2.1-5-3.3-14.9-3.4v25.8h-19.6c-3.4-2.1-7-4.1-10.8-6v43.7c0,28.7-6.2,51.5-18.6,68.4l3.1,2.7
		c15.3-15.7,23.4-38.1,24.2-67.4h5.6c5,15.5,11,27.7,18.1,36.5c-9.7,11.5-21.4,20.8-35.2,27.8l1.9,3.3c16.6-6.6,29.4-14.9,38.5-24.9
		c7.9,8.1,19.1,15.6,33.6,22.5c1.9-3.9,4.1-7,6.9-9.3C175.5,88.4,163.7,81.8,154.6,74z M120.4,34.2V0.3H142v33.9H120.4z M149.1,68.5
		c-8.2-8.7-14.4-18.9-18.6-30.6h35.6C161.3,49.9,155.6,60.1,149.1,68.5z"/>
</g>
</svg>
