<?xml version="1.0" encoding="utf-8"?>
<!-- Generator: Adobe Illustrator 19.0.0, SVG Export Plug-In . SVG Version: 6.00 Build 0)  -->
<svg version="1.1" id="圖層_1" xmlns="http://www.w3.org/2000/svg" xmlns:xlink="http://www.w3.org/1999/xlink" x="0px" y="0px"
	 viewBox="45 -33.8 150 150" style="enable-background:new 45 -33.8 150 150;" xml:space="preserve">
<style type="text/css">
	.st0{enable-background:new    ;}
	.st1{fill:#DC6200;}
</style>
<g class="st0">
	<path d="M161.4-19.7l-6.1,6.9H68.9L70.5-9h84.6c-9.8,9.5-19.7,17.6-29.8,24.4l5.4,1.6c11.5-5.9,23-13.2,34.7-21.9l5.6-1.2
		c1.1-0.1,1.6-0.7,1.6-1.5C172.7-9.7,168.9-13.6,161.4-19.7z"/>
	<path class="st1" d="M125,15.6c-2.2-0.4-5.1-0.7-8.6-0.9v70.6c0,2.9-1.7,4.4-5.1,4.4c-8.3,0-16.8-0.6-25.5-1.7v4
		c10,1.7,16.4,3.1,19.2,4.4c2.7,1.3,4.1,3.4,4.1,6.2c11,0.1,16.5-4.4,16.5-13.7V23.3c4.6-1.3,6.9-2.7,6.9-4.2c0-0.7-0.6-1.4-1.9-2.1
		c0.1,0,0.1-0.1,0.2-0.1l-5.4-1.6C125.2,15.4,125.1,15.5,125,15.6z"/>
</g>
</svg>
