<?xml version="1.0" encoding="utf-8"?>
<!-- Generator: Adobe Illustrator 19.0.0, SVG Export Plug-In . SVG Version: 6.00 Build 0)  -->
<svg version="1.1" id="圖層_1" xmlns="http://www.w3.org/2000/svg" xmlns:xlink="http://www.w3.org/1999/xlink" x="0px" y="0px"
	 viewBox="45 -33.8 150 150" style="enable-background:new 45 -33.8 150 150;" xml:space="preserve">
<style type="text/css">
	.st0{enable-background:new    ;}
	.st1{fill:#DC6200;}
</style>
<g class="st0">
	<path d="M87.2,104.3h9v-12h63.7v11.1h8.9V49l3.6-2.3c1-0.5,1.5-1.2,1.5-2.1c0-1.5-3.2-4.7-9.7-9.6l-5.9,7H97.7l-1.5-0.7
		c-1.7-0.9-3.4-1.6-5-2.3l-4,6.5V104.3z M96.2,45.8h63.7v42.8H96.2V45.8z"/>
	<path class="st1" d="M106.5,6.1h78l1.9-3.1c-3.7-4.6-7.3-8.5-11.1-11.7l-8.4,11.1h-59.3l0.3-0.7c2.2-6.7,4.2-13.7,6-20.9
		c4.7-0.9,7.1-2.1,7.1-3.4c0-2.2-5-4.2-15-6c-2.1,10.6-4.8,20.9-8,31.1H53.7l1.7,3.7h41.5c-9.8,28-25.2,51.7-46.4,71l2.9,3
		c13.7-10.3,25-21.9,33.8-34.9v0.3l4-6.5c-0.1,0-0.1,0-0.2-0.1C96.3,30.4,101.5,19.5,106.5,6.1z"/>
</g>
</svg>
