<?xml version="1.0" encoding="utf-8"?>
<!-- Generator: Adobe Illustrator 19.0.0, SVG Export Plug-In . SVG Version: 6.00 Build 0)  -->
<svg version="1.1" id="圖層_1" xmlns="http://www.w3.org/2000/svg" xmlns:xlink="http://www.w3.org/1999/xlink" x="0px" y="0px"
	 viewBox="45 -33.8 150 150" style="enable-background:new 45 -33.8 150 150;" xml:space="preserve">
<style type="text/css">
	.st0{enable-background:new    ;}
	.st1{fill:#DC6200;}
</style>
<g class="st0">
	<path class="st1" d="M84.4,11C86.8,4.7,89-2.2,91.1-9.7c4.4-0.7,6.6-1.8,6.6-3.3c0-2.3-5.2-4.5-15.5-6.4
		C78,6.1,70.7,27.1,60.4,43.8l2.9,2.3c8.3-9.5,14.8-19.9,19.6-31.3h0.2l1.6-3.7H84.4z"/>
	<path d="M174.7,42.1L166,52.8h-40.8v-38h46.5l1.8-3.1c-3.4-4.1-6.9-7.6-10.6-10.8L155.1,11h-29.9v-28.5c4.8-1.5,7.2-3,7.2-4.5
		c0-2.3-5.4-3.6-16.3-3.7V11H84.6l-1.6,3.7h33v38H55.2l1.3,3.7H116v48.7h9.2V56.5h58.1l1.6-3C182.4,50.1,179,46.2,174.7,42.1z"/>
</g>
</svg>
