<?xml version="1.0" encoding="utf-8"?>
<!-- Generator: Adobe Illustrator 19.0.0, SVG Export Plug-In . SVG Version: 6.00 Build 0)  -->
<svg version="1.1" id="圖層_1" xmlns="http://www.w3.org/2000/svg" xmlns:xlink="http://www.w3.org/1999/xlink" x="0px" y="0px"
	 viewBox="45 -33.8 150 150" style="enable-background:new 45 -33.8 150 150;" xml:space="preserve">
<style type="text/css">
	.st0{enable-background:new    ;}
	.st1{fill:#DC6200;}
</style>
<g class="st0">
	<path class="st1" d="M150.5-6.2v24.9h-19.3c0.4-2.4,1.1-6.3,2.1-11.9c4.4-0.5,6.6-1.4,6.6-2.7c0-2.1-4.7-3.8-14.1-5.3
		c-1.4,10.7-3.1,20.6-5.3,29.8l8.6,1c0.4-2.5,0.9-4.9,1.4-7.2h20.1v24.8h8.4V22.5H185l1.7-2.7c-2.6-3.4-5.7-6.7-9.2-9.9l-6.7,8.9
		H159V-6.2h22.9l1.7-2.9c-2.1-2.8-5.1-5.9-8.7-9.3l-6.4,8.4H159v-11.3c3.8-1.4,5.7-2.7,5.7-4c0-2.2-4.7-3.4-14.1-3.6v18.9h-28.3
		l1.5,3.7H150.5z"/>
	<path d="M126.4,56.5h54.9l2-3c-2.9-3.5-6.3-7-10.2-10.6l-8.1,9.9h-41.4V41.2c3.7-1.2,5.6-2.4,5.6-3.6c0-2.2-4.8-3.4-14.4-3.7v18.9
		H57l1.9,3.7h50.5C95,74.1,75.7,87.3,51.4,96.2l1.6,3.4c24.1-6.8,44.6-18.8,61.7-35.8v41.4h8.9v-46c14.1,15.9,33.4,28.6,57.9,38.1
		c1.3-3.3,3.5-6.4,6.7-9.2C164,82,143.4,71.4,126.4,56.5z"/>
</g>
<path d="M75.6,4.2c3.9,3.6,6.3,7.3,7.5,11.1c0.8,2.9,2.2,4.3,4.4,4.3c1.1,0,2-0.2,2.6-0.7c-9.3,11.4-20.9,20.9-34.9,28.4l2,3.1
	c18.6-7.6,33.1-17.9,43.4-31.1c5.7-7.3,10.9-16.2,15.5-26.9l4.3-2.3c0.8-0.5,1.2-1,1.2-1.5c0-1.5-3.1-4.7-9.2-9.6l-5.2,6.6H87.6
	c1.3-2.6,2.4-5,3.4-7.3c4.2-1.1,6.3-2.2,6.3-3.3c0-2-4.3-3.6-12.9-5C77.6-9.3,67.3,7.2,53.6,19.6l2.3,2.7
	C62.8,17.4,69.4,11.3,75.6,4.2z M85.5-10.4h22.2c-4.3,10.2-9.5,19.2-15.6,27c0.2-0.8,0.3-1.5,0.3-2.1C92.4,9.3,87.6,4.8,78,1
	C80.6-2.3,83.1-6.1,85.5-10.4z"/>
</svg>
