<?xml version="1.0" encoding="utf-8"?>
<!-- Generator: Adobe Illustrator 19.0.0, SVG Export Plug-In . SVG Version: 6.00 Build 0)  -->
<svg version="1.1" id="圖層_1" xmlns="http://www.w3.org/2000/svg" xmlns:xlink="http://www.w3.org/1999/xlink" x="0px" y="0px"
	 viewBox="45 -33.8 150 150" style="enable-background:new 45 -33.8 150 150;" xml:space="preserve">
<style type="text/css">
	.st0{enable-background:new    ;}
	.st1{fill:#DC6200;}
</style>
<g class="st0">
	<path d="M97.2,65.8C85.6,81.2,71,93.1,53.6,101.6l2.3,3.1c18-6.1,33.3-15.3,45.9-27.6c2.1,0.2,3.3,0.4,3.7,0.4c3,0,4.5-0.6,4.5-1.8
		C110,73.5,105.7,70.2,97.2,65.8z"/>
	<path d="M169.2,84c-9.2-6.5-21.7-12.5-37.5-18l-2.3,3c17.3,9.3,30.3,19,38.9,29c2.5,3.1,4.6,4.6,6.3,4.6c3.5,0,5.3-1.8,5.3-5.4
		C179.9,93.5,176.3,89.1,169.2,84z"/>
	<path class="st1" d="M176,43.3l-8.9,11.4H146V11.8h31.1l1.8-3c-2-2.8-4.5-5.6-7.4-8.6c-0.9-1-1.8-1.9-2.9-2.8L160.6,8H146v-26.6
		c4.7-1.5,7-3,7-4.3c0-2.3-5.3-3.7-15.9-4.3V8h-36.6V-18c4.9-1.7,7.3-3.2,7.3-4.5c0-2.3-5.4-3.6-16.2-3.9V8H59.7l1.3,3.7h30.6v42.9
		H53l1.5,3.7h130.4l1.8-3C184.6,52.4,181.1,48.4,176,43.3z M137.1,54.7h-36.6V11.8h36.6V54.7z"/>
</g>
</svg>
