<?xml version="1.0" encoding="utf-8"?>
<!-- Generator: Adobe Illustrator 19.0.0, SVG Export Plug-In . SVG Version: 6.00 Build 0)  -->
<svg version="1.1" id="圖層_1" xmlns="http://www.w3.org/2000/svg" xmlns:xlink="http://www.w3.org/1999/xlink" x="0px" y="0px"
	 viewBox="45 -33.8 150 150" style="enable-background:new 45 -33.8 150 150;" xml:space="preserve">
<style type="text/css">
	.st0{enable-background:new    ;}
	.st1{fill:#DC6200;}
</style>
<g class="st0">
	<path d="M162.8,47.5V15.6l3.1-2.3c0.7-0.4,1-0.9,1-1.5c0-1.2-2.9-3.8-8.6-7.8l-5.1,5.6H85.7c-3.6-1.7-6.9-3-9.9-4v42h8.6v-4.7h69.8
		v4.7H162.8z M84.4,13.3h69.8v10.5H84.4V13.3z M84.4,39.1V27.5h69.8v11.6H84.4z"/>
	<path d="M179.9,76.7l-3.6-1c-1.2,8.4-2.5,13.5-3.8,15c-1.5,1.9-8.3,2.9-20.7,2.9c-8.1,0-12.6-0.2-13.7-0.6
		c-1.5-0.6-2.2-2.1-2.2-4.4V76.3c15.3-3.9,27.2-7.8,35.7-11.9c1.7,0.3,3,0.5,3.9,0.5c2,0,2.9-0.4,2.9-1.3c0-1.7-3.1-4.5-9.4-8.6
		c-9,7-19.5,12.6-31.6,16.8l-1.5,0.4V56.5c3.7-1.3,5.6-2.5,5.6-3.6c0-2-4.7-3.1-14-3.6v40.8c0,4.8,1.3,7.9,4,9.2
		c2.4,1.3,9.9,2,22.3,2c13.6,0,22.2-0.4,26-1.3c3.8-0.9,5.7-3.5,5.9-7.8C182,92.2,180.1,87,179.9,76.7z"/>
	<path class="st1" d="M77.7-2.3h84.6v5h8.1v-20.6c3.7-1.3,5.6-2.6,5.6-3.9c0-2-4.5-3.3-13.6-4V-6h-38.7v-16.5
		c3.9-1.5,5.9-2.9,5.9-4.1c0-2.1-4.7-3.3-14.1-3.4v24H77.7v-12.2c3.9-1.5,5.9-2.9,5.9-4c0-2-4.7-3.1-14-3.6V2.8h8.1V-2.3z"/>
	<path d="M120.1,71.8l1.8-2.7c-2.7-3.4-5.6-6.6-8.6-9.4l-6.7,8.4h-22V57.9c3.7-1.4,5.6-2.6,5.6-3.8c0-1.9-4.7-3.1-14.1-3.6v40.9
		c-8.3,0.9-15.1,1.4-20.6,1.7c2.1,8.7,4.1,13,6.2,13c1.2,0,2.1-1.7,2.9-5c18.5-2.9,37.6-7,57.5-12.3l-0.5-3.7
		c-12,2.3-23.9,4.1-35.8,5.4h-1V71.8H120.1z"/>
</g>
</svg>
