<?xml version="1.0" encoding="utf-8"?>
<!-- Generator: Adobe Illustrator 19.0.0, SVG Export Plug-In . SVG Version: 6.00 Build 0)  -->
<svg version="1.1" id="圖層_1" xmlns="http://www.w3.org/2000/svg" xmlns:xlink="http://www.w3.org/1999/xlink" x="0px" y="0px"
	 viewBox="45 -33.8 150 150" style="enable-background:new 45 -33.8 150 150;" xml:space="preserve">
<style type="text/css">
	.st0{enable-background:new    ;}
	.st1{fill:#DC6200;}
</style>
<g class="st0">
	<path class="st1" d="M105.3,31.4C116.6,21,125,8,130.4-7.9h34.1c-1.9,11.1-5.9,22.7-12.2,34.8l3.2,2.3c7.9-10.4,14-21.7,18.2-33.8
		l4.3-1.5c1.5-0.5,2.2-1.1,2.2-2c0-1.5-3.2-5-9.7-10.6l-6.4,7h-32.7l1.1-4c0.6-2.5,1.1-4.3,1.5-5.5c4.1-1.1,6.2-2.2,6.2-3.4
		c0-2-4.8-3.6-14.4-5c-3.9,24.5-11.6,44-23.3,58.4L105.3,31.4z"/>
	<path d="M174.7,32.9l-5.3,6.6h-21.5l1.5,3.7h21.2v22.3h-22.3l1.7,3.7h20.7v22.9h-52.1V69.3H141l1.6-3c-2.2-3-5-6.1-8.3-9.3
		l-6.3,8.6h-9.6V43c6.4-1.1,12.5-2.8,18.5-5.1c1.5,0.4,2.7,0.7,3.7,0.7c1.7,0,2.6-0.5,2.6-1.5c0-1.9-3-5.1-8.9-9.4
		c-3.6,4.2-8.8,7.9-15.6,11.1c-1.9-0.7-4.9-1.7-9-3.1v69.7h8.7v-9.3h52.1v9.3h8.7V46.6l3.6-2.4c0.8-0.5,1.2-1.1,1.2-1.8
		C184.1,40.9,181,37.8,174.7,32.9z"/>
	<path d="M84.1,18.1C89.8,8.6,94.6-2,98.5-13.9l3.9-1.8c1-0.4,1.5-1,1.5-1.8c0-1.6-3.2-5-9.6-10.2l-5.4,7.2H71.2l-1.8-1
		c-3.4-1.8-6.1-3.2-8.3-4.1v130.8H70V68c7.2,1.6,10.9,4.5,11.1,8.6c12.3,0,18.4-8.1,18.4-24.2C99.6,39.2,94.4,27.8,84.1,18.1z
		 M89.7,60.2c-1,3.4-3.8,5.1-8.3,5.1c-3.5,0-7.3-0.3-11.4-1v-81h19.5C87.2-4.4,83.8,7.4,79.4,18.5c7.8,9.8,11.6,19.8,11.6,30
		C91,53.2,90.6,57.1,89.7,60.2z"/>
</g>
</svg>
