<?xml version="1.0" encoding="utf-8"?>
<!-- Generator: Adobe Illustrator 19.0.0, SVG Export Plug-In . SVG Version: 6.00 Build 0)  -->
<svg version="1.1" id="圖層_1" xmlns="http://www.w3.org/2000/svg" xmlns:xlink="http://www.w3.org/1999/xlink" x="0px" y="0px"
	 viewBox="45 -33.8 150 150" style="enable-background:new 45 -33.8 150 150;" xml:space="preserve">
<style type="text/css">
	.st0{enable-background:new    ;}
	.st1{fill:#DC6200;}
</style>
<g class="st0">
	<path d="M119.1,7.6c7-6.4,12.7-13.9,17.1-22.6h48l1.6-2.6c-3.1-3.4-6.1-6.3-9.2-8.5l-6.6,7.6h-32.2l1.5-3.6
		c3.9-0.8,5.9-1.7,5.9-2.9c0-1.8-4.2-3.5-12.6-5.1c-3.5,14.4-8.9,26.3-16.3,35.7L119.1,7.6z"/>
	<path d="M131.9-5.2l2.1,3.7h43.8l1.9-2.7c-2.1-2.1-4.7-4.4-8.1-7l-5.6,6H131.9z"/>
	<path class="st1" d="M93,97.8c3.3,0,5-1.6,5-4.8c0-5.4-5.8-10.2-17.4-14.4l-1.8,2.7c5.1,4,8.4,8.3,9.7,12.9
		C89.2,96.6,90.7,97.8,93,97.8z"/>
	<path class="st1" d="M183.3,66.1c1.4-2.8,3.5-5.4,6.5-7.6c-24.6-3.2-47-9.7-67.1-19.5c3.5-0.5,5.3-1.2,5.3-2.2l0,0
		c-0.3-1.9-7.3-3-10-3.4c-0.1-0.1-2.3-0.3-2.4-0.4l-1.7,1.8l-1.5,1.6C97.7,49.4,77,59.7,50.3,67.3l2,3.2C66.6,67.1,79.2,63,90,58.3
		l1.6,3.4h23.4v10.9H63.5l2,3.6h49.7v20H54.9l1.8,3.6H183l1.7-2.7c-2.1-2.3-4.6-4.6-7.5-6.9c-1.4-1-2.3-1.8-2.7-2.2l-7.3,8.2h-23.6
		c3.6-3.5,6.8-6.9,9.4-10.4c4.1-0.4,6.2-1.2,6.2-2.2c0-1.7-4.4-3.6-13.2-5.6c-2.1,7.2-4.6,13.3-7.5,18.2h-14.9v-20h51.6l1.5-2.5
		c-2.5-2.5-5.7-5.2-9.6-8.1l-6.4,6.9h-37.1V61.7h24.7l2.1-2.5c-3.5-2.5-6.4-4.2-8.7-5.3l-5.7,4.1H90.3c11-4.9,20.6-10.6,28.6-17.2
		C136.7,52.2,158.1,60.5,183.3,66.1z"/>
	<path d="M128,33.6h4.3v-3.9h41.3v5.7h7.6V13.6l3.1-2.1c0.7-0.4,1-0.9,1-1.5c0-1.1-2.6-3.7-7.9-7.8l-4.8,5.1h-39
		c-2.2-0.9-4.1-1.7-5.6-2.2c-0.7-0.3-1.9-0.7-3.4-1.1v29.7L128,33.6C128,33.6,128,33.6,128,33.6z M164.6,10.8h9v15.3h-9V10.8z
		 M148.3,10.8h8.9v15.3h-8.9V10.8z M132.3,10.8h8.7v15.3h-8.7V10.8z"/>
	<path d="M110.6,20.9l-5.9,6.8H90.6V13.2h12.3v3.2h7.8v-17l3.3-2c0.5-0.3,0.8-0.7,0.8-1.1c0-1.3-2.7-3.9-8-7.8l-5.1,5.7H90.6V-19
		h25.5l1.8-2.6c-3-3.2-5.8-5.7-8.3-7.8l-6,6.8H68l-1.5-0.7c-1.5-0.7-4-1.7-7.4-2.9V39h8.1v-7.7h48.9l1.5-2
		C115.8,26.7,113,22.9,110.6,20.9z M67.3-19h15.4v13.1H67.3V-19z M67.3-2.3h35.7V9.6H67.3V-2.3z M82.6,27.7H67.3V13.2h15.4V27.7z"/>
</g>
</svg>
