<?xml version="1.0" encoding="utf-8"?>
<!-- Generator: Adobe Illustrator 19.0.0, SVG Export Plug-In . SVG Version: 6.00 Build 0)  -->
<svg version="1.1" id="圖層_1" xmlns="http://www.w3.org/2000/svg" xmlns:xlink="http://www.w3.org/1999/xlink" x="0px" y="0px"
	 viewBox="45 -33.8 150 150" style="enable-background:new 45 -33.8 150 150;" xml:space="preserve">
<style type="text/css">
	.st0{enable-background:new    ;}
	.st1{fill:#DC6200;}
</style>
<g class="st0">
	<path d="M98.5-2.5l3.3-4.2h0.1l2.6-3.7h0c1-1.3,3-4.4,6.2-9.4c4.8-0.4,7.3-1.3,7.3-2.7c0-2.1-4.3-4.3-13-6.9
		C92.7-5.2,76.8,13.9,57.3,27.7l2.4,2.9c13.4-8,25.3-17.8,35.9-29.5c0,0,0.1,0.1,0.1,0.1l2.9-3.5C98.6-2.4,98.5-2.5,98.5-2.5z"/>
	<path d="M80.7,105.2h8.7v-9.7h61.3v9.7h8.7V62.5l3-2.2c0.8-0.7,1.2-1.2,1.2-1.7c0-1.1-3.1-3.7-9.3-7.8l-4.5,4H90.8
		c-0.2-0.1-6.3-2.9-6.6-3.1l-3.5,1.4V105.2z M89.5,58.6h61.3v33.2H89.5V58.6z"/>
	<path class="st1" d="M128,24.4c10.5-9.5,19-18.6,25.6-27.5l4-2.3c1.1-0.6,1.7-1.2,1.7-1.9c0-1.4-3.1-4.8-9.3-10l-6,6.9h-39.6
		l-2.6,3.7h42.5c-7.2,10.2-14.9,19-22.9,26.3c-7.6-5.9-15.2-13.2-22.8-21.9l-2.9,3.5c5.8,8.1,12.5,15.7,20.3,22.8
		C97.4,38.8,76.4,50.5,53,59l2.1,3.4c9.1-2.8,17.6-6,25.6-9.4v0.2l3.5-1.4c-0.1,0-0.1,0-0.2-0.1c13.7-6.2,25.8-13.1,36.3-20.7
		l2.1-1.5c15.4,11.7,35,21.4,59,28.9c2.1-3.6,4.6-6.5,7.6-8.7C164.3,44,144,35.6,128,24.4z"/>
</g>
</svg>
