<?xml version="1.0" encoding="utf-8"?>
<!-- Generator: Adobe Illustrator 19.0.0, SVG Export Plug-In . SVG Version: 6.00 Build 0)  -->
<svg version="1.1" id="圖層_1" xmlns="http://www.w3.org/2000/svg" xmlns:xlink="http://www.w3.org/1999/xlink" x="0px" y="0px"
	 viewBox="45 -33.8 150 150" style="enable-background:new 45 -33.8 150 150;" xml:space="preserve">
<style type="text/css">
	.st0{enable-background:new    ;}
	.st1{fill:#DC6200;}
</style>
<g class="st0">
	<path d="M171.1,81.9c-7.6-6.3-18.9-12-33.9-17.1l-1.8,3c13.7,7.6,24.2,15.6,31.5,24c2.6,3.1,4.8,4.7,6.4,4.7c3,0,4.5-1.7,4.5-5
		C177.9,88.7,175.7,85.5,171.1,81.9z"/>
	<path class="st1" d="M167.4,8.4c0.6,0.1,1.3,0.1,2.1,0.1c2.5,0,3.7-0.6,3.7-1.7c0-1.8-3.5-4.6-10.6-8.3
		c-2.9,5.9-6.2,11.2-10.2,15.9l3.3,2.3C160.6,13.8,164.5,11,167.4,8.4z"/>
	<path d="M155.5,16.9c0.1-0.1,0.2-0.1,0.3-0.2l-3.3-2.3c0,0-0.1,0.1-0.1,0.1c-6.6-5.2-12.2-10.7-16.8-16.7c-0.1-0.1-0.2-0.3-0.4-0.5
		c-0.1-0.2-0.2-0.4-0.3-0.5h47.2l1.8-3.3c-3.2-3.3-6.1-6.1-8.6-8.4l-1.8-1.6l-7.2,9.6h-51.8c2.7-4.8,5-9.4,6.9-14
		c4.7-0.6,7.1-1.5,7.1-2.8c0-2.1-4.6-4.2-13.8-6.2c-3,8.4-6.4,16.1-10.2,22.9h-48l1.3,3.7h44.6c-11.8,20.4-29,36.6-51.6,48.9
		l2.1,3.3c11.3-5.2,21.6-11.4,30.9-18.7V64h7.8c-9.2,14.1-21.2,24.8-36.2,32.2l2.1,3.4c16.1-6.4,29.2-15.1,39.3-25.9
		c4.3,0,6.4-0.6,6.4-1.9c0-1.8-3.9-4.4-11.6-7.8h0.7v-5.1h24v29.9c0,3.1-1.5,4.7-4.5,4.7c-2.8,0-6.7-0.2-11.8-0.7
		c-3.5-0.5-6.2-0.8-8-1v3.7c6.5,1.2,11,2.4,13.3,3.4c3,1.4,4.5,3.5,4.7,6.5c10,0.1,15-4,15-12.3V58.9h22.9V64h8.6V26.5
		c7.5,5.6,16,10.4,25.6,14.4c1.5-3,3.7-5.7,6.6-7.9C176,29,164.9,23.6,155.5,16.9z M147.9,55.1H92.3V40.6h55.6V55.1z M147.9,36.9
		H92.3v-14h55.6V36.9z M95.5,19.2c6.3-6.9,11.9-14.4,16.8-22.3h17.4c4.9,7.9,11,15.4,18.2,22.3H95.5z"/>
	<path class="st1" d="M81.4,19.3c3.4,0,5.1-1.8,5.1-5.4c0-5.7-6.3-10.7-19-14.9l-1.7,2.9c5.4,3.5,9,7.8,11,13
		C77.8,17.8,79.4,19.3,81.4,19.3z"/>
</g>
</svg>
