<?xml version="1.0" encoding="utf-8"?>
<!-- Generator: Adobe Illustrator 19.0.0, SVG Export Plug-In . SVG Version: 6.00 Build 0)  -->
<svg version="1.1" id="圖層_1" xmlns="http://www.w3.org/2000/svg" xmlns:xlink="http://www.w3.org/1999/xlink" x="0px" y="0px"
	 viewBox="45 -33.8 150 150" style="enable-background:new 45 -33.8 150 150;" xml:space="preserve">
<style type="text/css">
	.st0{enable-background:new    ;}
	.st1{fill:#DC6200;}
</style>
<g class="st0">
	<path class="st1" d="M91.9,11.8C86,15,77,18.1,65,21.1l1.6,3.6c23.5-3.7,39.6-11.4,48.3-22.9l0.7,0.1c16.1,5.6,28.2,11.7,36.5,18.5
		c2.4,2,4.3,3,5.7,3c2.9,0,4.3-1.4,4.3-4.3c0-7.1-15-14-45-20.7c1.3-2,2.3-4,3-6H171l1.5-3c-3-3.5-6.5-6.9-10.3-10.2l-7.3,9.4h-33.5
		c0.6-3.3,1.1-6.8,1.5-10.6c4-1.2,6-2.5,6-3.8c0-2.1-4.9-3.3-14.7-3.6c-0.1,7.1-0.9,13.1-2.3,18H68.1l1.5,3.7h40.8
		C106.7,0.6,100.6,7.1,91.9,11.8z"/>
	<path d="M178.5,19.5l-1.2-1.2l-7.5,10H53.6l1.7,3.7h97.9V88c0,3.2-1.8,4.8-5.4,4.8c-4.8,0-12.3-0.5-22.3-1.6v4
		c7.2,1,12.5,2.1,15.7,3.3c3.4,1.4,5.1,3.6,5.3,6.6c10.3,0.1,15.5-4,15.5-12.3V31.9h23.5l1.8-3C185.6,26.8,182.7,23.7,178.5,19.5z"
		/>
	<path d="M129,84.6V53.5l3.7-2.4c0.7-0.4,1.1-0.9,1.1-1.6c0-1.4-3-4.4-9-8.9l-5.4,6.3H88.7c-3-1.7-6.5-3.1-10.4-4.5v45.3h8.6v-10
		h33.8v6.9H129z M86.9,74V50.7h33.8V74H86.9z"/>
</g>
</svg>
