<?xml version="1.0" encoding="utf-8"?>
<!-- Generator: Adobe Illustrator 19.0.0, SVG Export Plug-In . SVG Version: 6.00 Build 0)  -->
<svg version="1.1" id="圖層_1" xmlns="http://www.w3.org/2000/svg" xmlns:xlink="http://www.w3.org/1999/xlink" x="0px" y="0px"
	 viewBox="45 -33.8 150 150" style="enable-background:new 45 -33.8 150 150;" xml:space="preserve">
<style type="text/css">
	.st0{enable-background:new    ;}
	.st1{fill:#DC6200;}
</style>
<g class="st0">
	<path class="st1" d="M151.5,25.3C124.4,33.2,96.3,39.5,67,44.1c2.8,9.5,5.3,14.2,7.5,14.2c1.3,0,2.3-2.1,3-6.3
		c26.1-6.8,51.1-14.7,75-23.5L151.5,25.3z"/>
	<path d="M167.5-17.2l-6.2,7.9H64.6l1.7,3.7h96.9c-0.5,46.8-2.9,76.2-7.3,88c-1.6,4.6-5.2,6.9-10.9,6.9c-6.6,0-16.9-1-30.8-2.9v4.1
		c10.1,1.7,16.7,3.1,19.6,4.2c4.9,1.7,7.4,4.1,7.4,7.2c11.6,0,19.2-4.7,22.8-14.1c4.5-12,7.2-42.1,7.9-90.2l4.2-2.7
		c0.8-0.5,1.2-1.1,1.2-1.8C177.4-8.5,174.1-12,167.5-17.2z"/>
</g>
</svg>
