<?xml version="1.0" encoding="utf-8"?>
<!-- Generator: Adobe Illustrator 19.0.0, SVG Export Plug-In . SVG Version: 6.00 Build 0)  -->
<svg version="1.1" id="圖層_1" xmlns="http://www.w3.org/2000/svg" xmlns:xlink="http://www.w3.org/1999/xlink" x="0px" y="0px"
	 viewBox="45 -33.8 150 150" style="enable-background:new 45 -33.8 150 150;" xml:space="preserve">
<style type="text/css">
	.st0{enable-background:new    ;}
	.st1{fill:#DC6200;}
</style>
<g class="st0">
	<path class="st1" d="M78.8,52.8v23.4c0,4.5,1,7.5,3,8.9c2.3,1.7,13.1,2.6,32.2,2.6c19.6,0,31.3-0.5,35.1-1.4c5.4-1.1,8.2-3,8.3-5.6
		c0-4-2.8-5.2-8.4-3.7c-2.9,0.9-7.6,1.6-14.1,2.1c-6.3,0.5-15.6,0.7-27.8,0.7c-10.2,0-16-0.3-17.7-0.9c-1.4-0.6-2.1-2.1-2.1-4.3
		V53.7c3.9-1.5,5.9-2.8,5.9-3.9c0-1.3-2.2-2.3-6.7-2.8l-7.7,5.9C78.7,52.8,78.7,52.8,78.8,52.8z"/>
	<path d="M172.5,30.5l-6.2,7.3H96c4.8-5.3,8.7-10.3,11.6-15h43.9v6.4h8.7v-43.7l3.9-2.7c0.9-0.6,1.4-1.3,1.4-2.1
		c0-1.4-3.2-4.6-9.6-9.4l-6.1,7H87.3c-3.4-1.7-6.9-3.3-10.7-4.8v56.7h8.6v-7.5h11.4c-5.2,8.3-11.2,15.5-18,21.6
		c-6.3,5.7-15.3,12.1-27,19.2l2.4,3.3c9.9-4.8,18.1-9.4,24.6-14l7.7-5.9c0,0-0.1,0-0.1,0c1.4-1.2,3.4-3,6.1-5.4h75.4
		c-0.1,19.1-1.5,33.6-4,43.4c-1.4,5-5.1,7.5-11.1,7.5c-6.3,0-13-0.5-20.4-1.5v3.7c8.2,1.5,13.4,2.7,15.6,3.6c3.1,1.2,4.6,3.2,4.6,6
		c9.7,0.1,16.1-4,19-12.5c3.3-9,5-24.6,5.1-46.8l4.2-2.6c0.8-0.4,1.2-1,1.2-1.8C182,38.9,178.8,35.5,172.5,30.5z M85.2,19V3.2H150
		l1.4-2.3c-3.5-3.7-6.1-6.3-7.8-7.9l-5.5,6.5h-53v-17.4h66.4V19H85.2z"/>
	<path d="M133.8,47.7c0-2-4.2-3.8-12.7-5.4c-4.7,13.7-13.2,24.1-25.5,31.1l2.1,3.3c10.4-4.1,18.6-9.9,24.5-17.4
		c7.6,4.4,12.6,8.8,15,13.2c1.5,2.5,3,3.7,4.6,3.7c3.1,0,4.7-1.6,4.7-4.8c0-5.9-7.3-11-22-15.4c1-1.4,2-3.3,3.1-5.7
		C131.7,49.9,133.8,49,133.8,47.7z"/>
</g>
</svg>
