<?xml version="1.0" encoding="utf-8"?>
<!-- Generator: Adobe Illustrator 19.0.0, SVG Export Plug-In . SVG Version: 6.00 Build 0)  -->
<svg version="1.1" id="圖層_1" xmlns="http://www.w3.org/2000/svg" xmlns:xlink="http://www.w3.org/1999/xlink" x="0px" y="0px"
	 viewBox="45 -33.8 150 150" style="enable-background:new 45 -33.8 150 150;" xml:space="preserve">
<style type="text/css">
	.st0{enable-background:new    ;}
	.st1{fill:#DC6200;}
</style>
<g class="st0">
	<path d="M124-11.3h55.4l1.7-3c-2.9-3.4-6.5-7.1-11-11.1L162.2-15H59l1.5,3.7h54.1v0.1L124-11.3L124-11.3z"/>
	<rect x="114.5" y="-11.2" class="st1" width="9.4" height="52.9"/>
	<path d="M176,41.1l-8.2,10.3H124v-9.7h-9.4v9.7H53l1.7,3.7h59.8v50.1h9.4V55.1h61.6l1.8-2.9C183.9,48.4,180.1,44.6,176,41.1z"/>
	<path class="st1" d="M95.4,5c3.9-0.6,5.9-1.5,5.9-2.9c0-2.1-4.6-4.3-13.8-6.6c-3.6,13.6-11.4,28.6-23.6,45l3.1,1.8
		C79.2,31.1,88.6,18.6,95.4,5z"/>
	<path class="st1" d="M141.9-4.6l-2.7,2.4c10.3,10.3,17.1,21.6,20.6,33.9c1.4,4.7,3,7,5,7c4,0,6-2.3,6-7c0-4.4-1.7-9.1-5.1-14.1
		C160.7,10.4,152.8,3,141.9-4.6z"/>
</g>
</svg>
