<?xml version="1.0" encoding="utf-8"?>
<!-- Generator: Adobe Illustrator 19.0.0, SVG Export Plug-In . SVG Version: 6.00 Build 0)  -->
<svg version="1.1" id="圖層_1" xmlns="http://www.w3.org/2000/svg" xmlns:xlink="http://www.w3.org/1999/xlink" x="0px" y="0px"
	 viewBox="45 -33.8 150 150" style="enable-background:new 45 -33.8 150 150;" xml:space="preserve">
<style type="text/css">
	.st0{enable-background:new    ;}
	.st1{fill:#DC6200;}
</style>
<g class="st0">
	<path d="M78.8-11.4h3.3c4.3,4.8,7,9.9,8,15.2c0.4,2.6,1.8,3.9,4.2,3.9c3.4,0,5.1-1.8,5.1-5.3c0-4.3-4-8.9-12-13.8h31.9l1.8-2.7
		c-2.1-3-4.8-6.1-8-9.3l-7,8.3H81c1.4-2.7,2.5-5.2,3.4-7.5c3.8-0.8,5.7-1.7,5.7-2.9c0-1.9-4.2-3.6-12.5-5.3
		C72.8-14.7,64.5-0.5,52.8,11.8l2.6,2.3C65.1,6.9,73-1.6,78.8-11.4z"/>
	<path d="M112.5,5.2l2.7,2.7c8-5.9,14.4-12.3,19.3-19.3h4c5,4.5,8.3,9.4,10,14.7c1.1,3.2,2.6,4.8,4.5,4.8c3.5,0,5.3-1.7,5.3-5
		c0-5.1-4.6-9.9-13.8-14.5h40.8l1.7-2.7c-2.4-3.1-5.5-6.4-9.4-10l-6.9,9h-33.6c1.4-2.1,2.6-4.4,3.7-7.2c3.8-0.9,5.7-1.9,5.7-2.9
		c0-1.7-4.1-3.5-12.3-5.3C129.9-16.3,122.7-4.4,112.5,5.2z"/>
	<path class="st1" d="M62.1,26.6c-0.3,11.5-2.4,20-6.4,25.6c-1.6,2.1-2.4,3.9-2.4,5.2c0,3.3,1.7,5,5,5c2.1,0,4.1-1.5,5.7-4.6
		c2.2-4.1,3.3-9.7,3.3-16.7c0-4.2-0.5-8.8-1.5-13.6L62.1,26.6z"/>
	<path d="M162,82.1c-9.9-6.5-17.2-14-22-22.4h47.7l1.5-3c-1.5-2.1-4.3-5.4-8.5-10l-7.3,9.3h-4.2V29.6l3.6-2.3c0.7-0.4,1-0.8,1-1.3
		c0-1.6-2.9-4.6-8.6-8.9l-5.1,6.3h-21.2V12.2c3.1-1.2,4.6-2.4,4.6-3.6c0-2.1-4.3-3.3-13-3.6v18.5H103l1.7,3.7h25.6V46
		c0,3.9-0.2,7.2-0.6,10H92.5l1.8,3.7h34.9c-1.7,9.2-5.3,17-11.1,23.4c-6.9,7.8-17.3,13.9-31,18.4l2,3.7c13.3-3.4,23.7-8.1,31.2-14.1
		c8.8-7,14.5-16.5,16.9-28.3c8.1,18.7,23.2,32.3,45.3,40.8c1-2.4,3.6-5.3,7.7-8.7C179.7,91.9,170.3,87.6,162,82.1z M138.8,46.5V27.2
		H161v28.7h-22.7C138.6,52.9,138.8,49.8,138.8,46.5z"/>
	<path class="st1" d="M96,47.8c3.5,0,5.3-1.8,5.3-5.3c0-5.9-4.7-11.4-14-16.5L85,28.3c4.4,4.9,7,10.2,7.7,15.9
		C93,46.6,94.1,47.8,96,47.8z"/>
	<path class="st1" d="M87.6,12.5c0-2.1-4.8-3.3-14.3-3.7v96.5h8.4V16.6C85.7,15.1,87.6,13.7,87.6,12.5z"/>
</g>
</svg>
