<?xml version="1.0" encoding="utf-8"?>
<!-- Generator: Adobe Illustrator 19.0.0, SVG Export Plug-In . SVG Version: 6.00 Build 0)  -->
<svg version="1.1" id="圖層_1" xmlns="http://www.w3.org/2000/svg" xmlns:xlink="http://www.w3.org/1999/xlink" x="0px" y="0px"
	 viewBox="45 -33.8 150 150" style="enable-background:new 45 -33.8 150 150;" xml:space="preserve">
<style type="text/css">
	.st0{enable-background:new    ;}
	.st1{fill:#DC6200;}
</style>
<g class="st0">
	<path class="st1" d="M72.6,71.1l2.6,3.1c16.1-10.1,29.1-23.3,39-39.5v50h8.3V27.4l0-5.4h40.5l1.5-2.6c-3-3.8-6.1-7.3-9.4-10.5
		l-6.7,9.3h-25.8V-1.6c3.8-1.6,5.7-2.9,5.7-4.1c0-2.1-4.7-3.3-14-3.4v27.5H75.9l1.8,3.7h33.9l-0.6,1.2C102,42.8,89.2,58.8,72.6,71.1
		z"/>
	<path d="M173.2-25.4l-5.8,7H71.1c-3.5-1.7-5.7-2.7-6.7-3.1c-1.2-0.5-2.4-1-3.7-1.5v128.2h9.2V95h99v10.2h9.2V-11.4l3.3-2.1
		c1.1-0.8,1.7-1.5,1.7-2.1C182.9-16.9,179.7-20.2,173.2-25.4z M168.8,91.3h-99V-14.6h99V91.3z"/>
</g>
<g>
	<path class="st1" d="M116,23.8c16,8,28.3,16.4,36.8,25.1c6.9,7,10.3,13,10.3,17.9c0,4.2-1.6,6.3-4.9,6.3c-2,0-4.3-2.5-6.9-7.5
		c-6.7-12.5-19.2-25.3-37.2-38.6L116,23.8z"/>
</g>
</svg>
