<?xml version="1.0" encoding="utf-8"?>
<!-- Generator: Adobe Illustrator 19.0.0, SVG Export Plug-In . SVG Version: 6.00 Build 0)  -->
<svg version="1.1" id="圖層_1" xmlns="http://www.w3.org/2000/svg" xmlns:xlink="http://www.w3.org/1999/xlink" x="0px" y="0px"
	 viewBox="45 -33.8 150 150" style="enable-background:new 45 -33.8 150 150;" xml:space="preserve">
<style type="text/css">
	.st0{enable-background:new    ;}
	.st1{fill:#DC6200;}
</style>
<g class="st0">
	<path d="M94.7,44.1c1,2.9,2.6,4.3,4.8,4.3c3.1,0,4.7-1.7,4.7-5.1c0-6.5-7.1-12.1-21.2-16.9l-1.7,2.9C87.9,33.4,92.4,38.4,94.7,44.1
		z"/>
	<path d="M83.4,56.2l-2,2.7c7.2,4.9,12,10.6,14.4,16.9C96.6,78,98,79,100.2,79c3.3,0,5-1.8,5-5.4C105.1,66.8,97.9,61,83.4,56.2z"/>
	<path d="M184.3-10.9l1.6-3c-3-3.9-6.7-7.6-11.1-11.2l-8.1,10.5H54.4l1.2,3.7h59.3v22.2h-39c-2.9-1.6-6.3-3-10-4.3v98.1h8.7v-90
		h40.3v85.8h8.9V15.1h41.8v72.5c0,3-2,4.5-5.9,4.5c-5.7,0-11.9-0.3-18.8-1v3.9c7.3,1.1,12,2.1,14.1,3c2.8,1,4.2,3,4.4,6
		c9.9,0,14.9-3.8,14.9-11.3V17.9l3.6-2.4c0.8-0.5,1.2-1.1,1.2-1.8c0-1.5-3.1-4.6-9.4-9.3l-5.4,6.9h-40.6v-22.2H184.3z"/>
	<path class="st1" d="M149.4,76.7c3.4,0,5.1-1.8,5.1-5.3c0-6.3-7.2-11.8-21.6-16.8l-1.7,2.9c7,4.9,11.5,9.9,13.5,15
		C145.8,75.3,147.3,76.7,149.4,76.7z"/>
	<path class="st1" d="M144.2,42.2c1.3,2.9,2.8,4.3,4.7,4.3c3.2,0,4.8-1.8,4.8-5.3c0-6.6-7.3-12.1-21.8-16.6l-1.5,2.6
		C137.5,31.8,142,36.8,144.2,42.2z"/>
</g>
</svg>
