<?xml version="1.0" encoding="utf-8"?>
<!-- Generator: Adobe Illustrator 19.0.0, SVG Export Plug-In . SVG Version: 6.00 Build 0)  -->
<svg version="1.1" id="圖層_1" xmlns="http://www.w3.org/2000/svg" xmlns:xlink="http://www.w3.org/1999/xlink" x="0px" y="0px"
	 viewBox="45 -33.8 150 150" style="enable-background:new 45 -33.8 150 150;" xml:space="preserve">
<style type="text/css">
	.st0{enable-background:new    ;}
	.st1{fill:#DC6200;}
</style>
<g class="st0">
	<path d="M86.5,14.9c5.3-10.4,10.2-21.5,14.7-33.5c4.6-0.7,6.9-1.8,6.9-3.1c0-2.1-4.7-4.4-14.2-7c-9.1,32.3-22.5,60.3-40.4,84
		l3.1,2.6c8.8-9.6,16.6-20.1,23.4-31.3v78.7h8.9V22.9c4-1.4,6-2.7,6-4.1C95,17,92.1,15.7,86.5,14.9z"/>
	<path class="st1" d="M182.9,87.1c-1-2.9-1.5-9.7-1.5-20.5v-3.7l-4.1-1.8c-0.7,14.7-2.6,24.3-5.5,28.8c-0.9,1.4-2.3,2.3-4.2,2.7
		c-2.1,0.4-7.2,0.6-15.5,0.6c-10,0-15.8-0.3-17.5-1c-1.7-0.6-2.6-2.3-2.6-5.1V41.5c14.5-8.2,28.3-17.7,41.4-28.6
		c5.2,1.1,7.8,0.8,7.8-1c0-2.1-3.8-5.9-11.3-11.1c-10.8,11.9-23.5,22.7-37.9,32.5v-52.1c4.3-1.7,6.4-3.1,6.4-4.4
		c0-2.2-5.2-3.6-15.5-4v66.6c-8.7,5.4-16.5,10-23.4,13.7l2.3,3.9c7.4-3.5,14.4-6.9,21.2-10.3v42.3c0,4.5,0.9,7.6,2.6,9.2
		c2.5,2.2,11,3.3,25.6,3.3c15.8,0,25.8-0.6,30-1.7c4.1-1.2,6.3-4.2,6.4-9.1C185.3,90.3,183.7,89.2,182.9,87.1z"/>
</g>
</svg>
