<?xml version="1.0" encoding="utf-8"?>
<!-- Generator: Adobe Illustrator 19.0.0, SVG Export Plug-In . SVG Version: 6.00 Build 0)  -->
<svg version="1.1" id="圖層_1" xmlns="http://www.w3.org/2000/svg" xmlns:xlink="http://www.w3.org/1999/xlink" x="0px" y="0px"
	 viewBox="45 -33.8 150 150" style="enable-background:new 45 -33.8 150 150;" xml:space="preserve">
<style type="text/css">
	.st0{enable-background:new    ;}
	.st1{fill:#DC6200;}
</style>
<g class="st0">
	<path d="M178.1,83.7c-1.4-3.2-2.1-11.2-2.3-24.2l-4-1.7c-0.7,9.4-1.5,16.8-2.4,22.2c-0.9,4.6-3.2,7.2-6.9,7.7
		c-6.9,1-21.9,1.5-44.9,1.5c-18.8,0-29.2-0.4-31-1.3c-1.6-0.7-2.4-2.5-2.4-5.4V32.9l-9.3-0.2v50.5c0,5.9,1.3,9.7,4,11.5
		c2.9,2,16.3,3,40.1,3c32.8,0,52-0.7,57.6-2c4.1-1,6.4-4,6.9-8.8C180.8,87.1,179,86,178.1,83.7z"/>
	<path class="st1" d="M84.2,33.8h70.5v10.3h9V-6.3l4-2.4c1.1-0.8,1.7-1.5,1.7-2.2c0-1.5-3.3-4.8-9.9-10l-6.2,8H65.6l1.8,3.7h87.2
		v39.3h-69c-4-2.1-7.6-3.8-10.8-5.1v8.8L84.2,33.8z"/>
</g>
</svg>
