<?xml version="1.0" encoding="utf-8"?>
<!-- Generator: Adobe Illustrator 19.0.0, SVG Export Plug-In . SVG Version: 6.00 Build 0)  -->
<svg version="1.1" id="圖層_1" xmlns="http://www.w3.org/2000/svg" xmlns:xlink="http://www.w3.org/1999/xlink" x="0px" y="0px"
	 viewBox="45 -33.8 150 150" style="enable-background:new 45 -33.8 150 150;" xml:space="preserve">
<style type="text/css">
	.st0{enable-background:new    ;}
	.st1{fill:#DC6200;}
</style>
<g class="st0">
	<path d="M158.5,37.5l-6.2,6.4H86.8c-4.3-2.1-7.8-3.6-10.3-4.7v66h9.2v-9.6h68.1v9.6h9.2V51.1l3.3-2.9c0.9-0.7,1.3-1.5,1.3-2.3
		C167.5,44.6,164.5,41.8,158.5,37.5z M153.8,91.9H85.6V71.1h65.9l1.8-2.7c-1.9-2.6-4.3-5.2-7.1-7.8l-5.1,6.7H85.6V47.8h68.1V91.9z"
		/>
	<path class="st1" d="M173.4,16.3c-1-2.1-1.5-6.2-1.5-12c0-1.1,0-2.7,0.1-4.8l-3.9-1.4c-1.4,13.3-3.6,20.6-6.7,21.8
		c-3.6,1.3-18,2-43.2,2c-20.6,0-32.1-0.5-34.5-1.5c-1.6-0.7-2.4-2.4-2.4-5V3.4c31-4.1,56.7-8.9,77.1-14.4c2.4,0.6,4.2,0.9,5.5,0.9
		c1.6,0,2.4-0.4,2.4-1.3c0-1.7-3.4-4.9-10.2-9.7C135-12,110.6-5.2,82.8-0.9l-1.5,0.3v-18.3c4.1-1.4,6.2-2.7,6.2-4
		c0-2.2-5-3.6-15-4.1V17c0,5.2,1.1,8.4,3.3,9.7c2.9,1.7,18.4,2.6,46.5,2.6c27.8,0,44.3-0.5,49.5-1.6c4.2-1.1,6.4-4,6.6-8.8
		C176,18.8,174.3,17.9,173.4,16.3z"/>
</g>
</svg>
