<?xml version="1.0" encoding="utf-8"?>
<!-- Generator: Adobe Illustrator 19.0.0, SVG Export Plug-In . SVG Version: 6.00 Build 0)  -->
<svg version="1.1" id="圖層_1" xmlns="http://www.w3.org/2000/svg" xmlns:xlink="http://www.w3.org/1999/xlink" x="0px" y="0px"
	 viewBox="45 -33.8 150 150" style="enable-background:new 45 -33.8 150 150;" xml:space="preserve">
<style type="text/css">
	.st0{enable-background:new    ;}
	.st1{fill:#DC6200;}
</style>
<g class="st0">
	<path class="st1" d="M92.2,88.9l-4.8,0.8c-11.2,1.8-17.7,2.8-19.5,3c2.9,9,5.3,13.5,7.4,13.5c1.1,0,1.9-1.9,2.5-5.7
		c22.5-5.2,43.1-11.2,61.8-18l-1-4c-10.6,2.9-23.1,5.9-37.5,8.9V53l-8.9,5.4V88.9z"/>
	<path class="st1" d="M147.4,67c8.6-5.5,16-11.2,22.1-17.1c0.8,0.1,1.7,0.1,2.7,0.1c2.8,0,4.2-0.6,4.2-1.8c0-1.8-3.8-5-11.4-9.6
		c-6.3,9.8-13,18.3-20.2,25.6c-7.2-8-13.5-18.9-18.2-30.6l-4.7,0.4c8.9,30.2,28.5,53.1,58,66.7c2-3.3,4.6-6.4,7.8-9.3
		C171.7,85.8,158.3,77.6,147.4,67z"/>
	<path d="M122.5,34.3h60.6l1.8-3c-2.6-3.2-6.1-6.8-10.5-10.9l-8.3,10.2h-42.3V12.7h43.2l1.6-2.9c-2.7-3.2-6-6.6-9.9-10.2L151.6,9
		h-27.8V-7.3h52.2l1.8-2.7c-2.7-3.3-6.1-6.7-10.2-10.3l-7.5,9.3h-36.3v-10.5c4.3-1.5,6.4-2.9,6.4-4.2c0-2.1-5.1-3.3-15.2-3.4V-11
		H62.4L64-7.3h51.1V9H71.2l1.5,3.7h42.4v17.9H54.9l1.7,3.7h53.5C96.8,49.5,77.3,61.5,51.7,70.5l1.8,3.6c15.1-4.3,28-9.6,38.7-15.7
		v0.1l8.9-5.4v-0.1c8.2-5.9,15.2-12,21.1-18.2L122.5,34.3z"/>
</g>
</svg>
