<?xml version="1.0" encoding="utf-8"?>
<!-- Generator: Adobe Illustrator 19.0.0, SVG Export Plug-In . SVG Version: 6.00 Build 0)  -->
<svg version="1.1" id="圖層_1" xmlns="http://www.w3.org/2000/svg" xmlns:xlink="http://www.w3.org/1999/xlink" x="0px" y="0px"
	 viewBox="45 -33.8 150 150" style="enable-background:new 45 -33.8 150 150;" xml:space="preserve">
<style type="text/css">
	.st0{enable-background:new    ;}
	.st1{fill:#DC6200;}
</style>
<g class="st0">
	<path class="st1" d="M73.2,87c0,4.8,1,8.1,3,9.7c1.2,1,3.7,1.7,7.7,2.1c4.5,0.5,17.7,0.7,39.6,0.7c23.8,0,40.7-0.5,50.7-1.4
		c1.9-0.1,2.9-1.1,2.9-2.8c0-3.8-1.4-5.7-4.3-5.7c-0.6,0-1.6,0.1-3,0.3c-11,1.1-27.1,1.6-48.1,1.6c-21.6,0-33.8-0.3-36.5-1
		c-2-0.4-2.9-1.9-2.9-4.4V48.6h-8.9V87z"/>
	<path d="M181.8,48.5l1.8-3c-3.4-4-6.7-7.4-10-10.3l-7.5,9.6h-15.9V-6.5h28.2l1.7-2.9c-2.6-3.4-5.9-7-10-10.8l-7.2,9.9h-12.7v-11.1
		c4.1-1.7,6.2-3.1,6.2-4.3c0-2.2-4.9-3.4-14.7-3.6v19H97.5v-11.3c4-1.6,6-3.1,6-4.3c0-2.2-4.8-3.4-14.4-3.6v19.2H60l1.5,3.7h27.6
		v51.3H53.9l1.6,3.7h17.7v0h8.9v0h22.5c-0.7,16.4-7.3,28.1-19.8,35.2l1.9,3.4c17.3-7,26.3-19.9,27-38.6h15.9V70c0,4.4,1,7.3,3.1,8.4
		c2.1,1.2,7.3,1.8,15.7,1.8c8.3,0,14.1-0.4,17.3-1.3c3.4-1.1,5.1-3.7,5.3-7.8c-2.3-0.2-3.9-0.9-4.5-2.1c-0.7-1.7-1.2-5.7-1.3-12.2
		l-3.7-1.4c-0.8,6.8-1.7,11.2-2.6,13.1c-1.2,2.6-4.8,3.9-10.8,3.9c-4.4,0-7.3-0.2-8.7-0.7c-1.1-0.5-1.6-1.7-1.6-3.6V48.5H181.8z
		 M97.5-6.5h44.2V7H97.5V-6.5z M97.5,10.7h44.2v14.1H97.5V10.7z M97.5,44.8V28.6h44.2v16.2H97.5z"/>
</g>
</svg>
