<?xml version="1.0" encoding="utf-8"?>
<!-- Generator: Adobe Illustrator 19.0.0, SVG Export Plug-In . SVG Version: 6.00 Build 0)  -->
<svg version="1.1" id="圖層_1" xmlns="http://www.w3.org/2000/svg" xmlns:xlink="http://www.w3.org/1999/xlink" x="0px" y="0px"
	 viewBox="45 -33.8 150 150" style="enable-background:new 45 -33.8 150 150;" xml:space="preserve">
<style type="text/css">
	.st0{enable-background:new    ;}
	.st1{fill:#DC6200;}
</style>
<g>
	<path d="M73.2-4.4c34.3-3.4,60.9-10.4,79.8-21.1c5.7,3.1,9.6,6.4,9.6,7.9c0,0.8-2,1.2-3.9,1.2c-1,0-2.5-0.2-4.5-0.5
		C127.8-7.8,101.2-3.4,74.7-1.7L73.2-4.4z"/>
</g>
<g class="st0">
	<path class="st1" d="M164.4-8.2l-5.6,6.6l-78.2,0c-2.7-1.9-8-6.2-9.6-6.9v43.8c0,27.9-6.8,50.7-20.4,68.3l2.7,2.4
		c15.6-14.3,24.3-33.8,26.1-58.4l0.3-3.7c0.1-1.6,0.1-4.1,0.1-7.5V21.9h80.7V28h8.3V4.6l3.7-2.6c0.5-0.4,0.8-0.9,0.8-1.3
		C173.3-0.6,170.3-3.5,164.4-8.2z M160.5,18.1H79.8v-16h80.7V18.1z"/>
	<path d="M184.8,47.7l1.8-3c-2.5-3.1-5.8-6.5-9.9-10l-7.6,9.3h-39.3V33.3c4.3-1.2,6.4-2.5,6.4-3.8c0-2.1-4.9-3.2-14.8-3.6v18H80.3
		l2,3.7h31.2c0,5.9-0.2,10.4-0.7,13.6c-0.6,3.9-1.9,8.1-3.9,12.5c-5.9,12.8-17,22.2-33.5,28.1l1.7,3.7c20.3-5.3,33.8-15.1,40.4-29.3
		c1.8-3.7,3-7.2,3.6-10.5h39.8c-0.1,8.7-1.2,15.6-3.1,20.7c-1.4,3.3-4.4,5-9.2,5c-6.2,0-13.8-0.8-22.9-2.3v4.1
		c7.3,1.3,12.5,2.5,15.8,3.7c3.6,1.3,5.4,3.3,5.6,5.9c8,0,13.5-2.6,16.7-7.7c3.4-5.2,5.2-14.3,5.6-27.2l3.3-2c1-0.6,1.5-1.2,1.5-1.9
		c0-1.4-2.8-4.3-8.5-8.7l-5.9,6.7h-38.1c0.5-4.1,0.7-8.9,0.7-14.4H184.8z"/>
</g>
</svg>
