<?xml version="1.0" encoding="utf-8"?>
<!-- Generator: Adobe Illustrator 19.0.0, SVG Export Plug-In . SVG Version: 6.00 Build 0)  -->
<svg version="1.1" id="圖層_1" xmlns="http://www.w3.org/2000/svg" xmlns:xlink="http://www.w3.org/1999/xlink" x="0px" y="0px"
	 viewBox="45 -33.8 150 150" style="enable-background:new 45 -33.8 150 150;" xml:space="preserve">
<style type="text/css">
	.st0{enable-background:new    ;}
	.st1{fill:#DC6200;}
</style>
<g class="st0">
	<path class="st1" d="M87.9-11.7c10.3-0.1,20-0.6,29-1.4c16-1.4,30.4-3.2,43.3-5.5c2.4,0.6,4.2,0.9,5.6,0.9c1.9,0,2.9-0.4,2.9-1.3
		c0-1.8-3.6-4.5-10.8-8c-19.6,5.9-42.3,9.7-68.3,11.3c-4.7-2.8-7.7-4.5-9-5.1C77.3-6.5,71.1,5.7,61.9,15.7l2.9,2.7
		C76.6,8.2,84.3-1.8,87.9-11.7z"/>
	<path class="st1" d="M150.6-11c8.6,5.9,14.7,12.5,18.3,20.1c1.6,3.6,3.6,5.4,5.9,5.4c3.1,0,4.6-1.8,4.6-5.4c0-3-1.7-6.1-5-9.4
		c-5-5.2-12.2-9.6-21.5-13.3L150.6-11z"/>
	<path d="M155.1,50.8l4.7-1.5c1-0.3,1.5-0.8,1.5-1.5c0-1.6-3.3-5.2-9.9-11.1l-5.5,6.9h-71l1.6,3.7h11.7c9,13.1,17.8,23.3,26.6,30.5
		C99.4,89.3,80.2,97.3,57.2,102l2.3,3.7c25.8-4.3,46.5-12,62.3-22.9c13,8.5,31.5,15.2,55.7,20c1.2-2.8,3.6-5.9,7.3-9.3
		c-23.9-3-42.9-8.2-56.8-15.7C138.4,69.8,147.5,60.8,155.1,50.8z M120.6,73.4c-8.3-5.6-16.5-13.4-24.7-23.5c-0.1-0.1-0.9-1-2.3-2.6
		h52.5C139,57.3,130.4,66,120.6,73.4z"/>
	<path class="st1" d="M122.5,16.4c3.7,0,5.6-2,5.6-5.9c0-7.1-5.6-14-16.8-20.5L109-7.7c5.3,6.4,8.3,12.6,9,18.4
		C118.5,14.5,120,16.4,122.5,16.4z"/>
	<path d="M175.8,15.2l-5.4,6.4H71.6c0-1.2-0.1-2.3-0.2-3.4l-3.6-1.1c-1.7,10.5-5.2,17.9-10.6,22.2c-2.3,1.9-3.4,3.5-3.4,5.1
		c0,3.4,1.8,5.1,5.3,5.1c2.8,0,5.4-2.1,7.8-6.2c2.8-4.9,4.3-10.9,4.6-18h99.2c-1.7,3.7-4.6,8.5-8.8,14.4l2.7,2.2
		c5.8-4.1,10.7-8.2,14.6-12l4.8-0.9c1.4-0.3,2.1-0.8,2.1-1.6C186.1,25.8,182.7,21.7,175.8,15.2z"/>
</g>
</svg>
