<?xml version="1.0" encoding="utf-8"?>
<!-- Generator: Adobe Illustrator 19.0.0, SVG Export Plug-In . SVG Version: 6.00 Build 0)  -->
<svg version="1.1" id="圖層_1" xmlns="http://www.w3.org/2000/svg" xmlns:xlink="http://www.w3.org/1999/xlink" x="0px" y="0px"
	 viewBox="45 -33.8 150 150" style="enable-background:new 45 -33.8 150 150;" xml:space="preserve">
<style type="text/css">
	.st0{enable-background:new    ;}
	.st1{fill:#DC6200;}
</style>
<g class="st0">
	<path d="M174.6,64.3l-8.1,10.3h-43.1v-18h-9v18H54.6l1.5,3.7h58.4v27h9v-27h59.7l1.8-3.1C181.8,71.2,178.3,67.6,174.6,64.3z"/>
	<path class="st1" d="M123.4,56.5h33.6v7.2h8.7V17.6l3.7-2.7c1-0.7,1.5-1.4,1.5-2.1c0-1.3-3.1-4.3-9.4-9.2l-5.7,7h-32.5v0h-9v0H82.9
		c-4.5-2.5-8-4.2-10.3-5.1v59.5h8.9v-8.6h33v0L123.4,56.5L123.4,56.5z M123.4,14.5h33.6V31h-33.6V14.5z M123.4,34.8h33.6v18h-33.6
		V34.8z M114.4,52.8h-33v-18h33V52.8z M114.4,31h-33V14.5h33V31z"/>
	<path d="M123.4-4.6h57.5l1.6-3.1c-3.3-4-6.7-7.5-10.2-10.6l-7.7,10h-41.2v-12.9c4.6-1.7,6.9-3.1,6.9-4.4c0-2.2-5.3-3.4-15.9-3.7v21
		H57.7l1.5,3.7h55.2v15.3h9V-4.6z"/>
</g>
</svg>
