<?xml version="1.0" encoding="utf-8"?>
<!-- Generator: Adobe Illustrator 19.0.0, SVG Export Plug-In . SVG Version: 6.00 Build 0)  -->
<svg version="1.1" id="圖層_1" xmlns="http://www.w3.org/2000/svg" xmlns:xlink="http://www.w3.org/1999/xlink" x="0px" y="0px"
	 viewBox="45 -33.8 150 150" style="enable-background:new 45 -33.8 150 150;" xml:space="preserve">
<style type="text/css">
	.st0{enable-background:new    ;}
	.st1{fill:#DC6200;}
</style>
<g class="st0">
	<path d="M114.6,69.6c-11.1,0.8-22.2,1.3-33.2,1.7c2.1,8.9,4.1,13.3,6,13.3c1.1,0,2.1-1.8,3.1-5.4c21.2-2.2,40.1-5,56.7-8.4
		c1,2.3,1.7,4.7,2.1,7c0.6,3,2.1,4.5,4.6,4.5c3.3,0,5-1.9,5-5.7c0-8-6.8-16.1-20.5-24.5l-2.3,2.5c3.9,4,6.9,8.1,9.2,12.3
		c-8.6,1.1-16,1.8-22,2.3V47.2h-8.7V69.6z"/>
	<path class="st1" d="M171.4,36.7l-5.5,6.7h-42.6v-0.1h-8.7v0.1H72.9v-1.3c4.4-1.4,6.7-2.7,6.7-3.7c0-1.9-5.1-3.2-15.4-4.1v9.2h-8.9
		l1.3,3.7h7.6v58h8.7v-58h41.7v0h8.7v0h43.8V87c0,3.3-2,4.9-5.9,4.9c-5.9,0-13.4-0.5-22.5-1.5v4.2c7.8,1,13.2,1.9,16.3,2.9
		c3.5,1,5.3,3.1,5.5,6.3c10.2,0,15.2-4.6,15.2-13.8V50.5L180,48c0.7-0.4,1.1-0.9,1.1-1.6C181.1,44.7,177.9,41.5,171.4,36.7z"/>
	<path d="M123.3,27.5h30.2v6.1h8.6v-45.5l4.1-2.3c0.9-0.4,1.3-1,1.3-1.8c0-1.6-3.1-4.8-9.4-9.6l-5.9,6.6H88c-4.1-2.2-7.4-3.9-10.2-5
		v56.2h8.6v-4.8h28.2v15.9h8.7V27.5z M123.3-15.2h30.2V1.6h-30.2V-15.2z M123.3,5.3h30.2v18.5h-30.2V5.3z M114.6,23.8H86.4V5.3h28.2
		V23.8z M86.4,1.6v-16.8h28.2V1.6H86.4z"/>
</g>
</svg>
