<?xml version="1.0" encoding="utf-8"?>
<!-- Generator: Adobe Illustrator 19.0.0, SVG Export Plug-In . SVG Version: 6.00 Build 0)  -->
<svg version="1.1" id="圖層_1" xmlns="http://www.w3.org/2000/svg" xmlns:xlink="http://www.w3.org/1999/xlink" x="0px" y="0px"
	 viewBox="45 -33.8 150 150" style="enable-background:new 45 -33.8 150 150;" xml:space="preserve">
<style type="text/css">
	.st0{enable-background:new    ;}
	.st1{fill:#DC6200;}
</style>
<g class="st0">
	<path d="M171,48.2l1.1-2.4c3,1.3,6.2,2.5,9.6,3.6c2.1-4.3,4.1-7.3,6-9.1c-20.8-4.2-38.2-13.2-52.1-26.9l4.2-1.8
		c1-0.4,1.5-1,1.5-1.6c0-1.3-3.1-4.3-9.3-9l-5.9,6.6h-30l1.8,3.7h28.9c-9.8,15.5-24,28.4-42.8,38.5l-0.4,4.3c4.1-1.6,8.5-3.6,13.1-6
		h31.8v20H96.2l1.5,3.7h30.9v23.2H80.4l1.7,3.7h102.2l1.5-3c-2.8-3.4-6.1-6.7-9.9-9.9l-7.2,9.2h-31.5V72h30.8l1.7-2.9
		c-3.2-3.7-6.3-6.6-9.3-8.9l-6.6,8h-16.6v-20H171z M103.5,44.5c13-8,23-17.2,29.8-27.8c7,9.1,16,16.8,27,23.2l-3.9,4.5H103.5z"/>
	<path class="st1" d="M65.7,30.7c3.8,0,5.7-2.2,5.7-6.6c0-7.9-5.1-15.6-15.3-23.3l-2.7,2c4.7,6.9,7.5,14.7,8.2,23.2
		C61.9,29.2,63.3,30.7,65.7,30.7z"/>
	<path class="st1" d="M84,49.9c0.4-4.4,0.7-8.7,0.7-12.7V-4h101l1.4-2.7c-2.9-3.4-6.3-6.7-10-9.7l-7,8.7h-38.4v-13.6
		c4.4-1.7,6.6-3.1,6.6-4.4c0-2.3-5.1-3.4-15.2-3.4v21.5H86.5C84-9,80.6-10.5,76.1-12.3v46.1c0,2-0.1,4.2-0.2,6.5
		C67.6,46.2,58.7,51,49.4,54.8c3.4,7.9,6.1,11.9,8.1,11.9c1.3,0,2.1-2.1,2.3-6.3c4.6-3.5,9.9-8.3,15.7-14.6
		c-1.5,23.8-8.9,43-22.2,57.4l2.9,2.3c15.5-11.7,24.6-28.8,27.3-51.3c0,0,0.1,0,0.1,0L84,49.9C84.1,49.9,84.1,49.9,84,49.9z"/>
</g>
</svg>
