<?xml version="1.0" encoding="utf-8"?>
<!-- Generator: Adobe Illustrator 19.0.0, SVG Export Plug-In . SVG Version: 6.00 Build 0)  -->
<svg version="1.1" id="圖層_1" xmlns="http://www.w3.org/2000/svg" xmlns:xlink="http://www.w3.org/1999/xlink" x="0px" y="0px"
	 viewBox="45 -33.8 150 150" style="enable-background:new 45 -33.8 150 150;" xml:space="preserve">
<style type="text/css">
	.st0{enable-background:new    ;}
	.st1{fill:#DC6200;}
</style>
<g class="st0">
	<path d="M117.4-11.7c12.5-1.3,24.2-3,35.4-5c2.7,0.5,4.5,0.7,5.6,0.7c2,0,3-0.4,3-1.2c0-1.7-3.4-4.6-10.1-8.6
		c-22.3,6.6-51,11.3-86.1,14l1.7,3.6c16.2-0.7,29.8-1.6,40.8-2.7c0,0.1,0,0.1,0,0.2l9.7-0.9C117.4-11.6,117.4-11.7,117.4-11.7z"/>
	<path d="M89.7,105.2h8.6v-7.9H157v7.9h8.4v-57l4-2.6c0.6-0.4,1-0.9,1-1.3c0-1.5-3.1-4.5-9.4-9l-5.5,6.2H99.9
		c-1.4-0.6-2.9-1.2-3.3-1.3l-7,9.1V105.2z M98.2,45.2H157v12.6H98.2V45.2z M98.2,61.6H157v13.5H98.2V61.6z M98.2,78.9H157v14.7H98.2
		V78.9z"/>
	<path class="st1" d="M104.8,26.9h81.3l1.5-2.7c-3.3-3.6-7-7-11.1-10l-8.3,9h-61.6c2.6-6,4.5-11,5.8-15h63.3l1.5-2.6
		c-3.1-3.3-6.7-6.7-10.8-10.2l-7.8,9h-45c1.6-5.7,2.8-11,3.7-16l-9.7,0.9c-1.1,5.5-2.3,10.6-3.6,15.2H62.2l1.4,3.7h39.3
		c-1.2,4-3.1,9-5.6,15H54.7l1.3,3.7h39.3C86.8,44.5,72.3,61,51.7,76.4l2.4,3c14.7-8.8,26.6-18.7,35.5-29.6c0,0,7.4-9.5,7.4-9.5
		C99.8,36.2,102.3,31.8,104.8,26.9z"/>
</g>
</svg>
