<?xml version="1.0" encoding="utf-8"?>
<!-- Generator: Adobe Illustrator 19.0.0, SVG Export Plug-In . SVG Version: 6.00 Build 0)  -->
<svg version="1.1" id="圖層_1" xmlns="http://www.w3.org/2000/svg" xmlns:xlink="http://www.w3.org/1999/xlink" x="0px" y="0px"
	 viewBox="45 -33.8 150 150" style="enable-background:new 45 -33.8 150 150;" xml:space="preserve">
<style type="text/css">
	.st0{enable-background:new    ;}
	.st1{fill:#DC6200;}
</style>
<g class="st0">
	<path class="st1" d="M168.5-6.7c3.6,0,5.4-1.9,5.4-5.6c0-5.9-5.3-11.3-16-16.2l-1.8,2.6c4.4,4.5,7.1,9.1,8,13.8
		C164.8-8.5,166.2-6.7,168.5-6.7z"/>
	<path d="M139.2,45.8c-2.1-2.6-5.1-5.7-8.9-9.2l-6.3,8.3h-16v-15h23.2l1.6-2.7c-2.1-3-4.6-6-7.8-9l-6,8h-11.1V14.6
		c4-1.3,5.9-2.6,5.9-3.7c0-2.1-4.7-3.1-14.1-3.3v37.4H77.7l1.5,3.7h22.9v37.9c0,2.8-1.4,4.2-4.2,4.2c-4.1,0-8.3-0.3-12.6-1v3.9
		c8.2,1.4,12.3,4,12.5,7.8h0.7l1.5,0.1c6.7,0.4,10-3,10-10.3V48.7h27.3L139.2,45.8z"/>
	<path d="M97.5,62.8c0-1.8-4.1-4.1-12.3-6.7c-2.1,13.5-5.8,24.9-11,34.1l3,2.1c7-8.1,11.9-17,14.7-26.8
		C95.7,64.9,97.5,64.1,97.5,62.8z"/>
	<path d="M127.8,82.6c3.6,0,5.4-1.9,5.4-5.6c0-6.8-5.3-14-15.9-21.5l-2.3,2.1c5.1,6.9,8.1,13.2,8.9,19
		C124.3,80.6,125.6,82.6,127.8,82.6z"/>
	<path class="st1" d="M183.7,86.7c0-3.9,0.5-11.2,1.4-21.9l-4-1.8c-2.2,18.2-4.2,27.3-6,27.3c-0.5,0-1.6-0.9-3.3-2.6
		c-6-6.8-10.5-13.9-13.6-21.2c6.9-10.1,13.5-22.6,19.6-37.5c0.6,0.1,1.2,0.1,1.8,0.1c2.8,0,4.2-0.7,4.2-2c0-2.1-3.7-5.3-11.2-9.7
		c-5.2,15.9-11,29.1-17.3,39.7c-0.2,0.3-0.4,0.7-0.6,1.1c-4.4-15.3-7.2-33.9-8.2-55.9h37.7l1.5-2.8C184-2.8,182.1-5,180-7l-2.3-2.1
		l-5.9,7.8h-25.5c-0.2-7.4-0.3-13.7-0.3-18.8v-1.5c3.5-1.4,5.3-2.6,5.3-3.7c0-2.2-4.6-3.4-13.9-3.7v8.9c0,4,0.1,9.9,0.3,17.7l0.1,2
		H76.8l-0.1-0.1l-1.2,3.8H138c1.5,25.2,5,46.1,10.6,62.7l0.3,0.9c-9.5,14.3-20.7,25.7-33.5,34.1l2.6,3c13.7-7.6,25.3-17.3,34.9-29.2
		c4.6,8.7,9.3,15.7,14.1,20.9c5.7,6.1,10.7,9.2,15,9.2c3.1,0,5.2-2.1,6.3-6.3C185.2,97.5,183.7,93.5,183.7,86.7z"/>
	<path d="M75.3-1.3c-2.1-1.1-5.1-2.5-9-4.2v40.6c0,30.3-5.1,52.7-15.2,67.4l3.1,2.6C68.1,89.7,75,66.4,75,35.4V3.3h0.4l1.2-3.8
		L75.3-1.3z"/>
</g>
</svg>
