<?xml version="1.0" encoding="utf-8"?>
<!-- Generator: Adobe Illustrator 19.0.0, SVG Export Plug-In . SVG Version: 6.00 Build 0)  -->
<svg version="1.1" id="圖層_1" xmlns="http://www.w3.org/2000/svg" xmlns:xlink="http://www.w3.org/1999/xlink" x="0px" y="0px"
	 viewBox="45 -33.8 150 150" style="enable-background:new 45 -33.8 150 150;" xml:space="preserve">
<style type="text/css">
	.st0{enable-background:new    ;}
	.st1{fill:#DC6200;}
</style>
<g class="st0">
	<path d="M156.5,44.8l-6,7.2H88.6c-4.5-2.2-8.2-3.9-10.8-4.8v57.9h8.9V94.8h65.6v10.3h8.9V58.7l4-2.9c0.8-0.6,1.2-1.2,1.2-1.6
		C166.3,53.1,163,49.9,156.5,44.8z M152.2,91H86.6V55.7h65.6V91z"/>
	<path class="st1" d="M156.9,31l-1.5-1.6c-3.1-3.3-6-6.1-8.8-8.4l-7.3,9.2H85.2l2,3.7h67.9L156.9,31z"/>
	<path d="M123.3-20.3v-0.1c4.4-1.1,6.7-2.1,6.7-3.1c0-1.8-4.7-3.4-14-5.1c-13.3,28-34.3,50.3-62.8,67l2.4,3.1
		C84.5,28.2,106.3,9,121-16.2c15.1,21.3,35,38.6,59.8,51.9c1.7-3.2,4.1-6.1,7.3-8.6C163,16.4,141.4,0.6,123.3-20.3z"/>
</g>
</svg>
