<?xml version="1.0" encoding="utf-8"?>
<!-- Generator: Adobe Illustrator 19.0.0, SVG Export Plug-In . SVG Version: 6.00 Build 0)  -->
<svg version="1.1" id="圖層_1" xmlns="http://www.w3.org/2000/svg" xmlns:xlink="http://www.w3.org/1999/xlink" x="0px" y="0px"
	 viewBox="45 -33.8 150 150" style="enable-background:new 45 -33.8 150 150;" xml:space="preserve">
<style type="text/css">
	.st0{enable-background:new    ;}
	.st1{fill:#DC6200;}
</style>
<g class="st0">
	<path class="st1" d="M111.2,92.2c0-3.7-4.2-7.7-12.6-12l-1.2-0.6c1.8-2.1,12.4-16.6,13.3-24.2l3.7-3.3c-2.5-3.1-5.2-5.4-8.2-7
		l-4.2,5.1H80.2c0.4-0.7,1.2-2.8,2.2-6.3c3.6-0.7,5.4-1.6,5.4-2.7c0-1.9-3.9-3.6-11.6-5.3c-1.3,4.5-2.9,9.3-4.6,14.3H51l1.4,3.7H70
		c-3.7,9-7.6,17.3-11.8,24.8l7.2,2.9c1.8-3.2,3.2-5.8,4.3-7.8c5,2,12,4.5,16.9,7.5c-7.1,7.5-20.5,15.9-34.8,20.1l1.8,3.4
		c17-3.5,30.3-11.2,39.8-19c3.5,2.5,6.4,5,8.7,7.5c2.3,2.3,4,3.4,5.1,3.4C109.9,96.7,111.2,95.2,111.2,92.2z M90.2,76.1
		c-5.5-2.3-13.1-4.3-18.6-6l0.4-1c2.5-5.3,4.3-9.1,5.3-11.4c0.6-1.8,1.1-3.1,1.5-3.7h24C101.5,58.5,94.8,71,90.2,76.1z"/>
	<path d="M49.2,37.1l2.4,2.7c11.3-6.9,20.7-15.2,28.2-25v21.5h8V15.1c6.7,4.2,14.4,10.7,16.9,15.5c1.4,2.4,2.9,3.6,4.5,3.6
		c3,0,4.5-1.7,4.5-5c0-2.2-1.5-4.6-4.4-7.2c-4.1-3.5-12.5-8.3-19.5-10.3L87.8,11V4.3h25.5l1.6-2.9c-1.5-2.4-3.7-5.1-6.6-8.1
		c-0.3-0.2-0.7-0.6-1.2-1.2L101,0.6H87.8v-14.7c5.1-0.9,10-2,14.6-3.1c1.7,0.3,3,0.4,4,0.4c2,0,3-0.5,3-1.5c0-1.9-2.9-4.6-8.7-8.1
		c-12,5.8-27.5,10.2-46.4,13.3l1.8,3.6c8.4-0.9,16.3-2,23.7-3.1V0.6H52.5l1.5,3.7h23.7C70.4,17.1,60.9,28.1,49.2,37.1z"/>
	<path d="M144.8,48.1c-1.9-1.2-5.4-2-10.6-2.5c-0.5,0-1-0.1-1.2-0.1l-0.8,10c-3.1,21.5-13.1,37.4-30,47.5l2.1,2.9
		c8.8-4.2,15.7-9,20.7-14.3c8.6-9.2,13.9-20.8,15.7-34.6l0.6-3.7c3.2-1.1,4.9-2.2,5-3.3C146.1,49.3,145.6,48.6,144.8,48.1z"/>
	<path d="M176,86.2c2.9,0,4.4-1.6,4.4-4.8c0-4.5-2.7-9.3-8-14.4l-2.3,1.5c1.3,2.4,2.1,4.9,2.6,7.6c-1.5,0.1-4.1,0.3-7.8,0.4
		c2.9-6.6,5.2-12.6,6.7-17.8c2.5-0.9,3.7-1.8,3.7-2.7c0-1.5-3.5-3-10.6-4.5c-0.7,8.3-2,16.7-3.8,25.3h-3.6c1.2,6.1,2.4,9.2,3.6,9.2
		c0.6,0,1.4-1,2.3-3.1c4-0.9,7.3-2,9.9-3.3v1.8C173.1,84.6,174.1,86.2,176,86.2z"/>
	<path d="M190.4,92.8c-2.4,0-3.6-5.2-3.4-15.7v-5.3l-3.4-1.4c-0.7,10.9-1.7,17.8-3,20.9c-1.1,2.3-5.6,3.4-13.5,3.4
		c-4.2,0-7.1-0.2-8.4-0.7c-1.3-0.4-1.9-1.9-1.9-4.2V48.2c2.7-0.9,4-1.8,4-2.7c-0.1-0.8-2.1-1.5-5.9-2.1h17.7v6.1h8.3V-1.7l3.3-2.4
		c0.9-0.6,1.3-1.2,1.3-1.9c0-1.3-3-4.3-8.9-9.2l-5.6,7h-28.5c3-4.2,5.8-8.9,8.3-13.9c3.6-0.8,5.4-1.8,5.4-3
		c-0.2-2.1-4.9-3.9-13.8-5.3c-0.4,7-1.8,14.4-4.2,22.2h-9.6c-4.2-2.1-7.5-3.7-10-4.6v63h8.4v-6.8h21.7v47.2c0,4.6,0.9,7.6,2.6,8.9
		c2.1,1.6,6.9,2.4,14.6,2.4c10.7,0,17.7-0.5,20.9-1.6c2.8-1.1,4.5-3.6,4.9-7.7C191.1,92.7,190.8,92.8,190.4,92.8z M145,39.7h-18.2
		V18.9H145V39.7z M145,15.1h-18.2V-4.4H145V15.1z M153.3-4.4h19v19.6h-19V-4.4z M153.3,18.9h19v20.8h-19V18.9z"/>
</g>
</svg>
