<?xml version="1.0" encoding="utf-8"?>
<!-- Generator: Adobe Illustrator 19.0.0, SVG Export Plug-In . SVG Version: 6.00 Build 0)  -->
<svg version="1.1" id="圖層_1" xmlns="http://www.w3.org/2000/svg" xmlns:xlink="http://www.w3.org/1999/xlink" x="0px" y="0px"
	 viewBox="45 -33.8 150 150" style="enable-background:new 45 -33.8 150 150;" xml:space="preserve">
<style type="text/css">
	.st0{enable-background:new    ;}
	.st1{fill:#DC6200;}
</style>
<g class="st0">
	<path class="st1" d="M148.5,69.4c-8.7-9.4-16.1-21.7-22.3-36.9l-0.7-1.8h-5.1c2.7,9.4,6,18.1,10,26.1c9.7,19.3,24.9,34.6,45.6,46
		c2.2-3.7,5-6.5,8.2-8.6C169.6,87.6,157.7,79.3,148.5,69.4z"/>
	<path d="M125.4,30.7H159v8.4h8.6V-7.7l3.9-2.7c1-0.7,1.5-1.4,1.5-2.1c0-1.7-3.1-4.8-9.4-9.4l-6,7.3H89.8c-3.8-2.1-7.3-3.7-10.6-5
		v38.7c0,35.6-8.4,63.1-25.2,82.4l2.9,3C68.3,94.5,76.4,83,81,70.1c3.8-10.5,6.2-23,7-37.6v-1.8h32.2c0,0,0,0,0,0L125.4,30.7
		L125.4,30.7z M88.2,26.9c0.1-1.3,0.1-4,0.1-8v-29.8H159v37.8H88.2z"/>
</g>
</svg>
