<?xml version="1.0" encoding="utf-8"?>
<!-- Generator: Adobe Illustrator 19.0.0, SVG Export Plug-In . SVG Version: 6.00 Build 0)  -->
<svg version="1.1" id="圖層_1" xmlns="http://www.w3.org/2000/svg" xmlns:xlink="http://www.w3.org/1999/xlink" x="0px" y="0px"
	 viewBox="45 -33.8 150 150" style="enable-background:new 45 -33.8 150 150;" xml:space="preserve">
<style type="text/css">
	.st0{enable-background:new    ;}
	.st1{fill:#DC6200;}
</style>
<g class="st0">
	<path class="st1" d="M85.9-25.7c0-2.2-4.9-3.4-14.7-3.6v134.5h8.4V-21.3C83.8-23,85.9-24.5,85.9-25.7z"/>
	<path class="st1" d="M57.7,0c-0.2,15.9-2.6,28.2-7.1,36.9c-0.7,1.2-1,2.3-1,3.3c0,2.8,1.6,4.2,4.9,4.2c5.9,0,8.9-7.5,8.9-22.6
		c0-5-0.7-12.3-2.1-21.8H57.7z"/>
	<path class="st1" d="M94.3,28.9c3.3,0,5-2,5-5.9c0-8.2-5-17.1-15-27L81.5-2c4.8,8.8,7.7,17.1,8.6,24.8
		C90.7,26.9,92.1,28.9,94.3,28.9z"/>
	<path d="M145.6,46.6c3.3,0,5-1.8,5-5.4c0-6.6-7.7-12.9-23.1-18.8l-1.7,2.9c7.2,4.6,12.1,10.1,14.9,16.5
		C142,44.9,143.7,46.6,145.6,46.6z"/>
	<path d="M178.7,83.3l-7.9,11.1h-11.1l0.4-3.4c3.4-24.9,5.7-49.5,7-73.7l4-2.6c0.8-0.5,1.2-1.1,1.2-1.8c0-1.7-3.1-5-9.4-9.9
		l-5.9,7.2h-33.7L124.9-5l0.7-7.3H183l1.5-3.3c-3.4-3.9-6.9-7.3-10.5-10.5l-7.4,10H90.8l1.4,3.7h24.4c-3.1,33.2-7.3,62.4-12.6,87.7
		l8.7,1.5c3.8-18.5,6.9-38.1,9.4-59l0.6-3.9h35.4c-1.2,21.7-3.4,46.3-6.6,73.7l-1,6.7H87.1l1.7,3.7h97.8l1.8-3
		C185.2,90.8,182,86.9,178.7,83.3z"/>
	<path d="M121.6,55.3c7.6,5.3,12.8,11.4,15.6,18.2c0.9,2.2,2.3,3.3,4.2,3.3c3.4,0,5.1-1.8,5.1-5.4c0-6.7-7.7-13-23.2-18.8
		L121.6,55.3z"/>
</g>
</svg>
