<?xml version="1.0" encoding="utf-8"?>
<!-- Generator: Adobe Illustrator 19.0.0, SVG Export Plug-In . SVG Version: 6.00 Build 0)  -->
<svg version="1.1" id="圖層_1" xmlns="http://www.w3.org/2000/svg" xmlns:xlink="http://www.w3.org/1999/xlink" x="0px" y="0px"
	 viewBox="45 -33.8 150 150" style="enable-background:new 45 -33.8 150 150;" xml:space="preserve">
<style type="text/css">
	.st0{enable-background:new    ;}
	.st1{fill:#DC6200;}
</style>
<g class="st0">
	<path class="st1" d="M117.4-8.7c1,3.1,2.6,4.6,4.6,4.6c3.3,0,5-1.8,5-5.4c0-6.3-6.7-12-20.2-16.9l-1.8,2.7
		C111.5-19.2,115.7-14.2,117.4-8.7z"/>
	<path class="st1" d="M108.7,22c1,3.7,2.7,5.6,5.1,5.6c3.2,0,4.8-1.8,4.8-5.4c0-6.1-6.3-12-18.8-17.7l-2.1,2.9
		C103.8,12.2,107.4,17.1,108.7,22z"/>
	<path d="M181.7-11.2l1.6-3c-2.8-3.8-5.9-7.3-9.4-10.5l-7.6,9.7h-29.4l2,3.7H181.7z"/>
	<path class="st1" d="M114.4,73.9c0-2,0.9-5.5,2.6-10.6c0.1-0.7,0.3-1.2,0.4-1.5l18.3-58.2l-3.4-2.1L130,8
		c-8.1,22.9-14.6,39-19.6,48.3c-2,3.5-4.9,5.3-8.6,5.3c-1.9,0-3.9-0.2-6.2-0.6v4c4.1,0.7,6.9,1.9,8.6,3.6c2.3,2.3,3.4,6,3.4,11.1
		c0,3-0.4,7.2-1.2,12.5c-0.1,1-0.3,2.4-0.5,4.2c-0.1,1.3-0.2,2-0.2,2.1c0,3.3,1.8,5,5.3,5c4.5,0,6.7-3.3,6.7-9.9
		c0-3-0.9-7.8-2.6-14.4C114.7,76.7,114.4,75,114.4,73.9z"/>
	<path d="M178.4,11.1l-7.8,10h-37.8l2.1,3.7h21.3v63c0,3-1.5,4.5-4.6,4.5c-6.9,0-13.5-0.3-19.8-1v3.9c7.9,1.4,12.9,2.6,15,3.6
		c2,1.1,3,2.9,3,5.4c10.1,0.1,15.2-3.7,15.2-11.6V24.9h21.6l1.8-2.9C185.2,17.7,181.9,14,178.4,11.1z"/>
	<path d="M90.3-19.1c4.2,0,6.3-0.7,6.3-2.2c0-2.1-3.8-4.5-11.5-7.4C76.7-11.2,65.7,3.7,51.9,15.8l2.7,2.7
		C68.7,8.2,80.6-4.4,90.3-19.1z"/>
	<path d="M82.9,2.9c-8,23.1-18.2,42.4-30.6,57.6l2.9,2.4c5.4-5.2,11.1-11.9,16.9-20.1v62.4H81V39.4c3.5-1.4,5.3-2.7,5.3-4
		c0-1.5-2.4-2.6-7.3-3.3c3.5-6.2,6.6-12.8,9.4-19.8c4.3-0.1,6.4-0.9,6.4-2.3C94.9,8,90.9,5.6,82.9,2.9z"/>
</g>
</svg>
