<?xml version="1.0" encoding="utf-8"?>
<!-- Generator: Adobe Illustrator 19.0.0, SVG Export Plug-In . SVG Version: 6.00 Build 0)  -->
<svg version="1.1" id="圖層_1" xmlns="http://www.w3.org/2000/svg" xmlns:xlink="http://www.w3.org/1999/xlink" x="0px" y="0px"
	 viewBox="45 -33.8 150 150" style="enable-background:new 45 -33.8 150 150;" xml:space="preserve">
<style type="text/css">
	.st0{enable-background:new    ;}
	.st1{fill:#DC6200;}
</style>
<g class="st0">
	<path d="M122.1,8c4.9-4.1,9-8.8,12.5-13.9C138.4,0,142.7,5,147.5,9c-8.6,7.8-19.1,13.5-31.5,17.2l1.8,3.4
		c14.9-3.1,26.9-8.4,35.9-15.9c7.3,5,16.4,8.9,27.5,11.6c1.7-3.1,3.7-5.8,6.1-8.3c-11.4-1.5-20.9-4.4-28.5-8.6
		c5.5-5.9,9.7-12.6,12.6-20.1h14.6l1.5-2.6c-3.7-4-6.6-6.9-8.7-8.6l-6.4,7.5h-32.2l0.5-0.9c0.2-0.5,0.6-1.5,1.1-2.9
		c0.6-1.5,1-2.7,1.4-3.6c4-1.1,6-2.2,6-3.3c0-1.7-4.5-3-13.6-4.1c-2.9,14.3-8.3,26.3-16.2,35.9L122.1,8z M138.2-11.6h23.4
		c-2.1,5.8-5.2,11.2-9.3,16.2c-5.7-3.9-10.8-8.6-15.3-14.1C137.4-10.3,137.8-11,138.2-11.6z"/>
	<path class="st1" d="M75.6,36.2h109.5l1.7-2.9c-4.6-3.8-8-6.3-10.1-7.6l-7.3,6.7H76.6L75,31.8c-1.6-0.6-4.3-1.6-8.1-2.9v27.7
		c0,19.3-5.2,35-15.6,47l2.9,2.3c14.3-11.6,21.5-28,21.5-49.4V36.2z"/>
	<path d="M52.5,26.1l2.3,3.1c10.8-5.1,20.5-11.9,29.1-20.4v19.4h8V9.9c7.3,3.1,12.4,6.4,15.5,10c1.5,1.8,3,2.7,4.4,2.7
		c2.6,0,3.9-1.6,3.9-4.7c0-5.5-7.9-9.6-23.7-12.2V1.4H120l1.8-2.9c-2.9-2.8-5.6-5.2-8.3-7l-5.7,6.2h-16V-13h24.6l1.8-2.7
		c-2.7-3-5.4-5.6-8.2-7.8l-5.6,6.7H91.8v-6.7c3.1-1.2,4.6-2.3,4.6-3.4c0-2.1-4.2-3.1-12.6-3.3v13.5H57.9l1.6,3.7h24.3v10.7H53.5
		L55,1.4h25.2C73,11.3,63.8,19.5,52.5,26.1z"/>
	<path d="M177.6,91.5l-8,8.1h-36.9V88h43.5l1.5-2.3c-3.2-3.1-6.4-5.9-9.7-8.3l-6.7,6.8h-28.6V74h27.8v2.6h8.3V50.4l3.1-2.1
		c0.8-0.5,1.2-1.1,1.2-1.8c0-1.2-2.8-3.7-8.3-7.7l-5.8,5.7H99.8l-1.7-0.7c-2.2-1.2-4-2-5.3-2.4c-2.1-1-3.3-1.5-3.7-1.7v39h8.1V74h27
		v10.3H82.4l1.9,3.7h39.9v11.6H72.9l1.8,3.7h112l1.5-2.6C185.1,97.7,181.6,94.6,177.6,91.5z M132.7,48.2h27.8v9h-27.8V48.2z
		 M132.7,61h27.8v9.3h-27.8V61z M124.2,70.3h-27V61h27V70.3z M124.2,57.3h-27v-9h27V57.3z"/>
</g>
</svg>
