<?xml version="1.0" encoding="utf-8"?>
<!-- Generator: Adobe Illustrator 19.0.0, SVG Export Plug-In . SVG Version: 6.00 Build 0)  -->
<svg version="1.1" id="圖層_1" xmlns="http://www.w3.org/2000/svg" xmlns:xlink="http://www.w3.org/1999/xlink" x="0px" y="0px"
	 viewBox="45 -33.8 150 150" style="enable-background:new 45 -33.8 150 150;" xml:space="preserve">
<style type="text/css">
	.st0{enable-background:new    ;}
	.st1{fill:#DC6200;}
</style>
<g class="st0">
	<path class="st1" d="M183.1,8l1.6-3c-3.4-4.3-7.1-8.3-10.9-11.9l-8.4,11.1H124v-23.2c4.5-1.8,6.7-3.4,6.7-4.8
		c0-2.1-5.3-3.4-15.9-3.9V4.3H54.3L55.8,8h59.1v34.7h9.2V8H183.1z"/>
	<path d="M114.9,43H84.3c-3.4-1.9-6.8-3.5-10.2-5v65h8.9v-9.6h72.7v9.6h8.9V49.6l3.9-2.6c0.9-0.6,1.4-1.2,1.4-1.8
		c0-1.3-3.1-4.5-9.4-9.8l-6.2,7.5H124v-0.3h-9.2V43z M155.7,46.8v42.9H82.9V46.8H155.7z"/>
</g>
</svg>
