<?xml version="1.0" encoding="utf-8"?>
<!-- Generator: Adobe Illustrator 19.0.0, SVG Export Plug-In . SVG Version: 6.00 Build 0)  -->
<svg version="1.1" id="圖層_1" xmlns="http://www.w3.org/2000/svg" xmlns:xlink="http://www.w3.org/1999/xlink" x="0px" y="0px"
	 viewBox="45 -33.8 150 150" style="enable-background:new 45 -33.8 150 150;" xml:space="preserve">
<style type="text/css">
	.st0{enable-background:new    ;}
	.st1{fill:#DC6200;}
</style>
<g class="st0">
	<path d="M118.7,18.1c1.5,4.4,3.3,6.6,5.3,6.6c3.6,0,5.4-2,5.4-6c0-3.5-1.7-7.5-5-12.2c-5-7.1-12.6-13.7-22.8-19.8l-2.1,2.7
		C108.5-2,114.9,7.5,118.7,18.1z"/>
	<path d="M180.7,78.6c-5.4-7.9-14.1-15.9-25.9-24.2c4.6-14.3,7.3-37.2,8.1-68.7c3.9-1.3,5.9-2.6,5.9-3.9c0-2.4-5-3.9-15-4.5
		c-0.1,30.9-2,53.5-5.6,68c-6.2,25-24,42.9-53.5,53.9l2.3,3.3c28.6-7.8,47.4-22.5,56.4-43.9C164.4,69.7,172,81.2,176,93
		c0.9,2.7,2.5,4,4.9,4c3.4,0,5.1-2,5.1-6C186,87.9,184.2,83.7,180.7,78.6z"/>
	<path class="st1" d="M127,47.5c-13.2,7.2-27.2,13.9-42,20.2l-2.7-80.2c4.1-1.5,6.2-2.9,6.2-4.2c0-2.2-5.1-3.4-15.3-3.6l3,91.7
		C70,74,62.7,76.7,54.3,79.4c3.3,8.6,6,12.9,8,12.9c1.4,0,2.2-2.1,2.3-6.4c19.6-8.9,41-20.4,64.1-34.6L127,47.5z"/>
</g>
</svg>
