<?xml version="1.0" encoding="utf-8"?>
<!-- Generator: Adobe Illustrator 19.0.0, SVG Export Plug-In . SVG Version: 6.00 Build 0)  -->
<svg version="1.1" id="圖層_1" xmlns="http://www.w3.org/2000/svg" xmlns:xlink="http://www.w3.org/1999/xlink" x="0px" y="0px"
	 viewBox="45 -33.8 150 150" style="enable-background:new 45 -33.8 150 150;" xml:space="preserve">
<style type="text/css">
	.st0{enable-background:new    ;}
	.st1{fill:#DC6200;}
</style>
<g class="st0">
	<path d="M83.7,58.1v-9.4h14.7v8.1h7.8V20.9h12.2l1.3-2.9c-1-2.5-3-6.1-5.9-10.8l-4.5,9.9h-3.1V3.4c3.5-1.1,5.3-2.2,5.3-3.3
		c0-2.1-4.3-3.3-13-3.7v20.7H83.7V3.6c3.7-1.2,5.6-2.4,5.6-3.7c0-1.8-4.4-3-13.2-3.4v20.7h-9.5v3.7h9.5v37.2H83.7z M83.7,20.9h14.7
		v24H83.7V20.9z"/>
	<path d="M91.4,66.1c3.9,8,6,15.3,6.3,22c0.1,3.3,1.4,5,3.8,5c2.8,0,4.2-1.8,4.2-5.4c0-6.1-3.9-13.8-11.6-23.1L91.4,66.1z"/>
	<path d="M81,68.7c1.4,7.1,2.1,13,2.1,17.7c0,2.3-0.1,4.4-0.4,6.2c0,0.4,0,0.9-0.1,1.6c0,0.5-0.1,0.9-0.1,1c0,2.7,1.1,4,3.4,4
		c3.6,0,5.3-2.8,5.3-8.3c0-6.3-2.3-14.1-7-23.2L81,68.7z"/>
	<path d="M71.4,67.6c-1.5,12.5-4.5,21.3-8.9,26.3c-1.7,2-2.6,3.7-2.6,5c0,3,1.5,4.5,4.6,4.5c2.1,0,4.1-1.6,6-4.7
		c2.9-4.7,4.4-12.5,4.4-23.4c0-2.5,0-4.7-0.1-6.6L71.4,67.6z"/>
	<path class="st1" d="M66.5,17.2v-25h52.3l1.6-3.1c-1.8-2.9-4.3-6-7.6-9.3l-6.2,8.7H93.2v-11.1c3.5-1.1,5.3-2.2,5.3-3.5
		c0-2.2-4.5-3.4-13.4-3.6v18.2H67.9c-3.4-1.9-6.6-3.3-9.6-4.5v36.7c0,34.8-3,60.8-8.9,77.9l3,1.8c5.5-10,9.3-21.6,11.4-34.6
		c1.7-11.4,2.6-26.3,2.7-44.7h0.1v-3.7H66.5z"/>
	<path d="M152.9,88c2.9,0,4.4-1.7,4.4-5.1c0-6.4-4.6-12.9-13.7-19.3l-1.9,2.1c4.6,6.2,7.2,12.3,7.6,18.3
		C149.5,86.7,150.7,88,152.9,88z"/>
	<path d="M117.8,80.2c0-6.1-4.9-12.3-14.6-18.6l-2.1,2.3c4.5,5.4,7.6,11,9.2,16.7c0.8,2.9,1.9,4.3,3.4,4.3
		C116.4,84.9,117.8,83.3,117.8,80.2z"/>
	<path d="M187.4,40.6l1.6-3.1c-3.5-4.1-6.4-7.2-8.7-9.2l-7,8.6h-40.9V25.2h31.4v4.9h8.1v-37l3.9-2.6c0.6-0.4,1-0.9,1-1.3
		c0-1.4-3-4.3-8.9-8.7l-5.7,6.7h-18.4c2.4-3,4.6-6.4,6.6-10.2c3.5-0.8,5.3-1.7,5.3-2.9c0-2.2-4.6-3.8-13.9-4.5
		c-0.6,6-1.4,11.9-2.6,17.6h-5.7c-4-2.2-7.1-3.9-9.3-4.8v80.7h8.3v-6.9h40.7c-0.4,13.8-1.3,23.5-2.7,29.1c-1.4,5.3-4.2,8-8.6,8
		c-3.9,0-8.6-0.4-14.2-1.2v3.9c5.5,1.1,9.1,2,10.9,2.7c2.8,1,4.2,2.9,4.4,5.7c5.3,0,9.4-2.1,12.3-6.2c3.6-5.1,5.6-18.3,6-39.7
		l3.4-2.7c0.6-0.4,0.9-0.9,0.9-1.4c0-1.1-2.9-4-8.6-8.6l-5.8,6.7h-38.8V40.6H187.4z M132.4-9h31.4V3.7h-31.4V-9z M132.4,7.4h31.4v14
		h-31.4V7.4z"/>
	<path d="M164.9,82c2.9,0,4.4-1.6,4.4-4.8c0-6.3-5-12.1-15-17.5l-1.8,2.1c5.2,5.5,8.1,10.7,8.5,15.6C161.5,80.5,162.8,82,164.9,82z"
		/>
	<path d="M125.9,69.4c-0.4,10.4-3.2,18.1-8.3,23.1c-1.4,1.4-2.1,2.9-2.1,4.4c0,3,1.7,4.5,5.1,4.5c2.8,0,4.9-1.5,6.3-4.5
		c2.4-5.6,3.6-11.5,3.6-17.9c0-2.2-0.2-5.2-0.7-8.9L125.9,69.4z"/>
	<path d="M132.8,69.3c2.1,5.3,3.1,10.4,3.1,15.5c0,1.3-0.1,2.8-0.3,4.5c0,0.3-0.1,0.9-0.2,1.7c0,0.6-0.1,1-0.1,1.2
		c0,2.8,1.3,4.2,3.9,4.2c3.4,0,5.1-2.5,5.1-7.5c0-6.7-2.9-13.7-8.7-20.8L132.8,69.3z"/>
</g>
</svg>
