<?xml version="1.0" encoding="utf-8"?>
<!-- Generator: Adobe Illustrator 19.0.0, SVG Export Plug-In . SVG Version: 6.00 Build 0)  -->
<svg version="1.1" id="圖層_1" xmlns="http://www.w3.org/2000/svg" xmlns:xlink="http://www.w3.org/1999/xlink" x="0px" y="0px"
	 viewBox="45 -33.8 150 150" style="enable-background:new 45 -33.8 150 150;" xml:space="preserve">
<style type="text/css">
	.st0{enable-background:new    ;}
	.st1{fill:#DC6200;}
</style>
<g class="st0">
	<path class="st1" d="M149.1,63.8c7.6-4.4,13.9-8.7,18.8-12.9c1.8,0.2,3,0.3,3.4,0.3c2.2,0,3.3-0.5,3.3-1.6c0-1.9-3.5-5.2-10.5-9.7
		c-5.3,7.8-11.3,14.8-18,21.1c-7.4-8.1-15.2-20.3-20.1-31.6l-3.4,2c2.6,7.8,6.2,15.8,9.9,22.6c9.6,17.5,25.2,30.9,46.9,40.4
		c2.2-3.7,4.6-6.6,7.2-8.7C171.2,80.1,158.7,72.9,149.1,63.8z"/>
	<path d="M123.1,31.6h35.4v4.9h8.4v-27l3.6-2.1c0.9-0.4,1.4-1,1.4-1.8c0-1.4-3-4.5-8.9-9.4l-5.7,7h-33.5C131-2,136.5-6.5,140.1-10
		l4.3-1.3c1.3-0.4,2-1,2-1.7c0-1.6-3.3-5-10-10l-6,6.4h-27.3c0.9-1.3,2.2-3.2,4-5.6c4.6-0.9,7-1.9,7-3.1c0-1.9-4.6-3.4-13.8-4.8
		C89.1-10.6,73.5,5.8,53.4,19.3l2.1,3.1c6.3-3.5,12.4-7.2,18-11.3v26.3h8.4v-5.9h28.2C97.6,42.9,80.3,51.6,58,57.5l1.8,3.4
		c17.7-3.7,33.2-9.6,46.7-17.7c2.1,2.6,3.8,4.7,5,6.3C99,60.8,81.5,69.4,59.1,75.6l1.8,3.4c22.1-4.6,40.2-11.8,54.3-21.6
		c0.3-0.2,0.6-0.4,1-0.6c1.6,3,2.8,5.6,3.7,7.8c-16,13.3-37.6,23.3-64.7,30.1l2,3.6c26.8-5,48.5-13.2,65.2-24.5
		c0.4,3.2,0.7,6.1,0.7,8.8c0,2.9-0.2,5.2-0.7,6.7c-0.9,2.9-3.4,4.3-7.4,4.3c-4.6,0-10.2-0.6-16.6-1.7v3.9c6.5,1.3,11,2.6,13.3,3.8
		c1.9,1,2.9,2.9,3,5.6c11.8,0.2,17.7-6.3,17.7-19.6c0-16.9-7.3-31.8-22-44.5c3.9-2.5,8.1-5.6,12.8-9.3L123.1,31.6z M115.2,27.9H81.9
		V7h33.3V27.9z M117.8,3.3H85.5c0,0-0.2-0.1-0.4-0.3c-0.2-0.1-0.4-0.2-0.6-0.3c6.2-5.4,11.4-10.6,15.6-15.5h30.5
		C127.2-7.6,123-2.2,117.8,3.3z M123.5,7h35v20.9h-35V7z"/>
</g>
</svg>
