<?xml version="1.0" encoding="utf-8"?>
<!-- Generator: Adobe Illustrator 19.0.0, SVG Export Plug-In . SVG Version: 6.00 Build 0)  -->
<svg version="1.1" id="圖層_1" xmlns="http://www.w3.org/2000/svg" xmlns:xlink="http://www.w3.org/1999/xlink" x="0px" y="0px"
	 viewBox="45 -33.8 150 150" style="enable-background:new 45 -33.8 150 150;" xml:space="preserve">
<style type="text/css">
	.st0{enable-background:new    ;}
	.st1{fill:#DC6200;}
</style>
<g class="st0">
	<path class="st1" d="M120.6-0.5c0.1-0.2,0.3-0.5,0.7-0.9c1.7-1.9,4.5-5.8,8.5-11.5h-11.3c-16.1,23.7-38.1,42.7-66.1,56.9l2.3,3.4
		c24.6-11.2,44.7-25,60.3-41.6v0.3l5.7-6.6C120.7-0.5,120.6-0.5,120.6-0.5z"/>
	<path class="st1" d="M120.8-10.5L115-3.9v50.7h8.6V-6.3C123.7-11.6,126.5-9.8,120.8-10.5z"/>
	<path d="M129.9-13h51.9l1.9-3c-3.5-4.1-7.3-7.8-11.5-11.2l-8,10.5H56.5l1.4,3.7h60.7c0,0,0,0,0,0.1L129.9-13
		C129.9-13,129.9-13,129.9-13z"/>
	<path class="st1" d="M174.3,25c-9.4-7-22-13.3-37.8-19l-1.8,3.3c15.7,8.3,27.7,17.1,36,26.4c2.8,3.1,5,4.7,6.6,4.7c3.3,0,5-1.7,5-5
		C182.3,32.4,179.6,29,174.3,25z"/>
	<path d="M158.8,45.6l-5.7,6.7H86.5c-4.2-2.2-7.8-3.9-10.8-5v57.9h8.9V94.9h70.1v10.3h8.9V59.4l3.7-2.6c0.9-0.6,1.4-1.2,1.4-1.9
		C168.6,53.5,165.4,50.4,158.8,45.6z M154.6,91.2H84.6V56.1h70.1V91.2z"/>
</g>
</svg>
