<?xml version="1.0" encoding="utf-8"?>
<!-- Generator: Adobe Illustrator 19.0.0, SVG Export Plug-In . SVG Version: 6.00 Build 0)  -->
<svg version="1.1" id="圖層_1" xmlns="http://www.w3.org/2000/svg" xmlns:xlink="http://www.w3.org/1999/xlink" x="0px" y="0px"
	 viewBox="45 -33.8 150 150" style="enable-background:new 45 -33.8 150 150;" xml:space="preserve">
<style type="text/css">
	.st0{fill:#DC6200;}
</style>
<g>
	<path class="st0" d="M131.9-9h50.3l1.6-3.1c-3.4-4.1-7.2-7.8-11.4-11.2l-8.5,10.6H56.4L57.8-9h62.8v0.1L131.9-9
		C131.8-9,131.8-9,131.9-9z"/>
	<path d="M136.7,21.5l-2,3.3c17.5,11.1,29.6,22,36.1,32.7c2.4,3.8,4.6,5.7,6.4,5.7c3.3,0,5-1.9,5-5.6
		C182.3,48,167.1,35.9,136.7,21.5z"/>
	<path d="M114.8,21.2l4.5-7.2c-0.1,0-0.1,0-0.2,0c3.7-5.5,8-13.2,12.8-23h-11.2C107.1,22.4,85.5,48.3,56,68.6l2.6,3.4
		c23-13.9,41.7-31,56.3-51.5L114.8,21.2L114.8,21.2z"/>
	<polygon points="119.2,4.1 114.7,11.2 114.7,105.2 123.8,105.2 123.8,4.6 	"/>
</g>
</svg>
