<?xml version="1.0" encoding="utf-8"?>
<!-- Generator: Adobe Illustrator 19.0.0, SVG Export Plug-In . SVG Version: 6.00 Build 0)  -->
<svg version="1.1" id="圖層_1" xmlns="http://www.w3.org/2000/svg" xmlns:xlink="http://www.w3.org/1999/xlink" x="0px" y="0px"
	 viewBox="45 -33.8 150 150" style="enable-background:new 45 -33.8 150 150;" xml:space="preserve">
<style type="text/css">
	.st0{enable-background:new    ;}
	.st1{fill:#DC6200;}
</style>
<g class="st0">
	<path d="M78.2-9c0.9,3,2.4,4.5,4.5,4.5c3.6,0,5.4-2,5.4-5.9c0-6.6-6.8-12-20.4-16.2l-1.8,2.7C72.6-19.3,76.7-14.4,78.2-9z"/>
	<path d="M65.6,22.6c0.9,3.7,2.5,5.6,4.8,5.6c3.5,0,5.3-1.9,5.3-5.6c0-7-6.3-12.6-19-16.9L54.8,8C60.8,12.6,64.4,17.4,65.6,22.6z"/>
	<path d="M98.1,0l-4-2.4c-8.2,23.2-16.7,43.1-25.6,59.7c-2.2,4-5.5,6-9.9,6c-1.1,0-3-0.1-5.6-0.4v3.9c8.5,1.3,12.7,6.5,12.7,15.6
		c0,3.6-0.4,7.5-1.1,11.7c-0.6,3.6-0.9,5.6-0.9,6.1c0,3.2,1.8,4.8,5.3,4.8c4.6,0,6.9-3,6.9-8.9c0-3.6-0.8-8.7-2.3-15.2
		c-0.5-2.3-0.7-4-0.7-5.1c0-2.3,0.9-6,2.6-11.1L98.1,0z"/>
	<path class="st1" d="M170.1,13.9h16.4l1.5-3.1c-2.9-3.3-6.3-6.7-10.2-10l-7.2,9.4H129c2.9-9.8,5.5-19.6,7.8-29.2
		c4.5-1.2,6.7-2.4,6.7-3.6c0-2.2-4.7-4-14.1-5.3c-3.2,14.7-6.5,27.4-9.7,38.1H96.6l1.7,3.7h20.2c-5.5,17.5-11.7,34-18.6,49.7
		l8.3,3.1c1.7-3.7,3.3-7.5,4.8-11.4c9.4,4.4,18.8,9.6,28.1,15.6c-10.6,15.2-27.6,25.5-51,31.1l1.8,3.4c25.8-4.5,44.8-14.3,57-29.5
		c11.2,7.8,19.7,14.6,25.3,20.4c3.6,3.6,6.2,5.4,7.7,5.4c3,0,4.5-1.8,4.5-5.3c0-6-11.2-15-33.7-27.1c7.9-16,13.6-34,17.2-53.9
		L170.1,13.9z M145,65c-11.2-5.4-20.5-9.5-27.9-12.5l-2.4-1c4.5-11.4,8.6-23.2,12.3-35.2l1-2.4h32.2C156.8,34.2,151.7,51.2,145,65z"
		/>
</g>
</svg>
