<?xml version="1.0" encoding="utf-8"?>
<!-- Generator: Adobe Illustrator 19.0.0, SVG Export Plug-In . SVG Version: 6.00 Build 0)  -->
<svg version="1.1" id="圖層_1" xmlns="http://www.w3.org/2000/svg" xmlns:xlink="http://www.w3.org/1999/xlink" x="0px" y="0px"
	 viewBox="45 -33.8 150 150" style="enable-background:new 45 -33.8 150 150;" xml:space="preserve">
<style type="text/css">
	.st0{enable-background:new    ;}
	.st1{fill:#DC6200;}
</style>
<g class="st0">
	<path d="M166.2-6.8c4.5,0,6.7-0.7,6.7-2.1c0-2-4.4-5.2-13.2-9.4c-6.3,16.4-13.3,30.3-21,41.8l3.1,2.3C151.9,14.9,160,4,166.2-6.8z"
		/>
	<path d="M89.7,24.7c3.5,0,5.3-2.1,5.3-6.2c0-9.1-8.4-20.4-25.2-33.8l-2.4,2.7c8.4,9.9,14.1,20,17,30.3
		C85.6,22.4,87.4,24.7,89.7,24.7z"/>
	<path d="M183,87.9c-0.9-2.6-1.3-8.5-1.3-17.9v-3.9l-4.1-1.7c-0.9,17.5-3.3,26.9-7.3,28.1c-2.1,0.5-7.1,0.7-14.7,0.7
		c-7.5,0-12.3-0.2-14.2-0.7c-1.7-0.6-2.6-2.3-2.6-5.1V36.7h-8.9v52.6c0,4.5,0.9,7.6,2.6,9.3c2.3,2,10,3,23.2,3
		c11.2,0,19.3-0.4,24.3-1.2c5.1-1.1,7.7-4.1,7.8-9.2C185.4,91.5,183.8,90.3,183,87.9z"/>
	<path class="st1" d="M138.8,36.7h44.4l1.8-2.9c-3.3-4.2-6.8-8-10.7-11.4l-8.1,10.5H124v0h-8.7v0H55l1.5,3.7h42.5
		c-0.3,12.8-2.3,23.4-6,31.8c-6.4,15-19.7,26-39.8,33l2.1,3.4c17.5-4.5,30.2-11.3,38.2-20.5c8.8-10.2,13.6-26.1,14.6-47.8h21.8v0
		L138.8,36.7L138.8,36.7z"/>
	<path d="M124-17.9c4.2-1.7,6.4-3.1,6.4-4.4c0-2.1-5-3.3-15.1-3.7v58.9h8.7V-17.9z"/>
</g>
</svg>
