<?xml version="1.0" encoding="utf-8"?>
<!-- Generator: Adobe Illustrator 19.0.0, SVG Export Plug-In . SVG Version: 6.00 Build 0)  -->
<svg version="1.1" id="圖層_1" xmlns="http://www.w3.org/2000/svg" xmlns:xlink="http://www.w3.org/1999/xlink" x="0px" y="0px"
	 viewBox="45 -33.8 150 150" style="enable-background:new 45 -33.8 150 150;" xml:space="preserve">
<style type="text/css">
	.st0{enable-background:new    ;}
	.st1{fill:#DC6200;}
</style>
<g class="st0">
	<path d="M118.4-8.3h59.3l1.5-2.9c-2.8-3.6-5.8-6.9-9-9.7l-1.8-1.6L160.2-12H60.6L62-8.3h46.8l0,0L118.4-8.3L118.4-8.3z"/>
	<path d="M178.1,81l-7.8,10.6h-14.7v0h-8.9v0h-46.1l0,0h-9.4l0,0H53.4l1.7,3.7h131l1.8-3.3C184.9,88.1,181.6,84.4,178.1,81z"/>
	<path class="st1" d="M101.5,87.1c2.2-9.7,4.7-22.1,7.5-37.3l2.4-13.5h35.2v55.2h8.9V39.1l4.6-2.9c0.6-0.4,1-0.9,1-1.3
		c0-1.5-3.3-4.8-9.8-9.9l-6.3,7.6h-33l0.4-2.9c1.4-8.3,3.2-19.8,5.4-34.4l0.4-3.7h-9.6l-0.4,4c-1.2,8.5-2.4,16.4-3.7,23.4
		c-0.7,4.5-1.4,9-2.2,13.5H68.3l1.6,3.7h32c-2.4,14.8-5.7,31.8-9.8,50.9l-0.9,4.3h9.4L101.5,87.1z"/>
</g>
</svg>
