<?xml version="1.0" encoding="utf-8"?>
<!-- Generator: Adobe Illustrator 19.0.0, SVG Export Plug-In . SVG Version: 6.00 Build 0)  -->
<svg version="1.1" id="圖層_1" xmlns="http://www.w3.org/2000/svg" xmlns:xlink="http://www.w3.org/1999/xlink" x="0px" y="0px"
	 viewBox="45 -33.8 150 150" style="enable-background:new 45 -33.8 150 150;" xml:space="preserve">
<style type="text/css">
	.st0{enable-background:new    ;}
	.st1{fill:#DC6200;}
</style>
<g class="st0">
	<path d="M79.6,3.6h80.8v6.7h8.4v-27.8c4.1-1.4,6.2-2.7,6.2-4c0-2.2-4.9-3.6-14.6-4v25.3h-36.7v-21.3c3.9-1.5,5.9-2.9,5.9-4
		c0-2.1-4.8-3.3-14.3-3.6v28.9H79.6v-17.6c4.2-1.5,6.3-2.9,6.3-4.2c0-2.2-4.9-3.4-14.7-3.7v36.8h8.4V3.6z"/>
	<path class="st1" d="M74,22.3h109.2l1.6-3c-2.4-2.9-5.4-6-9-9.3c-0.2-0.1-0.6-0.4-1.2-1l-7.8,9.6H75.3c-2.5-1.3-6-2.8-10.3-4.5
		v30.2c0,24.6-4.8,44-14.3,58.2l3,2.3C67.2,90.3,74,70.1,74,44.4V22.3z"/>
	<path d="M84.2,64.3c-2.5,2.5-3.7,4.6-3.7,6.2c0,3.4,1.7,5.1,5.1,5.1c2.9,0,5.6-2,8-5.9c4-6.3,6-14.9,6-25.8c0-1.9-0.1-3.7-0.2-5.4
		l-3.7-0.9C94.3,49.3,90.5,58.2,84.2,64.3z"/>
	<path d="M138.2,71.7c11.5-9.1,20.5-17.6,27-25.3c0.8,0.1,1.7,0.1,2.8,0.1c2.6,0,4-0.6,4-1.7c0-2-4-5.1-11.9-9.4
		c-7,12.3-15.1,23.4-24.5,33.3c-5.5-7.2-8.3-15.1-8.5-23.7v-8.7c3.7-1.3,5.6-2.6,5.6-3.9c0-2-4.7-3.1-14.1-3.6v15.7
		c0,28.6-17.8,47.6-53.3,57l2,3.3c33.3-5.8,52.9-21.2,58.7-46.1c4.9,20.1,22.3,35.2,52.2,45.3c2-3.8,4.3-6.8,7.2-9
		C163.7,89.9,148,82.2,138.2,71.7z"/>
</g>
</svg>
