<?xml version="1.0" encoding="utf-8"?>
<!-- Generator: Adobe Illustrator 19.0.0, SVG Export Plug-In . SVG Version: 6.00 Build 0)  -->
<svg version="1.1" id="圖層_1" xmlns="http://www.w3.org/2000/svg" xmlns:xlink="http://www.w3.org/1999/xlink" x="0px" y="0px"
	 viewBox="45 -33.8 150 150" style="enable-background:new 45 -33.8 150 150;" xml:space="preserve">
<style type="text/css">
	.st0{fill:#DC6200;}
	.st1{enable-background:new    ;}
</style>
<g>
	<path class="st0" d="M133.2,36.3c16.7,7.5,29.4,15.3,38.4,23.5c7.2,6.6,10.8,12.2,10.8,16.8c0,3.9-1.7,5.9-5.1,5.9
		c-2.1,0-4.4-2.3-7.2-7c-7-11.7-20-23.7-38.8-36.1L133.2,36.3z"/>
</g>
<g class="st1">
	<path d="M78.9-6.5c1.3,3.1,3,4.6,5.1,4.6c3.3,0,5-1.9,5-5.7c0-7.1-7.8-13.3-23.4-18.8l-1.9,3C71.2-18.4,76.3-12.8,78.9-6.5z"/>
	<path d="M130.9,31.8H92.5l1.6,3.7h36.2C127.2,55.3,115.4,70.2,95,80l2.1,3.4c20.3-7.2,33.3-18.9,39.2-35.1c1.1-3.1,1.9-6.1,2.3-8.8
		c0,0,0.4-2.9,0.6-4.1h42.7l1.5-2.7c-2.6-3.4-5.9-7.1-10-11.1l-7.7,10h-26.3c0.2-2.4,0.7-10.4,0.7-12V4.9h33.8l1.5-2.9
		c-2.8-3.5-6.1-6.9-9.9-10.2l-6.9,9.3h-18.5v-21.6c4.3-1.3,6.4-2.7,6.4-4c0-2.5-5.1-3.7-15.3-3.7V1.1h-18.5c1.5-3.8,3-8.6,4.4-14.6
		c4-1,5.9-2.1,5.9-3.1c0-2.2-4.8-4-14.5-5.3c-2.2,19-7.1,34.6-14.4,46.8l3.1,2.1c5.6-6.3,10.2-13.6,14-22h19.9v14.7
		C131.2,21.1,131.1,28.5,130.9,31.8z"/>
	<path d="M142.9,93.1c-31.3,0-51-5.8-58.8-17.3V50.4l3.4-2.3c0.9-0.6,1.4-1.2,1.4-1.8c0-1.3-3-4.3-8.9-9.2l-5.7,6.9H52.8l1.6,3.7
		h21.3v32.4c-8.5,5.2-16.2,9.3-23.1,12.3c3.8,7.8,6.6,11.7,8.5,11.7c1.3,0,2-2,2.1-6c7.2-5.8,13.4-11.6,18.6-17.7
		c4.6,7.5,11.8,12.8,21.6,15.9c10.2,3.2,26.3,4.8,48.3,4.8h31.5c0.7-4,2.2-7.5,4.5-10.6C170.3,92.3,155.4,93.1,142.9,93.1z"/>
	<path d="M72,22.3c1.2,3.1,2.8,4.6,5,4.6c3.3,0,4.9-1.9,4.9-5.6c0-7-7.4-13.5-22.3-19.3l-1.9,3C64.6,10,69.4,15.7,72,22.3z"/>
</g>
</svg>
