<?xml version="1.0" encoding="utf-8"?>
<!-- Generator: Adobe Illustrator 19.0.0, SVG Export Plug-In . SVG Version: 6.00 Build 0)  -->
<svg version="1.1" id="圖層_1" xmlns="http://www.w3.org/2000/svg" xmlns:xlink="http://www.w3.org/1999/xlink" x="0px" y="0px"
	 viewBox="45 -33.8 150 150" style="enable-background:new 45 -33.8 150 150;" xml:space="preserve">
<style type="text/css">
	.st0{enable-background:new    ;}
	.st1{fill:#DC6200;}
</style>
<g class="st0">
	<path class="st1" d="M118.7-18.6c4.1-0.9,6.2-1.9,6.2-3.1c0-2-5-3.9-15-5.9c-3,12.7-6.1,22.7-9.4,30h5.2
		C110.9-4.8,115.3-11.8,118.7-18.6z"/>
	<path d="M164.2-5.4l-6.5,8h-52.1c0,0,0.1-0.1,0.1-0.1h-5.2c0,0,0,0.1-0.1,0.1H80.7l-1.5-0.7c-3.4-1.9-6.6-3.4-9.6-4.5v108h9.4v-13
		h80.3v11h9.3v-94l4.3-2.6c0.8-0.5,1.2-1,1.2-1.6C174.2,3.2,170.9-0.2,164.2-5.4z M159.3,88.5H79.1V47.5h80.3V88.5z M159.3,43.8
		H79.1V6.3h80.3V43.8z"/>
</g>
</svg>
