<?xml version="1.0" encoding="utf-8"?>
<!-- Generator: Adobe Illustrator 19.0.0, SVG Export Plug-In . SVG Version: 6.00 Build 0)  -->
<svg version="1.1" id="圖層_1" xmlns="http://www.w3.org/2000/svg" xmlns:xlink="http://www.w3.org/1999/xlink" x="0px" y="0px"
	 viewBox="45 -33.8 150 150" style="enable-background:new 45 -33.8 150 150;" xml:space="preserve">
<style type="text/css">
	.st0{enable-background:new    ;}
	.st1{fill:#DC6200;}
</style>
<g class="st0">
	<path d="M130.7,15.8v-3.6h50.7l1.8-3.3c-2.4-3.3-5.1-6.3-8-9l-2.9-2.7l-8.2,11.3h-33.5v-27.2c4.6-1.6,6.9-3.1,6.9-4.5
		c0-2.4-5.3-3.7-16-4V8.5h-63l1.5,3.7h61.5v3.6c0,1.6,0,3.2,0,4.8h9.1C130.7,19,130.7,17.4,130.7,15.8z"/>
	<path class="st1" d="M124.4,63.8c3.9-10.1,6-24.6,6.3-43.3h-9.1c-0.2,17-1.7,29.3-4.4,37c-10.3-9.9-19.4-21.7-27.5-35.6l-4,2.1
		c9.1,17.5,18.4,31,28.1,40.5c-11.4,17.6-30.5,29.3-57.3,34.9l2.1,4c29-4.3,49.6-15.1,61.9-32.4c14.3,12.4,33,22.1,56.2,29.4
		c2.1-4,4.5-7.2,7.3-9.6C160.5,85.8,140.6,76.7,124.4,63.8z"/>
</g>
</svg>
