<?xml version="1.0" encoding="utf-8"?>
<!-- Generator: Adobe Illustrator 19.0.0, SVG Export Plug-In . SVG Version: 6.00 Build 0)  -->
<svg version="1.1" id="圖層_1" xmlns="http://www.w3.org/2000/svg" xmlns:xlink="http://www.w3.org/1999/xlink" x="0px" y="0px"
	 viewBox="45 -33.8 150 150" style="enable-background:new 45 -33.8 150 150;" xml:space="preserve">
<style type="text/css">
	.st0{enable-background:new    ;}
	.st1{fill:#DC6200;}
</style>
<g class="st0">
	<path class="st1" d="M70.2,1.6c3.7,0,5.6-1.9,5.6-5.6c0-7.7-6.3-15.2-19-22.5l-2.1,2.7c6.6,6.6,10.6,13.9,12,21.9
		C67,0.4,68.2,1.6,70.2,1.6z"/>
	<path class="st1" d="M90.7-0.3c3.7,0,5.6-2,5.6-5.9c0-7.8-5.2-15.5-15.7-23.1l-2.3,2.4c5.2,6.8,8.2,13.8,8.9,21
		C87.6-2.2,88.8-0.3,90.7-0.3z"/>
	<path d="M166.5-1.4c0.9,3.1,2.5,4.7,4.8,4.7c3.3,0,5-1.8,5-5.3c0-6.1-6.4-11.7-19.3-16.9l-1.8,2.9C161.4-11,165.2-6.1,166.5-1.4z"
		/>
	<path class="st1" d="M121.2-19c4.1-0.4,6.2-1.3,6.2-2.6c0-2-4.2-4.5-12.6-7.6c-4.1,13.3-8.5,24.4-13.5,33.3l-0.7,1.1h4.8
		C111.5-2.5,116.7-10.6,121.2-19z"/>
	<path d="M183.9,86.3c0-3.8,0.5-11.5,1.5-23.1l-3.9-2c-2.3,18.5-4.6,27.8-7,27.8c-0.8,0-2.2-1-4.2-3c-5.3-5.4-9.5-11.5-12.6-18.4
		c7-8.9,13.5-19.5,19.5-31.6c3.9,0,5.9-0.7,5.9-2c0-1.8-3.7-4.6-11.1-8.3c-5.4,13.7-11.2,25.1-17.4,34.2c-2.3-9.6-4.1-23-5.1-40.2
		l37.8-5.3l1.2-3l-2.1-2.1c-3.4-3.1-6-5.3-7.6-6.6l-4.8,9.4l-24.8,3.4l-0.1-5.3c-0.4-8.3-0.6-17.9-0.6-28.9c3.8-1.2,5.7-2.5,5.7-3.7
		c0-2.1-4.8-3.4-14.3-3.9c0,14.5,0.3,27.6,0.8,39.4l0.1,3.7l-20.7,3v-7.8l3.1-2.1c0.6-0.4,0.9-0.9,0.9-1.3c0-1.3-2.7-4.2-8.1-8.7
		l-4.4,5.4h-6.4c0,0,0-0.1,0.1-0.1h-4.8l-0.1,0.1H70C66,3,62.9,1.6,60.7,1v59.5h8.4v-8.9h16.8v19.8H51.4l1.5,3.7h33v30h8.4v-30h33.8
		l1.8-3c-2.9-3.6-6-6.8-9.3-9.6l-7.2,8.9h-19V51.7h17.5v7.3h8.3v-35l21-3c1.2,19.7,3.8,35.1,7.9,46.4
		c-10.5,13.2-22.9,23.6-36.9,31.2l2.1,3.1c15.8-6.7,28.5-15.6,38.1-26.7c4.1,8,9.1,14.6,14.9,19.9c5.5,4.9,10.2,7.3,14.3,7.3
		c3.8,0,6-2.2,6.6-6.6C185.3,94.9,183.9,91.8,183.9,86.3z M86.1,48H69.2V29.6h16.9V48z M86.1,25.9H69.2V9.1h16.9V25.9z M111.9,48
		H94.4V29.6h17.5V48z M111.9,25.9H94.4V9.1h17.5V25.9z"/>
</g>
</svg>
