<?xml version="1.0" encoding="utf-8"?>
<!-- Generator: Adobe Illustrator 19.0.0, SVG Export Plug-In . SVG Version: 6.00 Build 0)  -->
<svg version="1.1" id="圖層_1" xmlns="http://www.w3.org/2000/svg" xmlns:xlink="http://www.w3.org/1999/xlink" x="0px" y="0px"
	 viewBox="45 -33.8 150 150" style="enable-background:new 45 -33.8 150 150;" xml:space="preserve">
<style type="text/css">
	.st0{enable-background:new    ;}
	.st1{fill:#DC6200;}
</style>
<g class="st0">
	<path d="M111,70c0-1.9-4.1-4.5-12.2-7.9c-7.5,15.4-17,27.5-28.3,36.3l2.7,3c13.2-7.2,23.4-16.9,30.8-29.1
		C108.6,72.3,111,71.5,111,70z"/>
	<path d="M144.5,61.1l-2,2.9c11.3,8.7,19.5,17.9,24.8,27.5c2,3.4,3.7,5.1,5.3,5.1c3.6,0,5.4-1.9,5.4-5.6c0-3.5-2.4-7.7-7.2-12.5
		C164.6,72.3,155.8,66.5,144.5,61.1z"/>
	<path d="M118.7,6.1h-18.6c-1.1-0.5-9.4-4.3-9.4-4.4v56.1h8.4v-6.3h25.1v36.3c0,1.8-0.3,3-1,3.7c-0.6,0.6-2.2,0.9-4.8,0.9
		c-6.2,0-12.2-0.3-18.2-1v3.7c8.1,1.4,13,2.6,14.8,3.4c2,1.1,3,3,3.1,5.7c9.9,0.1,14.9-3.4,14.9-10.8v-42h22.9V57h8.6V12.9l3.4-2.3
		c1.1-0.8,1.7-1.5,1.7-2.2c0-1.3-3.1-4.3-9.3-9l-5.7,6.7h-31.1c4.1-5.9,7.8-12.3,11-19.4h-12C121.6-6.6,120.4-0.2,118.7,6.1z
		 M155.8,47.8H99.1V29.9h56.8V47.8z M155.8,9.9v16.3H99.1V9.9H155.8z"/>
	<path class="st1" d="M172.4-27.2l-8,10H76.8c-3.6-1.7-7-3.1-10.3-4.3v39.8c0,37.1-5.3,65.2-15.9,84.2l3.4,2.2
		c14.5-19.1,21.8-47.9,21.8-86.4v-31.7h46.7c0,0.1,0,0.1,0,0.2h12c0-0.1,0.1-0.1,0.1-0.2h47.3l1.5-3.1
		C179.9-20.5,176.3-24.1,172.4-27.2z"/>
</g>
</svg>
