<?xml version="1.0" encoding="utf-8"?>
<!-- Generator: Adobe Illustrator 19.0.0, SVG Export Plug-In . SVG Version: 6.00 Build 0)  -->
<svg version="1.1" id="圖層_1" xmlns="http://www.w3.org/2000/svg" xmlns:xlink="http://www.w3.org/1999/xlink" x="0px" y="0px"
	 viewBox="45 -33.8 150 150" style="enable-background:new 45 -33.8 150 150;" xml:space="preserve">
<style type="text/css">
	.st0{enable-background:new    ;}
	.st1{fill:#DC6200;}
</style>
<g class="st0">
	<path d="M133.4,35.9c0.9,0,1.8-1.7,2.6-5c14.1-2,26.3-4.2,36.7-6.7c0.6,1.8,1,3.1,1.1,3.9c0.7,3.1,2.1,4.7,4,4.7
		c3.2,0,4.8-1.8,4.8-5.3c0-6.3-5.2-12.1-15.6-17.4l-1.9,2.4c2.6,2.4,4.7,5.3,6.4,8.6c-8.8,1-17,1.8-24.6,2.4
		c10-8.2,18.2-16.3,24.5-24.3c0.7,0.1,1.6,0.1,2.7,0.1c2.4,0,3.6-0.6,3.6-1.8c0-2.1-3.7-4.9-11-8.3c-7.4,13.1-15.9,24.7-25.5,34.8
		l-13,0.6C130.1,32.1,131.8,35.9,133.4,35.9z"/>
	<path class="st1" d="M145.3,32.3c3.6,2.6,5.8,5.7,6.5,9.3c0.4,2.5,1.7,3.7,3.8,3.7c3.3,0,4.9-1.6,4.9-4.8c0-4.1-4.6-7.6-13.9-10.6
		L145.3,32.3z"/>
	<path d="M140.9,5.5c0.8,3.2,2.2,4.8,4.3,4.8c3.2,0,4.8-1.8,4.8-5.3c0-2.9-1.7-6-5-9.3c4.6-4.1,8.6-8.7,12.2-13.8
		c4.1,0,6.2-0.7,6.2-2c0-1.9-4.2-4.4-12.5-7.6c-2.6,8.1-5.5,15-8.6,20.9c-2.9-2.1-6.9-4.2-11.9-6.3l-1.8,2.5
		C135.3-5.3,139.4,0,140.9,5.5z"/>
	<path d="M73.3,42.3v14.4c0,18.5-6.5,34-19.6,46.5l2.4,2.9C71,95.7,79.4,79.2,81.3,62.5c8.8,5.2,14.9,14.1,18.4,20.9
		c1.6,2.8,3.3,4.2,5,4.2c2.9,0,4.3-1.4,4.3-4.2c0-1.6-0.9-4.5-2.7-6.6c-4.9-6.8-13.1-13.3-24.7-17.6c0.1-1.2,0.1-2.6,0.1-4.3v-4.4
		h0.4l1.3-3.9C78.7,44.6,75.4,43.1,73.3,42.3z"/>
	<path class="st1" d="M181.4,89c0-3.3,0.8-9.4,2.3-18.5l-3.9-1.8c-2.7,15.7-6.1,23.5-10.2,23.5c-1.5,0-4.4-1.1-8.9-3.4
		c-5.5-3-10.2-6.3-14.1-9.9c5.8-5,10.8-10.3,15.2-16c0.8,0.1,1.9,0.1,3.3,0.1c2.4,0,3.6-0.6,3.6-1.7c0-1.9-3.6-4.7-10.8-8.6
		C152.7,61,147.1,68.1,141,74c-5.7-6.6-10.1-14.6-13-24h57.9l1.5-2.9c-3.6-4.2-6.8-7.4-9.7-9.6l-7.3,8.7H127c-4-14.6-6-35.5-6-62.5
		v-5.1c4.2-1.5,6.3-2.9,6.3-4.2c0-2.4-5-3.7-15-4v13c0,26.6,2.1,47.7,6.3,63.3H83.7c-0.1,0-0.2-0.1-0.3-0.1l-1.3,3.9h37.4
		c3.1,10.7,8.1,20.5,15,29.2c-11.2,10.3-24.3,18-39.5,23.1l1.8,3.6c17.2-4.7,31.7-11.9,43.4-21.5c4.4,4.2,9.4,8,15,11.3
		c8.8,5.1,16.5,7.6,22.9,7.6c4.7,0,7.6-2.2,8.7-6.6C183.2,96.9,181.4,94.1,181.4,89z"/>
	<path d="M62.3,38.4c1,0,1.9-1.5,2.9-4.5c9.3-1.2,20.3-3,33-5.6l2.1-0.4c0.7,1.8,1.1,3.2,1.2,4.3c0.4,3.4,1.8,5.1,4.1,5.1
		c3.1,0,4.6-1.7,4.6-5.1c0-6.9-5.3-12.9-16-17.9l-1.9,2.3c2.7,2.5,4.8,5.1,6.3,7.7c-5.2,0.4-11,0.9-17.4,1.3l-3.6,0.3
		c8.4-7.8,15.9-16.2,22.5-25.2c4.4,0,6.6-0.7,6.6-2.1c0-1.9-3.4-4.6-10.3-8.2c-7,13.2-15.1,25.1-24.3,35.7
		c-2.8,0.1-7.7,0.3-14.7,0.4C58.5,34.4,60.2,38.4,62.3,38.4z"/>
	<path d="M72.8,8.2c1.1,2.1,2.4,3.1,4,3.1c3,0,4.5-1.8,4.5-5.4c0-2.9-1.8-6-5.4-9.1c5.5-5.2,9.6-10.1,12.5-14.7
		c4.1-0.1,6.2-0.9,6.2-2.1c0-1.8-3.9-4.4-11.6-7.9c-3,9-6.3,16.5-10,22.5C70-7.3,66.1-9.2,61.1-11l-1.7,2.9
		C65.1-4.3,69.5,1.1,72.8,8.2z"/>
</g>
</svg>
