<?xml version="1.0" encoding="utf-8"?>
<!-- Generator: Adobe Illustrator 19.0.0, SVG Export Plug-In . SVG Version: 6.00 Build 0)  -->
<svg version="1.1" id="圖層_1" xmlns="http://www.w3.org/2000/svg" xmlns:xlink="http://www.w3.org/1999/xlink" x="0px" y="0px"
	 viewBox="45 -33.8 150 150" style="enable-background:new 45 -33.8 150 150;" xml:space="preserve">
<style type="text/css">
	.st0{enable-background:new    ;}
	.st1{fill:#DC6200;}
</style>
<g class="st0">
	<path class="st1" d="M93.6,65.3c5.4-14.3,9.4-32.4,11.9-54.6l3.4-2.1c0.8-0.4,1.2-1,1.2-1.6c0-1.7-2.9-5-8.7-10l-5.6,7.3H78.9
		c2.1-12.3,3.5-20.7,4.2-25c4.2-1.1,6.3-2.2,6.3-3.4c0-2.1-4.7-3.8-14.1-5.1C73.8-17.5,72-6.2,70,4.3H51.7L52.9,8h16.4l-1.4,6.9
		c-3.5,16.8-7.6,33.4-12.3,49.8l8,2.6c0.4-1.3,0.9-2.9,1.4-4.8c0.8-3,1.3-4.7,1.5-5.2l0.6-2.1c6.2,3.8,11.8,7.9,16.8,12.3
		c-6.4,14.6-16.7,26-31.1,33.9l2.4,3.3c16-7.1,27.6-17.4,34.9-31.1c2.8,2.7,5.4,5.8,8,9.3c2.4,3.3,4.4,5,6,5c2.6,0,3.9-1.6,3.9-4.8
		C108,78.6,103.2,72.7,93.6,65.3z M86.5,60.7c-5.6-3.3-11.7-6.5-18.5-9.4c0.2-0.6,0.3-1,0.4-1.2c3.8-13.5,7-27.5,9.6-42h18.6
		C94.1,31.8,90.7,49.4,86.5,60.7z"/>
	<path d="M178.8,29.2l-7.5,9.6h-23.2V16.9c3.9-1.4,5.9-2.7,5.9-3.9c0-0.9-0.9-1.7-2.7-2.3c7.8-4.9,15.5-10.9,23.1-18l4.8-1.3
		c1.1-0.3,1.6-0.9,1.6-1.7c0-1.7-3.3-5.4-10-11.2l-6,7h-58.1l1.7,3.7h56.4C159.2-3.1,153,3.8,146.1,9.7c-1.7-0.1-3.9-0.3-6.7-0.5
		v29.6h-36.6l2,3.7h35.1v44.3c0,3.2-1.8,4.8-5.3,4.8c-6.1,0-12.7-0.5-19.9-1.5v4c6.5,1,11.2,2.1,14.1,3.3c3,1.3,4.6,3.4,4.8,6.3
		c10,0,15-4,15-12V42.5h38.2l1.5-2.9C185.4,36,182.2,32.5,178.8,29.2z"/>
</g>
</svg>
