<?xml version="1.0" encoding="utf-8"?>
<!-- Generator: Adobe Illustrator 19.0.0, SVG Export Plug-In . SVG Version: 6.00 Build 0)  -->
<svg version="1.1" id="圖層_1" xmlns="http://www.w3.org/2000/svg" xmlns:xlink="http://www.w3.org/1999/xlink" x="0px" y="0px"
	 viewBox="45 -33.8 150 150" style="enable-background:new 45 -33.8 150 150;" xml:space="preserve">
<style type="text/css">
	.st0{enable-background:new    ;}
	.st1{fill:#DC6200;}
</style>
<g class="st0">
	<path class="st1" d="M56.9,8.5c1.3,1.3,2.7,2,4.2,2c2.1,0,4.1-1.3,6-4c3-4.7,4.5-11,4.5-19v-2.3h98.1c-1.1,3.4-2.9,7.2-5.4,11.4
		l2.6,2.1c5.1-2.7,9.3-5.6,12.6-8.6l4.8-0.8c1.7-0.3,2.6-0.9,2.6-1.8c0-1.9-4-6.4-12-13.5l-5.6,7.5H71.2c-0.2-1.8-0.4-3.6-0.7-5.3
		l-3.6-0.3c-0.7,10.4-4,18.8-9.9,24.9c-1.4,1.6-2.1,3-2.1,4.2C54.9,6.3,55.5,7.5,56.9,8.5z"/>
	<path d="M139.2,57c3.6,0,5.4-1.9,5.4-5.7c0-6.4-6.1-13.5-18.3-21.2l-2.3,2.3c6.1,6.8,9.6,13.3,10.7,19.6
		C135.3,55.3,136.8,57,139.2,57z"/>
	<path d="M148.3,83.3c9.3,0.1,14-3.9,14-12.2V25h19.9l1.5-2.9c-2.6-3.4-5.4-6.8-8.4-10l-6.6,9.2h-6.4V6c3.8-1.7,5.7-3.1,5.7-4.3
		c0-2.2-4.7-3.5-14.1-3.8v23.4h-37.1l1.9,3.7h35.2v41.5c0,2.9-1.9,4.4-5.7,4.4c-4.3,0-10.3-0.3-17.8-1v4.1c7.5,1,12.5,2.3,15.2,3.7
		C147.3,78.9,148.3,80.7,148.3,83.3z"/>
	<path d="M183,87.4c-1.1-2.2-1.7-9.3-1.7-21.3l-3.9-1.2c-1.1,13.3-2.8,21.3-5.3,24c-2,2.4-14.3,3.6-37,3.6c-17,0-27.1-0.4-30.2-1.2
		c-2-0.6-3-2.4-3-5.3V37.5H119l1.8-2.9c-1.7-2.2-3.9-4.7-6.6-7.5c-0.7-0.8-1.4-1.6-2.3-2.3l-6.9,8.9H54.7l1.3,3.7h16.5
		c0,12-0.9,22.4-2.7,31.2c-2.8,13.7-8.9,24.8-18.2,33.4l2.5,3c11.8-8,19.5-18.9,23.3-32.8c2.6-9.8,3.9-21.4,3.9-34.8h12.3v50.7
		c0,4.8,1.1,7.9,3.4,9.3c2.9,1.8,17.1,2.7,42.6,2.7c20.9,0,34.4-0.6,40.4-1.8c4.6-1,7-3.9,7.3-8.7C185.2,89.6,183.7,88.9,183,87.4z"
		/>
	<path d="M96.7,8H68.1l1.2,3.7h41.1l1.8-2.7c-3-3.9-6-7-8.8-9.4L96.7,8z"/>
</g>
</svg>
