<?xml version="1.0" encoding="utf-8"?>
<!-- Generator: Adobe Illustrator 19.0.0, SVG Export Plug-In . SVG Version: 6.00 Build 0)  -->
<svg version="1.1" id="圖層_1" xmlns="http://www.w3.org/2000/svg" xmlns:xlink="http://www.w3.org/1999/xlink" x="0px" y="0px"
	 viewBox="45 -33.8 150 150" style="enable-background:new 45 -33.8 150 150;" xml:space="preserve">
<style type="text/css">
	.st0{enable-background:new    ;}
	.st1{fill:#DC6200;}
</style>
<g class="st0">
	<path d="M67.6,71.5c-6.5,0.8-11.8,1.3-15.7,1.7c2.2,9.5,4.4,14.2,6.6,14.2c1.3,0,2.3-1.8,3-5.5c12.3-2.5,43.7-12.4,59.8-17.8
		l-1.3-3.4c-8.2,2-33.4,8.3-43.7,9.7v-0.1l-8.7,1.1V71.5z"/>
	<path class="st1" d="M117.7-29l-7.3,9.9H52.5l1.2,3.7h13.9v86.6l8.7-1.1V41.7h27.7v-3.7H76.3V12.6h27.7V8.8H76.3v-24.2h27.8v0h8.7
		v0H126l1.7-3C124.2-22.4,120.8-25.9,117.7-29z"/>
	<path d="M104.1,8.8L104.1,8.8l0,3.7h0v25.3h0v3.7h0v23.7c0,0,0,0,0,0V70c0,0,0,0,0,0v35.2h8.7V-15.3h-8.7V8.8z"/>
	<path d="M157.3,21.6c7.1-9.4,13.8-20.5,20.1-33.2l4.3-1.8c0.8-0.3,1.2-0.9,1.2-1.5c0-2-3.5-5.8-10.4-11.6l-5.2,7.5h-25
		c-6-2.9-9.6-4.6-10.8-5.1v129.4h9V-15.3h27.8c-4.1,12.9-9.4,25.5-16.2,37.8c15.1,11.2,22.6,23.8,22.6,37.8
		c0,7.9-3.6,11.9-10.8,11.9c-5.8,0-11.7-0.4-17.6-1.2v4.2c7.8,1.1,12.8,2.1,15,2.9c3.1,1.2,4.8,3.3,4.9,6.3
		c12.1-0.6,18.2-7.9,18.2-22C184.5,45.2,175.4,31.6,157.3,21.6z"/>
</g>
</svg>
