<?xml version="1.0" encoding="utf-8"?>
<!-- Generator: Adobe Illustrator 19.0.0, SVG Export Plug-In . SVG Version: 6.00 Build 0)  -->
<svg version="1.1" id="圖層_1" xmlns="http://www.w3.org/2000/svg" xmlns:xlink="http://www.w3.org/1999/xlink" x="0px" y="0px"
	 viewBox="45 -33.8 150 150" style="enable-background:new 45 -33.8 150 150;" xml:space="preserve">
<style type="text/css">
	.st0{enable-background:new    ;}
	.st1{fill:#DC6200;}
</style>
<g class="st0">
	<path d="M96.6,70.3c2.7,7.5,4.1,14.7,4.1,21.5c0,2.1-0.1,3.7-0.2,4.8v1c0,3.5,1.4,5.3,4.2,5.3c4.1,0,6.2-2.9,6.2-8.7
		c0-7.6-3.8-16.1-11.3-25.3L96.6,70.3z"/>
	<path d="M60.6,94.6c-3.2,2-4.8,3.9-4.8,5.6c0,3.6,1.8,5.4,5.4,5.4c3.2,0,6.4-1.9,9.6-5.7c6.2-7.7,9.7-17.5,10.6-29.4L78,69.3
		C74.2,81.3,68.4,89.8,60.6,94.6z"/>
	<path d="M126.9,68.1l-2.7,2.3c6.4,8.8,10,17.5,10.9,26.1c0.5,4,2.1,6,4.8,6c4,0,6-2.3,6-6.9C145.9,87.2,139.6,78,126.9,68.1z"/>
	<path d="M165-8.3c0.4,3.2,1.9,4.8,4.3,4.8c3.5,0,5.3-1.9,5.3-5.6c0-6-5.7-11.8-17.1-17.5l-2.1,2.5C160.7-19.2,163.9-14,165-8.3z"/>
	<path d="M156.4,67.6l-2.1,2.7c10.1,9.1,16.5,17.6,19,25.6c1.3,4,3.2,6,5.6,6c3.7,0,5.6-2.1,5.6-6.3c0-3.8-1.7-7.5-5.1-11.2
		C173.9,78,166.2,72.4,156.4,67.6z"/>
	<path d="M147,13h36.4l1.7-2.9c-2.7-3.4-5.7-6.7-8.9-9.7l-6.6,8.9h-24.9c0.4-4,0.6-8.8,0.6-14.4v-14.9c3.8-1.4,5.7-2.7,5.7-4.1
		c0-2.3-4.7-3.4-14.1-3.4v22.5c0,4.4-0.2,9.3-0.7,14.4h-20.8l-1.5,3.7h21.8c-1.6,9.2-3.7,16.7-6.4,22.3c-5.4,11-14.8,20.5-28.3,28.5
		l2.1,3.4c11.9-5.6,20.8-11.8,26.7-18.8c7.1-8.3,11.7-19,13.9-32.2c5.5,19.5,17.5,36.1,35.9,49.7c2.3-3.8,4.7-6.7,7.3-8.6
		C168,46.4,154.7,31.6,147,13z"/>
	<path class="st1" d="M115.3,9.3c1.3-3.3,2.6-7.2,3.9-11.6l3.8-1.8c1-0.4,1.5-1,1.5-1.8c0-1.5-3-4.9-8.9-10.2L110-9.3H88.9
		c1-2.4,2.2-5.5,3.4-9.3c4.4-0.7,6.6-1.7,6.6-3c0-1.9-4.6-4.1-13.8-6.6C79.2-3.5,68.3,17.6,52.5,34.9l2.6,2.9
		c5.7-4.9,10.5-9.9,14.5-15c5.5,5.3,8.9,10.4,10.4,15.2c1,3.3,2.5,5,4.5,5c0.8,0,1.5-0.2,2.1-0.5C78,52.9,67.6,62,55.5,69.9l2.3,3.3
		c25.7-13.4,44.4-33.4,56.1-60.1h0.1L115.3,9.3L115.3,9.3z M88.5,40c0.2-0.6,0.3-1.3,0.3-2.1c0-6-5.6-12.1-16.8-18.2
		c3.5-4.7,6.2-8.7,8.3-11.9c5.9,4.3,9.6,8.6,11.2,12.7c1.1,2.7,2.6,4,4.5,4c1.5,0,2.6-0.4,3.3-1.1C96,29.4,92.4,34.9,88.5,40z
		 M100.2,21.9c0.1-0.5,0.1-1.1,0.1-1.8c0-5.6-6-10.8-18.1-15.6c1.7-3.2,3.4-6.6,5.1-10h23.4C108.3,3.7,104.7,12.9,100.2,21.9z"/>
</g>
</svg>
