<?xml version="1.0" encoding="utf-8"?>
<!-- Generator: Adobe Illustrator 19.0.0, SVG Export Plug-In . SVG Version: 6.00 Build 0)  -->
<svg version="1.1" id="圖層_1" xmlns="http://www.w3.org/2000/svg" xmlns:xlink="http://www.w3.org/1999/xlink" x="0px" y="0px"
	 viewBox="45 -33.8 150 150" style="enable-background:new 45 -33.8 150 150;" xml:space="preserve">
<style type="text/css">
	.st0{enable-background:new    ;}
	.st1{fill:#DC6200;}
</style>
<g class="st0">
	<path d="M73.9-9.3c1,3,2.5,4.5,4.3,4.5c3.6,0,5.4-2,5.4-5.9c0-6.5-6.8-12-20.3-16.3l-1.8,3C68-19.7,72.1-14.8,73.9-9.3z"/>
	<path d="M91.9,26.5c8.1-8.6,15-18.7,20.7-30.2l0.7-1.7h70.5l1.6-2.9c-2.9-3.9-6.4-7.4-10.5-10.8l-7.2,9.9H115
		c2.3-5.8,3.9-9.9,4.8-12.3c4.1-0.9,6.2-2,6.2-3.3c0-2.1-4.5-3.9-13.6-5.6c-5,21.5-12.7,39.7-23.2,54.4L91.9,26.5z"/>
	<path d="M63.6,22.6c0.9,3.6,2.5,5.4,4.9,5.4c3.3,0,5-1.9,5-5.6c0-7-6.3-12.6-19-16.9l-1.7,2.6C58.9,12.9,62.5,17.7,63.6,22.6z"/>
	<path d="M187.6,47.8l1.4-2.9c-2.4-3.7-5.2-7.4-8.4-11.1l-6.4,10.2H168v3.7H187.6z"/>
	<path class="st1" d="M179.5,67.5l-6.4,9.7h-6.2c0.6-6.7,0.9-13.9,0.9-21.5c0-3.7,0-6.4,0.1-8h0v-3.7h0c0-4.2,0-7,0.1-8.3V19.3
		l4-2.7c0.7-0.4,1.1-0.9,1.1-1.6c0-1.5-3-4.5-9-9l-5.3,6.7h-42c-2.6-1.6-5.6-3.1-9.2-4.3c-0.6,12-1.5,23.9-2.7,35.7H105l-0.4,3.7
		h0.3c-1.4,13.7-3.5,28-6.2,42.8l8.6,1.6c0.9-4.9,1.5-8.7,1.8-11.2h49c-0.5,4.6-0.9,7.4-1.2,8.3c-0.7,2.7-3,4-6.9,4
		c-3.8,0-9.6-0.6-17.4-1.7v4.2c7.1,1.4,11.5,2.5,13.3,3.3c2.6,1.3,4,3.2,4,5.7c4.5-0.1,8.1-1.1,10.6-2.9c3.3-2.4,5.4-9.4,6.3-20.9
		h19.8l1.8-3C185.4,73.8,182.5,70.3,179.5,67.5z M159.6,34.9l-0.1,9.2h-0.1l-0.1,3.7h0.2c-0.1,11.7-0.5,21.5-1.2,29.4h-48.6
		c1.6-12.1,2.8-21.9,3.4-29.4h0.1l0.4-3.7h0c0.3-3.7,0.7-8.2,1.1-13.3c0.4-5.7,0.7-9.3,0.9-10.8c0-1.7,0-2.9,0.1-3.4h44.1
		C159.7,26.3,159.6,32.4,159.6,34.9z"/>
	<polygon points="113.1,47.8 159.2,47.8 159.3,44.1 113.5,44.1 	"/>
	<polygon points="86.6,44.1 88,47.8 104.5,47.8 105,44.1 	"/>
	<path d="M71.8,75.9c0-2,0.7-5.1,2-9.3c0.2-0.5,0.3-0.9,0.4-1.3L94.3-1.1l-3.6-2.5c-7.6,24.4-15,44.2-22.2,59.4
		c-2.3,5-5.4,7.5-9.3,7.5c-1.4,0-3.5-0.2-6.2-0.6v3.9c4,0.6,6.8,1.6,8.4,3.1c2.1,2.1,3.1,5.7,3.1,10.9c0,3.6-0.4,7.9-1.1,12.7
		c-0.1,1.3-0.3,2.7-0.5,4.1c-0.1,1.2-0.2,1.8-0.2,1.9c0,3.6,1.6,5.4,4.8,5.4c4.8,0,7.2-3.2,7.2-9.7c0-2.7-0.8-7.4-2.3-13.9
		C72.1,78.4,71.8,76.7,71.8,75.9z"/>
	<path d="M136.6,36.8c0.6,2.4,2,3.6,4.2,3.6c3.2,0,4.8-1.7,4.8-5c0-5.7-6-10.9-18-15.7l-1.7,2.7C131.7,26.9,135.3,31.6,136.6,36.8z"
		/>
	<path d="M135.1,69.3c0.8,2.6,2.3,3.9,4.5,3.9c3,0,4.5-1.8,4.5-5.3c0-6.1-6-11.6-18-16.6l-1.6,2.6C130.2,58.8,133.8,64,135.1,69.3z"
		/>
</g>
</svg>
