<?xml version="1.0" encoding="utf-8"?>
<!-- Generator: Adobe Illustrator 19.0.0, SVG Export Plug-In . SVG Version: 6.00 Build 0)  -->
<svg version="1.1" id="圖層_1" xmlns="http://www.w3.org/2000/svg" xmlns:xlink="http://www.w3.org/1999/xlink" x="0px" y="0px"
	 viewBox="45 -33.8 150 150" style="enable-background:new 45 -33.8 150 150;" xml:space="preserve">
<style type="text/css">
	.st0{enable-background:new    ;}
	.st1{fill:#DC6200;}
</style>
<g class="st0">
	<path d="M100.1,3.3H176l1.8-3.4c-3.4-4.1-6.9-7.5-10.3-10.5l-7.9,10.2H99L100.1,3.3z"/>
	<path d="M175.5,75.3l-9,11.3H90.1l1.2,3.7h93.5l1.9-3.3C183,82.5,179.3,78.6,175.5,75.3z"/>
	<path class="st1" d="M80.5,13.9c5-10.5,9.1-21.7,12.5-33.5c4.6-0.7,6.9-1.8,6.9-3.3c0-2.4-4.9-4.6-14.6-6.7
		c-7.7,33.2-19,61.2-33.9,84l3.3,2.4c6.7-8.6,13.2-18.5,19.3-29.7v78.1h8.9V21.7c4.3-1.3,6.4-2.7,6.4-4C89.2,16,86.3,14.8,80.5,13.9
		z"/>
</g>
</svg>
