<?xml version="1.0" encoding="utf-8"?>
<!-- Generator: Adobe Illustrator 19.0.0, SVG Export Plug-In . SVG Version: 6.00 Build 0)  -->
<svg version="1.1" id="圖層_1" xmlns="http://www.w3.org/2000/svg" xmlns:xlink="http://www.w3.org/1999/xlink" x="0px" y="0px"
	 viewBox="45 -33.8 150 150" style="enable-background:new 45 -33.8 150 150;" xml:space="preserve">
<style type="text/css">
	.st0{enable-background:new    ;}
	.st1{fill:#DC6200;}
</style>
<g class="st0">
	<path d="M101.9,52.6c3.1,0,4.6-1.8,4.6-5.4c0-3.5-2.2-7.8-6.7-12.7c-4.2-4.6-9.3-8.7-15.3-12.1V7.6h23.7l1.3-2.9
		c-3-4.2-5.9-7.8-8.9-10.9l-7,10h-9.2v-25.2c4.3-1.6,6.4-3,6.4-4.2c0-2.1-5-3.3-14.9-3.5V3.9H52.8l1.3,3.7h21.5
		C70.1,32,61.7,53.9,50.3,73.4l3.3,2.6C63,62.3,70.5,47.3,76.1,31v74.3h8.4v-78l0.6,0.6c5.8,6.4,9.8,12.7,11.9,19
		C98.1,50.7,99.8,52.6,101.9,52.6z"/>
	<path class="st1" d="M124.7,25.8V-6.6c14.5-1.7,29.7-4.8,45.7-9.2c2.5,0.5,4.3,0.7,5.4,0.7c1.9,0,2.9-0.4,2.9-1.3
		c0-2.1-3.8-5.4-11.4-10.2c-10.7,6.8-24.8,12.1-42.4,15.9c-1.9-1.1-4.9-2.7-9-4.7v44.8c0,10.1-0.6,19.4-1.7,28.1
		c-2.2,17-8,32.1-17.4,45.2l3.1,2.9c9.3-9.6,15.9-20.4,19.6-32.4c3.4-11.2,5.1-25.7,5.1-43.4v-0.3h0.1v-3.7H124.7z"/>
	<path d="M178.1,15.1l-7.7,10.6h-45.6v3.7h27.1v73.8h8.6V29.5h25.8l1.7-3C184.4,21.7,181.1,17.9,178.1,15.1z"/>
</g>
</svg>
