<?xml version="1.0" encoding="utf-8"?>
<!-- Generator: Adobe Illustrator 19.0.0, SVG Export Plug-In . SVG Version: 6.00 Build 0)  -->
<svg version="1.1" id="圖層_1" xmlns="http://www.w3.org/2000/svg" xmlns:xlink="http://www.w3.org/1999/xlink" x="0px" y="0px"
	 viewBox="45 -33.8 150 150" style="enable-background:new 45 -33.8 150 150;" xml:space="preserve">
<style type="text/css">
	.st0{enable-background:new    ;}
	.st1{fill:#DC6200;}
</style>
<g class="st0">
	<path d="M136.2,17.6c-10.8,14.8-23,26-36.5,33.6l2.3,3.3c15.5-7.7,28.4-17.1,38.6-28.2c1.8,3.6,3.5,8,5.3,13l-0.3,0.6
		c-11.9,17.6-27.1,31.9-45.6,42.8l2.4,3.1c20.2-9.9,35.7-21.7,46.5-35.4c1.1,5,1.7,10.2,1.7,15.6c0,8.9-0.8,15.6-2.5,19.9
		c-1.5,3.6-4.6,5.4-9.4,5.4c-7,0-14-0.6-21.1-1.8v4c7.2,1.3,12.2,2.6,14.8,3.9c3.1,1.5,4.7,3.8,4.9,6.7c6.4,0,11.6-1.9,15.5-5.6
		c4.9-4.7,6.3-13.8,6.3-27.3c0-22.1-9.7-47-27.6-69.9l-3.1,2.2C130.9,7.6,134.4,14.3,136.2,17.6z"/>
	<path class="st1" d="M144.3-13.7h41.1l1.7-2.9c-3.4-3.8-6.9-7.2-10.5-10.2l-7.2,9.3h-66l1.6,3.7h29.3c-8.1,13.3-19.8,24.6-35,33.8
		l2.1,3c10-4.6,18.5-10.1,25.6-16.5c0,0,0,0,0,0l3.1-2.9c0,0,0,0,0,0C135.4-1.5,140.1-7.3,144.3-13.7z"/>
	<path d="M101-18.6c0-1.4-2.8-4.4-8.3-9l-5.6,7H70.7c-3.4-1.7-6.6-3.2-9.6-4.5v60.4c0,29-3.8,51.5-11.3,67.5l3.1,2.1
		c9.4-13.7,14.7-31.7,15.9-53.8l0.2-1.2h19.3V88c0,1.5-0.3,2.6-1,3.1c-0.8,0.5-2.8,0.7-5.8,0.7c-2.9,0-7.3-0.3-13.2-0.9v3.7
		c5,1,8.2,1.8,9.7,2.4c3,1.2,4.6,3.4,4.8,6.4c9,0.1,13.5-3.6,13.5-11.3V-14.7l3.3-2.1C100.6-17.4,101-17.9,101-18.6z M88.4,46.2
		H69.2c0.1-2.7,0.1-6.4,0.1-11.3V15.2h19V46.2z M88.4,11.5h-19v-28.3h19V11.5z"/>
	<path d="M151,34.8c8.7-6,16.3-12.5,23-19.4c1.2,0.1,2.5,0.1,3.8,0.1c3,0,4.5-0.5,4.5-1.6c0-2-5.4-5.4-16.2-10.3
		c-4.6,9.8-10.3,18.8-17.3,26.8c-1.1-1.8-3.2-4.5-4.2-7.2l-2.6,1.4c7.1,22.9,19.5,42.1,39.7,61.7c2.7-4,3.1-5.2,7.2-7.6
		C171.6,64.3,158.9,49.7,151,34.8z"/>
</g>
</svg>
