<?xml version="1.0" encoding="utf-8"?>
<!-- Generator: Adobe Illustrator 19.0.0, SVG Export Plug-In . SVG Version: 6.00 Build 0)  -->
<svg version="1.1" id="圖層_1" xmlns="http://www.w3.org/2000/svg" xmlns:xlink="http://www.w3.org/1999/xlink" x="0px" y="0px"
	 viewBox="45 -33.8 150 150" style="enable-background:new 45 -33.8 150 150;" xml:space="preserve">
<style type="text/css">
	.st0{enable-background:new    ;}
	.st1{fill:#DC6200;}
</style>
<g class="st0">
	<path d="M105.4,42.4l1.8-2.9c-2.8-3.8-5.6-7-8.6-9.6l-7,8.7H60.3l1.4,3.7H105.4z"/>
	<path d="M105.5,23.6l1.6-2.6c-2-2.8-4.2-5.4-6.6-7.8l-2.3-2.1l-6.7,8.7H60.2l1.5,3.7H105.5z"/>
	<path d="M104.4-14l1.7-2.7c-3.1-4-6.2-7.3-9.3-9.7L90-17.7H62.3l1.3,3.7H104.4z"/>
	<path class="st1" d="M181.8,88c-0.8-2.4-1.2-9.2-1.2-20.4l-4-1.5l-0.1,2.7c-0.8,11.6-2.1,18.8-4,21.4c-1.4,2-6.3,3-14.9,3
		c-5.8,0-9.3-0.3-10.5-0.9c-1.3-0.6-1.9-1.9-1.9-3.9V41.1l42-7.1l0.9-3.1c-2.9-2.9-6.5-6.1-10.8-9.6l-6.3,11.6L145.1,37V-5l-8.9,3.1
		v40.3l-28.5,4.6l1.8,3.8l26.7-4.5v48.2c0,4.5,1.1,7.4,3.4,8.8c2.3,1.4,8.8,2.1,19.5,2.1c11.6,0,18.9-0.5,22-1.5
		c3.9-1.3,5.9-4.2,6-8.7C184.4,91.3,182.5,90.2,181.8,88z"/>
	<path d="M145.1-5c8.3-2.9,16.7-6.4,25-10.3c1.9,0.3,3.4,0.4,4.5,0.4c2.4,0,3.7-0.5,3.7-1.5c0-2.1-4-5.2-11.9-9.2
		c-14.1,10.9-31.8,19.3-53.2,25.2c-1.6-2-4-4.5-7.3-7.5l-7.5,9H52.7L54,4.9h59.8l0.4-0.9c9.6-2.2,16.9-4.2,22-6v0.2L145.1-5L145.1-5
		z"/>
	<path d="M98.2,51.4l-5.1,6.4h-22c-3.6-2.1-6.8-3.7-9.6-5v52.4H70v-9.6h24.1v9.6h8.3V64.6l3.7-2.1c0.9-0.4,1.4-1,1.4-1.8
		C107.5,59.1,104.4,56,98.2,51.4z M94.1,91.9H70V61.6h24.1V91.9z"/>
</g>
</svg>
