<?xml version="1.0" encoding="utf-8"?>
<!-- Generator: Adobe Illustrator 19.0.0, SVG Export Plug-In . SVG Version: 6.00 Build 0)  -->
<svg version="1.1" id="圖層_1" xmlns="http://www.w3.org/2000/svg" xmlns:xlink="http://www.w3.org/1999/xlink" x="0px" y="0px"
	 viewBox="45 -33.8 150 150" style="enable-background:new 45 -33.8 150 150;" xml:space="preserve">
<style type="text/css">
	.st0{enable-background:new    ;}
	.st1{fill:#DC6200;}
</style>
<g class="st0">
	<path d="M91.1,21.7c5.4-10.3,9.6-20.4,12.7-30.4c3.4-0.5,5.1-1.3,5.1-2.6c0-1.9-4.2-4.2-12.5-6.9c-2.1,13.8-5,26.6-8.9,38.4
		L91.1,21.7z"/>
	<path d="M63.8,21.4c3.3,0,5-2.6,5-7.9c0-8.3-4-18.4-12-30.2l-3.1,2c4.3,10.5,6.4,19.5,6.4,27C60.1,18.3,61.3,21.4,63.8,21.4z"/>
	<path d="M92.7,32.8h16l1.8-3c-1.8-2.4-4.5-5.6-8.1-9.6L96,29.1H83.7v-49.2c3.8-1.4,5.7-2.7,5.7-3.9c0-2.1-4.6-3.3-13.8-3.6v56.7
		H51.4l1.5,3.7h13.9c-0.1,31-5.9,53.5-17.2,67.4l2.9,2.9c9.1-8.6,15.3-19.5,18.6-32.4c2.5-9.1,3.9-21.7,4.2-37.8h9.3v0L92.7,32.8
		L92.7,32.8z"/>
	<path d="M179.2-25.8l-4.9,6.9h-54.1c-0.1-0.9-0.6-2.9-1.2-5.9l-3.7-0.4c0,8.8-2.1,15.2-6.2,19.3c-1.4,1.4-2.1,2.8-2.1,4
		c0,3.3,1.7,5,5.1,5c2,0,3.8-1.2,5.4-3.6c2.1-3.2,3.1-7.4,3.1-12.7c0-1,0-1.7-0.1-2h54.3c-1.7,4.5-3.8,8.6-6.3,12.5l2.7,2.3
		c4.9-4.3,8.9-8.1,11.9-11.4l4-1c1.5-0.4,2.3-1,2.3-1.8C189.3-16.5,185.9-20.2,179.2-25.8z"/>
	<path d="M179.4,70l-7.1,8.1h-22.8V62.4h18.8v5.3h8.4V28.6l3.1-2c1.1-0.8,1.7-1.5,1.7-2.1c0-1.3-3-4.2-8.9-8.6l-5.3,6.3h-17.7v-13
		H184l1.7-2.9c-3.7-3.9-6.6-6.6-8.6-8.2l-6.4,7.3h-21.2v-9.3c4-1.5,6-2.9,6-4.2c0-2.3-4.8-3.5-14.4-3.7V5.5h-32.4l1.3,3.7h31.1v13
		h-16.6c-4.2-2.2-7.3-3.7-9.6-4.3v51.3h8.4v-6.9h17.8v15.7h-36.4l1.2,3.7h35.2v23.4h8.4V81.9h37.4l2-2.9
		C185.7,75.2,182.5,72.2,179.4,70z M149.5,26.1h18.8v13.5h-18.8V26.1z M149.5,43.3h18.8v15.4h-18.8V43.3z M141.1,58.6h-17.8V43.3
		h17.8V58.6z M141.1,39.5h-17.8V26.1h17.8V39.5z"/>
	<path class="st1" d="M110.1,66.6c-6,3.7-11.8,7-17.4,9.7V32.8h-8.1v47.5c-0.2,0.1-3.3,1.4-9.2,3.8c3.2,7.4,5.8,11.1,8,11.1
		c1.2,0,1.8-1.9,1.8-5.7c8.8-5.7,17.7-12.2,26.4-19.6L110.1,66.6z"/>
</g>
</svg>
