<?xml version="1.0" encoding="utf-8"?>
<!-- Generator: Adobe Illustrator 19.0.0, SVG Export Plug-In . SVG Version: 6.00 Build 0)  -->
<svg version="1.1" id="圖層_1" xmlns="http://www.w3.org/2000/svg" xmlns:xlink="http://www.w3.org/1999/xlink" x="0px" y="0px"
	 viewBox="45 -33.8 150 150" style="enable-background:new 45 -33.8 150 150;" xml:space="preserve">
<style type="text/css">
	.st0{enable-background:new    ;}
	.st1{fill:#DC6200;}
</style>
<g class="st0">
	<path class="st1" d="M97.8-4.3c0.6,3,2.3,4.5,5.1,4.5c3.7,0,5.6-2,5.6-6c0-3.2-1.8-6.7-5.3-10.5c-4.1-4.5-9.8-8.3-17.2-11.1l-2,2.7
		C92-17.7,96.6-10.9,97.8-4.3z"/>
	<path d="M179.7,52.9c1.8-3.3,4.1-6.2,7.2-8.7c-21.7-8.2-38.6-20.7-50.8-37.6h-5.1C141.9,26.7,158.2,42.1,179.7,52.9z"/>
	<path d="M179.5,85.2l-7.2,11.4h-8.7V59.6l3.3-2.3c0.9-0.6,1.3-1.2,1.3-1.8c0-1.3-3-4.2-9-8.7l-5.5,6.2H85.5
		c-5.3-2.1-8.8-3.5-10.5-4.2L74.8,49v47.7H52.3l1.8,3.7h132.6l1.5-3.1C185.5,92.8,182.6,88.8,179.5,85.2z M101.3,96.7H83.4V56.7
		h17.9V96.7z M127.6,96.7h-17.9V56.7h17.9V96.7z M154.9,96.7H136V56.7h18.9V96.7z"/>
	<path class="st1" d="M97.8,6.6h33.1c0,0,0,0,0,0h5.1c0,0,0,0,0,0H183l1.7-3c-3.4-3.9-7-7.5-11-10.8l-7.9,10H135
		c6.1-6.8,11.4-13.7,15.9-20.7c4.7-0.3,7-1.1,7-2.5c0-2.3-4.8-5-14.4-8.1c-4.2,12.5-8.8,23-13.8,31.3h-74l1.6,3.7h39.6c0,0,0,0,0,0
		L97.8,6.6C97.8,6.6,97.8,6.6,97.8,6.6z"/>
	<path d="M52.9,54.4l2.3,3.1c21.7-10,37.6-23.8,47.9-41.2c4.2-0.1,6.3-0.9,6.3-2.1c0-2-3.8-4.6-11.5-7.6h-0.9
		C89.5,24.7,74.8,40.6,52.9,54.4z"/>
</g>
</svg>
