<?xml version="1.0" encoding="utf-8"?>
<!-- Generator: Adobe Illustrator 19.0.0, SVG Export Plug-In . SVG Version: 6.00 Build 0)  -->
<svg version="1.1" id="圖層_1" xmlns="http://www.w3.org/2000/svg" xmlns:xlink="http://www.w3.org/1999/xlink" x="0px" y="0px"
	 viewBox="45 -33.8 150 150" style="enable-background:new 45 -33.8 150 150;" xml:space="preserve">
<style type="text/css">
	.st0{enable-background:new    ;}
	.st1{fill:#DC6200;}
</style>
<g class="st0">
	<path d="M150,37.8l-2.4,2.8c10.7,12,17.8,23.5,21.1,34.5c1.5,5,3.5,7.5,6,7.5c3.7,0,5.6-2.1,5.6-6.4c0-3.6-1.8-8-5.3-13.4
		C169.2,54.2,160.9,45.8,150,37.8z"/>
	<path d="M173.8,12.4l-8.3,10.9h-40.6V0.4h45.8l1.6-3c-3.4-4.2-6.9-7.7-10.3-10.6l-7.4,9.9h-29.7v-16.6c4.7-1.4,7-2.7,7-4.1
		c0-2.1-5.3-3.4-15.9-3.9v24.6H68.2l1.4,3.7H116v22.9H54.6l1.5,3.7h46.1v5.9c0,13.4-1.6,24.9-4.8,34.5
		c-4.7,13.8-14.4,25.5-29.1,34.9l2.6,3.1C84.8,98.6,94.9,90.1,101,80c6.8-11.6,10.2-27.3,10.2-46.9v-6h20.7v0.2h8.9v-0.2h42.6l1.5-3
		C182,20.5,178.3,16.6,173.8,12.4z"/>
	<path class="st1" d="M131.9,85.7c0,1.5-0.2,2.6-0.6,3.3c-0.4,1-2.2,1.5-5.3,1.5c-7.3,0-14-0.3-20-1v4c8.1,1.2,13.3,2.4,15.5,3.6
		c2.1,1.2,3.3,3.3,3.4,6.3c10.5,0.2,15.7-3.7,15.7-11.6V27.2h-8.9V85.7z"/>
</g>
<path d="M81.7,38l-3.9-0.4C73.9,52.3,67.1,65,57.5,75.3c-2,2.1-2.4,3.8-1.1,5.3c2.2,2.5,4.9,2.7,8.4,0.7c2.6-1.6,5.1-4.4,7.5-8.3
	C77.6,63.3,80.7,51.7,81.7,38z"/>
</svg>
