<?xml version="1.0" encoding="utf-8"?>
<!-- Generator: Adobe Illustrator 19.0.0, SVG Export Plug-In . SVG Version: 6.00 Build 0)  -->
<svg version="1.1" id="圖層_1" xmlns="http://www.w3.org/2000/svg" xmlns:xlink="http://www.w3.org/1999/xlink" x="0px" y="0px"
	 viewBox="45 -33.8 150 150" style="enable-background:new 45 -33.8 150 150;" xml:space="preserve">
<style type="text/css">
	.st0{enable-background:new    ;}
	.st1{fill:#DC6200;}
</style>
<g class="st0">
	<path d="M78.6,0.4c3.5,0,5.3-2,5.3-6c0-7.5-6.3-15-19-22.6l-2.3,2.6C69-18.9,72.6-12.3,73.4-5.7C73.9-1.6,75.6,0.4,78.6,0.4z"/>
	<path d="M95.6,5.8h33.5l1.7-3c-2.4-3.3-5.3-6.7-8.9-10.2l-7,9.4h-14.3c5.1-6,9.6-12.8,13.6-20.4c4.2-0.1,6.3-0.9,6.3-2.2
		c0-2-4.6-4.8-13.8-8.6C103.2-16,99.6-5.6,95.9,2H53.1l1,3.7h32.7v0.1L95.6,5.8L95.6,5.8z"/>
	<path d="M175-27.3l-5.9,7.2h-23.6c-3.4-1.8-6.8-3.2-10.2-4.5v57.7c0,15.4-1.5,27.8-4.4,37.3c-3.7,12.2-10.7,22.7-21.1,31.6l2.9,3
		c9.2-6.1,16.2-13.1,21-21.1c5.1-8.5,8.3-19.2,9.6-32.2h22.6l1.6-2.9c-2.7-2.9-5.3-5.3-7.8-7.3l-6.6,6.4h-9.6
		c0.3-4.6,0.4-9.6,0.4-14.9V16.9h21.9l1.6-2.9c-2.7-2.9-5.3-5.3-7.8-7.3l-6.6,6.4H144v-29.6h26.5V85.7c0,3.4-1.9,5.1-5.6,5.1
		c-5.4,0-12.1-0.4-20.1-1.2v4c7.4,1.3,12.2,2.4,14.4,3.4c3,1.3,4.5,3.4,4.7,6.2c10.3,0.1,15.5-4.1,15.5-12.8V-13.7l4-2.7
		c0.4-0.2,0.6-0.6,0.6-1C184-18.8,181-22.1,175-27.3z"/>
	<path class="st1" d="M110.8,69.4h8.4V26.1c3.7-1.5,5.5-2.9,5.5-4.1c0-1.9-4.6-3.1-13.9-3.7V54H95.5c0.1-1.7,0.1-4.5,0.1-8.3V5.8
		h-8.7V46c0,3.6,0,6.3-0.1,8H71.6V25.8c3.9-1.4,5.9-2.7,5.9-4c0-2.2-4.8-3.4-14.3-3.6v51.9h8.4V57.7h14.9
		c-0.8,8.1-2.5,15.2-5.3,21.5c-3.8,8.5-11.4,16-22.7,22.5l2.3,3.3c12.3-5.5,21-12.2,26.1-20.1c4.5-7.2,7.3-16.2,8.3-27.2h15.7V69.4z
		"/>
</g>
</svg>
