<?xml version="1.0" encoding="utf-8"?>
<!-- Generator: Adobe Illustrator 19.0.0, SVG Export Plug-In . SVG Version: 6.00 Build 0)  -->
<svg version="1.1" id="圖層_1" xmlns="http://www.w3.org/2000/svg" xmlns:xlink="http://www.w3.org/1999/xlink" x="0px" y="0px"
	 viewBox="45 -33.8 150 150" style="enable-background:new 45 -33.8 150 150;" xml:space="preserve">
<style type="text/css">
	.st0{enable-background:new    ;}
	.st1{fill:#DC6200;}
</style>
<g class="st0">
	<path d="M149.4-11.3c-7.3,6.6-16.8,13.7-28.6,21.2l-2.3,1.5c-5.9-3.5-15-7.1-27.3-10.9l-1.9,3.3c14.8,6.9,25.5,14.2,31.9,22
		c2.5,3,4.7,4.5,6.4,4.5c3,0,4.5-1.7,4.5-5.1c0-3.4-3.1-7.2-9.4-11.4c15.8-7.7,28.3-14.7,37.4-21l5.6-1.2c1.3-0.3,2-0.8,2-1.5
		c0-1.9-3.8-6-11.4-12.2l-6.3,7.2H70.7l1.9,3.7H149.4z"/>
	<path class="st1" d="M116,87c0,3.2-1.9,4.8-5.7,4.8c-6.9,0-15.5-0.5-25.9-1.6v4.3c9,1.3,15.1,2.5,18.2,3.6c4.1,1.4,6.2,3.5,6.3,6.4
		c0.5,0.1,1.1,0.1,1.9,0.1c9.6,0,14.4-4.2,14.4-12.6V34.6H116V87z"/>
	<path d="M173.2,22.9l-6.7,7.8H56.1l1.5,3.7H116v0.1h9.2v-0.1h41.4c-6.2,9-14,17.8-23.7,26.4l2.9,2.9c12.5-8.5,23-17.1,31.3-25.9
		l5.2-1.2c1.2-0.3,1.8-0.9,1.8-1.7C184.1,33.2,180.5,29.2,173.2,22.9z"/>
</g>
</svg>
