<?xml version="1.0" encoding="utf-8"?>
<!-- Generator: Adobe Illustrator 19.0.0, SVG Export Plug-In . SVG Version: 6.00 Build 0)  -->
<svg version="1.1" id="圖層_1" xmlns="http://www.w3.org/2000/svg" xmlns:xlink="http://www.w3.org/1999/xlink" x="0px" y="0px"
	 viewBox="45 -33.8 150 150" style="enable-background:new 45 -33.8 150 150;" xml:space="preserve">
<style type="text/css">
	.st0{enable-background:new    ;}
	.st1{fill:#DC6200;}
</style>
<g class="st0">
	<path d="M94.5,37.5V19.3c4.1-1.1,6.2-2.2,6.2-3.4c0-1.1-1.4-2-4.3-2.7c8.3-6.8,15.3-14,21.1-21.5l4.7-1.5c1-0.3,1.5-0.9,1.5-1.7
		c0-1.9-3.3-5.6-10-11.1l-6,7.5H56.3l1.5,3.7h50.1C103.9-3.7,99,3.8,93,11c-0.3,0.3-0.7,0.8-1.1,1.4c-3.1-0.3-5.2-0.6-6.3-0.7V40
		c-9.4,2.8-20.3,5.4-32.7,7.8c2.5,9.2,5,13.8,7.3,13.8c1.4,0,2.4-2.2,3-6.6c9-2.6,16.4-5,22.3-7.3V86c0,3.1-2.1,4.7-6.4,4.7
		c-5.9,0-12.3-0.4-19.2-1.2v4.1c6.6,1,11.1,2.1,13.3,3.1c3.1,1.3,4.7,3.5,4.7,6.4c11,0.1,16.5-4.2,16.5-12.9V44.2l3-1.2
		c10.8-4.4,20.3-8.5,28.6-12.3l-1.3-3.7C117.2,30,107.1,33.5,94.5,37.5z"/>
	<path class="st1" d="M181.4,86.3c-0.8-3.2-1.2-11.6-1.2-25.2l-4-1.2c-1,18.1-2.9,28.2-5.6,30.4c-1.5,1.2-6.7,1.8-15.6,1.8
		c-6.3,0-10-0.2-11.4-0.7c-1.6-0.6-2.4-2.2-2.4-5V-15.3c4.6-1.7,6.9-3.1,6.9-4.4c0-2.2-5.3-3.6-15.9-4.2V89.3c0,4.6,1.3,7.6,3.9,9
		c2.9,1.5,10.6,2.3,23.1,2.3c10,0,16.9-0.4,20.8-1.3c4.5-1.1,6.8-4,7-8.9C184,90.4,182.1,89.1,181.4,86.3z"/>
</g>
</svg>
