<?xml version="1.0" encoding="utf-8"?>
<!-- Generator: Adobe Illustrator 19.0.0, SVG Export Plug-In . SVG Version: 6.00 Build 0)  -->
<svg version="1.1" id="圖層_1" xmlns="http://www.w3.org/2000/svg" xmlns:xlink="http://www.w3.org/1999/xlink" x="0px" y="0px"
	 viewBox="45 -33.8 150 150" style="enable-background:new 45 -33.8 150 150;" xml:space="preserve">
<style type="text/css">
	.st0{enable-background:new    ;}
	.st1{fill:#D3228C;}
	.st2{fill:#DC6200;}
</style>
<g class="st0">
	<path class="st1" d="M172.5-2.9v56.4h-15.6v-73c4.4-1.5,6.6-3,6.6-4.4c0-2.3-5.2-3.7-15.5-4.2v81.6h-14.6V5.3
		c3.9-1.4,5.9-2.7,5.9-4c0-2.1-4.7-3.4-14.1-3.9v71.1h8.3V57.3h14.6v46.9h8.9V57.3h15.6v8.9h8.2v-61c3.7-1.5,5.6-2.9,5.6-4.2
		C186.3-1.2,181.7-2.4,172.5-2.9z"/>
	<path class="st2" d="M104-1.7v55.2H89.8c0.2-5,0.3-8.3,0.3-9.9v-63.1c4.1-1.7,6.2-3.3,6.2-4.7c0-2.3-5-3.6-14.9-3.7v71.3
		c0,3.4-0.1,6.8-0.3,10.2H67.3V6.4c3.8-1.4,5.7-2.7,5.7-3.9c0-1.9-4.7-3.1-14.1-3.7V69h8.4V57.3h13.5c-1.8,19.6-9.4,34.7-22.6,45.2
		l2.6,3.1c10.3-6.1,17.6-13.7,22-22.7c3.5-6.9,5.7-15.4,6.8-25.6H104v9h8.4v-60c3.7-1.5,5.5-2.9,5.5-4.2C117.9,0,113.2-1.2,104-1.7z
		"/>
</g>
</svg>
