<?xml version="1.0" encoding="utf-8"?>
<!-- Generator: Adobe Illustrator 19.0.0, SVG Export Plug-In . SVG Version: 6.00 Build 0)  -->
<svg version="1.1" id="圖層_1" xmlns="http://www.w3.org/2000/svg" xmlns:xlink="http://www.w3.org/1999/xlink" x="0px" y="0px"
	 viewBox="45 -33.8 150 150" style="enable-background:new 45 -33.8 150 150;" xml:space="preserve">
<style type="text/css">
	.st0{enable-background:new    ;}
	.st1{fill:#DC6200;}
</style>
<g class="st0">
	<path d="M119.6-21.2c4.3-0.7,6.4-1.8,6.4-3.1c0-2-4.9-3.7-14.6-5.2c-1.1,5.3-3,10.8-5.6,16.6h4.4C114.9-16.7,118-19.5,119.6-21.2z"
		/>
	<path d="M153.8,26.6l1.5-2.6c-2.1-2.9-4.7-5.7-7.6-8.3l-5.1,7.2h-19V3.6c6-0.4,11.9-1,17.6-1.7c2.5,0.6,4.4,1,5.6,1
		c1.5,0,2.3-0.3,2.3-1c0-1.4-2.8-3.7-8.3-7.1c-12.7,3.4-31,5.7-54.6,6.7l1.2,3.4c6.5,0,15.8-0.3,28.1-0.9v18.9H82.6l1.8,3.7h25.5
		c-7.2,9.8-16.3,17.9-27.2,24.2l2.2,3c11.1-5,21.2-12,30.5-21.2v16.8h8.3v-15c10.1,4.3,17,8.8,20.6,13.3c1.5,1.8,3,2.7,4.5,2.7
		c2.8,0,4.2-1.4,4.2-4.2c0-6.2-9.8-11.4-29.3-15.6v-4H153.8z"/>
	<path class="st1" d="M78.3-8.9h81.9v67.5h8.7V-5.6l3.7-2.4c0.8-0.5,1.2-1,1.2-1.6c0-1.5-3.2-4.7-9.7-9.6l-5.3,6.6H110
		c0.1-0.1,0.2-0.2,0.4-0.3h-4.4c0,0.1-0.1,0.2-0.1,0.3H79.6c-3.7-1.7-7-3.1-10-4.3v75.6h8.7V-8.9z"/>
	<path d="M101.8,22.1c3.2,0,4.8-1.6,4.8-4.8c0-4.6-4.7-8.5-14.2-11.7l-1.7,2.6c3.8,2.9,6.3,6.5,7.5,10.9
		C98.7,21.1,99.9,22.1,101.8,22.1z"/>
	<path d="M153.6,87.6c-11.7-4.5-20.5-10.4-26.5-17.9h58.2l1.5-2.7c-3-3.6-6.6-7.2-10.8-10.8l-6,9.7h-46.4v-4.6c4-1.4,6-2.7,6-4
		c0-2.2-4.9-3.4-14.7-3.6V66H53.1l1.6,3.7h59.3c-1.9,6.6-7.1,12.6-15.6,18.2c-10.7,6.9-25.9,11.5-45.3,13.8l1.8,3.7
		c19.9-1.2,35.9-5,48-11.5c11.1-6.1,17.8-13.7,20-23c9.2,17.3,28.8,28.4,58.7,33.2c1.7-3.5,3.9-6.5,6.7-9
		C175.3,93.9,163.7,91.4,153.6,87.6z"/>
	<path d="M138.8,3.2c-2.5,6.2-5.6,11.9-9.3,17.3l2.7,1.8c4.8-3.8,8.9-7.4,12.2-10.8c3.4,0,5.1-0.5,5.1-1.6
		C149.4,8.2,145.9,5.9,138.8,3.2z"/>
</g>
</svg>
