<?xml version="1.0" encoding="utf-8"?>
<!-- Generator: Adobe Illustrator 19.0.0, SVG Export Plug-In . SVG Version: 6.00 Build 0)  -->
<svg version="1.1" id="圖層_1" xmlns="http://www.w3.org/2000/svg" xmlns:xlink="http://www.w3.org/1999/xlink" x="0px" y="0px"
	 viewBox="45 -33.8 150 150" style="enable-background:new 45 -33.8 150 150;" xml:space="preserve">
<style type="text/css">
	.st0{enable-background:new    ;}
	.st1{fill:#DC6200;}
</style>
<g class="st0">
	<path d="M176.3,84.6l-7.5,9.6h-99V-14.2h108.6l1.8-3c-3.3-3.6-6.9-7-10.8-10.2l-7,9.4H70.6l-1.5-0.7l-8.3-3.7v127.6h8.9v-7.3h115.1
		l1.6-2.9C183.8,91.8,180.4,88.3,176.3,84.6z"/>
	<path class="st1" d="M73.9,18.1c5.2,3.1,8.6,6.8,10.2,11.1c0.9,2.4,2.3,3.6,4.1,3.6c3.2,0,4.8-1.7,4.8-5.1c0-2.6-1.6-5.1-4.8-7.5
		c-3.3-2.4-7.6-4-12.7-4.9L73.9,18.1z"/>
	<path class="st1" d="M91.9,8.3c0.9,2.7,2.4,4,4.5,4c3.2,0,4.8-1.9,4.8-5.6c0-6-5.8-10.5-17.4-13.6l-1.5,2.5
		C87.2-0.7,90.4,3.5,91.9,8.3z"/>
	<path d="M123,87.3v-8h52.5l1.6-3c-3-3.4-5.3-5.9-6.9-7.6l-1.5-1.5l-6.6,8.4h-14.3v-19H171l1.7-2.7c-2.7-3.2-5.5-6-8.3-8.4l-6,7.4
		h-10.5V36.7h22.9l1.7-2.7c-3.1-3.4-5.8-6.2-8.1-8.3l-6,7.3h-10.5V17.2h26.7l1.6-2.7c-2.2-2.5-4.2-4.6-6-6.2c-1.5-1.5-2.5-2.4-3-2.8
		l-6.4,7.9h-15.3c2.8-3.5,6.1-8.6,9.7-15.3c3.7-0.4,5.6-1.3,5.6-2.5c0-2-4.1-4.1-12.3-6.4c-1.6,7.8-4.2,15.8-7.8,24.2h-17.1
		c2-4.4,4-9.6,6-15.6c3.8-0.4,5.7-1.3,5.7-2.7c0-2-4.1-4-12.2-6.1C118.2,10.3,111,28,101.5,42.2l3,2.1c3.4-4.2,6.9-9,10.3-14.4v57.3
		H123z M123,17.2h16.9v15.7H123V17.2z M123,36.7h16.9v16.1H123V36.7z M123,56.5h16.9v19H123V56.5z"/>
	<path class="st1" d="M110.8,9.9l-3.3-2.1c-6.4,15.8-12.6,28.8-18.8,39c-2.7,4.3-6,6.4-9.9,6.4c-0.6,0-2-0.1-4.1-0.3v3.7
		c3.5,0.4,6,1.1,7.4,2.1c2.4,1.5,3.6,4.9,3.6,10.2c0,2-0.2,5.7-0.7,11.2c-0.1,0.3-0.1,0.8-0.1,1.2c0,3,1.7,4.5,5.2,4.5
		c3.6,0,5.4-2.2,5.4-6.6c0-2.8-0.7-6.6-2-11.4c-0.7-2.3-1-4.4-1-6.3c0-2.5,0.7-5.5,2-8.8L110.8,9.9z"/>
</g>
</svg>
