<?xml version="1.0" encoding="utf-8"?>
<!-- Generator: Adobe Illustrator 19.0.0, SVG Export Plug-In . SVG Version: 6.00 Build 0)  -->
<svg version="1.1" id="圖層_1" xmlns="http://www.w3.org/2000/svg" xmlns:xlink="http://www.w3.org/1999/xlink" x="0px" y="0px"
	 viewBox="45 -33.8 150 150" style="enable-background:new 45 -33.8 150 150;" xml:space="preserve">
<style type="text/css">
	.st0{enable-background:new    ;}
	.st1{fill:#DC6200;}
</style>
<g class="st0">
	<path d="M87.3,56.1c-8.8,16.8-19.9,30.2-33.5,40.4l2.3,3c14.6-7.8,27-18.5,37.2-32.3c0.8,0.1,1.7,0.1,2.6,0.1c3,0,4.5-0.7,4.5-2.1
		C100.5,62.8,96.1,59.8,87.3,56.1z"/>
	<path d="M99.2,22.5c2.1,3.5,4,5.3,5.6,5.3c3.2,0,4.8-1.8,4.8-5.4c0-4.4-4-9.7-12-15.9c8.5-6.6,16.7-15,24.5-25.2
		c4.9,0,7.3-0.7,7.3-2.1c0-2.2-4.5-5.1-13.5-8.6c-6.2,12.7-13.4,24-21.6,33.6C88.8,0.4,82-3.2,73.8-6.8l-1.9,3
		C84.9,4.8,94,13.5,99.2,22.5z"/>
	<path d="M140.3,56.2l-2.1,3c13.7,9.2,23.6,19.4,29.9,30.4c1.9,3.6,3.9,5.4,6.1,5.4c3.3,0,5-2,5-5.9c0-3.3-2.1-7.2-6.3-11.7
		C165.6,69.7,154.7,62.6,140.3,56.2z"/>
	<polygon points="115.2,105.2 124.4,105.2 124.4,44.8 115.2,45.7 	"/>
	<path class="st1" d="M149.7,18.6l-2.3,2.9c5.3,4.7,10.1,9.9,14.4,15.6c-19.6,1-38.3,1.8-56.3,2.5c17.9-12.1,33.3-25,46.2-38.7
		c0.8,0.1,1.8,0.1,3,0.1c3,0,4.5-0.7,4.5-2c0-2.1-4.2-5.5-12.5-10c-13.9,18.5-30,35.3-48.3,50.6c-17.4,0.4-30.9,0.7-40.5,0.7
		c1.6,9.7,3.7,14.5,6.3,14.5c1.3,0,2.4-2,3.3-5.9c8.8-0.4,24.7-1.6,47.5-3.4v0.1l9.2-0.8v0c9.8-0.6,23.1-2,40.1-4
		c2.3,3.3,4.2,6.7,5.7,10.3c1.6,3.9,3.5,5.9,5.6,5.9c3.7,0,5.6-2,5.6-5.9C181.4,42.1,170.8,31.3,149.7,18.6z"/>
</g>
</svg>
