<?xml version="1.0" encoding="utf-8"?>
<!-- Generator: Adobe Illustrator 19.0.0, SVG Export Plug-In . SVG Version: 6.00 Build 0)  -->
<svg version="1.1" id="圖層_1" xmlns="http://www.w3.org/2000/svg" xmlns:xlink="http://www.w3.org/1999/xlink" x="0px" y="0px"
	 viewBox="45 -33.8 150 150" style="enable-background:new 45 -33.8 150 150;" xml:space="preserve">
<style type="text/css">
	.st0{enable-background:new    ;}
	.st1{fill:#DC6200;}
</style>
<g class="st0">
	<path d="M100.1,75c-13.1,12.7-28,21.7-44.6,27l2,3.7c17.8-4.4,33.2-11.3,46.1-20.6c2.3,0.2,3.6,0.3,3.9,0.3c3,0,4.5-0.5,4.5-1.6
		C111.9,81.6,107.9,78.7,100.1,75z"/>
	<rect x="96.8" y="17.6" width="46.4" height="3.7"/>
	<path class="st1" d="M175.4,55.6L167.4,66h-15.5V-0.7h27.8l1.6-3c-3.4-4.5-6.8-8.1-10.2-10.9l-7.5,10.2h-11.7v-16.9
		c4.4-1.6,6.6-3,6.6-4.2c0-2.3-5.1-3.6-15.3-3.7v24.9H96.8V-21c4.1-1.5,6.2-2.9,6.2-4.2c0-2.2-5-3.4-14.9-3.6v24.5H58.6L60-0.7h28.1
		V66H54.3l1.7,3.7h128l1.8-2.9C182.7,62.5,179.2,58.8,175.4,55.6z M143.2,17.6L143.2,17.6l0,3.7h0v19.8h0v3.7h0v21H96.8v-21h0v-3.7
		h0V21.4h0v-3.7h0V-0.7h46.4V17.6z"/>
	<rect x="96.8" y="41.2" width="46.4" height="3.7"/>
	<path d="M174.9,89.2c-9.3-5.4-23.5-10-42.7-13.9l-1.5,3.4c18.2,6.4,31.9,13.5,41.2,21.3c2.5,2.2,4.4,3.3,5.9,3.3c3.3,0,5-1.7,5-5.1
		C182.7,95.3,180.1,92.3,174.9,89.2z"/>
</g>
</svg>
