<?xml version="1.0" encoding="utf-8"?>
<!-- Generator: Adobe Illustrator 19.0.0, SVG Export Plug-In . SVG Version: 6.00 Build 0)  -->
<svg version="1.1" id="圖層_1" xmlns="http://www.w3.org/2000/svg" xmlns:xlink="http://www.w3.org/1999/xlink" x="0px" y="0px"
	 viewBox="45 -33.8 150 150" style="enable-background:new 45 -33.8 150 150;" xml:space="preserve">
<style type="text/css">
	.st0{enable-background:new    ;}
	.st1{fill:#DC6200;}
</style>
<g class="st0">
	<path d="M183.2,6.1c-2.6-3.4-5.7-6.7-9.2-9.9l-7,9h-13.9V-8.2l4-2.4c0.7-0.4,1.1-0.9,1.1-1.3c0-1.3-3-4.4-9.1-9.2l-5.9,7h-28.6
		l2.4-8c4.4-1.2,6.6-2.4,6.6-3.6c0-1.8-4.5-3.1-13.6-4c-1.3,5.4-2.8,10.6-4.5,15.6H70.7l1.5,3.7h31.9c-1.2,3.5-3.2,8.7-6,15.5H57.8
		l1.7,3.7h122.2L183.2,6.1z M144.7,5.2h-37.1c1.7-3.8,3.6-8.9,5.9-15.5h31.2V5.2z"/>
	<path class="st1" d="M175,69.1l-7.5,9h-41.9V60.4h47.1l1.7-3c-2.7-3.2-5.8-6.3-9.4-9.3l-7.1,8.6h-32.2V42.6h-8.9v14.1H60.7l1.5,3.7
		h54.6v17.7H73.3l1.5-8.3c3.7-1,5.6-2.1,5.6-3.3c0-1.9-4.4-2.9-13.2-3c-1.4,9.6-3.1,18.4-5.3,26.2l8.6,0.8c0.9-3.5,1.6-6.4,2.1-8.7
		h44.3v23.4h8.9V81.9h57.5l1.5-2.9C181.8,75.6,178.6,72.3,175,69.1z"/>
	<path d="M125.6,42.5h24.8v4.7h8.4V26.1l3.4-2.4c0.9-0.6,1.4-1.2,1.4-1.8c0-1.3-3-4.2-9.1-8.7l-5.6,6.3H90c-2.8-1.5-5.9-2.9-9.3-4.3
		V48h8.6v-5.4h27.5v0L125.6,42.5L125.6,42.5z M89.2,38.8V23.2h61.2v15.6H89.2z"/>
</g>
</svg>
