<?xml version="1.0" encoding="utf-8"?>
<!-- Generator: Adobe Illustrator 19.0.0, SVG Export Plug-In . SVG Version: 6.00 Build 0)  -->
<svg version="1.1" id="圖層_1" xmlns="http://www.w3.org/2000/svg" xmlns:xlink="http://www.w3.org/1999/xlink" x="0px" y="0px"
	 viewBox="45 -33.8 150 150" style="enable-background:new 45 -33.8 150 150;" xml:space="preserve">
<style type="text/css">
	.st0{enable-background:new    ;}
	.st1{fill:#DC6200;}
</style>
<g class="st0">
	<path class="st1" d="M139.8,74.8c10.4-7.2,19.3-14.8,26.7-22.9c0.8,0.1,1.6,0.1,2.5,0.1c3.1,0,4.7-0.7,4.7-2
		c0-2.2-4.1-5.4-12.3-9.4c-6.6,11.8-14.8,22.3-24.5,31.5c-8.3-8.3-12.6-17.7-12.7-27.9v-2.7c3.8-1.4,5.7-2.6,5.7-3.7
		c0-2.1-4.9-3.4-14.6-3.9v11.2c0,14.7-6.2,27.3-18.5,37.6C86.1,92,71.4,98.3,52.9,101.8l1.8,3.4C94.3,99.9,117,84,122.9,57.7
		c5.6,21.2,24.4,36.5,56.5,45.6c1.5-3.2,4.1-6.4,7.8-9.6C167.1,90.9,151.3,84.6,139.8,74.8z"/>
	<path d="M51.9,31.3l2.4,2.9c11.3-7.7,20.9-17.1,28.8-28.1v32.4h8.1V6.9c6.1,4,10.4,8.7,13.2,14.1c0.9,1.7,2.2,2.6,3.7,2.6
		c3.3,0,5-1.7,5-5c0-5.7-7.3-10.9-21.9-15.6v-7.5h49.7c-8.1,14-18.3,25.1-30.7,33.2l2.1,3c12.8-6.6,23.3-15.4,31.5-26.3v32.4h8.1
		V-0.8c6.7,12.9,16,23.3,28.1,31.3c2.1-3.6,4.4-6.4,7-8.6c-14.1-6.8-25.2-15.6-33.4-26.5H184l1.7-2.7c-2.9-3.7-6-7.2-9.4-10.3
		l-7,9.3h-17.3v-13.6c4-1.4,6-2.7,6-4c0-2.1-4.7-3.3-14.1-3.7v21.3H120c-2.1-2.6-4.9-5.6-8.3-8.9l-6.6,8.9H91.2v-13.6
		c3.8-1.4,5.7-2.6,5.7-3.8c0-2.1-4.6-3.3-13.8-3.7v21.2H55l1.3,3.7h24.2C72.6,10.3,63.1,22.2,51.9,31.3z"/>
	<path class="st1" d="M68.7,70.1c-2.7,2-4,3.8-4,5.4c0,3.5,1.7,5.3,5,5.3c2.9,0,6-1.9,9.3-5.6c6-6.7,9.6-16.6,10.9-29.6l-3.7-1
		C83,55.6,77.2,64.1,68.7,70.1z"/>
</g>
</svg>
