<?xml version="1.0" encoding="utf-8"?>
<!-- Generator: Adobe Illustrator 19.0.0, SVG Export Plug-In . SVG Version: 6.00 Build 0)  -->
<svg version="1.1" id="圖層_1" xmlns="http://www.w3.org/2000/svg" xmlns:xlink="http://www.w3.org/1999/xlink" x="0px" y="0px"
	 viewBox="45 -33.8 150 150" style="enable-background:new 45 -33.8 150 150;" xml:space="preserve">
<style type="text/css">
	.st0{enable-background:new    ;}
	.st1{fill:#DC6200;}
</style>
<g class="st0">
	<path d="M98,72.1c-12.4,13.2-27.1,23.1-44.4,29.5l2.3,3.4c17.5-4.9,32.8-12.3,45.8-22c0.9,0.1,2.1,0.1,3.4,0.1
		c3.2,0,4.8-0.6,4.8-1.9C109.8,79.3,105.9,76.3,98,72.1z"/>
	<path d="M175.7,88.2C165.5,82.1,151,77,132.2,72.7l-1.8,3.1c18.9,7.3,33.7,15.8,44.4,25.3c1.4,1.1,2.7,1.7,3.7,1.7
		c3.5,0,5.3-1.9,5.3-5.6C183.8,94.4,181.1,91.3,175.7,88.2z"/>
	<rect x="108.1" y="-4.1" width="21.4" height="3.7"/>
	<path class="st1" d="M181.8,53.5l-6.7,9.6h-6v0h-8.4v0H138V32.1h22.6v-3.7H138V-0.4h0v-3.7h0V-20c4.2-1.5,6.3-2.9,6.3-4.2
		c0-2.1-5-3.3-14.9-3.7v23.7h0v3.7h0v28.7h-21.4V-0.4h0v-3.7h0V-20c4.2-1.7,6.3-3.1,6.3-4.3c0-2.1-5-3.3-14.9-3.5v23.7h-0.1v3.7h0.1
		v28.7H78.2v3.7h21.3v31.1H78.2v0h-8.6v0H50.3l1.3,3.7h136.8l1.7-3C187.9,60.3,185.1,56.8,181.8,53.5z M129.4,63.1h-21.4V32.1h21.4
		V63.1z"/>
	<path d="M160.6-0.4v28.7h0v3.7h0v31h8.4V2.9l3.9-2.6c0.9-0.6,1.4-1.2,1.4-1.9c0-1.4-3.1-4.6-9.3-9.6l-5.6,7h-21.4v3.7H160.6z"/>
	<path d="M78.2,32.1L78.2,32.1l0-3.7h0V-0.4h21.3v-3.7H80c-3.9-2-7.4-3.6-10.4-5v72.2h8.6V32.1z"/>
</g>
</svg>
