<?xml version="1.0" encoding="utf-8"?>
<!-- Generator: Adobe Illustrator 19.0.0, SVG Export Plug-In . SVG Version: 6.00 Build 0)  -->
<svg version="1.1" id="圖層_1" xmlns="http://www.w3.org/2000/svg" xmlns:xlink="http://www.w3.org/1999/xlink" x="0px" y="0px"
	 viewBox="45 -33.8 150 150" style="enable-background:new 45 -33.8 150 150;" xml:space="preserve">
<style type="text/css">
	.st0{enable-background:new    ;}
	.st1{fill:#DC6200;}
</style>
<g>
	<path d="M78.6-2.3c34.3-4.1,60.9-12.4,79.8-25c5.7,3.7,8.6,6.4,8.6,8.1c0,1-1,1.5-2.9,1.5c-1,0-2.5-0.2-4.5-0.6
		C133.2-7.5,106.7-1.1,80.1,0.9L78.6-2.3z"/>
</g>
<g class="st0">
	<path class="st1" d="M84.2,41.4c-0.5,28.3-10.1,49.5-28.6,63.4l-2.6-2.9c14.7-14.5,22-35.6,22-63.1V-5.7c4.6,3.6,8.2,6,10.2,7.8
		H161l5.5-7c6.5,5.1,9.8,8.4,9.8,9.9c0,0.6-0.4,1.1-1.1,1.5l-4.3,2.7v43.1h-8.7V41.4H84.2z M84.2,37.6h78V5.8h-78V37.6z"/>
</g>
</svg>
