<?xml version="1.0" encoding="utf-8"?>
<!-- Generator: Adobe Illustrator 19.0.0, SVG Export Plug-In . SVG Version: 6.00 Build 0)  -->
<svg version="1.1" id="圖層_1" xmlns="http://www.w3.org/2000/svg" xmlns:xlink="http://www.w3.org/1999/xlink" x="0px" y="0px"
	 viewBox="45 -33.8 150 150" style="enable-background:new 45 -33.8 150 150;" xml:space="preserve">
<style type="text/css">
	.st0{enable-background:new    ;}
	.st1{fill:#DC6200;}
</style>
<g class="st0">
	<path class="st1" d="M107.5,1.9c0-1.9-4.5-3-13.4-3.4v18.8c0,4,1.3,6.5,3.9,7.5c2.1,0.8,8.4,1.2,18.7,1.2c14.6,0,23.8-0.5,27.5-1.4
		c3.5-0.9,5.3-3.3,5.3-7.2c-2-0.1-3.3-0.7-4-1.7c-0.9-1.2-1.5-4.5-1.7-10l-3.6-1.3c-0.7,5.9-1.7,9.7-2.9,11.6c-1.4,2-8.3,3-20.8,3
		c-7.5,0-11.7-0.2-12.6-0.6c-1.1-0.5-1.7-1.8-1.7-3.8v-9C105.7,4.1,107.5,2.9,107.5,1.9z"/>
	<path d="M59.1,10.7c2.9,0,5.5-2.1,7.8-6.2c2.3-4,3.6-8.9,3.8-14.6H171c-1,3.2-2.5,6.6-4.5,10.2l2.9,2C173,0,176.5-2.7,180.1-6
		l4.8-0.7c1.5-0.1,2.2-0.7,2.2-1.6c0-1.8-3.4-5.9-10.3-12.3l-5.9,6.9h-47.2V-23c4.3-1.3,6.4-2.6,6.4-3.9c0-2.2-5-3.4-15-3.7v16.9
		H70.7c-0.2-2.6-0.4-4.5-0.6-5.9l-3.7-0.3C65.3-10.6,62-3.7,56.7,1c-2,1.9-3,3.4-3,4.6C53.7,9,55.5,10.7,59.1,10.7z"/>
	<path d="M177.8,45.8l-5.9,9h-3.7V39.7l3-2c0.9-0.6,1.3-1.2,1.3-1.8c0-1.3-2.9-4-8.7-8l-4.8,5.6H80.3c-3.1-1.4-6.4-2.7-9.8-3.9v25.1
		H53.4l1.6,3.7h130.4l1.8-2.7C184.8,52.7,181.7,49.4,177.8,45.8z M100.2,54.8H78.6V37.3h21.6V54.8z M130,54.8h-22V37.3h22V54.8z
		 M159.9,54.8h-22.3V37.3h22.3V54.8z"/>
	<path class="st1" d="M122,7c1.2,2.3,2.7,3.4,4.5,3.4c2.9,0,4.3-1.6,4.3-4.7c0-5.7-6.6-9.8-19.8-12.5l-1.6,2.9
		C115.9-0.6,120.1,3,122,7z"/>
	<path class="st1" d="M163.1,18.7c1.1,3,2.7,4.5,5,4.5c3.2,0,4.8-1.7,4.8-5.1c0-6.8-7.8-13.5-23.4-19.9l-2.1,2.7
		C155.3,6.7,160.6,12.6,163.1,18.7z"/>
	<path d="M165.6,60.9l-6.6,7.8H59.1l1.7,3.7h55.7v16.3c0,1.4-0.3,2.3-1,2.9c-0.8,0.7-2.3,1-4.6,1c-6.9,0-14.1-0.5-21.5-1.5v4.2
		c8.3,1.4,13.5,2.5,15.5,3.3c3.2,1.2,4.8,3.3,4.8,6.2c10.3,0,15.5-3.5,15.5-10.5V72.4h48.9l1.8-2.7
		C173.1,66.7,169.7,63.8,165.6,60.9z"/>
	<path class="st1" d="M69.6,15.4c-2.8,1.3-4.2,2.9-4.2,4.8c0,3.4,1.6,5.1,4.8,5.1c2.9,0,5.8-1.8,8.6-5.3c3.5-4.5,5.4-11,5.9-19.6
		l-3.3-0.9C79.5,7,75.6,12.3,69.6,15.4z"/>
</g>
</svg>
