<?xml version="1.0" encoding="utf-8"?>
<!-- Generator: Adobe Illustrator 19.0.0, SVG Export Plug-In . SVG Version: 6.00 Build 0)  -->
<svg version="1.1" id="圖層_1" xmlns="http://www.w3.org/2000/svg" xmlns:xlink="http://www.w3.org/1999/xlink" x="0px" y="0px"
	 viewBox="45 -33.8 150 150" style="enable-background:new 45 -33.8 150 150;" xml:space="preserve">
<style type="text/css">
	.st0{enable-background:new    ;}
	.st1{fill:#DC6200;}
</style>
<g class="st0">
	<path d="M80.1,26.3c1.1,3.5,2.7,5.3,5,5.3c3.6,0,5.4-2.1,5.4-6.3c0-3.2-1.7-7-5-11.4c-5-6.4-12.2-12.2-21.6-17.4L61.6-1
		C71.1,7.7,77.3,16.8,80.1,26.3z"/>
	<path class="st1" d="M165.1,4.3c1.8,0.3,3.2,0.4,4.1,0.4c2.4,0,3.6-0.6,3.6-1.8c0-2.1-4-5.8-11.9-11.1c-7.8,12-16.2,22.4-25.3,31.2
		v5.1C145,21.9,154.8,14,165.1,4.3z"/>
	<path d="M99.3-26.5v65.1c-12.9,7-27.2,13.1-42.9,18.5c3.6,8.8,6.3,13.2,8.1,13.2c1.2,0,2.1-2.2,2.5-6.7
		C77.3,58.4,88,51.8,99.2,43.8c-0.5,8.1-1.6,14.7-3.4,19.9c-5.3,16.2-17.6,28.9-37.1,38.2l2.3,3.5c12.9-4.6,23-10.5,30.2-17.7
		c11.5-11.5,17.3-27.7,17.3-48.5v-57.4c4.1-1.7,6.2-3.1,6.2-4.3C114.7-24.7,109.6-26,99.3-26.5z"/>
	<path class="st1" d="M163.5,60.8c2.7,3.2,4.9,4.8,6.6,4.8c3.3,0,5-1.8,5-5.4c0-7.4-12.7-16-38.2-25.8l-1.3-0.6v4.3
		C147.2,45.3,156.5,52.8,163.5,60.8z"/>
	<path d="M182.5,86.2c-1-2.2-1.5-8.5-1.5-18.9l-4-1.5l-0.3,2.7c-1.1,10-2.3,16.2-3.7,18.7c-1.6,2.5-7.7,3.7-18.3,3.7
		c-9,0-14.6-0.4-16.8-1.3c-1.5-0.6-2.2-2.2-2.2-4.8V38.2c0,0,0,0,0,0v-4.3l0,0v-5.7c0,0,0,0,0,0V23c0,0,0,0,0,0v-41.8
		c4.6-1.7,6.9-3.2,6.9-4.5c0-2.1-5.2-3.4-15.6-3.9V86c0,5,0.8,8.3,2.4,9.9c2.2,2.1,10.3,3.1,24.4,3.1c15.7,0,25.2-0.5,28.6-1.6
		c3.1-1.2,4.8-4,4.9-8.4C184.8,88.9,183.3,87.9,182.5,86.2z"/>
</g>
</svg>
