<?xml version="1.0" encoding="utf-8"?>
<!-- Generator: Adobe Illustrator 19.0.0, SVG Export Plug-In . SVG Version: 6.00 Build 0)  -->
<svg version="1.1" id="圖層_1" xmlns="http://www.w3.org/2000/svg" xmlns:xlink="http://www.w3.org/1999/xlink" x="0px" y="0px"
	 viewBox="45 -33.8 150 150" style="enable-background:new 45 -33.8 150 150;" xml:space="preserve">
<style type="text/css">
	.st0{enable-background:new    ;}
	.st1{fill:#DC6200;}
</style>
<g class="st0">
	<path d="M70.8,74.5l2.4,3.3c23.3-10.1,45.4-25.6,60.5-41.5l-3.7-10C116.5,44.8,94.9,62.6,70.8,74.5z"/>
</g>
<g>
	<path class="st1" d="M134.2,59.3c0,11.3-1.3,19.9-3.8,25.8c-1.7,4.1-5.4,6.2-11.2,6.2c-6.2,0-13.3-0.8-21.5-2.3v4
		c8.4,1.8,13.9,3.2,16.5,4.2c3.5,1.5,5.4,3.7,5.6,6.6c9.4,0.1,15.7-3.9,18.8-12c2.9-7.5,4.4-17.5,4.4-30c0-15.4-4.5-30.4-13.4-45
		l-5.7,4.3C130.2,32.8,133.7,45.6,134.2,59.3z"/>
	<path d="M146.1-26.9c-6.9,9.6-16.2,18.9-27.9,27.9c-8.3-9.7-17.8-18.3-28.3-25.9l-2.6,2.6c10.1,8.4,18.7,17.4,25.9,27.1
		C100.8,13.6,87.8,21,74.2,27.1l2.4,3.3c14.8-6.2,28.3-12.9,40.4-20.1c2.6,3.5,4.8,7,6.8,10.7l5.7-4.3c-2-3.3-4.3-6.7-6.8-10
		c11-7.2,20.4-14.8,28.2-22.8c0.8,0.1,1.8,0.1,3.1,0.1c2.5,0,3.7-0.6,3.7-1.8C157.8-19.8,153.9-22.8,146.1-26.9z"/>
</g>
</svg>
