<?xml version="1.0" encoding="utf-8"?>
<!-- Generator: Adobe Illustrator 19.0.0, SVG Export Plug-In . SVG Version: 6.00 Build 0)  -->
<svg version="1.1" id="圖層_1" xmlns="http://www.w3.org/2000/svg" xmlns:xlink="http://www.w3.org/1999/xlink" x="0px" y="0px"
	 viewBox="45 -33.8 150 150" style="enable-background:new 45 -33.8 150 150;" xml:space="preserve">
<style type="text/css">
	.st0{enable-background:new    ;}
	.st1{fill:#DC6200;}
</style>
<g class="st0">
	<path d="M177.3,63.4l-7.5,9.4H138V54.7h39.1l1.8-2.9c-3.3-3.8-6.5-6.9-9.4-9.4l-7,8.6H138V34.6h43.2l1.3-2.9
		c-2.9-3.4-6-6.6-9.4-9.7l-7.2,8.9H138v-8.7c4.1-1.5,6.2-2.9,6.2-4c0-2.1-5-3.3-14.9-3.7v88.9h8.7V76.6h47.2l1.7-3.3
		C183.5,69.2,180.3,65.9,177.3,63.4z"/>
	<rect x="132.3" y="-15.6" width="8.1" height="21.2"/>
	<path class="st1" d="M168.9-26.2l-5.5,6.9H76.9c-3.6-1.8-6.9-3.3-10.1-4.7v40.8h8.4V9.4h89.6v6.2h8.4v-28.3l4.2-2.9
		c0.6-0.4,1-0.9,1-1.3C178.4-18.2,175.2-21.3,168.9-26.2z M164.8,5.7h-24.4V5.6h-8.1v0.1h-24.1V5.6h-8.1v0.1H75.2v-21.3h24.9v0h8.1
		v0h24.1v0h8.1v0h24.4V5.7z"/>
	<rect x="100.1" y="-15.6" width="8.1" height="21.2"/>
	<path d="M101.3,15.1v15.7H58l1.5,3.7h41.7V51H64.3l1.2,3.7h35.7v5c0,2.9-0.1,5.5-0.4,7.9c-13.4,3.6-28.9,6.5-46.7,8.7
		c2.5,8.8,4.8,13.2,6.9,13.2c1.3,0,2.3-1.8,2.9-5.4c13.1-3.4,25.1-7.3,36-11.8c-3.3,13.6-13.4,24-30.2,31.1l2.3,3.4
		c25.4-7.7,38.1-23.5,38.1-47.5V22.8c3.7-1.3,5.6-2.6,5.6-3.9C115.7,16.8,110.9,15.6,101.3,15.1z"/>
</g>
</svg>
