<?xml version="1.0" encoding="utf-8"?>
<!-- Generator: Adobe Illustrator 19.0.0, SVG Export Plug-In . SVG Version: 6.00 Build 0)  -->
<svg version="1.1" id="圖層_1" xmlns="http://www.w3.org/2000/svg" xmlns:xlink="http://www.w3.org/1999/xlink" x="0px" y="0px"
	 viewBox="45 -33.8 150 150" style="enable-background:new 45 -33.8 150 150;" xml:space="preserve">
<style type="text/css">
	.st0{enable-background:new    ;}
	.st1{fill:#DC6200;}
</style>
<g class="st0">
	<path d="M174.7-22.2l-5.6,7.6H102l1.5,3.7h29.1V2.3c0,27.4-4,49-11.9,65c-6.3,13-16.8,24.5-31.5,34.5l2.6,3.1
		c18.6-9.7,31.8-23,39.5-40.1c6.9-15.4,10.3-36.1,10.3-62.1v-13.6h28.6V0.4c-0.1,39.7-1.7,67-4.6,81.9c-1.4,6.5-5.4,9.7-12,9.7
		c-6.2,0-13.6-0.6-22.3-1.9V94c8.3,1.5,13.8,2.7,16.6,3.6c4,1.3,6,3.6,6.2,6.7c10.1-0.4,16.6-5.3,19.5-14.7C177.2,78,179,45.4,179-8
		l4-2.4c0.9-0.4,1.4-1,1.4-1.6C184.4-13.5,181.2-16.9,174.7-22.2z"/>
	<path class="st1" d="M79.1,80.3V20l35.8-6.6l1.4-3.1c-3.6-3.4-6.4-5.9-8.4-7.3l-2.4-1.8l-5.6,11l-20.7,3.7v-31.2c4-1.6,6-3.1,6-4.4
		c0-2-4.9-3.1-14.6-3.6v40.8l-19.9,3.7l2.1,3.9l17.9-3.3v60.1c0,0.6,8.6-1.1,8.6-1.1C79.1,80.6,79.1,80.4,79.1,80.3z"/>
</g>
<g>
	<path class="st1" d="M110.9,59.4c-14,7.9-20.7,11.2-43.1,18.4c3,8.1,5.6,11.2,7.8,11.2c1.3,0,2-2.1,2-6.3
		c17-7.7,20.9-10.8,34.5-19.8L110.9,59.4z"/>
</g>
</svg>
