<?xml version="1.0" encoding="utf-8"?>
<!-- Generator: Adobe Illustrator 19.0.0, SVG Export Plug-In . SVG Version: 6.00 Build 0)  -->
<svg version="1.1" id="圖層_1" xmlns="http://www.w3.org/2000/svg" xmlns:xlink="http://www.w3.org/1999/xlink" x="0px" y="0px"
	 viewBox="45 -33.8 150 150" style="enable-background:new 45 -33.8 150 150;" xml:space="preserve">
<style type="text/css">
	.st0{enable-background:new    ;}
	.st1{fill:#DC6200;}
</style>
<g class="st0">
	<path class="st1" d="M84.9,39.5V7.2h22.6l1.7-2.9c-3.3-4.6-5.9-7.9-7.8-9.9c-0.4-0.5-0.8-0.9-1.3-1.3L93,3.4h-8.1v-24.9
		c4.4-1.5,6.6-2.9,6.6-4.2c0-2.3-5.1-3.6-15.3-3.8V3.4h-22l1.5,3.7h20.6v35.1c-7.3,2.1-15,4-23.1,5.9c2.5,9.1,4.9,13.7,7,13.7
		c1.3,0,2.2-2.1,2.7-6.3c4.1-1.5,8.6-3.2,13.3-5.1v37.9c0,2.9-1.6,4.3-4.8,4.3c-5.5,0-10.6-0.3-15.4-0.9v3.9
		c4.9,0.8,8.4,1.5,10.3,2.3c3.1,1.2,4.6,3.4,4.6,6.7c0.3,0,1.5-0.1,3.4-0.4c7-0.7,10.5-4.4,10.5-11.1V46.8c6.7-3,15.4-7.1,26.1-12.2
		l-0.7-3.9C101.5,34.1,93,37,84.9,39.5z"/>
	<path d="M178.2-22.9l-7.9,10.8h-63.6l1.3,3.7h37.7v95.3c0,3.1-1.8,4.6-5.3,4.6c-7.8,0-15.9-0.5-24.2-1.5v4.2
		c9.5,1.4,15.5,2.7,18.2,3.9c2.8,1.2,4.2,3.2,4.2,6c10.8,0.1,16.2-4.1,16.2-12.6V-8.4h32.1l1.8-3C185.3-15.9,181.8-19.7,178.2-22.9z
		"/>
</g>
</svg>
