<?xml version="1.0" encoding="utf-8"?>
<!-- Generator: Adobe Illustrator 19.0.0, SVG Export Plug-In . SVG Version: 6.00 Build 0)  -->
<svg version="1.1" id="圖層_1" xmlns="http://www.w3.org/2000/svg" xmlns:xlink="http://www.w3.org/1999/xlink" x="0px" y="0px"
	 viewBox="45 -33.8 150 150" style="enable-background:new 45 -33.8 150 150;" xml:space="preserve">
<style type="text/css">
	.st0{enable-background:new    ;}
	.st1{fill:#DC6200;}
</style>
<g class="st0">
	<path d="M99.1,86.4c0,5.3,2,9.2,6.1,11.5c3.1,1.8,13.5,2.7,31.2,2.7c16.1,0,26.9-0.6,32.4-1.8c4.8-1,7.3-3,7.5-5.8
		c-0.4-3.7-3-5-7.7-4c-3.4,0.8-7.6,1.5-12.5,2.1c-4.6,0.7-12.3,1-23,1c-11.4,0-18.2-0.3-20.3-1c-3.3-1.2-5-3.8-5-7.8V72.8
		c18.5-4.8,34.9-10.8,49.3-17.8c2.1,0.5,3.7,0.7,4.6,0.7c1.7,0,2.6-0.5,2.6-1.5c0-2-3.2-5.2-9.6-9.9c-14.3,10.2-29.9,18.3-46.9,24.5
		V48.4l-8.7,6.8V86.4z"/>
	<path class="st1" d="M174.8,13.3l-8.3,10.6h-32.9c8.9-9.8,18.7-22.2,29.2-37.4c0.9,0.1,1.9,0.1,3.1,0.1c2.9,0,4.3-0.6,4.3-1.8
		c0-2.1-4.1-5.1-12.2-9.2c-5,8.4-9.3,15.1-12.7,20c0,0,0-0.1-0.1-0.1L142.1,0h0.1c-5.2,7-12,15.3-20.5,24.8h-9.4v-0.1h-8.9v0.1H55.3
		l1.5,3.7H118c-6.4,6.5-12.7,12.4-19,17.7C85.1,57.9,69.7,68.1,52.8,76.9l2.3,3.7c17.3-8.1,32-16.6,43.9-25.5v0.1l8.7-6.8v-0.1
		c9.1-7.6,16.6-14.4,22.3-20.6h53.5l1.7-2.9C182.3,21,178.8,17.2,174.8,13.3z"/>
	<path d="M112.2,0h29.8l3.2-4.4c-2-2.8-4.6-5.6-7.7-8.5l-7.3,9.2H113v-17c4.2-1.6,6.3-3.1,6.3-4.5c0-2.2-5.1-3.4-15.2-3.6v25h-37
		L68.4,0h34.9v24.7h8.9V0z"/>
</g>
</svg>
