<?xml version="1.0" encoding="utf-8"?>
<!-- Generator: Adobe Illustrator 19.0.0, SVG Export Plug-In . SVG Version: 6.00 Build 0)  -->
<svg version="1.1" id="圖層_1" xmlns="http://www.w3.org/2000/svg" xmlns:xlink="http://www.w3.org/1999/xlink" x="0px" y="0px"
	 viewBox="45 -33.8 150 150" style="enable-background:new 45 -33.8 150 150;" xml:space="preserve">
<style type="text/css">
	.st0{enable-background:new    ;}
	.st1{fill:#DC6200;}
</style>
<g class="st0">
	<path d="M112.5,71.5h53.2v9h8.4V45.7l3.6-2.3c0.8-0.4,1.2-1,1.2-1.6c0-1.5-3-4.5-9.1-9l-5.3,5.9h-52.1V20.8h48.3v5.9h8.6V-2.9
		l3.9-2.6c0.8-0.4,1.2-1,1.2-1.6c0-1.4-3.1-4.5-9.3-9.2l-5.8,6.3h-30.1c3.3-3.7,6.4-7.9,9.4-12.7c3.7-0.4,5.6-1.3,5.6-2.6
		c0-2.1-4.7-4.1-14-5.9c-1.4,7.1-3.4,14.2-5.9,21.2h-10.9c-2.5-1.4-5.8-2.9-9.7-4.5V81h8.7V71.5z M112.5-6.2h48.3V17h-48.3V-6.2z
		 M112.5,42.4h53.2v25.4h-53.2V42.4z"/>
	<path class="st1" d="M143,93.1c-30.5,0-49.7-5.8-57.6-17.3V50.4l3.4-2.3c0.9-0.6,1.4-1.2,1.4-1.8c0-1.3-3-4.3-8.9-9.2l-5.7,6.9
		H52.8l1.7,3.7H77v31.6c-7.2,4.9-15.2,9.2-24.2,13c3.9,7.8,6.8,11.7,8.6,11.7c1.2,0,1.9-2,2.1-6c7.6-6.1,14-12.2,19.3-18.5
		c4.6,8.1,12,13.6,22,16.7c10.2,3.2,25.9,4.8,47.1,4.8h31.5c0.8-4,2.3-7.5,4.5-10.6C170.4,92.3,155.4,93.1,143,93.1z"/>
	<path class="st1" d="M79.5-6.5c1.4,3.1,3.1,4.6,5.1,4.6c3.3,0,5-1.9,5-5.7c0-7.1-7.8-13.3-23.4-18.8l-2,3
		C71.8-18.4,76.9-12.8,79.5-6.5z"/>
	<path class="st1" d="M72.6,22.3c1.2,3.1,2.9,4.6,5,4.6c3.3,0,5-1.9,5-5.6c0-7-7.5-13.5-22.4-19.3l-2,3C65.2,10,70,15.7,72.6,22.3z"
		/>
</g>
</svg>
