<?xml version="1.0" encoding="utf-8"?>
<!-- Generator: Adobe Illustrator 19.0.0, SVG Export Plug-In . SVG Version: 6.00 Build 0)  -->
<svg version="1.1" id="圖層_1" xmlns="http://www.w3.org/2000/svg" xmlns:xlink="http://www.w3.org/1999/xlink" x="0px" y="0px"
	 viewBox="45 -33.8 150 150" style="enable-background:new 45 -33.8 150 150;" xml:space="preserve">
<style type="text/css">
	.st0{enable-background:new    ;}
	.st1{fill:#DC6200;}
</style>
<g class="st0">
	<path class="st1" d="M167.4-4.7c4.6,0,7-0.7,7-2.1c0-2.1-4.5-5.6-13.4-10.3c-5.9,14.1-13.3,27.2-22.3,39.5l3,2.4
		C151.7,15.2,160.3,5.3,167.4-4.7z"/>
	<path class="st1" d="M85.4,16.9c1.1,4.2,2.8,6.3,5.3,6.3c3.7,0,5.6-2.1,5.6-6.3c0-9.4-8.8-19.6-26.4-30.5l-2.4,2.9
		C76.8-1.6,82.8,7.7,85.4,16.9z"/>
	<path d="M126.4,36.1h57.1l1.6-2.9c-3.4-4.4-6.9-8.2-10.5-11.5l-8.3,10.6H124v-9.2h-9.2v9.2H55l1.5,3.7h53.8
		C96,59.6,77,78.2,53.1,92l2.3,3.3c23.9-11.3,43.7-27.7,59.4-49.2v57.9h9.2V39.5c13.9,21.1,32.4,38.2,55.5,51.3c2-3.6,4.6-6.6,7.9-9
		C163.5,71.3,143.1,56.1,126.4,36.1z"/>
	<path class="st1" d="M124-18.8c4.5-1.7,6.7-3.2,6.7-4.5c0-2-5.3-3.3-15.9-3.9v50.3h9.2V-18.8z"/>
</g>
</svg>
