<?xml version="1.0" encoding="utf-8"?>
<!-- Generator: Adobe Illustrator 19.0.0, SVG Export Plug-In . SVG Version: 6.00 Build 0)  -->
<svg version="1.1" id="圖層_1" xmlns="http://www.w3.org/2000/svg" xmlns:xlink="http://www.w3.org/1999/xlink" x="0px" y="0px"
	 viewBox="45 -33.8 150 150" style="enable-background:new 45 -33.8 150 150;" xml:space="preserve">
<style type="text/css">
	.st0{enable-background:new    ;}
	.st1{fill:#DC6200;}
</style>
<g class="st0">
	<path d="M155.6,47.5c-1.8-1.1-5.5-2.5-11-4l-1.5,3c4.1,2,6.8,4.3,8.3,7c1,1.9,2.1,2.9,3.3,2.9c2.7,0,4-1.4,4-4.3
		C158.7,50.2,157.6,48.7,155.6,47.5z"/>
	<path d="M104.3,32.6h66.4v3h8.1V10.2l3.6-2.3c0.7-0.4,1-0.8,1-1.3c0-1.3-2.9-3.8-8.7-7.5l-4,4.2H106c-1.9-0.8-5.1-2.1-9.7-3.7v36.1
		h8V32.6z M104.3,7h46.2c-2.5,2.2-5.9,4.6-10.1,7.2c-6.6-1.9-14.1-3.4-22.5-4.8l-1.3,2.7c5.8,1.3,11.7,3,17.9,5.2
		c-5.7,2.7-12.8,5.3-21.2,7.8l1.2,2.9c9.7-2.1,18.4-4.8,25.9-8.3c3.3,1.4,7.6,3.5,12.9,6.3c1.1,0.7,2.1,1,2.9,1c1.9,0,2.9-1,2.9-2.9
		c0-2.6-3.9-5.3-11.6-8.1c1.7-0.9,4.3-2.4,7.9-4.7c3.4,0,5.1-0.4,5.1-1.3s-1.8-1.9-5.3-3.1h15.6v21.9h-66.4V7z"/>
	<path d="M155.8,61.7c-1.9-1.1-5.5-2.4-10.9-4l-1.5,2.7c4.2,2.4,6.9,4.8,8,7.2c0.9,1.9,2,2.9,3.3,2.9c2.8,0,4.2-1.5,4.2-4.5
		C158.8,64.3,157.8,62.9,155.8,61.7z"/>
	<path d="M111.4-1.2c1.1,2.4,2.6,3.6,4.5,3.6c2.7,0,4-1.4,4-4.3c0-2.4-1.1-4.4-3.4-6.2c-2.1-1.7-6.2-3.6-12.1-5.8
		c4.4-2.4,8.1-5.1,11.1-8.1c3.6,0,5.4-0.5,5.4-1.5c0-1.4-3.1-3.4-9.3-6c-3.8,6.3-8.1,11.8-12.9,16.3C105.9-8.1,110.1-4.1,111.4-1.2z
		"/>
	<path d="M164.5-2.1c1.2,2.2,2.7,3.3,4.7,3.3c2.7,0,4-1.4,4-4.2c0-2.1-1.1-3.9-3.4-5.5c-2.1-1.5-6-3.2-11.9-5.3
		c5.6-3.1,9.6-5.7,12.2-7.8c3.6,0,5.4-0.5,5.4-1.4c0-1.3-3.3-3.4-9.8-6.3c-3.8,6-8.3,11.3-13.3,15.9C158.5-9.5,162.6-5.7,164.5-2.1z
		"/>
	<path d="M138.1-0.6c0.9,2,2.3,3,4.2,3c2.8,0,4.2-1.4,4.2-4.3c0-2.3-1.2-4.3-3.5-6c-2.2-1.6-6.4-3.4-12.5-5.6
		c4.3-2.6,8.3-5.3,11.9-8.2c3.5,0,5.3-0.5,5.3-1.5c0-1.5-3.1-3.6-9.4-6.2c-3.6,6.3-7.9,11.8-13,16.3C132.1-8.6,136.4-4.4,138.1-0.6z
		"/>
	<path d="M78.3-6c1.1,2.6,2.6,3.9,4.5,3.9c3.5,0,5.3-2,5.3-5.9c0-7.1-7.2-13.3-21.5-18.6l-2.1,2.7C70.5-19,75.2-13.1,78.3-6z"/>
	<path d="M70.6,22.6c1.2,2.6,2.8,3.9,4.6,3.9c3.5,0,5.3-1.9,5.3-5.6c0-7.1-7-13.5-21-19l-1.9,2.7C63.3,9.6,67.7,15.6,70.6,22.6z"/>
	<path d="M99.6,88.7c0.1-0.6,0.3-1.3,0.4-2.3c7.9-2.3,17.5-5.8,28.9-10.6l-1.1-3.4c-5.5,1.8-12.1,3.5-19.8,5.2V43.1
		c3.3-1,5-2.1,5-3.3c0-2.1-4.3-3.1-13-3.3v42.8c-1.8,0.4-4.4,0.9-8.1,1.5c1,3.2,1.7,5.2,2.1,6.1c-5.7-2.4-9.7-5.9-12.1-10.5V51.1
		l3.4-2.1c0.9-0.4,1.3-1,1.3-1.8c0-1.2-2.8-4.2-8.5-9l-5.7,6.7H52.6l1.4,3.7h19.6v32.1c-7,4.9-14.2,9.2-21.8,12.7
		c3.9,7.8,6.9,11.6,9,11.6c1.2,0,1.8-2,1.8-6c6.4-5.8,12.2-11.8,17.1-17.9c4.4,7.3,10.6,12.4,18.8,15.2c10.5,3.5,26.9,5.2,49.2,5.2
		h36.1c0.6-3.7,2-7.2,4.2-10.5c-17.3,1.5-32.5,2.3-45.8,2.3C124.2,93.3,110,91.8,99.6,88.7z"/>
	<path class="st1" d="M187,75.7c0-3.3,0.7-9.2,2-17.7l-3.7-1.6c-2,12.9-3.8,19.3-5.6,19.3c-1.6,0-3.2-2.4-5-7.3
		c-2.4-6.5-3.6-14.8-3.6-25c3.5-1.1,5.3-2.2,5.3-3.3c0-2-4.5-3.3-13.5-4c0,11.9,0.9,21.5,2.8,28.9c1.6,6.5,4,11.8,7.4,16
		c4.3,5.4,8.4,8.1,12.3,8.1c3,0,4.8-2.1,5.2-6.2C188.2,82,187,79.6,187,75.7z"/>
	<path d="M124.8,47.1c-1.9-1-5.7-2.1-11.4-3.4l-1.1,2.9c4.2,2,7.1,4.2,8.6,6.9c0.9,1.6,1.9,2.4,3.1,2.4c2.7,0,4-1.5,4-4.4
		C128.1,49.6,127,48.2,124.8,47.1z"/>
	<path d="M124.8,60.8c-2.1-1.2-6-2.3-11.6-3.4l-1.4,2.9c4.6,2,7.4,4.1,8.6,6.4c0.9,2,2.1,3,3.6,3c2.7,0,4-1.4,4-4.2
		C128.1,63.6,127,62,124.8,60.8z"/>
	<path d="M132.7,36.1v43.5c-3.2,0.6-5.6,1.1-7.2,1.2c1.6,7.3,3.2,10.9,4.9,10.9c1.2,0,2-1.6,2.4-4.9c11.5-3.3,21.5-7,30.2-11.1
		l-0.9-3.6c-8.1,2.6-15.2,4.6-21.5,5.9V42.8c3.4-1,5.1-2.1,5.1-3.3C145.8,37.7,141.4,36.6,132.7,36.1z"/>
</g>
</svg>
