<?xml version="1.0" encoding="utf-8"?>
<!-- Generator: Adobe Illustrator 19.0.0, SVG Export Plug-In . SVG Version: 6.00 Build 0)  -->
<svg version="1.1" id="圖層_1" xmlns="http://www.w3.org/2000/svg" xmlns:xlink="http://www.w3.org/1999/xlink" x="0px" y="0px"
	 viewBox="45 -33.8 150 150" style="enable-background:new 45 -33.8 150 150;" xml:space="preserve">
<style type="text/css">
	.st0{enable-background:new    ;}
	.st1{fill:#DC6200;}
</style>
<g class="st0">
	<rect x="105.2" y="6" width="26.4" height="3.7"/>
	<path d="M171.9-1.2L166.1,6h-25.8v3.7h27.3V48h-0.1v3.7h0.1v41.7h-27.3v0h-8.7v0h-26.5v0h-8.7v0H70.8V51.7h0V48h0V9.7h25.5V6H72.2
		c-3.6-2-7-3.7-10.2-5v104.2h8.7v-8.1h96.9v8.1h8.7V13.2l4-2.6c0.7-0.4,1.1-0.9,1.1-1.6C181.5,7.4,178.3,4,171.9-1.2z"/>
	<path class="st1" d="M96.4,9.7V48H70.8v3.7h25.6v41.7h8.7V51.7h26.5v41.7h8.7V51.7h27.3V48h-27.3V9.7h0V6h0v-25.3
		c4.4-1.5,6.6-2.9,6.6-4.2c0-2.1-5.1-3.4-15.3-3.9V6h0v3.7h0V48h-26.5V9.7h0.1V6h-0.1v-25.3c4.4-1.5,6.6-2.9,6.6-4.2
		c0-2.1-5.1-3.4-15.3-3.9V6h-0.1v3.7H96.4z"/>
</g>
</svg>
