<?xml version="1.0" encoding="utf-8"?>
<!-- Generator: Adobe Illustrator 19.0.0, SVG Export Plug-In . SVG Version: 6.00 Build 0)  -->
<svg version="1.1" id="圖層_1" xmlns="http://www.w3.org/2000/svg" xmlns:xlink="http://www.w3.org/1999/xlink" x="0px" y="0px"
	 viewBox="45 -33.8 150 150" style="enable-background:new 45 -33.8 150 150;" xml:space="preserve">
<style type="text/css">
	.st0{enable-background:new    ;}
	.st1{fill:#DC6200;}
</style>
<g class="st0">
	<path d="M110.2-0.2C110.2-0.1,110.2-0.1,110.2-0.2l12.3,0.1l0.1-0.1H182l1.8-3c-4.1-4.6-7.8-8.4-11.2-11.2l-8.3,10.5h-40.4v-16.6
		c4.5-1.5,6.7-3,6.7-4.4c0-2.2-5.2-3.4-15.6-3.6v24.6H56.4l1.5,3.7H110.2z"/>
	<path d="M179.7,88.2c-1.1-3.3-1.7-11.1-1.7-23.2l-4-1.5c-1.2,16.9-3,26.3-5.3,28.2c-1.6,1.1-6.4,1.6-14.4,1.6
		c-5.7,0-9.4-0.2-11.2-0.7c-1.9-0.4-2.9-1.9-2.9-4.5V29.2c4.3-1.3,1.4,0.5-8.7-0.1v60.5c0,4.9,1.1,8,3.3,9.3
		c2.6,1.7,10.5,2.6,23.6,2.6c11,0,18.1-0.7,21.3-2c3.2-1.2,4.9-3.9,5.1-8.1C182.1,91.5,180.4,90.4,179.7,88.2z"/>
	<path d="M100.3,32.1c0.2,23.1-6,36.7-9.7,44.5c-5.4,11-17.2,19.7-35.4,26l1.7,3.4c13.9-3.1,24.4-7.6,31.6-13.5
		c10.4-8.5,21.5-23.4,21.7-59.1C114.4,32,110.6,32.9,100.3,32.1z"/>
	<path class="st1" d="M94.8,29.2l-13.7,0.5c-1.6,0-3.9,0-6.9,0.1C71,29.9,68.8,30,67.3,30c1.9,9.4,4,14.1,6.3,14.1
		c1.2,0,2.3-1.9,3.3-5.6c28.1-2.4,54.2-5.3,78.3-8.6l4.5-0.7c2.9,3.4,5,6.3,6.3,8.7c2.1,3.9,4.1,5.9,6,5.9c3.3,0,5-1.8,5-5.4
		c0-3.4-2.1-7.2-6.4-11.5c-7.1-7.1-17.9-13.7-32.6-19.8l-2.1,2.9c8.9,5.7,15.7,10.9,20.2,15.6c-17.5,1.4-33.6,2.4-48.1,3.1l-7.8,0.3
		c9.2-10.4,16.4-19.8,21.8-28.2l0.6-0.8h-12.4C105.3,11.3,100.2,21.1,94.8,29.2z"/>
</g>
</svg>
