<?xml version="1.0" encoding="utf-8"?>
<!-- Generator: Adobe Illustrator 19.0.0, SVG Export Plug-In . SVG Version: 6.00 Build 0)  -->
<svg version="1.1" id="圖層_1" xmlns="http://www.w3.org/2000/svg" xmlns:xlink="http://www.w3.org/1999/xlink" x="0px" y="0px"
	 viewBox="45 -33.8 150 150" style="enable-background:new 45 -33.8 150 150;" xml:space="preserve">
<style type="text/css">
	.st0{enable-background:new    ;}
	.st1{fill:#DC6200;}
</style>
<g class="st0">
	<path class="st1" d="M149.1-14.6v55.7h8.6v-55.7h24.6l1.3-2.9c-2.5-3-5.2-5.8-8.1-8.3c-0.7-0.6-1.5-1.4-2.4-2.3l-7.8,9.7H56.2
		l1.5,3.7H149.1z"/>
	<path d="M126.7,28.5V4.3l4-2.3c0.8-0.5,1.2-1,1.2-1.5c0-1.4-3-4.5-8.9-9.3l-5.6,6.6H85.4c-2.7-1.5-4.7-2.6-5.9-3.1
		c-0.8-0.3-1.6-0.6-2.3-1c-0.9-0.3-1.3-0.5-1.4-0.6v38.2h8.4v-8.7h34.1v5.9H126.7z M84.3,18.9V1.6h34.1v17.3H84.3z"/>
	<path d="M151,89.2c0,2.9-1.7,4.4-5,4.4c-3.8,0-9.3-0.5-16.5-1.4v4c5.5,0.9,9.5,1.9,12,2.8c3,1.2,4.5,3.3,4.3,6.2
		c9.3,0,14-4.2,14-12.5V43.2H151V89.2z"/>
	<path class="st1" d="M185.6,44.1l1.5-2.7c-2.4-3.2-5.9-6.8-10.5-10.6l-8,9.6H52.6l1.2,3.7H185.6z"/>
	<path d="M132.7,59.4c0-1.5-3-4.5-9-9.2l-5.7,6.4H84.6c-2.8-1.7-4.9-2.7-6.3-3.1c-1.2-0.5-2.3-1.1-3.4-1.6v40.4h8.4v-9.4h36v5.4h8.4
		V63.4l3.4-2C132.2,60.8,132.7,60.1,132.7,59.4z M119.2,79.2h-36V60.4h36V79.2z"/>
</g>
</svg>
