<?xml version="1.0" encoding="utf-8"?>
<!-- Generator: Adobe Illustrator 19.0.0, SVG Export Plug-In . SVG Version: 6.00 Build 0)  -->
<svg version="1.1" id="圖層_1" xmlns="http://www.w3.org/2000/svg" xmlns:xlink="http://www.w3.org/1999/xlink" x="0px" y="0px"
	 viewBox="45 -33.8 150 150" style="enable-background:new 45 -33.8 150 150;" xml:space="preserve">
<style type="text/css">
	.st0{enable-background:new    ;}
	.st1{fill:#DC6200;}
</style>
<g class="st0">
	<path d="M117.9,55.7l2,3.1c22.2-9.8,40.4-22.6,54.8-38.2c1.7,0.2,2.9,0.3,3.4,0.3c2.5,0,3.7-0.6,3.7-1.8c0-1.9-3.9-5.2-11.6-9.9
		C157.2,27.6,139.8,43.1,117.9,55.7z"/>
	<path d="M116.1,23.3c21.5-9.7,39.3-21.6,53.2-35.8c0.7,0.1,1.5,0.1,2.6,0.1c3.1,0,4.6-0.7,4.6-2.1c0-2.1-3.9-5.2-11.7-9.3
		C152.1-6.7,135.2,8,114.3,20.2L116.1,23.3z"/>
	<path d="M176.4,42.4c-16.6,23.6-38,42-64.4,55.2l2.1,3.3c27.1-10.5,49.5-26.2,66.9-46.9c1.7,0.2,2.8,0.3,3.1,0.3
		c2.4,0,3.6-0.6,3.6-1.8C187.8,50.1,184,46.7,176.4,42.4z"/>
	<path class="st1" d="M114.7,57.6c0-4.5-4.9-9.6-14.6-15.1c4.5-3.9,8.4-7.8,11.7-11.9c3.7-0.1,5.6-0.8,5.6-2c0-1.8-3.5-4.5-10.5-8.2
		c-3.2,7.9-6.6,14.6-10.3,20.1c-2.3-1.2-5.5-2.6-9.6-4v-4c6.7-8.4,12.9-17.6,18.5-27.5l4.5-1.8c0.8-0.3,1.2-0.8,1.2-1.5
		c0-1.9-3.1-5.3-9.3-10.5l-6,7.5h-9.5v-20.4c4.3-1.6,6.5-3.1,6.5-4.3c0-2.1-5-3.3-15.1-3.4v28.2H55.3l1.3,3.7h40.1
		C85.6,24.7,70.3,43.9,51.2,60.3l2.6,2.9c8-5.5,16-12.4,24.2-20.7v62.7h8.9V41c8.2,5.2,14.1,11,17.9,17.3c1.7,2.9,3.5,4.3,5.6,4.3
		C113.2,62.6,114.7,60.9,114.7,57.6z"/>
</g>
</svg>
