<?xml version="1.0" encoding="utf-8"?>
<!-- Generator: Adobe Illustrator 19.0.0, SVG Export Plug-In . SVG Version: 6.00 Build 0)  -->
<svg version="1.1" id="圖層_1" xmlns="http://www.w3.org/2000/svg" xmlns:xlink="http://www.w3.org/1999/xlink" x="0px" y="0px"
	 viewBox="45 -33.8 150 150" style="enable-background:new 45 -33.8 150 150;" xml:space="preserve">
<style type="text/css">
	.st0{enable-background:new    ;}
	.st1{fill:#DC6200;}
</style>
<g class="st0">
	<path class="st1" d="M116,87.1c0,3.3-2,4.9-5.9,4.9c-4.8,0-12.9-0.5-24.3-1.6v4.2c7.7,1,13.1,2,16.2,3c4,1.3,6,3.6,6.2,6.7
		c2.3,0,4.7-0.3,7.3-0.9c6.5-1.5,9.7-5.4,9.7-11.6V28.7l-9.2,0.1V87.1z"/>
	<path class="st1" d="M95.5,49.5c0-2-4.6-4.8-13.8-8.4c-6.4,20.2-16.5,37-30.2,50.5l3,2.7c14.7-10.8,26.2-25,34.5-42.3
		C93.4,51.7,95.5,50.9,95.5,49.5z"/>
	<path d="M169.2-8.3l1.5-2.7c-4-4.6-8-8.3-11.9-11.2L150.5-12H69.2l1.6,3.7H169.2z"/>
	<path d="M181.7,28.6l1.7-3c-3.7-4.2-7.7-8.1-12-11.7l-9,11H57l1.6,3.7H116v0.2l9.2-0.1v-0.1H181.7z"/>
	<path class="st1" d="M143.9,40.5l-2.4,3c15,13.1,25.2,26.5,30.4,40.4c1.9,4.7,3.8,7,5.7,7c3.7,0,5.6-2.1,5.6-6.3
		c0-3.9-2-8.7-5.9-14.4C170.3,60.2,159.2,50.3,143.9,40.5z"/>
</g>
</svg>
