<?xml version="1.0" encoding="utf-8"?>
<!-- Generator: Adobe Illustrator 19.0.0, SVG Export Plug-In . SVG Version: 6.00 Build 0)  -->
<svg version="1.1" id="圖層_1" xmlns="http://www.w3.org/2000/svg" xmlns:xlink="http://www.w3.org/1999/xlink" x="0px" y="0px"
	 viewBox="45 -33.8 150 150" style="enable-background:new 45 -33.8 150 150;" xml:space="preserve">
<style type="text/css">
	.st0{enable-background:new    ;}
	.st1{fill:#DC6200;}
</style>
<g class="st0">
	<path d="M85-29.3C76.7,4.2,64.8,32,49.2,54.1l3,2.3C59.4,48,66,38.6,72,28.2v77h8.6V22.3c4.2-1.5,6.3-2.9,6.3-4.1
		c0-1.5-2.6-2.7-7.7-3.7c4.9-10.1,9.3-21.3,13.1-33.6c4.9-0.7,7.3-1.8,7.3-3.3C99.6-24.8,94.7-27.1,85-29.3z"/>
	<path class="st1" d="M170.8,8.8v77.6h-26.7V-15.3c4.4-1.7,6.6-3.1,6.6-4.3c0-2.2-5.2-3.6-15.5-4V86.4h-25.1V16.8
		c3.9-1.5,5.9-2.9,5.9-4.1c0-2.1-4.9-3.4-14.7-3.9v94.3h8.9v-13h60.7v12.6h8.9V17.3c4.1-1.7,6.2-3.1,6.2-4.4
		C185.8,10.6,180.8,9.3,170.8,8.8z"/>
</g>
</svg>
