<?xml version="1.0" encoding="utf-8"?>
<!-- Generator: Adobe Illustrator 19.0.0, SVG Export Plug-In . SVG Version: 6.00 Build 0)  -->
<svg version="1.1" id="圖層_1" xmlns="http://www.w3.org/2000/svg" xmlns:xlink="http://www.w3.org/1999/xlink" x="0px" y="0px"
	 viewBox="45 -33.8 150 150" style="enable-background:new 45 -33.8 150 150;" xml:space="preserve">
<style type="text/css">
	.st0{enable-background:new    ;}
	.st1{fill:#DC6200;}
</style>
<g class="st0">
	<path class="st1" d="M112.3,15.5c9.1-7.4,16.4-15.9,22-25.5h5c5.7,4.8,9.4,10.7,11.1,17.7c0.6,2.5,2.1,3.7,4.5,3.7
		c3.6,0,5.4-1.9,5.4-5.6c0-5.3-4.8-10.6-14.4-15.9H184l1.7-2.7c-2.9-3.5-6-6.9-9.4-10l-7,9h-32.8c2-4.3,3.2-7.1,3.7-8.3
		c4.1-0.7,6.2-1.7,6.2-2.9c0-2.1-4.5-4-13.5-5.9c-4.3,17.1-12.1,31.7-23.3,43.7L112.3,15.5z"/>
	<path class="st1" d="M78.1-10h5c4.7,4.4,7.6,9.2,8.7,14.4c0.7,3.6,2.4,5.4,4.9,5.4c3.4,0,5.1-1.8,5.1-5.4c0-4.9-4.2-9.7-12.6-14.4
		h28.9l1.8-2.7c-2.2-3.3-5-6.6-8.3-9.9l-6.7,8.9H79.8c1.2-2.6,2.5-5.8,3.7-9.6c4.1-0.8,6.2-1.8,6.2-3.1c0-2-4.8-3.6-14.4-5
		C71.1-12.3,63.5,3.9,52.5,17.2l2.7,2.6C64.9,11.1,72.5,1.1,78.1-10z"/>
	<path d="M178.2,26.5l-7.2,9.4h-9.4V21.4c3.9-1.3,5.9-2.6,5.9-3.9c0-2.1-4.9-3.4-14.7-4v22.5H92.4l1.9,3.7h58.8v46.8
		c0,3.4-2,5.1-6,5.1c-6.6,0-14-0.4-22.3-1.3v4.2c8.6,1,14.5,2.1,17.6,3.3c2.6,1.2,3.9,3.3,3.9,6.2c10.5,0.1,15.7-4,15.7-12.5V39.7
		h24l1.5-2.9C184.7,33.3,181.6,29.8,178.2,26.5z"/>
	<path d="M97.4,16.3c0-2.1-4.3-4.4-13-6.8c-7.8,24-18.5,43.3-32.1,57.9l2.6,2.7c7.4-6.3,14-13.5,19.6-21.3v56.4h8.6V46.1
		c3.8-1.1,5.7-2.2,5.7-3.4c0-1.5-2.5-2.8-7.5-4c3.7-6,7-12.6,9.8-19.7C95.3,18.5,97.4,17.6,97.4,16.3z"/>
	<path d="M130.9,70.4c0-3.1-1.7-6.6-5-10.5c-4.5-5.5-11.3-10.4-20.2-14.7l-2.1,2.7c8.8,7.3,14.6,15.5,17.4,24.6
		c0.7,2.5,2.3,3.7,4.6,3.7C129.2,76.3,130.9,74.3,130.9,70.4z"/>
</g>
</svg>
