<?xml version="1.0" encoding="utf-8"?>
<!-- Generator: Adobe Illustrator 19.0.0, SVG Export Plug-In . SVG Version: 6.00 Build 0)  -->
<svg version="1.1" id="圖層_1" xmlns="http://www.w3.org/2000/svg" xmlns:xlink="http://www.w3.org/1999/xlink" x="0px" y="0px"
	 viewBox="45 -33.8 150 150" style="enable-background:new 45 -33.8 150 150;" xml:space="preserve">
<style type="text/css">
	.st0{enable-background:new    ;}
	.st1{fill:#DC6200;}
</style>
<g class="st0">
	<path d="M159.5,59.1v32.4h-35.7V60c4.2-1.4,6.3-2.7,6.3-4c0-2.2-5.1-3.4-15.2-3.6v39.1H79.9V66.8c4.4-1.4,6.6-2.7,6.6-3.9
		c0-2.1-5.2-3.4-15.5-3.9v46.1h8.9v-10h79.6v10h8.9V67.1c4.2-1.3,6.3-2.6,6.3-3.9C174.6,60.9,169.6,59.5,159.5,59.1z"/>
	<path d="M176.3,34.9l-7.5,9.3h-23.1V12.4h30.9l1.8-2.9c-2.5-3.1-5.7-6.4-9.6-9.9l-7.3,9H90.8v3.7h46.3v31.8H90.6V44h-8.7v0.2H53.7
		L55,48h129.4l1.7-2.7C183,41.4,179.7,37.9,176.3,34.9z"/>
	<path class="st1" d="M90.6,12.4h0.1V8.7h-0.1V-8.6c23.6-2,43.8-4.6,60.6-8.1c2.4,0.6,4.2,0.9,5.5,0.9c1.8,0,2.7-0.4,2.7-1.3
		c0-2-3.4-5.1-10.3-9.4c-15.2,6.3-34.1,10.9-56.8,13.8c0,0-10-4.5-10.3-4.7V44h8.7V12.4z"/>
</g>
</svg>
