<?xml version="1.0" encoding="utf-8"?>
<!-- Generator: Adobe Illustrator 19.0.0, SVG Export Plug-In . SVG Version: 6.00 Build 0)  -->
<svg version="1.1" id="圖層_1" xmlns="http://www.w3.org/2000/svg" xmlns:xlink="http://www.w3.org/1999/xlink" x="0px" y="0px"
	 viewBox="45 -33.8 150 150" style="enable-background:new 45 -33.8 150 150;" xml:space="preserve">
<style type="text/css">
	.st0{enable-background:new    ;}
	.st1{fill:#DC6200;}
</style>
<g class="st0">
	<path d="M182.9-5.2l1.6-3c-3.3-3.9-6.7-7.3-10.3-10.3l-7.6,9.6h-42.8v-12.7c4.2-1.4,6.3-2.8,6.3-4.2c0-2.4-5-3.7-15-3.8v20.7h-60
		l1.5,3.7H182.9z"/>
	<rect x="84.6" y="24.7" width="67.5" height="3.7"/>
	<path d="M186.1,28.5l1.5-2.7c-3.2-3.9-6.3-7.3-9.5-10.2l-6.9,9.2h-10.1v3.7H186.1z"/>
	<path class="st1" d="M126.6,46.3h25.6v5h8.9V28.5h0v-3.7h0V14.2l3.9-2.6c0.7-0.4,1.1-0.9,1.1-1.6c0-1.3-3.1-4.3-9.2-8.9l-5.6,6.3
		H86.9c-0.8-0.3-4.5-1.8-11-4.3v21.6h0v3.7h0v24.2h8.7v-6.4h25l0,0L126.6,46.3C126.6,46.3,126.6,46.3,126.6,46.3z M84.6,42.5V28.5h0
		v-3.7h0V11.2h67.6v13.5h-0.1v3.7h0.1v14.1H84.6z"/>
	<path d="M147.9,74.4c8.8-5.1,16.1-10.1,21.9-15.2c0.9,0.1,2.1,0.1,3.6,0.1c2.5,0,3.7-0.5,3.7-1.6c0-1.9-3.7-5.2-11.2-9.8
		c-6.5,9.2-13.6,17-21.3,23.6c-7.3-7-13.3-15.4-18-25.3h-16.9l-0.6,0.6C96,60.1,76.6,70.6,50.9,78.3l2.1,3.6
		C67,78.4,79.8,74,91.2,68.4v22.8h-0.9c-9.5,1-17.6,1.7-24.5,2.1c2.5,9.1,4.8,13.6,6.9,13.6c1.1,0,2.1-1.7,2.9-5.2
		c22.7-3.6,43.7-8.1,63.1-13.7l-0.7-4c-11.5,2.3-24.2,4.4-38.1,6.2V63.8c8.5-5,15.9-10.7,22-17.2c9.4,27.5,29.3,46.1,59.5,55.9
		c1.6-3.2,4.1-6.3,7.3-9.3C171.8,88.8,158.2,82.5,147.9,74.4z"/>
	<polygon points="52.7,24.7 54.4,28.5 75.9,28.5 75.9,24.7 	"/>
</g>
</svg>
