<?xml version="1.0" encoding="utf-8"?>
<!-- Generator: Adobe Illustrator 19.0.0, SVG Export Plug-In . SVG Version: 6.00 Build 0)  -->
<svg version="1.1" id="圖層_1" xmlns="http://www.w3.org/2000/svg" xmlns:xlink="http://www.w3.org/1999/xlink" x="0px" y="0px"
	 viewBox="45 -33.8 150 150" style="enable-background:new 45 -33.8 150 150;" xml:space="preserve">
<style type="text/css">
	.st0{enable-background:new    ;}
	.st1{fill:#DC6200;}
	.st2{fill:#0887B5;}
	.st3{fill:#D3228C;}
</style>
<g class="st0">
	<path class="st1" d="M70.8-21.8v50.2c0,33.1-6.3,57.8-18.8,74.3l3,2.5C71.8,89.7,80.2,63.9,80.2,28v-41.7c4-1.6,6-3.1,6-4.3
		C86.2-20.4,81.1-21.6,70.8-21.8z"/>
	<path class="st2" d="M162.4-24.3v125.7h9.2V-15.8c4.5-1.3,6.7-2.7,6.7-4.2C178.3-22.5,173-23.9,162.4-24.3z"/>
	<path class="st3" d="M115.8-13.6V86.8h8.9V-5.4c4.1-1.5,6.2-2.9,6.2-4.2C130.8-11.9,125.8-13.2,115.8-13.6z"/>
</g>
</svg>
