<?xml version="1.0" encoding="utf-8"?>
<!-- Generator: Adobe Illustrator 19.0.0, SVG Export Plug-In . SVG Version: 6.00 Build 0)  -->
<svg version="1.1" id="圖層_1" xmlns="http://www.w3.org/2000/svg" xmlns:xlink="http://www.w3.org/1999/xlink" x="0px" y="0px"
	 viewBox="45 -33.8 150 150" style="enable-background:new 45 -33.8 150 150;" xml:space="preserve">
<style type="text/css">
	.st0{enable-background:new    ;}
	.st1{fill:#DC6200;}
</style>
<g class="st0">
	<path class="st1" d="M180.9,84.7c0-2.6,0.4-8.1,1.2-16.4l-3.7-1.8c-2.8,17-5.9,25.6-9.3,25.6c-1.7,0-4.2-0.5-7.3-1.5
		c-9.1-2.9-16.9-7.9-23.2-15c7-4.3,12.6-8.3,16.9-12c1.6,0.3,2.9,0.4,3.9,0.4c2.1,0,3.1-0.5,3.1-1.5c0-1.8-3.2-4.9-9.6-9.2
		c-5.5,5.7-11.8,11-19,16c-3.6-5.9-6.7-13.5-9.3-22.7l-8.7-0.1c2.5,10.4,6,19.6,10.6,27.6C108,85.1,85.6,93.5,59.6,99.4l1.6,3.6
		c28.6-5,51.7-12.5,69.4-22.4l0.9-0.4c5.3,6.5,12,11.8,20.1,16c8.3,4.3,16.7,6.4,25.5,6.4c6,0,9.3-2.8,10-8.4
		C183,93.9,180.9,90.7,180.9,84.7z"/>
	<path d="M124.5,46.6h34.9v7.5h8.7V4.7l3.7-2.3c0.9-0.4,1.4-1,1.4-1.8c0-1.6-3.2-4.9-9.7-9.9l-5.9,7h-37.6v-17.3
		c4.1-1.5,6.2-2.9,6.2-4.2c0-2.1-5-3.4-14.9-3.9v25.3H79.4c-4.1-2.5-7.4-4.2-10-5.3V58h8.6V46.6h38c0,0,0,0,0,0l8.7,0.1
		C124.6,46.6,124.6,46.6,124.5,46.6z M77.9,1.6h33.6c0,6.2,0.2,12.4,0.6,18.6H77.9V1.6z M77.9,42.8V23.9h34.5c0,0.6,0,1,0.1,1.3
		c0.4,5.5,1.3,11.4,2.6,17.6H77.9z M120.2,1.6h39.3v18.6h-38.7C120.4,15.1,120.2,8.9,120.2,1.6z M121.1,23.9h38.4v18.9h-35.7
		C122.4,37.3,121.5,31,121.1,23.9z"/>
</g>
</svg>
