<?xml version="1.0" encoding="utf-8"?>
<!-- Generator: Adobe Illustrator 19.0.0, SVG Export Plug-In . SVG Version: 6.00 Build 0)  -->
<svg version="1.1" id="圖層_1" xmlns="http://www.w3.org/2000/svg" xmlns:xlink="http://www.w3.org/1999/xlink" x="0px" y="0px"
	 viewBox="45 -33.8 150 150" style="enable-background:new 45 -33.8 150 150;" xml:space="preserve">
<style type="text/css">
	.st0{enable-background:new    ;}
	.st1{fill:#DC6200;}
</style>
<g class="st0">
	<path d="M98.7-22.6c0-2.3-4.8-4.5-14.4-6.6C76,3.4,64.3,31.2,49.2,54.1l3,2.3c7-8.5,13.5-18,19.3-28.3v77.1h8.9V22.1
		c3.8-1.5,5.7-2.9,5.7-4.2c0-1.7-2.5-2.9-7.4-3.6c5.2-10.4,9.6-21.6,13.3-33.5C96.4-20,98.7-21.2,98.7-22.6z"/>
	<path d="M127.6,32.1c0-2.1-4.6-4.3-13.9-6.9c-3.8,21.2-10.1,40.4-18.9,57.7l3.4,2.1c10.6-14.7,18.4-31.3,23.4-50
		C125.6,34.5,127.6,33.5,127.6,32.1z"/>
	<path class="st1" d="M177.1-7.9l-5.7,8.3h-54.7c2.6-6.3,5-13.5,7.2-21.5c4.4-0.9,6.6-2,6.6-3.3c0-2.2-4.8-4.2-14.4-6
		c-4.9,25-12.8,46.1-23.7,63.3l3.1,2.3c7.9-9.9,14.4-20.3,19.5-31.1h22v0.1h8.9V4.2h26.7c-1.8,7.5-3.9,14.2-6.2,19.9l3.1,1.7
		c5.3-6.9,9.3-13,12.2-18.5l4.4-1.3c1.1-0.3,1.6-0.9,1.6-1.7C187.9,2.5,184.3-1.6,177.1-7.9z"/>
	<path d="M155.1,26.8c10.2,15.8,16.3,30.9,18.5,45.3c0.9,5.3,2.5,7.9,4.9,7.9c4,0,6-2.6,6-7.9c0-12.5-8.8-28.3-26.5-47.4L155.1,26.8
		z"/>
	<path d="M137.1,87.3c0,3-1.6,4.5-4.8,4.5c-7.1,0-14.1-0.4-20.8-1.2v4c7.6,1.2,12.5,2.3,14.7,3.1c2.9,1.2,4.5,3.3,4.6,6.3
		c10.1,0,15.2-4.2,15.2-12.6V4.2h-8.9V87.3z"/>
</g>
</svg>
