<?xml version="1.0" encoding="utf-8"?>
<!-- Generator: Adobe Illustrator 19.0.0, SVG Export Plug-In . SVG Version: 6.00 Build 0)  -->
<svg version="1.1" id="圖層_1" xmlns="http://www.w3.org/2000/svg" xmlns:xlink="http://www.w3.org/1999/xlink" x="0px" y="0px"
	 viewBox="45 -33.8 150 150" style="enable-background:new 45 -33.8 150 150;" xml:space="preserve">
<style type="text/css">
	.st0{enable-background:new    ;}
	.st1{fill:#DC6200;}
</style>
<g class="st0">
	<path class="st1" d="M118.1,71.5v3.7c4.1,0.8,7.1,1.7,8.9,2.6c2.3,1,3.5,3,3.7,5.9c8.3-0.2,12.5-3.9,12.5-11V1.3l0-14.4
		c3.8-1.2,5.9-2.4,5.9-3.7c0-2.1-4.7-3.3-14.1-3.7v88.4c0,3.1-1.5,4.6-4.5,4.6C126.5,72.6,122.4,72.2,118.1,71.5z"/>
	<path class="st1" d="M172.1,11.7c2.2,0.2,3.4,0.3,3.4,0.3c2.1,0,3.1-0.5,3.1-1.5c0-2-3.7-5.1-11.2-9.5c-4.8,9-11.4,19.4-17,26.4
		l2,2.5C158.3,25.6,165.7,18.8,172.1,11.7z"/>
	<path d="M183.9,84.7c-0.9-3.4-1.4-7.8-1.4-13l-4-1.4c-0.7,5-1.6,9.5-2.7,13.3c-0.9,3-2.5,4.9-4.9,5.7c-4,1.4-23.8,2.1-59.4,2.1
		C88.5,91.5,75,91,71,90c-3.7-1-5.6-3.6-5.6-7.8c0-2.8,0.5-6.4,1.6-10.8c3.5-13.5,13.8-40.4,31.1-80.7l4.7-2
		c1.2-0.4,1.8-1.1,1.8-1.9c0-1.4-3.2-4.8-9.7-10.3l-6.3,7H56.9l1.7,3.7h31.3C79.6,11.6,72.1,30.3,67.4,43.3
		c-7.2,19.8-10.8,33.4-10.8,40.8c0,6.1,2.7,10.3,8,12.7c3.7,1.7,19.2,2.6,46.6,2.6c40.9,0,64.5-0.7,70.8-2c4.6-1,7-3.9,7.2-8.7
		C186.4,88.7,184.7,87.4,183.9,84.7z"/>
	<path class="st1" d="M95.2,14.6h20.9c-4.4,22.5-14.2,41.9-29.4,58.4l2.5,2.6c18-15.2,29.8-34.7,35.3-58.7l3.1-1.8
		c0.7-0.4,1-0.9,1-1.5c0-1.5-2.8-4.6-8.3-9.3l-5.3,6.6H93.9L95.2,14.6z"/>
</g>
<g>
	<path class="st1" d="M138.2,20.1c14.2,6.9,25.2,14.2,32.8,21.8c6.1,6.1,9.2,11.3,9.2,15.5c0,3.6-1.5,5.4-4.4,5.4
		c-1.8,0-3.8-2.2-6.1-6.5c-6-10.8-17.1-22-33.2-33.5L138.2,20.1z"/>
</g>
</svg>
