<?xml version="1.0" encoding="utf-8"?>
<!-- Generator: Adobe Illustrator 19.0.0, SVG Export Plug-In . SVG Version: 6.00 Build 0)  -->
<svg version="1.1" id="圖層_1" xmlns="http://www.w3.org/2000/svg" xmlns:xlink="http://www.w3.org/1999/xlink" x="0px" y="0px"
	 viewBox="45 -33.8 150 150" style="enable-background:new 45 -33.8 150 150;" xml:space="preserve">
<style type="text/css">
	.st0{enable-background:new    ;}
	.st1{fill:#DC6200;}
</style>
<g class="st0">
	<path d="M124.6,43.8h-4.8c3.4,9.1,8.3,18.7,12.6,24.6c10.4,14.7,25.7,26.1,45.8,34.1c2.1-3.7,4.6-6.7,7.7-9.2
		C158.5,85.2,137.4,67.4,124.6,43.8z"/>
	<path class="st1" d="M121,44.5h60.8l1.8-2.9c-4-4.7-7.7-8.7-11.2-12l-8.7,11.1h-41.9c1.2-6,1.8-12,1.8-18V8.3h47.2l2-3
		c-4.2-5-7.9-8.8-10.8-11.5l-8.1,10.8h-30.3V-19c4.4-1.7,6.6-3.1,6.6-4.5c0-2.3-5.2-3.6-15.7-3.9V4.6H67.3l1.5,3.7h45.6v14.3
		c0,6.3-0.7,12.4-2,18.2h-56l1.5,3.7h53.4c-7.5,26.3-26.5,45.2-56.8,56.7l2.1,3.7c34.7-10,56.1-29.8,64-59.4L121,44.5z"/>
</g>
</svg>
