<?xml version="1.0" encoding="utf-8"?>
<!-- Generator: Adobe Illustrator 19.0.0, SVG Export Plug-In . SVG Version: 6.00 Build 0)  -->
<svg version="1.1" id="圖層_1" xmlns="http://www.w3.org/2000/svg" xmlns:xlink="http://www.w3.org/1999/xlink" x="0px" y="0px"
	 viewBox="45 -33.8 150 150" style="enable-background:new 45 -33.8 150 150;" xml:space="preserve">
<style type="text/css">
	.st0{enable-background:new    ;}
	.st1{fill:#DC6200;}
</style>
<g class="st0">
	<path d="M167.4,2.1l-6,7.8h-26.5v3.7h27.9c0.1,35.3-2.1,58.2-6.8,68.8c-1.7,4.1-5.2,6.2-10.8,6.2c-7.6,0-17.1-0.9-28.3-2.7v4.3
		c10.9,2,17.7,3.5,20.6,4.5c4.4,1.5,6.7,3.8,6.9,6.9c8.7-0.1,14.9-3.4,18.5-9.7c6.2-10.9,9.3-36,9.4-75.3l3.4-2.3
		c1.1-0.8,1.6-1.5,1.6-2.1C177.3,10.7,174,7.3,167.4,2.1z"/>
	<path class="st1" d="M116.4,9.9c0.1-1.4,0.1-3.9,0.1-7.5v-19.6c4.4-1.7,6.6-3.1,6.6-4.5c0-2.3-5.4-3.6-16.3-3.7V2.4
		c0,3.4,0,6.1-0.1,8.2H59l1.8,3.7h45.8c-0.9,13.7-3.2,25.7-6.9,36c-7.7,22.1-23,39.3-45.9,51.6l2.3,3.4
		c21.8-9.1,37.5-22.2,46.9-39.1c7.5-13.4,12-31,13.3-52.7h18.6V9.9H116.4z"/>
</g>
</svg>
