<?xml version="1.0" encoding="utf-8"?>
<!-- Generator: Adobe Illustrator 19.0.0, SVG Export Plug-In . SVG Version: 6.00 Build 0)  -->
<svg version="1.1" id="圖層_1" xmlns="http://www.w3.org/2000/svg" xmlns:xlink="http://www.w3.org/1999/xlink" x="0px" y="0px"
	 viewBox="45 -33.8 150 150" style="enable-background:new 45 -33.8 150 150;" xml:space="preserve">
<style type="text/css">
	.st0{enable-background:new    ;}
	.st1{fill:#DC6200;}
</style>
<g class="st0">
	<path d="M72.5,76.6c0-2.8,0.8-6.6,2.3-11.2l21-66.7l-3.6-2.3C83.1,23.7,75,44.3,67.9,58.1c-1.9,3.5-4.7,5.3-8.4,5.3
		c-1.6,0-3.6-0.2-5.9-0.6v3.9c7.9,1.2,11.9,6.1,11.9,14.6c0,2.7-0.2,5.9-0.7,9.7c-0.8,5.9-1.2,8.9-1.2,9c0,3.3,1.7,4.9,5.1,4.9
		c4.3,0,6.4-3.2,6.4-9.7c0-2.7-0.7-7.3-2-13.8C72.7,79.5,72.5,77.9,72.5,76.6z"/>
	<path d="M75.4-9.5c0.9,3,2.3,4.5,4.2,4.5c3.5,0,5.3-1.9,5.3-5.7c0-6.6-6.7-12-20.1-16.2L62.9-24C69.6-19.5,73.8-14.6,75.4-9.5z"/>
	<path d="M63.6,22.6c0.7,3.6,2.4,5.4,4.9,5.4c3.2,0,4.8-1.9,4.8-5.7c0-6.7-6.3-12.3-18.8-16.6l-1.8,2.5
		C58.9,12.7,62.5,17.5,63.6,22.6z"/>
	<path d="M175.8,21.9l-5.6,6.7h-4.4v0h-8.4v0h-17.5v0h-8.1v0H116v0h-8.4v0h-4.2c-1.1-0.6-2.6-1.3-4.4-2.1c-3.6-1.7-5.3-2.5-5.3-2.6
		v81.3h8.7V32.3H171v54.8c0,2.9-1.7,4.3-5,4.3c-7.2,0-13.9-0.3-20.2-1v4.2c7.7,1.1,12.6,2,14.8,2.9c3.1,1.2,4.7,3.3,4.7,6.3
		c9.7,0.1,14.6-3.9,14.6-12.2V35.4l3.6-2.4c0.8-0.5,1.2-1.1,1.2-1.8C184.7,29.7,181.7,26.6,175.8,21.9z"/>
	<path class="st1" d="M116-16.1h41.5V1.1h-15.8c-2.3-1.5-5.6-3.2-9.8-5.3v32.7h8.1V4.9h17.5v23.7h8.4v-42.1L170-16
		c0.9-0.4,1.3-1,1.3-1.8c0-1.4-3.1-4.4-9.2-9l-5.6,6.9h-39.4c-2.8-1.8-6-3.7-9.6-5.6v54h8.4V-16.1z"/>
	<path d="M147,83h8.1V53.5l3.1-2.3c0.9-0.6,1.3-1.2,1.3-1.9c0-1.3-2.9-4.1-8.7-8.4l-5.1,6.3h-19.4c-0.9-0.4-2.4-1.2-4.5-2.2
		c-1.7-0.8-2.9-1.4-3.5-1.7l-1.7-0.7V87h8.4v-9.8H147V83z M125.1,73.4V51H147v22.5H125.1z"/>
</g>
</svg>
