<?xml version="1.0" encoding="utf-8"?>
<!-- Generator: Adobe Illustrator 19.0.0, SVG Export Plug-In . SVG Version: 6.00 Build 0)  -->
<svg version="1.1" id="圖層_1" xmlns="http://www.w3.org/2000/svg" xmlns:xlink="http://www.w3.org/1999/xlink" x="0px" y="0px"
	 viewBox="45 -33.8 150 150" style="enable-background:new 45 -33.8 150 150;" xml:space="preserve">
<style type="text/css">
	.st0{enable-background:new    ;}
	.st1{fill:#DC6200;}
</style>
<g class="st0">
	<path d="M176.6,49.8L168,61.2h-43.7V36.9h-9.4v24.3H52.4l2,3.7h60.6v40.3h9.4V64.9h61.7l1.8-3C184.7,57.9,181,53.8,176.6,49.8z"/>
	<path class="st1" d="M124.4,36.8h33v8.1h9.2v-55.2l3.7-3c0.8-0.6,1.2-1.2,1.2-1.8c0-1.4-3.2-4.5-9.5-9.4l-5.9,7H84.3
		c-4.4-2-8.2-3.5-11.2-4.6v68.3h9.2v-9.4h32.7v0.1L124.4,36.8L124.4,36.8z M82.3-13.7h75.1V7.2H82.3V-13.7z M82.3,33.1V10.9h75.1
		v22.2H82.3z"/>
</g>
</svg>
