<?xml version="1.0" encoding="utf-8"?>
<!-- Generator: Adobe Illustrator 19.0.0, SVG Export Plug-In . SVG Version: 6.00 Build 0)  -->
<svg version="1.1" id="圖層_1" xmlns="http://www.w3.org/2000/svg" xmlns:xlink="http://www.w3.org/1999/xlink" x="0px" y="0px"
	 viewBox="45 -33.8 150 150" style="enable-background:new 45 -33.8 150 150;" xml:space="preserve">
<style type="text/css">
	.st0{enable-background:new    ;}
	.st1{fill:#DC6200;}
</style>
<g class="st0">
	<path class="st1" d="M64.7,79.4c3.3,0,4.9-2.3,4.9-6.9c0-8.1-4.1-17-12.2-26.7l-2.9,1.8C58.9,56.3,61,64,61,71
		c0,3.7,0.2,5.9,0.5,6.4C61.9,78.8,63,79.4,64.7,79.4z"/>
	<path class="st1" d="M87.8,75.6l3.3,1.3c4.1-6.7,7.7-14.8,10.8-24.2c3.3-0.5,4.9-1.3,4.9-2.6c0-2.1-3.9-4.3-11.7-6.6
		C93.8,54.2,91.4,64.9,87.8,75.6z"/>
	<path class="st1" d="M84-22.4c4.1-0.8,6.2-1.7,6.2-2.7c0-1.8-4.6-3.5-13.8-5C70.8-9.3,62,8.5,50,23.5l2.9,2.3
		c4.1-4.1,7.7-8.2,11.1-12.5h11.3v21H52.4l1.2,3.7h21.6v47.5c-3,0.9-10.5,2.6-22.6,5.3c2.2,7.8,4.4,11.7,6.6,11.7
		c1.3,0,2.1-1.8,2.6-5.4c14.3-4.2,29.3-9.7,45-16.5l-0.9-4.1c-6.3,2.2-13.7,4.5-22.2,6.9V38.1h21.6l1.6-2.9c-2.7-3.7-5.5-7-8.3-10
		l-6.3,9.2h-8.6v-21h15.6l1.7-2.9c-2.8-3.2-5.6-6.1-8.4-8.7l-5.9,7.8H66.8C73,0.7,78.2-8.8,82.4-19.1C90-12.9,95.5-6,99.1,1.5
		c1.3,3.1,2.9,4.6,4.8,4.6c3.1,0,4.6-1.7,4.6-5c0-2.8-1.7-6-5.1-9.7C98.1-14.5,91.6-19.1,84-22.4z"/>
	<path d="M167.1,5.5c-2.2-3.1-5.1-6.3-8.5-9.4l-6.3,8.7h-26.7l1.7,3.7h38.4L167.1,5.5z"/>
	<path d="M177.5-26.1l-5.9,7h-48.7c-2.9-1.7-6.5-3.4-10.7-5.1v129.4h8.4V-15.3h52.1V87c0,3.1-2,4.6-5.9,4.6
		c-4.6,0-10.5-0.4-17.7-1.2v3.9c7.5,1.4,12.2,2.7,14.1,3.9c2,1.1,3,3,3,5.7c9.8,0,14.7-4,14.7-12V-12.3l3.7-2.6
		c0.9-0.6,1.4-1.2,1.4-1.8C186.2-18.1,183.3-21.2,177.5-26.1z"/>
	<path d="M153.5,75.4h7.6V34l3.7-2.6c0.8-0.5,1.2-1,1.2-1.6c0-1.2-2.9-4.1-8.6-8.7l-5.1,6h-12.2c-2.1-1.1-4-2-5.7-2.7
		c-0.7-0.2-1.5-0.5-2.3-0.9c-0.9-0.3-1.5-0.5-1.7-0.6v53.4h7.6V65.5h15.4V75.4z M138.2,61.8v-31h15.4v31H138.2z"/>
</g>
</svg>
