<?xml version="1.0" encoding="utf-8"?>
<!-- Generator: Adobe Illustrator 19.0.0, SVG Export Plug-In . SVG Version: 6.00 Build 0)  -->
<svg version="1.1" id="圖層_1" xmlns="http://www.w3.org/2000/svg" xmlns:xlink="http://www.w3.org/1999/xlink" x="0px" y="0px"
	 viewBox="45 -33.8 150 150" style="enable-background:new 45 -33.8 150 150;" xml:space="preserve">
<style type="text/css">
	.st0{enable-background:new    ;}
	.st1{fill:#DC6200;}
</style>
<g class="st0">
	<path class="st1" d="M106.4,33.7c0.9-0.4,1.4-1,1.4-1.8c0-1.6-3.2-5.1-9.5-10.5l-5.9,7.4H57.5l1.5,3.7H93C86,58.5,72.6,79,53,94.2
		l2.3,3.1C67.7,90,77.4,81.7,84.6,72.4c7.3-9.5,13.3-21.7,17.9-36.6L106.4,33.7z"/>
	<path d="M130.3-7.6c3,0,4.5-1.6,4.5-4.9c0-3.2-3.1-6.2-9.2-9c-7.8-3.8-19.7-6.7-35.7-8.7l-1.4,3.6c15.3,3.7,26.9,8.8,34.9,15.3
		C126.4-8.8,128.6-7.6,130.3-7.6z"/>
	<path class="st1" d="M140.4,52.4c11.6-8.7,21.3-22.6,29.1-31.6c0.9,0.1,2,0.1,3.2,0.1c2.7,0,4-0.6,4-1.8c0-2.1-3.9-5.6-11.7-10.7
		c-7.8,13.4-16.8,30.3-26.9,40.5c-6.2-9.6-10.8-16.4-13.9-30.2v-1.3h-8.4v69.9c0,3-1.8,4.5-5.3,4.5c-6,0-13.5-0.5-22.5-1.6V94
		c7.6,1.4,12.5,2.5,14.7,3.4c3.6,1.4,5.4,3.8,5.6,7.2c10.6,0.1,15.9-3.8,15.9-11.9V33.7c3.4,9.4,10.4,21.7,15,27.4
		C149.5,75.4,160,81,178.7,91.7c2-3.3,4.7-6.2,8-8.7C166.7,73.7,151.3,66.8,140.4,52.4z"/>
	<path d="M124.2,8.5l4-2.4c0.9-0.4,1.4-1,1.4-1.8c0-1.5-3.1-4.5-9.4-9.2l-5.9,7.2H73.5L75,6.1h40.8v11.3h8.4V8.5z"/>
</g>
</svg>
