<?xml version="1.0" encoding="utf-8"?>
<!-- Generator: Adobe Illustrator 19.0.0, SVG Export Plug-In . SVG Version: 6.00 Build 0)  -->
<svg version="1.1" id="圖層_1" xmlns="http://www.w3.org/2000/svg" xmlns:xlink="http://www.w3.org/1999/xlink" x="0px" y="0px"
	 viewBox="45 -33.8 150 150" style="enable-background:new 45 -33.8 150 150;" xml:space="preserve">
<style type="text/css">
	.st0{enable-background:new    ;}
	.st1{fill:#DC6200;}
</style>
<g class="st0">
	<path class="st1" d="M98.4,20.6c-2.4-0.6-4.7-1.1-6.9-1.5C81.2,37.7,68,52.4,52.2,63.2l2.3,2.9c9.1-5.1,17.4-11,24.8-17.6h13.3v13
		H65.1l1.8,3.7h25.6v25c-9.8,1.3-20.7,2.5-32.9,3.5c2.1,8.5,4.1,12.8,6.2,12.8c1.2,0,2.1-1.8,2.9-5.4c20.4-3.3,42.2-8.1,65.3-14.4
		l-1-3.7c-10.2,2.2-16.9,3.6-20.4,4.1c4.1-4.2,7.3-8.1,9.6-11.6c3.7-0.4,5.6-1.2,5.6-2.3c0-1.6-3.9-3.7-11.6-6.2
		c-2.3,7.7-5.2,14.7-8.6,20.9l-6.9,1.1V65.3h26.7l1.6-2.9c-2.1-2.3-4.9-4.7-8.1-7.2l-5.3,6.5h-14.9v-13h15l1.5-2.7
		c-2.6-2.4-5.4-4.5-8.2-6.2L104,45h-21c5.5-5.8,9.8-11.3,12.9-16.4c12.8,5.4,23.1,11.9,30.8,19.2c2.5,2.4,4.6,3.7,6.2,3.7
		c2.7,0,4-1.4,4-4.2c0-7-13.1-14.3-39.2-21.8c3.9-0.7,5.9-1.5,5.9-2.3c0-0.4-0.4-0.8-1.3-1.3C102.3,21.8,98.4,20.6,98.4,20.6z"/>
	<path d="M134.1-27.6l-4.8,5.7H99.4l1.2,3.7h10.6c-0.1,15.1-4.4,27.3-12.8,36.9c0,0,2.7,1.3,2.7,1.2c11.3-8.3,18.1-20.9,18.4-38.1
		h10.6c-0.1,12.6-1,22.4-2.5,29.2c-0.6,3.1-2.7,4.7-6.2,4.7c-1.7,0-4.8-0.1-9.4-0.4v3.1c3,0.6,5.4,1.3,7.2,1.9c2,0.9,3,2.7,3,5.3
		c1.7,0,3.3-0.3,4.9-0.9c4.2-1.5,7.1-4.8,8.4-9.9c1.1-4.4,1.9-13,2.4-25.6l0.1-5.3l3.1-2.1c0.7-0.4,1-0.9,1-1.5
		C142.3-21,139.6-23.6,134.1-27.6z"/>
	<path d="M61.6,29.2c1.1,0,1.9-1.8,2.6-5.3C71.6,20.8,80,16.2,89.4,10c0.1,0.3,0.2,0.9,0.4,1.7c0.5,3.2,1.8,4.8,3.8,4.8
		c3.2,0,4.8-1.7,4.8-5.1c0-5.8-5.3-12.3-15.9-19.5l-2.1,2.4c3.7,4.6,6.3,8.7,7.8,12.2c-4.6,2.3-9.8,4.6-15.6,6.7v-26.7l0.9-0.3
		c5.9-1.1,11.8-3,17.7-5.6c1.9,0.5,3.1,0.7,3.9,0.7c1.2,0,1.8-0.4,1.8-1.2c0-1.8-2.6-4.7-7.7-8.7c-5,4.7-11,8.4-17.9,11.2
		c-2.4-1.2-4.7-2.1-6.9-2.7V16c-1.4,0.4-4.4,1.3-8.9,2.7C58.2,25.7,60.2,29.2,61.6,29.2z"/>
	<path d="M171.1-27.5V87.1c0,3.1-2,4.6-6,4.6c-5.1,0-11.2-0.4-18.3-1.2v3.7c6.7,1,11.3,2.1,13.7,3.1c3.2,1.4,4.8,3.5,4.8,6.4
		c9.5,0.1,14.3-4,14.3-12.3v-111c3.9-1.4,5.9-2.6,5.9-3.8C185.4-25.3,180.6-26.8,171.1-27.5z"/>
	<path d="M154.4-1.1c4.1-1.4,6.2-2.7,6.2-3.9c0-2.1-4.7-3.4-14.1-3.9v81.6h8V-1.1z"/>
	<path class="st1" d="M80.2,90.2c3.4,0,5.1-1.7,5.1-5.2c0-5.7-5.4-11.2-16.3-16.3l-1.9,2.2c5.2,5.3,8.2,10.3,9,14.8
		C76.6,88.7,78,90.2,80.2,90.2z"/>
</g>
</svg>
