<?xml version="1.0" encoding="utf-8"?>
<!-- Generator: Adobe Illustrator 19.0.0, SVG Export Plug-In . SVG Version: 6.00 Build 0)  -->
<svg version="1.1" id="圖層_1" xmlns="http://www.w3.org/2000/svg" xmlns:xlink="http://www.w3.org/1999/xlink" x="0px" y="0px"
	 viewBox="45 -33.8 150 150" style="enable-background:new 45 -33.8 150 150;" xml:space="preserve">
<style type="text/css">
	.st0{enable-background:new    ;}
	.st1{fill:#DC6200;}
</style>
<g class="st0">
	<path d="M67.2,10.7C89.9,6,108.8,0.4,123.7-6.2c10,4.4,17.6,8.5,22.6,12.2c3.9,2.6,6.4,3.9,7.7,3.9c2.7,0,4-1.3,4-4
		c0-4.5-8.5-10-25.6-16.3c7.9-3.2,15.9-6.9,24-11.1c5.5,0,8.3-0.6,8.3-1.8c0-1.7-3.9-3.9-11.6-6.4c-8.3,5.7-18.3,11.1-30,16.2
		c-12.3-4-26.5-7.6-42.8-10.9L78-21.3c13.2,3.1,24.9,6.6,35.1,10.6c0.8,0.4,1.5,0.8,2.1,1c-13.5,6.6-30.2,12.3-50,17.1L67.2,10.7z"
		/>
	<path d="M83.1,92.2h8.4V46.4h28.3v58.8h8.7V46.4h31.2v28.1c0,3.2-1.8,4.8-5.4,4.8c-3.8,0-9.9-0.4-18.5-1.2v4
		c7.5,1,12.4,2.2,14.7,3.6c2,1.2,3,3,3,5.4c9.8,0.1,14.7-4,14.7-12.3V49.1l3.6-2.4c1-0.7,1.5-1.4,1.5-2.1c0-1.3-3.2-4.2-9.5-8.7
		l-5.7,6.7h-29.7V31.9c4.2-1.5,6.3-2.9,6.3-4.1c0-2.2-5-3.4-15-3.7v18.6H93.5L91.7,42l-8.6,8.4V92.2z"/>
	<path class="st1" d="M92.4,41.1c5.4-5.9,10.6-12.6,15.6-20.1h77.3l1.8-3c-3.1-4.1-6.7-7.7-10.6-10.9l-8.1,10.2h-57.9
		c0.5-0.8,1.2-2,2.1-3.5c1.6-2.7,2.6-4.5,3.1-5.3c4.6-0.4,6.9-1.3,6.9-2.7c0-2.2-4.4-4-13.2-5.3c-2.6,5.8-5.5,11.4-8.9,16.9H53.2
		l1.2,3.7h43.8C85.8,40,69.9,55.7,50.6,68.2l2.2,3.3C64.3,65.1,74.4,58,83.1,50.3v0.1l8.6-8.4l0,0L92.4,41.1z"/>
</g>
</svg>
