<?xml version="1.0" encoding="utf-8"?>
<!-- Generator: Adobe Illustrator 19.0.0, SVG Export Plug-In . SVG Version: 6.00 Build 0)  -->
<svg version="1.1" id="圖層_1" xmlns="http://www.w3.org/2000/svg" xmlns:xlink="http://www.w3.org/1999/xlink" x="0px" y="0px"
	 viewBox="45 -33.8 150 150" style="enable-background:new 45 -33.8 150 150;" xml:space="preserve">
<style type="text/css">
	.st0{enable-background:new    ;}
	.st1{fill:#DC6200;}
</style>
<g class="st0">
	<path d="M107.6,55.9c-8,3-15.9,5.7-23.9,8.1V0h22.5l1.8-3c-2.4-3.5-5.5-7-9.3-10.5l-7.2,9.7H53.1L54.3,0H75v66.6
		c-5.3,1.5-12.5,3.3-21.6,5.4c3.2,9,5.7,13.5,7.7,13.5c1.2,0,2.1-2.1,2.6-6.2c12.7-4.3,27.7-11,44.9-19.9L107.6,55.9z"/>
	<path d="M147.6,66.6c10.3-15.9,17.1-35.3,20.3-58.1h-9.6C156.1,28,150.6,45,142,59.7c-7.9-10.9-14.3-26.5-19.3-46.9l-3.3,6.7
		c3.5,17.6,9.5,33.2,18.1,46.7c-11.5,15.2-27.7,27-48.6,35.3l2,3.6c22.9-7.1,40.2-17.7,51.9-31.8c8.4,10.3,21,19.9,37.8,28.9
		c1.6-2.9,4.1-5.8,7.6-8.7C171.3,86.3,157.7,77.3,147.6,66.6z"/>
	<path class="st1" d="M122.7,12.6c0.8-1.8,1.4-3.2,1.8-4.2h33.8c0,0,0,0,0,0h9.6c0,0,0,0,0,0h18.5l1.5-2.7
		c-2.8-3.8-6.1-7.5-9.9-11.2l-7.5,10.2H126c2.9-7.7,5.4-15.8,7.7-24.3c4.6-0.9,6.9-2,6.9-3.3c0-2.1-5-4.2-14.9-6.4
		c-5.5,30.5-15.4,55.6-29.5,75.1l3.1,2.4c7.8-8.4,14.5-18,20.1-28.9c0,0,0,0.1,0,0.1l3.3-6.7C122.7,12.8,122.7,12.7,122.7,12.6z"/>
</g>
</svg>
