<?xml version="1.0" encoding="utf-8"?>
<!-- Generator: Adobe Illustrator 19.0.0, SVG Export Plug-In . SVG Version: 6.00 Build 0)  -->
<svg version="1.1" id="圖層_1" xmlns="http://www.w3.org/2000/svg" xmlns:xlink="http://www.w3.org/1999/xlink" x="0px" y="0px"
	 viewBox="45 -33.8 150 150" style="enable-background:new 45 -33.8 150 150;" xml:space="preserve">
<style type="text/css">
	.st0{enable-background:new    ;}
	.st1{fill:#DC6200;}
</style>
<g class="st0">
	<path class="st1" d="M109.5,43.3c0,3.1,1.7,4.7,5,4.7c2.9,0,5.4-2.1,7.3-6.3c3-6.8,4.5-15.1,4.5-24.9c0-3-0.3-7.3-0.8-12.7
		l-3.9-0.9c-0.3,14.6-3.3,26-9.2,34.1C110.5,40.1,109.5,42.1,109.5,43.3z"/>
	<path class="st1" d="M179.3,8c4-0.3,5.9-1.1,5.9-2.3c0-1.9-4.3-5.1-12.9-9.6c-4.6,14.8-10.6,29-17.9,42.4l3,2.3
		C165.2,31.2,172.5,20.3,179.3,8z"/>
	<path d="M105.9,60c3.4,0,5.1-1.9,5.1-5.6c0-3.3-2-7-6-11.1c-4.2-4.4-10.1-8.5-17.7-12.3V17h24.6l1.6-2.6c-2.6-4.2-5.4-7.9-8.2-11.2
		l-6.7,10H87.3v-26.4c7.4-1.9,12.9-3.5,16.3-4.7c1.8,0.4,3.2,0.6,4.3,0.6c1.6,0,2.4-0.4,2.4-1.2c0-1.9-3.2-4.8-9.7-8.9
		C88.4-20.1,73-14.7,54.4-11l1.5,3.4c7.2-0.9,14.8-2.1,22.8-3.7v24.6H52l1.2,3.7h25.2c-5.9,21.6-15.6,41.6-29.1,60.1l2.9,2.6
		c10.6-11.8,19.4-25.4,26.5-40.8v66.3h8.6V35.5c6.6,6.2,11.4,13.1,14.3,20.6C102.6,58.7,104.1,60,105.9,60z"/>
	<path class="st1" d="M147.4,4.2v-24.9c4.1-1.4,6.2-2.7,6.2-4c0-2.2-5-3.8-15-4.5V5c0,20.9-2.1,38.1-6.2,51.8
		c-5.7,18.6-17.1,33.5-34.2,44.8l2.4,3.3c17.6-9.2,29.9-21.5,36.8-37c4.9-11,7.9-23.7,9-38c1.3,11.1,3.5,21.1,6.6,29.9
		c5.2,14.8,14.5,28.8,27.9,41.8c2.2-3.4,5-6.3,8.2-8.6C161.4,72,147.5,42.4,147.4,4.2z"/>
</g>
</svg>
