<?xml version="1.0" encoding="utf-8"?>
<!-- Generator: Adobe Illustrator 19.0.0, SVG Export Plug-In . SVG Version: 6.00 Build 0)  -->
<svg version="1.1" id="圖層_1" xmlns="http://www.w3.org/2000/svg" xmlns:xlink="http://www.w3.org/1999/xlink" x="0px" y="0px"
	 viewBox="45 -33.8 150 150" style="enable-background:new 45 -33.8 150 150;" xml:space="preserve">
<style type="text/css">
	.st0{enable-background:new    ;}
	.st1{fill:#DC6200;}
</style>
<g class="st0">
	<path d="M76.9,4.7h35.9v13.8l-31.2,2.4l1.8,3.9l29.4-2.3v9c0,4.3,1.4,7,4.2,8.1c2.9,1.2,10.9,1.8,24.2,1.8
		c15.7,0,25.5-0.6,29.4-1.7c3-0.9,4.6-3.3,4.8-7.2c-2.1-0.1-3.5-1-4.2-2.6c-0.6-1.7-1-4.8-1-9.3l-3.6-1c-0.4,5-1.5,8.7-3.1,11.1
		c-1.6,2.2-10,3.3-25,3.3c-8.3,0-13.3-0.2-15.2-0.7c-1.5-0.5-2.2-2-2.2-4.5v-7l36.1-2.8l1.7-3c-4.3-3.7-7.9-6.3-10.7-7.8l-6,8.1
		l-21.1,1.6V4.7h47.5c-1,3.4-2.6,7-4.8,10.8l2.7,2.1c4.4-2.9,8.1-5.7,11.1-8.4l4.3-0.7c1.3-0.1,2-0.7,2-1.6c0-1.9-3.5-6.1-10.5-12.5
		L167.9,1H122v-11.7h50.2l2-2.9c-3.3-4-6.5-7.3-9.7-10.2l-7.4,9.3H122v-6.4c4.5-1.7,6.7-3.1,6.7-4.5c0-2.2-5-3.4-15-3.5V1H78.5
		l-1.8-0.9c-3.3-1.6-6.1-2.8-8.4-3.6v38.2c0,28.9-5.5,51.5-16.5,67.9l3.1,2.3c14.7-15.9,22-39.2,22-69.9V4.7z"/>
	<path class="st1" d="M118.2,52.5c3.6-1.4,5.3-2.7,5.3-3.9c0-1.9-4.6-3-13.9-3.3v31.8H93.5V58.4c3-1.4,4.5-2.6,4.5-3.7
		c0-2-4.2-3.1-12.6-3.4V88h8.1v-7.2h16.2v16.4h8.6V52.5z"/>
	<path d="M174.9,87.6l-7.5,9.7h-26.1v0h-8.4v0h-14.6v0h-8.6v0H70.5l1.8,3.7h111l1.8-2.9C183.1,95.6,179.7,92.1,174.9,87.6z"/>
	<path class="st1" d="M141.3,80.8h16.6v6h8.1V58.9c3.4-1.5,5.1-2.8,5.1-4c0-2.1-4.4-3.3-13.2-3.7v25.9h-16.6V52.2
		c3.8-1.5,5.7-2.9,5.7-4c0-2.1-4.7-3.1-14.1-3.3v52.4h8.4V80.8z"/>
</g>
</svg>
