<?xml version="1.0" encoding="utf-8"?>
<!-- Generator: Adobe Illustrator 19.0.0, SVG Export Plug-In . SVG Version: 6.00 Build 0)  -->
<svg version="1.1" id="圖層_1" xmlns="http://www.w3.org/2000/svg" xmlns:xlink="http://www.w3.org/1999/xlink" x="0px" y="0px"
	 viewBox="45 -33.8 150 150" style="enable-background:new 45 -33.8 150 150;" xml:space="preserve">
<style type="text/css">
	.st0{enable-background:new    ;}
	.st1{fill:#DC6200;}
</style>
<g class="st0">
	<path d="M136,14.8h27.5v7h8.3V-12l3.4-2.3c0.9-0.6,1.4-1.2,1.4-1.9c0-1.7-2.9-4.6-8.7-8.6l-5.6,6.2H138c-3.3-1.7-6.6-3.1-10.1-4.3
		v44.2h8.1V14.8z M136-14.9h27.5V11H136V-14.9z"/>
	<path d="M69.6,105.1h8.3v-7.8h25.6v5.7h8V68.2l3.3-2.1c0.7-0.4,1-0.8,1-1.3c0-1.5-2.9-4.3-8.7-8.3l-4.8,5.6H80.2
		c-0.3-0.2-0.8-0.5-1.7-0.9l-8.9,4V105.1z M77.9,65.8h25.6v27.8H77.9V65.8z"/>
	<path d="M165.4,31.8c0-5.5-7.3-9.3-21.9-11.6l-1.2,2.6c6.3,3.1,10.9,6.6,13.6,10.5c0.7,1,1.3,1.7,1.7,2.2h6
		C164.8,34.2,165.4,33,165.4,31.8z"/>
	<path class="st1" d="M135.2,39.1h51l1.8-2.6c-4.2-4.6-7.8-8.1-10.8-10.5l-7.6,9.4h-6c0,0,0.1-0.1,0.1-0.1h-6c0,0,0.1,0.1,0.1,0.1
		h-45.5c2-2.3,4.1-5.2,6.6-8.6c4.2-0.1,6.3-0.9,6.3-2.3c0-1.9-3.7-4.2-11.2-7c-3.9,6.9-8.1,12.8-12.7,17.9H53.1l1.3,3.6H98
		C85.8,50.8,69.9,60.3,50.3,67.4l1.6,3.7c6.3-1.9,12.3-3.9,17.7-6v0.1l8.9-4c0,0,0,0,0,0c11.9-5.8,21.8-13,29.9-21.5l0.6-0.6H129
		c10.1,9.9,21.3,17.3,33.7,22.4l-0.2,0.1l10.1,3.5l0.1-0.1c2.9,0.8,6.6,1.7,11.1,2.7c1.4-3.3,3.4-6.2,6-8.7
		C167.8,56.3,149.6,49.6,135.2,39.1z"/>
	<path d="M162,62.1h-25c-3.3-1.7-6.6-3.1-10.1-4.3v47.3h8.3v-7.8h26.7v7.8h8.1V66.7l2.7-1.5l-10.1-3.5L162,62.1z M161.8,93.6h-26.7
		V65.8h26.7V93.6z"/>
	<path d="M76.3,14.8h27v5.1h8v-32.2l3.6-2.4c0.7-0.4,1-1,1-1.6c0-1.7-2.8-4.5-8.5-8.4l-5,6.2H78c-3.3-1.7-6.6-3-10-4V22h8.3V14.8z
		 M76.3-14.9h27V11h-27V-14.9z"/>
</g>
</svg>
