<?xml version="1.0" encoding="utf-8"?>
<!-- Generator: Adobe Illustrator 19.0.0, SVG Export Plug-In . SVG Version: 6.00 Build 0)  -->
<svg version="1.1" id="圖層_1" xmlns="http://www.w3.org/2000/svg" xmlns:xlink="http://www.w3.org/1999/xlink" x="0px" y="0px"
	 viewBox="45 -33.8 150 150" style="enable-background:new 45 -33.8 150 150;" xml:space="preserve">
<style type="text/css">
	.st0{enable-background:new    ;}
	.st1{fill:#DC6200;}
</style>
<g class="st0">
	<path d="M98.8,57.4c1,0,1.9-1.7,2.9-5c24.9-2.1,45.2-4.4,60.9-7c2.2-0.4,3.9-0.6,5-0.7c1.2,1.8,2.3,3.6,3.1,5.5
		c1.3,3.1,2.9,4.7,4.8,4.7c3.2,0,4.8-1.6,4.8-4.8c0-3-1.7-6.3-5.1-9.7c-4.9-4.9-11.8-9-20.7-12.5l-1.8,2.7c4.9,3.5,8.9,6.8,11.9,10
		l-6.4,0.7c-10.5,0.9-20.5,1.6-29.7,2.1c9.6-6.4,19.6-14.3,29.9-23.7c0.7,0.1,1.6,0.1,2.9,0.1c2.5,0,3.7-0.6,3.7-1.8
		c0-1.8-3.2-4.8-9.7-8.9c-9.8,12.8-20.8,24.3-32.9,34.5c-6.3,0.5-15.9,0.8-29.1,1C94.9,53.2,96.8,57.4,98.8,57.4z"/>
	<path d="M132.6,16.7c3.3,0,4.9-0.5,4.9-1.5c0-1.6-3.3-4.2-9.9-8c-2.9,6.7-6,12.7-9.4,17.9c-2.6-1.5-6.3-2.9-10.9-4.4l-1.7,3
		c7.3,4.1,11.9,8.6,13.8,13.5c0.9,2.2,2.3,3.3,4.4,3.3c2.9,0,4.3-1.6,4.3-4.8c0-2.9-2.2-5.8-6.7-8.9
		C126.3,22.8,130.1,19.4,132.6,16.7z"/>
	<path d="M96.6,19.8c8.7-9.3,15.1-17.2,19.2-29.7c0.6,0,1.1,0,1.5-0.1c3.9-0.3,7.8-0.8,11.9-1.5c3.6,4.7,5.5,9.8,5.6,15.3
		c0.1,3.1,1.4,4.6,3.9,4.6c3.4,0,5.1-1.8,5.1-5.3c0-5.1-3.3-10.2-10-15.3l5-0.9c10.2-1.7,19.1-3.3,26.8-5.1c2.5,0.5,4.3,0.7,5.3,0.7
		c1.7,0,2.6-0.3,2.6-1c0-1.8-3.5-4.4-10.5-8c-13.2,5.5-28.1,9.6-44.7,12.3c-4.1-2.6-7.4-4.4-10-5.4c-2.6,16.1-7.4,26.4-14.6,36.9
		L96.6,19.8z"/>
	<path d="M153.4-12.5c9.9,6.9,16,13.5,18.2,19.9c1.2,3.7,3,5.6,5.5,5.6c3.2,0,4.8-1.7,4.8-5c0-3.1-1.5-6.1-4.5-9.2
		c-6.1-6.1-13.6-10.8-22.4-14.2L153.4-12.5z"/>
	<path class="st1" d="M74.5-7.6c0.7,2.2,2.1,3.3,4,3.3c3.5,0,5.3-2,5.3-5.9c0-6.6-6.8-12.1-20.4-16.5l-2,2.7
		C68.2-19.3,72.5-13.9,74.5-7.6z"/>
	<path d="M140.7,70.3h42.8l1.8-3.3c-2.8-3.4-6-6.5-9.4-9.3l-7.2,8.9h-29.4c0.2-2.7,0.3-4.5,0.3-5.4v-2.6c3.2-1.4,4.8-2.5,4.8-3.4
		c0-1.7-4.5-2.9-13.6-3.6v9.3c0,1.7-0.1,3.6-0.4,5.7H88.9l1.8,3.7h39c-4.1,16-18.5,26.3-43.2,30.9l1.8,3.9c28-3.4,44.5-14,49.7-31.8
		c9.8,14.9,25,24.9,45.8,30c1.5-3.3,3.6-6.3,6.3-9C167.2,91.1,150.8,83.1,140.7,70.3z"/>
	<path class="st1" d="M72.1,76.7c0-2.7,0.8-6.6,2.4-11.6L95.1-1.4l-3.9-2.1c-7.5,23.1-15.1,42.9-22.7,59.3c-2.4,5-5.9,7.5-10.6,7.5
		c-1.4,0-3-0.1-5-0.4v3.9c3.9,0.6,6.7,1.9,8.4,3.9c2,2.5,3,6.6,3,12.5c0,3.3-0.3,8.3-1,15c-0.1,0.4-0.1,0.8-0.1,1.3
		c0,3.7,1.7,5.6,5.2,5.6c4.3,0,6.4-3,6.4-8.9c0-2.2-0.5-5.5-1.4-10C72.5,81.1,72.1,78,72.1,76.7z"/>
	<path class="st1" d="M63.3,24.1c0.7,2.9,2.3,4.3,4.6,4.3c3.4,0,5.1-1.9,5.1-5.7c0-7-6.4-12.7-19.2-17.1L52,8.2
		C58.2,12.9,61.9,18.2,63.3,24.1z"/>
</g>
</svg>
