<?xml version="1.0" encoding="utf-8"?>
<!-- Generator: Adobe Illustrator 19.0.0, SVG Export Plug-In . SVG Version: 6.00 Build 0)  -->
<svg version="1.1" id="圖層_1" xmlns="http://www.w3.org/2000/svg" xmlns:xlink="http://www.w3.org/1999/xlink" x="0px" y="0px"
	 viewBox="45 -33.8 150 150" style="enable-background:new 45 -33.8 150 150;" xml:space="preserve">
<style type="text/css">
	.st0{enable-background:new    ;}
	.st1{fill:#DC6200;}
</style>
<g class="st0">
	<path d="M131.9,70l-1.8,2.6c6,3.1,10.1,6.6,12.3,10.5c0.9,1.5,2.1,2.3,3.4,2.3c3.3,0,5-1.8,5-5.3C150.8,75.6,144.5,72.2,131.9,70z"
		/>
	<path d="M87.9,54.1l-1.7,2.6c5.7,2.4,10.1,5.7,13,9.9c1,1.6,2.3,2.4,3.8,2.4c2.9,0,4.3-1.8,4.3-5.3
		C107.4,59.4,100.9,56.2,87.9,54.1z"/>
	<path d="M87.3,70.1l-1.8,2.3c6.1,2.9,10.3,6.4,12.6,10.6c1.1,2,2.4,3,4.1,3c3.1,0,4.6-1.7,4.6-5.1C106.8,76.3,100.3,72.7,87.3,70.1
		z"/>
	<path d="M161.1,10.5H79.3l-2.7-1.2C73.9,8,71.3,7,68.7,6.1V49h8.4v-3h83.9v3h8.6V16.7l3.3-1.8c0.7-0.4,1-0.8,1-1.2
		c0-1-2.9-3.2-8.7-6.6L161.1,10.5z M161.1,42.2H77.2V14.2h83.9V42.2z"/>
	<path d="M86.9,39.4c13.2-1.9,25.1-4.5,35.7-7.8c4.7,2,8.7,4.3,12.2,6.8c1.7,1.3,3.2,1.9,4.5,1.9c2.4,0,3.6-1.2,3.6-3.7
		c0-2.9-4.2-5.8-12.6-8.9c5.9-2.2,10.2-4.1,13-5.7c0.7,0.1,1.5,0.1,2.3,0.1c2.5,0,3.7-0.4,3.7-1.2c0-1.3-3.2-3-9.7-5.1
		c-5.4,3.8-11.1,6.9-17.1,9.4c-6.2-1.9-15.3-3.8-27.3-5.9l-2.4,2.6c9.5,2.4,16.9,4.7,22.2,6.7c-9.1,3.2-19.1,5.7-30.1,7.5L86.9,39.4
		z"/>
	<path d="M132.6,52.8l-1.9,2.5c5.2,2.2,8.9,5.4,11.2,9.4c1.2,2.2,2.5,3.3,4,3.3c3.2,0,4.8-1.8,4.8-5.3
		C150.8,58.5,144.7,55.2,132.6,52.8z"/>
	<path d="M123,92.2v-33c3.2-1.4,4.8-2.6,4.8-3.7c0-1.9-4.3-3.2-13-3.8v41.6c-2.1,0.2-6,0.5-11.9,1c2.3,7.7,4.2,11.6,5.7,11.6
		c1.1,0,1.8-1.4,2.3-4.2c12.1-2.1,27.5-6,46.2-11.6l-0.7-3.7C146.9,88.4,135.7,90.4,123,92.2z"/>
	<path class="st1" d="M183.1,93.3c0-2.1,0.6-6.3,1.7-12.7l-3.6-2c-2,10-3.8,14.9-5.4,14.9c-1.2,0-2.6-1.4-4.2-4.2
		c-3.7-6-5.6-15.9-5.7-29.8c3.6-1.2,5.4-2.4,5.4-3.6c0-2-4.7-3.3-14-4c0.1,19.8,2.5,33.6,7.2,41.5c4.7,7.8,9.9,11.7,15.7,11.7
		c3.7,0,5.9-2.1,6.7-6.4C184.4,98,183.1,96.2,183.1,93.3z"/>
	<path d="M156,4c1.4,1.8,2.8,2.7,4.3,2.7c3.1,0,4.7-1.5,4.7-4.5c0-5.1-8-10-24-14.6c7.8-2.7,14.3-5.6,19.6-8.7
		c1.8,0.2,2.8,0.3,3,0.3c2.2,0,3.3-0.4,3.3-1.3c0-1.8-3.1-4.2-9.4-7.4c-5.7,6-13.5,11.8-23.4,17.4C144.6-7.2,151.9-1.8,156,4z"/>
	<path d="M104.7,88.5c-7.7,1.4-15.5,2.5-23.4,3.3c-1.1,0-1.9,0-2.3,0.1V59.8c3.1-1.3,4.6-2.6,4.6-3.7c0-2-4.3-3.1-12.9-3.6v40.1
		l-4,0.4c-7.7,0.4-12,0.7-12.7,0.7c2.1,8.1,4,12.2,5.6,12.2c1.2,0,2.1-1.6,2.9-4.7c13.4-2.1,27.8-5.2,43.1-9.3L104.7,88.5z"/>
	<path d="M120.7,4.6c1.6,2.5,3.2,3.7,4.8,3.7c3.1,0,4.6-1.6,4.6-4.9c0-5-7.6-10.2-22.8-15.5c8.1-3.4,14.4-6.5,18.8-9.3
		c0.7,0.1,1.6,0.1,2.9,0.1c2.2,0,3.3-0.5,3.3-1.5c0-1.6-3.2-3.9-9.7-7c-5.8,6.2-13.1,12.2-21.9,17.9C109.7-6.9,116.4-1.4,120.7,4.6z
		"/>
	<path d="M85.8,5.7c1.4,2.4,2.9,3.6,4.5,3.6c3.2,0,4.8-1.8,4.8-5.3c0-5.5-7.4-10.8-22.3-15.7c6.8-3,13.1-6.4,18.9-10.2
		c4.1,0,6.2-0.6,6.2-1.8c0-1.7-3.5-3.6-10.5-5.9C81.6-22.9,75-17,67.5-11.9l-0.9,0.6C75.9-5.9,82.3-0.2,85.8,5.7z"/>
</g>
</svg>
