<?xml version="1.0" encoding="utf-8"?>
<!-- Generator: Adobe Illustrator 19.0.0, SVG Export Plug-In . SVG Version: 6.00 Build 0)  -->
<svg version="1.1" id="圖層_1" xmlns="http://www.w3.org/2000/svg" xmlns:xlink="http://www.w3.org/1999/xlink" x="0px" y="0px"
	 viewBox="45 -33.8 150 150" style="enable-background:new 45 -33.8 150 150;" xml:space="preserve">
<style type="text/css">
	.st0{enable-background:new    ;}
	.st1{fill:#DC6200;}
</style>
<g class="st0">
	<path class="st1" d="M108.8-2.4h18.1c-3.6,15.5-11.2,28.3-22.8,38.4l2.4,2.9c13.8-9,23.4-21.9,28.6-38.5l3.7-2.1
		c0.8-0.5,1.2-1,1.2-1.5c0-1.4-3-4.6-8.9-9.6L126-6.2h-19L108.8-2.4z"/>
	<path class="st1" d="M164.7,9l1.4-1c6.4-4.1,11.7-8.1,16-11.9c0.7,0.1,1.6,0.1,2.7,0.1c2.2,0,3.3-0.6,3.3-1.7
		c0-1.9-3.4-5.1-10.1-9.6c-4.5,7.6-9.7,14.6-15.6,21c-5-7.8-8.6-17.2-10.6-28.2c3.7-1.4,5.6-2.6,5.6-3.8c0-1.9-4.6-3-13.8-3.3v57.6
		c0,2.8-1.7,4.2-5.1,4.2c-3.3,0-8-0.4-13.9-1.2v3.9c4.9,0.9,8.5,1.7,10.6,2.6c2.6,1.1,4,3,4,5.7c8.4,0.1,12.6-3.5,12.6-11V-8.7
		c4.3,19.7,14.6,35.4,30.9,47.1c1.7-3.1,4.1-5.7,7-7.6C178.9,24.1,170.6,16.8,164.7,9z"/>
	<path d="M170.8,42.4l-5.2,6.4H127c-3.5-1.7-6.9-3.1-10.4-4.5v60.9h8.4v-8.9h41.8v8.9h8.6V55.1l3.4-2.3c0.7-0.4,1-0.9,1-1.6
		C179.8,49.8,176.8,46.9,170.8,42.4z M166.8,92.6H125v-19h40.2l1.5-2.9c-1.8-2.5-4.2-5.1-7.2-7.6l-5,6.7H125V52.6h41.8V92.6z"/>
	<path d="M107.6,50.8l1.6-2.7c-0.8-0.9-1.8-2-2.8-3.1c-1.4-1.6-2.2-2.5-2.3-2.6c-0.5-0.5-1.1-1-1.7-1.7c-0.8-0.9-1.3-1.4-1.5-1.5
		l-5.9,7.9h-7.6V20.5h7.3v5.9h8v-40.8l3.7-2.4c0.6-0.4,0.9-0.9,0.9-1.2c0-1.1-2.9-4.1-8.7-8.9l-5.3,7.2H70.2c-5.2-2.7-8.5-4.4-9.7-5
		v52.7h8.3v-7.4h10.5v63c-5.4,1.3-9,2.1-10.6,2.4v-40c3.8-1.2,5.7-2.4,5.7-3.7c0-2-4.6-3.2-13.7-3.9v49.2c-0.4,0.1-1.1,0.3-2.1,0.4
		c-3,0.5-5.7,1-8.1,1.5c2.2,8.8,4.4,13.3,6.6,13.3c1.2,0,2.2-1.9,3-5.7c17.5-5.2,33.5-11,48-17.4l-0.6-4.2c-6.6,2.2-13.3,4.2-20,6
		V50.8H107.6z M68.7,16.7v-32.9h26.1v32.9H68.7z"/>
</g>
</svg>
