<?xml version="1.0" encoding="utf-8"?>
<!-- Generator: Adobe Illustrator 19.0.0, SVG Export Plug-In . SVG Version: 6.00 Build 0)  -->
<svg version="1.1" id="圖層_1" xmlns="http://www.w3.org/2000/svg" xmlns:xlink="http://www.w3.org/1999/xlink" x="0px" y="0px"
	 viewBox="45 -33.8 150 150" style="enable-background:new 45 -33.8 150 150;" xml:space="preserve">
<style type="text/css">
	.st0{enable-background:new    ;}
	.st1{fill:#DC6200;}
</style>
<g class="st0">
	<path d="M181.7,84.6l-6.2,11.3h-1.4v-86l4-2.7c0.7-0.4,1.1-0.9,1.1-1.5c0-1.4-3.2-4.7-9.7-9.9l-5.4,7H134
		c3.4-7.2,6.1-14.4,8.2-21.6c4.6-0.7,6.9-1.8,6.9-3.1c0-2.2-5.2-4.2-15.5-6c-1.5,12.5-3,22.8-4.5,30.8h-12.5
		c-3.2-1.7-6.7-3.3-10.3-4.8v97.9H90.7l1.8,3.7h95.1l1.6-3.1C187.1,92.3,184.6,88.4,181.7,84.6z M125.9,95.9h-11.1V6.6h11.1V95.9z
		 M145.5,95.9H134V6.6h11.5V95.9z M165.7,95.9h-12.1V6.6h12.1V95.9z"/>
	<path class="st1" d="M96.3,60c2.9,0,4.4-1.6,4.4-4.8c0-4.2-3.9-9.3-11.7-15.2l1.1-1c3.3-3.3,5.9-6.2,7.9-8.7
		c3.2-0.1,4.8-0.7,4.8-1.8c0-1.7-3.4-4-10.1-7c-2,6.3-4.3,11.7-6.9,16.3c-2.1-1.3-4.2-2.5-6.4-3.7v-3.7c4.8-7.1,9.5-15.5,14.1-25.3
		l4-2.1c0.9-0.4,1.4-1,1.4-1.6c0-1.5-3-4.7-9-9.6l-5.6,7h-5.6v-20.3c4.4-1.7,6.6-3.1,6.6-4.3c0-2-4.9-3.1-14.7-3.4v28.1h-19L53,2.5
		h31.6c-7.2,19.8-18.9,38.9-35.1,57.1l2.7,2.7c6-5.4,12.2-12.1,18.6-20.1v63h8.6v-66c4.5,4.1,8.4,9.4,11.6,16
		C92.5,58.4,94.2,60,96.3,60z"/>
</g>
</svg>
