<?xml version="1.0" encoding="utf-8"?>
<!-- Generator: Adobe Illustrator 19.0.0, SVG Export Plug-In . SVG Version: 6.00 Build 0)  -->
<svg version="1.1" id="圖層_1" xmlns="http://www.w3.org/2000/svg" xmlns:xlink="http://www.w3.org/1999/xlink" x="0px" y="0px"
	 viewBox="45 -33.8 150 150" style="enable-background:new 45 -33.8 150 150;" xml:space="preserve">
<style type="text/css">
	.st0{enable-background:new    ;}
	.st1{fill:#DC6200;}
</style>
<g class="st0">
	<path class="st1" d="M121.6-7.3h52.7l1.5-2.9c-3.9-4.6-7.4-8.1-10.6-10.5l-7.7,9.6h-35.8v-10c4.6-1.5,6.9-3,6.9-4.4
		c0-2.1-5.2-3.4-15.5-3.9V7.6h8.6V-7.3z"/>
	<path d="M84.6,74.2H154v4.6h8.7V14.8l3.9-2.4c1-0.5,1.5-1.2,1.5-1.9c0-1.4-3.3-4.5-9.8-9.2l-5.6,6.6h-31.1V7.6H113v0.3H85.9
		c-2.9-1.7-6.3-3.4-10.2-5v77.9h8.9V74.2z M84.6,11.6H154v15.8H84.6V11.6z M84.6,31.2H154v17.2H84.6V31.2z M84.6,52.1H154v18.4H84.6
		V52.1z"/>
	<path d="M172.6,89.3c-9.9-3.7-23.7-6.5-41.4-8.5l-1.9,3.4c19.9,4.8,34.2,10.3,42.8,16.3c3,2.1,5.2,3.1,6.6,3.1
		c3.2,0,4.8-1.8,4.8-5.3C183.6,95.2,179.9,92.2,172.6,89.3z"/>
	<path d="M99.4,80c-12.1,9.6-27.8,16.8-46.9,21.6l2.1,3.8c18.2-3.1,34.3-8.3,48.3-15.5c0.9,0.1,2.2,0.1,3.7,0.1
		c2.7,0,4.1-0.6,4.1-1.7C110.7,86.6,106.9,83.8,99.4,80z"/>
</g>
</svg>
