<?xml version="1.0" encoding="utf-8"?>
<!-- Generator: Adobe Illustrator 19.0.0, SVG Export Plug-In . SVG Version: 6.00 Build 0)  -->
<svg version="1.1" id="圖層_1" xmlns="http://www.w3.org/2000/svg" xmlns:xlink="http://www.w3.org/1999/xlink" x="0px" y="0px"
	 viewBox="45 -33.8 150 150" style="enable-background:new 45 -33.8 150 150;" xml:space="preserve">
<style type="text/css">
	.st0{enable-background:new    ;}
	.st1{fill:#DC6200;}
</style>
<g class="st0">
	<path d="M119.1,0.7c3.7,0,5.6-2.1,5.6-6.2c0-7.7-6.5-15.8-19.6-24.2l-2.3,2.7C108.9-20,112.7-12.7,114-5
		C114.8-1.2,116.5,0.7,119.1,0.7z"/>
	<path d="M85.5-4.1c1.1,3.7,2.8,5.6,5.1,5.6c3.8,0,5.7-2,5.7-6c0-7.5-7.9-15-23.7-22.5l-2.1,3C78.8-17.2,83.8-10.6,85.5-4.1z"/>
	<path d="M143.6,8.9h42.1l1.7-3.1c-3.2-3.6-6.2-6.8-9-9.4c-0.5-0.5-1-0.9-1.5-1.3l-7.9,10.2h-28.8c6.3-6.8,12.7-15.1,19.3-25
		c4.5-0.1,6.7-0.9,6.7-2.3c0-2-4.7-4.6-14.1-7.9c-4.1,11.5-9.4,22.8-16,33.9l-0.9,1.3H52.8l1.5,3.7h35.6
		c-7.7,16.9-20.8,30.2-39.3,39.9l2.4,3.3c21.8-9.5,37.7-23.9,47.5-43.2h38.1c9.5,17.5,23.6,30.7,42.3,39.6c2.1-3.5,4.6-6.4,7.5-8.7
		C170.1,33.6,155.2,23.3,143.6,8.9z"/>
	<path class="st1" d="M171.3,56.8l-7.9,9.3h-39V50.4h38.1l1.8-2.7c-2.9-2.6-5.1-4.6-6.6-5.9c-0.6-0.5-1.4-1.1-2.2-1.8
		c-0.6-0.6-1-1-1.1-1l-7.1,7.7h-22.9V30.5c4.7-0.4,9.6-1.2,14.7-2.2c2.5,0.5,4,0.7,4.6,0.7c1.5,0,2.3-0.4,2.3-1.2
		c0-1.6-3.1-4.5-9.3-8.9c-10.1,4.5-26.9,8.3-50.5,11.1l1.8,3.5c9.9-0.5,18.9-1.1,26.9-1.8l0.7-0.1v15H76.5l1.8,3.7h37.4v15.7H57.9
		l2,3.7h55.8v17.9c0,3.4-1.9,5.1-5.7,5.1c-4.6,0-12.7-0.5-24.2-1.6v4c7.9,1,13.5,2.1,17,3.3c3.8,1.4,5.7,3.6,5.9,6.7
		c10.5,0.2,15.7-3.7,15.7-11.6V69.9h56l2-2.9C179.5,63.8,175.8,60.4,171.3,56.8z"/>
</g>
</svg>
