<?xml version="1.0" encoding="utf-8"?>
<!-- Generator: Adobe Illustrator 19.0.0, SVG Export Plug-In . SVG Version: 6.00 Build 0)  -->
<svg version="1.1" id="圖層_1" xmlns="http://www.w3.org/2000/svg" xmlns:xlink="http://www.w3.org/1999/xlink" x="0px" y="0px"
	 viewBox="45 -33.8 150 150" style="enable-background:new 45 -33.8 150 150;" xml:space="preserve">
<style type="text/css">
	.st0{enable-background:new    ;}
	.st1{fill:#DC6200;}
</style>
<g class="st0">
	<path d="M98.6,23.5c1-9.1,1.5-18,1.5-26.9v-10.5h38.5c-1.9,13.2-4.6,25.7-8.1,37.3h9.8c3-10.8,5.5-22.3,7.4-34.6l4-2
		c0.9-0.4,1.4-1,1.4-1.6c0-1.2-3.1-4.7-9.4-10.3l-6,7.5H62.7l1.3,3.7h27v10.5c0,19.4-1.9,36.2-5.6,50.5c-5.7,22.6-17,40.7-33.8,54.3
		l2.4,3C71,93.2,83,78.8,90,61.3c3.8-9.1,6.5-20.5,8.1-34.1h0.2l0.4-3.7H98.6z"/>
	<path class="st1" d="M143.3,71.2c9.6-10.9,18.1-24.6,25.6-40.9l3.6-2.1c1-0.6,1.5-1.2,1.5-1.8c0-1.5-3.1-5-9.2-10.5l-6.2,7.6h-18.2
		c0,0,0-0.1,0-0.1h-9.8c0,0,0,0.1,0,0.1H98.8l-0.4,3.7h5.5c4.2,10.3,7.9,17.9,10.9,23.1c4,6.9,9.5,14,16.6,21.2
		c-6,5.7-13.2,11.1-21.8,16c-10.4,6.1-21.7,10.9-33.7,14.4l1.6,3.4c26-5.8,45.9-15.2,59.9-28.2c10.8,9.8,25.5,18.4,44.1,25.6
		c2.5-4.4,5-7.5,7.5-9.3C169.3,87.1,154.1,79.6,143.3,71.2z M136.8,65.6c-12.2-10.5-21.3-23.3-27.5-38.4h50.4
		C153.1,42.9,145.5,55.7,136.8,65.6z"/>
</g>
</svg>
