<?xml version="1.0" encoding="utf-8"?>
<!-- Generator: Adobe Illustrator 19.0.0, SVG Export Plug-In . SVG Version: 6.00 Build 0)  -->
<svg version="1.1" id="圖層_1" xmlns="http://www.w3.org/2000/svg" xmlns:xlink="http://www.w3.org/1999/xlink" x="0px" y="0px"
	 viewBox="45 -33.8 150 150" style="enable-background:new 45 -33.8 150 150;" xml:space="preserve">
<style type="text/css">
	.st0{enable-background:new    ;}
	.st1{fill:#DC6200;}
</style>
<g class="st0">
	<path class="st1" d="M52.5,45.5l1,3.7H67v1.5c-0.4,22-5.3,39.2-14.7,51.6l3,2.3c13.3-12.4,20.2-30.9,20.9-55.4h16.2v-3.7H52.5z"/>
	<path d="M107.2-23.3c0-2.2-4.9-3.4-14.8-3.6v42.8H71.8V-15c3.9-1.5,5.9-2.9,5.9-4.2c0-2.1-4.8-3.4-14.4-3.9v52.6h8.6v-9.9h20.6
		v25.9h-0.1v3.7h0.1v54.1h8.6V-18.6C105.1-20.3,107.2-21.8,107.2-23.3z"/>
	<path d="M185.8,24.9l1.5-3.1c-2.5-3.6-5.7-7.5-9.4-11.6l-7.5,11h-22.1v-38.8c4.4-1.7,6.6-3.2,6.6-4.4c0-2.1-5.1-3.4-15.3-3.9v47.1
		h-35.8l1.5,3.7h34.4v65.3h-33.8l1.5,3.7h75l1.7-3c-3.9-5-7.3-8.9-10-11.5l-7.8,10.8h-17.7V24.9H185.8z"/>
</g>
</svg>
