<?xml version="1.0" encoding="utf-8"?>
<!-- Generator: Adobe Illustrator 19.0.0, SVG Export Plug-In . SVG Version: 6.00 Build 0)  -->
<svg version="1.1" id="圖層_1" xmlns="http://www.w3.org/2000/svg" xmlns:xlink="http://www.w3.org/1999/xlink" x="0px" y="0px"
	 viewBox="45 -33.8 150 150" style="enable-background:new 45 -33.8 150 150;" xml:space="preserve">
<style type="text/css">
	.st0{enable-background:new    ;}
	.st1{fill:#DC6200;}
</style>
<g class="st0">
	<path d="M98,73c5.4,3.6,9,7.6,10.8,12c1.1,2.6,2.7,3.9,4.7,3.9c2.8,0,4.2-1.5,4.2-4.6c0-5.2-6-10-17.9-14.4
		c0.6-1.3,1.4-3.1,2.4-5.6c4.1-0.6,6.2-1.5,6.2-2.7c0-2-4.1-3.7-12.4-5.3c-3.5,13.4-9.7,23.9-18.6,31.5l2.4,2.4
		C87.7,85.5,93.7,79.8,98,73z"/>
	<path d="M150.3,18.6c0-1.9-4.2-3.8-12.5-5.7c-3.8,13.6-9.9,24.3-18.5,31.9l2.4,2.4c7.5-4.6,13.5-10.5,17.9-17.6
		c5.2,3.3,9.3,7.8,12.3,13.6c0.9,1.7,2.3,2.6,4,2.6c3,0,4.5-1.6,4.5-4.8c0-5.5-6.4-10.2-19.2-14.3c0.9-1.6,1.8-3.6,2.7-5.9
		C148.3,20.5,150.3,19.7,150.3,18.6z"/>
	<path d="M176.5-3.5l-7.8,10.1H127V-9.7h45l1.6-2.7c-3.2-4.4-6.6-8-10.2-10.9l-7.6,9.9H127v-8.3c4.2-1.5,6.4-2.9,6.4-4.2
		c0-2.2-4.9-3.4-14.8-3.6v36H91.4v-22.4c4.4-1.7,6.6-3.1,6.6-4.5c0-2.1-5-3.3-14.9-3.4V6.6H53.3l1.2,3.7h130.8l1.7-2.9
		C183.3,3,179.9-0.7,176.5-3.5z"/>
	<path d="M139.8,72.7c5.9,3.8,9.8,8,11.7,12.5c1,2.5,2.6,3.7,4.6,3.7c2.9,0,4.4-1.6,4.4-4.9c0-5.5-6.3-10.2-19-14.3
		c0.1-0.2,1-2.1,2.6-5.4c4.1-0.4,6.2-1.3,6.2-2.7c0-1.7-4.1-3.5-12.2-5.5c-3.6,13.6-9.8,24.2-18.6,31.6l2.4,2.4
		C129.4,85.6,135.4,79.8,139.8,72.7z"/>
	<path class="st1" d="M166.1,13.6v36.3H166v3.7h0.1v38.5H72.5V53.7h0v-3.7h0V20.3c4.1-1.4,6.2-2.7,6.2-3.9c0-2.2-4.9-3.4-14.7-3.6
		v92.4h8.6v-9.3h93.6v9.3h8.6V21.9c4.2-1.5,6.3-2.9,6.3-4.2C180.9,15.1,176,13.7,166.1,13.6z"/>
	<rect x="72.5" y="49.9" width="93.5" height="3.7"/>
	<path d="M107.7,18.7c0-1.7-4-3.6-11.9-5.7C92.1,26.5,86,37.1,77.4,44.8l2.4,2.4c7.8-4.7,13.7-10.5,17.9-17.4
		c5.3,3.5,9,7.6,11.1,12.3c1,2.4,2.5,3.6,4.3,3.6c2.9,0,4.4-1.6,4.4-4.8c0-5.4-5.9-10.1-17.6-14l-0.7-0.1c1.5-3.1,2.3-5,2.6-5.6
		C105.7,20.7,107.7,19.9,107.7,18.7z"/>
</g>
</svg>
