<?xml version="1.0" encoding="utf-8"?>
<!-- Generator: Adobe Illustrator 19.0.0, SVG Export Plug-In . SVG Version: 6.00 Build 0)  -->
<svg version="1.1" id="圖層_1" xmlns="http://www.w3.org/2000/svg" xmlns:xlink="http://www.w3.org/1999/xlink" x="0px" y="0px"
	 viewBox="45 -33.8 150 150" style="enable-background:new 45 -33.8 150 150;" xml:space="preserve">
<style type="text/css">
	.st0{enable-background:new    ;}
	.st1{fill:#DC6200;}
</style>
<g class="st0">
	<path d="M178.2,85.6c-6.9-8.8-17.3-17.4-31.1-25.6l-2.3,2.7c8.1,7,14.7,13.9,19.8,20.7c-15.7,1.4-29.6,2.4-41.7,3.1v-0.2l-9.2,0.5
		v0.1l-8.6,0.7c-11.4,0.7-27.4,1.2-48,1.5c1.8,9.5,3.8,14.3,6,14.3c1.2,0,2.3-1.9,3.3-5.6c32.2-2.3,64.1-5.6,95.7-9.7l5.3-0.7
		c3.3,5,5.8,9.7,7.5,14.2c0.7,2.1,2.1,3.1,4.2,3.1c3.5,0,5.3-1.9,5.3-5.7C184.5,95.4,182.4,91,178.2,85.6z"/>
	<path class="st1" d="M123,48.5h37.4v9.7h8.7V11.6l3.9-2.6c0.9-0.6,1.4-1.2,1.4-1.8c0-1.2-3.2-4.2-9.5-9.2l-6,6.9H123v-24.3
		c4.7-1.5,7-3,7-4.3c0-2.4-5.4-3.7-16.2-3.9V5H79.2c-3.3-1.9-6.6-3.5-10-5v60.6H78V48.5h35.8v38.2l9.2-0.5V48.5z M123,8.8h37.4v36
		H123V8.8z M113.8,44.8H78v-36h35.8V44.8z"/>
</g>
</svg>
