<?xml version="1.0" encoding="utf-8"?>
<!-- Generator: Adobe Illustrator 19.0.0, SVG Export Plug-In . SVG Version: 6.00 Build 0)  -->
<svg version="1.1" id="圖層_1" xmlns="http://www.w3.org/2000/svg" xmlns:xlink="http://www.w3.org/1999/xlink" x="0px" y="0px"
	 viewBox="45 -33.8 150 150" style="enable-background:new 45 -33.8 150 150;" xml:space="preserve">
<style type="text/css">
	.st0{enable-background:new    ;}
	.st1{fill:#DC6200;}
</style>
<g class="st0">
	<path class="st1" d="M178.6,86.8l-5.2,0.3c-10.4,0.9-25.7,1.4-45.8,1.4c-27.6,0-43.1-0.2-46.5-0.7c-2.9-0.5-4.3-2.7-4.3-6.6V9.1
		h-9.3v73.4c0,5.9,1.3,9.8,4,11.6c2.9,1.8,20.9,2.7,54.1,2.7c33,0,51.3-0.3,55.1-0.9c2.1-0.5,3.1-1.6,3.1-3.2
		C183.9,88.7,182.1,86.8,178.6,86.8z"/>
	<path d="M76.8,9.1h104.7l1.8-2.9c-3.2-3.8-6.9-7.6-11.1-11.5l-8.2,10.6h-39.6v-24.2c4.7-1.7,7-3.2,7-4.6c0-2.4-5.3-3.6-16-3.6V5.3
		H77.1c-1.9-1-5.1-2.4-9.6-4.2v7.9L76.8,9.1L76.8,9.1z"/>
</g>
</svg>
