<?xml version="1.0" encoding="utf-8"?>
<!-- Generator: Adobe Illustrator 19.0.0, SVG Export Plug-In . SVG Version: 6.00 Build 0)  -->
<svg version="1.1" id="圖層_1" xmlns="http://www.w3.org/2000/svg" xmlns:xlink="http://www.w3.org/1999/xlink" x="0px" y="0px"
	 viewBox="45 -33.8 150 150" style="enable-background:new 45 -33.8 150 150;" xml:space="preserve">
<style type="text/css">
	.st0{enable-background:new    ;}
	.st1{fill:#DC6200;}
</style>
<g class="st0">
	<path class="st1" d="M58.5,46.9c5.6,0,8.4-7.3,8.4-22c0-5.5-0.7-12.6-2.1-21.2l-4-0.4c-0.1,15.6-2.1,27.1-6,34.4
		c-0.9,1.7-1.3,3.1-1.3,4.3C53.6,45.3,55.2,46.9,58.5,46.9z"/>
	<path class="st1" d="M103.2,79c0-8.1-6.5-17.3-19.5-27.6c0.5-4.8,0.7-9.5,0.7-13.9v-9.2c7.5-7.8,14-16.1,19.7-24.9
		c4.3,0,6.4-0.7,6.4-2c0-1.9-3.8-5-11.4-9.2c-4.3,11.8-9.2,22-14.7,30.5v-43.5c4.1-1.7,6.2-3.1,6.2-4.2c0-2.2-4.9-3.4-14.6-3.6v65.7
		c0,27.2-7.9,48.5-23.6,63.7l2.7,2.9C70.4,92,79.7,76.3,83,56.7c5.1,7.6,8.6,14.9,10.5,21.9c1.1,4.2,2.7,6.3,4.8,6.3
		C101.6,84.9,103.2,82.9,103.2,79z"/>
	<path d="M177.8,81.1L170,92.2h-23.2V27.7h34.4l1.6-2.9c-4-5.2-7.2-9.1-9.6-11.6l-7.3,10.8h-19v-41.4c4.4-1.5,6.6-3,6.6-4.4
		c0-2.4-5.2-3.6-15.5-3.6v49.4h-34l1.8,3.7h32.2v64.5H97.1l1.7,3.7h87l2-3.3C184.6,88.5,181.3,84.6,177.8,81.1z"/>
</g>
</svg>
