<?xml version="1.0" encoding="utf-8"?>
<!-- Generator: Adobe Illustrator 19.0.0, SVG Export Plug-In . SVG Version: 6.00 Build 0)  -->
<svg version="1.1" id="圖層_1" xmlns="http://www.w3.org/2000/svg" xmlns:xlink="http://www.w3.org/1999/xlink" x="0px" y="0px"
	 viewBox="45 -33.8 150 150" style="enable-background:new 45 -33.8 150 150;" xml:space="preserve">
<style type="text/css">
	.st0{enable-background:new    ;}
	.st1{fill:#DC6200;}
</style>
<g class="st0">
	<path class="st1" d="M143.2,3.3c1.4,16.8,4.8,32.3,10.3,46.4c-8.2,13.2-17.7,24.4-28.6,33.6l2.3,2.8c11.9-7.7,21.9-17.2,29.9-28.6
		c7.8,17.1,15.2,25.7,22,25.7c2.9,0,4.8-1.7,5.9-5.1c-1.9-1.5-2.9-3.7-2.9-6.7c0-3,0.9-9.7,2.6-20.1l-3.8-2.2
		c-2.7,13.5-4.9,20.3-6.7,20.3c-0.5,0-1.4-0.9-2.7-2.6c-3.8-5.4-7-11.2-9.6-17.6c5.9-9.8,10.3-19.1,13.4-27.9
		c3.9-0.3,5.8-1.1,5.8-2.4c0-1.8-3.9-4.2-11.6-7.3c-3.1,11-6.7,20.7-11,29.2c-3.6-10.4-6-23-7.2-37.9h33.3l1.6-3.1
		c-2.2-3-4.7-5.9-7.5-8.6L173.4-1h-22.5c-0.3-3.8-0.6-10.9-0.7-21.3c3.4-1.3,5.1-2.6,5.1-3.9c0-2.1-4.5-3.3-13.5-3.6
		c0.1,11.7,0.5,21.5,1,29.3h-14.4c0,0,0,0,0,0l-1.5,3.8H143.2z"/>
	<path class="st1" d="M171.1-9.3c3.3,0,5-1.7,5-5.1c0-5.4-4.7-10.4-14-15.1l-2.1,2.2c3.9,3.8,6.2,8,6.8,12.7
		C167.2-11.1,168.7-9.3,171.1-9.3z"/>
	<path d="M111.6,77.7c1.2,0,2-2,2.3-6c10.5-4.8,21.3-11.4,32.5-19.6l-1.2-3.5c-5.4,3.3-11.4,6.4-18,9.2l-0.7,0.5V3.3h0.4l1.5-3.8
		c-5.2-2.3-8.6-3.7-10.2-4.2v66.2c-1.1,0.4-5.7,2-13.8,4.8C107.4,73.9,109.8,77.7,111.6,77.7z"/>
	<path d="M148.6,92.8c-28.4,0-48.2-3.4-59.5-10.2V53.4h21.8l1.6-3c-2.8-3.6-5.7-6.9-8.5-9.9l-6.6,9.2h-8.3V26.9h25.2l1.7-3
		c-2.1-3.3-4.9-6.8-8.4-10.3l-6.4,9.6h-12V0.7H111l1.8-3c-2.4-3.6-5.2-7-8.3-10L98.2-3h-9.2v-17.9c4-1.6,6-3,6-4.2
		c0-2.1-4.7-3.1-14.1-3.3V-3H57.5l1.5,3.7H81v22.5H53.2l1.3,3.7H81V76c-5.5-5.5-9.5-12.3-11.9-20.4c0.2-2.4,0.4-5.9,0.6-10.5
		c3.7-1,5.6-2.1,5.6-3.1c0-2.1-4.6-3.6-13.8-4.6c-0.1,27.5-4.2,49.4-12,65.7l3.3,1.9c7.8-11.5,12.9-25,15.3-40.5
		c3.7,11.1,9.5,19.3,17.3,24.5c12.4,8.2,33.3,12.3,62.7,12.3h35.1c1.4-3.9,3.2-7.3,5.6-10C171.9,92.2,158.5,92.8,148.6,92.8z"/>
</g>
</svg>
