<?xml version="1.0" encoding="utf-8"?>
<!-- Generator: Adobe Illustrator 19.0.0, SVG Export Plug-In . SVG Version: 6.00 Build 0)  -->
<svg version="1.1" id="圖層_1" xmlns="http://www.w3.org/2000/svg" xmlns:xlink="http://www.w3.org/1999/xlink" x="0px" y="0px"
	 viewBox="45 -33.8 150 150" style="enable-background:new 45 -33.8 150 150;" xml:space="preserve">
<style type="text/css">
	.st0{enable-background:new    ;}
	.st1{fill:#DC6200;}
</style>
<g class="st0">
	<path class="st1" d="M183.4-12.8l1.8-3.1c-2.5-2.8-6.3-6.6-11.4-11.4L165-16.6H54.6l1.5,3.7h57.3c-1.6,9.2-4.2,18.6-7.8,28.2h5.1
		c4.9-7.1,10-16.5,15.3-28.2H183.4z"/>
	<path d="M105.6,15.4H84c-3.1-1.8-6.5-3.5-10.3-5.1v94.6h9.2V94.5h73.8v10.5h9.2V22.3l2.9-2.6c1.2-1,1.8-1.9,1.8-2.6
		c0-1.2-3.1-4.1-9.3-8.9l-5.8,7.1h-44.6c0,0,0,0,0,0L105.6,15.4C105.6,15.4,105.6,15.4,105.6,15.4z M156.6,90.7H82.8V54.8h73.8V90.7
		z M156.6,19.2v31.9H82.8V19.2H156.6z"/>
</g>
</svg>
