<?xml version="1.0" encoding="utf-8"?>
<!-- Generator: Adobe Illustrator 19.0.0, SVG Export Plug-In . SVG Version: 6.00 Build 0)  -->
<svg version="1.1" id="圖層_1" xmlns="http://www.w3.org/2000/svg" xmlns:xlink="http://www.w3.org/1999/xlink" x="0px" y="0px"
	 viewBox="45 -33.8 150 150" style="enable-background:new 45 -33.8 150 150;" xml:space="preserve">
<style type="text/css">
	.st0{enable-background:new    ;}
	.st1{fill:#DC6200;}
</style>
<g class="st0">
	<path class="st1" d="M131.8,34.3c0,4.5-0.2,8.4-0.6,11.4H110V21.2c4.1-1.5,6.2-2.9,6.2-4.2c0-2.1-4.9-3.3-14.6-3.4v48.2h8.4V49.4
		h20.8c-1.2,7.9-3.6,14.5-7.2,19.9c-3.7,5.6-9.4,10.8-16.9,15.5l2.1,3.1c9.1-4.6,15.8-9.4,20.2-14.4c5.4-6.1,8.9-14.1,10.5-24.2
		h22.9v12.4h8.4V21.4c4-1.5,6-2.9,6-4.2c0-2.1-4.8-3.4-14.4-3.9v32.4h-22.5c0.5-5.2,0.7-10.4,0.7-15.7V4.3h-8.9V34.3z"/>
	<path d="M117.4-7.1c0.9,3.7,2.6,5.6,5.1,5.6c3.7,0,5.6-1.9,5.6-5.7c0-7.1-6.7-14.1-20.2-20.9l-2.6,2.9
		C111.7-19.7,115.7-13.6,117.4-7.1z"/>
	<path d="M131.8,4.3L131.8,4.3l8.9,0v0h43.1l1.5-2.7c-2.8-3.4-6.1-6.8-9.7-10l-7.3,9h-21.5c6.3-7.8,10.9-14.3,13.9-19.5
		c4.5-0.5,6.8-1.4,6.8-2.7c0-2.1-4.7-4.7-14.1-7.7C150.2-18,146.3-8,141.8,0.6H90.4l1.7,3.7H131.8z"/>
	<path d="M142.9,93.1c-32.1,0-52.1-5.8-60-17.3V50.4l3.4-2.3c0.9-0.6,1.4-1.2,1.4-1.8c0-1.3-3-4.3-8.9-9.2l-5.6,6.9H52.8l1.7,3.7
		h20.1v32.9c-6.5,4.5-13.7,8.4-21.8,11.8c4,7.8,6.8,11.7,8.6,11.7c1.2,0,1.9-2,2.1-6c6.2-5.1,12-10.8,17.6-17.2
		c4.6,7.2,11.7,12.4,21.3,15.5c10.2,3.2,26.7,4.8,49.5,4.8h31.5c0.8-4,2.3-7.5,4.5-10.6C170.3,92.3,155.4,93.1,142.9,93.1z"/>
	<path d="M72,22.3c1.2,3.1,2.8,4.6,4.9,4.6c3.3,0,5-1.9,5-5.6c0-7-7.4-13.5-22.3-19.3l-1.9,3C64.6,10,69.4,15.7,72,22.3z"/>
	<path d="M78.9-6.5c1.3,3.1,3,4.6,5.1,4.6c3.3,0,5-1.9,5-5.7c0-7.1-7.8-13.3-23.4-18.8l-2,3C71.1-18.4,76.3-12.8,78.9-6.5z"/>
</g>
</svg>
