<?xml version="1.0" encoding="utf-8"?>
<!-- Generator: Adobe Illustrator 19.0.0, SVG Export Plug-In . SVG Version: 6.00 Build 0)  -->
<svg version="1.1" id="圖層_1" xmlns="http://www.w3.org/2000/svg" xmlns:xlink="http://www.w3.org/1999/xlink" x="0px" y="0px"
	 viewBox="45 -33.8 150 150" style="enable-background:new 45 -33.8 150 150;" xml:space="preserve">
<style type="text/css">
	.st0{enable-background:new    ;}
	.st1{fill:#DC6200;}
</style>
<g class="st0">
	<path d="M83.9-20.2c3.6-0.1,5.4-0.8,5.4-1.9c0-1.9-3.7-4.1-11-6.7C72.3-13,63.4,1.2,51.6,14l2.6,2.6C67,5.9,76.9-6.4,83.9-20.2z"/>
	<path class="st1" d="M121.1-3.5h18.8l1.7-3.1c-3.9-4.4-6.7-7.5-8.6-9.3l-6,8.7h-21.1c1.2-3.3,2.5-7.7,3.8-13c3.7-1,5.6-2.1,5.6-3.1
		c0-2-4.5-3.8-13.4-5.4c-2.2,18.5-6.5,33.7-12.9,45.6l3,2c5.1-6.5,9.3-13.9,12.5-22.3h8.4v0L121.1-3.5L121.1-3.5z"/>
	<path d="M75.8,32.3c3.7-6.6,7.1-13.9,10.3-21.9c3.5-0.8,5.3-1.7,5.3-2.7c0-1.7-3.7-3.8-11.1-6.2C73,24.7,62.9,44.4,50.1,60.7
		l2.9,2.6c5.8-6,11-12.5,15.7-19.6v61.5h8.1v-66c3.7-1,5.6-2.2,5.6-3.6C82.4,34.2,80.2,33.1,75.8,32.3z"/>
	<path d="M178.6-21.6l-5.2,6.4h-17.9l-0.9-0.4c-2-1.1-4.7-2.3-8.1-3.6v124.4h8.4V-11.4h19.7v77.6c0,3.1-1.4,4.6-4.2,4.6
		c-3.2,0-6.9-0.2-11.1-0.7v3.7c7.4,1.4,11.1,4.1,10.9,8.1c8.3,0,12.5-4,12.5-12V-8.3l3.4-2.3c1-0.7,1.5-1.4,1.5-2.1
		C187.7-14,184.6-17,178.6-21.6z"/>
	<path d="M129.7,22.9h-8.6V-3.5h-8.3v26.4H86.6l1.6,3.7h24.6v54.1l-3,0.8c-5.1,1-7.8,1.6-8.3,1.6V48.7c3.8-1.5,5.7-2.9,5.7-4
		c0-2-4.5-3.1-13.5-3.6v43.7c-0.5,0-1.6,0.2-3.3,0.4c-3,0.5-5.2,0.8-6.6,1c2.8,8.5,5.2,12.7,7,12.7c1.2,0,2.1-1.8,2.7-5.3
		c16.2-4.5,32.7-10.1,49.5-16.8l-0.6-3.9c-9.6,3-16.8,5-21.5,6V51h19.8l1.7-2.9c-2.4-3.1-5.1-6.1-7.8-8.9l-6.2,8h-7.5V26.6h22
		l1.7-3.1c-2.1-3-5-6.3-8.4-9.9L129.7,22.9z"/>
</g>
</svg>
