<?xml version="1.0" encoding="utf-8"?>
<!-- Generator: Adobe Illustrator 19.0.0, SVG Export Plug-In . SVG Version: 6.00 Build 0)  -->
<svg version="1.1" id="圖層_1" xmlns="http://www.w3.org/2000/svg" xmlns:xlink="http://www.w3.org/1999/xlink" x="0px" y="0px"
	 viewBox="45 -33.8 150 150" style="enable-background:new 45 -33.8 150 150;" xml:space="preserve">
<style type="text/css">
	.st0{enable-background:new    ;}
	.st1{fill:#DC6200;}
</style>
<g class="st0">
	<path d="M120.4,13.5h54.7v7.2h8.4V-12l4-3c0.5-0.5,0.8-0.9,0.8-1.2c0-1.5-3.1-4.4-9.2-8.9l-5.6,6.6h-51.7c-3.3-1.7-6.5-3.2-9.7-4.5
		v44.2h8.3V13.5z M161.6-14.7h13.5V9.7h-13.5V-14.7z M141-14.7h12.6V9.7H141V-14.7z M120.4-14.7h12.5V9.7h-12.5V-14.7z"/>
	<path d="M59.9,72.6c-0.3,10-2.9,17.6-7.8,22.8c-1.4,1.4-2.1,2.8-2.1,4.2c0,3.3,1.7,5,5.2,5c2.3,0,4.2-1.4,5.9-4.2
		c2.4-4.1,3.7-9.5,3.7-16.3c0-2.8-0.4-6.5-1.2-11.1L59.9,72.6z"/>
	<path class="st1" d="M128.1,55.1c1.3,3.1,3.1,4.6,5.5,4.6c2.7,0,4.1-1.8,4.1-5.3c0-2.9-1.5-6-4.5-9.3c-4.7-5.3-12-10.4-21.9-15.5
		l-2.1,2.6C118.2,39.5,124.5,47.1,128.1,55.1z"/>
	<path class="st1" d="M143,17.2v88h8.4V24.7c3.8-1.4,5.6-2.7,5.6-3.9C157.1,18.8,152.4,17.6,143,17.2z"/>
	<path class="st1" d="M183.4,79.1c-5.7-6.3-16.4-11.2-26.6-16.3l-2.1,2.6c9.8,7.9,19.5,14.6,23.5,23.5c1.5,3.5,3.5,5.3,5.9,5.3
		c3,0,4.5-1.9,4.5-5.6C188.6,85.4,186.9,82.9,183.4,79.1z"/>
	<path class="st1" d="M176.3,27.2c-5.5,12-12.7,22.1-21.6,30.3l2.2,2.2c9.9-6,18.1-13.9,24.6-23.5c0.6,0.1,1.2,0.1,2.1,0.1
		c2.2,0,3.3-0.5,3.3-1.5C186.9,33,183.4,30.5,176.3,27.2z"/>
	<path d="M94.9,64h7.6V12.3l2.9-2.1c0.9-0.7,1.3-1.3,1.3-1.8c0-1.5-2.6-4.2-7.9-8.1l-5.1,6.2h-9.5c4.8-6.5,8.8-12.9,11.8-19l3.6-1.5
		c1.2-0.4,1.8-1,1.8-1.8c0-1.7-2.9-4.7-8.6-9l-5.4,6.6H75.5c0.2-0.5,0.8-2,1.7-4.5c3.8-1.1,5.6-2.2,5.6-3.3c0-1.9-4.4-3.2-13.3-3.8
		C65.8-12.5,58.9,4.3,49,20.5l3,2.1c2.2-2.8,5-6.5,8.3-11.1v56h7.6v-6.3h27V64z M77.3,57.4h-9.4V34.9h9.4V57.4z M77.3,31.2h-9.4v-21
		h9.4V31.2z M69.2,6.4c-1.7-1-3.1-1.7-4.3-2.3c3.7-6.5,6.8-12.8,9.3-18.8h13.3c-2.1,8-4.6,15-7.5,21H69.2z M84.8,10.2h10.1v21H84.8
		V10.2z M84.8,57.4V34.9h10.1v22.5H84.8z"/>
	<path d="M69.9,73.1c1.2,5.1,1.8,9.6,1.8,13.4c0,3.5-0.3,6.7-1,9.6c-0.3,1.7-0.4,2.6-0.4,2.7c0,2.5,1.5,3.7,4.6,3.7
		c3.5,0,5.3-2.8,5.3-8.4c0-6.3-2.3-13.6-7-21.8L69.9,73.1z"/>
	<path d="M108.9,84.4c0-5.5-4.6-11.1-13.8-17l-1.8,2.3c4,4.7,6.3,9.4,7,14c0.6,3.4,1.8,5.1,3.7,5.1
		C107.3,88.8,108.9,87.4,108.9,84.4z"/>
	<path d="M82.2,71.1c3.3,6.7,5,12.5,5,17.2L87,92.6c0,2.4,1.3,3.7,3.9,3.7c3.1,0,4.7-2,4.7-6c0-6.3-3.6-13.2-10.7-20.6L82.2,71.1z"
		/>
</g>
<g>
	<path class="st1" d="M109.8,81.2c3.1,7.6,5.5,11.4,7,11.4c1.2,0,2-1.8,2.4-5.5c7.8-4.5,21.8-16.3,26.3-21.5v-5.2
		C138.5,67.4,121.3,77.2,109.8,81.2z"/>
</g>
</svg>
