<?xml version="1.0" encoding="utf-8"?>
<!-- Generator: Adobe Illustrator 19.0.0, SVG Export Plug-In . SVG Version: 6.00 Build 0)  -->
<svg version="1.1" id="圖層_1" xmlns="http://www.w3.org/2000/svg" xmlns:xlink="http://www.w3.org/1999/xlink" x="0px" y="0px"
	 viewBox="45 -33.8 150 150" style="enable-background:new 45 -33.8 150 150;" xml:space="preserve">
<style type="text/css">
	.st0{enable-background:new    ;}
	.st1{fill:#DC6200;}
</style>
<g class="st0">
	<path d="M176.8,75.3V54.5l3-2.3c0.8-0.6,1.2-1.2,1.2-1.8c0-1.3-2.7-3.8-8.2-7.5l-4.9,5.6h-38.2c-2.9-1.7-5.9-3.1-8.9-4.2v31.8h7.8
		v-5.9h40.5v5H176.8z M128.6,66.6V52.3h40.5v14.3H128.6z"/>
	<path d="M128.4,77.7c3.8,4.5,5.9,9.5,6.3,15c0.1,2.3,1.3,3.4,3.6,3.4c3.5,0,5.3-1.7,5.3-5.1c0-6-4.4-11.1-13.3-15.5L128.4,77.7z"/>
	<path d="M181.1,87.7l-7,9h-15.6c3.9-5,6.7-9.4,8.6-13.2c3.6,0,5.4-0.7,5.4-2c0-1.8-4.2-4-12.5-6.6c-2,10-4,17.2-5.9,21.8h-46.5
		l1.7,3.7h78.4l1.8-3C187.2,94.1,184.4,90.9,181.1,87.7z"/>
	<path d="M125.6,21.4h46.3v4.5h7.6V-8l3.6-2.3c0.6-0.4,0.9-0.9,0.9-1.3c0-1.4-2.7-4.2-8.1-8.4l-4.8,6h-10.3v-7.6
		c3.7-1.4,5.6-2.7,5.6-4c0-1.9-4.3-3-12.9-3.4v15h-10.4v-7.6c3.7-1.4,5.6-2.7,5.6-4c0-1.9-4.3-3-12.9-3.3V-14h-9
		c-2.2-1.3-5.2-2.9-8.9-4.6v45.8h7.6V21.4z M160.9-10.3h11V1.6h-11V-10.3z M160.9,5.3h11v12.3h-11V5.3z M143.2-10.3h10.4V1.6h-10.4
		V-10.3z M143.2,5.3h10.4v12.3h-10.4V5.3z M125.6-10.3h10.3V1.6h-10.3V-10.3z M125.6,5.3h10.3v12.3h-10.3V5.3z"/>
	<path d="M188.6,34.8c-2.9-2.9-6-5.5-9.2-7.6l-6.9,6.7h-62.7l1.5,3.7h75.4L188.6,34.8z"/>
	<path class="st1" d="M71.7-16.3H95v12.7h-7.1C83.4-6,80.6-7.5,79.5-8v26.6h7.3V0.1H95v18.4h7.5v-33l3.6-2.3
		c0.5-0.3,0.7-0.7,0.7-1.2c0-1.4-2.5-4.2-7.5-8.4L94.1-20H72.9c-3-1.8-6-3.3-8.9-4.7v43.3h7.6V-16.3z"/>
	<path d="M111.1,24.3l4.3-1.2c0.7-0.1,1-0.5,1-1.2c0-1.4-2.5-4.5-7.5-9.2l-4.3,5.9h-2.3v0H95v0h-8.1v0h-7.3v0h-7.8v0H64v0h-4.3
		c-0.1-1.1-0.4-2.4-0.7-3.9l-3.5-0.4C55.3,22.8,53.5,29,50,33c-1.2,1.3-1.8,2.6-1.8,3.9c0,2.8,1.7,4.2,5,4.2c4.9,0,7.3-4.8,7.3-14.4
		c0-1.8,0-3.2-0.1-4.3h44.4c-0.7,2.8-1.6,5.7-2.9,8.7c-0.2-0.1-0.5-0.3-0.9-0.7c-0.5-0.5-1.1-1-1.5-1.4l-4.9,5.9H72.7
		c-4-2.2-7.1-3.7-9.4-4.5v74.9h8V72.9h23.8v16.3c0,2.9-1.5,4.4-4.4,4.4c-4.1,0-8.2-0.4-12.2-1.1v3.6c3.8,0.7,6.7,1.5,8.8,2.4
		c2.1,1,3.1,2.9,3.3,5.6c4.3,0,7.5-0.9,9.4-2.7c1.9-1.6,2.9-4.5,2.9-8.6V40.5l3.1-2.1c0.7-0.4,1-0.9,1-1.5c0-0.5-0.8-1.6-2.5-3.3
		C106.4,31.4,108.6,28.3,111.1,24.3z M95.1,69.1H71.3V54.8h23.8V69.1z M95.1,51.1H71.3V38.5h23.8V51.1z"/>
</g>
</svg>
