<?xml version="1.0" encoding="utf-8"?>
<!-- Generator: Adobe Illustrator 19.0.0, SVG Export Plug-In . SVG Version: 6.00 Build 0)  -->
<svg version="1.1" id="圖層_1" xmlns="http://www.w3.org/2000/svg" xmlns:xlink="http://www.w3.org/1999/xlink" x="0px" y="0px"
	 viewBox="45 -33.8 150 150" style="enable-background:new 45 -33.8 150 150;" xml:space="preserve">
<style type="text/css">
	.st0{enable-background:new    ;}
	.st1{fill:#DC6200;}
</style>
<g class="st0">
	<path d="M119.1-10.5l-5.4,7H89.4c1.1-3.6,2.4-8.8,3.9-15.6c4.2-1.2,6.3-2.4,6.3-3.6c0-2-4.7-3.9-14.2-5.7
		C79.6,6.3,68.5,34.3,51.9,55.3l2.9,2.3c8.6-8.2,16-18,22-29.5c7.7,7,12.6,13.3,14.7,18.8c0.9,2.5,2.4,3.7,4.5,3.7
		c1.5,0,2.7-0.4,3.4-1.2c-1.8,3.7-3.4,6.8-4.9,9.3C85,75.2,71.2,89.7,53.1,102l2.6,3.1C75,94.6,90.3,80.5,101.4,62.8
		c10.4-16.5,17.8-36.3,22.2-59.4l3.4-2c0.9-0.5,1.3-1.1,1.3-1.6C128.3-1.8,125.3-5.2,119.1-10.5z M100.7,46.9
		c0.1-0.3,0.1-0.8,0.1-1.5c0-6.2-7.5-13-22.4-20.4c4-8,7.2-16.2,9.8-24.8h26.5C111.5,18.3,106.8,33.8,100.7,46.9z"/>
	<path class="st1" d="M179.9,41.1c-7.3-6-18.4-11.8-33.3-17.4v-41.2c4.6-1.3,6.9-2.7,6.9-4.2c0-2.4-5.3-3.7-15.9-3.9v128.7h9V28
		c13.8,8.1,24.1,16.9,31.1,26.4c1.4,2,3,3,4.8,3c3.3,0,5-1.8,5-5.3C187.5,48.9,184.9,45.2,179.9,41.1z"/>
</g>
</svg>
