<?xml version="1.0" encoding="utf-8"?>
<!-- Generator: Adobe Illustrator 19.0.0, SVG Export Plug-In . SVG Version: 6.00 Build 0)  -->
<svg version="1.1" id="圖層_1" xmlns="http://www.w3.org/2000/svg" xmlns:xlink="http://www.w3.org/1999/xlink" x="0px" y="0px"
	 viewBox="45 -33.8 150 150" style="enable-background:new 45 -33.8 150 150;" xml:space="preserve">
<style type="text/css">
	.st0{enable-background:new    ;}
	.st1{fill:#DC6200;}
</style>
<g class="st0">
	<path d="M90.6,74.5l3.4,1.3c4.1-7.5,7.4-15.4,10-23.7c3.2-0.6,4.8-1.4,4.8-2.5c0-2-4-4.1-12-6.2C95.6,54.6,93.5,64.9,90.6,74.5z"/>
	<path d="M65.1,79.3c3.4,0,5.1-2.3,5.1-6.9c0-8.1-4.2-16.9-12.5-26.4L55,47.8c4.2,7.6,6.4,16,6.6,25C61.6,77.2,62.7,79.3,65.1,79.3z
		"/>
	<path d="M106.4,73c-6.9,3.1-14,5.9-21.3,8.4V37.9h22l1.7-2.6c-2.9-4.1-5.7-7.4-8.4-10.2l-6.3,9.2h-9v-21h14.7l1.6-2.9
		c-2.4-3.1-5.1-6-8.1-8.5l-5.3,7.6H67.2c6.5-8.7,11.6-17.7,15.3-26.9l0.6-1.5c8.6,7.7,14.7,15.1,18.2,22c1.5,3.1,3,4.6,4.7,4.6
		c3,0,4.5-1.7,4.5-5c0-2.2-1.1-4.7-3.3-7.5c-4.4-5.9-11.5-11.6-21-17.1l-1.2-0.7c3.4-1,5.1-2,5.1-2.9c0-1.9-4.4-3.5-13.1-4.8
		C71.4-9.9,62.5,7.8,50.1,23.2l2.9,2.6c4.1-3.9,7.8-8.1,11.4-12.5h12.2v21H53.6l1.5,3.6h21.5v46.4l-1.6,0.6c-6.4,2-13.7,4-21.8,5.9
		c2.2,8,4.3,12,6.3,12c1.1,0,2.1-1.9,2.8-5.7c15.4-5.4,30.5-12.2,45.3-20.4L106.4,73z"/>
	<path class="st1" d="M163.9,60c6-4.2,11.6-9.2,17.1-14.7c0.7,0.1,1.5,0.1,2.4,0.1c2.1,0,3.1-0.5,3.1-1.5c0-2-3.3-5-9.9-9
		c-4.3,8.1-9.3,15.3-15,21.8c-4.8-8.1-8.4-17.6-10.7-28.4h-9.3v33.7c-11.1,6.7-22.6,12.1-34.4,16.2c3.1,7.6,5.5,11.4,7,11.4
		c1.2,0,2-1.8,2.4-5.5c8-4.6,16.3-10.3,24.9-17v20.9c0,3.3-1.8,4.9-5.3,4.9c-4.3,0-9.7-0.4-16.3-1.2v4c5.4,0.7,9.3,1.6,11.7,2.6
		c2.7,1,4.2,3.1,4.3,6.3c9.2,0,13.8-3.7,13.8-11.1V38.6c4.6,22.7,15.3,40.7,32.1,54.1c1.6-3.3,4.1-6.3,7.4-8.8
		C178.4,77,169.9,68.9,163.9,60z"/>
	<path d="M150.9,28.2h34.5l1.7-2.7c-3.4-4.3-6.5-7.8-9.3-10.4l-6.9,9.4h-10c2.5-9.8,4.8-20.9,6.7-33.3l3.7-2.1
		c1-0.6,1.5-1.2,1.5-1.8c0-1.4-2.8-4.5-8.5-9.3l-6,7h-25c0-0.1,0.4-2.1,1.1-6.2c4-1.5,6-2.8,6-3.9c0-1.7-4.5-3.2-13.4-4.4
		c-1.9,14.1-5.3,29.6-10.5,46.5l8.2,1.5c1.7-5.3,2.7-8.6,3.1-9.8h27.8c-0.9,4.9-2.2,10.2-3.7,15.7h-46l1.5,3.7h34.2v0.1h9.3
		C150.9,28.2,150.9,28.2,150.9,28.2z M128.9,5c1.8-7.3,3-12.7,3.7-16.3h26.6C158.4-5.4,157.4,0,156.3,5H128.9z"/>
	<path class="st1" d="M129,60.1c3.3,0,5-1.9,5-5.7c0-6.5-6.4-12.7-19.3-18.8l-2,2.7c6.3,5.2,10.4,11.2,12,18
		C125.3,58.9,126.7,60.1,129,60.1z"/>
</g>
</svg>
