<?xml version="1.0" encoding="utf-8"?>
<!-- Generator: Adobe Illustrator 19.0.0, SVG Export Plug-In . SVG Version: 6.00 Build 0)  -->
<svg version="1.1" id="圖層_1" xmlns="http://www.w3.org/2000/svg" xmlns:xlink="http://www.w3.org/1999/xlink" x="0px" y="0px"
	 viewBox="45 -33.8 150 150" style="enable-background:new 45 -33.8 150 150;" xml:space="preserve">
<style type="text/css">
	.st0{enable-background:new    ;}
	.st1{fill:#DC6200;}
</style>
<g class="st0">
	<path class="st1" d="M97.5,3.9H86.6v-25.3c4.1-1.7,6.2-3.1,6.2-4.2c0-2-4.9-3.2-14.6-3.5v33H52.5L54,7.6h23.4l-0.4,1.8
		c-5.6,24-14.3,45.2-26.1,63.6l3.1,2.6C64.5,61.7,72.5,47,78.2,31.5v73.8h8.4V28.6c6.7,7,11.4,14.1,13.9,21.1c1.2,3.5,2.9,5.3,5,5.3
		c3.3,0,5-1.8,5-5.4c0-7.9-8-16.5-23.9-25.6V7.6h25.6l1.3-2.9c-2.4-3.6-5.4-7.2-9.2-10.9L97.5,3.9z"/>
	<path d="M175-23.4l-5.9,7.3h-39.7c-3.7-1.9-7.1-3.4-10.2-4.6v125.5h8.9V94h42.3v10.8h8.7V-9.3l4-3c0.6-0.4,1-0.9,1-1.3
		C184.1-15.1,181.1-18.3,175-23.4z M170.4,90.3h-42.3V56.7h42.3V90.3z M170.4,52.9h-42.3V21.9h42.3V52.9z M170.4,18.1h-42.3v-30.5
		h42.3V18.1z"/>
</g>
</svg>
