<?xml version="1.0" encoding="utf-8"?>
<!-- Generator: Adobe Illustrator 19.0.0, SVG Export Plug-In . SVG Version: 6.00 Build 0)  -->
<svg version="1.1" id="圖層_1" xmlns="http://www.w3.org/2000/svg" xmlns:xlink="http://www.w3.org/1999/xlink" x="0px" y="0px"
	 viewBox="45 -33.8 150 150" style="enable-background:new 45 -33.8 150 150;" xml:space="preserve">
<style type="text/css">
	.st0{enable-background:new    ;}
	.st1{fill:#DC6200;}
</style>
<g class="st0">
	<path d="M116.1-24l-5.7,7.2h-53l1.2,3.7h23.1v0h8.7v0h21.3v25.3h-0.1v3.7h0.1v29.5h-0.1V49h0.1c-0.3,15.8-0.9,26.2-1.7,31.2
		c-0.7,4.3-3.6,6.4-8.6,6.4c-4.4,0-10.4-0.7-17.7-2v4c6.1,1.3,10.3,2.6,12.5,3.7c2.8,1.5,4.2,3.7,4.2,6.6c7.1,0,12.2-2.3,15.3-6.9
		c3.1-4.9,4.7-23.8,4.7-56.8v-45.5l3.7-2.6c0.8-0.5,1.2-1.1,1.2-1.8C125.3-16.2,122.2-19.3,116.1-24z"/>
	<path class="st1" d="M88.3,45.4c1.4-8.8,2.1-18.5,2.1-29.1v-0.4h21.3v-3.7H90.4v-25.2h-8.7v25.2H55.9l1.2,3.7h24.6
		c0,11-0.7,20.8-2.1,29.5H55.3l1.2,3.6H79c-4.1,21.6-13,38.7-26.8,51.1l2.5,3.1C72.2,90.8,83.2,73,87.6,49.9l0.1-0.9h24v-3.6H88.3z"
		/>
	<path d="M160.9,22.8c5.8-8.6,11.4-19.4,16.6-32.3l4.2-1.8c0.9-0.5,1.3-1,1.3-1.5c0-1.5-3.2-5.1-9.7-10.8l-4.8,6.6h-22.2
		c-2.9-1.7-6.1-3.4-9.7-5.1v127.4h8.9V-13.3h23.7c-3.3,12.8-7.7,25.1-13.3,36.9l0.3,0.1c12.4,10.3,18.6,21.5,18.6,33.7
		c0,3.3-0.2,6.1-0.7,8.4c-1.1,4.2-4.1,6.3-9.2,6.3c-3.4,0-8.3-0.4-14.5-1.3v3.9C157,76,161,77,162.6,77.6c2.9,1.4,4.4,3.6,4.4,6.7
		c11.3-0.7,16.9-8.6,16.9-23.7C183.9,45.6,176.2,32.9,160.9,22.8z"/>
</g>
</svg>
