<?xml version="1.0" encoding="utf-8"?>
<!-- Generator: Adobe Illustrator 19.0.0, SVG Export Plug-In . SVG Version: 6.00 Build 0)  -->
<svg version="1.1" id="圖層_1" xmlns="http://www.w3.org/2000/svg" xmlns:xlink="http://www.w3.org/1999/xlink" x="0px" y="0px"
	 viewBox="45 -33.8 150 150" style="enable-background:new 45 -33.8 150 150;" xml:space="preserve">
<style type="text/css">
	.st0{enable-background:new    ;}
	.st1{fill:#DC6200;}
</style>
<g class="st0">
	<path d="M130.8-3.5h47.1l1.8-3.1c-3-3.5-6.6-7-10.7-10.6l-7.5,10H90.5c1.9-4.4,3.5-8.6,4.9-12.7c4.7-0.4,7.1-1.4,7.1-2.9
		c0-2.1-5-4.5-14.9-7C81.2-4.6,71.1,16.7,57.5,34l3,2.5C71.6,25.9,80.8,12.9,88.2-2.4l0.4-1.2h33v0.1h9.2V-3.5z"/>
	<path class="st1" d="M177.3,53.1l-8.3,10.6h-38.2V28.8h41.4l1.7-3c-3.6-4.3-7-7.8-10-10.5l-7.5,9.7h-25.5V-3.4h-9.2V25H92.8
		c-2.2-1.2-5.8-2.8-10.5-4.8v43.5H53l1.3,3.7h67.4v37.8h9.2V67.4h55.4l1.8-3C185.4,61,181.8,57.2,177.3,53.1z M121.7,63.7H91.1V28.8
		h30.6V63.7z"/>
</g>
</svg>
