<?xml version="1.0" encoding="utf-8"?>
<!-- Generator: Adobe Illustrator 19.0.0, SVG Export Plug-In . SVG Version: 6.00 Build 0)  -->
<svg version="1.1" id="圖層_1" xmlns="http://www.w3.org/2000/svg" xmlns:xlink="http://www.w3.org/1999/xlink" x="0px" y="0px"
	 viewBox="45 -33.8 150 150" style="enable-background:new 45 -33.8 150 150;" xml:space="preserve">
<style type="text/css">
	.st0{enable-background:new    ;}
	.st1{fill:#DC6200;}
	.st2{fill:#D3228C;}
</style>
<g class="st0">
	<path class="st1" d="M92.4,25.9v26.7c0,22.7-9.5,39.3-28.5,49.8l2.4,3.3C76.9,101.3,84.7,96.1,90,90c7.6-9.1,11.4-21.6,11.4-37.5
		V34.2c4.2-1.5,6.3-2.9,6.3-4.2C107.7,27.7,102.6,26.3,92.4,25.9z"/>
	<path class="st2" d="M139.3,25.3v78.1h8.9V33.6c4.3-1.5,6.4-2.9,6.4-4.2C154.6,27.1,149.5,25.8,139.3,25.3z"/>
	<path d="M123.6-19.7c-0.1-0.1-0.3-0.4-0.6-0.7c-0.2-0.3-0.4-0.5-0.4-0.6c4.4-0.7,6.6-1.7,6.6-3c0-1.8-4.6-3.6-13.7-5.6
		C101.2-0.5,80.9,21.6,54.7,36.7L57,40c26.9-12.8,47.8-31.5,62.5-56.1l0.6-1.1c12.9,21.5,32,38.8,57.3,51.9c1.8-3.5,4.5-6.4,8-8.9
		C159.5,15.7,138.9,0.4,123.6-19.7z"/>
</g>
</svg>
