<?xml version="1.0" encoding="utf-8"?>
<!-- Generator: Adobe Illustrator 19.0.0, SVG Export Plug-In . SVG Version: 6.00 Build 0)  -->
<svg version="1.1" id="圖層_1" xmlns="http://www.w3.org/2000/svg" xmlns:xlink="http://www.w3.org/1999/xlink" x="0px" y="0px"
	 viewBox="45 -33.8 150 150" style="enable-background:new 45 -33.8 150 150;" xml:space="preserve">
<style type="text/css">
	.st0{enable-background:new    ;}
	.st1{fill:#DC6200;}
</style>
<g class="st0">
	<path class="st1" d="M176.2,28.8l-8.7,11.1h-42.4v-19c4.1-1.5,6.2-2.8,6.2-4c0-0.7-0.8-1.3-2.4-1.9c0.1-0.1,0.2-0.1,0.3-0.2
		l-5.4-1.3c-0.1,0.1-0.3,0.2-0.4,0.3c-2.4-0.3-5-0.6-7.8-0.7v26.9h-63l1.3,3.7h62.4v43.1c0,3.2-2,4.8-5.9,4.8
		c-4.7,0-13.5-0.5-26.2-1.6v4c9.9,1.6,16.3,3,19.2,4c3.4,1.3,5.1,3.4,5.1,6.3c11.5-0.1,17.2-4.2,17.2-12.2V43.6h59.7l1.8-3.1
		C183.6,35.9,179.9,32,176.2,28.8z"/>
	<path d="M160.6-5.3l5.4-1.3c1.4-0.5,2.1-1.1,2.1-1.8c0-1.8-3.9-5.6-11.6-11.6l-6.7,7.6H71.4l1.5,3.7h77
		c-6.7,7.1-15.4,14.5-26.1,22.2l5.4,1.3C141.2,8.1,151.7,1.4,160.6-5.3z"/>
</g>
</svg>
