<?xml version="1.0" encoding="utf-8"?>
<!-- Generator: Adobe Illustrator 19.0.0, SVG Export Plug-In . SVG Version: 6.00 Build 0)  -->
<svg version="1.1" id="圖層_1" xmlns="http://www.w3.org/2000/svg" xmlns:xlink="http://www.w3.org/1999/xlink" x="0px" y="0px"
	 viewBox="45 -33.8 150 150" style="enable-background:new 45 -33.8 150 150;" xml:space="preserve">
<style type="text/css">
	.st0{enable-background:new    ;}
	.st1{fill:#DC6200;}
</style>
<g class="st0">
	<path class="st1" d="M132.2,35.9l0.4-1.1c3.7-8.4,7.1-18,10.1-28.8l4.6-2.1c1-0.4,1.5-1,1.5-1.8c0-1.8-3.4-5.5-10.1-11l-6,7.6
		h-28.9c1.1-3.1,2.8-8.5,5.1-16.3c4.6-1.1,6.9-2.2,6.9-3.4c0-2-5-4.1-15-6.3C94.1,6.1,81.5,33.4,63.2,54.8l3.3,2.7
		c15.8-15,27.8-33.3,36-54.9h31.1c-11.3,45.8-35.9,78.9-73.8,99.3l2.6,3.3c30.9-13.9,53.2-35.1,67.2-63.8c0,0.1,0,0.1,0.1,0.2
		l2.8-5.4C132.2,36.1,132.2,36,132.2,35.9z"/>
	<path d="M132.3,36.2l-2.8,5.4c9.3,26.4,24.9,46.5,46.7,60.3c2.1-3.5,5-6.5,8.6-9C160.2,80.3,142.7,61.4,132.3,36.2z"/>
</g>
</svg>
