<?xml version="1.0" encoding="utf-8"?>
<!-- Generator: Adobe Illustrator 19.0.0, SVG Export Plug-In . SVG Version: 6.00 Build 0)  -->
<svg version="1.1" id="圖層_1" xmlns="http://www.w3.org/2000/svg" xmlns:xlink="http://www.w3.org/1999/xlink" x="0px" y="0px"
	 viewBox="45 -33.8 150 150" style="enable-background:new 45 -33.8 150 150;" xml:space="preserve">
<style type="text/css">
	.st0{enable-background:new    ;}
	.st1{fill:#DC6200;}
</style>
<g class="st0">
	<path class="st1" d="M169.4-23.7l-6.4,7.5H81.5c-3.5-2-7.1-3.6-10.8-5v64.4c0,25.5-6.3,45.3-18.9,59.3l3,3
		C69,93.9,77.1,76.6,79.2,53.5h0.1l0.1-3.7h-0.1c0.1-1.5,0.1-3.7,0.1-6.4V19.9h0v-3.7h0v-28.6h36.1v0h8.6v0h40.4v28.6h0v3.7h0v29.9
		h0v3.7h0v32.6c0,3.2-2.2,4.8-6.6,4.8c-6.3,0-12.8-0.4-19.6-1.2v4c7.6,1.2,12.6,2.2,15,3.1c2.9,1.2,4.5,3.2,4.6,6.2
		c10.4,0.1,15.6-4,15.6-12.5v-100l3.9-2.6c0.9-0.6,1.4-1.2,1.4-1.9C178.8-15.4,175.7-18.6,169.4-23.7z"/>
	<polygon points="124.2,49.8 124.2,19.9 164.5,19.9 164.5,16.2 124.2,16.2 124.2,-12.4 115.6,-12.4 115.6,16.2 79.5,16.2 79.5,19.9 
		115.6,19.9 115.6,49.8 79.5,49.8 79.3,53.5 115.6,53.5 115.6,96.1 124.2,96.1 124.2,53.5 164.5,53.5 164.5,49.8 	"/>
</g>
</svg>
