<?xml version="1.0" encoding="utf-8"?>
<!-- Generator: Adobe Illustrator 19.0.0, SVG Export Plug-In . SVG Version: 6.00 Build 0)  -->
<svg version="1.1" id="圖層_1" xmlns="http://www.w3.org/2000/svg" xmlns:xlink="http://www.w3.org/1999/xlink" x="0px" y="0px"
	 viewBox="45 -33.8 150 150" style="enable-background:new 45 -33.8 150 150;" xml:space="preserve">
<style type="text/css">
	.st0{enable-background:new    ;}
	.st1{fill:#DC6200;}
</style>
<g class="st0">
	<path class="st1" d="M98.4-11.2c4.6-0.4,6.9-1.3,6.9-2.7c0-2.1-4.2-5-12.5-8.7c-8.1,16.9-19.4,31-34.1,42.3l2.3,3
		C76.1,13.9,88.5,2.6,98.4-11.2z"/>
	<path class="st1" d="M164.5,11.6c2.2,3.7,4.2,5.6,6,5.6c3.3,0,5-1.8,5-5.4c0-8.5-13.1-19.9-39.4-34.1l-2.3,2.9
		C148.2-9,158.5,1.4,164.5,11.6z"/>
	<path d="M123,8.2l-1-0.9c3.8-0.6,5.7-1.5,5.7-2.7c0-2-4.2-4.2-12.5-6.7C99.6,26,78.6,47.1,52.3,61.1l2.3,3
		c9.3-4.1,17.8-8.7,25.6-14v53.5h8.7v-11h60.7v11h8.9V54l2.4-1.9c0.6-0.5,1-1,1.2-1.5c5.2,3.2,11.3,6.5,18.2,9.8
		c2.1-4.1,4.6-7.3,7.5-9.7C162.7,41.6,141.2,27.4,123,8.2z M149.7,88.9H88.9V52.7h60.7V88.9z M149.5,49H90.1
		c-2.4-1.2-4.1-1.9-5.1-2.3c13.8-9.9,25.4-22,34.8-36.3l0.6,1c10.3,13.6,21.3,24.7,33.1,33.3L149.5,49z"/>
</g>
</svg>
