<?xml version="1.0" encoding="utf-8"?>
<!-- Generator: Adobe Illustrator 19.0.0, SVG Export Plug-In . SVG Version: 6.00 Build 0)  -->
<svg version="1.1" id="圖層_1" xmlns="http://www.w3.org/2000/svg" xmlns:xlink="http://www.w3.org/1999/xlink" x="0px" y="0px"
	 viewBox="45 -33.8 150 150" style="enable-background:new 45 -33.8 150 150;" xml:space="preserve">
<style type="text/css">
	.st0{enable-background:new    ;}
	.st1{fill:#DC6200;}
</style>
<g class="st0">
	<path d="M157.5,6.4c-2.9-3.5-6.1-6.9-9.7-10.2l-7.3,9.3H81l1.6,3.7h73L157.5,6.4z"/>
	<path class="st1" d="M170.9-24.8l-6.2,7.2H73.8c-3.4-2-6.8-3.7-10.2-5.1v126.1h8.7V-13.9h94v99.5c0,3.3-1.9,5-5.6,5
		c-6.9,0-14.9-0.4-24.2-1.2v4.2c8.3,1,13.9,2,17,3c4,1.2,6,3.3,6,6.3c4.1-0.3,7.3-1,9.7-2c3.8-1.7,5.7-5,5.7-10V-10.6l3.4-2.7
		c1-0.7,1.5-1.4,1.5-2.2C180.1-16.9,177-20,170.9-24.8z"/>
	<path d="M136.8,75h8.6V34.5l2.9-2.1c1-0.7,1.5-1.4,1.5-2.1c0-1-2.8-3.9-8.5-8.6l-5.7,6.7h-33.5c-4.4-2-7.9-3.4-10.3-4.4V77h8.6
		V65.7h36.5V75z M100.2,61.9V32.1h36.5v29.9H100.2z"/>
</g>
</svg>
