<?xml version="1.0" encoding="utf-8"?>
<!-- Generator: Adobe Illustrator 19.0.0, SVG Export Plug-In . SVG Version: 6.00 Build 0)  -->
<svg version="1.1" id="圖層_1" xmlns="http://www.w3.org/2000/svg" xmlns:xlink="http://www.w3.org/1999/xlink" x="0px" y="0px"
	 viewBox="45 -33.8 150 150" style="enable-background:new 45 -33.8 150 150;" xml:space="preserve">
<style type="text/css">
	.st0{enable-background:new    ;}
	.st1{fill:#DC6200;}
</style>
<g class="st0">
	<path d="M103.5,5.6l4.2-2.1c1.1-0.6,1.7-1.2,1.7-1.8c0-1.5-3.1-4.9-9.2-10.2l-5.9,7.2h-9.9v-20.4c4.2-1.6,6.3-3,6.3-4.2
		c0-2.1-5-3.3-14.9-3.6v28.2H53l1.5,3.7h40.4C89.2,13.2,83,23.1,76.1,32.2h9.3C91.8,24.2,97.8,15.4,103.5,5.6z"/>
	<path class="st1" d="M107.5,58.4c2.9,0,4.3-1.8,4.3-5.3c0-3.2-2.6-6.7-7.7-10.5c-4.9-3.6-11.3-6.6-19.2-9v-0.9
		c0.1-0.2,0.3-0.4,0.4-0.6h-9.3c-7.6,10.2-16.1,19.3-25.2,27.5l2.4,2.9c9.1-6.5,16.8-13.2,23.1-20.1v62.7h8.6V37.5
		c8.1,5.7,14.2,11.7,18.3,18.2C104.3,57.5,105.7,58.4,107.5,58.4z"/>
	<path d="M179.1,14.6l-7.3,10h-43.9V-6.6c15.5-2.5,29.7-5.8,42.6-9.9c1.7,0.4,3.2,0.6,4.6,0.6c1.8,0,2.7-0.4,2.7-1.3
		c0-1.7-3.4-4.8-10.2-9.3C156.2-19.4,143-14.1,128-10.6c-4.1-2.2-7.1-3.8-9-4.5v45.1c0,31.3-6.6,55.6-19.9,72.8l3,2.7
		c9.6-9.2,16.4-20.3,20.4-33.2c3.6-11.5,5.4-25.7,5.4-42.6v-1.3h25.9v74.9h8.7V28.3h24.3l1.6-2.9C185.1,21.1,182,17.5,179.1,14.6z"
		/>
</g>
</svg>
