<?xml version="1.0" encoding="utf-8"?>
<!-- Generator: Adobe Illustrator 19.0.0, SVG Export Plug-In . SVG Version: 6.00 Build 0)  -->
<svg version="1.1" id="圖層_1" xmlns="http://www.w3.org/2000/svg" xmlns:xlink="http://www.w3.org/1999/xlink" x="0px" y="0px"
	 viewBox="45 -33.8 150 150" style="enable-background:new 45 -33.8 150 150;" xml:space="preserve">
<style type="text/css">
	.st0{enable-background:new    ;}
	.st1{fill:#DC6200;}
</style>
<g class="st0">
	<path d="M80-10.3h21.2l1.7-2.7c-2.8-3.6-6-7.1-9.6-10.3l-7,9.3H52l1.5,3.7h17.9v0.2H80V-10.3z"/>
	<path d="M161.5-9.7c0.9,3.4,2.5,5.1,5,5.1c3.6,0,5.4-1.9,5.4-5.6c0-6.1-6.4-11.4-19.1-15.9l-1.6,2.7
		C156.8-19.1,160.2-14.6,161.5-9.7z"/>
	<path d="M118.3,44.4c3.4,0,5.1-2,5.1-5.9c0-7.8-7.1-15.6-21.2-23.4l-2.1,2.6c7.1,7,11.5,14,13.2,21
		C114.1,42.5,115.8,44.4,118.3,44.4z"/>
	<path class="st1" d="M101.5,51.8c-6.7,3.4-13.9,6.6-21.5,9.4v-33h19l1.5-2.7C97,21,94,17.5,91.5,15l-6.3,9.4H80v-34.5h-8.6v34.5
		h-18l1.5,3.7h16.6v36.2c-7,2.5-13.8,4.7-20.6,6.4c2.9,8.9,5.5,13.3,7.8,13.3c1.4,0,2.3-2.1,2.7-6.3c13.9-6.3,27.6-13.6,41.3-22.2
		L101.5,51.8z"/>
	<path d="M156.5,47.1c8.4-6.5,15.8-13.3,22-20.3c0.7,0.1,1.7,0.1,2.9,0.1c2.5,0,3.8-0.6,3.8-1.7c0-1.8-3.7-4.9-11.1-9.4
		c-6,10.9-12.5,20.2-19.6,27.8c-6-10.7-10.3-23.3-12.9-37.8V5.3h44.2l1.6-3c-2.9-3.5-6.3-6.8-10-9.9l-7,9.2h-28.8v-23.7
		c4.1-1.4,6.2-2.6,6.2-3.7c0-2.3-5-3.6-14.9-3.7V1.6H91.7l1.6,3.7h39.6v43.5C121,57.7,107.3,65.8,91.8,73c4.1,8,7,12,8.9,12
		c1.1,0,1.7-1.4,1.7-4.2c0-0.7,0-1.4-0.1-2.1c12.2-8.4,22.4-16.7,30.6-24.8v33.6c0,3.3-1.6,4.9-4.8,4.9c-6.6,0-13.5-0.5-20.8-1.5v4
		c7.3,1.5,11.9,2.6,13.9,3.4c2.8,1.4,4.3,3.5,4.5,6.4c10.6-0.1,16-4.1,16-11.9V20.9c5.6,27.3,18.9,49.6,40.1,66.9
		c2.1-3.3,4.7-6.2,8-8.6C175.1,69.4,164.1,58.6,156.5,47.1z"/>
</g>
</svg>
