<?xml version="1.0" encoding="utf-8"?>
<!-- Generator: Adobe Illustrator 19.0.0, SVG Export Plug-In . SVG Version: 6.00 Build 0)  -->
<svg version="1.1" id="圖層_1" xmlns="http://www.w3.org/2000/svg" xmlns:xlink="http://www.w3.org/1999/xlink" x="0px" y="0px"
	 viewBox="45 -33.8 150 150" style="enable-background:new 45 -33.8 150 150;" xml:space="preserve">
<style type="text/css">
	.st0{enable-background:new    ;}
	.st1{fill:#DC6200;}
</style>
<g class="st0">
	<path d="M73.3-7.7c0.8,2.3,2.2,3.4,4.2,3.4c3.4,0,5.1-2,5.1-5.9c0-6.9-6.9-12.4-20.6-16.6l-1.5,2.9C67-19.5,71.2-14.1,73.3-7.7z"/>
	<path class="st1" d="M153.4,91.7c-14.3,0-24.9-1.2-31.6-3.6c-6-2.1-10.4-5.8-13.2-11V48.8l4-2.7c0.8-0.5,1.2-1,1.2-1.6
		c0-1.4-3.1-4.4-9.2-9.2l-5.6,6.9H83.7l1.5,3.7h15.3v36.2c-5.6,4.2-11.9,8.3-19,12.2c3.9,7,6.7,10.5,8.6,10.5c1.1,0,1.6-1.4,1.6-4.2
		c0-0.7,0-1.4-0.1-2c6.2-5.4,11.2-11.1,15-17.3c3.8,7.2,9.9,12.1,18.3,14.7c7.4,2.2,20.4,3.3,39,3.3h20.4c1-3.2,2.7-6.4,5.3-9.8
		C175.9,91,163.8,91.7,153.4,91.7z"/>
	<path d="M63,22.8c0.9,3.6,2.5,5.4,4.8,5.4c3.4,0,5.1-1.9,5.1-5.6c0-6.7-6.5-12.5-19.4-17.3L52.2,8C58.1,12.7,61.7,17.6,63,22.8z"/>
	<path d="M88.5,4l-3.8-2.4c-5,21.5-10.8,40.2-17.4,56.1c-1.7,3.8-4.4,5.7-8.3,5.7c-1,0-3.1-0.2-6.4-0.7v3.9c4.1,0.6,6.9,1.7,8.4,3.3
		c2.1,2.1,3.1,5.7,3.1,10.8c0,2.9-0.4,7.2-1.2,13c-0.1,1.2-0.3,2.6-0.5,4c-0.1,1.1-0.2,1.7-0.2,1.8c0,3.5,1.7,5.3,5.1,5.3
		c4.5,0,6.7-3,6.7-8.9c0-3-0.7-7.9-2-14.6c-0.3-1.8-0.4-3.1-0.4-4c0-1.9,0.9-6.3,2.6-13.3L88.5,4z"/>
	<path class="st1" d="M101,22c0.7,3.3,2.2,4.9,4.5,4.9c3.2,0,4.8-1.8,4.8-5.3c0-6.5-6-12.9-18-19.1l-2,2.2C96,10,99.6,15.8,101,22z"
		/>
	<path class="st1" d="M104.4-6.9c1,3.1,2.6,4.6,4.6,4.6c3.1,0,4.7-1.8,4.7-5.3c0-6.1-6.5-11.8-19.4-17.2l-1.9,2.6
		C98.3-17.8,102.3-12.7,104.4-6.9z"/>
	<path d="M144-5.6V7.3h-12.7c-2.5-1.3-5.7-2.7-9.7-4.3v51h8.1v-5.9H144V63h-31.3l1.7,3.7H144v20.1h8.4V66.7h32l1.9-3
		c-3.1-3.6-6.3-6.6-9.4-9l-6.7,8.3h-17.7V48.1h15.5v5.1h8.1v-39l3.3-2.3c0.8-0.5,1.2-1.1,1.2-1.8c0-1.4-2.9-4.2-8.6-8.6l-5.2,5.7
		h-14.3V-5.6H183l1.7-2.9c-2.3-2.9-5.5-6.3-9.7-10.2l-6.4,9.3h-16.2v-12.3c4.1-1.4,6.2-2.7,6.2-4c0-2.2-4.9-3.4-14.6-3.7v20.1h-28.2
		l1.7,3.7H144z M144,44.4h-14.4v-15H144V44.4z M144,25.6h-14.4V11H144V25.6z M152.4,11h15.5v14.6h-15.5V11z M152.4,29.3h15.5v15
		h-15.5V29.3z"/>
</g>
</svg>
