<?xml version="1.0" encoding="utf-8"?>
<!-- Generator: Adobe Illustrator 19.0.0, SVG Export Plug-In . SVG Version: 6.00 Build 0)  -->
<svg version="1.1" id="圖層_1" xmlns="http://www.w3.org/2000/svg" xmlns:xlink="http://www.w3.org/1999/xlink" x="0px" y="0px"
	 viewBox="45 -33.8 150 150" style="enable-background:new 45 -33.8 150 150;" xml:space="preserve">
<style type="text/css">
	.st0{enable-background:new    ;}
	.st1{fill:#DC6200;}
</style>
<g class="st0">
	<path class="st1" d="M58.5,91.4c0,1.7,0.1,3.1,0.4,4.4l8.7-3.1c-0.3-0.7-0.4-1.6-0.4-2.6V26.5l-8.7-0.1V91.4z"/>
	<path d="M98.2-23.7l-5.6,7.5H52.5l1.3,3.7h40.2v35.2H68.1c-3.3-1.7-6.5-3.2-9.6-4.5v8.1l8.7,0.1v0h26.8v8.7h8.4v-45.3l3.6-2.4
		c0.8-0.5,1.2-1.1,1.2-1.8C107.3-15.8,104.3-18.9,98.2-23.7z"/>
	<path d="M151.7,65.7c9.4-15,15.6-35,18.6-60h16.2l1.5-2.7c-3.1-4.1-6.3-7.6-9.4-10.6l-7,9.6h-40.1c2.2-7.5,4.1-14.9,5.6-22.2
		c4.1-0.9,6.2-2,6.2-3.1c0-2.1-4.8-4.1-14.3-6c-3.9,29.9-12.1,54.8-24.5,74.7l3.1,2.3c6.8-8.4,12.8-18.3,17.9-29.7
		c3.5,19,9.1,34.8,16.8,47.4c-10.3,15.8-25.2,27.9-44.6,36.2l2.1,3.4c19.9-6.7,35.6-17.5,47.2-32.3c8.2,10.9,19.6,20.8,34.2,29.6
		c2.1-3.5,4.5-6.3,7.5-8.6C173.4,86.3,161,76.9,151.7,65.7z M146.6,58.6c-7.2-11.1-13.3-27-18.2-47.8c0.8-2.1,1.4-3.8,1.8-5H161
		C158.7,26.8,153.9,44.4,146.6,58.6z"/>
</g>
<g>
	<path class="st1" d="M109.6,68.4C95.6,76.3,77.5,83.8,55,91c3,8.1,5.6,12.2,7.8,12.2c1.3,0,2-2.1,2-6.3c17-7.7,32.3-16,46-25
		L109.6,68.4z M57.8,92.2l12.5-4.5L57.8,92.2z"/>
</g>
</svg>
