<?xml version="1.0" encoding="utf-8"?>
<!-- Generator: Adobe Illustrator 19.0.0, SVG Export Plug-In . SVG Version: 6.00 Build 0)  -->
<svg version="1.1" id="圖層_1" xmlns="http://www.w3.org/2000/svg" xmlns:xlink="http://www.w3.org/1999/xlink" x="0px" y="0px"
	 viewBox="45 -33.8 150 150" style="enable-background:new 45 -33.8 150 150;" xml:space="preserve">
<style type="text/css">
	.st0{enable-background:new    ;}
	.st1{fill:#DC6200;}
</style>
<g class="st0">
	<path d="M116.3,37.3l-5.6,6.9h-37c2.2-10.9,3.7-19.7,4.4-26.1h32.9v8h8.7V-9.5l4-2.6c0.7-0.4,1.1-1,1.1-1.6c0-1.5-3.1-4.8-9.4-9.7
		l-5.6,7.6H59.4l1.3,3.7h50.3v26.4H80.3l-1.8-1c-2.9-1.7-5.6-3.1-8.3-4.4c-1.9,17.4-4.9,33.9-9.2,49.4l8.7,2.1
		c0.7-2.3,1.7-6.5,3.1-12.5h39c-0.4,16.5-2,28.7-4.8,36.5c-1.7,4.7-5.1,7-10.4,7c-4.5,0-12.6-0.7-24.5-2.1v4.1c9,1.6,14.9,3,17.9,4
		c3.6,1.3,5.4,3.5,5.6,6.4c8.6,0,14.5-3.1,17.9-9.4c4-7.8,6.4-22.2,7.3-43.2l3.7-2.4c0.8-0.5,1.2-1,1.2-1.6
		C125.8,45.9,122.6,42.6,116.3,37.3z"/>
	<path class="st1" d="M154.6-22.7v126.4h9.2V-14.5c4.1-1.5,6.2-2.9,6.2-4.2C170-21.2,164.8-22.5,154.6-22.7z"/>
</g>
</svg>
