<?xml version="1.0" encoding="utf-8"?>
<!-- Generator: Adobe Illustrator 19.0.0, SVG Export Plug-In . SVG Version: 6.00 Build 0)  -->
<svg version="1.1" id="圖層_1" xmlns="http://www.w3.org/2000/svg" xmlns:xlink="http://www.w3.org/1999/xlink" x="0px" y="0px"
	 viewBox="45 -33.8 150 150" style="enable-background:new 45 -33.8 150 150;" xml:space="preserve">
<style type="text/css">
	.st0{enable-background:new    ;}
	.st1{fill:#DC6200;}
</style>
<g class="st0">
	<path class="st1" d="M79.8-11.3c5.5,4.1,9.1,9.1,10.8,15c0.7,2.4,2.2,3.6,4.3,3.6c3.5,0,5.3-1.9,5.3-5.6c0-6.4-6.3-11.6-18.8-15.7
		L79.8-11.3z"/>
	<path class="st1" d="M105.1-15.3l3.6-0.3c5.2,4.7,8.3,10.1,9.3,16.3c0.5,3,2.1,4.5,4.8,4.5c3.4,0,5.1-1.8,5.1-5.4
		c0-5.3-4.5-10.5-13.4-15.7c17.7-1.2,33.3-2.4,46.8-3.8c2.6,0.6,4.6,1,6.2,1c1.6,0,2.4-0.4,2.4-1.2c0-1.7-3.4-4.7-10.3-8.9
		c-21.1,5.3-51.9,9-92.3,11.1l2,3.7C85.3-14.5,97.2-14.9,105.1-15.3z"/>
	<path class="st1" d="M158.4-7c4.1-0.1,6.1-0.8,6.1-2.1c0-2-4.1-4.7-12.4-8.1c-3.2,9-7,17.3-11.3,24.9h5.1
		C150,3.2,154.2-1.7,158.4-7z"/>
	<path d="M72,39.5c-2.3,1.9-3.4,3.5-3.4,5.1c0,3.4,1.8,5.1,5.3,5.1c2.8,0,5.4-2.1,7.8-6.2c3.1-5.4,4.7-12.3,4.7-20.5
		c0-1.2-0.1-2.3-0.2-3.1l-3.6-1.1C81,28.4,77.4,35.3,72,39.5z"/>
	<path d="M130,82.4c8-4.5,15.5-9.8,22.6-15.7l4-1.7c1.6-0.6,2.3-1.2,2.3-1.9c0-1.4-3.4-4.4-10.1-9l-5.3,5.7h-39.1
		c5-4.6,8.7-8.3,11.2-11.1h7c15.1,0,24.1-0.4,26.8-1.2c3-0.9,4.5-3.3,4.5-7.1c-2.1,0-3.6-0.6-4.4-1.8c-1.1-1.8-1.6-5.5-1.6-11.3
		l-3.6-1.3c-0.8,6.6-1.7,10.8-2.7,12.7c-1,2.2-7.5,3.3-19.4,3.3c-9.1,0-14.7-0.4-16.6-1.3c-1.2-0.5-1.8-1.7-1.8-3.7V24.5
		c3.5-1.2,5.3-2.4,5.3-3.4c0-2-4.5-3-13.4-3.1v20.1c0,4.2,0.9,7,2.7,8.4c1.2,0.9,3.4,1.5,6.7,1.8c-14,14.8-30.5,26.4-49.5,34.6
		l2.4,3.3c14.6-5.4,27.2-11.9,37.6-19.5c6.7,6.1,13.4,11.3,20.1,15.5c-18,9-38.8,15.5-62.5,19.6l2.3,3.7c27.2-3.7,50-10,68.1-18.9
		c14.5,7.6,33.9,13.2,58.4,16.8c1.4-3.2,3.5-6.2,6.4-9C164.2,92.5,144.7,88.5,130,82.4z M122,78.9c-7.7-3.9-15.3-8.8-22.8-14.7
		l0.7-0.6H143C136.7,69.3,129.6,74.4,122,78.9z"/>
	<path d="M59.4,35.5c3.1,0,5.9-2.4,8.4-7.2c2.4-4.6,3.7-10.3,3.9-16.8h99.9c-1.6,3.5-4.4,8-8.5,13.5c-2.9-2.2-6.5-4.3-10.8-6.4
		l-1.8,2.7c7.5,6.4,12.2,12.7,14.1,19c0.9,3.3,2.6,5,5,5c3.3,0,5-1.8,5-5.4c0-3.7-2.8-7.8-8.3-12.5c5.7-4.1,10.2-8.1,13.6-12
		l4.8-1.2c1.3-0.3,2-0.9,2-1.7c0-1.6-3.2-5.4-9.7-11.5l-5.7,6.7h-25.5c0,0,0,0,0,0h-5.1c0,0,0,0,0,0H71.7c-0.1-1.1-0.3-2.6-0.4-4.5
		l-3.7-0.7c-1.2,9.8-5,17.5-11.4,23c-1.6,1.3-2.3,2.9-2.3,4.6C53.7,33.7,55.6,35.5,59.4,35.5z"/>
	<path d="M112.8,17.8c6.5,4.2,10.8,8.7,12.9,13.4c1.1,2.3,2.5,3.4,4.3,3.4c3.2,0,4.8-1.7,4.8-5c0-5.5-6.8-10.3-20.3-14.5L112.8,17.8
		z"/>
</g>
</svg>
