<?xml version="1.0" encoding="utf-8"?>
<!-- Generator: Adobe Illustrator 19.0.0, SVG Export Plug-In . SVG Version: 6.00 Build 0)  -->
<svg version="1.1" id="圖層_1" xmlns="http://www.w3.org/2000/svg" xmlns:xlink="http://www.w3.org/1999/xlink" x="0px" y="0px"
	 viewBox="45 -33.8 150 150" style="enable-background:new 45 -33.8 150 150;" xml:space="preserve">
<style type="text/css">
	.st0{enable-background:new    ;}
	.st1{fill:#DC6200;}
</style>
<g class="st0">
	<path class="st1" d="M107-18.5c0-1.4-3-4.5-8.9-9.2l-5.6,7H73.9c-1.7-1-3.8-2.2-6.2-3.6c-1.3-0.7-2.6-1.3-3.9-2v65.8
		c0,28-4.4,49.3-13.2,63.7l3.1,2.3c11.6-13.4,17.7-31.9,18.5-55.7h21v37.5c0,2.8-1.7,4.2-5,4.2c-5.8,0-11.2-0.3-16.3-1v4
		c4.7,0.7,8.3,1.6,10.8,2.6c2.8,1,4.2,3,4.2,6c9.8,0.1,14.7-3.7,14.7-11.6V-14.3l3.9-2.4C106.6-17.3,107-17.9,107-18.5z M93.3,46.2
		H72.5c0.1-1.5,0.1-3.7,0.1-6.4V15.2h20.7V46.2z M93.3,11.5H72.6v-28.3h20.7V11.5z"/>
	<path d="M176.5,26.2l-7.6,10.3h-20.4v-47.4h31.8l1.7-2.9c-2.9-3.8-6.2-7.4-10-10.9l-7.5,10h-55.5l1.4,3.7h29.1v47.4h-34.1l1.5,3.7
		h32.5v65h9.2v-65H185l1.6-2.9C183.3,33.2,180,29.5,176.5,26.2z"/>
</g>
</svg>
