<?xml version="1.0" encoding="utf-8"?>
<!-- Generator: Adobe Illustrator 19.0.0, SVG Export Plug-In . SVG Version: 6.00 Build 0)  -->
<svg version="1.1" id="圖層_1" xmlns="http://www.w3.org/2000/svg" xmlns:xlink="http://www.w3.org/1999/xlink" x="0px" y="0px"
	 viewBox="45 -33.8 150 150" style="enable-background:new 45 -33.8 150 150;" xml:space="preserve">
<style type="text/css">
	.st0{enable-background:new    ;}
	.st1{fill:#DC6200;}
</style>
<g class="st0">
	<polygon class="st1" points="154.5,68.4 154.5,86.8 83.7,86.8 83.7,68.4 74.5,68.4 74.5,102.7 83.7,102.7 83.7,90.6 154.5,90.6 
		154.5,102.7 163.8,102.7 163.8,68.4 	"/>
	<path d="M83.7,54.8h70.8v13.6h9.3V-9.5l3.9-2.7c0.8-0.6,1.2-1.3,1.2-1.9c0-1.6-3.1-4.8-9.4-9.7l-6,7.5h-68c-2-1-5.7-2.7-11-5.1
		v89.9h9.2V54.8z M83.7-12.6h70.8V17H83.7V-12.6z M83.7,20.8h70.8v30.3H83.7V20.8z"/>
</g>
</svg>
