<?xml version="1.0" encoding="utf-8"?>
<!-- Generator: Adobe Illustrator 19.0.0, SVG Export Plug-In . SVG Version: 6.00 Build 0)  -->
<svg version="1.1" id="圖層_1" xmlns="http://www.w3.org/2000/svg" xmlns:xlink="http://www.w3.org/1999/xlink" x="0px" y="0px"
	 viewBox="45 -33.8 150 150" style="enable-background:new 45 -33.8 150 150;" xml:space="preserve">
<style type="text/css">
	.st0{enable-background:new    ;}
	.st1{fill:#DC6200;}
</style>
<g class="st0">
	<path d="M151.6,25.6l1.5-2.6c-3.7-3.9-7-7-9.9-9.4l-6.9,8.3H89.1l1.5,3.7H151.6z"/>
	<path d="M123.6-21.6c4.5-0.4,6.7-1.3,6.7-2.6c0-1.9-4.4-3.9-13.2-6C101.2,0.8,79.7,24.2,52.6,40l2.4,3.1
		C83.3,29.1,105.4,8.7,121.3-18c15.5,21.9,36,40.3,61.5,55.1c1.5-3.4,3.7-6.4,6.7-9.2C163.8,15.8,141.8-0.7,123.6-21.6z"/>
</g>
<g>
	<path class="st1" d="M124.7,75.7c3.8,0,5.6-2.5,5.6-7.5c0-10.2-6.2-21.1-18.4-32.7l-2.3,2.1c5.7,10,9.2,20.1,10.5,30.3
		C120.9,73.1,122.4,75.7,124.7,75.7z"/>
	<path class="st1" d="M95.3,87.6c3,0,4.5-2.4,4.5-7.4c0-3.4-1-7.3-3-11.7c-3.6-7.8-9.8-14.5-18.6-20.2l-1.9,2.5
		C84,60.2,88,70.3,90.3,81C91.1,85.4,93.5,87.6,95.3,87.6z"/>
	<path class="st1" d="M162.7,50.3c4.8,0,7.3-0.8,7.3-2.3c0-2.3-4.9-5.2-14.7-8.7c-7.7,26.1-11.6,38.7-20.8,56.3h5.4
		C150.1,81,154.7,72.1,162.7,50.3z"/>
	<path d="M174.3,85l-7.8,10.8h-26.7c0-0.1,0.1-0.1,0.1-0.2h-5.4c0,0.1-0.1,0.1-0.1,0.2H58.9l1.6,3.7h123.2l1.6-3.1
		C182.1,92.5,178.4,88.7,174.3,85z"/>
</g>
</svg>
