<?xml version="1.0" encoding="utf-8"?>
<!-- Generator: Adobe Illustrator 19.0.0, SVG Export Plug-In . SVG Version: 6.00 Build 0)  -->
<svg version="1.1" id="圖層_1" xmlns="http://www.w3.org/2000/svg" xmlns:xlink="http://www.w3.org/1999/xlink" x="0px" y="0px"
	 viewBox="45 -33.8 150 150" style="enable-background:new 45 -33.8 150 150;" xml:space="preserve">
<style type="text/css">
	.st0{enable-background:new    ;}
	.st1{fill:#DC6200;}
</style>
<g class="st0">
	<path d="M134.1,67.4c-0.1,0.2-0.2,0.5-0.4,0.9c-0.1,0.2-0.1,0.3-0.1,0.4l-2.6,0.1c-1.9,0.1-4.1,0.1-6.4,0.1
		c1.3,8.2,3,12.3,5.1,12.3c1.1,0,2-1.8,2.7-5.4c9.8-1.6,18.6-3.5,26.4-5.6c0.3,1.6,0.5,3.7,0.7,6.4c0.1,4,1.2,6,3.3,6
		c3.3,0,5-2.2,5-6.6c0-8.5-4.5-17.7-13.5-27.5l-2.7,2.1c2.8,5.1,4.9,10.3,6.3,15.6c-6.5,1-13.2,1.6-19.9,2
		c8.4-13.8,15.8-27.8,22.2-42c3.7-0.1,5.6-0.9,5.6-2.3c0-2.1-4-4.8-11.9-8.1C147.2,37.2,140.6,54.3,134.1,67.4z"/>
	<path d="M124.1,16.7c5.9,7.3,9.4,14.6,10.5,22c0.5,3.5,1.7,5.3,3.7,5.3c3.2,0,4.8-1.9,4.8-5.7c0-3.3-1.6-7.4-4.8-12.3
		c6.6-11.1,11.6-21.4,15-30.9c4.1-0.1,6.2-0.9,6.2-2.2c0-2.1-4.3-4.8-12.9-8c-3.1,14.6-6.7,27.1-11,37.5c-2.6-2.8-5.7-5.5-9.2-8.1
		L124.1,16.7z"/>
	<path d="M70,19.6c6.1,7.3,9.6,14.7,10.7,22.2c0.4,3.3,1.6,5,3.6,5c3.2,0,4.8-1.9,4.8-5.6c0-3.6-1.5-7.7-4.6-12.3
		c5.2-9.3,10.1-20.2,14.7-32.7c3.9-0.1,5.8-0.9,5.8-2.1c0-2-4.2-4.5-12.6-7.6c-2.7,14.7-6.2,27.8-10.5,39.1c-2.7-3-6-5.9-9.7-8.5
		L70,19.6z"/>
	<path class="st1" d="M170.2-11.6V91.3h-46.9V-17.9c4.3-1.6,6.4-3,6.4-4.2c0-2.2-5-3.4-14.9-3.7V91.3H68.6v-94c4-1.5,6-2.9,6-4.2
		c0-2.3-4.9-3.5-14.7-3.5v115.6h8.7V95h101.7v10.2h8.7V-3.6c3.7-1.4,5.6-2.7,5.6-4.1C184.5-10.2,179.8-11.4,170.2-11.6z"/>
	<path d="M79.5,71c-0.6,0-1.7,0.1-3.3,0.1c-3.6,0.1-5.7,0.1-6.2,0.1c1.4,8.2,2.9,12.3,4.7,12.3c0.9,0,1.8-1.8,2.6-5.3
		c8.4-1,17.1-2.8,25.9-5.3c0.3,2.1,0.4,4.4,0.4,7c0,3.1,1.1,4.6,3.4,4.6c3.3,0,5-2.3,5-7c0-8.4-4-17.3-12-26.8l-2.9,1.9
		c2.7,5.5,4.5,11,5.4,16.3c-4.1,0.6-10.4,1.1-18.9,1.7c7.6-12.7,14.8-27.1,21.6-43.2c3.8-0.1,5.6-0.8,5.6-1.9c0-1.9-4-4.5-11.9-7.8
		C93.1,37.9,86.6,55.6,79.5,71z"/>
</g>
</svg>
