<?xml version="1.0" encoding="utf-8"?>
<!-- Generator: Adobe Illustrator 19.0.0, SVG Export Plug-In . SVG Version: 6.00 Build 0)  -->
<svg version="1.1" id="圖層_1" xmlns="http://www.w3.org/2000/svg" xmlns:xlink="http://www.w3.org/1999/xlink" x="0px" y="0px"
	 viewBox="45 -33.8 150 150" style="enable-background:new 45 -33.8 150 150;" xml:space="preserve">
<style type="text/css">
	.st0{enable-background:new    ;}
	.st1{fill:#DC6200;}
</style>
<g class="st0">
	<path d="M179,89.5c-1.1-1.7-1.7-5.7-1.7-12.1v-1.8l0.1-5.6l-4.2-1.6c-0.7,14.1-2.9,21.9-6.4,23.4c-2.7,1.3-13.3,2-31.8,2
		c-12.6,0-20.2-0.5-22.8-1.4c-1.9-0.6-2.9-2.3-2.9-5.2v-50h42.6v25.3c0,3-1.6,4.5-4.9,4.5c-5.6,0-11.6-0.4-18-1.2v3.7
		c6,1,10.2,1.9,12.6,2.9c3,1.2,4.5,3.3,4.5,6.3c9.5,0,14.3-4,14.3-11.9V40l3.4-2.4c1-0.7,1.5-1.4,1.5-2.1c0-1.4-3-4.3-8.9-8.9
		l-5.9,6.7h-40.2c-2.7-1.8-5.6-3.3-8.5-4.6c-0.1,0-0.3-0.1-0.6-0.3c-0.3-0.1-0.6-0.2-0.8-0.4V88c0,5.5,1.3,9.1,3.9,10.8
		c3,1.8,14,2.7,33,2.7c22.8,0,36.3-0.6,40.4-1.7c3.6-1,5.5-3.8,5.6-8.3C181.2,91.5,179.7,90.8,179,89.5z"/>
	<path d="M82.2,9.9c4.5-5.1,9.1-11.3,13.7-18.8h34.8c-3.3,6.6-7.8,13.5-13.8,20.9h5.8c7.2-6.1,13.1-11.9,17.7-17.5l4.3-1.6
		c1.2-0.5,1.8-1.1,1.8-1.8c0-1.8-3.3-5.4-10-10.9l-6.2,7.2H98.1c2.2-4,3.5-6.3,4-7.2c4.9-0.4,7.3-1.4,7.3-2.9c0-2-4.8-4.2-14.3-6.7
		C84.8-4.7,70.8,15.2,53,30.3l2.4,3c7.9-5.5,14.4-10.8,19.6-16v0.2l7.3-7.5C82.3,9.9,82.3,9.9,82.2,9.9z"/>
	<path class="st1" d="M172.5,1.5l-7.9,10.6h-42c0,0,0.1-0.1,0.1-0.1h-5.8c0,0-0.1,0.1-0.1,0.1H86.2c-0.6-0.3-1.9-1.1-3.8-2.2
		L75,17.5v20.6c0,9.2-0.6,17.4-1.8,24.6c-2.6,15.3-9.1,28.5-19.3,39.5l2.7,2.8C66.8,97.3,74,88.3,78,78.1
		c4.1-10.4,6.2-23.7,6.2-40.1V15.9h96.9l1.7-3.4C180.2,9.3,176.8,5.6,172.5,1.5z"/>
</g>
</svg>
