<?xml version="1.0" encoding="utf-8"?>
<!-- Generator: Adobe Illustrator 19.0.0, SVG Export Plug-In . SVG Version: 6.00 Build 0)  -->
<svg version="1.1" id="圖層_1" xmlns="http://www.w3.org/2000/svg" xmlns:xlink="http://www.w3.org/1999/xlink" x="0px" y="0px"
	 viewBox="45 -33.8 150 150" style="enable-background:new 45 -33.8 150 150;" xml:space="preserve">
<style type="text/css">
	.st0{enable-background:new    ;}
	.st1{fill:#DC6200;}
</style>
<g class="st0">
	<path class="st1" d="M102.6,33.2c0,16-0.5,26.3-1.5,31.1c-0.8,4.1-3.2,6.2-7.2,6.2c-4,0-8.8-0.5-14.6-1.4v4.1
		c9.5,1.4,14.3,4.5,14.3,9.4c7,0.1,11.7-2.4,13.9-7.5c2.1-4.5,3.3-17.4,3.4-38.7l3.4-2.6c0.8-0.6,1.2-1.2,1.2-1.8c0-1.4-3-4.5-9-9.4
		l-5.4,6.9H76.9v3.7H102.6z"/>
	<path d="M181.9,85.2c0-3.6,0.5-10.9,1.6-21.9l-4-2c-2.6,18.6-5,27.9-7.3,27.9c-1.1,0-3.3-1.5-6.7-4.6c-5.9-5.4-11.1-11.8-15.7-19.3
		c7.6-10,14.4-21.8,20.3-35.4c4.2,0,6.3-0.7,6.3-2.1c0-2-4-5.1-12-9.2c-5.2,14.8-11.4,27.9-18.6,39c-6.1-13.8-9.9-31.4-11.6-52.8
		h48.9l1.6-3.1c-2.8-3.4-6.2-6.8-10-10l-6.9,9.4H134c-0.4-5.6-0.6-11.8-0.6-18.6v-4.3c3.7-1.5,5.6-2.9,5.6-4.1c0-2-4.8-3.1-14.3-3.6
		v12.2c0,7.1,0.2,13.5,0.6,19.2H78.9c-3.6-2.1-7.3-4-10.9-5.6v41.5c0,28-5.1,49.6-15.2,64.7l3.3,2.6c8.2-9,13.8-19.1,16.8-30.3
		c2.6-9.8,3.9-21.9,3.9-36.5v-5h0v-3.7h0V5.6h48.6C126.7,27,131.6,46.8,140,65c-11,14.9-24.5,26.8-40.5,35.4l1.9,3.3
		c17.5-7.4,31.8-17.9,43.1-31.6c5.8,9.4,12,16.8,18.6,22.3c6.8,5.6,12.1,8.4,15.7,8.4c3.7,0,6.3-2.2,7.8-6.6
		C183.5,95.3,181.9,91.6,181.9,85.2z"/>
	<path d="M158.9-11.2c0.9,3.1,2.5,4.7,4.8,4.7c3.5,0,5.3-1.8,5.3-5.4c0-2.5-1.5-5.3-4.4-8.3c-3.5-3.9-8.5-6.9-15-9.2l-1.8,2.9
		C153.5-22.3,157.2-17.1,158.9-11.2z"/>
</g>
</svg>
