<?xml version="1.0" encoding="utf-8"?>
<!-- Generator: Adobe Illustrator 19.0.0, SVG Export Plug-In . SVG Version: 6.00 Build 0)  -->
<svg version="1.1" id="圖層_1" xmlns="http://www.w3.org/2000/svg" xmlns:xlink="http://www.w3.org/1999/xlink" x="0px" y="0px"
	 viewBox="45 -33.8 150 150" style="enable-background:new 45 -33.8 150 150;" xml:space="preserve">
<style type="text/css">
	.st0{enable-background:new    ;}
	.st1{fill:#DC6200;}
</style>
<g class="st0">
	<path class="st1" d="M62.5,73.6c3.8,0,7.5-3.9,11.3-11.6c5.2-10.8,7.8-24.8,7.8-42l-4-1.1c-2.2,19.8-8.2,34.7-17.9,44.9
		c-1.7,1.9-2.5,3.5-2.5,5C57.2,72,58.9,73.6,62.5,73.6z"/>
	<path class="st1" d="M120.6,3.2c2.1,3.4,4.1,5.1,6,5.1c3.4,0,5.1-1.9,5.1-5.6c0-3.3-2.4-7.1-7.1-11.5c-6.8-6.2-16.8-12-30-17.4
		L92.4-23C105.7-14.8,115.1-6.1,120.6,3.2z"/>
	<path d="M54.6,99l2.3,3.4c16.9-7.7,30-15.8,39.4-24.3l0.7-0.7V68C85.8,79.4,71.7,89.7,54.6,99z"/>
	<path class="st1" d="M159,85.3c-1.1-2-1.6-7.6-1.6-16.8v-7.6l-4.2-1.7c-1,16.6-2.9,26-5.5,28.3c-1.9,1.6-9.1,2.4-21.5,2.4
		c-8.5,0-14.1-0.2-16.8-0.7c-2.4-0.4-3.6-2.2-3.6-5.3V69.4l0,0v-9.7c0,0,0,0,0,0V15.3c4.2-1.5,6.3-2.9,6.3-4.2c0-2.3-5-3.7-15-4
		v60.8c0,0-0.1,0-0.1,0.1v9.4l0.1-0.1v7.9c0,5.1,0.9,8.4,2.6,10.1c2.5,2,12.4,3,29.7,3c14.8,0,24.1-0.6,27.9-1.7
		c4-1.2,6-4.3,6.2-9.2C161.2,87.4,159.7,86.7,159,85.3z"/>
	<path d="M106.4,68.8c19.5-17.9,37.5-41.5,54.1-71c4.6,0,6.9-0.7,6.9-2.2c0-2-4.2-5-12.6-8.9c-13,27-29.3,51.3-49,72.8v9.7
		L106.4,68.8z"/>
	<path class="st1" d="M181,50.1c-5.2-9.3-14-18.7-26.5-28.2l-2.7,2.7c11.8,12.8,19.1,24.9,21.9,36c1.4,5,3.2,7.5,5.6,7.5
		c3.8,0,5.7-2.2,5.7-6.7C185,58.5,183.6,54.7,181,50.1z"/>
</g>
</svg>
