<?xml version="1.0" encoding="utf-8"?>
<!-- Generator: Adobe Illustrator 19.0.0, SVG Export Plug-In . SVG Version: 6.00 Build 0)  -->
<svg version="1.1" id="圖層_1" xmlns="http://www.w3.org/2000/svg" xmlns:xlink="http://www.w3.org/1999/xlink" x="0px" y="0px"
	 viewBox="45 -33.8 150 150" style="enable-background:new 45 -33.8 150 150;" xml:space="preserve">
<style type="text/css">
	.st0{enable-background:new    ;}
	.st1{fill:#DC6200;}
</style>
<g class="st0">
	<path class="st1" d="M111,60c-6.8,14.9-15.4,27.1-25.9,36.8l2.4,3c11.6-7.5,21.3-17.1,29.1-29c4.3,0,6.5-0.7,6.5-2.1
		C123.1,66.6,119,63.7,111,60z"/>
	<path d="M91.4-4.1c17.4-2.3,31.6-4.4,42.5-6.3c-4.2,7.7-10,16-17.3,24.9c-5-3.3-11.2-6.4-18.6-9.3l-1.8,3
		c10.7,6.5,17.9,13.3,21.7,20.4c1.7,3.2,3.5,4.8,5.3,4.8c3.1,0,4.7-1.7,4.7-5.2c0-3.4-2.6-7.1-7.8-11.3c6.9-5.4,13.6-11.7,20.1-18.9
		c0.7,0.1,1.6,0.1,2.6,0.1c2.7,0,4.1-0.6,4.1-1.8c0-1.9-3.4-4.3-10.3-7.3c10.2-1.7,20.5-3.7,31.1-6.2c2.8,0.5,4.8,0.8,6.2,0.8
		c2,0,3-0.4,3-1.3c0-1.7-3.7-4.5-11.1-8.6c-18.2,7.2-43.6,13.4-76.2,18.5L91.4-4.1z"/>
	<path d="M76.9,14.5c4.1-9,8.3-20.3,12.3-34.1c4.6-0.7,6.9-1.8,6.9-3.3c0-2-4.5-4.1-13.6-6.3C75.6,1.7,64.7,29.5,49.5,54.2l3.1,2.1
		c6.8-9.2,12.7-18.7,17.7-28.5v77.4H79V22.3c4.1-1.4,6.2-2.7,6.2-4C85.1,16.8,82.4,15.5,76.9,14.5z"/>
	<path d="M181.7,41.8c-5.4-6-13.5-11.6-24.3-16.7l-2.3,2.7c5.7,4.2,10.5,8.6,14.6,13.4l-6.9,0.4c-8.8,0.5-20.9,1.2-36.3,2.1
		c13-9.1,25.8-20,38.4-32.5c2,0.3,3.4,0.4,4.1,0.4c2.5,0,3.7-0.6,3.7-1.7c0-2-3.9-5.2-11.6-9.6c-14.8,18.2-28.5,32.5-41.1,43.1
		l-0.6,0.4c-13.2,0.5-23.8,0.8-31.6,1c1.7,8.7,3.4,13,5.1,13c1.1,0,2.1-1.7,3.1-5.1c17.8-1.4,29.9-2.4,36.3-3v0.1l8.9-0.9v-0.1
		c9.1-0.7,19-1.8,29.8-3.4l1.5-0.3c2.3,3.2,3.9,6,4.9,8.2c1.7,3.5,3.5,5.3,5.4,5.3c3.1,0,4.7-1.7,4.7-5.1
		C187.7,50.1,185.7,46.2,181.7,41.8z"/>
	<path class="st1" d="M151.8,59.8l-2.1,2.9c12.4,9.6,20.5,18.9,24.4,28.1c1.7,3.7,3.5,5.6,5.6,5.6c3.3,0,5-2,5-6
		c0-3.2-1.4-6.4-4.2-9.4C173.2,72.5,163.7,65.5,151.8,59.8z"/>
	<polygon class="st1" points="132.5,105.2 141.3,105.2 141.3,48.9 132.5,49.9 	"/>
</g>
</svg>
