<?xml version="1.0" encoding="utf-8"?>
<!-- Generator: Adobe Illustrator 19.0.0, SVG Export Plug-In . SVG Version: 6.00 Build 0)  -->
<svg version="1.1" id="圖層_1" xmlns="http://www.w3.org/2000/svg" xmlns:xlink="http://www.w3.org/1999/xlink" x="0px" y="0px"
	 viewBox="45 -33.8 150 150" style="enable-background:new 45 -33.8 150 150;" xml:space="preserve">
<style type="text/css">
	.st0{enable-background:new    ;}
	.st1{fill:#DC6200;}
</style>
<g class="st0">
	<path d="M106.2-2.7l-2.1,2.9c8.3,7.4,13.7,15,16,22.9c1.2,3.7,3,5.6,5.4,5.6c3.4,0,5.1-1.9,5.1-5.7C130.7,15.4,122.5,6.8,106.2-2.7
		z"/>
	<path class="st1" d="M128,61c5.2-6.2,9.4-11.6,12.6-16.3c8.7-13.1,16-30.2,22-51.3l4.6-2.6c1-0.4,1.5-1,1.5-1.8
		c0-1.5-3.4-5.1-10.3-10.9l-6.2,7.6H58.7l1.5,3.7h18.8c8,29.8,20.3,53.7,37.1,71.7c-16.1,17.1-36.9,30-62.4,38.7l2,3.8
		c26.6-6.6,48.9-18.6,66.9-35.9c14.8,14.1,33.9,25.2,57.3,33.3c1.8-3.7,4.3-7,7.5-9.9C163.8,85,144,74.9,128,61z M121.7,55
		c-16.6-16.8-29.1-38.7-37.5-65.6h69.1c-6.4,26.5-16.7,48.1-30.9,64.8L121.7,55z"/>
</g>
</svg>
