<?xml version="1.0" encoding="utf-8"?>
<!-- Generator: Adobe Illustrator 19.0.0, SVG Export Plug-In . SVG Version: 6.00 Build 0)  -->
<svg version="1.1" id="圖層_1" xmlns="http://www.w3.org/2000/svg" xmlns:xlink="http://www.w3.org/1999/xlink" x="0px" y="0px"
	 viewBox="45 -33.8 150 150" style="enable-background:new 45 -33.8 150 150;" xml:space="preserve">
<style type="text/css">
	.st0{enable-background:new    ;}
	.st1{fill:#D3228C;}
	.st2{fill:#DC6200;}
</style>
<g class="st0">
	<path d="M92.5,50.8c0-11.2-4.8-22.2-14.4-33.2C83.5,8.2,88-2.2,91.8-13.6l4.1-2.3c0.6-0.3,0.9-0.7,0.9-1.2c0-1.4-3-4.6-8.9-9.6
		l-5.1,6.2H67c-2.4-1.5-5.6-3.1-9.4-4.7v130.4h8.6V66.8c6.6,1.3,9.9,3.8,9.9,7.5C87,74.5,92.5,66.6,92.5,50.8z M82.5,59.4
		c-1.1,2.6-3.5,3.9-7.2,3.9c-2.1,0-5.1-0.2-9.2-0.5v-79.5h17.4c-2.6,13.4-6,25-10.1,34.9c7.2,10.5,10.8,20.3,10.8,29.4
		C84.3,52.6,83.7,56.5,82.5,59.4z"/>
	<path class="st1" d="M167.2,41.2c2.7,9.5,7.6,17.8,14.6,24.8c1.9-3.6,4.1-6.4,6.4-8.3c-12.6-9.6-19.2-21.6-19.8-36.1l4-2
		c1.5-0.7,2.2-1.5,2.2-2.3c0-1.2-2.8-4.1-8.3-8.8l-5.7,7h-12.6l1.5,3.7h14.9c0,2,0,3.3,0.1,4c-2.6,15.3-7.7,27.8-15.4,37.4l1.7,3.3
		C158.6,57.3,164.1,49.7,167.2,41.2z"/>
	<path d="M150.6,64.1c0,0,0.1-0.1,0.1-0.1l-1.7-3.3c0,0,0,0.1-0.1,0.1c-3.4-6.7-5.7-15.4-6.9-25.9V0.4h43.8l1.5-2.9
		c-2.3-3-5.9-6.6-10.5-10.8l-7.5,9.9H142v-17.9c4.6-1.3,6.9-2.7,6.9-4.2c0-2.3-5.2-3.6-15.5-3.9v25.9H92.1l1.3,3.7h40.1v33.2
		c0,33.9-15.7,56.6-47.1,68.2l2,3.4c31-8.4,48.5-26.8,52.5-55.3c1.9,9.7,4.7,17.9,8.6,24.5c6.7,11.3,17.8,20.7,33.5,28.2
		c1.3-3.4,3.6-6.3,6.7-8.7C171.1,86.9,158.1,77,150.6,64.1z"/>
	<path class="st2" d="M94.8,68.7c9.2-7.7,15.6-16.3,19-25.9c1.7,8.5,4.7,15.8,8.9,21.9c1.7-2.9,4-5.4,7-7.5
		c-8.6-9.2-13.2-21.1-13.6-35.7l3.9-1.8c1.6-0.7,2.4-1.5,2.4-2.4c0-1.2-2.8-4.1-8.4-8.6l-5.4,6.9H96.4l1.1,3.7h14.4v2.9l0.1,1.3
		c-3.1,17.8-9.6,32-19.3,42.5L94.8,68.7z"/>
</g>
</svg>
