<?xml version="1.0" encoding="utf-8"?>
<!-- Generator: Adobe Illustrator 19.0.0, SVG Export Plug-In . SVG Version: 6.00 Build 0)  -->
<svg version="1.1" id="圖層_1" xmlns="http://www.w3.org/2000/svg" xmlns:xlink="http://www.w3.org/1999/xlink" x="0px" y="0px"
	 viewBox="45 -33.8 150 150" style="enable-background:new 45 -33.8 150 150;" xml:space="preserve">
<style type="text/css">
	.st0{enable-background:new    ;}
	.st1{fill:#DC6200;}
</style>
<g class="st0">
	<path d="M70.8,35.6c4.4,0.8,7.5,1.5,9.3,2.3c2.6,1,4,2.7,4.2,5.1c11,0,16.6-5.2,16.6-15.7c0-9.6-5.3-17.3-15.9-23.1
		C90.7-2.3,95.4-8.4,99-14.2l3.6-1.8c0.6-0.3,0.9-0.7,0.9-1.2c0-1.5-2.7-4.7-8.1-9.6l-4.7,5.9h-19c-4.5-2.3-7.6-3.8-9.3-4.3v79.3
		h8.4V35.6z M70.8-17.2h20.4C88-9.5,84.3-2.4,80.2,4.2l-0.7,1c8.7,6.2,13,13.3,13,21.3c0,4.4-2.7,6.6-8.1,6.6
		c-2.2,0-6.8-0.4-13.6-1.2V-17.2z"/>
	<path d="M126.3,44.4c2-0.5,3-1,3-1.7c0-0.8-1-1.6-3-2.6v-4.2h40v3c0,2.5-1.5,3.7-4.6,3.7c-3.3,0-7.5-0.2-12.7-0.7v3.6
		c8.3,1.2,12.4,3.3,12.4,6.3c8.7,0,13.1-3.2,13.1-9.7V20l2.7-1.8c0.7-0.4,1-0.8,1-1.3c0-1.1-3-3.4-8.9-6.9l-4.5,4.2h-37.2
		c-2.8-1.2-6-2.3-9.4-3.1v27.9c-15.4,14.4-37.6,24.9-66.6,31.6l1.9,3.4c28.9-5.7,51.8-15,68.7-27.9c15.5,11.9,35.6,20.1,60.4,24.8
		c1.6-3.6,3.7-6.5,6.3-8.6C163.7,59.9,142.8,53.9,126.3,44.4z M126.3,17.9h40v5h-40V17.9z M126.3,26.6h40v5.6h-40V26.6z"/>
	<path d="M124.8-15c-5.9,11.3-13.9,21.3-24.2,30l2.6,3c4.1-3,8.2-6.3,12.2-9.7h68.5l1.5-2.4c-2-2.2-4.1-4.2-6.3-5.9
		c-0.2-0.1-0.7-0.4-1.2-0.9c-0.4-0.3-0.7-0.5-0.9-0.6l-5.3,6h-20.6v-8.7h24.3L177-7c-2.6-2.6-5.4-4.9-8.2-6.7L163.5-8h-34.4
		c1.8-2.7,3.1-5.1,4.2-7h50.9l1.6-2.9c-3.3-3.1-6.5-5.8-9.4-8.1l-6.3,7.2h-34.8c0-0.2,0.3-0.7,0.7-1.6c0.4-0.8,0.7-1.5,1-2.1
		c3.9-0.8,5.9-1.7,5.9-2.9c0-1.9-4-3.5-12-4.8c-1.7,5.1-3.1,8.9-4.3,11.4h-21L107-15H124.8z M126.6-4.3h16.3v8.7H119
		C121,2.4,123.6-0.5,126.6-4.3z"/>
	<path class="st1" d="M146.5,65.5l-2.3,2.7c9.2,6.9,15.7,14.5,19.6,22.7c1.5,3.2,3.1,4.8,4.8,4.8c3.4,0,5.1-1.9,5.1-5.6
		C173.7,82.8,164.6,74.6,146.5,65.5z"/>
	<path class="st1" d="M88.4,69.1C86,77.8,81.2,84,73.9,87.7c-2.9,1.5-4.3,3.1-4.3,4.8c0,3.4,1.7,5.1,5.1,5.1c3.1,0,6.2-1.9,9.4-5.7
		c4.4-5.4,7-12.5,7.8-21.5L88.4,69.1z"/>
	<path class="st1" d="M126.4,67.6l-2.4,2.7c6.7,6.9,11.1,14.2,13.1,21.9c0.9,3.6,2.5,5.4,4.8,5.4c3.5,0,5.3-2,5.3-5.9
		C147.2,84.4,140.3,76.3,126.4,67.6z"/>
	<path class="st1" d="M108.1,55.8v33.8c0,2.9-1.4,4.4-4.3,4.4c-4.6,0-8.9-0.3-12.8-1v3.7c7.7,1.5,11.6,4.2,11.7,8.3
		c9.2,0.1,13.8-3.1,13.8-9.7V63.3c3.3-1.4,5-2.7,5-3.9C121.5,57.3,117.1,56.1,108.1,55.8z"/>
</g>
</svg>
