<?xml version="1.0" encoding="utf-8"?>
<!-- Generator: Adobe Illustrator 19.0.0, SVG Export Plug-In . SVG Version: 6.00 Build 0)  -->
<svg version="1.1" id="圖層_1" xmlns="http://www.w3.org/2000/svg" xmlns:xlink="http://www.w3.org/1999/xlink" x="0px" y="0px"
	 viewBox="45 -33.8 150 150" style="enable-background:new 45 -33.8 150 150;" xml:space="preserve">
<style type="text/css">
	.st0{enable-background:new    ;}
	.st1{fill:#DC6200;}
</style>
<g class="st0">
	<path d="M98.5-7.9c6.2,4.2,10.3,8.7,12.2,13.3c1,2.8,2.6,4.2,4.7,4.2c2.6,0,3.9-1.5,3.9-4.5c0-2.4-1.6-5.1-4.8-8
		c4.5-5.4,8.4-11.3,11.9-17.7c3.7-0.1,5.6-0.8,5.6-2.1c0-2.1-3.7-4.4-11-7c-3.1,9.9-6.2,18.1-9.3,24.5c-3-1.9-6.8-3.7-11.4-5.4
		L98.5-7.9z"/>
	<path d="M153.3,5.3c0.9,3,2.3,4.5,4.4,4.5c2.8,0,4.2-1.5,4.2-4.6c0-2.6-1.7-5.4-5-8.6c5.4-5.7,9.6-11.2,12.7-16.6
		c3.7,0,5.6-0.5,5.6-1.6c0-2-3.6-4.7-10.8-8c-3.1,8.7-6.6,16.7-10.3,23.9c-3.3-2.3-7-4.3-11.1-5.9l-1.6,2.7
		C147.9-4.3,151.9,0.4,153.3,5.3z"/>
	<path class="st1" d="M174,40.6v28.9h-15.9V43.9c3.7-1.2,5.6-2.3,5.6-3.4c0-2.1-4.7-3.5-14-4.2v68.6h8.4V73.3H174v8.6h8.1V48
		c3.1-1.2,4.6-2.3,4.6-3.4C186.7,42.4,182.5,41.1,174,40.6z"/>
	<path d="M105.8-18.3c-2.9-3.9-5.6-7.3-8.3-10l-6.6,9H50.9l1.3,3.7h9.2v87.7c-2.2,0.4-5.7,1-10.3,1.8c2.1,8.4,4.2,11.6,6.3,11.6
		c1.1,0,1.9-1.9,2.5-5.6c7.8-2.4,18.1-6,26.1-9.1v34.5h8V68.1l6.7-2.9L99.3,62l-5.4,2v-79.6h10.3L105.8-18.3z M85.9,66
		c-4.8,1.6-10.3,3.1-16.6,4.5V41.8h16.6V66z M85.9,38.1H69.3V12.7h16.6V38.1z M85.9,9H69.3v-24.6h16.6V9z"/>
	<path d="M173.2,12l-1.8,2.6c2.8,2.5,4.9,5.1,6.4,7.8l-2.1,0.3c-8.6,0.7-15.1,1.1-19.3,1.2c10.1-9.1,18.2-17.8,24.5-26.1
		c1.7,0.2,2.7,0.3,2.9,0.3c1.8,0,2.7-0.4,2.7-1.3c0-1.8-3.2-4.8-9.7-8.9c-7.9,13.7-16.4,25.8-25.6,36.3h-1.5
		c-1.3,0.1-3.1,0.1-5.4,0.1c1.4,6.9,2.9,10.3,4.5,10.3c1,0,1.7-1.2,2.1-3.7c10.5-1.3,20.1-2.8,28.6-4.7c0.4,1.8,0.7,2.9,0.7,3.3
		c0.6,3.1,2,4.7,4.1,4.7c2.9,0,4.3-1.6,4.3-4.7C188.7,23.2,183.5,17.4,173.2,12z"/>
	<path d="M128.9,12.6l-2.1,2.3c2.4,2.4,4.2,4.9,5.6,7.5c-4.8,0.4-10.5,0.9-17.1,1.4C123,15.5,130,6.9,136.5-2.1c3.3,0,5-0.5,5-1.5
		c0-1.6-3.2-4.2-9.7-7.7c-6.5,13.2-13.6,25-21.5,35.3c-1.4,0-3.5,0.1-6.2,0.1c-2.6,0-4.4,0.1-5.5,0.1c1.4,7.4,3,11.1,4.8,11.1
		c0.8,0,1.6-1.5,2.4-4.5c11.2-1.5,20.5-3.1,27.8-4.8c0.4,1.1,0.7,2.1,0.7,3c0.3,3.3,1.6,5,3.9,5c2.9,0,4.3-1.6,4.3-4.8
		C142.5,23.2,137.9,17.7,128.9,12.6z"/>
	<path class="st1" d="M129,36.4v33.2h-15.5V48.4c3.2-1.4,4.8-2.6,4.8-3.6c0-2.1-4.3-3.3-13-3.4v40.5h8.1v-8.6H129
		c-0.7,13.6-8.5,23.2-23.3,28.9l1.8,3.5c19.9-5.3,29.9-16.9,29.9-35V43.9c3.3-1.4,5-2.6,5-3.6C142.4,38.2,137.9,36.9,129,36.4z"/>
</g>
</svg>
