<?xml version="1.0" encoding="utf-8"?>
<!-- Generator: Adobe Illustrator 19.0.0, SVG Export Plug-In . SVG Version: 6.00 Build 0)  -->
<svg version="1.1" id="圖層_1" xmlns="http://www.w3.org/2000/svg" xmlns:xlink="http://www.w3.org/1999/xlink" x="0px" y="0px"
	 viewBox="45 -33.8 150 150" style="enable-background:new 45 -33.8 150 150;" xml:space="preserve">
<style type="text/css">
	.st0{enable-background:new    ;}
	.st1{fill:#DC6200;}
</style>
<g class="st0">
	<path d="M175.3-20.6l-7.6,9.7h-43.1v-10.9c3.8-1.4,5.7-2.7,5.7-4c0-2.4-4.8-3.6-14.3-3.6v18.5H73c-2.9-1.5-6.3-2.8-10.2-4V25
		c0,35-4.6,61.4-13.8,79.4l3.1,2.1c7-9.3,12-20.1,14.8-32.4c3.1-12.5,4.7-29,4.7-49.4V-7.1h111.9l1.8-2.7
		C181.8-14.3,178.4-17.9,175.3-20.6z"/>
	<path class="st1" d="M134.6,87.1c6.6-3.6,13.3-8.1,20-13.5l5.1-1.9c1.1-0.5,1.7-1,1.7-1.5c0-1.3-3.3-4.5-9.9-9.6l-5.1,5.1h-30.7
		l-4.3,3.7h34.6c-6,5.7-12.5,10.3-19.6,13.9c-6.4-3.1-12.3-7-17.8-11.7l-3.5,2.3c5.7,5.7,10.7,9.9,15.1,12.8
		c-16.2,7.8-34.1,13.5-53.8,16.9l1.7,3.3c22.7-2.7,42.5-7.9,59.4-15.7c12.5,6.3,29.7,10.6,51.3,12.9c1.3-3.5,3.6-6.6,6.7-9.4
		C164.2,94.2,147.2,91.7,134.6,87.1z"/>
	<path d="M108.4,71.5l2.7-2.1h0.2l4.3-3.7h-0.1c3.2-2.9,6.2-5.9,9-9h31.1v3.6h8.6V25.2l3.4-2.3c1.1-0.8,1.7-1.5,1.7-2.1
		c0-1.2-3.1-4-9.3-8.6l-5.7,6.2h-29.4c2.9-2.7,5.9-6.3,9-10.7c0.4-0.4,0.6-0.7,0.7-0.9H180l1.3-2.7c-4.5-3.8-7.9-6.5-10.3-8.2
		l-7,7.2H77.4l1.9,3.7h43.1c-0.5,2.9-1.5,6.8-2.9,11.6h-18.6c-0.7-0.3-1.9-0.9-3.4-1.7c-1.4-0.6-2.3-1.1-2.9-1.3
		c-1.5-0.7-2.6-1.2-3.4-1.5v47.4h8.4v-4.6h14c-9.2,11.3-22.9,20.6-40.9,28.1l2,3.1c10.8-3.4,20.9-8.1,30.3-14c0,0,0,0,0.1,0.1
		L108.4,71.5C108.5,71.6,108.5,71.6,108.4,71.5z M99.6,22.2h56.1v7.3H99.6V22.2z M99.6,33.2h56.1v7.4H99.6V33.2z M99.6,52.9v-8.6
		h56.1v8.6H99.6z"/>
</g>
</svg>
