<?xml version="1.0" encoding="utf-8"?>
<!-- Generator: Adobe Illustrator 19.0.0, SVG Export Plug-In . SVG Version: 6.00 Build 0)  -->
<svg version="1.1" id="圖層_1" xmlns="http://www.w3.org/2000/svg" xmlns:xlink="http://www.w3.org/1999/xlink" x="0px" y="0px"
	 viewBox="45 -33.8 150 150" style="enable-background:new 45 -33.8 150 150;" xml:space="preserve">
<style type="text/css">
	.st0{enable-background:new    ;}
	.st1{fill:#DC6200;}
</style>
<g class="st0">
	<path class="st1" d="M171.2-22.9l-5.6,6.9H83.5c-2.8-1.6-6.3-3.2-10.3-4.8v38.1h8.9v-4.8h84.7v6.3h8.3V-9.5l3.9-2.3
		c1-0.6,1.5-1.2,1.5-1.9C180.5-15.2,177.4-18.3,171.2-22.9z M119.6,8.7H82.1v-21h37.5V8.7z M166.8,8.7h-39v-21h39V8.7z"/>
	<path d="M165.6,22l-5.4,6.3h-55.7l-2.3-1.2c-2.7-1.5-5.4-2.8-8.1-4v82h8.4v-9.7h58.7v9.7h8.6V35.1l3.7-2.4c1-0.6,1.5-1.2,1.5-1.9
		C175.1,29.3,171.9,26.4,165.6,22z M161.2,91.7h-58.7V73.6h58.7V91.7z M161.2,69.9h-58.7V52.4h58.7V69.9z M161.2,48.7h-58.7V32.1
		h58.7V48.7z"/>
	<path d="M73.2,22.9c0,33.2-6.5,59.2-19.6,78l3.3,2.7c10.3-11.7,17.3-25,21-39.9c2.8-11.2,4.2-24.8,4.2-40.8v-5.7h-8.9V22.9z"/>
</g>
</svg>
