<?xml version="1.0" encoding="utf-8"?>
<!-- Generator: Adobe Illustrator 19.0.0, SVG Export Plug-In . SVG Version: 6.00 Build 0)  -->
<svg version="1.1" id="圖層_1" xmlns="http://www.w3.org/2000/svg" xmlns:xlink="http://www.w3.org/1999/xlink" x="0px" y="0px"
	 viewBox="45 -33.8 150 150" style="enable-background:new 45 -33.8 150 150;" xml:space="preserve">
<style type="text/css">
	.st0{enable-background:new    ;}
	.st1{fill:#DC6200;}
</style>
<g class="st0">
	<path d="M124.1,2.2h57.3l1.8-3c-3-3.6-6.7-7.5-11-11.9l-8.6,11.1h-39.6v-18c4.7-1.5,7-3,7-4.3c0-2.3-5.3-3.6-15.9-3.7v26.1H56.9
		l1.7,3.7h56.7v28.9h8.9V2.2z"/>
	<path class="st1" d="M128.4,73.1c11-9.6,21.1-21.2,30.3-34.6l4.5-2.4c1.3-0.7,2-1.4,2-2.2c0-1.6-3.1-4.8-9.4-9.7l-6.3,7h-25.3v-0.1
		h-8.9v0.1h-48l1.4,3.7h14.2c10.8,16.8,21.8,29.6,32.7,38.5C97,86.6,77.3,96,56.6,101.6l2.3,3.4c22.9-4.6,43.7-13.2,62.5-25.9
		l0.9-0.6c15,10.2,33.5,18.3,55.5,24.3c1.6-3.1,4.1-6.2,7.3-9.3C161.5,89,142.6,82.2,128.4,73.1z M121.5,68.7
		C110,60.3,99,49.1,88.4,34.9h61.5C142.9,46.9,133.4,58.2,121.5,68.7z"/>
</g>
</svg>
