<?xml version="1.0" encoding="utf-8"?>
<!-- Generator: Adobe Illustrator 19.0.0, SVG Export Plug-In . SVG Version: 6.00 Build 0)  -->
<svg version="1.1" id="圖層_1" xmlns="http://www.w3.org/2000/svg" xmlns:xlink="http://www.w3.org/1999/xlink" x="0px" y="0px"
	 viewBox="45 -33.8 150 150" style="enable-background:new 45 -33.8 150 150;" xml:space="preserve">
<style type="text/css">
	.st0{enable-background:new    ;}
	.st1{fill:#DC6200;}
</style>
<g class="st0">
	<path class="st1" d="M176-6l-7.5,11.3h-13v-23.7c4.4-1.7,6.6-3.2,6.6-4.6c0-2.6-5.2-3.9-15.7-3.7V5.3H92.8v-23.9
		c4.6-1.6,6.9-3.1,6.9-4.6c0-2.3-5.3-3.6-16-3.7V5.3H54.4l1.2,3.7h28.1v94.1h9.2V90.9h53.4v12.3h9.2V9.1h28.5l1.7-3
		C182.7,1.9,179.5-2.1,176-6z M146.2,43.8L146.2,43.8l-0.1,3.7h0.1v39.6H92.8V47.5h0v-3.7h0V9.1h53.4V43.8z"/>
	<rect x="92.8" y="43.8" width="53.3" height="3.7"/>
</g>
</svg>
