<?xml version="1.0" encoding="utf-8"?>
<!-- Generator: Adobe Illustrator 19.0.0, SVG Export Plug-In . SVG Version: 6.00 Build 0)  -->
<svg version="1.1" id="圖層_1" xmlns="http://www.w3.org/2000/svg" xmlns:xlink="http://www.w3.org/1999/xlink" x="0px" y="0px"
	 viewBox="45 -33.8 150 150" style="enable-background:new 45 -33.8 150 150;" xml:space="preserve">
<style type="text/css">
	.st0{enable-background:new    ;}
	.st1{fill:#DC6200;}
</style>
<g class="st0">
	<path class="st1" d="M88.7-9.2H174l1.8-2.9c-3.2-3.8-6.7-7.3-10.5-10.5l-7.5,9.6H90.6c0.3-0.6,1.7-3.3,4-8.3c4.7-1,7-2.2,7-3.4
		c0-1.9-4.8-3.9-14.3-5.9c-7.6,23-19.3,42.1-35.1,57.3l2.7,3C68.2,19.9,79.4,6.9,88.7-9.2z"/>
	<path d="M158.2-5.3l-7,8.9H84.7l1.7,3.7h79.8l1.8-2.9C165,1,161.7-2.2,158.2-5.3z"/>
	<path d="M183,87.6c0-3.3,0.5-11.2,1.6-23.9l-3.6-2.4c-2.2,18.3-4.5,27.5-6.7,27.5c-1.3,0-3.3-2.8-6.2-8.3
		c-6.4-13-9.7-30.5-9.9-52.4l4.2-2.7c0.6-0.4,1-0.9,1-1.3c0-1.3-3-4.4-9-9.3l-6.2,7.3H66.9l1.8,3.7h80.9c0.3,28,4.9,49.4,13.7,64.2
		c5.8,9.9,11.6,14.9,17.4,14.9c3.2,0,5.4-2,6.7-5.9C184.4,97.3,183,93.5,183,87.6z"/>
	<path d="M84.1,59.7c3.4,0,5.1-1.9,5.1-5.7c0-6.7-6.2-12.9-18.5-18.5l-2,2.3c5.9,5.7,9.5,11.7,10.8,18
		C80.1,58.4,81.6,59.7,84.1,59.7z"/>
	<path d="M139.5,52.9l-6,8.6h-11.7c4.2-4.6,8.5-10,12.9-16.2c4.2,0,6.3-0.7,6.3-2c0-2.2-4.1-4.9-12.3-8.2
		c-2.7,8.4-6.8,17.2-12.2,26.4h-8.1V37.8c3.8-1.4,5.7-2.6,5.7-3.6c0-1.9-4.7-3.1-14-3.9v31.2H61.9l1.8,3.7h32.2
		C86,78.7,73.7,89.4,58.9,97.5l2.3,3c15-6.2,28-15.1,38.8-26.8v29.5h8.3V75c10.9,5.2,18.8,10.8,23.4,16.6c1.9,2.5,3.7,3.7,5.4,3.7
		c3,0,4.5-1.6,4.5-4.8c0-7.6-11.1-14.1-33.3-19.5v-5.9h38.2l1.8-2.9C145.9,59.2,142.9,56,139.5,52.9z"/>
</g>
</svg>
