<?xml version="1.0" encoding="utf-8"?>
<!-- Generator: Adobe Illustrator 19.0.0, SVG Export Plug-In . SVG Version: 6.00 Build 0)  -->
<svg version="1.1" id="圖層_1" xmlns="http://www.w3.org/2000/svg" xmlns:xlink="http://www.w3.org/1999/xlink" x="0px" y="0px"
	 viewBox="45 -33.8 150 150" style="enable-background:new 45 -33.8 150 150;" xml:space="preserve">
<style type="text/css">
	.st0{enable-background:new    ;}
	.st1{fill:#DC6200;}
</style>
<g class="st0">
	<path class="st1" d="M62.4,31.5c3.8,0,5.7-2.2,5.7-6.7c0-7.5-4.5-15.5-13.5-23.9l-2.6,2c4.2,8.1,6.4,16,6.6,24
		C58.7,29.9,60,31.5,62.4,31.5z"/>
	<path d="M131.5,41.7l-6.3,8.7h-8.7c0.1-1.2,0.1-2.8,0.1-4.6V21.9h19.6l1.7-2.7c-2.6-3.4-5-6-7.1-7.9c-0.4-0.5-0.8-1-1.3-1.4
		l-6.2,8.3h-20.1c1.2-3.4,2.3-7.2,3.1-11.4c3.9-0.9,5.9-1.9,5.9-3.1c0-2-4.4-3.9-13.3-5.7c-2.2,18.2-6.5,33.2-12.7,45l3.1,2.1
		c5.4-6.9,9.6-14.6,12.7-23.1h6.2v23.9c0,1.8,0,3.3-0.1,4.6H84.2l1.5,3.7h22.2c-2.3,21.4-12.2,37.4-29.6,48l2.3,3.1
		c17.2-7.6,28.2-19.8,33.2-36.7c6.3,7.3,10.6,14.8,13,22.5c1.4,3.8,3,5.7,4.9,5.7c3.3,0,5-1.8,5-5.4c0-7.9-7.3-17-21.8-27.3
		c0.6-3.9,1.1-7.2,1.4-9.9H139l1.5-2.7C137.3,47.4,134.3,44.1,131.5,41.7z"/>
	<path class="st1" d="M178.8-18.3l-7.3,9.6h-39.9v-13.3c4.4-1.2,6.6-2.4,6.6-3.6c0-2-5.1-3.2-15.2-3.5v20.4H83.7
		c-3-1.4-6.3-2.8-10-4v51.7C66,45.1,57.9,50.4,49.4,54.8c3.5,7.7,6.1,11.6,7.8,11.6c1.3,0,2-2.1,2.1-6.3c5.3-4.7,9.9-9.6,14-14.7
		c-1.7,23.5-8.7,42.9-21.2,58.2l2.7,2.6c18.3-16.1,27.5-38.9,27.5-68.4V-5h105l1.6-2.7C186.3-11.3,182.9-14.8,178.8-18.3z"/>
	<path d="M176.8,6.1l-5.2,6.7h-19.5c-2.8-1.3-6-2.7-9.4-4v92.5h8.4V87.7h21.4v11.7h8.4v-80l3.4-2.6c0.7-0.4,1-0.9,1-1.6
		C185.4,13.8,182.5,10.8,176.8,6.1z M172.5,84h-21.4V16.6h21.4V84z"/>
</g>
</svg>
