<?xml version="1.0" encoding="utf-8"?>
<!-- Generator: Adobe Illustrator 19.0.0, SVG Export Plug-In . SVG Version: 6.00 Build 0)  -->
<svg version="1.1" id="圖層_1" xmlns="http://www.w3.org/2000/svg" xmlns:xlink="http://www.w3.org/1999/xlink" x="0px" y="0px"
	 viewBox="45 -33.8 150 150" style="enable-background:new 45 -33.8 150 150;" xml:space="preserve">
<style type="text/css">
	.st0{enable-background:new    ;}
	.st1{fill:#DC6200;}
</style>
<g class="st0">
	<path d="M72.6,75.4c0-2.5,0.9-6,2.7-10.3l26.3-65L98-2.7C88.5,20.5,79,40.1,69.6,56.1c-2.8,4.8-6.5,7.2-10.9,7.2
		c-1.4,0-3.2-0.1-5.3-0.4v3.9c4,0.7,6.8,1.8,8.4,3.3c2.4,2.2,3.6,6.3,3.6,12c0,2.7-0.2,6.6-0.7,11.5c-0.5,3.6-0.8,5.8-0.8,6.5
		c0,3.3,1.7,4.9,5,4.9c4.6,0,6.9-3.2,6.9-9.7c0-3.1-0.8-7.8-2.3-13.9C72.9,78.7,72.6,76.7,72.6,75.4z"/>
	<path d="M76.5-8.3c0.7,2.2,2,3.3,3.9,3.3c3.4,0,5.1-1.9,5.1-5.7c0-6.6-6.6-12-19.9-16.2L63.8-24C70.3-19.6,74.5-14.3,76.5-8.3z"/>
	<path d="M64.1,22.5C65,26.2,66.6,28,69,28c3.2,0,4.8-1.9,4.8-5.6c0-6.8-6.3-12.4-18.9-16.8l-1.8,2.5C59.4,12.8,63,17.5,64.1,22.5z"
		/>
	<path class="st1" d="M124.6-20.6c3.5-1.3,5.3-2.6,5.3-3.8c0-2-4.7-3.4-14.1-4c1.8,28.7-6.3,50.1-24.3,64l2.5,2.6
		C114.4,27.8,124.6,8.2,124.6-20.6z"/>
	<path class="st1" d="M184.5,26.4c-0.7-3.4-3-4.6-7-3.7c-3.6,0.9-7.4,1.3-11.4,1.3c-2.8,0-4.7-0.3-5.5-0.8c-0.7-0.4-1.1-1.5-1.1-3.1
		v-40.4c4.5-1.4,6.7-2.7,6.7-4.1c0-2.2-5.2-3.6-15.6-4v51.1c0,4.6,1.1,7.4,3.3,8.5c2,0.8,6.5,1.2,13.6,1.2c6.5,0,11-0.4,13.4-1.2
		C183.9,30.2,185,28.6,184.5,26.4z"/>
	<path d="M165.8,37.3l-5.4,6.6h-45.1c-2.5-1.5-5.9-3.2-10.3-5.1v66.4h8.7V94h47.8v11.2h8.7V50.4l3.6-2.6c0.8-0.6,1.2-1.2,1.2-1.8
		C174.9,44.7,171.9,41.8,165.8,37.3z M161.4,90.3h-47.8V47.7h47.8V90.3z"/>
</g>
</svg>
