<?xml version="1.0" encoding="utf-8"?>
<!-- Generator: Adobe Illustrator 19.0.0, SVG Export Plug-In . SVG Version: 6.00 Build 0)  -->
<svg version="1.1" id="圖層_1" xmlns="http://www.w3.org/2000/svg" xmlns:xlink="http://www.w3.org/1999/xlink" x="0px" y="0px"
	 viewBox="45 -33.8 150 150" style="enable-background:new 45 -33.8 150 150;" xml:space="preserve">
<style type="text/css">
	.st0{enable-background:new    ;}
	.st1{fill:#DC6200;}
</style>
<g class="st0">
	<path d="M174.9,85.5L166.7,96H54.6l1.2,3.7H184l1.7-2.9C182.8,93.3,179.2,89.5,174.9,85.5z"/>
	<path d="M141.8-11.4V1.4h8.6v-12.9h34.2l1.5-3.1c-2.6-3.3-5.8-6.5-9.4-9.7l-7.2,9.2h-19v-6.7c3.9-1.5,5.9-2.9,5.9-4.2
		c0-2.3-4.8-3.5-14.4-3.5v14.4h-18.5l1.5,3.7H141.8z"/>
	<path d="M88.2-11.4V1.4h8.6v-12.9h21.9l1.5-3.1c-2.4-2.7-5.6-5.7-9.4-9.2l-6.6,8.6h-7.3v-7.2c3.9-1.4,5.9-2.7,5.9-4.1
		c0-2.1-4.8-3.1-14.4-3.3v14.6H54.4l1.5,3.7H88.2z"/>
	<path class="st1" d="M176.7,2.1L171,9.4h-47.4V0.7c3.9-1.5,5.9-2.8,5.9-4c0-2.1-4.8-3.3-14.3-3.4V9.4H72.7c0-2.6-0.1-4.5-0.3-5.7
		l-3.7-0.6c-1.4,9.3-4.6,16.1-9.7,20.4c-2.4,2-3.6,3.8-3.6,5.4c0,1.2,0.5,2.3,1.5,3.4c1.2,1.3,2.5,1.9,4.1,1.9
		c2.8,0,5.3-1.9,7.5-5.7c2.3-3.9,3.7-9,4.2-15.3h99.2c-0.4,3.4-1.5,8-3.3,13.6l3.1,1.8c3.2-3.1,6.2-6.9,9.2-11.3l5.1-1
		c1.2-0.1,1.8-0.6,1.8-1.5C187.6,12.9,184,8.6,176.7,2.1z"/>
	<path d="M159.3,87.9V47.8l3.4-2.4c0.8-0.6,1.2-1.3,1.2-1.9c0-1.3-3-4.1-9-8.4l-5.4,6.2H89.7c-3.2-1.5-6.6-3-10.2-4.3v51.6h8.4v-6.3
		h62.8v5.7H159.3z M87.9,78.4V63H149l1.6-2.9c-2.5-2.7-5-5.2-7.4-7.4l-5.1,6.5H87.9V44.9h62.8v33.5H87.9z"/>
	<path d="M155.4,17.3l-7.5,7.8h-74l1.7,3.7h87.9l1.8-2.9C162.8,23.4,159.5,20.5,155.4,17.3z"/>
</g>
</svg>
