<?xml version="1.0" encoding="utf-8"?>
<!-- Generator: Adobe Illustrator 19.0.0, SVG Export Plug-In . SVG Version: 6.00 Build 0)  -->
<svg version="1.1" id="圖層_1" xmlns="http://www.w3.org/2000/svg" xmlns:xlink="http://www.w3.org/1999/xlink" x="0px" y="0px"
	 viewBox="45 -33.8 150 150" style="enable-background:new 45 -33.8 150 150;" xml:space="preserve">
<style type="text/css">
	.st0{enable-background:new    ;}
	.st1{fill:#DC6200;}
</style>
<g class="st0">
	<path d="M183.5,90.1c0-2,0.4-6.7,1.2-14.1l-3.4-1.8c-2.2,12.8-4.5,19.2-6.9,19.2c-0.8,0-2.3-0.8-4.4-2.3
		c-3.9-2.7-7.3-6.1-10.2-10.2c5.3-5.3,9.8-11.1,13.6-17.4c0.6,0.1,1.2,0.1,1.8,0.1c2.5,0,3.7-0.6,3.7-1.7c0-2-3.1-4.6-9.4-8.1
		c-4,7.9-8.5,14.9-13.6,21c-3.8-7.7-6.4-15.9-7.7-24.6h38.5l1.6-3.1c-2.7-3.2-5.4-5.8-8-7.9l-5.9,7.3h-26.6
		c-0.1-2.4-0.3-5.2-0.4-8.4c2.7-1,4-2.1,4-3.1c0-2.2-4.1-3.3-12.2-3.3c0.1,6,0.5,11.1,1,15.3h-25.6l-8.3-3.9v14.8
		c0,19.3-5.3,34.6-15.9,45.8l2.6,2.6c13.6-10.4,20.8-25.3,21.5-44.6c7,6.3,11.3,11.8,12.8,16.3c1.1,3.2,2.7,4.8,4.8,4.8
		c2.9,0,4.3-1.7,4.3-5c0-5.5-7.3-12.3-21.8-20.2l-0.1,0.2v-7.1h26.1c1.8,11,5,21,9.7,30c-8.8,9-19.8,16.1-32.7,21.2l2,3.1
		c14.4-4,26-10.3,34.9-18.8c3.9,5.2,7.9,9.2,12.2,12c5.5,3.7,10.2,5.6,14.1,5.6c3.4,0,5.7-2.1,6.7-6.3
		C184.9,97,183.5,94.5,183.5,90.1z"/>
	<path d="M157.5-11.9h28.8l1.5-2.9c-2.2-2.9-5.2-6.1-9-9.6l-6.3,8.7h-15v-6.9c3.7-1.3,5.6-2.5,5.6-3.6c0-2.1-4.6-3.1-13.7-3.3v28.3
		h8.1V-11.9z"/>
	<path d="M178.3,9.6l3.3-2.4c0.7-0.4,1-0.9,1-1.5c0-1.4-2.8-4-8.4-7.8l-4.8,5.6h-54.6c-1.9-1-5-2.4-9.3-4.2v35.5h8v-5.4h56.8v3.7h8
		V9.6z M126.4,25.6h-12.9V7.2h12.9V25.6z M148.2,25.6h-14.1V7.2h14.1V25.6z M170.3,25.6h-14.5V7.2h14.5V25.6z"/>
	<path class="st1" d="M94.8,59.7c2.7,0,4-1.5,4-4.6c0-4.2-3.5-9.1-10.5-14.6c3.3-2.1,6.3-4.7,9-7.8c3.7,0,5.6-0.6,5.6-1.7
		c0-1.6-3.2-4.3-9.6-8.3c-2.3,5.7-5,10.9-8.1,15.6c-3.4-2.2-5.9-3.9-7.6-4.8v-2c5.2-8.1,10-17,14.4-27l3.7-1.7c0.7-0.3,1-0.7,1-1.3
		c0-1.4-2.9-4.9-8.7-10.3l-5.7,7.5H77v-20.6c3.9-1.7,5.8-3.1,5.8-4.2c0-1.9-4.5-3-13.4-3.3v28.1H51.1l1.2,3.7h31
		C76.2,23,64.8,41.9,49.2,59l2.6,3c6.4-5.9,12.3-12.2,17.6-18.9v62.1h8.1V37.7c6.4,6.4,10.7,12.4,12.9,18
		C91.5,58.4,92.9,59.7,94.8,59.7z"/>
	<path d="M156.7,31.3l-1.3,2.6c4,2.6,6.4,5.3,7.3,7.9c0.9,2.2,2.2,3.3,4,3.3c2.8,0,4.2-1.4,4.2-4.3
		C170.8,36.4,166.1,33.3,156.7,31.3z"/>
	<path d="M124.6-11.9v10.8h8.1v-21.5c3.6-1.4,5.4-2.6,5.4-3.6c0-2-4.5-3-13.5-3.1v13.8H99.2l1.6,3.7H124.6z"/>
</g>
</svg>
