<?xml version="1.0" encoding="utf-8"?>
<!-- Generator: Adobe Illustrator 19.0.0, SVG Export Plug-In . SVG Version: 6.00 Build 0)  -->
<svg version="1.1" id="圖層_1" xmlns="http://www.w3.org/2000/svg" xmlns:xlink="http://www.w3.org/1999/xlink" x="0px" y="0px"
	 viewBox="45 -33.8 150 150" style="enable-background:new 45 -33.8 150 150;" xml:space="preserve">
<style type="text/css">
	.st0{enable-background:new    ;}
	.st1{fill:#DC6200;}
</style>
<g class="st0">
	<path class="st1" d="M175.4,31.6l-7.7,10.2h-25.8V8c12.5-3.2,22.5-6.1,29.9-8.7c4.9,0.9,7.3,0.5,7.3-1.2c0-1.8-3.4-4.8-10.3-9.2
		c-8.4,4.7-17.4,8.9-26.9,12.5v-21.8c4.2-1.5,6.3-2.9,6.3-4.2c0-2-5.1-3.1-15.3-3.4V4.6c-7.2,2.3-14.8,4.4-22.8,6.3l2.2,3.3
		c4-0.6,10.9-2,20.6-4v31.6h-23.2l1.7,3.7h21.5v18.9h9V45.5h42.3l1.5-2.7C182.7,39.1,179.2,35.3,175.4,31.6z"/>
	<path d="M110.3,30.4c-6.9,2.8-14.7,5.7-23.4,8.7V8.2h22l2.6-3.3c-2.1-3.1-5.1-6.6-8.9-10.5l-6.7,10h-9v-24.6
		c4.4-1.5,6.6-2.9,6.6-4.2c0-2.2-5.1-3.4-15.2-3.6V4.4H54.4l1.5,3.7h22.4v33.6C71,44,63,46.1,54.3,48.2c2.5,8.8,4.9,13.2,7.2,13.2
		c1.2,0,2.1-2,2.7-6c7.4-2.8,12.1-4.7,14.1-5.6v38.7c0,2.6-1.6,3.9-4.8,3.9c-5.6,0-10.9-0.3-15.7-1v4c5,0.9,8.6,1.7,10.8,2.6
		c3,1.4,4.5,3.6,4.5,6.7c9.2,0,13.8-3.8,13.8-11.5V46.1c7.2-3.3,15.3-7.3,24.3-12L110.3,30.4z"/>
	<path d="M182.9,86.6c-1.1-2.6-1.7-8.4-1.7-17.4v-2.9l-4-1.7c-1.1,13.9-2.5,21.7-4,23.6c-1.1,1.3-2.4,2.1-3.7,2.4
		c-2,0.5-6.5,0.7-13.7,0.7c-6.4,0-10.3-0.2-11.8-0.7c-1.4-0.5-2.1-1.8-2.1-4V64.4h-9V89c0,4.8,1.2,7.8,3.7,9.2
		c2.6,1.4,10.5,2.1,23.6,2.1c11.7,0,19-0.5,21.9-1.5c3.5-1.2,5.4-4.3,5.9-9.2C185.5,89.6,183.8,88.6,182.9,86.6z"/>
</g>
</svg>
