<?xml version="1.0" encoding="utf-8"?>
<!-- Generator: Adobe Illustrator 19.0.0, SVG Export Plug-In . SVG Version: 6.00 Build 0)  -->
<svg version="1.1" id="圖層_1" xmlns="http://www.w3.org/2000/svg" xmlns:xlink="http://www.w3.org/1999/xlink" x="0px" y="0px"
	 viewBox="45 -33.8 150 150" style="enable-background:new 45 -33.8 150 150;" xml:space="preserve">
<style type="text/css">
	.st0{enable-background:new    ;}
	.st1{fill:#DC6200;}
</style>
<g class="st0">
	<path d="M187.2,96.6c-2-3.2-4.5-6.4-7.7-9.7l-6.7,10.6h-9V71.7l3.6-2.3c0.7-0.4,1-0.8,1-1.3c0-1.4-3.1-4.3-9.2-8.6l-5.3,5.6H85.4
		c-3.5-1.6-6.9-2.8-10.3-3.7v36.1H52l1.8,3.7h132.9l1.5-3L187.2,96.6z M101.3,97.5H83.7V68.8h17.6V97.5z M127.6,97.5h-18.2V68.8
		h18.2V97.5z M155.2,97.5h-19.5V68.8h19.5V97.5z"/>
	<path d="M55.9-1.7L57.6,2h56.7v12.2H68.4l1.7,3.7h44.2v14.1H54.9l1.7,3.7h127.1l1.8-3c-2.8-3.1-6.2-6.4-10.1-9.9l-7.5,9.2h-45.1
		V17.9h30.7v6.8h8.3V2H183l1.5-2.9c-2.1-2.9-4.3-5.7-6.9-8.4c-0.4-0.5-0.8-0.9-1.3-1.3L170-1.7h-8.1V-10l3.4-2.1
		c0.9-0.4,1.4-1,1.4-1.8c0-1.6-3-4.7-9-9.3l-5.6,6.6h-29.2v-6.9c4.3-1.4,6.4-2.7,6.4-4c0-2.1-5-3.1-15-3.1v14H70.5l1.8,3.7h42v11.1
		H55.9z M122.9-12.8h30.7v11.1h-30.7V-12.8z M122.9,2h30.7v12.2h-30.7V2z"/>
	<path class="st1" d="M61.5,53.7c-2.6,0.9-3.9,2.5-3.9,4.6c0,3.4,1.8,5.1,5.4,5.1c3.5,0,6.9-2.3,10.2-7c2.8-3.8,4.8-9.3,6-16.5
		l-3.4-1.2C72.1,46.7,67.3,51.7,61.5,53.7z"/>
	<path class="st1" d="M97.7,39.4c2.2,4.8,3.3,9.4,3.3,13.6c0,5.4,1.4,8.1,4.3,8.1c3.6,0,5.4-2,5.4-6c0-5.4-3.5-11.1-10.5-17.1
		L97.7,39.4z"/>
	<path class="st1" d="M126.6,40c4.5,5.1,7.2,10.6,7.9,16.3c0.3,2.9,1.7,4.3,4.2,4.3c3.6,0,5.4-1.8,5.4-5.4c0-5.9-5.1-11.6-15.2-17.2
		L126.6,40z"/>
	<path class="st1" d="M156.9,41.7c8.4,5.2,13.9,10.4,16.5,15.6c1.4,2.7,3.1,4,5.1,4c3.3,0,5-1.7,5-5.1c0-6.3-8.3-12.1-24.9-17.5
		L156.9,41.7z"/>
</g>
</svg>
