<?xml version="1.0" encoding="utf-8"?>
<!-- Generator: Adobe Illustrator 19.0.0, SVG Export Plug-In . SVG Version: 6.00 Build 0)  -->
<svg version="1.1" id="圖層_1" xmlns="http://www.w3.org/2000/svg" xmlns:xlink="http://www.w3.org/1999/xlink" x="0px" y="0px"
	 viewBox="45 -33.8 150 150" style="enable-background:new 45 -33.8 150 150;" xml:space="preserve">
<style type="text/css">
	.st0{enable-background:new    ;}
	.st1{fill:#DC6200;}
</style>
<g class="st0">
	<path d="M88,63.3c5.3-15.3,8.9-32.9,10.8-52.8l3.1-2.1c0.8-0.5,1.2-1.1,1.2-1.9c0-1.4-2.8-4.6-8.3-9.6L89.2,4H77.1
		c1.5-7.4,2.9-15.7,4.2-24.9c4.5-0.7,6.7-1.8,6.7-3.3c0-2.1-4.7-3.8-14.1-5.1C72.4-18.2,70.6-7.1,68.5,4h-16l1,3.7h14.3
		C63.9,27.3,59.4,46,54.3,64l7.6,2.4c1.7-5.7,2.7-9.2,3-10.5c4.4,2.4,8.9,5.5,13.3,9.2c-6.2,14.5-14.6,26.8-25.5,36.9l2.3,3.1
		C68,95.8,78,84.4,84.8,70.9c3.5,3.4,6.3,6.6,8.4,9.7c2.5,3.4,4.4,5.1,5.9,5.1c3.2,0,4.8-1.7,4.8-5C103.9,76.2,98.6,70.3,88,63.3z
		 M80.5,58.9c-3.8-2.1-8.6-4.2-14.6-6.6c4.8-18,8.3-32.9,10.5-44.5h13.6C88.7,27.1,85.5,44.2,80.5,58.9z"/>
	<path d="M125.5,6v68.6h8.4V13.5c3.9-1.3,5.9-2.7,5.9-4.2C139.8,7.1,135,6,125.5,6z"/>
	<path d="M144.2,26.6h8.3v-4.8h15.3v28.3h-14.1c-2.5-1.2-5.7-2.4-9.4-3.6v44.5h8.3V54h15.3v6.7h8.1V24.5l3.6-2.5
		c0.9-0.6,1.4-1.2,1.4-1.8c0-1.4-3-4.4-9.1-9l-5.5,6.9h-13.8V-12h-8.3V26.6z"/>
	<path class="st1" d="M179.3,81.3l-7,9.9h-19.7v0h-8.3v0h-28.8V-12h28.8v0h8.3v0h29.7l1.5-3.1c-2.6-3.2-5.7-6.4-9.4-9.7l-6.9,9.2
		H117c-3-1.9-6.4-3.7-10.1-5.4v126.4h8.6V94.9h71.5l1.6-3C186,88.5,182.9,84.9,179.3,81.3z"/>
</g>
</svg>
