<?xml version="1.0" encoding="utf-8"?>
<!-- Generator: Adobe Illustrator 19.0.0, SVG Export Plug-In . SVG Version: 6.00 Build 0)  -->
<svg version="1.1" id="圖層_1" xmlns="http://www.w3.org/2000/svg" xmlns:xlink="http://www.w3.org/1999/xlink" x="0px" y="0px"
	 viewBox="45 -33.8 150 150" style="enable-background:new 45 -33.8 150 150;" xml:space="preserve">
<style type="text/css">
	.st0{enable-background:new    ;}
	.st1{fill:#DC6200;}
</style>
<g class="st0">
	<path class="st1" d="M176-12.8l-6.3,7.5h-45.9v-16c4.1-1.7,6.2-3.1,6.2-4.4c0-2.1-5-3.3-15-3.6v24H71.4C71.3-7,71-8.9,70.6-11.2
		l-4-0.3c-0.3,10.5-3,18.6-8.1,24.1c-2.4,2.6-3.6,4.6-3.6,6.2c0,3.5,1.9,5.3,5.6,5.3c3.2,0,6-2.5,8.2-7.5c2-4.5,3-10.4,3-17.7v-0.4
		h98.7c-2,4.9-5,10.6-9,17.1l3,2.6c6.4-5.2,11.5-10,15.3-14.5l5.3-1.1c1.5-0.3,2.3-0.9,2.3-1.8C187.4-1.3,183.6-5.8,176-12.8z"/>
	<path d="M125.6,35.1h53.9l1.9-2.9c-3.7-4.4-7.2-8-10.6-10.8l-7.8,9.9h-39.1v-19c4.2-1.7,6.3-3.1,6.3-4.3c0-2.3-5.1-3.6-15.2-4v27.3
		H59l1.5,3.7H110C96.4,58.2,77.4,76.7,52.8,90.7l2.6,3.7c25.5-12.5,45.4-29.1,59.5-49.8v60.7h8.9V39.1
		c12.8,21.5,31.1,38.6,54.9,51.1c2-3.4,4.7-6.4,8-9.2C161.8,71.1,141.5,55.8,125.6,35.1z"/>
</g>
</svg>
