<?xml version="1.0" encoding="utf-8"?>
<!-- Generator: Adobe Illustrator 19.0.0, SVG Export Plug-In . SVG Version: 6.00 Build 0)  -->
<svg version="1.1" id="圖層_1" xmlns="http://www.w3.org/2000/svg" xmlns:xlink="http://www.w3.org/1999/xlink" x="0px" y="0px"
	 viewBox="45 -33.8 150 150" style="enable-background:new 45 -33.8 150 150;" xml:space="preserve">
<style type="text/css">
	.st0{enable-background:new    ;}
	.st1{fill:#DC6200;}
</style>
<g class="st0">
	<path d="M166.9-19.8l-6.2,8.1H59.6l1.5,3.7h48.4c0,17.8-1.2,32.7-3.6,44.5c-2.3,11.8-6.3,22.2-11.7,31.2
		c-7.9,13.1-19.7,24.6-35.4,34.4l2.6,3.3c14.6-7.2,26.2-15.8,34.7-25.7c8.5-10,14.8-22.5,18.8-37.6c3-11.2,4.5-27.9,4.5-50.1H162
		c-0.1,42.8-1.9,71.7-5.1,86.5c-1.8,7.9-5.5,11.9-11.4,11.9c-8.1,0-18.2-1-30.3-3.1v4.2c10.2,1.9,16.8,3.4,19.9,4.6
		c4.8,1.8,7.3,4.3,7.3,7.4c10.7,0.1,17.9-4.4,21.8-13.7c4.6-11.6,7-43.2,7.2-94.9l3.6-2.6c1.1-0.8,1.7-1.5,1.7-2.3
		C176.6-11.3,173.4-14.6,166.9-19.8z"/>
</g>
<g>
	<path class="st1" d="M94.3,32.2C87.6,25,77.8,17.9,64.9,10.8l-2.2,2.8c14.2,10.2,24,21.2,29.4,32.9c1.7,4,3.7,6,5.9,6
		c3,0,4.5-1.6,4.5-4.8C102.5,43.3,99.8,38.1,94.3,32.2z"/>
</g>
</svg>
