<?xml version="1.0" encoding="utf-8"?>
<!-- Generator: Adobe Illustrator 19.0.0, SVG Export Plug-In . SVG Version: 6.00 Build 0)  -->
<svg version="1.1" id="圖層_1" xmlns="http://www.w3.org/2000/svg" xmlns:xlink="http://www.w3.org/1999/xlink" x="0px" y="0px"
	 viewBox="45 -33.8 150 150" style="enable-background:new 45 -33.8 150 150;" xml:space="preserve">
<style type="text/css">
	.st0{enable-background:new    ;}
	.st1{fill:#DC6200;}
</style>
<g class="st0">
	<path d="M114.9,5.9v30.6h8.9V5.9h52.8l1.9-3.1c-4.5-5-8.1-8.9-10.9-11.6l-8.3,11h-35.5v-20.3c4.5-1.3,6.7-2.7,6.7-4
		c0-2.3-5.2-3.6-15.6-3.7V2.2H61.3l1.6,3.7H114.9z"/>
	<path class="st1" d="M93.6,50V29.5c4-1.3,6-2.7,6-4c0-2.4-5.1-3.7-15.2-3.7v29.4c-9.9,1.2-20.5,2.1-31.9,2.6
		c2.3,8.5,4.4,12.9,6.4,13.2c1.3,0.1,2.4-1.6,3.5-5.2c7.5-1.1,14.8-2.3,21.8-3.7c-0.6,8.8-2.8,16.4-6.7,22.8
		c-4.9,8.2-12.8,15.1-23.8,20.7l1.8,3.4c24.2-8.5,36.8-24.9,37.9-48.9c9.1-2.1,17.2-4.2,24.5-6.4l-1.1-4
		C110.3,47.2,102.5,48.7,93.6,50z"/>
	<path class="st1" d="M176.4,39.7L167.8,51h-15.7V29.6c4-1.5,6-2.9,6-4.3c0-2.1-5-3.4-14.9-3.8V51h-22.4l1.7,3.7h20.7v48.5h8.9V54.7
		h33.2l1.6-2.9C183.8,47.9,180.4,43.8,176.4,39.7z"/>
</g>
</svg>
