<?xml version="1.0" encoding="utf-8"?>
<!-- Generator: Adobe Illustrator 19.0.0, SVG Export Plug-In . SVG Version: 6.00 Build 0)  -->
<svg version="1.1" id="圖層_1" xmlns="http://www.w3.org/2000/svg" xmlns:xlink="http://www.w3.org/1999/xlink" x="0px" y="0px"
	 viewBox="45 -33.8 150 150" style="enable-background:new 45 -33.8 150 150;" xml:space="preserve">
<style type="text/css">
	.st0{enable-background:new    ;}
	.st1{fill:#DC6200;}
</style>
<g class="st0">
	<path class="st1" d="M149.9,35.6c10.4-7.2,21.7-14.1,28.1-20.7c1.6,0.2,3,0.3,4.2,0.3c0.8,0,1.7-0.5,1.7-1.6c0-2.3-4-5.8-11.1-10.8
		c-6.3,10.9-17.8,22.1-25.2,28.6c-1.5-1.1-2.5-1.9-3.3-3.7l-2.5,1.6c0.9,2.4,1.8,4.7,2.8,7c8,18.1,19.8,33.8,37.3,49
		c2.2-3.2,4.1-5.1,7.7-6.8C171.5,64.7,158.3,50.4,149.9,35.6z"/>
	<path d="M91.8,76.6V-4.6L95.1-7C95.7-7.4,96-7.9,96-8.4c0-1.6-2.8-4.7-8.3-9.3l-5.6,7.3H67.6c-2.7-1.8-6-3.6-9.9-5.4v97.7h8.4V65.1
		h17.5v11.5H91.8z M66.2,61.4v-68h17.5v68H66.2z"/>
	<path d="M135,19.8c-4.1,5.8-9.1,11.5-14.9,17.2c-3.6-2.8-8.3-5.5-14.2-8.2l-2.2,2.6c4.3,3.3,7.9,6.8,10.9,10.5
		c-6.3,5.2-12.7,9.6-19.2,13.2l2.4,3.1c7.1-3.1,13.9-6.8,20.4-11.1c1.3,2.2,2.3,4.3,3,6.4c0.8,2.5,2.3,3.7,4.5,3.7
		c3.5,0,5.2-1.7,5.2-5.1c0-3.1-1.8-6.6-5.4-10.3c5.9-4.6,10.7-8.9,14.4-13c2.3,4.4,4.3,9,6,13.8c-14.5,19.6-33.2,34.9-56.1,45.9
		l2.2,3.4c23.2-9.2,42.2-22.1,57-38.8c1.1,4.7,1.6,9.6,1.6,14.8c0,8.2-0.8,14.4-2.5,18.8c-1.5,3.7-4.7,5.6-9.8,5.6
		c-4.9,0-11.8-0.6-20.6-1.8v4.2c6.8,1.1,11.6,2.3,14.4,3.4c3.3,1.3,5.1,3.6,5.2,6.7c6.5-0.4,11.5-2.1,15-5.1
		c5.2-4.7,6.8-14,6.8-28.1c0-20.6-11.2-45.1-30.4-68L126.3,6C129.4,10.6,133.6,17.4,135,19.8z"/>
	<path d="M187.6-16.6c-3-3.8-6.3-7.3-10-10.8l-7.9,9.9H97.4l1.5,3.7h32.5c-3.9,7.3-9,14.3-15.2,21c-6.9,7.5-14.5,13.7-22.8,18.8
		l2.3,3.3c11.4-6.1,20.9-12.8,28.5-20.1c0,0,0,0,0,0l2.9-2.8c0,0,0,0,0,0c5.9-6.2,10.9-12.9,15-20.1h3.6c0,0,0,0,0,0h4.8
		c0,0,0,0,0,0h35.6L187.6-16.6z"/>
</g>
</svg>
