<?xml version="1.0" encoding="utf-8"?>
<!-- Generator: Adobe Illustrator 19.0.0, SVG Export Plug-In . SVG Version: 6.00 Build 0)  -->
<svg version="1.1" id="圖層_1" xmlns="http://www.w3.org/2000/svg" xmlns:xlink="http://www.w3.org/1999/xlink" x="0px" y="0px"
	 viewBox="45 -33.8 150 150" style="enable-background:new 45 -33.8 150 150;" xml:space="preserve">
<style type="text/css">
	.st0{enable-background:new    ;}
	.st1{fill:#DC6200;}
</style>
<g class="st0">
	<path d="M154.2,58.1c5.9-6.2,10.6-13.9,14-23.2c4.6,5.8,7.8,12.2,9.4,19.2c0.8,3.2,2.1,4.8,4,4.8c3.1,0,4.7-1.8,4.7-5.4
		c0-7.3-5.3-14.6-16-21.8l-0.9-0.7c1-3.7,1.9-7.8,2.7-12.5c3.7-0.9,5.6-1.9,5.6-3.1c0-2-4.5-3.8-13.4-5.4
		c-1.3,18.1-5.2,32.8-11.8,44.2c-3.6-9.6-5.4-19.7-5.4-30.2V2.6h38.7l1.7-2.9c-3.4-4.3-7-8.1-10.8-11.4l-7.8,10.5h-21.8v-19.8
		c4.4-1.5,6.6-3,6.6-4.4c0-2.2-5.1-3.6-15.2-4v28.2h-30.8l1.6,3.7h29.2v29.9c0,33.4-14.4,56.9-43.1,70.2l2.3,3.1
		C126.3,94.9,142.5,75,146.4,46c4.1,25.6,16.2,44.9,36.5,57.9c2.4-3.8,4.9-6.8,7.4-8.9C173.8,86.5,161.7,74.2,154.2,58.1z"/>
	<path d="M130.3,16.3c0-2.1-4.5-3.9-13.4-5.6c-1.5,20-6.3,36.4-14.5,49.2l2.6,2.1c6.9-7.1,12.3-16.1,16.1-27.2
		c2.7,6,4.3,11.5,4.8,16.3c0.4,3.3,1.8,5,4,5c3.1,0,4.6-2,4.6-6c0-6.5-4.1-13-12.2-19.5c1-3.4,1.8-7.1,2.3-11.1
		C128.3,18.5,130.3,17.4,130.3,16.3z"/>
</g>
<path class="st1" d="M101,87.3V3c4-1.6,6-3,6-4.2c0-2.1-4.6-3.3-13.8-3.8v76.5H82.9v-90c4-1.6,6-3,6-4.2c0-2-4.7-3-14.1-3.1v97.3
	h-10v-69c4-1.3,6-2.6,6-3.9c0-2-4.7-3.2-14-3.7v97h8V75.3h28.5v12H101z"/>
</svg>
