<?xml version="1.0" encoding="utf-8"?>
<!-- Generator: Adobe Illustrator 19.0.0, SVG Export Plug-In . SVG Version: 6.00 Build 0)  -->
<svg version="1.1" id="圖層_1" xmlns="http://www.w3.org/2000/svg" xmlns:xlink="http://www.w3.org/1999/xlink" x="0px" y="0px"
	 viewBox="45 -33.8 150 150" style="enable-background:new 45 -33.8 150 150;" xml:space="preserve">
<style type="text/css">
	.st0{enable-background:new    ;}
	.st1{fill:#DC6200;}
</style>
<g class="st0">
	<path d="M149.4,18.9c3.7-1.3,5.6-2.6,5.6-3.7c0-2.1-4.6-3.3-13.7-3.7v67h8.1V18.9z"/>
	<path class="st1" d="M174.1-19.1l-7.3,9.7h-42v-12.5c4.6-1.3,6.9-2.7,6.9-4c0-2.1-5.2-3.3-15.5-3.4v19.9H73.5
		c-2.8-1.3-6.1-2.7-9.9-4v39c0,34.1-4.5,59.9-13.6,77.6l3.3,2.3c12.6-17.1,18.9-43.2,18.9-78.2V-5.6h110.5l1.8-2.7
		C180.9-12.5,177.4-16.1,174.1-19.1z"/>
	<path d="M92.9,78.3c-6.1,10.3-14,18.6-23.9,25l2.3,3.1c10.7-4.5,19.3-10.6,25.8-18.3c0.7,0.1,1.4,0.1,2.1,0.1c2.8,0,4.2-0.7,4.2-2
		C103.4,84.4,99.9,81.7,92.9,78.3z"/>
	<path d="M166.9,2.8v85.6c0,3.3-1.8,5-5.4,5c-4.4,0-9.9-0.3-16.6-1v4.1c5.3,0.7,9,1.4,11.3,2.1c3.1,1.1,4.8,3.2,4.9,6.3
		c9.6,0,14.4-4.1,14.4-12.2V11.2c4.1-1.7,6.2-3.1,6.2-4.3C181.7,4.8,176.8,3.4,166.9,2.8z"/>
	<path d="M126.3,77.7V12.4l3.4-2.1c0.8-0.5,1.2-1,1.2-1.6c0-1.4-2.8-4.2-8.5-8.6L117,6.6H94.2c-2.8-1.5-6.2-3-10-4.3V78h8.4v-6.2
		h25.6v5.9H126.3z M92.6,10.3h25.6v15.9H92.6V10.3z M92.6,29.9h25.6v16.7H92.6V29.9z M92.6,68.1V50.4h25.6v17.7H92.6z"/>
	<path d="M111.9,78.1l-2.1,2.6c8.2,6.2,13.5,12.2,16,18.2c1.4,3.2,3.2,4.8,5.6,4.8c2.9,0,4.3-1.7,4.3-5.1
		C135.7,91.4,127.8,84.6,111.9,78.1z"/>
</g>
</svg>
