<?xml version="1.0" encoding="utf-8"?>
<!-- Generator: Adobe Illustrator 19.0.0, SVG Export Plug-In . SVG Version: 6.00 Build 0)  -->
<svg version="1.1" id="圖層_1" xmlns="http://www.w3.org/2000/svg" xmlns:xlink="http://www.w3.org/1999/xlink" x="0px" y="0px"
	 viewBox="45 -33.8 150 150" style="enable-background:new 45 -33.8 150 150;" xml:space="preserve">
<style type="text/css">
	.st0{enable-background:new    ;}
	.st1{fill:#DC6200;}
</style>
<g class="st0">
	<path class="st1" d="M89.6,86.2l-5.3,0.3c-4.9,0.3-11.7,0.6-20.4,0.8c2.2,10.3,4.4,15.4,6.5,15.4c1.1,0,2.2-1.9,3.3-5.6
		c31-3.2,60-7.1,87-11.6l2.8-0.4c2.5,4.2,4.5,7.9,5.9,11.1c2,4.6,4.1,6.9,6.4,6.9c3.4,0,5.1-2,5.1-6c0-4.1-2.6-9.5-7.9-16.3
		c-7.7-9.8-18.7-19.4-33.1-28.7l-2.4,3c9.8,9,17.6,17.8,23.6,26.1c-14,1.7-31.4,3.1-52.2,4.2c-0.9,0-2.6,0.1-5.2,0.2
		c-3.3,0.1-6.2,0.3-8.5,0.4c9.4-12.3,18.2-27,26.2-44h-12.1C104.9,56.3,98.3,71.1,89.6,86.2z"/>
	<path d="M182.9,41.8l1.8-3c-2.7-3.4-5.2-6.1-7.3-8.1c-1.2-1.1-2.5-2.3-3.9-3.7L165,38.1h-41.7V5.9h46.4l1.8-3.1
		c-3.6-4.4-7-8.3-10.3-11.4l-7.8,10.8h-30.1v-20.4c4.4-1.5,6.7-2.9,6.7-4.3c0-2.4-5.3-3.7-15.8-3.9V2.2H68.9l1.5,3.7h43.8v32.2H56.3
		l1.7,3.7h51.3c0,0,0,0.1,0,0.1h12.1c0,0,0-0.1,0-0.1H182.9z"/>
</g>
</svg>
