<?xml version="1.0" encoding="utf-8"?>
<!-- Generator: Adobe Illustrator 19.0.0, SVG Export Plug-In . SVG Version: 6.00 Build 0)  -->
<svg version="1.1" id="圖層_1" xmlns="http://www.w3.org/2000/svg" xmlns:xlink="http://www.w3.org/1999/xlink" x="0px" y="0px"
	 viewBox="45 -33.8 150 150" style="enable-background:new 45 -33.8 150 150;" xml:space="preserve">
<style type="text/css">
	.st0{enable-background:new    ;}
	.st1{fill:#DC6200;}
</style>
<g class="st0">
	<path d="M68.3,20.8h42.1v3.3h8.3v-39l3.4-2.4c0.4-0.3,0.6-0.7,0.6-1.1c0-1.4-2.7-4.1-8.1-8.3l-5.4,6.3h-16l1.5,3.7h15.7v15.3H95.2
		l1.7,3.7h13.5V17H68.3V2.3h19.2l1.6-2.6c-1.8-2.7-4.1-5.4-6.9-8.2l-5.3,7h-8.6v-14.1c6.9-1.6,12.3-3.2,16.3-4.9
		c1.8,0.6,3.1,0.9,4,0.9c1.2,0,1.8-0.4,1.8-1.2c0-1.8-2.6-4.7-7.8-8.7c-3.7,3.5-8,6.6-13,9.2c-2.6-1.2-5.8-2.4-9.7-3.6V25h8.4V20.8z
		"/>
	<path d="M130.5-4.9v83.1h8.3v-7.5h34.8v5.9h8.3v-70l3.4-2.4c0.8-0.6,1.2-1.2,1.2-1.8c0-1.3-3-4.3-8.9-9.2l-5.5,6.6h-12v-20.6
		c3.9-1.3,5.9-2.6,5.9-3.7c0-2-4.8-3.3-14.3-3.9v28.2h-11.7C137.7-1.5,134.6-3.1,130.5-4.9z M160.1,3.6h13.5v27.8h-13.5V3.6z
		 M160.1,35.1h13.5V67h-13.5V35.1z M151.6,67h-12.9V35.1h12.9V67z M151.6,31.3h-12.9V3.6h12.9V31.3z"/>
	<path d="M104.8,79.3c2.9,0,4.3-1.4,4.3-4.2c0-4.5-3.7-8.8-11-12.7L96,64.7c2.9,3.5,4.6,7,5.2,10.5C101.7,78,102.9,79.3,104.8,79.3z
		"/>
	<path d="M94.1,88.5v-53c3.1-1.5,4.6-2.8,4.6-3.9c0-1.8-4.1-2.9-12.2-3.3V91l-7,2.1c2.5,7.3,4.7,10.9,6.6,10.9
		c1.2,0,1.9-1.9,2.3-5.7c7-3,15.9-7.8,26.5-14.4l-1.1-3.3C107.8,83.4,101.3,86,94.1,88.5z"/>
	<path d="M82.9,82.2c-4.5,2.1-9.6,4.1-15.3,6V36.7c3.4-1.4,5.1-2.6,5.1-3.8c0-1.9-4.4-3-13.1-3.3v61.1c-3.7,1-6.9,1.9-9.6,2.6
		c2.8,7.5,5.2,11.2,7,11.2c1.2,0,2-1.9,2.3-5.7c8.7-3.6,16.9-8,24.6-13L82.9,82.2z"/>
	<path class="st1" d="M182.7,89.6c0-1.6,0.4-4.8,1.2-9.4l-3.4-1.5c-1,4.9-2.4,9.2-4.2,12.7c-1.2,2.3-3.5,3.4-6.9,3.4
		c-21.2,0-36-6.3-44.2-18.9c-4.3-6.5-6.4-18.1-6.4-34.6v-6c3.5-1.4,5.3-2.6,5.3-3.6c0-2.1-4.5-3.3-13.5-3.7v12.6
		c0,19.8,3.4,34.1,10.3,43.1c10.3,13.3,28.5,19.9,54.7,19.9c7.3,0,11.3-2.4,12-7.3C184.3,96.1,182.7,93.9,182.7,89.6z"/>
	<path d="M75.5,74.2c0.8,2.9,2,4.3,3.6,4.3c2.9,0,4.4-1.4,4.4-4.3c0-4.4-4-8.7-12-12.8l-2,2.6C72.5,67.3,74.5,70.7,75.5,74.2z"/>
	<path d="M79.1,56.2c2.8,0,4.2-1.6,4.2-4.7c0-4.3-4-8.3-11.9-12l-2,2.4c3,3.1,4.9,6.5,5.9,10.4C76,54.9,77.2,56.2,79.1,56.2z"/>
	<path d="M104,56.8c2.9,0,4.3-1.4,4.3-4.2c0-4.7-3.5-8.9-10.4-12.6l-2.1,2.3c2.4,2.9,3.9,6.3,4.6,10.4C101,55.5,102.2,56.8,104,56.8
		z"/>
</g>
</svg>
