<?xml version="1.0" encoding="utf-8"?>
<!-- Generator: Adobe Illustrator 19.0.0, SVG Export Plug-In . SVG Version: 6.00 Build 0)  -->
<svg version="1.1" id="圖層_1" xmlns="http://www.w3.org/2000/svg" xmlns:xlink="http://www.w3.org/1999/xlink" x="0px" y="0px"
	 viewBox="45 -33.8 150 150" style="enable-background:new 45 -33.8 150 150;" xml:space="preserve">
<style type="text/css">
	.st0{enable-background:new    ;}
	.st1{fill:#DC6200;}
</style>
<g class="st0">
	<path d="M175.2-28.7l-5.7,6.6h-32.6c-4.1-2.2-7.4-3.6-9.9-4.3v51.1h8.3v-5.9h35.2v68.7c0,3.1-1.5,4.6-4.6,4.6
		c-6.4,0-12.5-0.4-18.2-1.2v3.9c6.4,1,10.9,2.1,13.5,3.3c2.8,1.2,4.2,3.1,4.2,5.9c9.3-0.4,14-4.2,14-11.3V-15.9l3-2.4
		c0.7-0.6,1-1.2,1-1.8C183.4-21.5,180.7-24.4,175.2-28.7z M170.5,15.1h-35.2V-0.2h35.2V15.1z M170.5-3.9h-35.2v-14.4h35.2V-3.9z"/>
	<path class="st1" d="M90.8,50.2c-1.5,10.4-4.9,17.9-10.2,22.6c-2.2,1.9-3.3,3.5-3.3,4.9c0,3.3,1.6,5,4.9,5c2.2,0,4.5-1.7,6.7-5
		c3.6-5.5,5.4-12.8,5.4-21.8c0-1.6,0-3.1-0.1-4.5L90.8,50.2z"/>
	<path class="st1" d="M108.6,30.2c6.6,3.9,11.5,8.8,14.6,14.9c1.4,2.7,2.9,4,4.7,4c3,0,4.5-1.6,4.5-4.8c0-6.1-7.4-11.7-22.2-16.9
		L108.6,30.2z"/>
	<path d="M110.5,24.7v-40.9l3.1-2.1c0.9-0.6,1.3-1.2,1.3-1.8c0-1.3-2.7-4.1-8.2-8.2l-5.4,6.3H70.4c-5-2.6-8.5-4.3-10.7-5.1v132.4
		h8.9V18.9h33.6v5.9H110.5z M68.6-18.3h33.6v14.4H68.6V-18.3z M68.6,15.1V-0.2h33.6v15.3H68.6z"/>
	<path class="st1" d="M141,81.3c-0.7-1.8-1-6.8-1-14.9l-3.8-1.7c-0.9,8.5-1.6,13.7-2.2,15.6c-0.8,2.6-2.6,4.1-5.6,4.4
		c-3.8,0.3-6.2,0.4-7.4,0.4c-2.9,0-4.9-0.2-5.8-0.6c-1.4-0.6-2.1-2.1-2.1-4.4V51.2c3.4-1.2,5.1-2.3,5.1-3.4c0-2.1-4.5-3.3-13.5-3.7
		v38.1c0,4.7,1.3,7.8,4,9.2c2,1,7.5,1.5,16.6,1.5c8.4,0,13.8-0.4,16-1.3c2.7-1.1,4.2-3.5,4.3-7.3C143.3,84,141.8,83,141,81.3z"/>
	<path class="st1" d="M156.9,77.7c3.4,0,5.1-1.9,5.1-5.6c0-7.6-6.6-15.7-19.7-24.3l-2.3,2.4c6.5,7.1,10.5,14.3,12,21.5
		C152.7,75.7,154.4,77.7,156.9,77.7z"/>
</g>
</svg>
