<?xml version="1.0" encoding="utf-8"?>
<!-- Generator: Adobe Illustrator 19.0.0, SVG Export Plug-In . SVG Version: 6.00 Build 0)  -->
<svg version="1.1" id="圖層_1" xmlns="http://www.w3.org/2000/svg" xmlns:xlink="http://www.w3.org/1999/xlink" x="0px" y="0px"
	 viewBox="45 -33.8 150 150" style="enable-background:new 45 -33.8 150 150;" xml:space="preserve">
<style type="text/css">
	.st0{enable-background:new    ;}
	.st1{fill:#DC6200;}
</style>
<g class="st0">
	<path d="M160.3,53.2h25.8l1.5-3c-2.1-3-5.1-6.2-8.9-9.6l-6.6,8.9h-13.5V23.3h22.8l1.7-2.9c-2.8-3.4-5.7-6.6-8.6-9.4l-6.3,8.6H144
		c0.7-2.4,1.5-5.7,2.4-9.9c3.4-0.7,5.1-1.7,5.1-3c0-2-4.2-3.8-12.6-5.4c-2,17.5-5.4,31.8-10.5,42.9l3.1,1.7
		c4.5-6.3,8.3-13.9,11.3-22.6h7.3v26.1H126l1.4,3.7h22.5c-1.4,21.7-11.6,38-30.8,48.8l2.4,3.1c20.9-8.7,33-24,36.2-45.9
		c3.2,17.4,11.4,31.8,24.8,43.4c1.6-2.7,3.9-5.2,6.9-7.5C174,83.5,164.3,69.5,160.3,53.2z"/>
	<path class="st1" d="M103.1,29.1c0.1,3.7,1.4,5.6,3.7,5.6c3.4,0,5.1-1.9,5.1-5.7c0-6.4-4.1-12.9-12.3-19.6l-2.4,1.9
		C101,16.7,102.9,22.7,103.1,29.1z"/>
	<path d="M98.1,84.9c0-4.1-4.8-10.3-14.5-18.5c5.1-16.1,8.5-35.1,10.3-57.2l3-1.9c0.6-0.4,0.9-0.9,0.9-1.3c0-1.5-2.7-4.4-8.1-8.7
		L84.6,4H73.8c1.1-7.5,2.1-15.8,3.1-24.8c4.5-0.9,6.8-1.9,6.8-3.1c0-2.1-4.9-3.8-14.6-5.1c-1,10.1-2.3,21.1-3.9,33h-14l0.8,3.7h12.6
		c-3.1,20-7,39.4-11.6,58.2L61,68c0.5-2.1,1.3-5.1,2.3-8.9l0.3-1.6c3.6,2.8,7.4,6.3,11.3,10.3c-5.3,14.6-13.4,26.5-24.5,35.6
		l2.4,3.1c13-8.5,22.3-19.3,28.1-32.2c3.8,4.4,6.8,8.5,8.9,12.3c1.2,1.9,2.5,2.9,4.1,2.9C96.7,89.6,98.1,88,98.1,84.9z M76.9,61.3
		c-5-3.5-9.1-6.1-12.2-7.9l0.4-1.8c3.1-14.5,5.7-28.3,7.8-41.7l0.4-2.1h12C83.9,27.7,81.1,45.6,76.9,61.3z"/>
	<path class="st1" d="M124.5-2.9h63l1.5-3c-2.8-3.5-5.9-6.9-9.3-10l-7,9.3h-18.2v-15.7c4.1-1.4,6.2-2.7,6.2-3.9
		c0-2.1-4.8-3.1-14.4-3.3v22.9h-19.8c-4.7-2.4-8.1-4.1-10.2-5v50.4c-7.1,5.2-15,9.6-23.6,13.3c3,7.3,5.4,10.9,7.3,10.9
		c1.1,0,1.6-1.8,1.6-5.4c5.3-4.1,10.1-8.4,14.4-13c-1.4,25.3-8.4,44.7-21.2,58.1l2.7,2.9c9.9-8.1,16.9-17.8,20.9-29
		c4.1-11.2,6.2-25.1,6.2-41.5V-2.9z"/>
</g>
</svg>
