<?xml version="1.0" encoding="utf-8"?>
<!-- Generator: Adobe Illustrator 19.0.0, SVG Export Plug-In . SVG Version: 6.00 Build 0)  -->
<svg version="1.1" id="圖層_1" xmlns="http://www.w3.org/2000/svg" xmlns:xlink="http://www.w3.org/1999/xlink" x="0px" y="0px"
	 viewBox="45 -33.8 150 150" style="enable-background:new 45 -33.8 150 150;" xml:space="preserve">
<style type="text/css">
	.st0{enable-background:new    ;}
	.st1{fill:#DC6200;}
</style>
<g class="st0">
	<path class="st1" d="M142.9,93.1c-32.1,0-52.1-5.8-60-17.3V50.4l3.4-2.3c0.9-0.6,1.4-1.2,1.4-1.8c0-1.3-3-4.3-8.9-9.2l-5.6,6.9
		H52.8l1.7,3.7h20.1v32.9c-6.5,4.5-13.7,8.4-21.8,11.8c4,7.8,6.8,11.7,8.6,11.7c1.2,0,1.9-2,2.1-6c6.2-5.1,12-10.8,17.6-17.2
		c4.6,7.2,11.7,12.4,21.3,15.5c10.2,3.2,26.7,4.8,49.5,4.8h31.5c0.8-4,2.3-7.5,4.5-10.6C170.3,92.3,155.4,93.1,142.9,93.1z"/>
	<path class="st1" d="M72,22.3c1.2,3.1,2.8,4.6,4.9,4.6c3.3,0,5-1.9,5-5.6c0-7-7.4-13.5-22.3-19.3l-1.9,3C64.6,10,69.4,15.7,72,22.3
		z"/>
	<path d="M175.9,55.3l-7.8,9.7h-28.6V47.8H161v6h8.4V12.7l3.7-2.4c0.7-0.4,1.1-0.9,1.1-1.5c0-1.5-3.1-4.6-9.2-9.2l-5.3,6.6h-20.2
		V-7.4H182l1.5-2.6c-2.7-3.4-6-6.9-9.9-10.3l-7.3,9.2h-26.8v-10.5c4.2-1.4,6.3-2.7,6.3-4c0-2.1-4.9-3.4-14.7-3.9v18.3H93.1l1.7,3.7
		h36.3V6.3h-19.2c-2.9-1.6-6.3-3.1-10-4.5v52.7h8.4v-6.6h20.8v17.1h-42l1.8,3.7h40.2v18.6h8.4V68.7h45.1l1.5-2.7
		C183.2,62.5,179.8,58.9,175.9,55.3z M139.5,10H161v14.6h-21.5V10z M139.5,28.2H161v15.9h-21.5V28.2z M131.1,44.1h-20.8V28.2h20.8
		V44.1z M131.1,24.6h-20.8V10h20.8V24.6z"/>
	<path class="st1" d="M78.9-6.5c1.3,3.1,3,4.6,5.1,4.6c3.3,0,5-1.9,5-5.7c0-7.1-7.8-13.3-23.4-18.8l-2,3
		C71.1-18.4,76.3-12.8,78.9-6.5z"/>
</g>
</svg>
