<?xml version="1.0" encoding="utf-8"?>
<!-- Generator: Adobe Illustrator 19.0.0, SVG Export Plug-In . SVG Version: 6.00 Build 0)  -->
<svg version="1.1" id="圖層_1" xmlns="http://www.w3.org/2000/svg" xmlns:xlink="http://www.w3.org/1999/xlink" x="0px" y="0px"
	 viewBox="45 -33.8 150 150" style="enable-background:new 45 -33.8 150 150;" xml:space="preserve">
<style type="text/css">
	.st0{enable-background:new    ;}
	.st1{fill:#DC6200;}
</style>
<g class="st0">
	<path class="st1" d="M174.1,21.6l-5.5,6.6H78.4l-0.1,3.7h91.5c-0.1,23.3-1.4,39.8-3.7,49.4c-1.5,6.4-5.3,9.6-11.3,9.6
		c-5.4,0-13.5-0.7-24.2-2V93c8.5,1.2,14.6,2.5,18.1,3.7c3.9,1.3,5.9,3.5,6,6.6c6.9,0,12.1-2.3,15.6-7c5.2-7,8-27.4,8.3-61.2l3.4-2.3
		c1-0.7,1.5-1.4,1.5-2.1C183.5,29.3,180.4,26.3,174.1,21.6z"/>
	<path d="M137.1,80.3h8.4V52.3l3.6-2.6c0.8-0.6,1.2-1.2,1.2-1.8c0-1.6-3-4.4-9.1-8.4l-5.4,6.2h-33.8c-3.2-1.7-6.5-3.1-9.9-4.3v42.3
		h8.4V73.4h36.5V80.3z M100.6,69.7V49.4h36.5v20.3H100.6z"/>
	<path d="M78.4,28.2c0.1-1.8,0.1-4.6,0.1-8.3V11h81.1v6.2h8.6v-28.1l3.9-2.6c0.8-0.5,1.2-1.1,1.2-1.8c0-1.3-3.1-4.3-9.4-9.2
		l-5.7,6.9H80.2c-2.6-1.2-6.2-2.7-10.8-4.3v42c0,35.3-5.9,62.5-17.6,81.9l3.3,2.4c14.4-16.7,22.1-40.9,23.1-72.6h0.1L78.4,28.2
		L78.4,28.2z M78.5-13.7h81.1v21H78.5V-13.7z"/>
</g>
</svg>
