<?xml version="1.0" encoding="utf-8"?>
<!-- Generator: Adobe Illustrator 19.0.0, SVG Export Plug-In . SVG Version: 6.00 Build 0)  -->
<svg version="1.1" id="圖層_1" xmlns="http://www.w3.org/2000/svg" xmlns:xlink="http://www.w3.org/1999/xlink" x="0px" y="0px"
	 viewBox="45 -33.8 150 150" style="enable-background:new 45 -33.8 150 150;" xml:space="preserve">
<style type="text/css">
	.st0{enable-background:new    ;}
	.st1{fill:#DC6200;}
</style>
<g class="st0">
	<path class="st1" d="M66.2,30.7c3.6,0,5.4-2.1,5.4-6.4C71.6,16.9,66.4,9,56,0.7L53.4,3c4.7,7.6,7.5,15.3,8.2,23.1
		C61.9,29.2,63.4,30.7,66.2,30.7z"/>
	<path class="st1" d="M187.8-7.9c-2.6-3.1-5.3-6-8.2-8.5c-0.2-0.1-0.4-0.3-0.7-0.6c-0.5-0.4-0.9-0.7-1-0.8l-6.7,9h-38.7v-13.3
		c4.3-1.4,6.4-2.6,6.4-3.7c0-2-5-3.2-15-3.7v20.7H86l-1.2-0.6c-2.4-1.3-5.3-2.6-8.7-3.9v47c0,2.8-0.1,5-0.2,6.5
		c-8.3,6-17.2,10.8-26.5,14.5c3.3,8,5.9,12,7.8,12c1.3,0,2-2,2.1-5.9c6.2-4.8,11.6-9.8,16.3-15c-2,23.8-9.4,42.8-22.2,57.1l2.9,2.6
		c18.9-15.4,28.4-38.6,28.4-69.4V-5h101.8L187.8-7.9z"/>
	<path d="M140.6,15.4h46.2l1.8-3l-1.2-1.3c-2.4-2.9-5.3-5.8-8.7-8.6l-7.5,9.2H88.1l1.8,3.7h42.3v13.5c0,2.9-0.1,5.1-0.2,6.6h-24.7
		c-3.9-2-7.3-3.4-10.3-4.5v74.2h8.6v-66h26c-2.2,18.6-10.3,33-24.1,43.4l2.4,3c14.1-7.9,23.2-18.8,27.5-32.6
		c8.6,6.6,14.6,13.4,17.9,20.4c1.5,3.1,3.1,4.7,4.8,4.7c3.3,0,5-1.7,5-5.1c0-2.1-1.1-4.5-3.2-7.2c-4.7-6.1-11.8-11.4-21.5-15.7
		c-0.2-0.2-0.6-0.4-1-0.6c-0.5-0.2-0.8-0.4-1-0.5c0.5-2.1,1.1-5.3,1.6-9.7H169v49.1c0,2.9-1.8,4.3-5.3,4.3c-6.2,0-12.6-0.3-19.5-1v4
		c7.6,1,12.7,2.2,15.2,3.4c2.2,1,3.3,2.8,3.3,5.4c9.9,0,14.8-3.5,14.8-10.5V42.1l3.4-2.3c0.9-0.6,1.4-1.2,1.4-1.8c0-1.4-3-4.4-9.1-9
		l-5.4,6.4h-27.5c0.1-1.7,0.2-4.1,0.2-7V15.4z"/>
</g>
</svg>
