<?xml version="1.0" encoding="utf-8"?>
<!-- Generator: Adobe Illustrator 19.0.0, SVG Export Plug-In . SVG Version: 6.00 Build 0)  -->
<svg version="1.1" id="圖層_1" xmlns="http://www.w3.org/2000/svg" xmlns:xlink="http://www.w3.org/1999/xlink" x="0px" y="0px"
	 viewBox="45 -33.8 150 150" style="enable-background:new 45 -33.8 150 150;" xml:space="preserve">
<style type="text/css">
	.st0{enable-background:new    ;}
	.st1{fill:#DC6200;}
</style>
<g class="st0">
	<path d="M88.5,18.4c0-1.5-2.2-2.7-6.7-3.6C87.2,3.3,91.6-8,95-19.3c4.7-0.6,7-1.6,7-3.1c0-2.3-4.7-4.6-14.2-6.9
		C80.1,2,68.1,29.8,51.7,54.2l3.1,2.2c7.2-8.7,13.5-17.7,18.9-27v75.7h8.7V22.3C86.5,20.9,88.5,19.6,88.5,18.4z"/>
	<path class="st1" d="M185.8,27.7l1.6-3.1c-3.6-4.5-7.1-8.2-10.5-11.2l-7.8,10.6h-26.9v-41.2c4.6-1.7,6.9-3.2,6.9-4.5
		c0-2.2-5.3-3.6-15.9-4v49.8H90.1l1.5,3.7h41.7v64.5h-39l1.7,3.7h85.8l1.5-3c-3.3-4.3-6.7-8.1-10.3-11.2l-8.1,10.5h-22.5V27.7H185.8
		z"/>
</g>
</svg>
