<?xml version="1.0" encoding="utf-8"?>
<!-- Generator: Adobe Illustrator 19.0.0, SVG Export Plug-In . SVG Version: 6.00 Build 0)  -->
<svg version="1.1" id="圖層_1" xmlns="http://www.w3.org/2000/svg" xmlns:xlink="http://www.w3.org/1999/xlink" x="0px" y="0px"
	 viewBox="45 -33.8 150 150" style="enable-background:new 45 -33.8 150 150;" xml:space="preserve">
<style type="text/css">
	.st0{enable-background:new    ;}
	.st1{fill:#DC6200;}
</style>
<g class="st0">
	<path d="M125.7-9h56.4l1.7-3.1c-3.5-3.9-7.3-7.6-11.4-11.2l-8.5,10.6H56.4L57.7-9h54.1c0,0,0,0.1,0,0.1L125.7-9
		C125.7-9,125.7-9,125.7-9z"/>
	<path class="st1" d="M154,40.4c-11-13.2-20.4-29.7-28.2-49.3h-14C105.5,8.8,98,24.7,89.2,38.6c-9.5,14.9-21.5,29.2-36,42.6l3.4,3.1
		c12.1-10.1,22.2-20,30.4-29.7c11.1-13.3,20.5-28.4,28-45.3v95.9h9V0c6.2,17,13.5,31.8,22,44.4c7.8,11.6,18.5,23.7,32.2,36.4
		c3.1-4.3,6.6-7.9,10.5-10.6C175.2,62,163.7,52.1,154,40.4z"/>
</g>
</svg>
