<?xml version="1.0" encoding="utf-8"?>
<!-- Generator: Adobe Illustrator 19.0.0, SVG Export Plug-In . SVG Version: 6.00 Build 0)  -->
<svg version="1.1" id="圖層_1" xmlns="http://www.w3.org/2000/svg" xmlns:xlink="http://www.w3.org/1999/xlink" x="0px" y="0px"
	 viewBox="45 -33.8 150 150" style="enable-background:new 45 -33.8 150 150;" xml:space="preserve">
<style type="text/css">
	.st0{enable-background:new    ;}
	.st1{fill:#DC6200;}
</style>
<g class="st0">
	<path class="st1" d="M162.3-28.5c-7.9,16.9-18.2,30.2-30.9,40.1l2.7,2.9c13.8-8.1,25.2-18.9,34.2-32.4c4.6,0,6.9-0.7,6.9-2.1
		C175.2-22.2,170.9-25,162.3-28.5z"/>
	<path class="st1" d="M72.3-27.2l-2,3c14,10,24.1,20.2,30.3,30.6c2.2,3.8,4.2,5.7,5.9,5.7c3.3,0,5-1.9,5-5.6c0-3.1-2-6.7-5.9-10.9
		C98.4-12.4,87.3-20.1,72.3-27.2z"/>
	<path d="M127,13.7c-7-1.3-11.1-1.9-12.3-2v93.5h9.4V20.3c4.4-1.7,6.6-3.1,6.6-4.4C130.7,14.9,129.4,14.2,127,13.7z"/>
</g>
</svg>
