<?xml version="1.0" encoding="utf-8"?>
<!-- Generator: Adobe Illustrator 19.0.0, SVG Export Plug-In . SVG Version: 6.00 Build 0)  -->
<svg version="1.1" id="圖層_1" xmlns="http://www.w3.org/2000/svg" xmlns:xlink="http://www.w3.org/1999/xlink" x="0px" y="0px"
	 viewBox="45 -33.8 150 150" style="enable-background:new 45 -33.8 150 150;" xml:space="preserve">
<style type="text/css">
	.st0{enable-background:new    ;}
	.st1{fill:#DC6200;}
</style>
<g class="st0">
	<path class="st1" d="M118.3,25c19.2-8.4,35.2-18.9,47.8-31.5l5-1.8c1.4-0.5,2.1-1.1,2.1-2c0-1.6-3.3-5-10-10.2l-5.3,6h-40.6
		c0.4-0.2,3.2-2.4,8.3-6.4c5,0,7.5-0.7,7.5-2c0-1.9-4.1-4.1-12.3-6.6C103.6-12.2,82.6,0.6,57.7,9.1l1.9,3.4
		c9.3-2.8,16.8-5.4,22.7-7.8c6.8,4.9,11.5,10.5,14.1,16.9c0.8,2,2,3,3.6,3c0.6,0,1,0,1.2-0.1c-14,5.4-29.4,9.5-46.4,12.2l1.6,3.6
		c22.2-2.7,41.7-7.4,58.7-14.1v0L118.3,25C118.3,25,118.3,25,118.3,25z M109.6-9.3c0.3-0.2,0.6-0.4,1-0.7c0.6-0.4,1-0.6,1.1-0.7
		h46.1c-8.4,8.4-18.4,16-29.9,22.6c0.7-0.7,1-1.9,1-3.6c0-3.4-2.2-6.8-6.7-10.2c-3.5-2.7-8.1-4.9-13.8-6.6L109.6-9.3z M103.9,23.6
		c1-0.9,1.5-2.2,1.5-3.9c0-6.4-6.3-12-18.8-16.8c6.2-2.7,12.3-5.8,18.2-9.3c7.2,4.4,12.3,9.9,15.2,16.6c1.1,2.3,2.4,3.4,3.9,3.4
		c0.7,0,1.2,0,1.5-0.1C120,16.6,112.8,20,103.9,23.6z"/>
	<path d="M82.1,72c6.7-8.1,10-18.5,9.9-31.2l-3.7-0.6c-2.8,12.6-8.4,21.3-16.6,25.9c-3,1.8-4.5,3.6-4.5,5.4c0,3.9,2,5.9,5.9,5.9
		C76,77.4,79,75.6,82.1,72z"/>
	<path d="M136.8,70.4c12.5-8.8,22.2-16.7,29.2-23.7c0.9,0.1,2.1,0.1,3.4,0.1c2.5,0,3.7-0.5,3.7-1.6c0-2-4.4-5.6-13.1-10.7
		c-7.3,12.6-16,23.5-26.2,32.7c-6.2-7-9.3-15-9.4-23.9V32.2c3.8-1.4,5.7-2.7,5.7-4.1c0-1.8-3.9-2.8-11.7-3.1l-3.2,1.3v20.3
		c0,29.5-20.9,47.9-62.7,55.2l2,3.6c41.6-4.6,64.6-20.8,69-48.4c6.6,22.8,25.8,37.8,57.7,45.1c1.4-3.1,3.9-6.6,7.7-10.3
		C165.8,88.6,148.4,81.5,136.8,70.4z"/>
</g>
</svg>
