<?xml version="1.0" encoding="utf-8"?>
<!-- Generator: Adobe Illustrator 19.0.0, SVG Export Plug-In . SVG Version: 6.00 Build 0)  -->
<svg version="1.1" id="圖層_1" xmlns="http://www.w3.org/2000/svg" xmlns:xlink="http://www.w3.org/1999/xlink" x="0px" y="0px"
	 viewBox="45 -33.8 150 150" style="enable-background:new 45 -33.8 150 150;" xml:space="preserve">
<style type="text/css">
	.st0{enable-background:new    ;}
	.st1{fill:#D3228C;}
	.st2{fill:#DC6200;}
</style>
<g class="st0">
	<path d="M141,2.7c4.3,6.7,6.6,13.6,6.7,20.7c0.1,4.1,1.4,6.2,3.7,6.2c3.5,0,5.3-2.1,5.3-6.3c0-7.3-4.4-14.9-13.2-22.6L141,2.7z"/>
	<path d="M185.8-2.3l1.5-2.6c-3.5-4.3-6.5-7.6-8.9-10L172-6h-7.3v-15.7c3.6-1.4,5.4-2.7,5.4-3.9c0-2.1-4.6-3.3-13.7-3.8V-6h-22.5
		l1.6,3.7H185.8z"/>
	<path d="M56.4,3c4.1,6.7,6.2,13.6,6.3,20.5c0,4,1.1,6,3.4,6c3.5,0,5.2-2.1,5.2-6.2c0-7.2-4.1-14.7-12.2-22.5L56.4,3z"/>
	<path d="M97.5-2.3l1.6-2.6c-2.5-3.6-5.2-6.7-7.9-9.3L85.4-6h-5.7v-15.9c4.1-1.5,6.2-2.9,6.2-4.2c0-2.1-4.8-3.2-14.4-3.4V-6H51.4
		l1.3,3.7H97.5z"/>
	<path d="M164.7,35.6h23.1l1.8-2.9c-2.6-3.7-5.4-7.1-8.6-10.2l-6.4,9.3h-7.2c4.6-8.2,8-16.2,10.3-24c3.6-0.6,5.4-1.5,5.4-2.7
		c0-2-4.1-4.1-12.2-6.3c-2.2,13-4.9,24-8,33h-28V14.7l3.4-2.4c0.9-0.6,1.3-1.3,1.3-2.1c0-1.7-2.7-4.6-8.2-8.7L126,8.2h-10.6v-28.3
		c3.8-1.7,5.7-3.1,5.7-4.3c0-2.1-4.6-3.3-13.8-3.8v37H92.4l1.5,3.7h13.3v2.7C107.1,29.9,106,42.9,104,54
		c-3.3,17.7-10.6,33.9-22,48.4l3.1,2.6c13-12.7,21.6-27.3,25.6-43.9c3-12,4.5-27.3,4.7-46.1v-3.1h11.9c0,39.2-1,63.9-3,74
		c-1.1,4.8-3.2,7.2-6.3,7.2c-4.6,0-9.4-0.5-14.3-1.5v3.9c7.5,1.7,11.4,4.6,11.9,8.7c2,0,3.7-0.2,5.1-0.6c5.7-1.3,9.3-4.6,10.6-9.9
		c2.2-9,3.4-25.7,3.6-50l0.1-8.1h21.4v0.1L164.7,35.6L164.7,35.6z"/>
	<path class="st1" d="M179.5,52.9l-6.6,9.3h-8.3V35.7h-8.3v26.5h-20.2l1.5,3.7h18.7v39.3h8.3V66h21.8l1.5-3.1
		C185.2,58.9,182.4,55.6,179.5,52.9z"/>
	<path d="M79.8,35.6h17.9l1.6-2.6c-1.4-2.2-3.8-5.3-7-9.4l-6,8.3h-5.7C85.4,23,88.9,15,91.1,7.7c3.4-0.6,5.1-1.5,5.1-2.7
		c0-2.1-4-4.1-11.9-6c-1.9,12.2-4.6,23.1-8.1,32.9h-25l1.3,3.7h18.9v0.1L79.8,35.6L79.8,35.6z"/>
	<path class="st2" d="M96.7,53.4c-3.5,1-9.2,2.4-16.9,4.2V35.7h-8.4v23.5c-3.9,0.7-10.5,1.7-19.9,3c1.7,8.3,3.3,12.4,5.1,12.4
		c1,0,1.9-1.7,2.7-5.2c3.7-0.9,7.7-1.9,11.9-3.1c-1.1,15-7.3,27.3-18.6,36.9l2.3,2.9c15.7-9.1,24-23.3,25-42.5
		c3.9-1.4,9.7-3.6,17.3-6.6L96.7,53.4z"/>
</g>
</svg>
