<?xml version="1.0" encoding="utf-8"?>
<!-- Generator: Adobe Illustrator 19.0.0, SVG Export Plug-In . SVG Version: 6.00 Build 0)  -->
<svg version="1.1" id="圖層_1" xmlns="http://www.w3.org/2000/svg" xmlns:xlink="http://www.w3.org/1999/xlink" x="0px" y="0px"
	 viewBox="45 -33.8 150 150" style="enable-background:new 45 -33.8 150 150;" xml:space="preserve">
<style type="text/css">
	.st0{enable-background:new    ;}
	.st1{fill:#DC6200;}
</style>
<g class="st0">
	<path d="M110.3,34.2V3.4h22v14.3l-19.4,2.5l2.1,3.8l17.4-2.4v6c0,3.9,0.9,6.5,2.6,7.9c2,1.5,10.4,2.3,25.5,2.3
		c9.8,0,15.6-0.3,17.6-0.9c2.5-0.9,3.9-3.2,4.2-7c-1.9,0-3.1-0.4-3.9-1.3c-1-1.1-1.5-4.2-1.5-9.2l-3.8-1.5
		c-0.7,6.3-2.2,10.1-4.3,11.5c-1.4,1-6.2,1.5-14.4,1.5c-6.2,0-10.1-0.3-11.8-1c-1.4-0.5-2.1-1.8-2.1-4v-5.6l26.1-3.4l1.4-3
		c-4.6-3.4-7.8-5.7-9.7-6.9l-4.4,7.7l-13.3,1.8V3.4h34.1c-1.2,4.1-2.3,7.3-3.4,9.7l2.6,1.8c3.2-2.6,6-5.2,8.3-8l4.4-0.9
		c1.4-0.3,2.1-0.9,2.1-1.7c0-1.5-3.2-5.2-9.7-11.1l-4.9,6.3h-30V-11h36l1.5-3c-2.8-3.3-5.7-6.5-8.9-9.4l-6.3,8.7h-22.3v-7.6
		c4.2-1.4,6.3-2.6,6.3-3.8c0-2.1-4.9-3.1-14.6-3.1v29h-23.5c-4.6-2.8-7.9-4.6-9.9-5.6v40.1c0,30.5-6.6,53.8-19.9,69.7l2.8,2.4
		c9.9-8.9,16.7-19.5,20.4-31.8C108.5,63.9,110.3,50.4,110.3,34.2z"/>
	<path d="M89.9,76.1V-1.4l3.6-2.7c0.6-0.4,0.9-0.9,0.9-1.5c0-1.4-2.8-4.4-8.5-8.9l-5.4,6.9H68.1c-3.4-2.2-6.7-4-9.9-5.3v97.3h8.4
		V67.3h15.2v8.9H89.9z M66.6,63.6V-3.8h15.2v67.4H66.6z"/>
	<path d="M179.3,88.2l-6.9,9.6H159v0h-8.1v0h-9.4v0h-8v0h-29.7l1.5,3.7h81.4l1.5-2.9C185.5,95,182.5,91.5,179.3,88.2z"/>
	<path class="st1" d="M159,80.2h10.8v5.1h7.8V57.1c3.7-1.3,5.6-2.6,5.6-3.7c0-2-4.4-3.2-13.3-3.7v26.7H159V51.2
		c3.4-1.2,5.1-2.3,5.1-3.4c0-2.1-4.4-3.3-13.3-3.4v53.4h8.1V80.2z"/>
	<path class="st1" d="M141.5,51c3.5-1.1,5.2-2.2,5.2-3.3c0-1.9-4.4-3-13.2-3.3v32.1h-10.5V56.7c3.3-1.4,5-2.6,5-3.7
		c0-1.7-4.2-2.8-12.6-3.3v37.4h7.6v-7h10.5v17.5h8V51z"/>
</g>
</svg>
