<?xml version="1.0" encoding="utf-8"?>
<!-- Generator: Adobe Illustrator 19.0.0, SVG Export Plug-In . SVG Version: 6.00 Build 0)  -->
<svg version="1.1" id="圖層_1" xmlns="http://www.w3.org/2000/svg" xmlns:xlink="http://www.w3.org/1999/xlink" x="0px" y="0px"
	 viewBox="45 -33.8 150 150" style="enable-background:new 45 -33.8 150 150;" xml:space="preserve">
<style type="text/css">
	.st0{enable-background:new    ;}
	.st1{fill:#DC6200;}
</style>
<g class="st0">
	<path d="M131.9,67.3c2.2,1.8,10.3,2.7,24,2.7c13.7,0,22.1-0.5,25.3-1.5c3.4-1.1,5.1-3.8,5.3-8.3c-2.1,0-3.6-0.9-4.3-2.6
		c-0.9-2.1-1.4-7.1-1.4-15.1l-3.9-1.5c-0.6,12.6-3.1,19.4-7.5,20.4c-2.4,0.6-7.2,0.9-14.5,0.9c-8.7,0-13.9-0.3-15.4-1
		c-1.6-0.6-2.4-2.2-2.4-4.8V30.2h32v4.4h8.1V-3.8l3.1-2c0.9-0.6,1.3-1.2,1.3-1.9c0-1.4-2.8-4.3-8.3-8.7l-5.3,6.3h-29.5
		c-2-1.1-4.7-2.4-8.2-4l-1.5-0.7v73.4C128.7,62.9,129.8,65.8,131.9,67.3z M156.9-6.3H169v32.8h-12.1V-6.3z M137-6.3h11.9v32.8H137
		V-6.3z"/>
	<path d="M130.5,72.3c-13.2-13-20.2-38.1-21.1-75.1c-0.1-5.3-0.3-9.4-0.4-12.3l-4.5,1.1c0.1,18.1,0.9,32.4,2.1,42.7
		c2.8,23.2,9.6,40.2,20.2,50.8c10.4,10.4,28.9,18.2,55.7,23.4c1.7-3.9,3.9-7,6.4-9.3C160.6,89.8,141.1,82.7,130.5,72.3z"/>
	<path class="st1" d="M108.9-15.3c0.7-0.2,1.5-0.4,2.6-0.7c1.6-0.4,2.4-0.7,2.6-0.8c2,0.3,3.4,0.5,4.4,0.5c2.3,0,3.4-0.5,3.4-1.5
		c0-1.7-3.2-4.1-9.7-7.5c-10.4,5.3-23.4,9.6-38.9,13C71.1-13.6,68-15.2,64-17v45c0,33.6-4.4,58.1-13.2,73.6l3.1,2.3
		c12.5-15.5,18.8-40.7,18.8-75.6V-8.6c12.9-1.8,23.4-3.6,31.6-5.6c0,0,0,0,0,0l4.5-1.1C108.9-15.2,108.9-15.3,108.9-15.3z"/>
	<path d="M85.5-10.1V98.3h8.4V-1.9c3.8-1.2,5.7-2.3,5.7-3.4C99.6-7.2,94.9-8.7,85.5-10.1z"/>
</g>
</svg>
