<?xml version="1.0" encoding="utf-8"?>
<!-- Generator: Adobe Illustrator 19.0.0, SVG Export Plug-In . SVG Version: 6.00 Build 0)  -->
<svg version="1.1" id="圖層_1" xmlns="http://www.w3.org/2000/svg" xmlns:xlink="http://www.w3.org/1999/xlink" x="0px" y="0px"
	 viewBox="45 -33.8 150 150" style="enable-background:new 45 -33.8 150 150;" xml:space="preserve">
<style type="text/css">
	.st0{enable-background:new    ;}
	.st1{fill:#DC6200;}
</style>
<g class="st0">
	<path d="M98,19.3V-8.4c5.4-1.7,10.4-3.4,14.9-5.2c1.9,0.3,3.4,0.4,4.5,0.4c2.6,0,3.9-0.6,3.9-1.7c0-2-3.5-4.8-10.5-8.5
		c-12.2,8-29.3,14.7-51.5,20.1l1.5,3.6c11.8-2.1,21.3-4.1,28.5-6.2V20H54.7l1.5,3.7h33V49c-7.2,1.6-17.2,3.4-30,5.4
		c2.1,9.2,4.3,13.8,6.5,13.8c1.2,0,2.2-2.1,2.9-6.3c5.6-1.3,12.4-3.1,20.6-5.6v30.5c0,3-1.5,4.5-4.5,4.5c-5.4,0-11.5-0.5-18.3-1.5
		v3.9c6.2,1.3,10.2,2.4,12.2,3.3c2.9,1.4,4.3,3.8,4.3,7.1c10,0.1,15-3.5,15-11V53.7c11.3-3.9,20.7-7.3,28.2-10.1l-0.7-3.9
		c-9.7,3-18.9,5.4-27.5,7.3V23h16.9v-3.7H98z"/>
	<path class="st1" d="M167.9,1.9c3.7,0,5.6-2,5.6-5.9c0-6.9-6.3-13.5-18.9-19.6l-2.1,2.4c5.7,5.7,9.3,11.9,10.7,18.5
		C163.8,0.3,165.4,1.9,167.9,1.9z"/>
	<path class="st1" d="M185.1,19.3c-3.1-3.9-6.4-7.4-10-10.6l-7.7,9.9h-27.3c-0.9-10.5-1.3-22.3-1.3-35.5c4.3-1.4,6.4-2.7,6.4-4.1
		c0-2.3-5.1-3.6-15.3-3.7c0,16.8,0.5,31.5,1.5,44.1h-16.6V23h17c2.1,17.2,5.7,32.1,10.8,44.5c-10.7,13.7-23,24.2-37.1,31.5l2.3,3.3
		c15.5-6.5,28.5-15.6,39-27.5c4.4,7.8,9,13.9,13.9,18.3c6.5,5.9,11.6,8.9,15.3,8.9c3.4,0,5.8-2.1,7.2-6.2c-2.8-1-4.2-4-4.2-9
		c0-4.4,0.9-12.3,2.7-23.8l-3.9-2.7c-3,18-5.9,27-8.6,27c-0.9,0-2.5-1.1-4.7-3.3c-4.6-4.5-8.7-10-12.2-16.6
		c6.3-7.6,12.1-16.8,17.6-27.6c4.5,0,6.7-0.7,6.7-2.1c0-2.1-4.1-4.9-12.3-8.6c-4.4,11.7-9.7,22-15.9,30.9c-4-10.5-6.7-23-8.2-37.6
		h42.8L185.1,19.3z"/>
</g>
</svg>
