<?xml version="1.0" encoding="utf-8"?>
<!-- Generator: Adobe Illustrator 19.0.0, SVG Export Plug-In . SVG Version: 6.00 Build 0)  -->
<svg version="1.1" id="圖層_1" xmlns="http://www.w3.org/2000/svg" xmlns:xlink="http://www.w3.org/1999/xlink" x="0px" y="0px"
	 viewBox="45 -33.8 150 150" style="enable-background:new 45 -33.8 150 150;" xml:space="preserve">
<style type="text/css">
	.st0{enable-background:new    ;}
	.st1{fill:#DC6200;}
</style>
<g class="st0">
	<path d="M98.6,73.7c1.3,2.8,2.9,4.2,4.8,4.2c3.2,0,4.8-1.7,4.8-5c0-6.3-7.1-10.9-21.2-14.1l-1.7,2.6C92.2,65.4,96.7,69.5,98.6,73.7
		z"/>
	<path d="M147.3,42.5c-3.7-3.2-9.3-5.6-16.8-7.3l-1.5,2.9c6.1,3.3,10.4,7.3,12.7,12.2c1.3,2.8,3,4.2,5,4.2c3.1,0,4.6-1.6,4.6-4.8
		C151.3,47.3,150,44.9,147.3,42.5z"/>
	<path d="M146.9,65c-3.8-3.2-9.4-5.5-16.6-7l-1.4,2.9c6.4,3.5,10.9,7.8,13.5,13c1,2.2,2.5,3.3,4.4,3.3c3.1,0,4.6-1.7,4.6-5
		C151.3,69.8,149.9,67.4,146.9,65z"/>
	<path d="M76.6,23.2h85.8v3.1h8.6v-36.8l3.4-2.6c0.8-0.6,1.2-1.2,1.2-1.8c0-1.4-3.1-4.3-9.2-8.7l-5.2,6.3h-35.6l2,3.7h34.8V0.7
		h-35.5l1.6,3.7h33.9v15H76.6v-15H116l1.8-2.9c-2.5-3-4.9-5.4-7-7c-1.4-1.2-2.1-1.8-2.1-1.8l-6.6,8H76.6v-13.8
		c11.3-1.8,23.1-4.4,35.4-7.9c2.3,0.2,3.5,0.3,3.6,0.3c2.2,0,3.3-0.5,3.3-1.5c0-1.9-3.3-4.6-10-8.1c-8.2,5.5-18.7,9.8-31.5,12.9
		C76-18,73-19.1,68.1-20.9v49.1h8.4V23.2z"/>
	<path d="M123.1,88.6V37.5c3.7-1.2,5.6-2.4,5.6-3.6c0-1.9-4.7-3.2-14-4v60.2c-0.6,0.1-5.1,0.7-13.5,1.9c2.5,8.4,4.9,12.6,7,12.6
		c1.2,0,2.1-1.7,2.6-5.2c14.2-3.7,28.9-8.6,43.9-14.7l-1.2-3.6C143.4,84.2,133.3,86.6,123.1,88.6z"/>
	<path class="st1" d="M183.4,90.6c0-2.9,0.6-9.4,1.8-19.5l-3.9-1.8c-2.1,14.8-4.1,22.2-5.9,22.2c-0.7,0-1.8-2.1-3.4-6.4
		c-3.8-9.9-5.7-25.7-5.7-47.4c3.9-1.4,5.9-2.7,5.9-3.9c0-2.2-4.9-3.5-14.6-4c0.1,29.3,2.5,49.3,7.1,60c4.3,10.3,9.6,15.5,16,15.5
		c3.3,0,5.6-2,6.9-5.9C184.7,98.1,183.4,95.2,183.4,90.6z"/>
	<path d="M98.9,52.9c1,2.2,2.5,3.3,4.3,3.3c3.2,0,4.8-1.7,4.8-5.1c0-6-7-10.6-20.9-14.1l-1.5,2.6C91.8,43.3,96.2,47.7,98.9,52.9z"/>
	<path d="M104.3,82.4c-7.4,2.1-15.4,4-23.9,5.6l-1.6,0.1V39.1c3.2-1.2,4.8-2.4,4.8-3.6c0-2.1-4.5-3.1-13.4-3.3v57.4
		c-6.9,1.1-12.6,1.8-17.1,2.3c2.5,8.5,4.8,12.7,6.9,12.7c1.6,0,2.4-1.9,2.6-5.6c12.6-2.4,26.8-6.7,42.7-13L104.3,82.4z"/>
</g>
</svg>
