<?xml version="1.0" encoding="utf-8"?>
<!-- Generator: Adobe Illustrator 19.0.0, SVG Export Plug-In . SVG Version: 6.00 Build 0)  -->
<svg version="1.1" id="圖層_1" xmlns="http://www.w3.org/2000/svg" xmlns:xlink="http://www.w3.org/1999/xlink" x="0px" y="0px"
	 viewBox="45 -33.8 150 150" style="enable-background:new 45 -33.8 150 150;" xml:space="preserve">
<style type="text/css">
	.st0{enable-background:new    ;}
	.st1{fill:#DC6200;}
</style>
<g class="st0">
	<path d="M109.4,3.9h22.3v14.4l-19.2,2.5l2,4l17.2-2.3V28c0,4,1,6.6,2.9,7.9c2.1,1.6,9.6,2.4,22.5,2.4c10.5,0,17.4-0.4,20.6-1.2
		c2.8-0.9,4.3-3.4,4.6-7.5c-2.2,0-3.7-0.5-4.5-1.6c-0.7-1.1-1-3.9-1-8.3l-3.8-1.2c-0.7,6.1-2,9.7-3.9,10.9
		c-1.4,0.9-6.3,1.4-14.7,1.4c-6.6,0-10.7-0.2-12.4-0.7c-1.3-0.4-2-1.7-2-3.8v-4.9l25.8-3.4l1.2-3c-3.2-2.9-6.4-5.4-9.7-7.5l-4.6,8
		L140,17V3.9h33.9c-0.8,3.5-2.1,7.1-4.1,10.8l3,1.8c3.3-2.6,6.1-5.5,8.4-8.6l5-1c1.5-0.3,2.2-0.9,2.2-1.8c0-1.9-3.3-5.7-10-11.5
		L173,0.1h-29.2v-11.7h34.8l1.5-2.9c-3.1-3.5-6.1-6.7-9.2-9.4l-6.3,8.6h-20.9v-6.9c4.1-1.4,6.2-2.7,6.2-3.9c0-2.1-4.9-3.1-14.6-3.1
		V0.1h-24.1c-3.1-1.7-6.6-3.4-10.5-5.1v42.9c0,28.6-6.3,50.1-18.9,64.5l2.9,2.8c16.5-14.7,24.8-37.2,24.8-67.5V3.9z"/>
	<path d="M93.8,57.8c-6.9,3.4-12.3,5.8-16.2,7.3V15.1h17.6l1.8-3c-3.5-4.3-6.3-7.8-8.6-10.3l-6.4,9.6h-4.3v-30.9
		c4.4-1.4,6.6-2.7,6.6-3.9c0-2.3-5-3.6-15-3.9v38.7H51.3l1.1,3.7h16.8v53.4c-7.3,2.5-13.5,4.5-18.8,6c2.8,8.4,5.2,12.6,7,12.6
		c1.2,0,2-2,2.4-5.9c12-5.5,23.7-12.1,34.9-19.8L93.8,57.8z"/>
	<path class="st1" d="M139.7,50.9c3.4-1.4,5.1-2.6,5.1-3.8c0-1.9-4.4-3.1-13.3-3.6v33.8H121v-19c3-1.2,4.5-2.4,4.5-3.4
		c0-2-4.2-3.1-12.5-3.6v37.1h8V81h10.5v16.7h8.3V50.9z"/>
	<path d="M181.4,91.5c-0.3-0.2-0.7-0.5-1.2-1c-0.5-0.4-0.9-0.8-1.1-1l-7.3,8.3h-13.8v0h-8.3v0h-10v0h-8.3v0h-30.3l1.5,3.7h84.2
		l1.5-2.9C185.9,95.7,183.5,93.3,181.4,91.5z"/>
	<path class="st1" d="M157.9,81h11.1v5.7h8.1V58.8c3.5-1.4,5.2-2.6,5.2-3.7c0-1.9-4.4-3.1-13.3-3.9v26.1h-11.1V51.2
		c3.7-1.4,5.6-2.7,5.6-4c0-1.9-4.6-3.1-13.8-3.7v54.2h8.3V81z"/>
</g>
</svg>
