<?xml version="1.0" encoding="utf-8"?>
<!-- Generator: Adobe Illustrator 19.0.0, SVG Export Plug-In . SVG Version: 6.00 Build 0)  -->
<svg version="1.1" id="圖層_1" xmlns="http://www.w3.org/2000/svg" xmlns:xlink="http://www.w3.org/1999/xlink" x="0px" y="0px"
	 viewBox="45 -33.8 150 150" style="enable-background:new 45 -33.8 150 150;" xml:space="preserve">
<style type="text/css">
	.st0{enable-background:new    ;}
	.st1{fill:#DC6200;}
</style>
<g class="st0">
	<path d="M159,14.5l5.9-1.9c1-0.3,1.5-0.8,1.5-1.5c0-1.6-3.4-5.6-10.3-12.1l-6.2,7h-30v-23.4c4.6-1.5,6.9-2.9,6.9-4.3
		c0-2.4-5.2-3.7-15.7-3.9V6H64.3L66,9.7h84.2c-15.3,24.1-34.1,45-56.6,63l3.5,3.1C121.2,59.5,141.8,39,159,14.5z"/>
	<path class="st1" d="M146.2,86.6c-23.8,0-40.2-3.6-49.1-10.8c0,0,0.1,0,0.1-0.1l-3.5-3.1c0,0,0,0,0,0c-5.6-6-9.3-13.9-11.1-23.9h-4
		C73.5,64.2,65.4,76.9,54,86.9c4.1,7.7,7.3,11.6,9.6,11.6c1.1,0,1.6-1.1,1.6-3.1c0-1-0.1-2.4-0.4-4c7.1-9.8,12.3-20.9,15.7-33.3
		c2.5,12.9,9.1,22.4,19.7,28.6c9.8,5.8,28.2,8.7,55.3,8.7H182c1.1-3.8,3-7.3,5.7-10.6C170.5,86,156.7,86.6,146.2,86.6z"/>
</g>
</svg>
