<?xml version="1.0" encoding="utf-8"?>
<!-- Generator: Adobe Illustrator 19.0.0, SVG Export Plug-In . SVG Version: 6.00 Build 0)  -->
<svg version="1.1" id="圖層_1" xmlns="http://www.w3.org/2000/svg" xmlns:xlink="http://www.w3.org/1999/xlink" x="0px" y="0px"
	 viewBox="45 -33.8 150 150" style="enable-background:new 45 -33.8 150 150;" xml:space="preserve">
<style type="text/css">
	.st0{enable-background:new    ;}
	.st1{fill:#DC6200;}
</style>
<g class="st0">
	<path d="M102.8,42.8h50.1v7.7h8.7v-65.3l3.7-2.6c0.7-0.4,1.1-0.9,1.1-1.5c0-1.4-3.1-4.4-9.2-9.2l-5.7,6.9h-47.3
		c-3.7-1.8-7.1-3.2-10.2-4.3v76.6h8.7V42.8z M102.8-17.3h50.1v15.9h-50.1V-17.3z M102.8,2.3h50.1v16.3h-50.1V2.3z M102.8,22.3h50.1
		v16.8h-50.1V22.3z"/>
	<rect x="116.9" y="62.8" width="8.7" height="42.4"/>
	<path d="M93.2,68.8c-10.1,13.7-22.4,24.1-36.8,31.3l2.3,3.3C74,98.2,86.9,90.2,97.4,79.6c1.9,0.2,3.1,0.3,3.4,0.3
		c2.6,0,3.9-0.6,3.9-1.8C104.7,76.1,100.9,73,93.2,68.8z"/>
	<path class="st1" d="M175.8,49.5l-7.9,9.6H74V-0.5c3.9-1.4,5.9-2.7,5.9-4c0-2.2-4.9-3.6-14.7-4.1v80.4H74v-9h42.8v0h8.7v0h59.1
		l1.6-3C183,56.1,179.5,52.6,175.8,49.5z"/>
	<path d="M173.4,84.1c-8.5-5.9-20-11-34.4-15.3l-1.6,3.3c14.8,7.2,26,15.2,33.6,24c2.5,3.2,4.6,4.8,6.2,4.8c3.3,0,5-1.9,5-5.7
		C182.3,91.9,179.3,88.2,173.4,84.1z"/>
</g>
</svg>
