<?xml version="1.0" encoding="utf-8"?>
<!-- Generator: Adobe Illustrator 19.0.0, SVG Export Plug-In . SVG Version: 6.00 Build 0)  -->
<svg version="1.1" id="圖層_1" xmlns="http://www.w3.org/2000/svg" xmlns:xlink="http://www.w3.org/1999/xlink" x="0px" y="0px"
	 viewBox="45 -33.8 150 150" style="enable-background:new 45 -33.8 150 150;" xml:space="preserve">
<style type="text/css">
	.st0{enable-background:new    ;}
	.st1{fill:#DC6200;}
</style>
<g class="st0">
	<path d="M182.8,91.2c-0.9-2.1-1.3-7.3-1.3-15.5l-3.9-1.7c-0.7,9.3-1.9,15.3-3.4,17.9c-1.4,2.3-6.3,3.4-14.7,3.4
		c-7.2,0-11.7-0.4-13.5-1.1c-1.4-0.4-2.1-1.8-2.1-4.2V71.4c10.9-3.2,20.6-7.5,29.1-13c1.8,0.3,3.2,0.5,4.2,0.5
		c2.2,0,3.3-0.6,3.3-1.7c0-1.9-3.4-4.8-10.1-8.9c-7.4,7.4-16.2,13.6-26.5,18.5V48c4.1-1.4,6.2-2.7,6.2-4c0-2-4.9-3.1-14.6-3.6v51
		c0,4.9,1,8.1,3.1,9.4c2.5,1.5,9.3,2.3,20.4,2.3c12.5,0,20.5-0.7,24.1-2c2.9-0.9,4.4-3.4,4.5-7.5C185.2,93.4,183.6,92.6,182.8,91.2z
		"/>
	<path d="M104.8,30.5c0.7-0.4,1-1,1-1.6c0-1.5-2.8-4.4-8.3-8.7l-5.2,6.4H76.7c0.1-1.9,0.1-4.9,0.1-8.9V2.6h31.2l1.8-2.9
		c-2.2-3.1-5.2-6.5-8.9-10l-6.8,9.2H83v-20.1c4-1.5,6-2.9,6-4.2c0-2-4.9-3.3-14.6-3.9v28.2h-24L52,2.6h16.3v15.5
		c0,37.1-6.2,65.2-18.6,84.5l3.3,2.3c14.3-16.7,22.1-41.5,23.6-74.6h16.6c-0.1,25.2-1.5,43.9-4.2,56c-1.1,4.4-3.7,6.6-7.8,6.6
		c-3.9,0-8.3-0.5-13.3-1.5v4.2c8.1,1.1,12.2,3.9,12.3,8.4c5.1,0,8.9-1,11.4-2.9c2.9-2.2,4.9-6.2,5.9-12c2.4-12.7,3.7-31.4,3.8-56.1
		L104.8,30.5z"/>
	<path d="M118.2,4.4c1.2-1.8,2.8-4.6,4.8-8.4h63.1l1.6-2.9c-2.8-3.4-6.2-7-10.2-10.6l-7.2,9.7H125c2.4-5.1,4.2-9.7,5.6-13.8
		c4.2-0.8,6.3-1.8,6.3-3.1c0-2.1-4.8-3.9-14.4-5.4c-4,20.2-10.8,36.6-20.4,49.2l2.9,2.4c4.7-4.8,9-10.3,12.9-16.4v0.2L118.2,4.4
		C118.3,4.5,118.3,4.5,118.2,4.4z"/>
	<path class="st1" d="M168.6,37.8h8.3v-22l3.6-2.3c0.8-0.5,1.2-1,1.2-1.6c0-1.2-3.2-4.1-9.5-8.7l-4.8,6h-39.6
		c-3.9-2-7.1-3.5-9.5-4.7l-0.5,0.9v30.3c0,29.2-6,51.4-18,66.5l2.9,2.5c15.8-15.3,23.7-38.6,23.7-69.7v-2.6h42.3V37.8z M126.4,28.6
		V12.9h42.3v15.7H126.4z"/>
</g>
</svg>
