<?xml version="1.0" encoding="utf-8"?>
<!-- Generator: Adobe Illustrator 19.0.0, SVG Export Plug-In . SVG Version: 6.00 Build 0)  -->
<svg version="1.1" id="圖層_1" xmlns="http://www.w3.org/2000/svg" xmlns:xlink="http://www.w3.org/1999/xlink" x="0px" y="0px"
	 viewBox="45 -33.8 150 150" style="enable-background:new 45 -33.8 150 150;" xml:space="preserve">
<style type="text/css">
	.st0{enable-background:new    ;}
	.st1{fill:#DC6200;}
</style>
<g class="st0">
	<path class="st1" d="M176,11l-5.7,7.3h-13.8v-0.2h-8.4v0.2H120v-0.2h-8.3v0.2H91.7v-0.2h-8.6v0.2H70.2c-0.3-3.1-0.5-5.4-0.7-6.7
		L65.8,11c-0.9,10.2-4,18-9.2,23.7c-1.6,1.6-2.4,3.2-2.4,4.8c0,1.3,0.5,2.5,1.5,3.4c1.4,1.2,2.7,1.8,4.1,1.8c2.8,0,5.3-2.3,7.3-6.9
		c2-4.5,3-9.7,3.1-15.7h100.6c-1.4,4.8-3.5,9.4-6.3,13.6l3,2c3.9-3.1,8-7.3,12.2-12.5l4.1-1c1.1-0.3,1.6-0.9,1.6-1.7
		C185.4,20.9,182.3,17.1,176,11z"/>
	<path d="M152.7,28.3l-5.6,6.7H93.3c-5.1-2.5-8.6-4.2-10.7-5.1v75.3h8.9V74h56.5v13.5c0,3-1.8,4.5-5.4,4.5c-5.5,0-12.5-0.4-21.2-1.2
		v4c8.2,1.2,13.4,2.3,15.6,3.1c3,1.1,4.5,3,4.5,5.7c10.3,0.1,15.5-4.2,15.5-13.2V41.5l3.3-2.1c1.1-0.8,1.7-1.4,1.7-1.9
		C161.9,36,158.8,32.9,152.7,28.3z M148.1,70.3H91.5V55.6h56.5V70.3z M148.1,51.8H91.5v-13h56.5V51.8z"/>
	<path d="M91.7-18h56.4v14.3h-27c-1.3-0.7-3.1-1.7-5.3-2.9c-1-0.5-1.7-0.9-2.1-1.1l-1.8-1v26.8h8.3V0h28.1v18.1h8.4v-34l3.9-2.3
		c0.9-0.4,1.4-1,1.4-1.8c0-1.4-3-4.5-8.9-9.3l-6.2,7.5H93.3c-3.6-2.1-7-3.8-10.3-5.3v45.1h8.6V-18z"/>
</g>
</svg>
