<?xml version="1.0" encoding="utf-8"?>
<!-- Generator: Adobe Illustrator 19.0.0, SVG Export Plug-In . SVG Version: 6.00 Build 0)  -->
<svg version="1.1" id="圖層_1" xmlns="http://www.w3.org/2000/svg" xmlns:xlink="http://www.w3.org/1999/xlink" x="0px" y="0px"
	 viewBox="45 -33.8 150 150" style="enable-background:new 45 -33.8 150 150;" xml:space="preserve">
<style type="text/css">
	.st0{enable-background:new    ;}
	.st1{fill:#DC6200;}
</style>
<g class="st0">
	<path d="M85.3-29.3C76.8,3.3,64.8,31.2,49.2,54.1l3,2.3c7.3-8.7,13.9-18.4,19.9-28.9v77.7h8.6V22.3c4-1.4,6-2.7,6-4
		c0-1.4-2.6-2.7-7.7-3.7c5-10.1,9.5-21.3,13.5-33.8c4.5-0.6,6.7-1.6,6.7-3C99.3-24.2,94.6-26.6,85.3-29.3z"/>
	<rect x="134.1" y="63.6" width="8.9" height="41.7"/>
	<path class="st1" d="M174.7-8.4l-5.5,7.2h-26.3v-0.2h-8.9v0.2h-23.2c-2.9-1.7-6-3.3-9.2-4.8l-1.2-0.6v81.1h8.6v-11h25v0.2h8.9v-0.2
		h27.5v9h8.7V5.9l3.6-2.7c1-0.7,1.5-1.4,1.5-2.1C184.2-0.3,181.1-3.5,174.7-8.4z M134.1,59.7h-25V31.6h25V59.7z M134.1,27.9h-25V2.5
		h25V27.9z M170.4,59.7h-27.5V31.6h27.5V59.7z M170.4,27.9h-27.5V2.5h27.5V27.9z"/>
	<path d="M142.9-21c4.3-1.5,6.4-2.9,6.4-4.2c0-2.2-5.1-3.6-15.3-4v27.9h8.9V-21z"/>
</g>
</svg>
