<?xml version="1.0" encoding="utf-8"?>
<!-- Generator: Adobe Illustrator 19.0.0, SVG Export Plug-In . SVG Version: 6.00 Build 0)  -->
<svg version="1.1" id="圖層_1" xmlns="http://www.w3.org/2000/svg" xmlns:xlink="http://www.w3.org/1999/xlink" x="0px" y="0px"
	 viewBox="45 -33.8 150 150" style="enable-background:new 45 -33.8 150 150;" xml:space="preserve">
<style type="text/css">
	.st0{enable-background:new    ;}
	.st1{fill:#DC6200;}
</style>
<g class="st0">
	<path class="st1" d="M91.2-15.8h58.2V4.7h-24.8c-3.3-1.9-6.7-3.6-10.3-5.1v38.2h8.1V8.5h27v29.4h8.4v-50.4l4-2.6
		c1-0.6,1.5-1.3,1.5-2.1c0-1.4-3.1-4.6-9.3-9.6l-6.2,7.2H93c-2.5-1.6-5.9-3.4-10.3-5.6v63h8.6V-15.8z"/>
	<path d="M171.9,30.2l-6.4,7.7h-7.8v0h-8.4v0h-27v0h-8.1v0H91.2v0h-8.6v0h-8.1c-2.8-2-6.3-3.9-10.3-5.9v72.4h8.7V41.7h94.3v44.2
		c0,3.5-2.3,5.3-7,5.3c-6.4,0-13.5-0.5-21.5-1.4V94c8.2,1.1,13.5,2,16,2.9c3.9,1.2,5.9,3.3,6,6.3c10.1,0,15.2-4.6,15.2-13.8v-45
		l3.7-2.4c0.9-0.6,1.4-1.2,1.4-1.9C181.1,38.4,178,35.2,171.9,30.2z"/>
</g>
</svg>
