<?xml version="1.0" encoding="utf-8"?>
<!-- Generator: Adobe Illustrator 19.0.0, SVG Export Plug-In . SVG Version: 6.00 Build 0)  -->
<svg version="1.1" id="圖層_1" xmlns="http://www.w3.org/2000/svg" xmlns:xlink="http://www.w3.org/1999/xlink" x="0px" y="0px"
	 viewBox="45 -33.8 150 150" style="enable-background:new 45 -33.8 150 150;" xml:space="preserve">
<style type="text/css">
	.st0{enable-background:new    ;}
	.st1{fill:#DC6200;}
</style>
<g class="st0">
	<path class="st1" d="M178.5,87.1c-0.8-0.7-1.8-1.7-3-2.9l-8.6,10.6h-43.1V70.3h47.8l1.5-2.6c-2.6-3.3-6-6.7-10.2-10.3l-7.6,9.2
		h-31.4V43.7H115v22.8H66.7l1.7,3.7H115v24.6H54.3l1.6,3.7h128.5l1.8-2.9C183.2,92,180.6,89.1,178.5,87.1z"/>
	<path d="M123.9,43.4h32.7v7.4h8.9V-9l3.9-2.4c1-0.5,1.5-1.2,1.5-1.9c0-1.5-3.2-4.7-9.6-9.6l-5.9,7H85.1c-4.7-2-8.2-3.4-10.5-4.3v73
		h8.7v-9.4H115v0.3h8.9V43.4z M123.9-12.2h32.7v23.4h-32.7V-12.2z M123.9,14.9h32.7v24.8h-32.7V14.9z M115,39.7H83.2V14.9H115V39.7z
		 M83.2,11.2v-23.4H115v23.4H83.2z"/>
</g>
</svg>
