<?xml version="1.0" encoding="utf-8"?>
<!-- Generator: Adobe Illustrator 19.0.0, SVG Export Plug-In . SVG Version: 6.00 Build 0)  -->
<svg version="1.1" id="圖層_1" xmlns="http://www.w3.org/2000/svg" xmlns:xlink="http://www.w3.org/1999/xlink" x="0px" y="0px"
	 viewBox="45 -33.8 150 150" style="enable-background:new 45 -33.8 150 150;" xml:space="preserve">
<style type="text/css">
	.st0{enable-background:new    ;}
	.st1{fill:#DC6200;}
</style>
<g class="st0">
	<path class="st1" d="M163.8,84c-8.8-6.7-22.3-12.9-40.6-18.5l-1.7,3.3c17.1,8,30.1,17.3,38.7,27.8c2.5,3.1,4.6,4.6,6.3,4.6
		c3.5,0,5.3-1.9,5.3-5.7C171.8,91.9,169.1,88,163.8,84z"/>
	<path d="M111.9,29.1c0-1.4-2.9-4.4-8.7-9.2l-5.4,6.7H80.2c0.1-2.7,0.1-6.8,0.1-12.5V2.6h36.5l1.7-3c-3-3.9-6.2-7.4-9.6-10.6
		l-7.3,9.9H87.3v-20.4c4.3-1.3,6.4-2.6,6.4-3.7c0-2.3-5-3.6-15-3.9v28.1H52.5l1.2,3.7h17.9v11.6c0,39.4-7,68.9-20.9,88.6l3,2.3
		C63.5,94.3,70.4,81.9,74.4,68c2.7-9.6,4.5-22.1,5.4-37.6h18.9c-0.1,24.8-1.3,43.4-3.4,55.8c-0.7,3.9-3.1,5.9-7,5.9
		c-4.3,0-9.5-0.5-15.6-1.6v3.7c9.6,2.2,14.4,5.4,14.6,9.4c7.9,0.1,13-2.8,15.3-8.7c2.9-8.3,4.5-28.8,4.8-61.7l3.3-2.3
		C111.5,30.4,111.9,29.7,111.9,29.1z"/>
	<path d="M148.1-20.6c4.6-0.6,6.9-1.6,6.9-3c0-2.1-4.6-4.2-13.9-6.2c-5.7,29.9-16.5,53.7-32.4,71.6l2.7,2.7
		c17.4-15.3,29.1-34.7,35.1-58.2C153.5,7,165,25.3,181,41.4c2-2.9,4.7-5.5,8-8C170.1,17.9,156.4,0,148.1-20.6z"/>
	<path class="st1" d="M152.8,50.2c1.7,3.1,3.6,4.6,5.7,4.6c3.2,0,4.8-1.8,4.8-5.4c0-7.7-9.7-14.8-29.2-21.4l-1.8,3
		C141.8,36.2,148.6,42.6,152.8,50.2z"/>
</g>
</svg>
