<?xml version="1.0" encoding="utf-8"?>
<!-- Generator: Adobe Illustrator 19.0.0, SVG Export Plug-In . SVG Version: 6.00 Build 0)  -->
<svg version="1.1" id="圖層_1" xmlns="http://www.w3.org/2000/svg" xmlns:xlink="http://www.w3.org/1999/xlink" x="0px" y="0px"
	 viewBox="45 -33.8 150 150" style="enable-background:new 45 -33.8 150 150;" xml:space="preserve">
<style type="text/css">
	.st0{enable-background:new    ;}
	.st1{fill:#DC6200;}
</style>
<g class="st0">
	<path class="st1" d="M55.1,11.2c14.1-4.4,26.3-10,36.5-16.6c5.1,3.5,9.3,6.7,12.5,9.7c3.2,3,5.4,4.5,6.6,4.5c2.5,0,3.8-1.3,3.8-4
		c0-3.9-5.6-8.9-16.7-15.1c4.1-2.7,8.6-6.3,13.3-10.6c0.8,0.1,1.7,0.1,2.8,0.1c2.8,0,4.2-0.6,4.2-1.7c0-1.9-3.5-4.5-10.5-7.9
		c-5.3,6.2-10.9,11.7-16.8,16.6l-1.3-0.6c-7-3.3-15.7-6.6-26.1-10l-1.8,3.1c7.4,3.1,15.2,6.9,23.5,11.6C75-2,64.4,3.9,53.3,8
		L55.1,11.2z"/>
	<path d="M158.2,65.2l0.4-0.9c7.8-15,12.5-34,14.4-57.1l0.1-1.5h13.5l1.5-2.7c-2.6-3.9-5.7-7.3-9.2-10.3L172.5,2h-31.9
		c1.8-7,3.2-14.2,4.3-21.8c4.2-1,6.4-2.2,6.4-3.4c0-2.1-4.8-3.9-14.3-5.6c-3.3,31.2-9.8,55.8-19.5,73.8l3.1,1.9
		c5.4-7.9,10.1-16.7,13.9-26.7c2.8,16.8,7.6,31.7,14.4,44.8c-9.5,16.2-22.5,28.5-39,36.8l2.1,3.3c18.3-7.4,32.1-18.2,41.5-32.4
		c7.7,11.4,17,21.3,28.1,29.9c2.3-3.5,4.9-6.4,7.7-8.7C177,86.2,166.6,76.6,158.2,65.2z M153.2,57.5c-7.3-13.1-12.6-28.1-15.7-45
		c0.3-0.9,0.8-2.3,1.4-4.4c0.3-1,0.5-1.8,0.7-2.3h24.8C163.2,25.3,159.5,42.6,153.2,57.5z"/>
	<path d="M123.4,59.7c-7,1.5-15.7,3-26.1,4.6v-5.3c3.5-0.8,5.3-1.7,5.3-2.7c0-0.9-1.3-1.7-3.8-2.4c4.4-3.1,8.5-6.5,12.3-10.2
		l4.5-1.4c1.1-0.3,1.6-0.8,1.6-1.6c0-1.5-2.9-4.7-8.7-9.6l-5.1,6H79c2.4-3.9,4.8-8.3,7-13.1h37.1l1.6-3c-3.1-3.9-6-7-8.6-9.3
		l-6.4,8.6h-22c1.1-2.2,2.3-5.2,3.7-9c4.3-0.9,6.4-2,6.4-3.3c0-1.9-4.3-3.8-12.8-5.7c-1.7,5.8-3.8,11.8-6.4,18H51.2l1.6,3.7h24
		C69.6,40,60.4,53.3,49.1,63.8l2.4,2.9c9.9-7.1,18.3-15.7,25-25.9h26.7c-2.5,4-5.4,7.9-8.9,11.9c-1.2-0.2-3-0.5-5.6-1v14l-1.2,0.1
		c-7.8,1.2-17.2,2.4-28.2,3.6c2.1,8.7,4.1,13,6,13c1.3,0,2.3-2,3-5.9c7.4-1.3,14.2-2.7,20.4-4v16c0,3.1-1.7,4.7-5.1,4.7
		c-5,0-10.2-0.4-15.5-1.2v3.7c5,0.9,8.6,1.8,10.7,2.7c2.8,1.2,4.3,3.2,4.5,6c9.2-0.1,13.8-3.7,13.8-10.6V70.7
		c8.3-1.9,17.3-4.2,26.8-7L123.4,59.7z"/>
</g>
</svg>
