<?xml version="1.0" encoding="utf-8"?>
<!-- Generator: Adobe Illustrator 19.0.0, SVG Export Plug-In . SVG Version: 6.00 Build 0)  -->
<svg version="1.1" id="圖層_1" xmlns="http://www.w3.org/2000/svg" xmlns:xlink="http://www.w3.org/1999/xlink" x="0px" y="0px"
	 viewBox="45 -33.8 150 150" style="enable-background:new 45 -33.8 150 150;" xml:space="preserve">
<style type="text/css">
	.st0{enable-background:new    ;}
	.st1{fill:#DC6200;}
</style>
<g class="st0">
	<path d="M146.5-5l5-1.5c1.4-0.5,2.1-1.1,2.1-2c0-1.6-3.4-5.2-10.3-10.6l-6.4,7h-34.9c3-5.4,4.5-8.2,4.6-8.4
		c4.7-0.4,7.1-1.3,7.1-2.6c0-2.1-4.7-4.3-14.1-6.5C90.1-5.2,76.6,14.4,59,29.1l2.6,3C77.1,21.2,89.7,7.7,99.7-8.3h37.5
		c-4.5,9.8-10.7,19.8-18.5,30h5.9C132.3,13.8,139.6,4.9,146.5-5z"/>
	<path class="st1" d="M167.8,15.3l-5.9,6.6h-37.6c0,0,0.1-0.1,0.1-0.1h-5.9c0,0-0.1,0.1-0.1,0.1H74.8l1.7,3.7h86.9v28.5h0v3.7h0V91
		H63l1.7,3.7h98.7v9.7h9.3V28.9l3.7-2.3c1-0.5,1.5-1.2,1.5-1.9C178,23.7,174.6,20.6,167.8,15.3z"/>
	<polygon points="64.9,54.1 66.5,57.8 163.3,57.8 163.3,54.1 	"/>
</g>
</svg>
