<?xml version="1.0" encoding="utf-8"?>
<!-- Generator: Adobe Illustrator 19.0.0, SVG Export Plug-In . SVG Version: 6.00 Build 0)  -->
<svg version="1.1" id="圖層_1" xmlns="http://www.w3.org/2000/svg" xmlns:xlink="http://www.w3.org/1999/xlink" x="0px" y="0px"
	 viewBox="45 -33.8 150 150" style="enable-background:new 45 -33.8 150 150;" xml:space="preserve">
<style type="text/css">
	.st0{enable-background:new    ;}
	.st1{fill:#DC6200;}
</style>
<g class="st0">
	<path d="M131.7,66.4l-2.7,2.1c5.6,8.5,8.6,16.6,9,24.2c0.3,4.4,1.8,6.6,4.6,6.6c3.6,0,5.4-2.4,5.4-7.2
		C148.1,84.7,142.6,76.1,131.7,66.4z"/>
	<path d="M77.7,93.7c-1.7,1.4-2.6,2.8-2.6,4.2c0,1.4,0.7,2.6,2,3.7c1.2,1.2,2.5,1.8,3.9,1.8c2.2,0,4.6-1.9,7.2-5.7
		c4.4-6.6,6.7-16.3,6.9-29.1l-3.7-1.4C90,78.8,85.5,87.6,77.7,93.7z"/>
	<path d="M106.7,68.5c2.4,6.7,3.6,13.4,3.6,19.9c0,2-0.1,4.3-0.4,6.9c-0.1,0.3-0.1,0.7-0.1,1.1c0,2.7,1.4,4,4.3,4
		c3.9,0,5.9-2.8,5.9-8.4c0-7-3.3-15.3-9.9-24.9L106.7,68.5z"/>
	<path class="st1" d="M173.8,10l-7.2,9.6h-15.9V8c4-1.6,6-3,6-4.2c0-2-4.9-3.3-14.6-4v19.7h-31.8V8c3.9-1.5,5.9-2.9,5.9-4
		c0-2.1-4.8-3.3-14.4-3.8v19.4H77.5c0.5,1.2,1.1,2.4,1.7,3.7h22.6v38.7h8.6v-9.5h31.8v8.7h8.6V23.3h31.3l1.5-2.6
		C181.2,17.5,177.9,13.9,173.8,10z M142.2,48.8h-31.8V23.3h31.8V48.8z"/>
	<path d="M172.7-17.7L165.5-8h-40.6v-13.5c4.3-1.5,6.4-2.9,6.4-4.2c0-2.2-5-3.4-15-3.6V-8H77.2c-4.2-2.1-7.9-3.8-10.8-4.8v39.3
		c0,34-5.3,59.5-15.9,76.7l3.3,2.3c14.5-17.2,21.8-43.5,21.8-79V-4.3h105.8L183-7C179.4-11.2,176-14.8,172.7-17.7z"/>
	<path d="M155.3,65.2l-2.4,2.5c8.7,8.7,14.2,17.6,16.3,26.4c1.1,4.4,2.9,6.6,5.6,6.6c3.6,0,5.4-2.2,5.4-6.6c0-2.6-1.3-5.9-3.9-10
		C171.8,77.1,164.8,70.8,155.3,65.2z"/>
</g>
</svg>
