<?xml version="1.0" encoding="utf-8"?>
<!-- Generator: Adobe Illustrator 19.0.0, SVG Export Plug-In . SVG Version: 6.00 Build 0)  -->
<svg version="1.1" id="圖層_1" xmlns="http://www.w3.org/2000/svg" xmlns:xlink="http://www.w3.org/1999/xlink" x="0px" y="0px"
	 viewBox="45 -33.8 150 150" style="enable-background:new 45 -33.8 150 150;" xml:space="preserve">
<style type="text/css">
	.st0{fill:#DC6200;}
</style>
<g>
	<path d="M118.2,18.1v58.1h8.7V15.8l33-8.9c0,22.7-6.6,52.8-8.3,60.2l3.7,1.9c3.3-6.9,13.1-31.3,13.2-60.4l4-2.6
		c1-0.7,1.5-1.4,1.5-2.1c0-1.6-3.4-4.8-10.2-9.6L158.2,3l-31.3,8.3V-17c4.4-1.5,6.7-3,6.7-4.5c0-2.5-5.1-3.7-15.4-3.6v38.8
		l-16.4,4.5l1.4,3.9L118.2,18.1z"/>
	<path class="st0" d="M178.1,70.8c0-1.6,0.1-3.5,0.2-5.6l-4.1-1.5c-0.6,7.8-1.6,14.5-3,19.9c-0.9,3.3-2.7,5.3-5.3,6
		c-5,1.2-17.6,1.8-37.8,1.8c-21.2,0-33.6-0.6-37.2-1.7c-2-0.7-3-2.6-3-5.6V26.3l15.3-4.1l-1.4-4l-13.9,3.7v-38.2
		c4.7-1.7,7-3.2,7-4.4c0-2.1-5.3-3.3-16-3.6v48.5L54,31l1.8,3.7l23.1-6.2v56.3c0,6.2,1.2,10.1,3.7,11.7c3.5,2.3,19.3,3.4,47.4,3.4
		c28.4,0,45-0.9,50-2.7c2.9-1,4.6-3.9,5.1-8.6C180.4,88.9,178.1,82.9,178.1,70.8z"/>
</g>
</svg>
