<?xml version="1.0" encoding="utf-8"?>
<!-- Generator: Adobe Illustrator 19.0.0, SVG Export Plug-In . SVG Version: 6.00 Build 0)  -->
<svg version="1.1" id="圖層_1" xmlns="http://www.w3.org/2000/svg" xmlns:xlink="http://www.w3.org/1999/xlink" x="0px" y="0px"
	 viewBox="45 -33.8 150 150" style="enable-background:new 45 -33.8 150 150;" xml:space="preserve">
<style type="text/css">
	.st0{enable-background:new    ;}
	.st1{fill:#DC6200;}
</style>
<g class="st0">
	<path d="M133.5,56.8c4.5,8.2,7.7,14.9,9.4,20.4l-0.9,0.2c-5.5,1.2-12.3,2.4-20.2,3.6l-2.1,0.4V-2.3c4.1-0.9,6.2-2,6.2-3.1
		c0-2.2-5-3.4-14.9-3.6v91.6c-10.4,1.2-20.8,2.3-31.1,3.3c2.5,9.4,4.8,14.1,6.9,14.1c1.1,0,2-1.9,2.7-5.6c19.5-3.6,37.7-8,54.6-13.3
		c1.2,4.2,1.9,7.8,2.3,11.1c0.3,4.3,1.8,6.4,4.5,6.4c3.7,0,5.6-2.3,5.6-7c0-10-6.7-22.3-20.1-36.9L133.5,56.8z"/>
	<path class="st1" d="M151.6-14.1c0,0,9.2-1.2,10-1.4c2.6,0.6,4.4,0.9,5.6,0.9c1.7,0,2.6-0.4,2.6-1.2c0-1.9-3.5-5-10.5-9.4
		c-20.4,5.7-45,10.1-74,13c-4-2.1-7.8-3.8-11.4-5.3v40.4c0,34.8-7.3,61.5-22,80.3l3,2.7c10.6-10.2,18-21.9,22-35.1
		c4.1-12.9,6.2-29.2,6.2-48.6V-8l1.5-0.1c18.6-0.7,62.3-5.2,62.3-5.2c0,0,0,0,0,0L151.6-14.1C151.6-14.1,151.6-14.1,151.6-14.1z"/>
	<path d="M162,47.1c-5.5-15.4-8.8-33.7-9.9-54.9c-0.1-2.1-0.2-4.2-0.4-6.3l-5,0.7c0.3,14.2,1.1,26.5,2.6,37
		c3.9,28.3,14.1,54.3,30.6,78c2.1-3.6,5-6.7,8.6-9.3C176.2,77.3,167.4,62.2,162,47.1z"/>
</g>
</svg>
