<?xml version="1.0" encoding="utf-8"?>
<!-- Generator: Adobe Illustrator 19.0.0, SVG Export Plug-In . SVG Version: 6.00 Build 0)  -->
<svg version="1.1" id="圖層_1" xmlns="http://www.w3.org/2000/svg" xmlns:xlink="http://www.w3.org/1999/xlink" x="0px" y="0px"
	 viewBox="45 -33.8 150 150" style="enable-background:new 45 -33.8 150 150;" xml:space="preserve">
<style type="text/css">
	.st0{enable-background:new    ;}
	.st1{fill:#DC6200;}
</style>
<g class="st0">
	<path d="M185.1-13.1l1.7-3.1c-2.9-3.4-5.9-6.5-9.2-9.4l-1.7-1.5l-8.3,10.3H53.1l1.6,3.7h44v0h8.7v0h19.4v0h8.6v0H185.1z"/>
	<path class="st1" d="M98.8,17.9l-0.1,1.7C97.9,41,90.5,57.3,76.3,68.5l2.6,3.3c18.5-11.5,28-29.5,28.6-53.9h0v-3.7h0v-27.3h-8.7
		v27.3h-0.1L98.8,17.9L98.8,17.9z"/>
	<path class="st1" d="M135.5,14.2v-27.3h-8.6v27.3h-0.1v3.7h0.1v35.4c0,4.5,1.2,7.3,3.7,8.5c2.4,1.1,6.6,1.7,12.7,1.7
		c7.1,0,11.9-0.3,14.4-1c3.4-0.7,5.1-3.4,5.3-8.1c-2.4,0-4.1-1.2-4.8-3.6c-0.8-2.9-1.2-8.8-1.2-17.7l-4-1.3
		c-0.6,8.4-1.4,14.8-2.6,19.3c-0.9,3.2-3.5,4.8-7.7,4.8c-4.8,0-7.2-1.5-7.2-4.5V17.9h0L135.5,14.2L135.5,14.2z"/>
	<path d="M170.9,7l-6.1,7.2h-29.3v3.7h30.9v69.2H72.8V17.9h25.9v-3.7H73.9c-3.9-1.9-7.2-3.3-10-4.3v93.6h8.9V90.9h93.6v12.6h8.7
		V20.9l3.9-2.6c0.9-0.6,1.4-1.2,1.4-1.8C180.4,15.3,177.2,12.1,170.9,7z"/>
	<rect x="107.5" y="14.2" width="19.3" height="3.7"/>
</g>
</svg>
