<?xml version="1.0" encoding="utf-8"?>
<!-- Generator: Adobe Illustrator 19.0.0, SVG Export Plug-In . SVG Version: 6.00 Build 0)  -->
<svg version="1.1" id="圖層_1" xmlns="http://www.w3.org/2000/svg" xmlns:xlink="http://www.w3.org/1999/xlink" x="0px" y="0px"
	 viewBox="45 -33.8 150 150" style="enable-background:new 45 -33.8 150 150;" xml:space="preserve">
<style type="text/css">
	.st0{enable-background:new    ;}
	.st1{fill:#DC6200;}
</style>
<g class="st0">
	<path d="M109.6,0.2c3.1,0,4.7-0.5,4.7-1.6c0-1.7-3.9-4.1-11.6-7.2C90.9,4.7,74.8,14.2,54.4,19.9l1.6,3.3c21-4.3,38.1-12.1,51-23.1
		C107.9,0.1,108.7,0.2,109.6,0.2z"/>
	<path d="M129.3,55.9c0-2.1-2.2-5.4-6.6-10c-2.5,4.6-5.6,8.9-9.3,13V33.1l3-2.1c0.9-0.6,1.3-1.2,1.3-1.8c0-1.4-2.7-4.1-8.2-8.1
		l-5.1,6.2H89.7c2.9-3.1,5.1-5.8,6.6-8.3c3.4-0.7,5.1-1.6,5.1-2.7c0-1.7-4.3-3-12.9-3.7c-0.6,5.2-1.7,10.1-3.3,14.7h-7.7
		c-2.5-1.2-5.8-2.5-9.7-3.9v43.9c-4.6,0.5-9.2,0.8-13.8,1c1.9,8.4,3.8,12.7,5.6,12.7c1.1,0,2.1-1.8,3-5.4c11.9-1.9,26.1-5,42.8-9.4
		C91.7,78.1,74,88.2,52.3,96.3l2,3.3c19.5-6,36.5-14.2,51-24.8v14.4c0,2.8-1.5,4.2-4.5,4.2c-4.8,0-10.1-0.4-15.9-1.2v3.7
		c5.3,1.1,9,2,11.1,2.7c2.6,1.2,4,3.2,4.2,6.2c8.8,0.1,13.3-3.4,13.3-10.8V68.3c4.9-4.4,8.7-8.5,11.4-12.2c1.2,0.7,2.3,1.1,3.1,1.1
		S129.3,56.8,129.3,55.9z M105.3,62.2c-7.7,1.6-17.5,3-29.4,4.2V55h29.4V62.2z M105.3,51.2H75.9v-8.4h29.4V51.2z M105.3,39.1H75.9
		V31h29.4V39.1z"/>
	<path d="M174.1-20l-5.7,6.6h-44.7v-9.4c4.3-1.3,6.4-2.6,6.4-3.7c0-2.1-5-3.1-15-3.3v16.5h-42c0-0.2-0.1-1.1-0.2-2.7
		c0-1.3-0.1-2.3-0.3-3.1L69-19.9C67.6-10.2,64.5-3.2,59.5,1c-2.3,2-3.4,3.6-3.4,4.9c0,3.5,1.8,5.3,5.3,5.3c2.8,0,5.5-2.2,8.1-6.7
		c2.2-4,3.5-8.7,3.8-14.1h52.7v20c0,4.3,1.5,7.1,4.5,8.3c2.5,0.9,9.8,1.3,21.9,1.3c10.2,0,17.2-0.3,20.9-1c3.9-0.6,6-3.1,6.3-7.3
		c-1.8,0-3-0.5-3.8-1.6c-1-1.4-1.5-4.2-1.5-8.3l-3.6-1.2c-0.8,4.7-1.6,7.8-2.6,9.3c-1.4,2-7.1,3-17.1,3c-8.2,0-13.2-0.4-14.9-1.2
		c-1.3-0.6-2-1.9-2-4V-9.7H169c-2.1,2.6-5.1,5.5-9.1,8.9l1.9,2.7c5.6-2,10.8-4.4,15.7-7.3l5.3-0.6c1.5-0.1,2.3-0.7,2.3-1.6
		C185.1-9.5,181.5-13.6,174.1-20z"/>
	<path class="st1" d="M175.4,59.1l-5.1,5.9h-33.2c1.2-4.8,2.1-9.8,2.9-14.9h27.5v4.8h8.1V32.3l3.1-2c0.9-0.6,1.3-1.2,1.3-1.8
		c0-1.2-3-3.9-8.9-8.1l-4.9,5.7h-39.9l1.6,3.7h39.5v16.4h-25.2c-0.7-0.4-3.8-2.1-9.2-5c-1.7,12.5-4.1,23.7-7.2,33.8l8.2,1.6
		c1.3-4.7,2-7.4,2.1-8.1H171c-0.1,7.7-1.1,14.1-2.9,19c-1.4,3.6-4.2,5.4-8.6,5.4c-5.2,0-12-0.5-20.2-1.4v3.7
		c7.9,1.4,12.8,2.6,14.9,3.4c2.7,1,4.2,2.9,4.3,5.6c6-0.1,10.6-1.8,13.7-5.1c4.1-4.3,6.4-13.8,7.2-28.5l3.1-2.1
		c0.9-0.6,1.4-1.2,1.4-1.8C184,65.8,181.2,63.1,175.4,59.1z"/>
</g>
</svg>
