<?xml version="1.0" encoding="utf-8"?>
<!-- Generator: Adobe Illustrator 19.0.0, SVG Export Plug-In . SVG Version: 6.00 Build 0)  -->
<svg version="1.1" id="圖層_1" xmlns="http://www.w3.org/2000/svg" xmlns:xlink="http://www.w3.org/1999/xlink" x="0px" y="0px"
	 viewBox="45 -33.8 150 150" style="enable-background:new 45 -33.8 150 150;" xml:space="preserve">
<style type="text/css">
	.st0{enable-background:new    ;}
	.st1{fill:#DC6200;}
</style>
<g class="st0">
	<path class="st1" d="M115.5,85.3c0,3-1.9,4.5-5.7,4.5c-6.4,0-14.9-0.5-25.3-1.5v4l4.2,0.6c7.2,1.1,12.1,2.1,14.6,3.1
		c3.7,1.3,5.6,3.5,5.6,6.6c3.2,0,6-0.3,8.6-1c5.2-1.4,7.8-5.4,7.8-12.2V-6.9h-9.6V85.3z"/>
	<path d="M182-7l1.7-3c-2.5-3.1-6.4-7.1-11.9-11.9l-8.7,11.1H56.3L58.1-7h57.4v0h9.6v0H182z"/>
</g>
</svg>
