<?xml version="1.0" encoding="utf-8"?>
<!-- Generator: Adobe Illustrator 19.0.0, SVG Export Plug-In . SVG Version: 6.00 Build 0)  -->
<svg version="1.1" id="圖層_1" xmlns="http://www.w3.org/2000/svg" xmlns:xlink="http://www.w3.org/1999/xlink" x="0px" y="0px"
	 viewBox="45 -33.8 150 150" style="enable-background:new 45 -33.8 150 150;" xml:space="preserve">
<style type="text/css">
	.st0{enable-background:new    ;}
	.st1{fill:#DC6200;}
</style>
<g class="st0">
	<path d="M123.7,34.2h35.1v4.6h8.7V11.9l3-2.4c1.2-1,1.8-1.8,1.8-2.4c0-1.3-3-4.1-9-8.5l-6,6.7h-33.6v-5.6c4.5-1.3,6.7-2.7,6.7-4.2
		c0-2.2-5.2-3.4-15.5-3.7V5.3H82.6c-4.2-1.9-8-3.5-11.4-4.7v41.9h8.7v-8.4H115v7.2l8.7,0V34.2z M123.7,9.1h35.1v21.4h-35.1V9.1z
		 M115,30.4H79.9V9.1H115V30.4z"/>
	<path d="M182.8-8.7l1.5-2.7c-3.1-3.9-6.7-7.7-10.6-11.4l-8.6,10.3h-41.2v-8.7c4.2-1.5,6.3-2.9,6.3-4.2c0-2.3-5.1-3.6-15.2-3.7v16.6
		H55.2l1.5,3.7H182.8z"/>
	<path d="M126.4,46.9c0-0.8-0.9-1.6-2.7-2.3l-9.5-3.1C104.1,54,93.1,63.7,81.3,70.7C71.7,76.3,61.6,81.1,51.2,85l1.9,3.6
		c12.2-3.9,22.2-8,30-12.3c2.3-1.2,5.3-3,9-5.2v0.1l8.7-5.8v-0.2c6.5-4.4,12.3-9.2,17.4-14.1c0,0,0,0.1,0.1,0.1l2.8-2.2
		c0,0,0-0.1,0-0.1C124.7,48.7,126.4,48,126.4,46.9z"/>
	<path class="st1" d="M138.8,81.4c-5.3,1.3-18,3.5-37.9,6.7V65.4l-8.7,5.8v18.4c-14,2.1-22.4,3.4-25.3,3.7
		c2.4,9.2,4.7,13.8,6.9,13.8c1.2,0,2.3-1.9,3.3-5.6c22.7-4.6,43.5-10,62.5-16.2L138.8,81.4z"/>
	<path class="st1" d="M145.9,76.7c8.5-4.7,16.6-10.4,24.2-17.2c4.6,0.5,6.9,0,6.9-1.7c0-2.1-3.7-5.5-11.1-10
		c-5.7,8.7-13.5,17.6-23.3,26.6c-8.1-5.8-15.2-14.3-21.5-25.3l-2.8,2.2c2.5,5.4,4.9,9.9,7.2,13.3c2.8,4.2,6.7,8.6,11.6,13.4
		c10.4,10.1,24.6,18.2,42.7,24.2c2.1-4,4.9-7.2,8.1-9.7C170.2,88.8,156.2,83.5,145.9,76.7z"/>
</g>
</svg>
