<?xml version="1.0" encoding="utf-8"?>
<!-- Generator: Adobe Illustrator 19.0.0, SVG Export Plug-In . SVG Version: 6.00 Build 0)  -->
<svg version="1.1" id="圖層_1" xmlns="http://www.w3.org/2000/svg" xmlns:xlink="http://www.w3.org/1999/xlink" x="0px" y="0px"
	 viewBox="45 -33.8 150 150" style="enable-background:new 45 -33.8 150 150;" xml:space="preserve">
<style type="text/css">
	.st0{enable-background:new    ;}
	.st1{fill:#DC6200;}
</style>
<g class="st0">
	<path d="M115.2,52.3V29.6l2.7-1.7c0.8-0.4,1.2-1,1.2-1.6c0-1.3-2.6-4-7.9-8.3l-4.5,5.3H92.4l-9-4.5v36.3H91v-6.7h16.4v4H115.2z
		 M91,44.7V27.1h16.4v17.6H91z"/>
	<path d="M122.1,55.3c-13.4,4.3-28.7,7.9-45.9,10.7c2.5,7.8,4.7,11.7,6.4,11.7c1.3,0,2.1-1.8,2.6-5.3c12.2-3.4,24.8-8,37.8-13.8
		L122.1,55.3z"/>
	<path d="M143.9,3c0.7,2.2,2,3.3,3.7,3.3c3,0,4.5-1.7,4.5-5c0-4.4-4.7-7.8-14.2-10l-1.5,2.6C140.2-3.7,142.7-0.7,143.9,3z"/>
	<path d="M73.6,8.8l1.5,3.7h48.1c0.8,16.7,3.1,30.6,6.9,41.5c-7.7,11.4-17.7,21-30,28.7l2.2,2.9c13-6.7,22.9-14.3,29.9-22.8
		c0.8-1,1.3-1.6,1.5-1.8c4,7.8,9.1,14.2,15.5,19.3c4,3.2,7.3,4.8,10,4.8c3.4,0,5.4-2.1,6.2-6.4c-2.9-0.4-4.4-3.8-4.4-10
		c0-3.4,0.2-7.7,0.7-12.7l-3.7-2.1c-1.3,12.4-2.9,18.6-4.8,18.6c-0.7,0-2-1-4-3c-4.2-4.2-7.8-9.3-10.7-15.5
		c5.7-8.1,10.2-16.2,13.5-24.2c3.6,0,5.4-0.6,5.4-1.8c0-1.9-3.6-4.3-10.8-7.5c-3.2,10.3-6.9,18.9-11.3,25.9
		c-2.6-10.3-4-21.8-4.3-34.4h31.9l1.3-2.5c-2.5-3.5-4.8-6.2-6.7-8.1l-4.8,6.9h-21.8C131,5.6,131,2.2,131-2v-3
		c2.8-1.2,4.2-2.3,4.2-3.4c0-2-4.1-3-12.2-3.1v9.3c0,5.3,0,9,0.1,11.1H73.6z"/>
	<path class="st1" d="M174.2-26l-5.6,6.7H70.9c-0.2-0.1-9.6-4.7-10.8-5.3v129.7h8.7v-9.4h101.1v9.4h8.7V-12l3.4-2.6
		c0.8-0.6,1.2-1.3,1.2-1.9C183.1-17.9,180.2-21,174.2-26z M169.8,92H68.7V-15.5h101.1V92z"/>
</g>
</svg>
