<?xml version="1.0" encoding="utf-8"?>
<!-- Generator: Adobe Illustrator 19.0.0, SVG Export Plug-In . SVG Version: 6.00 Build 0)  -->
<svg version="1.1" id="圖層_1" xmlns="http://www.w3.org/2000/svg" xmlns:xlink="http://www.w3.org/1999/xlink" x="0px" y="0px"
	 viewBox="45 -33.8 150 150" style="enable-background:new 45 -33.8 150 150;" xml:space="preserve">
<style type="text/css">
	.st0{enable-background:new    ;}
	.st1{fill:#DC6200;}
</style>
<g class="st0">
	<path d="M115.5-4.7h71l1.5-2.9c-2.9-3.9-5.8-7.2-8.9-9.7l-6.7,8.9h-21.9v-13.8c3.7-1.2,5.6-2.4,5.6-3.7c0-2.1-4.7-3.4-14-3.9v21.3
		h-25.2c-3.8-2.1-7.1-3.8-10-4.8v44.8c0,29.9-5.5,53.5-16.6,70.8l3,2.6c14.9-17.1,22.3-41.6,22.3-73.3V-4.7z"/>
	<path class="st1" d="M95.8,62.7c2.8,0,4.2-1.7,4.2-5.1c0-4.5-3.4-9.6-10.1-15.4c3.8-3.3,6.8-6.5,9-9.4c3.3,0,5-0.6,5-1.7
		c0-1.7-3.1-4.1-9.3-7.5c-1.9,5.7-4.4,11.1-7.5,16.2c-1.3-1-3.9-2.8-7.8-5.4v-2.9c5-7.7,9.9-16.6,14.6-26.7l3.9-2
		c0.8-0.5,1.2-1,1.2-1.6c0-1.2-3-4.5-8.9-9.7L85-1.3h-6.7v-20.4c4.3-1.5,6.5-2.9,6.5-4.2c0-2.3-5-3.4-14.9-3.4v28.1H51.7l1.4,3.7
		h32.3C77.1,23.5,65.3,42.7,50,60l2.6,2.9c6.7-6.3,12.7-12.8,17.9-19.5v61.8h8.7V39.4C84.7,44.8,88.7,51,91.1,58
		C92.2,61.2,93.8,62.7,95.8,62.7z"/>
	<path d="M177.5,72l-6.5,7.3h-16.8V65.4h16v4.9h8.1V35.5l2.9-2c1-0.7,1.5-1.4,1.5-2.1c0-1.2-2.9-3.9-8.6-8.1l-5.1,6h-14.9v-12h29.6
		l1.6-2.6c-2.6-3.3-5.5-6.4-8.9-9.4l-6,8.3h-16.3v-8c3.8-1.2,5.7-2.4,5.7-3.6c0-2-4.7-3.1-14.1-3.4v15h-28.9l1.7,3.7h27.2v12h-13.5
		c-2.5-1.2-5.7-2.5-9.7-3.9v45.9h8v-6h15.2v13.9h-32.7l1.6,3.7h31.1v22.2h8.4V83h31.1l1.4-2.7C183.5,76.8,180.4,74,177.5,72z
		 M154.2,33.1h16v12h-16V33.1z M154.2,48.8h16v12.8h-16V48.8z M145.8,61.6h-15.2V48.8h15.2V61.6z M145.8,45.1h-15.2v-12h15.2V45.1z"
		/>
</g>
</svg>
