<?xml version="1.0" encoding="utf-8"?>
<!-- Generator: Adobe Illustrator 19.0.0, SVG Export Plug-In . SVG Version: 6.00 Build 0)  -->
<svg version="1.1" id="圖層_1" xmlns="http://www.w3.org/2000/svg" xmlns:xlink="http://www.w3.org/1999/xlink" x="0px" y="0px"
	 viewBox="45 -33.8 150 150" style="enable-background:new 45 -33.8 150 150;" xml:space="preserve">
<style type="text/css">
	.st0{enable-background:new    ;}
	.st1{fill:#DC6200;}
</style>
<g class="st0">
	<path class="st1" d="M121.8-21.8c4.4-0.8,6.6-1.7,6.6-2.9c0-1.7-4.4-3.3-13.2-4.8C99.5-3.9,78.8,14.8,53.1,26.8l2,3.4
		c27.4-11,48.8-27.3,64.3-48.9c15.7,18.1,36.2,32.4,61.7,43.1c1.6-3.7,3.9-6.6,6.7-8.7C161.4,6.9,139.4-5.6,121.8-21.8z"/>
	<path d="M168.6,28.2l-7.7,9.6h-37.1V17.3h25.6l1.7-3c-3.2-3.1-6.5-5.8-9.9-8.2l-6.6,7.5h-45l1.8,3.7h23.7v20.4H60.7l1.4,3.7h53
		v19.3H88.5c-3.7-1.6-6.3-2.8-8.1-3.4l-2.1-0.9v48.7H87v-8.8h64.6v8.8h8.9V67.9l3.9-2.7c0.8-0.6,1.2-1.2,1.2-1.6
		c0-1.6-3.2-4.7-9.6-9.3l-5.7,6.6h-26.5V41.5h53.6l1.7-3C176,34.8,172.5,31.3,168.6,28.2z M151.6,64.6v28.1H87V64.6H151.6z"/>
</g>
</svg>
