<?xml version="1.0" encoding="utf-8"?>
<!-- Generator: Adobe Illustrator 19.0.0, SVG Export Plug-In . SVG Version: 6.00 Build 0)  -->
<svg version="1.1" id="圖層_1" xmlns="http://www.w3.org/2000/svg" xmlns:xlink="http://www.w3.org/1999/xlink" x="0px" y="0px"
	 viewBox="45 -33.8 150 150" style="enable-background:new 45 -33.8 150 150;" xml:space="preserve">
<style type="text/css">
	.st0{enable-background:new    ;}
	.st1{fill:#DC6200;}
</style>
<g class="st0">
	<path class="st1" d="M103.8,25.2h80.1l1.8-3c-4-4.3-7.7-8.1-11.2-11.1l-8.1,10.4h-61.5L110.6-1h59.8l2-3.1
		c-4.2-4.7-7.7-8.2-10.6-10.6l-7.4,10h-42.8l4-15.1c4.1-0.7,6.2-1.6,6.2-2.7c0-2.1-4.5-3.9-13.5-5.3l-6.1,23.1H68.4L69.9-1h31.3
		l-5.7,22.4H54.7l1.3,3.7h38.5l-7.9,31.1l8.7,2.3l1.8-7.3h0.1l1-3.7h-0.1L103.8,25.2z"/>
	<path d="M149.6,51.2c-4.8,10-10.4,20-16.8,29.9c-9-3.9-20.8-7.5-35.3-10.9l-1.8,3.1c18.8,7.5,33.1,15.6,43,24.3
		c3.1,2.8,5.5,4.2,7.2,4.2c3.9,0,5.8-1.9,5.8-5.7c0-3.6-3.9-7.4-11.7-11.5c7-9.6,13.2-19.6,18.5-30.1l3.7-2.1
		c1.1-0.6,1.7-1.3,1.7-1.9c0-1.4-3-4.7-9-9.9l-6.3,6.9H98.2l-1,3.7H149.6z"/>
</g>
</svg>
