<?xml version="1.0" encoding="utf-8"?>
<!-- Generator: Adobe Illustrator 19.0.0, SVG Export Plug-In . SVG Version: 6.00 Build 0)  -->
<svg version="1.1" id="圖層_1" xmlns="http://www.w3.org/2000/svg" xmlns:xlink="http://www.w3.org/1999/xlink" x="0px" y="0px"
	 viewBox="45 -33.8 150 150" style="enable-background:new 45 -33.8 150 150;" xml:space="preserve">
<style type="text/css">
	.st0{enable-background:new    ;}
	.st1{fill:#DC6200;}
</style>
<g class="st0">
	<path class="st1" d="M145.6,52.5c-20.4,7.6-42.9,14-67.7,19.3c3.1,9.3,5.7,14,7.8,14c1.3,0,2.3-2.3,2.9-6.8
		c19.6-6.3,39-13.9,58.4-22.8L145.6,52.5z"/>
	<path d="M171.4-12l-6,7.3H89.8c1.8-4.2,3.5-8.8,5.2-13.9c4.7-0.8,7.1-1.9,7.1-3.4c0-2.2-4.9-4.4-14.7-6.6
		c-7,26.7-17.4,48.1-31.2,64.1l2.7,2.6C71.5,26.8,81.3,13.8,88.1-1h78.7v6.3c-0.1,41.7-2.1,68.1-6,79.1c-1.6,4.6-5.4,6.9-11.3,6.9
		c-6.9,0-15.5-0.7-25.6-2v4c10,1.8,16.4,3.4,19.2,4.7c2.9,1.2,4.5,3.3,4.6,6.4c9.8-0.1,16.4-3.7,19.8-10.7
		c5.4-10.9,8.1-41.4,8.1-91.3l3.7-2.3c1.2-0.7,1.8-1.5,1.8-2.2C181.2-3.4,178-6.8,171.4-12z"/>
</g>
<g>
	<path d="M119.2,41.6c2.3,2.5,4.2,3.7,5.6,3.7c3.1,0,4.7-1.7,4.7-5c0-7.4-12.7-13.9-38.2-19.5l-1.6,3
		C103.4,29.6,113.2,35.5,119.2,41.6z"/>
</g>
</svg>
