<?xml version="1.0" encoding="utf-8"?>
<!-- Generator: Adobe Illustrator 19.0.0, SVG Export Plug-In . SVG Version: 6.00 Build 0)  -->
<svg version="1.1" id="圖層_1" xmlns="http://www.w3.org/2000/svg" xmlns:xlink="http://www.w3.org/1999/xlink" x="0px" y="0px"
	 viewBox="45 -33.8 150 150" style="enable-background:new 45 -33.8 150 150;" xml:space="preserve">
<style type="text/css">
	.st0{enable-background:new    ;}
	.st1{fill:#DC6200;}
	.st2{fill:#D3228C;}
</style>
<g class="st0">
	<path d="M72.3,18.5c1,2.8,2.6,4.2,4.6,4.2c3.3,0,5-1.8,5-5.4c0-3.8-2.9-8-8.6-12.5c6.9-7.6,12.4-14.7,16.5-21.3
		c4.3,0,6.4-0.7,6.4-2.1c0-2.1-4.1-4.9-12.2-8.3C80.3-16.2,75.7-6.4,70.2,2.4C67,0.3,62.7-2,57.4-4.4l-2,2.9
		C63.6,4.3,69.2,10.9,72.3,18.5z"/>
</g>
<g>
	<path d="M60.2,54.5c1,0,2.1-1.6,3.2-4.8c6.8-0.7,9.6-1.4,14.7-2.1c11.2-1.6,20-3,26.4-4.2c1.2,2.5,2,5.1,2.4,7.9
		c0.4,2.6,2.8,3.9,5,3.9c3.2,0,4.8-1.9,4.8-5.8c0-7.5-7.4-15.5-20.1-24l-2.1,2.4c3.1,3.8,5.8,7.7,8.1,11.7
		c-13.1,1.2-22.6,1.8-28.4,1.9c10.9-10.3,23.2-24.1,31.9-37.5c4.2,0,7.4-0.6,7.4-1.9c0-1.9-5.8-6.6-13.1-10.3
		c-8.9,17.9-20.3,37.2-31.2,50c-4,0.1-7.6,0.3-15.2,0.5C55.8,50.4,58.6,54.5,60.2,54.5z"/>
	<path class="st1" d="M56.7,89.2c-2.6,2.1-4,4.2-4,6.2c0,4.4,1.8,6.5,5.3,6.5c3.8,0,7.3-3.1,10.4-9.4c3.8-7.4,6-19.1,6.5-35.3
		l-3.7-1.5C69,72,64.2,83.2,56.7,89.2z"/>
	<path class="st1" d="M81.3,56.2c3.2,11.2,4.8,20.4,4.8,27.8c0,0.7-0.1,2.7-0.3,5.9v1.2c0,3.7,1.4,5.6,4.2,5.6c3.9,0,5.9-3,5.9-9.1
		c0-9.4-3.9-20.4-11.7-32.8L81.3,56.2z"/>
	<path class="st1" d="M95.6,52.1l-2.4,2.5c7.9,9.7,12.3,19,13.3,27.9c0.4,3.4,1.9,5.1,4.5,5.1c3.2,0,4.7-2.1,4.7-6.4
		C115.6,72.6,108.9,62.8,95.6,52.1z"/>
</g>
<g class="st0">
	<path d="M137.3,17.8c1.3,3.7,3.1,5.6,5.2,5.6c3.2,0,4.8-1.8,4.8-5.3c0-3.6-2.7-7.8-8.1-12.5c6.3-7.6,11.6-14.8,16-21.8
		c4.3,0,6.4-0.7,6.4-2.1c0-2.1-4.3-4.9-13-8.3c-3.3,10.5-7.6,20.4-12.7,29.7c-4.2-2.8-8.6-5.3-13.3-7.5l-2,3
		C129,4.8,134.5,11.2,137.3,17.8z"/>
	<path d="M166.1,20.5l-2.3,2.4c3.7,4.1,6.7,8.3,9,12.5c-12,0.9-18.7,1.4-19.9,1.5l-10.8,0.6c12.8-12.5,23.2-24.1,31.3-34.9
		c1.8,0.3,3.2,0.4,4.2,0.4c2.2,0,3.3-0.6,3.3-1.8c0-2.2-3.9-5.5-11.7-9.8c-11.2,19-22,34.2-32.3,45.6c-0.1,0.2-0.3,0.5-0.7,0.9
		c-3.1,0.1-7.2,0.3-12.1,0.4c-2.1,0.1-3.7,0.2-4.5,0.2c1.7,8.4,3.3,12.6,4.9,12.6c1.2,0,2.3-1.8,3.4-5.3c3.7-0.4,9.6-1.1,17.9-2.1
		c0.9-0.1,1.7-0.2,2.4-0.4v0.1l8.6-1.3l0,0c4.3-0.7,9-1.5,14.1-2.3c2-0.3,3.3-0.6,3.8-0.7c1.1,2.7,1.8,5,2.1,6.7
		c0.8,3.8,2.3,5.7,4.7,5.7c3.5,0,5.3-2,5.3-6C186.7,37.3,179.8,29,166.1,20.5z"/>
	<polygon class="st2" points="148.2,105.4 156.8,105.4 156.8,42 148.2,43.3 	"/>
	<path class="st2" d="M162.6,54.9c6.6,11.4,10.5,21.8,11.6,31.3c0.4,4.5,2,6.7,4.8,6.7c3.5,0,5.3-2.2,5.3-6.7
		c0-10-6.3-21.1-18.8-33.4L162.6,54.9z"/>
	<path class="st2" d="M129.1,53.7c-1.4,16.7-4.6,31-9.8,42.9l3.4,1.9c7.1-10.4,12-22.2,14.8-35.4c3.5-0.8,5.3-1.7,5.3-2.9
		C142.7,58.3,138.2,56.1,129.1,53.7z"/>
</g>
</svg>
