<?xml version="1.0" encoding="utf-8"?>
<!-- Generator: Adobe Illustrator 19.0.0, SVG Export Plug-In . SVG Version: 6.00 Build 0)  -->
<svg version="1.1" id="圖層_1" xmlns="http://www.w3.org/2000/svg" xmlns:xlink="http://www.w3.org/1999/xlink" x="0px" y="0px"
	 viewBox="45 -33.8 150 150" style="enable-background:new 45 -33.8 150 150;" xml:space="preserve">
<style type="text/css">
	.st0{enable-background:new    ;}
	.st1{fill:#DC6200;}
</style>
<g class="st0">
	<path d="M69.3,101.9l2.3,3.4c27.9-8.2,43.6-25.4,47.1-51.5h-9.6C105.9,76.2,92.6,92.2,69.3,101.9z"/>
	<path class="st1" d="M158-21.7l-6.4,7.8H68.1l1.5,3.7H110v0h9.4v0h33.8v27.3h-0.1v3.7h0.1v29.2H119c0,0,0,0,0,0h-9.4c0,0,0,0,0,0
		H67.2l1.8,3.7h40.1c0,0,0,0,0,0h9.6c0,0,0,0,0,0h34.5v11.7h9V20.9h0.1v-3.7h-0.1V-7l4.2-2.6c0.9-0.4,1.4-1,1.4-1.8
		C167.8-12.6,164.5-16.1,158-21.7z"/>
	<path d="M119.4,41.4V20.9h33.7v-3.7h-33.7v-27.3H110v27.3H53.9l1.8,3.7H110v20.4c0,3.3-0.1,6.1-0.4,8.7h9.4
		C119.3,46.6,119.4,43.7,119.4,41.4z"/>
	<path d="M187.5,17.6c-2.1-3.4-5-7.2-8.6-11.4l-6.9,11h-9.8v3.7h23.7L187.5,17.6z"/>
</g>
</svg>
