<?xml version="1.0" encoding="utf-8"?>
<!-- Generator: Adobe Illustrator 19.0.0, SVG Export Plug-In . SVG Version: 6.00 Build 0)  -->
<svg version="1.1" id="圖層_1" xmlns="http://www.w3.org/2000/svg" xmlns:xlink="http://www.w3.org/1999/xlink" x="0px" y="0px"
	 viewBox="45 -33.8 150 150" style="enable-background:new 45 -33.8 150 150;" xml:space="preserve">
<style type="text/css">
	.st0{enable-background:new    ;}
	.st1{fill:#DC6200;}
</style>
<g class="st0">
	<path class="st1" d="M127.9,61.7c11.7-14.2,20.8-32.8,27.4-56H145c-4.8,19.2-12.5,35.8-23.1,50C109.5,42.1,99.2,25.5,91,5.7h-5.6
		c8.4,22.9,18.8,41.5,31.4,55.7c-17.8,19-38.7,32.3-62.7,40.1l2.1,3.4c26.7-6.7,48.9-19,66.8-36.9c13.7,13.6,32.3,25,56,34.4
		c1.8-3.3,4.2-6.3,7.3-9.2C162.2,85.7,142.8,75.2,127.9,61.7z"/>
	<path d="M91,5.6H145c0,0,0,0.1,0,0.1h10.3c0,0,0-0.1,0-0.1h27.8l1.8-2.9c-3.5-4.2-7.3-8.2-11.6-12l-8.6,11.1h-40.9v-21.3
		c4.4-1.7,6.6-3.1,6.6-4.3c0-2.1-5.2-3.4-15.5-3.9V1.9H57.1l1.7,3.7h26.7c0,0,0,0.1,0,0.1H91C91,5.7,91,5.7,91,5.6z"/>
</g>
</svg>
