<?xml version="1.0" encoding="utf-8"?>
<!-- Generator: Adobe Illustrator 19.0.0, SVG Export Plug-In . SVG Version: 6.00 Build 0)  -->
<svg version="1.1" id="圖層_1" xmlns="http://www.w3.org/2000/svg" xmlns:xlink="http://www.w3.org/1999/xlink" x="0px" y="0px"
	 viewBox="45 -33.8 150 150" style="enable-background:new 45 -33.8 150 150;" xml:space="preserve">
<style type="text/css">
	.st0{enable-background:new    ;}
	.st1{fill:#DC6200;}
</style>
<g class="st0">
	<path d="M106,46.1h35.4l1.7-2.4c-2-2.8-4.5-5.7-7.6-8.6l-5.1,7.3h-6.8V23.2h6.1v4.5h7.3V4.9l3.1-1.9c0.5-0.3,0.7-0.6,0.7-0.9
		c0-1.4-2.4-4-7.3-7.8l-4.8,5.6h-5.2v-16.4h22.3c3.1,15.8,7.5,29.1,13.3,39.8c-6.1,10.6-13,19.2-20.7,25.9l2.6,2.6
		c8.9-5.9,16.4-13.1,22.3-21.5c4.8,7.3,11.1,14.4,19,21.2c1.7-2.9,3.9-5.4,6.7-7.5c-9.1-6.6-16.3-13.5-21.5-20.7
		c6.2-10.2,10.8-22.4,14.1-36.6l3.9-2.1c0.8-0.4,1.2-1,1.2-1.6c0-1.2-2.8-4.3-8.4-9.3l-5.6,6.2h-31.9c-2.4-3.1-4.8-5.7-7-7.6
		l-5.4,7.6h-20.9c-3.6-1.7-5.6-2.7-6.1-2.9c-1.5-0.7-2.6-1.2-3.1-1.3v79.6h7.8V46.1z M173.5-16.6c-2.5,13.2-6,24.1-10.5,32.9
		c-5.5-9.2-9.7-20.1-12.7-32.9H173.5z M106-16.6h9.9v16.4H106V-16.6z M106,3.6h23.6v15.9H106V3.6z M106,23.2h9.9v19.2H106V23.2z"/>
	<path class="st1" d="M94.9,22.2c0-8.3-3.6-16.8-10.8-25.6l-2.7,1.3c3.2,8.1,4.8,15.9,4.8,23.4l-0.1,4.6c0,2.3,1.1,3.4,3.3,3.4
		C93,29.3,94.9,27,94.9,22.2z"/>
	<path d="M179.5,85.9l-8.7,10.3h-27.8v-23h36.6l1.6-2.7c-1.9-2.6-4.9-5.8-9.2-9.7l-6.9,8.7h-22.2V58.8c4-1.2,6-2.4,6-3.5
		c0-2-4.8-3.1-14.4-3.4v17.6H99.7l1.6,3.7h33.3v23H91.4l1.8,3.7h94.5l1.7-2.7C186.3,93.3,183,89.6,179.5,85.9z"/>
	<path class="st1" d="M56.9,0c-0.1,16.3-1.9,27.9-5.3,34.8c-1.3,2.4-2,4.2-2,5.1c0,3,1.5,4.5,4.5,4.5c6,0,9-7.7,9-23.1
		c0-5.1-0.7-12.1-2.1-21L56.9,0z"/>
	<path class="st1" d="M84.4-25.7c0-2.4-4.9-3.6-14.6-3.6v134.5h8.4V-21.3C82.4-23,84.4-24.5,84.4-25.7z"/>
</g>
</svg>
