<?xml version="1.0" encoding="utf-8"?>
<!-- Generator: Adobe Illustrator 19.0.0, SVG Export Plug-In . SVG Version: 6.00 Build 0)  -->
<svg version="1.1" id="圖層_1" xmlns="http://www.w3.org/2000/svg" xmlns:xlink="http://www.w3.org/1999/xlink" x="0px" y="0px"
	 viewBox="45 -33.8 150 150" style="enable-background:new 45 -33.8 150 150;" xml:space="preserve">
<style type="text/css">
	.st0{enable-background:new    ;}
	.st1{fill:#DC6200;}
</style>
<g class="st0">
	<path class="st1" d="M140.4-7V5h8.6V-7h35.5l1.7-2.9c-2.9-3.4-6.5-6.8-10.8-10.2l-7.2,9.3h-19.2v-10.6c4-1.4,6-2.7,6-4
		c0-2.3-4.9-3.4-14.6-3.4v18h-15.2l1.5,3.7H140.4z"/>
	<path class="st1" d="M88.9-7V5h8.6V-7h22.8l1.5-2.9c-2.7-3.1-6-6.3-10-9.6l-6.8,8.7h-7.5v-10.8c4.1-1.3,6.2-2.6,6.2-3.9
		c0-2.2-4.9-3.3-14.7-3.3v18H54.3L55.8-7H88.9z"/>
	<path d="M176.4,62.5L168,72.9h-44.1v-18h31.5v6.3h8.6V18.4l3-2.4c1.1-0.9,1.6-1.7,1.6-2.3c0-1.3-2.9-4.2-8.8-8.7l-5.7,6.4H85.1
		c-2.5-1.4-5.9-2.9-10-4.6v55.4h8.6v-7.3H115v18H52.5l1.5,3.7H115v28.6h8.9V76.6h62l1.8-2.9C184.5,70,180.7,66.2,176.4,62.5z
		 M83.7,15.1h71.7v15.8H83.7V15.1z M83.7,51.1V34.6h71.7v16.5H83.7z"/>
</g>
</svg>
