<?xml version="1.0" encoding="utf-8"?>
<!-- Generator: Adobe Illustrator 19.0.0, SVG Export Plug-In . SVG Version: 6.00 Build 0)  -->
<svg version="1.1" id="圖層_1" xmlns="http://www.w3.org/2000/svg" xmlns:xlink="http://www.w3.org/1999/xlink" x="0px" y="0px"
	 viewBox="45 -33.8 150 150" style="enable-background:new 45 -33.8 150 150;" xml:space="preserve">
<style type="text/css">
	.st0{enable-background:new    ;}
	.st1{fill:#DC6200;}
</style>
<g class="st0">
	<path class="st1" d="M118.5,64.4c-3.1-4.5-6-8.1-8.7-10.8l-6.6,10h-9V28.2h19l1.8-3.1c-1.9-2.9-4.5-6.3-7.8-10.4l-6.3,9.8h-6.7
		V-3.4h-8.7v27.9H74.7c-4.5-2.2-7.9-3.9-10.2-4.8v44.1H51.3l1.3,3.7h32.9v37.8h8.7V67.4h22.6L118.5,64.4z M85.5,63.7H72.9V28.2h12.6
		V63.7z"/>
	<path d="M94.2-3.5h21l1.8-2.9c-2.8-4.3-5.5-7.9-8.2-10.8l-6.6,9.9H74.7c1.4-3.8,2.6-8.1,3.6-12.7c4.3-0.9,6.4-2,6.4-3.3
		c0-2.1-4.7-4.1-14.1-6c-3,21-8.5,38.4-16.3,52.1l3.3,2.4c6.8-9,12.1-18.6,15.7-28.7h12.2v0.1h8.7V-3.5z"/>
	<path d="M122.6,69c-0.9,10-3.8,17.8-8.9,23.4c-1.2,1.4-1.8,2.7-1.8,4c0,3.2,1.7,4.8,5.1,4.8c2,0,3.9-1.5,5.7-4.6
		c2.6-4.3,3.9-10.5,3.9-18.8c0-0.9-0.1-3.5-0.3-8L122.6,69z"/>
	<path d="M187.5,40.6l1.5-3c-2.9-3.9-5.9-7-9.2-9.4l-6.6,8.7h-43.9V25.2h34.8v4.9h8.1V-6.5l3-2.1c1-0.7,1.5-1.4,1.5-2.2
		c0-1.5-2.8-4.4-8.5-8.7l-5.3,6.7h-21.5c2.5-3.4,4.5-6.6,6.2-9.6c3.5-0.8,5.2-1.7,5.2-2.9c0-2-4.7-3.6-14.1-5
		c-0.1,6.6-0.8,12.5-1.8,17.4h-6.4c-3-2-6.2-3.6-9.6-4.8v80.7h8.4v-6.9h45.8c0,14-1,24.3-2.9,30.9c-1.1,4.1-3.7,6.2-8,6.2
		c-5.3,0-10.5-0.5-15.5-1.4v4c6.1,1.1,9.9,2,11.4,2.6c3,1,4.6,3,4.8,5.9c3.9,0,7.2-1.1,10-3.3c5.4-4.2,8.2-18.4,8.4-42.4l3.6-2.3
		c0.6-0.4,0.9-0.9,0.9-1.5c0-1.7-2.9-4.7-8.6-9l-5.7,6.6h-44.2V40.6H187.5z M129.3-9h34.8V3.7h-34.8V-9z M129.3,7.4h34.8v14h-34.8
		V7.4z"/>
	<path d="M131,68.7c2.1,6.2,3.1,11.8,3.1,17.1c0,2,0,3.5-0.1,4.5v1c0,2.7,1.3,4,3.8,4c3.5,0,5.2-2.3,5.2-6.9
		c0-6.4-2.9-13.5-8.8-21.2L131,68.7z"/>
	<path d="M166.1,81.7c2.9,0,4.3-1.6,4.3-4.7c0-6-5-11.8-15-17.5l-2.1,2.4c5.1,5,8.1,10,8.8,15.1C162.6,80.2,163.9,81.7,166.1,81.7z"
		/>
	<path d="M152.5,87.6c3.1,0,4.7-1.7,4.7-5.1c0-6.3-4.5-12.6-13.5-19l-2.7,2.1c4.6,6.2,7.2,11.8,7.6,16.9
		C148.9,85.9,150.2,87.6,152.5,87.6z"/>
</g>
</svg>
