<?xml version="1.0" encoding="utf-8"?>
<!-- Generator: Adobe Illustrator 19.0.0, SVG Export Plug-In . SVG Version: 6.00 Build 0)  -->
<svg version="1.1" id="圖層_1" xmlns="http://www.w3.org/2000/svg" xmlns:xlink="http://www.w3.org/1999/xlink" x="0px" y="0px"
	 viewBox="45 -33.8 150 150" style="enable-background:new 45 -33.8 150 150;" xml:space="preserve">
<style type="text/css">
	.st0{enable-background:new    ;}
	.st1{fill:#DC6200;}
</style>
<g class="st0">
	<path d="M176.1,61.7L168,72h-44.7V55h34.1v6.3h8.6V32.9l3.6-2.1c1.1-0.6,1.7-1.3,1.7-1.9c0-1.4-3.1-4.5-9.3-9.2l-5.6,6.6h-33.1
		V10.5h-8.9v15.9H83.3l-2.1-1c-2.9-1.3-5.7-2.5-8.4-3.7v40.7h8.4V55h33.3v17H53l1.5,3.7h60.1v29.5h8.9V75.7h61.9l1.7-3
		C183.9,69.1,180.3,65.5,176.1,61.7z M123.4,30.1h34.1v21.2h-34.1V30.1z M114.5,51.2H81.2V30.1h33.3V51.2z"/>
	<path class="st1" d="M123.4,10.5h11.8v6.3h8.4V-9.3h36.8l1.9-3.1c-2.7-3.6-6.1-7.2-10-10.6l-7.5,10h-21.1v-9c3.9-1.5,5.9-2.9,5.9-4
		c0-2-4.8-3.1-14.3-3.6v16.6h-32.7v-8.6c4.4-1.7,6.6-3.1,6.6-4.3c0-2.1-5-3.3-15-3.6v16.5H57.3l1.4,3.7h35.4v26.8h8.4v-7h12v0
		L123.4,10.5L123.4,10.5z M102.5,6.7v-16h32.7v16H102.5z"/>
</g>
</svg>
