<?xml version="1.0" encoding="utf-8"?>
<!-- Generator: Adobe Illustrator 19.0.0, SVG Export Plug-In . SVG Version: 6.00 Build 0)  -->
<svg version="1.1" id="圖層_1" xmlns="http://www.w3.org/2000/svg" xmlns:xlink="http://www.w3.org/1999/xlink" x="0px" y="0px"
	 viewBox="45 -33.8 150 150" style="enable-background:new 45 -33.8 150 150;" xml:space="preserve">
<style type="text/css">
	.st0{enable-background:new    ;}
	.st1{fill:#DC6200;}
</style>
<g class="st0">
	<path d="M107.8,33.9H93.7V-0.3h-8.9v34.2H52l1.8,3.7h30.9c-0.4,7.5-1.4,14.3-2.9,20.6c-4.3,17-14.4,31.3-30.2,42.8l2.4,3.1
		c19.5-10.4,31.8-26,36.8-46.8c10.1,9.1,17.5,19.2,22.3,30.5c1,2.4,2.6,3.6,4.6,3.6c3.3,0,5-1.9,5-5.6c0-3.7-2.5-8.3-7.4-13.8
		c-6.1-6.9-14-13.2-23.7-19c1-4.6,1.6-9.8,1.8-15.5h29.5l1.7-3c-3.5-4.3-6.7-8-9.7-11L107.8,33.9z"/>
	<path class="st1" d="M93.7-0.4h26.2l1.5-2.9c-2.2-3.1-5.4-6.7-9.6-10.8l-7.2,9.9H75.7c1.7-5.8,3.1-11.2,4.2-16.3
		c4.1-1.1,6.2-2.2,6.2-3.4c0-2.1-5-3.9-14.9-5.4c-2.2,22.3-7.7,41.5-16.5,57.6l3.1,2c7-8.7,12.6-19,16.6-30.7h10.4v0.1h8.9V-0.4z"/>
	<path d="M176.1-15.8l-6,7.6h-31.3c-2.5-1.3-6-3-10.5-5.1V97.9h8.9V81.6h34.6v13.8h8.9V-1.6l4.2-2.9c0.5-0.3,0.8-0.8,0.8-1.3
		C185.6-7.2,182.5-10.5,176.1-15.8z M171.8,77.8h-34.6V-4.4h34.6V77.8z"/>
</g>
</svg>
