<?xml version="1.0" encoding="utf-8"?>
<!-- Generator: Adobe Illustrator 19.0.0, SVG Export Plug-In . SVG Version: 6.00 Build 0)  -->
<svg version="1.1" id="圖層_1" xmlns="http://www.w3.org/2000/svg" xmlns:xlink="http://www.w3.org/1999/xlink" x="0px" y="0px"
	 viewBox="45 -33.8 150 150" style="enable-background:new 45 -33.8 150 150;" xml:space="preserve">
<style type="text/css">
	.st0{enable-background:new    ;}
	.st1{fill:#DC6200;}
</style>
<g class="st0">
	<path d="M167-7.5c3.6,0,5.4-1.8,5.4-5.4c0-5.8-5.4-11.3-16.3-16.5l-1.8,2.3c4.6,4.7,7.3,9.5,8.1,14.6C162.8-9.1,164.3-7.5,167-7.5z
		"/>
	<path class="st1" d="M95.6,34.1c-2.5-2.6-5.4-5.3-8.6-8.1l-5.9,7H69.6c1.9-4.7,3.7-10.2,5.3-16.6c4-1,6-2.1,6-3.1
		c0-2.2-4.8-4.1-14.3-5.9c-2.2,20.2-7.7,37.3-16.5,51.3l2.7,2.4C58.9,54,64,45.9,67.9,36.8h4.8v65.8H81V36.8h12.7L95.6,34.1z"/>
	<path d="M183.8,88.2c0-4.7,0.8-13,2.4-25l-4-2.3c-2.5,18.8-5,28.2-7.3,28.2c-0.8,0-2.2-1.3-4.3-4c-3.2-4.1-6.7-9.9-10.5-17.7
		c-8.5-17-13.5-39.2-15.2-66.4h40.5l1.5-3c-2.6-3.8-5.5-7.1-8.7-10l-6.4,9.3h-27.2c-0.3-6.3-0.4-12.8-0.4-19.6
		c3.4-1.2,5.1-2.4,5.1-3.6c0-2.1-4.6-3.5-13.8-4c0,9.8,0.2,19,0.7,27.6H52.8l1.5,3.7h82.1c1.9,36,10,64.3,24.2,84.9
		c8.3,12,15,18,20.3,18c3.2,0,5.5-2.1,6.9-6.3C185.1,96.7,183.8,93.4,183.8,88.2z"/>
	<path class="st1" d="M130.5,26.1l-5.9,7h-18.8c2.2-5.6,4.1-11.4,5.4-17.4c4-1,6-2,6-3.1c0-2.2-4.7-4.1-14.2-5.8
		c-2.3,20.5-7.4,37.1-15.3,49.8l2.7,2.3c5.8-6.8,10.4-14.1,13.8-22h33l1.8-2.7C136.6,31.5,133.7,28.8,130.5,26.1z"/>
</g>
<g>
	<path class="st1" d="M114.8,86.1c0,2.9-1.9,4.3-5.6,4.3c-4.2,0-9.6-0.3-16.2-1v3.7c6.3,1,10.7,2.2,13,3.5c2.1,1.2,3.2,3.2,3.4,6.1
		c9.2,0.1,13.8-4.1,13.8-12.7v-55h-8.4V86.1z"/>
</g>
</svg>
