<?xml version="1.0" encoding="utf-8"?>
<!-- Generator: Adobe Illustrator 19.0.0, SVG Export Plug-In . SVG Version: 6.00 Build 0)  -->
<svg version="1.1" id="圖層_1" xmlns="http://www.w3.org/2000/svg" xmlns:xlink="http://www.w3.org/1999/xlink" x="0px" y="0px"
	 viewBox="45 -33.8 150 150" style="enable-background:new 45 -33.8 150 150;" xml:space="preserve">
<style type="text/css">
	.st0{enable-background:new    ;}
	.st1{fill:#DC6200;}
</style>
<g class="st0">
	<path class="st1" d="M129.2,68.5c-4.4,1.4-7.7,2.5-10,3.1v-0.2l-7.6,2.1v0.2l-9.8,2.7v-77h-7.5v78.9l-9.2,2.1V-0.6h-7.5v82.8
		c-0.5,0.1-1.9,0.4-4.2,0.9c-2,0.4-3.5,0.7-4.8,0.9v-0.1l-7.8,1.4v0.2l-10.6,1.8c2.4,8.1,4.5,12.2,6.3,12.2c1.1,0,2.1-1.8,2.9-5.4
		c22-5.2,45.6-12.4,70.7-21.6L129.2,68.5z"/>
	<path d="M68.7-0.7h8.9v0.1h7.5v-0.1h9.2v0.1h7.5v-0.1h9.8v74.2l7.6-2.1V1.9l3.6-2.4c0.8-0.5,1.2-1.1,1.2-1.8c0-1.4-2.8-4.4-8.4-8.9
		l-5.3,6.9H83.6c4.5-6.3,8-12.2,10.5-17.6c4.1-0.9,6.2-1.9,6.2-3.1c0-2-5-3.7-14.9-5.3c-1.1,8.7-3,17.4-5.6,26.1h-9.4
		c-3.1-2-6.3-3.8-9.4-5.4v95.1l7.8-1.4V-0.7z"/>
	<path d="M175.5-20.2l-5.7,7.5h-26.7c-3.4-1.9-6.6-3.5-9.7-5v123h8.9V-9h28.9v75.4c0,3-2,4.5-6,4.5c-5,0-10.5-0.4-16.6-1.2v4
		c6.9,1.2,11.4,2.3,13.5,3.4c2,1.1,3.1,3.1,3.4,6.1c9.4-0.6,14.1-5,14.1-13.2V-6.5l3.9-2.3c0.8-0.5,1.2-1,1.2-1.6
		C184.7-11.9,181.6-15.2,175.5-20.2z"/>
</g>
</svg>
