<?xml version="1.0" encoding="utf-8"?>
<!-- Generator: Adobe Illustrator 19.0.0, SVG Export Plug-In . SVG Version: 6.00 Build 0)  -->
<svg version="1.1" id="圖層_1" xmlns="http://www.w3.org/2000/svg" xmlns:xlink="http://www.w3.org/1999/xlink" x="0px" y="0px"
	 viewBox="45 -33.8 150 150" style="enable-background:new 45 -33.8 150 150;" xml:space="preserve">
<style type="text/css">
	.st0{enable-background:new    ;}
	.st1{fill:#DC6200;}
</style>
<g class="st0">
	<path class="st1" d="M99.1,70.4c3.2,0,4.8-1.7,4.8-5.1c0-6-6.6-11.3-19.8-16l-1.8,2.8c6.3,4.2,10.2,8.6,11.9,13.2
		C95.2,68.7,96.9,70.4,99.1,70.4z"/>
	<path class="st1" d="M118.2,64.4C102.1,73,86.7,79.8,72.1,84.7c3.5,7.7,6.2,11.6,8.3,11.6c1.4,0,2.1-2,2.1-6
		c11.2-5.6,23.6-13.1,37.2-22.6L118.2,64.4z"/>
	<path d="M177.6,16.2l-6,9.3h-6.4V15.1l3.7-2.6c0.7-0.4,1.1-0.9,1.1-1.5c0-1.4-3-4.2-9.1-8.6l-5.2,6h-25.3V2.6
		c4.1-1,6.2-2.1,6.2-3.3c0-1.9-4.9-3.4-14.6-4.8V8.5h-37l1.5,3.7h35.5v13.3H73.5V-5.9h109.6l1.5-2.9c-3.6-4.4-6.9-7.9-9.9-10.6
		l-7.6,9.7h-42.3v-12.3c4.3-1.2,6.4-2.4,6.4-3.7c0-2.2-5-3.4-15-3.6v19.6H75.2c-3.2-1.7-6.7-3.4-10.5-5v40.2
		c0,34.2-5.2,60.4-15.6,78.4l3.1,2.3c14-17.3,21-43,21.2-77.1h48.4v22.9h8.4V29.2h26.5v14.1h-26.5v-0.2h-8.4v0.2H83.5l1.5,3.7h71.8
		v4.3l8.3,0V29.2h19.6l1.4-2.7C182.4,21.2,179.5,17.8,177.6,16.2z M156.8,25.5h-26.5V12.2h26.5V25.5z"/>
	<path class="st1" d="M170.4,61.3c1.6,0.3,2.9,0.4,3.7,0.4c1.9,0,2.9-0.5,2.9-1.4c0-1.7-3.3-4.6-10-8.5c-0.4,0.5-1.1,1.2-1.8,2.4
		l-1.1,1.4c0,0-10.4,11.8-16.2,16.6c-6.6-5.6-13.5-12.4-17.5-20.6h-8.4v38.6c0,2.7-1.6,4.1-4.8,4.1c-4.9,0-10.9-0.4-17.9-1.3v3.7
		c6.8,1.1,11.3,2.2,13.3,3.2c1.9,1,2.9,2.8,3,5.2c3.9,0,6.9-0.4,9-1.1c3.9-1.4,5.9-4.6,5.9-9.7V58.7c3.5,7.7,7.5,12.1,12.2,17.1
		c8.2,8.9,20.2,15.9,36,21c1.5-2.9,3.9-5.6,7.3-7.9c-14.8-3.5-26.5-8.3-35-14.4C158.1,70.5,164.6,66.1,170.4,61.3z"/>
</g>
</svg>
