<?xml version="1.0" encoding="utf-8"?>
<!-- Generator: Adobe Illustrator 19.0.0, SVG Export Plug-In . SVG Version: 6.00 Build 0)  -->
<svg version="1.1" id="圖層_1" xmlns="http://www.w3.org/2000/svg" xmlns:xlink="http://www.w3.org/1999/xlink" x="0px" y="0px"
	 viewBox="45 -33.8 150 150" style="enable-background:new 45 -33.8 150 150;" xml:space="preserve">
<style type="text/css">
	.st0{enable-background:new    ;}
	.st1{fill:#DC6200;}
</style>
<g class="st0">
	<path class="st1" d="M84.8,34.9h72.6v10.2h8.9V-6l4.8-2.9c0.8-0.5,1.2-1,1.2-1.6c0-1.7-3.5-5.1-10.4-10.4l-6.2,7.8H86.7l-2.3-1
		c-2.9-1.4-5.9-2.8-8.9-4.1v59.1h9.2V34.9z M84.8-9.3h72.6v40.5H84.8V-9.3z"/>
	<path d="M183.8,88.7c-2.5,0-4.2-1.7-5.1-5.1c-0.8-3.7-1.2-11.4-1.2-23.2l-4.1-1.2c-1,10.6-2.1,18.5-3.1,23.4
		c-0.7,3.6-2.6,5.8-5.5,6.6c-3.6,1-17.4,1.5-41.5,1.5c-20.8,0-32.5-0.4-35.2-1.3c-2.2-0.7-3.3-3-3.3-6.7V40.9h-9.2v43.5
		c0,6.8,2.1,11.1,6.3,12.7c3.9,1.4,19.1,2.1,45.6,2.1c27.1,0,43.8-0.6,50-1.7c4.7-0.9,7.2-3.9,7.5-8.9
		C184.7,88.7,184.3,88.7,183.8,88.7z"/>
</g>
</svg>
