<?xml version="1.0" encoding="utf-8"?>
<!-- Generator: Adobe Illustrator 19.0.0, SVG Export Plug-In . SVG Version: 6.00 Build 0)  -->
<svg version="1.1" id="圖層_1" xmlns="http://www.w3.org/2000/svg" xmlns:xlink="http://www.w3.org/1999/xlink" x="0px" y="0px"
	 viewBox="45 -33.8 150 150" style="enable-background:new 45 -33.8 150 150;" xml:space="preserve">
<style type="text/css">
	.st0{enable-background:new    ;}
	.st1{fill:#DC6200;}
</style>
<g class="st0">
	<path d="M146.4,78.9l3.3,1.8c7.9-13,14.9-27.9,21-44.6c4.2-0.3,6.3-1.1,6.3-2.5c0-2.5-4.9-5.4-14.7-8.6
		C158.2,44.4,152.9,62.4,146.4,78.9z"/>
	<path d="M83.2,81.1c3.8,0,5.7-2.7,5.7-8c0-12.4-7.3-27.3-21.8-45l-3,1.9c8.1,15,12.9,29.5,14.4,43.4C79.1,78.6,80.6,81.1,83.2,81.1
		z"/>
	<path d="M103,6.9c3.6,0,5.4-2.1,5.4-6.2c0-8.9-8.1-18.1-24.3-27.6L82-24.3C90.2-16,95.6-7.4,98.1,1.3C99.3,5,100.9,6.9,103,6.9z"/>
	<path class="st1" d="M176.6,82.9l-8.3,11.3h-30.2V12.9h-8.9v81.3h-19.9V12.9h-8.7v81.3H52.8l1.8,3.7h131.3l2-3
		C183.8,89.9,180.1,85.9,176.6,82.9z"/>
	<path d="M109.3,12.9h19.9v0h8.9v0h43.5l1.3-3.1c-3.1-4.1-6.6-7.8-10.3-11.2l-7.8,10.6h-30.3c6.3-8.5,11.9-17.2,16.6-25.9
		c4.5-0.1,6.7-1,6.7-2.6c0-2.2-4.6-5.1-13.8-8.6c-4.8,15.3-9.7,27.6-14.6,37.1H56.8l1.2,3.7h42.6v0L109.3,12.9L109.3,12.9z"/>
</g>
</svg>
