<?xml version="1.0" encoding="utf-8"?>
<!-- Generator: Adobe Illustrator 19.0.0, SVG Export Plug-In . SVG Version: 6.00 Build 0)  -->
<svg version="1.1" id="圖層_1" xmlns="http://www.w3.org/2000/svg" xmlns:xlink="http://www.w3.org/1999/xlink" x="0px" y="0px"
	 viewBox="45 -33.8 150 150" style="enable-background:new 45 -33.8 150 150;" xml:space="preserve">
<style type="text/css">
	.st0{enable-background:new    ;}
	.st1{fill:#DC6200;}
</style>
<g class="st0">
	<path d="M72.1,76c0-2.2,0.8-5.8,2.4-10.8L95.2-1.4l-3.7-2.5c-8.7,26.5-16.7,47.2-23.9,62c-1.6,3.4-4.7,5.1-9.3,5.1
		c-1.3,0-3-0.1-5.1-0.4v3.9c3.2,0.5,5.6,1.2,7.1,2.3c3,2.1,4.5,6.3,4.5,12.5c0,2.7-0.1,5.4-0.4,8.2c-0.2,2-0.5,4.3-0.9,7
		c-0.2,2-0.4,3-0.4,3.1c0,3.4,1.7,5.1,5,5.1c4.7,0,7-3,7-8.9c0-3.5-0.8-8.5-2.3-15.1C72.3,78.8,72.1,77.1,72.1,76z"/>
	<path d="M63.3,22.8c0.7,3.6,2.4,5.4,4.9,5.4c3.2,0,4.8-1.9,4.8-5.7c0-7-6.3-12.6-18.9-16.8l-1.8,2.5C58.4,12.5,62,17.3,63.3,22.8z"
		/>
	<path d="M74.1-9c1,3.1,2.5,4.6,4.3,4.6c3.6,0,5.4-2,5.4-5.9c0-6.8-6.7-12.3-20.2-16.3l-2,2.7C68.3-19.2,72.4-14.3,74.1-9z"/>
	<path d="M153.5,81.3l0.7-0.6c6.9-6.5,12.8-13.8,17.7-22l3.7-1.8c1.1-0.5,1.7-1.1,1.7-1.8c0-1.4-3.1-4.7-9.2-9.7l-5,5.9h-52.7
		l1.8,3.7h11c5.8,10.8,12.1,19.6,18.8,26.4l-0.7,0.7c-10.3,8.6-23.7,15.2-40.3,19.8l2.1,3.4c17.7-3.4,32.7-9.6,44.9-18.5
		c8.4,6.7,20,12.2,34.8,16.6c1.4-3,3.7-5.9,6.7-8.6C174.6,91.7,162.7,87.3,153.5,81.3z M147.1,76.7c-6.8-5.8-13.1-13-18.9-21.8h35.3
		C159,63.2,153.5,70.5,147.1,76.7z"/>
	<path d="M125.6,17.2v26.9h8.1v-7.3H156v5.9h8.1V17.2h22.3l1.8-2.7c-2.7-3.8-5.6-7.1-8.6-9.9l-6.4,8.9h-9.2V3.9
		c3.7-1.3,5.6-2.6,5.6-3.9c0-1.9-4.6-3-13.7-3.3v16.8h-22.2V4c3.5-1.5,5.3-2.8,5.3-3.9c0-2.1-4.5-3.1-13.4-3.3v16.6h-18v3.7H125.6z
		 M133.8,17.2H156v15.9h-22.2V17.2z"/>
	<path class="st1" d="M107.5,31.3V17.2h0.1v-3.7h-0.1V-6.2H185l1.6-2.9c-3.4-4.1-6.6-7.3-9.6-9.9l-6.7,9h-24.2v-12.2
		c4.2-1.4,6.3-2.7,6.3-3.9c0-2.2-5-3.3-15-3.3v19.3h-28c-3.9-2.3-7.4-4.1-10.5-5.3V31c0,30.9-6,54.8-18,71.8l3,2.6
		c8.7-9.1,14.9-19.5,18.6-31.3C105.8,62.8,107.5,48.6,107.5,31.3z"/>
</g>
</svg>
