<?xml version="1.0" encoding="utf-8"?>
<!-- Generator: Adobe Illustrator 19.0.0, SVG Export Plug-In . SVG Version: 6.00 Build 0)  -->
<svg version="1.1" id="圖層_1" xmlns="http://www.w3.org/2000/svg" xmlns:xlink="http://www.w3.org/1999/xlink" x="0px" y="0px"
	 viewBox="45 -33.8 150 150" style="enable-background:new 45 -33.8 150 150;" xml:space="preserve">
<style type="text/css">
	.st0{enable-background:new    ;}
	.st1{fill:#DC6200;}
</style>
<g class="st0">
	<path class="st1" d="M173.5,79.4l-7.9,10.4h-41.3v0h-8.9v0h-39V55.1h0v-3.7h0V21.9h0v-3.7h0v-29.4h39v0h8.9v0h53.9l1.8-3l-1.3-1.5
		c-2.4-3-5.5-6.1-9.2-9.3l-7.8,10H78.3c-4.3-2.2-8-3.8-11-4.8v125.1h9.2V93.6h106.1l1.7-2.9C181.2,86.8,177.6,83.1,173.5,79.4z"/>
	<path d="M115.5,18.1h-39v3.7h78.9v29.5H76.5v3.7h39v34.7h8.9V55.1h31.1v8.1h8.6V24.9l3.6-2.4c1.1-0.8,1.7-1.5,1.7-2.1
		c0-1.4-3.1-4.5-9.3-9.3l-5.9,7h-29.7v-29.4h-8.9V18.1z"/>
</g>
</svg>
