<?xml version="1.0" encoding="utf-8"?>
<!-- Generator: Adobe Illustrator 19.0.0, SVG Export Plug-In . SVG Version: 6.00 Build 0)  -->
<svg version="1.1" id="圖層_1" xmlns="http://www.w3.org/2000/svg" xmlns:xlink="http://www.w3.org/1999/xlink" x="0px" y="0px"
	 viewBox="45 -33.8 150 150" style="enable-background:new 45 -33.8 150 150;" xml:space="preserve">
<style type="text/css">
	.st0{fill:#DC6200;}
	.st1{enable-background:new    ;}
</style>
<path d="M58.3,87l1.8,3.3c27.1-10,55.4-28.9,72.1-47.7l-3.3-9C110.9,54.7,83.1,75.5,58.3,87z"/>
<path d="M59.5,55l1.6,3.5c20.6-7.6,47-24.5,63.7-40.6l-4.4-7.8C106.7,26.5,81.2,44.8,59.5,55z"/>
<g>
	<path class="st0" d="M126.7,53.4c0,12.7-1.3,22.4-3.8,29.1c-1.7,4.6-5.4,7.9-11.2,7.9c-6.2,0-13.3-0.9-21.5-2.6v4.5
		c8.4,2,13.9,2.6,16.5,3.8c3.5,1.7,5.4,4.1,5.6,7.4c9.4,0.2,15.7-4.4,18.8-13.5c2.9-8.4,4.4-19.7,4.4-33.9
		c0-21.1-7.4-41.1-22.3-59.9l-3.5,2.1C120.3,14.9,126,33.2,126.7,53.4z"/>
</g>
<g class="st1">
	<path d="M146.7,35.3c9.3-6.7,17.9-14,25.6-21.8c2.1,0.5,3.6,0.7,4.5,0.7c1.7,0,2.6-0.5,2.6-1.5c0-2.2-3.6-6-10.8-11.4
		c-6.9,11.1-14.8,21.1-23.7,30c-5.6-12.2-9.8-26.5-12.5-43.1h52.1l1.3-2.7c-3.9-4.6-7.7-8.6-11.6-11.9l-9.4,10.9H56.3l1.8,3.7h50.8
		C98.1,3.1,81.4,15.5,59,25.4l1.8,3.6C77.1,22.8,91.5,14.9,104,5.1l0,0l3.2-2.7l0,0c5.8-5.1,10.3-9.8,13.4-14.1h7.6
		c4.3,42.4,20.6,75.9,48.8,100.6c2.3-3.3,5.2-6.1,8.6-8.4C168.7,67.6,155.7,52.5,146.7,35.3z"/>
</g>
</svg>
