<?xml version="1.0" encoding="utf-8"?>
<!-- Generator: Adobe Illustrator 19.0.0, SVG Export Plug-In . SVG Version: 6.00 Build 0)  -->
<svg version="1.1" id="圖層_1" xmlns="http://www.w3.org/2000/svg" xmlns:xlink="http://www.w3.org/1999/xlink" x="0px" y="0px"
	 viewBox="45 -33.8 150 150" style="enable-background:new 45 -33.8 150 150;" xml:space="preserve">
<style type="text/css">
	.st0{enable-background:new    ;}
	.st1{fill:#DC6200;}
</style>
<g class="st0">
	<path d="M65.7,22.9c1,3.4,2.8,5.1,5.3,5.1c3.2,0,4.8-1.9,4.8-5.7c0-6.9-6.9-12.5-20.8-16.8l-1.5,2.6C59.8,12.8,63.9,17.7,65.7,22.9
		z"/>
	<path d="M77.8-10c1.2,3.2,2.9,4.8,4.9,4.8c3.4,0,5.1-1.9,5.1-5.6c0-6.6-7.3-12-21.9-16.2l-1.6,3C71.4-19.7,75.9-15.1,77.8-10z"/>
	<path d="M73.2,76c0-2.8,0.7-6.4,2.2-10.8L98.5-1.1l-3.8-2.3C86,21.2,77.6,41,69.7,55.9c-2.7,5-6.2,7.5-10.5,7.5
		c-1.5,0-3.7-0.2-6.4-0.6v3.9c4,0.4,6.9,1.4,8.7,3c2.6,2.3,4,6.3,4,12c0,3.4-0.4,7.3-1.1,11.8c-0.5,4.1-0.8,6.3-0.8,6.3
		c0,3.4,1.7,5.1,5.1,5.1c4.8,0,7.2-3.2,7.2-9.6c0-2.9-0.6-7.5-1.9-13.6C73.4,78.8,73.2,76.9,73.2,76z"/>
	<path class="st1" d="M148.6,90l3.3,1.8c6.3-8.6,11.2-16.5,14.6-23.7c3.8-0.2,5.7-1,5.7-2.3c0-2-4.2-4.7-12.6-8
		C156.8,70.6,153.1,81.3,148.6,90z"/>
	<path class="st1" d="M115.9,90.6c3.3,0,5-2,5-6c0-7.4-6.1-15.9-18.3-25.5l-2.4,2.3c6.1,7.8,9.6,15.4,10.7,22.9
		C111.6,88.5,113.3,90.6,115.9,90.6z"/>
	<path class="st1" d="M174.4,85l-7.5,9.4h-27.3V52.9h36.5l1.6-3c-3-3.6-6.2-6.8-9.6-9.7l-7.2,9h-21.3V27.8h24.2l1.8-3
		c-2-2.1-4.3-4.4-7.2-6.9c-1.4-1.2-2.2-1.9-2.3-2l-6.4,8.1h-40.8c11.7-11.6,21.1-25.1,28.1-40.5c11.3,19.8,25.9,35.8,43.9,48
		c1.9-3.1,4.3-5.6,7.4-7.3c-20.1-11.5-36.2-26-48.3-43.5c-0.4-0.6-0.7-1-0.9-1.2c4.1-0.5,6.2-1.4,6.2-2.9c0-2.1-4.4-4.1-13.1-5.7
		c-9.6,27-24.6,48.6-45,65l2.4,3c6.7-4.1,13-9,18.8-14.4l1,3.3h21.8v21.4H94.7l1.7,3.7h34.6v41.5H88.6l1.4,3.7h92.7l1.6-2.9
		l-1.3-1.5C181,91.4,178.2,88.4,174.4,85z"/>
</g>
</svg>
