<?xml version="1.0" encoding="utf-8"?>
<!-- Generator: Adobe Illustrator 19.0.0, SVG Export Plug-In . SVG Version: 6.00 Build 0)  -->
<svg version="1.1" id="圖層_1" xmlns="http://www.w3.org/2000/svg" xmlns:xlink="http://www.w3.org/1999/xlink" x="0px" y="0px"
	 viewBox="45 -33.8 150 150" style="enable-background:new 45 -33.8 150 150;" xml:space="preserve">
<style type="text/css">
	.st0{enable-background:new    ;}
	.st1{fill:#DC6200;}
</style>
<g class="st0">
	<path class="st1" d="M108.3,52.1c-10.9,3.7-15.9,6.5-23.1,8.6V-3.7h23.2l1.8-2.6c-2.2-3.1-5.4-6.8-9.6-11.1l-7.5,9.9H52.6l1.7,3.7
		h22v66.6c-8,2-16.2,3.7-24.5,5.1c2.8,9.4,5.3,14.1,7.3,14.1c1.2,0,2.1-1.9,2.9-5.6c15.8-5.1,28.8-11.9,47.2-20.6L108.3,52.1z"/>
	<path d="M175.1,0.7l-6,8.1h-27.9v-30c4-1.5,6-2.9,6-4.2c0-2.1-5.1-3.3-15.2-3.4V9.6h-23.9l1.8,3.7h22c-0.6,14.9-2.6,27.7-5.9,38.4
		c-6.4,20.8-20.1,37.8-40.9,51l2.2,3.4c20.4-10,34.6-23.2,42.6-39.6c6.9-14,10.6-32,11.1-54h29.4c0,32.1-1.5,55.6-4.6,70.5
		c-1.1,5.6-4.9,8.4-11.4,8.4c-5.8,0-13.7-0.5-23.7-1.6v3.9c8.6,1.4,14.4,2.7,17.1,3.9c3.9,1.5,5.9,3.6,6,6.4
		c9.9-0.6,16.3-4.5,19.2-11.7c4.2-10.6,6.3-34.3,6.3-71v-6.4l3.9-2.4c0.8-0.5,1.2-1.1,1.2-1.8C184.4,9.2,181.3,5.9,175.1,0.7z"/>
</g>
</svg>
