<?xml version="1.0" encoding="utf-8"?>
<!-- Generator: Adobe Illustrator 19.0.0, SVG Export Plug-In . SVG Version: 6.00 Build 0)  -->
<svg version="1.1" id="圖層_1" xmlns="http://www.w3.org/2000/svg" xmlns:xlink="http://www.w3.org/1999/xlink" x="0px" y="0px"
	 viewBox="45 -33.8 150 150" style="enable-background:new 45 -33.8 150 150;" xml:space="preserve">
<style type="text/css">
	.st0{enable-background:new    ;}
	.st1{fill:#DC6200;}
</style>
<g class="st0">
	<path class="st1" d="M176.5,14.8L168.4,25h-22.6V0.6h30.5l1.6-2.9c-3.5-4.1-6.9-7.6-10.3-10.8l-7.3,9.9h-14.4v-18.2
		c4.3-1.5,6.4-2.9,6.4-4.2c0-2.1-5.1-3.4-15.3-3.9v26.2h-34.8v-18.2c4.2-1.7,6.3-3.1,6.3-4.3c0-2.2-5.1-3.4-15.2-3.7v26.2H62.7
		l1.7,3.7h28.9V25H52.8l1.8,3.7h131l1.6-2.9C184.5,22.2,180.9,18.6,176.5,14.8z M136.9,25h-34.8V0.6h34.8V25z"/>
	<path d="M154.7,36.3l-5.6,6.7H90.6c-4.6-2.2-8.2-3.8-10.5-4.7v66.9h8.9v-9.9h61.5v9.9h8.9V50.1l3.9-2.6c1-0.7,1.5-1.3,1.5-1.9
		C164.7,44.3,161.4,41.2,154.7,36.3z M150.4,91.6H88.9V70.4h61.5V91.6z M150.4,66.7H88.9V46.8h61.5V66.7z"/>
</g>
</svg>
