<?xml version="1.0" encoding="utf-8"?>
<!-- Generator: Adobe Illustrator 19.0.0, SVG Export Plug-In . SVG Version: 6.00 Build 0)  -->
<svg version="1.1" id="圖層_1" xmlns="http://www.w3.org/2000/svg" xmlns:xlink="http://www.w3.org/1999/xlink" x="0px" y="0px"
	 viewBox="45 -33.8 150 150" style="enable-background:new 45 -33.8 150 150;" xml:space="preserve">
<style type="text/css">
	.st0{enable-background:new    ;}
	.st1{fill:#DC6200;}
</style>
<g class="st0">
	<path d="M103.3-10.7h76.4l1.5-3c-3.2-4.4-6.8-8.3-10.9-11.9l-8.4,11.1H58.5l1.6,3.7h33.8c0,0,0,0.1,0,0.1h9.4
		C103.3-10.6,103.3-10.7,103.3-10.7z"/>
	<path class="st1" d="M92.5,57.4c0,0,4.6-23.4,6.4-35.1c0-0.3,0.2-2.4,0.3-2.7h0.2l0.6-3.7h-0.2c0,0,2.5-17.4,3.4-26.5h-9.4
		c-2.8,26.2-7.5,53.8-14,82.6l9.2,1.9c0.5-2,2.9-12.7,2.9-12.7h49l0.5-3.7H92.5z"/>
	<path d="M176.5,82.2L167.8,94h-21.8c3.4-22.4,6.2-46.2,8.4-71.3l3.7-2.3c1-0.5,1.5-1.2,1.5-1.9c0-1.5-3.2-4.9-9.6-10.1l-6,7.4h-44
		l-0.6,3.7h46.1c-1,13.5-2.3,26.1-4,37.8h-0.3l-0.5,3.7h0.3l-1.8,13.3c-1.2,8.2-2,13.9-2.6,17l-0.3,2.6H52.6l1.7,3.7h131.3l1.9-3.3
		C183.5,89.4,179.8,85.3,176.5,82.2z"/>
</g>
</svg>
