<?xml version="1.0" encoding="utf-8"?>
<!-- Generator: Adobe Illustrator 19.0.0, SVG Export Plug-In . SVG Version: 6.00 Build 0)  -->
<svg version="1.1" id="圖層_1" xmlns="http://www.w3.org/2000/svg" xmlns:xlink="http://www.w3.org/1999/xlink" x="0px" y="0px"
	 viewBox="45 -33.8 150 150" style="enable-background:new 45 -33.8 150 150;" xml:space="preserve">
<style type="text/css">
	.st0{enable-background:new    ;}
	.st1{fill:#DC6200;}
</style>
<g class="st0">
	<path class="st1" d="M118.3,1.1v32.4h8.9V1.1h36.6c-1.6,5.2-4.1,11.2-7.7,17.9l3,2.3c5.8-5.5,10.6-10.8,14.4-16.1l4.3-1.6
		c1.3-0.4,2-1.1,2-2c0-1.6-3.6-5.6-10.8-12l-6.3,7.8h-35.5v-16.6c4.6-1.5,6.9-3,6.9-4.4c0-2.3-5.2-3.6-15.7-3.9v24.9H82.9
		c0,0,0,0-0.1,0l-1.8,3.8H118.3z"/>
	<path d="M133.2,74.2c9.5-8.8,18.2-19.8,25.9-33.2l3.9-2.1c1.3-0.7,2-1.4,2-2.1c0-1.5-3.2-4.9-9.6-10.2l-6,7.2h-22.2v-0.3h-8.9v0.3
		H81V1.1h0.2l1.8-3.8c-4.3-2.6-8-4.4-11.1-5.5v42c0,29.1-6.5,51.8-19.5,68.3l2.9,2.6C71.8,89.1,80.4,66.7,81,37.6h11.3
		c7.9,14.6,17.5,26.8,28.6,36.8c-13.9,12-30.2,20.9-48.9,27l2.1,3.6c20.1-5.2,37.9-13.6,53.4-25.2c12.6,9.4,28.5,16.9,47.8,22.4
		c2.1-3.1,4.7-6.1,8-9C163.8,89.4,147.1,83.1,133.2,74.2z M126.3,69.3c-10.7-8.4-20.3-18.9-28.7-31.6h52.2
		C144.4,49,136.6,59.6,126.3,69.3z"/>
</g>
</svg>
