<?xml version="1.0" encoding="utf-8"?>
<!-- Generator: Adobe Illustrator 19.0.0, SVG Export Plug-In . SVG Version: 6.00 Build 0)  -->
<svg version="1.1" id="圖層_1" xmlns="http://www.w3.org/2000/svg" xmlns:xlink="http://www.w3.org/1999/xlink" x="0px" y="0px"
	 viewBox="45 -33.8 150 150" style="enable-background:new 45 -33.8 150 150;" xml:space="preserve">
<style type="text/css">
	.st0{enable-background:new    ;}
	.st1{fill:#DC6200;}
	.st2{fill:#D3228C;}
</style>
<g class="st0">
	<path d="M81,29.5c3.8,0,5.7-2.1,5.7-6.3c0-7.6-7.9-15.6-23.7-24L60.5,2c8.1,7.4,13.3,14.8,15.6,22.3C77.1,27.8,78.7,29.5,81,29.5z"
		/>
	<path class="st1" d="M101.1,38.9l-1.8-3.6c-16.9,14-31.9,24.2-45,30.6c4.3,8.4,7.5,12.6,9.4,12.6c1.4,0,2.1-2.3,2.1-7
		C79.8,60.5,91.6,49.7,101.1,38.9z"/>
	<path d="M109.7-23.6l-5.9,6.7H56.4l1.8,3.8h46.5v99.9c0,3.2-1.9,4.8-5.7,4.8c-5.3,0-12.7-0.5-22.2-1.6v3.9c9.1,1.7,15,3.1,17.6,4.5
		c2.3,1.4,3.4,3.4,3.4,6c10.7,0,16-3.7,16-11.2V-10.2l3.7-2.7c0.6-0.4,0.9-0.9,0.9-1.4C118.5-15.5,115.5-18.6,109.7-23.6z"/>
	<path d="M174.3-23.8l-5.7,6.9h-47.2l1.8,3.8h46.5v99.2c0,3.2-2,4.8-5.9,4.8c-7.6,0-15.6-0.4-24-1.3v4.2c8.2,1,14,2.1,17.4,3.3
		c3.5,1.4,5.3,3.6,5.3,6.6c10.9,0,16.3-3.8,16.3-11.4V-10.1l3.6-2.4c0.8-0.5,1.2-1,1.2-1.7C183.6-15.4,180.5-18.6,174.3-23.8z"/>
	<path class="st2" d="M166.4,35.8l-1.8-3.4c-14.7,12.3-29.7,22.4-45,30.2c4.1,8,7,12,8.7,12c1.3,0,2.1-2.2,2.2-6.6
		C142.5,59.1,154.4,48.3,166.4,35.8z"/>
	<path d="M148.5,28.2c3.7,0,5.6-2,5.6-5.9c0-7.9-8.5-16-25.5-24.5l-2.3,3c8.7,7.2,14.5,15.1,17.6,23.7
		C144.8,27,146.3,28.2,148.5,28.2z"/>
</g>
</svg>
