<?xml version="1.0" encoding="utf-8"?>
<!-- Generator: Adobe Illustrator 19.0.0, SVG Export Plug-In . SVG Version: 6.00 Build 0)  -->
<svg version="1.1" id="圖層_1" xmlns="http://www.w3.org/2000/svg" xmlns:xlink="http://www.w3.org/1999/xlink" x="0px" y="0px"
	 viewBox="45 -33.8 150 150" style="enable-background:new 45 -33.8 150 150;" xml:space="preserve">
<style type="text/css">
	.st0{enable-background:new    ;}
	.st1{fill:#DC6200;}
</style>
<g class="st0">
	<path d="M96-4.7c0.6,3.4,2.3,5.1,5.1,5.1c4,0,6-2.2,6-6.6c0-8.3-7-16-20.9-23l-2.1,2.7C90.7-20.2,94.7-13,96-4.7z"/>
	<path class="st1" d="M174.3,50.4l-8.5,11.1h-42.9V34.8H169l1.8-3.1c-3.3-3.9-6.7-7.3-10.3-10.5l-7.7,9.9h-29.8V6.6h-9.2V31H70.1
		l1.5,3.7h42.2v26.7H55.3l1.3,3.7h57.2v40h9.2v-40h60.3l2-3C181.8,58.1,178.2,54.1,174.3,50.4z"/>
	<path d="M122.9,6.4h53.8l1.5-3.3c-2.7-3.3-6.2-7-10.5-10.9l-8.1,10.5h-29c6.1-7.7,11-15,14.9-21.9c4.8-0.1,7.3-1,7.3-2.6
		c0-2.2-4.9-4.9-14.6-8.2c-3.8,12.5-8,23.4-12.6,32.7H61.7l1.5,3.7h50.5v0.1h9.2V6.4z"/>
</g>
</svg>
