<?xml version="1.0" encoding="utf-8"?>
<!-- Generator: Adobe Illustrator 19.0.0, SVG Export Plug-In . SVG Version: 6.00 Build 0)  -->
<svg version="1.1" id="圖層_1" xmlns="http://www.w3.org/2000/svg" xmlns:xlink="http://www.w3.org/1999/xlink" x="0px" y="0px"
	 viewBox="45 -33.8 150 150" style="enable-background:new 45 -33.8 150 150;" xml:space="preserve">
<style type="text/css">
	.st0{enable-background:new    ;}
	.st1{fill:#DC6200;}
</style>
<g class="st0">
	<path d="M171.9,55.3c0.9,1.5,2.1,2.3,3.7,2.3c3.3,0,5-1.8,5-5.4c0-2.7-2-5.7-5.9-8.9c-5.8-4.6-14.5-8.5-25.9-11.6l-1.7,2.9
		C159.2,40.8,167.4,47.7,171.9,55.3z"/>
	<path d="M121.3,37c0-1.9-4-4-11.9-6.3c-6.2,11.7-13.7,20.9-22.8,27.5l2.4,2.9c11.6-6.3,20.2-13.6,25.8-22
		C119.2,38.9,121.3,38.3,121.3,37z"/>
	<path d="M128.1,61.3c8.3,0,12.4-3.1,12.4-9.4V26.2h36.1l1.7-2.6c-2.5-2.6-5.6-5.3-9.3-8.1l-6.2,7h-22.3V8.6h13.8l1.5-2.3
		c-3.3-3-6.3-5.2-8.8-6.6l-5.4,5.1h-24.6l1.3,3.7H132v13.8H96.1l1.8,3.7H132v20.1c0,2.7-1.3,4.1-3.8,4.1c-5.7,0-10.6-0.4-14.6-1.1
		v3.8C123.2,54.5,128.1,57.3,128.1,61.3z"/>
	<path d="M87.7,17.5l2.1,3c20.7-10.5,36.1-23,46.2-37.6C148.2-3,163.8,8,182.8,15.9c1.4-3.2,3.3-6.1,5.7-8.6
		c-18.8-5.8-35.5-15-50.3-27.6v-0.1c4.5-0.4,6.7-1.3,6.7-2.6c0-1.8-4.2-3.8-12.7-6C122.1-10.3,107.3,5.2,87.7,17.5z"/>
	<path class="st1" d="M65.9,9.1c1.1,2.7,2.5,4,4.4,4c3.3,0,5-1.8,5-5.4c0-5.9-6.2-10.1-18.5-12.6l-1.6,2.4C60.8,1.2,64.4,5,65.9,9.1
		z"/>
	<path d="M176.7,88.2l-7.6,8.7h-45V79h48.6l1.7-2.6c-3.3-3.7-6.7-7.1-10.3-10l-7.6,8.9h-32.4v-7c3.7-1.4,5.6-2.6,5.6-3.6
		c0-1.8-4.8-3-14.3-3.7v14.3H68.6l1.8,3.7h45v17.9H54.3l1.8,3.7h129.4l1.5-2.6l-1.2-1.3C182.9,93.5,179.9,90.6,176.7,88.2z"/>
	<path class="st1" d="M77.7-10.7c0.7,2.1,2.1,3.1,4,3.1c3.3,0,5-1.8,5-5.4c0-5.7-6.3-10.2-18.9-13.3l-1.7,2.4
		C71.9-20.2,75.8-15.8,77.7-10.7z"/>
	<path class="st1" d="M60.9,33c-1.4,0-2.7,0-3.7-0.1v3.9c3.6,0.3,6.2,0.8,8.1,1.6c3.2,1.7,4.8,5.2,4.8,10.5c0,2.1-0.3,5.5-0.9,10.2
		c0,0.5-0.1,1.1-0.1,2c0,3,1.6,4.5,4.8,4.5c3.9,0,5.9-2.5,5.9-7.6c0-4.1-0.7-8-2-11.7c-0.9-2.7-1.3-5.1-1.3-7.2
		c0-2.2,0.4-4.1,1.3-5.7l23.6-42.5L98-11.6c-9,15.5-18.1,29-27.3,40.4C68.4,31.6,65.2,33,60.9,33z"/>
</g>
</svg>
