<?xml version="1.0" encoding="utf-8"?>
<!-- Generator: Adobe Illustrator 19.0.0, SVG Export Plug-In . SVG Version: 6.00 Build 0)  -->
<svg version="1.1" id="圖層_1" xmlns="http://www.w3.org/2000/svg" xmlns:xlink="http://www.w3.org/1999/xlink" x="0px" y="0px"
	 viewBox="45 -33.8 150 150" style="enable-background:new 45 -33.8 150 150;" xml:space="preserve">
<style type="text/css">
	.st0{enable-background:new    ;}
	.st1{fill:#DC6200;}
</style>
<g class="st0">
	<path d="M168.3,87.6c-0.7-2-1.1-7.5-1.1-16.6l-4-1.5c-0.7,10.8-2.1,17.4-4,19.8c-2,2.3-12.3,3.4-31,3.4c-16.7,0-26.3-0.4-28.9-1.2
		c-1.9-0.7-2.9-2.5-2.9-5.3V69.9H139V76h8.3V48.7l2.4-1.6c0.6-0.5,0.9-1,0.9-1.4c0-1.2-2.8-3.7-8.4-7.5l-3.7,3.6H97.4
		c-0.6-0.3-1.8-0.8-3.5-1.4l-6,6.7v40.3c0,5.3,1.2,8.7,3.7,10.3c3.3,2.1,14.4,3.1,33.4,3.1c23.5,0,37.9-0.7,43.1-2
		c4.2-0.9,6.3-3.6,6.3-8.2C171.1,90.7,169.1,89.7,168.3,87.6z M96.5,45.5H139v20.6H96.5V45.5z"/>
	<path class="st1" d="M93.9,40.3c3.8-4.3,7.3-9.7,10.7-16.1h-9.7C86.6,40.8,72,54.5,50.9,65.5l1.8,3.1c14.2-5.5,25.9-12.8,35.2-21.8
		v0.2L93.9,40.3C93.9,40.3,93.9,40.3,93.9,40.3z"/>
	<path d="M141.4,24.2h42.2l1.7-3l-1.2-1.5c-3-3.5-6.1-6.6-9.2-9.3l-7.8,10h-24.2v-22h33l1.7-2.9c-3.9-4.5-7.2-7.9-10.1-10.2
		l-7.2,9.3h-17.4V-21c4.1-1.5,6.2-2.9,6.2-4c0-2.2-4.9-3.5-14.6-3.7v23.4h-30.2v-15.6c4-1.3,6-2.7,6-4c0-2.1-4.8-3.3-14.4-3.6v23.2
		h-33l1.3,3.7h31.6v22H54.9l1.4,3.7h38.5c0,0,0,0,0,0h9.7c0,0,0,0,0,0h31.6c0,0,0,0,0,0L141.4,24.2
		C141.4,24.2,141.4,24.2,141.4,24.2z M134.5,20.5h-30.2v-22h30.2V20.5z"/>
	<path class="st1" d="M141.4,24.2h-5.2c9.9,16.9,25.1,29.2,45.5,36.9c2-3,4.6-5.7,7.8-7.9C168.3,47.8,152.3,38.1,141.4,24.2z"/>
</g>
</svg>
