<?xml version="1.0" encoding="utf-8"?>
<!-- Generator: Adobe Illustrator 19.0.0, SVG Export Plug-In . SVG Version: 6.00 Build 0)  -->
<svg version="1.1" id="圖層_1" xmlns="http://www.w3.org/2000/svg" xmlns:xlink="http://www.w3.org/1999/xlink" x="0px" y="0px"
	 viewBox="45 -33.8 150 150" style="enable-background:new 45 -33.8 150 150;" xml:space="preserve">
<style type="text/css">
	.st0{enable-background:new    ;}
	.st1{fill:#DC6200;}
	.st2{fill:#D3228C;}
</style>
<g class="st0">
	<path d="M155.4,35.6c9-6.7,16.1-12.9,21.3-18.6c1.8,0.3,3.1,0.4,3.9,0.4c2.1,0,3.1-0.6,3.1-1.7c0-2.1-3.7-5.6-11.2-10.5
		c-5.1,8.9-11.3,17.7-18.8,26.3c-2.5-6.3-5.7-14.4-8.3-22.8l-3.8,0.9c0.8,4.3,2.9,12.9,4,16.9c5.7,21.5,17,41.5,33.9,59.8
		c2.5-3.4,5.3-6,8.4-7.9C173.7,65.2,162.9,50.9,155.4,35.6z"/>
	<path d="M145.4,56.8l-6.3,8.4h-15.2V48.5h21.2l1.6-2.4l-1.2-1.5c-2.2-3-4.3-5.4-6.4-7.2l-5.7,7.3H124V29h16l1.8-2.4
		c-3-3.9-5.4-6.8-7.1-8.6l-5.3,7.3H124v-15c4-0.7,6-1.6,6-2.7c0-0.4-0.6-1-1.8-1.8c0.1,0,0.1-0.1,0.2-0.1l-4.6-1.8
		c-0.1,0-0.1,0.1-0.2,0.1c-3-0.7-5.7-1.3-8.3-1.7v23H98.6l1.3,3.7h15.5v15.7H93.1l2,3.7h20.2v16.7H86.7l1.6,3.7h27v18.8
		c0,3.1-1.8,4.6-5.4,4.6c-5.7,0-12.3-0.5-19.6-1.6v4c7.3,1.4,12,2.7,14.3,3.7c2.8,1.4,4.3,3.5,4.5,6.3c9.9,0.1,14.9-3.9,14.9-12V69
		h28.6l1.4-2.7C151.6,63.1,148.8,60,145.4,56.8z"/>
	<path class="st1" d="M149.3-23.5l-5.4,6.6h-69l1.8,3.7h66.9c-5.1,5.6-11.7,11.3-19.7,17l4.5,1.8c4.7-2.4,22-13.4,24.6-15.2l5.3-1.3
		c1.2-0.3,1.8-0.8,1.8-1.5C159.9-13.9,156.4-17.6,149.3-23.5z"/>
	<path class="st2" d="M99,20c0.8-0.5,1.2-1,1.2-1.6c0-1.5-3-4.7-8.9-9.6l-5.6,6.9h-30l1.8,3.7h29.2C81.6,46.8,70,69.3,52.1,86.8
		l2.7,2.8c9-6.8,16.4-14.2,22.2-22.2c8-11.3,14.1-26.3,18.3-45.1L99,20z"/>
</g>
</svg>
