<?xml version="1.0" encoding="utf-8"?>
<!-- Generator: Adobe Illustrator 19.0.0, SVG Export Plug-In . SVG Version: 6.00 Build 0)  -->
<svg version="1.1" id="圖層_1" xmlns="http://www.w3.org/2000/svg" xmlns:xlink="http://www.w3.org/1999/xlink" x="0px" y="0px"
	 viewBox="45 -33.8 150 150" style="enable-background:new 45 -33.8 150 150;" xml:space="preserve">
<style type="text/css">
	.st0{enable-background:new    ;}
	.st1{fill:#DC6200;}
</style>
<g class="st0">
	<path d="M169.8-18.2l1.7-2.6c-3.1-3.1-6.5-6-10.1-8.6l-6.6,7.5h-37l1.5,3.7H169.8z"/>
	<path d="M184.1-4.3l1.5-2.7c-2.1-2.5-5.5-5.7-10-9.6L168.6-8h-60.1l1.6,3.7H184.1z"/>
	<path d="M133.3,17.5c3.5,0,5.3-1.9,5.3-5.6c0-5.2-5.1-10.2-15.3-14.9L121.2-1c4.3,4.3,6.9,9.1,7.9,14.3
		C129.6,16.1,131,17.5,133.3,17.5z"/>
	<path d="M188.8,19.3c-2-2.6-5.1-5.8-9.3-9.4l-6.9,8.6h-15.3c3.6-4.5,6.7-8.7,9.2-12.7c3.6,0,5.4-0.6,5.4-1.8c0-1.7-4.1-4-12.3-6.7
		c-1.7,6.5-4.3,13.6-7.8,21.3h-48.3l1.5,3.7h82.4L188.8,19.3z"/>
	<path class="st1" d="M106.2,76.7c-4.7,1.7-12.1,3.9-22.2,6.7V38.1h20.6l1.6-3c-2.2-3.1-5.1-6.4-8.4-9.7l-6,9H84v-21h15.6l1.6-2.9
		c-2.1-2.7-4.9-5.6-8.5-8.7L87,9.6H67.3C73.7,0.6,79-8.9,83-19.1c7.8,6.7,13.3,13.6,16.3,20.9c1.4,3,2.9,4.5,4.5,4.5
		c3.1,0,4.7-1.7,4.7-5c0-3.2-2.1-7-6.2-11.4c-4.9-5.1-10.8-9.2-17.6-12.3c3.7-0.6,5.6-1.5,5.6-2.6c0-1.8-4.5-3.5-13.5-5.1
		C71.6-9.6,62.9,8.2,50.6,23.2l2.7,2.6c4.2-4,7.9-8.2,11.2-12.5h11.1v21H53l1,3.7h21.6v47.7c-8.9,2.3-16.4,4-22.5,5.1
		c2.2,7.9,4.3,11.9,6.2,11.9c1.2,0,2.1-1.9,2.7-5.7c14.9-4.2,30.1-9.7,45.6-16.3L106.2,76.7z"/>
	<path d="M183.6,91.3c-0.7-2-1-6.9-1-14.9l-3.7-1.2c-0.6,9.1-1.6,14.9-3,17.4c-1.1,1.8-4.2,2.7-9.4,2.7c-5.3,0-7.9-1.3-7.9-4V67.3
		h8.9v4.2h8.4V38.6l3.3-2.1c0.9-0.6,1.3-1.2,1.3-1.8c0-1.2-3.1-4-9.3-8.4l-5.1,6h-41.8c-3.4-1.4-6.8-2.7-10.3-3.9v43.8h8.4v-5h9.7
		c-1.6,17.1-13.1,29.2-34.5,36.2l2.1,3.1c25.6-5.3,39.4-18.4,41.5-39.3h9v27.2c0,3.5,1,5.8,3,7c1.9,1.1,6.2,1.7,12.7,1.7
		c9.3,0,15.4-0.6,18.3-1.7c2.5-1,3.9-3.5,4-7.3C185.7,94.2,184.2,93.2,183.6,91.3z M122.4,63.6V51.4h43.5l1.3-2.6
		c-1.9-2.3-4.2-4.6-6.9-6.7l-4.6,5.6h-33.3V36.1h45v27.5H122.4z"/>
	<path class="st1" d="M95.1,43.5c-1.5,12.1-3.8,22.7-6.9,31.9l3.3,1.3c3.9-7.1,7.4-15.2,10.5-24.2c3.3-0.6,5-1.5,5-2.7
		C107,47.8,103,45.7,95.1,43.5z"/>
	<path class="st1" d="M65.6,79.4c3.2,0,4.8-2.2,4.8-6.6c0-8.3-4.2-17.2-12.6-26.7L54.9,48c4.2,8.2,6.4,16.6,6.6,25
		C61.6,77.3,63,79.4,65.6,79.4z"/>
</g>
</svg>
