<?xml version="1.0" encoding="utf-8"?>
<!-- Generator: Adobe Illustrator 19.0.0, SVG Export Plug-In . SVG Version: 6.00 Build 0)  -->
<svg version="1.1" id="圖層_1" xmlns="http://www.w3.org/2000/svg" xmlns:xlink="http://www.w3.org/1999/xlink" x="0px" y="0px"
	 viewBox="45 -33.8 150 150" style="enable-background:new 45 -33.8 150 150;" xml:space="preserve">
<style type="text/css">
	.st0{enable-background:new    ;}
	.st1{fill:#DC6200;}
</style>
<g class="st0">
	<path d="M171.6,78.9V48.7l3.4-2.3c1-0.7,1.5-1.3,1.5-1.9c0-1.5-3-4.4-9-8.7l-5.1,6.2h-20.9c-2.7-1.5-5.7-3-8.9-4.3v43.5h7.8v-8.3
		h23.4v6H171.6z M140.4,69.1V45.7h23.4v23.4H140.4z"/>
	<path d="M144.2,32.9h8.3V5.3l3.9-2.7c0.7-0.4,1.1-1,1.1-1.6c0-1.7-3.1-4.6-9.2-8.7l-5.4,6.4H110c-3.1-1.7-6.5-3.3-10.2-4.8v40h8.1
		v-6.7h36.3V32.9z M107.9,23.5v-21h36.3v21H107.9z"/>
	<path class="st1" d="M186.4-15.6c-2.8-3.2-6.3-6.6-10.5-10.2l-7.5,9.4H51l1.8,3.7h10.3v94.5c0,6.5,1.9,10.6,5.7,12.1
		c3,1.3,23.4,2,61.2,2c23.9,0,38.3-0.2,43.1-0.6c5.5-0.3,8.3-1.2,8.3-2.7c0-4-1.8-5.9-5.3-5.9c-0.8,0-2,0.1-3.7,0.3
		c-12.4,1.3-29,1.9-50,1.9c-28.4,0-44.2-0.3-47.4-1c-2.5-0.4-3.7-2.3-3.7-5.7v-94.8h113.1L186.4-15.6z"/>
	<path d="M120.4,79V48.5l3.4-2.3c0.8-0.5,1.2-1.1,1.2-1.8c0-1.5-2.9-4.3-8.8-8.4l-4.8,5.9H91c-2.1-1.2-5-2.6-8.9-4.2v43.4h7.6v-8.3
		h23.1V79H120.4z M89.7,69.1V45.7h23.1v23.4H89.7z"/>
</g>
</svg>
