<?xml version="1.0" encoding="utf-8"?>
<!-- Generator: Adobe Illustrator 19.0.0, SVG Export Plug-In . SVG Version: 6.00 Build 0)  -->
<svg version="1.1" id="圖層_1" xmlns="http://www.w3.org/2000/svg" xmlns:xlink="http://www.w3.org/1999/xlink" x="0px" y="0px"
	 viewBox="45 -33.8 150 150" style="enable-background:new 45 -33.8 150 150;" xml:space="preserve">
<style type="text/css">
	.st0{enable-background:new    ;}
	.st1{fill:#DC6200;}
</style>
<g class="st0">
	<path d="M83-30.5C76.3,0.9,65.4,29.2,50.3,54.4l3.3,2.4c6.8-9.5,13-19.4,18.6-29.9v78.3H81V18.5c4-1.3,6-2.6,6-3.9
		c0-1.6-2.4-2.9-7.2-3.7l0.4-0.9c4.2-9.8,7.7-20,10.6-30.6c4.7-0.9,7-2.1,7-3.4C98-26.4,93-28.6,83-30.5z"/>
	<path class="st1" d="M177.3-1.2l-6.1,7.3H144v-25.3c4.3-1.5,6.4-2.9,6.4-4.2c0-2.3-5.2-3.7-15.5-4V6.1h-26.1
		c-3.1-1.8-6.5-3.3-10.2-4.6v63.2h8.9V53.7H135v51.6h9V53.7H173v8.3h8.7V12.7l3.6-2.6c0.9-0.6,1.4-1.2,1.4-1.9
		C186.7,6.9,183.5,3.8,177.3-1.2z M135,49.9h-27.4V9.9H135V49.9z M173,49.9H144V9.9H173V49.9z"/>
</g>
</svg>
