<?xml version="1.0" encoding="utf-8"?>
<!-- Generator: Adobe Illustrator 19.0.0, SVG Export Plug-In . SVG Version: 6.00 Build 0)  -->
<svg version="1.1" id="圖層_1" xmlns="http://www.w3.org/2000/svg" xmlns:xlink="http://www.w3.org/1999/xlink" x="0px" y="0px"
	 viewBox="45 -33.8 150 150" style="enable-background:new 45 -33.8 150 150;" xml:space="preserve">
<style type="text/css">
	.st0{enable-background:new    ;}
	.st1{fill:#DC6200;}
</style>
<g class="st0">
	<path d="M76.5,88.2l-1,0.1c-7.1,1.1-13.9,1.9-20.4,2.6c2.7,9.3,5.1,13.9,7.3,13.9c1.3,0,2.3-2,2.9-5.9c17.4-3.5,37.9-9.1,61.5-16.8
		l-1-3.9c-13.8,3.4-27.2,6.3-40.1,8.5V43.2h-9.2V88.2z"/>
	<path d="M141.5,74.2c9.1-5.2,17.8-11.2,26.2-18.1c1.7,0.3,2.9,0.4,3.7,0.4c2.3,0,3.4-0.6,3.4-1.7c0-1.9-3.6-5.1-10.8-9.6
		c-7.5,9.1-16.2,17.9-26.1,26.3c-8.6-7.6-15.6-17.1-21.1-28.3h-5c4.1,11.3,9.4,20.9,15.7,28.6c10.8,12.8,27.5,22.9,50.2,30.1
		c1.3-3,3.8-6,7.5-9.2C166.6,88.5,152,82.3,141.5,74.2z"/>
	<path class="st1" d="M116.9,43.1h35.2V48h8.9V-0.3l3.9-2.7c0.8-0.6,1.2-1.2,1.2-1.6c0-1.4-3.2-4.5-9.5-9.3l-6,7h-27.8v-0.2h-8.6
		v0.2h-27c-4.2-2.1-7.8-3.5-10.6-4.5v54.6h9.2v-0.1h26.2c0,0,0,0.1,0,0.1h5C116.9,43.2,116.9,43.2,116.9,43.1z M85.6-3.2h66.4v18.6
		H85.6V-3.2z M85.6,39.4V19.2h66.4v20.2H85.6z"/>
	<path d="M122.7-21.2c4.2-1.5,6.3-2.9,6.3-4.3c0-2.3-5-3.6-14.9-3.7v22.1h8.6V-21.2z"/>
</g>
</svg>
