<?xml version="1.0" encoding="utf-8"?>
<!-- Generator: Adobe Illustrator 19.0.0, SVG Export Plug-In . SVG Version: 6.00 Build 0)  -->
<svg version="1.1" id="圖層_1" xmlns="http://www.w3.org/2000/svg" xmlns:xlink="http://www.w3.org/1999/xlink" x="0px" y="0px"
	 viewBox="45 -33.8 150 150" style="enable-background:new 45 -33.8 150 150;" xml:space="preserve">
<style type="text/css">
	.st0{enable-background:new    ;}
	.st1{fill:#DC6200;}
</style>
<g class="st0">
	<polygon points="79.4,73.3 81.1,77 96.7,77 96.7,73.3 	"/>
	<path class="st1" d="M165.8,84.4l-7,8.4h-53.4V77h0v-3.7h0V59.2h65.4l1.8-2.7c-2.4-3-5.4-6-9.2-9.2l-7.4,8.1h-49.7
		c-3-1.5-6.2-2.9-9.7-4.3v22.1h0V77h0v28.2h8.7v-8.6h68.8l1.7-2.9C173.3,90.8,169.9,87.7,165.8,84.4z"/>
	<path d="M173.2-5l-5.7,6.4h-44.4V-9.7h50.2l1.7-2.9c-2.4-3.1-5.5-6.4-9.3-9.9l-7,9h-35.7v-7.3c4.7-1.4,7-2.8,7-4.2
		c0-2.4-5.2-3.7-15.6-3.9V1.4H78.4c-1-0.5-4.3-2-10-4.4v32.3c0,32.6-5.5,57.5-16.5,74.9l2.9,2.2C63,97.6,68.9,87,72.4,74.8
		c3.2-11.3,4.8-26.4,4.8-45.3V5.2H111v15.5L81.1,23l2.6,4l27.3-2.4v8.7c0,4.3,1,7.2,3.1,8.5c2.2,1.4,11.3,2.1,27.2,2.1
		c17,0,26.7-0.3,29.1-1c3.3-1,5-3.6,5.1-7.6c-3.5,0-5.3-2.9-5.3-8.7c0-1.4,0-2.7,0.1-3.7l-3.6-1.1c-1.4,9.2-3.8,14.1-7.3,14.6
		c-2.5,0.4-9,0.6-19.6,0.6c-10.6,0-16.7-0.3-18.2-1c-1.5-0.5-2.3-2.1-2.3-4.7v-7.3l38.7-3.3l1.7-3.1c-2.3-2.2-6-5.1-11-8.7l-6,9.3
		l-23.4,2V5.2H168c-0.7,4.1-1.9,8.1-3.6,11.9l3,1.6c3.7-2.9,6.8-5.9,9.2-9l5.1-0.7c1.3-0.1,1.9-0.6,1.9-1.5
		C183.6,5.6,180.1,1.4,173.2-5z"/>
	<path d="M184.6,74.3c-2.4-2.5-5.5-5.3-9.4-8.2l-6.7,7.2h-63V77h77.2L184.6,74.3z"/>
</g>
</svg>
