<?xml version="1.0" encoding="utf-8"?>
<!-- Generator: Adobe Illustrator 19.0.0, SVG Export Plug-In . SVG Version: 6.00 Build 0)  -->
<svg version="1.1" id="圖層_1" xmlns="http://www.w3.org/2000/svg" xmlns:xlink="http://www.w3.org/1999/xlink" x="0px" y="0px"
	 viewBox="45 -33.8 150 150" style="enable-background:new 45 -33.8 150 150;" xml:space="preserve">
<style type="text/css">
	.st0{enable-background:new    ;}
	.st1{fill:#DC6200;}
</style>
<g class="st0">
	<path class="st1" d="M73.6-14H185l1.6-3c-3-3.8-6.4-7.3-10.3-10.8l-7.8,10H75c-1.8-1.1-5.1-2.6-9.9-4.5v39.6
		c0,36.2-5.2,64.5-15.7,84.7l3,1.8c14.2-19.4,21.3-48.3,21.3-86.7V-14z"/>
	<path d="M156,51v-30c7,10.2,15.5,18.2,25.5,24c1.5-3,3.4-5.3,5.6-6.9c-12.5-5.3-22.5-12.4-30-21.5h24.5l1.7-3
		c-2.2-2.8-4.9-5.7-7.8-8.7l-5.9,8H156V-0.3c4.3-0.8,8.2-1.6,11.4-2.3c1.9,0.5,3.2,0.7,4.2,0.7c1.4,0,2.1-0.4,2.1-1.2
		c0-1.6-2.6-4.1-7.8-7.5c-11.1,4.8-24,8.2-38.7,10.3l1.8,3.3c7.2-0.6,13.6-1.3,19.4-2.3v12h-17.7c-2.1-2.5-4.3-4.8-6.7-6.7l-5,6.7
		h-11V-0.8c1.1-0.2,2.8-0.6,5.1-1.1c2-0.4,3.3-0.7,4-0.9c1.5,0.4,2.7,0.6,3.7,0.6c1.3,0,2-0.4,2-1.2c0-1.4-2.4-3.8-7.2-7
		C105.5-5.8,93.7-2.4,80.2-0.2l1.7,3.3c5.2-0.5,11.4-1.4,18.6-2.6v12.3h-24l1.4,3.7h20.8c-5.8,10.9-13.7,20-23.7,27.5l2.1,2.7
		c9.2-5.7,17-12.5,23.4-20.6V51h7.5V25.2c4.5,2.8,7.9,6,10.2,9.6c1.3,2.2,2.7,3.3,4.1,3.3c2.8,0,4.2-1.4,4.2-4.3
		c0-4.9-6.2-9.1-18.5-12.5v-4.6h37.9c-6.3,10.9-14.8,20.1-25.4,27.6l2.4,2.7c10-5.8,18.5-12.9,25.6-21.3V51H156z"/>
	<path d="M176,85.3l-7.3,9.6h-31.2V73.6h35.7l1.7-2.9c-2.3-2.9-5.3-6.2-9.2-9.9l-6.6,9h-21.6V57.3c4-1.5,6-2.9,6-4.2
		c0-2.1-4.9-3.3-14.6-3.8v45.6h-24.7V65.4c3.7-1.5,5.6-2.9,5.6-4.1c0-2.1-4.7-3.4-14-3.9v37.5h-27l1.7,3.7h114.1l2-3
		C183.9,92.4,180.4,88.9,176,85.3z"/>
</g>
</svg>
