<?xml version="1.0" encoding="utf-8"?>
<!-- Generator: Adobe Illustrator 19.0.0, SVG Export Plug-In . SVG Version: 6.00 Build 0)  -->
<svg version="1.1" id="圖層_1" xmlns="http://www.w3.org/2000/svg" xmlns:xlink="http://www.w3.org/1999/xlink" x="0px" y="0px"
	 viewBox="45 -33.8 150 150" style="enable-background:new 45 -33.8 150 150;" xml:space="preserve">
<style type="text/css">
	.st0{enable-background:new    ;}
	.st1{fill:#DC6200;}
</style>
<g class="st0">
	<path d="M153.3,34V16.7l2.9-1.8c0.8-0.5,1.2-1,1.2-1.6c0-1.3-2.7-3.8-8.2-7.4l-4.7,5H90.8c-2.6-1.1-5.7-2.1-9.2-3v28.1h8.4v-5.4
		h54.7V34H153.3z M90.1,26.8V14.6h54.7v12.2H90.1z"/>
	<path d="M119.7-21.2C131.9-7.3,152.1,4.4,180.3,14c1.2-2.6,3.2-5.4,6-8.5c-28.4-6.7-49.8-16.5-64.2-29.4c3.9-0.4,5.9-1.2,5.9-2.3
		c0-1.7-4.2-3-12.7-4C102-11.2,81.1,3.5,52.5,14l1.8,3C83.5,8.5,105.3-4.2,119.7-21.2z"/>
	<path d="M138.9-0.2c-1.8-2.1-4.7-4.2-8.6-6.6l-5.3,5.4H97.3L99,2.3h37.9L138.9-0.2z"/>
	<path class="st1" d="M176.7,64.2l-7.3,8.9h-45.3V61.9h50.4l1.5-2.7l-1.4-1.3c-3-3-5.8-5.5-8.4-7.5l-6.7,7.8h-35.4V46.8l3.7-0.3
		c10.7-0.5,18.6-1.1,23.6-1.6c2,0.4,3.8,0.6,5.3,0.6c1.9,0,2.9-0.3,2.9-1c0-1.4-3.3-3.8-10-7.3c-18.5,3.9-45.1,6.3-79.8,7.4l1.5,3.4
		c10.6,0,24.4-0.2,41.2-0.7c1.5,0,2.5,0,3-0.1v11.1H64.8l1.6,3.7h49.2v11.2H53.3l1.7,3.7h60.6v11.4c0,2.5-1.7,3.7-5,3.7
		c-6.3,0-13.3-0.4-21.1-1.2v3.7c8.3,1.4,13.5,2.6,15.7,3.7c2.3,1.1,3.4,3,3.4,5.9c10.3,0.1,15.5-3.1,15.5-9.9V76.9h60.6l1.8-2.7
		C183.6,70.9,180.4,67.5,176.7,64.2z"/>
</g>
</svg>
