<?xml version="1.0" encoding="utf-8"?>
<!-- Generator: Adobe Illustrator 19.0.0, SVG Export Plug-In . SVG Version: 6.00 Build 0)  -->
<svg version="1.1" id="圖層_1" xmlns="http://www.w3.org/2000/svg" xmlns:xlink="http://www.w3.org/1999/xlink" x="0px" y="0px"
	 viewBox="45 -33.8 150 150" style="enable-background:new 45 -33.8 150 150;" xml:space="preserve">
<style type="text/css">
	.st0{enable-background:new    ;}
	.st1{fill:#DC6200;}
</style>
<g class="st0">
	<path d="M100.1,33.8c16.3-8.2,24.5-21.9,24.5-40.9v-9.7h0.4l0.7-3.7h-0.2c-2.4-1.3-5.6-2.7-9.6-4.3v18.1c0,16.4-6,28.9-17.9,37.6
		L100.1,33.8z"/>
	<path class="st1" d="M151-16.9v31.3c0,4.2,1.1,7,3.3,8.3c1.7,1,5.9,1.5,12.7,1.5c7.4,0,12.3-0.4,14.7-1.2c2.8-1.1,4.2-2.7,4.2-4.8
		c0-3-2.3-4.1-7-3.4c-4.5,1-8.4,1.5-11.5,1.5c-3.6,0-5.8-0.2-6.7-0.6c-0.8-0.5-1.2-1.7-1.2-3.7V-14l3.7-2.6c0.9-0.6,1.4-1.2,1.4-1.8
		c0-1.5-3.1-4.4-9.2-8.9l-5.6,6.6h-24.2l-0.7,3.7H151z"/>
	<path d="M146.6,76c7.4-7.6,14.6-17.5,21.5-29.6l4.2-2.2c1.1-0.6,1.7-1.2,1.7-1.8c0-1.4-3.3-4.8-10-10.2l-5.2,6.4H97.8l1.7,3.7h10.6
		c6.9,13.3,15.2,24.5,24.8,33.6c-12.4,11.7-27.3,20.5-44.8,26.4l1.9,3.4c19-5.1,35.4-13.2,49.2-24.3c11.5,8.9,24.9,16.4,40.4,22.4
		c1.6-3.3,4-6.2,7.3-8.7C171.9,90.8,157.8,84.4,146.6,76z M140,70.9c-9.9-8.8-18.1-18.3-24.8-28.5H159
		C154.5,52.6,148.1,62.1,140,70.9z"/>
	<path d="M91.2-18.8c4.3,0,6.4-0.6,6.4-1.9c0-1.9-3.7-4.8-11.1-8.7C77.4-11.9,65.6,3.1,51.2,15.4l2.4,2.6
		C67.9,8.8,80.4-3.5,91.2-18.8z"/>
	<path d="M81.2,31.9c4.5-6.2,9.3-13.4,14.1-21.6c4-0.1,6-0.9,6-2.3c0-1.8-3.7-4.5-11.1-8C79.6,23.1,66.3,42.4,50.3,57.8l2.4,2.9
		c7.8-6.1,15.2-13.1,22-21v65.6h8.6V38.8c3.5-1.1,5.3-2.2,5.3-3.4C88.6,33.8,86.1,32.6,81.2,31.9z"/>
</g>
</svg>
