<?xml version="1.0" encoding="utf-8"?>
<!-- Generator: Adobe Illustrator 19.0.0, SVG Export Plug-In . SVG Version: 6.00 Build 0)  -->
<svg version="1.1" id="圖層_1" xmlns="http://www.w3.org/2000/svg" xmlns:xlink="http://www.w3.org/1999/xlink" x="0px" y="0px"
	 viewBox="45 -33.8 150 150" style="enable-background:new 45 -33.8 150 150;" xml:space="preserve">
<style type="text/css">
	.st0{enable-background:new    ;}
	.st1{fill:#DC6200;}
</style>
<g class="st0">
	<path d="M63.3,22.5c0.7,2.9,2.2,4.3,4.5,4.3c3.3,0,5-2,5-5.9c0-6.7-6.3-12.2-18.8-16.5L52.2,7C58.2,11.4,61.9,16.5,63.3,22.5z"/>
	<path class="st1" d="M112.2,55.5l-3.6-0.8c-2.2,13.5-6.9,22.4-13.8,26.9c-2.7,1.7-4,3.2-4,4.8c0,3.6,1.7,5.4,5,5.4
		c2.9,0,6-2.2,9.2-6.7C109.6,78,112,68.2,112.2,55.5z"/>
	<path d="M73.9-8.3C74.7-6.1,76-5,77.8-5c3.5,0,5.3-1.9,5.3-5.7c0-6.6-6.7-12-20.1-16.2L61.2-24C67.8-19.6,72-14.4,73.9-8.3z"/>
	<path class="st1" d="M125.2,34.8v53.8c0,2.9-1.8,4.4-5.3,4.4c-5.9,0-11-0.4-15.3-1.1v3.9c5.8,1,9.8,2.1,12,3.3
		c1.9,1,2.9,2.9,2.9,5.6c9.4,0,14.1-3.9,14.1-11.6V42.7c3.9-1.3,5.9-2.7,5.9-4C139.5,36.5,134.7,35.2,125.2,34.8z"/>
	<path d="M145.9,14h39.5l1.5-2.9c-3.2-3.8-6.5-7.2-9.8-10.2l-7.5,9.3h-39.8c3-7.6,5.6-15.8,7.7-24.6H173l1.5-2.9
		c-1.9-2.4-5-5.6-9.3-9.6l-6.6,8.7H99.2l1.4,3.7h27.9c-1.9,8.2-4.5,16.4-7.8,24.6h-30L93,3l-3.6-2c-7,21.9-13.6,39.3-19.9,52.2
		c-2.2,4.8-5.3,7.2-9.3,7.2c-1.3,0-3.3-0.1-6.2-0.4v4c2.9,0.4,5.3,1.2,7.2,2.4c2.9,2.1,4.4,6.3,4.4,12.7c0,3.3-0.2,6.2-0.6,8.6
		c-0.7,5.5-1.1,8.7-1.1,9.5c0,3.3,1.6,4.9,4.8,4.9c4.7,0,7-3.3,7-9.9c0-3.4-0.7-7.9-2.1-13.6c-0.6-2.4-0.9-4.2-0.9-5.4
		c0-2,0.8-5.5,2.4-10.6L89.7,14h29.6c-7.5,18.2-20.2,32.5-38.1,43.1l1.8,3.3c22.8-10.7,38-26.1,45.6-46.4h12.3
		c3.5,5.5,6.5,9.9,9.2,13c8.1,10.2,19.2,19.1,33.4,26.7c1.7-3.6,3.9-6.5,6.8-8.6C172,38.3,157.2,27.9,145.9,14z"/>
	<path class="st1" d="M142,53.5l-2.7,2.1c6.5,9.9,10.5,19.5,11.9,28.8c0.7,4.9,2.3,7.3,4.8,7.3c3.5,0,5.3-2.1,5.3-6.4
		C161.2,76.6,154.8,66,142,53.5z"/>
	<path class="st1" d="M160.5,50.5l-2.3,2.6c9.3,9.9,15.4,19.4,18.3,28.6c1.2,3.8,3.1,5.7,5.6,5.7c3.1,0,4.6-1.9,4.6-5.7
		C186.7,72.7,178,62.3,160.5,50.5z"/>
</g>
</svg>
