<?xml version="1.0" encoding="utf-8"?>
<!-- Generator: Adobe Illustrator 19.0.0, SVG Export Plug-In . SVG Version: 6.00 Build 0)  -->
<svg version="1.1" id="圖層_1" xmlns="http://www.w3.org/2000/svg" xmlns:xlink="http://www.w3.org/1999/xlink" x="0px" y="0px"
	 viewBox="45 -33.8 150 150" style="enable-background:new 45 -33.8 150 150;" xml:space="preserve">
<style type="text/css">
	.st0{enable-background:new    ;}
	.st1{fill:#DC6200;}
</style>
<g class="st0">
	<path class="st1" d="M122.4,23l-7.7,10h-16v-46.5h-9.2v46.5H54.3l1.6,3.7h33.6c-0.4,27.8-11.3,48.7-32.7,62.8l2.3,3
		C85.5,89,98.7,67,98.7,36.8h31.1l2.1-3.1C128.5,29.4,125.4,25.9,122.4,23z"/>
	<path d="M144.8-2.4c3.9-1.6,5.9-3.1,5.9-4.3c0-2.2-4.8-3.4-14.4-3.7v77.9h8.6V-2.4z"/>
	<path d="M167.8-25.1V85.2c0,3.3-1.7,5-5.1,5c-7,0-14.6-0.4-22.8-1.2V93c9.4,1.4,15.3,2.7,17.6,3.9c2.4,1.2,3.6,3.2,3.6,6
		c10.4,0.1,15.6-3.8,15.6-11.7V-16.6c4.3-1.6,6.4-3.1,6.4-4.5C183.1-23.6,178-24.9,167.8-25.1z"/>
</g>
<g>
	<path d="M123.7-10.9l1.5-3.3c-2.9-3.7-6-7.2-9.3-10.5l-7.6,10H60l1.3,3.7H123.7z"/>
</g>
</svg>
