<?xml version="1.0" encoding="utf-8"?>
<!-- Generator: Adobe Illustrator 19.0.0, SVG Export Plug-In . SVG Version: 6.00 Build 0)  -->
<svg version="1.1" id="圖層_1" xmlns="http://www.w3.org/2000/svg" xmlns:xlink="http://www.w3.org/1999/xlink" x="0px" y="0px"
	 viewBox="45 -33.8 150 150" style="enable-background:new 45 -33.8 150 150;" xml:space="preserve">
<style type="text/css">
	.st0{enable-background:new    ;}
	.st1{fill:#DC6200;}
</style>
<g class="st0">
	<path class="st1" d="M169.4,3.9v85.3H70.2V13.7c3.8-1.4,5.7-2.7,5.7-3.9c0-2.1-4.8-3.5-14.4-4v98.7h8.7V93h99.2v11.5h8.7V12.1
		c3.8-1.4,5.7-2.7,5.7-3.9C183.8,6.1,179,4.7,169.4,3.9z"/>
	<path d="M153.2,79.6V16.3l3.7-2.6c0.8-0.5,1.2-1.1,1.2-1.8c0-1.2-3-4.2-8.9-8.9l-5.6,6.4H96.2C93.4,8.2,90,6.7,86.1,5.3V80h8.6
		v-9.2h50.1v8.7H153.2z M123.5,13.3h21.2v23.1h-21.2V13.3z M114.9,67.1H94.7v-27h20.3V67.1z M114.9,36.4H94.7V13.3h20.3V36.4z
		 M123.5,67.1v-27h21.2v27H123.5z"/>
	<path d="M176.1-25.5l-7.8,10.2H53.7l1.3,3.7h130.5l1.4-2.9C183.8-18.2,180.2-21.9,176.1-25.5z"/>
</g>
</svg>
