<?xml version="1.0" encoding="utf-8"?>
<!-- Generator: Adobe Illustrator 19.0.0, SVG Export Plug-In . SVG Version: 6.00 Build 0)  -->
<svg version="1.1" id="圖層_1" xmlns="http://www.w3.org/2000/svg" xmlns:xlink="http://www.w3.org/1999/xlink" x="0px" y="0px"
	 viewBox="45 -33.8 150 150" style="enable-background:new 45 -33.8 150 150;" xml:space="preserve">
<style type="text/css">
	.st0{enable-background:new    ;}
	.st1{fill:#DC6200;}
</style>
<g class="st0">
	<path class="st1" d="M99.6,90.2c-6.3,0.9-13.5,1.7-21.6,2.4c2.2,9.1,4.4,13.6,6.6,13.6c1.2,0,2.1-1.8,2.7-5.3
		c17.6-3.4,35.1-8,52.4-13.8l-1-4c-8.9,2.1-19,4-30.4,5.9V55.7h-8.7V90.2z"/>
	<path class="st1" d="M152.1,79.7c6.9-4.3,12.6-8.7,17.1-13c0.7,0.1,1.6,0.1,2.7,0.1c2.5,0,3.7-0.5,3.7-1.5c0-1.7-3.6-4.5-10.7-8.4
		c-5.2,7.8-10.7,14.5-16.3,20c-6.5-5.8-11.6-12.6-15.3-20.4l-0.4-0.7h-5.3c3.1,7.7,6.5,14.2,10.4,19.6c9.3,13.1,23.5,22.5,42.6,28.3
		c2-3.8,4.3-6.7,6.9-8.8C173.3,91.7,161.5,86.7,152.1,79.7z"/>
	<path d="M132.9,55.6h48.8l1.6-3c-3.6-4-6.8-7.1-9.6-9.4l-7,8.7h-21V30.4H176l1.7-2.6c-2.1-2.7-5.1-6-9-9.7l-6.8,8.6h-16.2V16.3
		c3.9-1.4,5.9-2.6,5.9-3.8c0-2.1-4.8-3.3-14.4-3.7v17.9h-25v-10c3.8-1.4,5.7-2.6,5.7-3.8c0-2-4.7-3.3-14.1-3.9v17.7h-25l1.6,3.7
		h23.4v21.5H74.2c1.1-10,1.7-19.8,1.7-29.4V5.8h88.2v5.7h8.6V-14l3.9-2.4c0.7-0.4,1.1-0.9,1.1-1.5c0-1.4-3-4.5-9-9.3l-5.9,6.9H77.1
		c-2-1-5.3-2.6-10.2-4.8v47.6c0,34.8-5.2,61.7-15.7,80.9l3.4,2.3c9.7-12.8,16.1-29.5,19-50.1h26v0.2h8.7v-0.2h19.3
		c0,0.1,0,0.1,0.1,0.2h5.3L132.9,55.6z M75.9-16.6h88.2V2H75.9V-16.6z M112.1,51.8V30.4h25v21.5H112.1z"/>
</g>
</svg>
