<?xml version="1.0" encoding="utf-8"?>
<!-- Generator: Adobe Illustrator 19.0.0, SVG Export Plug-In . SVG Version: 6.00 Build 0)  -->
<svg version="1.1" id="圖層_1" xmlns="http://www.w3.org/2000/svg" xmlns:xlink="http://www.w3.org/1999/xlink" x="0px" y="0px"
	 viewBox="45 -33.8 150 150" style="enable-background:new 45 -33.8 150 150;" xml:space="preserve">
<style type="text/css">
	.st0{enable-background:new    ;}
	.st1{fill:#DC6200;}
</style>
<g class="st0">
	<path class="st1" d="M85.8-10.7c1.1,3.2,2.8,4.8,5.1,4.8c3.6,0,5.4-2,5.4-5.9c0-6.5-7.3-12.3-21.9-17.4l-1.8,2.7
		C79.6-21.5,84-16.3,85.8-10.7z"/>
	<path class="st1" d="M115.5-11.4c0.9,3.4,2.4,5.1,4.6,5.1c3.9,0,5.9-2,5.9-5.9c0-6.7-7-12.9-21-18.5l-2.1,2.6
		C109.8-22.8,114-17.3,115.5-11.4z"/>
	<path d="M176-8.4l-5.6,6.9h-27.9c0,0,0,0,0,0h-5.6c0,0,0,0,0,0H72.3c0-0.3-0.1-1-0.2-2.3c-0.1-1.4-0.3-2.6-0.4-3.6l-3.8-0.7
		C66.8,2.2,63.3,9.9,57.6,14.9C55.9,16.5,55,18,55,19.4c0,1,0.4,2,1.2,3.1c1.4,1.5,2.9,2.3,4.5,2.3c3.1,0,5.7-2.1,8-6.4
		c2.5-4.5,3.7-9.9,3.7-16.2h98.8c-1.6,5.2-3.5,10-5.8,14.4l2.9,2.1c4.2-3.3,8.3-7.1,12-11.4l4.8-1.1c1.4-0.3,2.1-0.8,2.1-1.6
		C187.4,2.6,183.6-1.8,176-8.4z"/>
	<path class="st1" d="M159.5-19.6c4.9-0.1,7.3-0.9,7.3-2.2c0-2.1-4.7-5.2-14.1-9.2c-4,10.5-9.2,20.3-15.7,29.3h5.6
		C149.8-8.5,155.4-14.5,159.5-19.6z"/>
	<path d="M180.9,89.5c-0.8-3-1.2-9.8-1.2-20.4l-3.9-1.5c-1.4,15.7-3.8,24.2-7.4,25.6c-1.7,0.7-6.5,1-14.5,1c-8.6,0-14-0.2-16.2-0.7
		c-1.5-0.4-2.3-1.7-2.3-3.9V66.7h14.2v6h8.4V21.4l3.9-2.3c0.8-0.5,1.2-1,1.2-1.5c0-1.6-3.1-4.7-9.4-9.3l-5.3,6.3H89.8
		c-1.6-0.8-4.8-2.2-9.6-4.2v63h8.7v-6.7h13.8c-2.8,19.9-18.9,31.8-48.3,35.7l1.8,3.7c16.3-1.4,28.6-4.6,37.1-9.6
		c10.7-6.4,16.9-16.4,18.6-29.9h15v24.5c0,4.4,1,7.3,3,8.6c2.2,1.6,10.4,2.4,24.5,2.4c14,0,22.7-0.5,25.9-1.5c3.7-1.1,5.6-3.7,5.7-8
		C183.3,92.8,181.6,91.7,180.9,89.5z M88.9,18.4h60.7v11.7H88.9V18.4z M88.9,33.8h60.7V46H88.9V33.8z M88.9,63V49.7h60.7V63H88.9z"
		/>
</g>
</svg>
