<?xml version="1.0" encoding="utf-8"?>
<!-- Generator: Adobe Illustrator 19.0.0, SVG Export Plug-In . SVG Version: 6.00 Build 0)  -->
<svg version="1.1" id="圖層_1" xmlns="http://www.w3.org/2000/svg" xmlns:xlink="http://www.w3.org/1999/xlink" x="0px" y="0px"
	 viewBox="45 -33.8 150 150" style="enable-background:new 45 -33.8 150 150;" xml:space="preserve">
<style type="text/css">
	.st0{enable-background:new    ;}
	.st1{fill:#DC6200;}
</style>
<g class="st0">
	<path d="M78.2,17.1c0.8,2.2,1.5,4.4,2.3,6.7c-6.4,17.1-16.1,32.1-29.1,44.9l2.4,2.7c12.8-10.2,22.7-22,29.7-35.4
		c1.5,7.1,2.3,14.4,2.3,21.9c0,10.8-1.4,20.4-4.2,28.8c-0.4,1.2-0.8,2.2-1.3,3c-1.4,2.1-4.2,3.1-8.6,3.1c-6.5,0-11.6-0.3-15.2-1v4
		c5.4,0.9,8.9,1.7,10.5,2.4c3,1.2,4.6,3.5,4.8,7c3.8-0.1,6.9-0.9,9.5-2.2c8.4-4.6,12.6-18.9,12.6-42.9c0-16.5-3.1-32.1-9.3-46.8
		L78.2,17.1z"/>
	<path d="M144,72.7h8.3V28.5l3.4-2.6c0.8-0.6,1.2-1.2,1.2-1.8c0-1.6-3-4.7-9-9.2l-5,6.6h-20.7c-3.8-2.1-7-3.7-9.6-4.7v57.8h8.1V61.4
		H144V72.7z M120.7,57.7V25.3H144v32.4H120.7z"/>
	<path class="st1" d="M80.1,3.9c4.8-5.5,9.3-12,13.7-19.3c4.2,0,6.3-0.7,6.3-2.1c0-2.1-3.8-4.8-11.3-8.1C85.5-18,81.3-10.5,76.2-3.2
		c-3.7-6.4-9.1-14-16.2-22.6l-3.3,2.6C63.2-14,68.3-5.5,72.2,2.4C65.2,11,58.4,17.9,51.7,23.2l2.3,3.1c7.8-4.9,14.8-10.6,21.2-17.2
		c1,2.5,2.1,5.2,3,8l6.3-3.8C83.2,10.1,81.7,7,80.1,3.9z"/>
	<path d="M175.9-10.6l-5.7,6.9h-49.7c1.2-3.1,2.9-8.5,5.1-16.3c4.6-0.7,6.9-1.8,6.9-3.3c0-2.3-4.7-4.4-14.1-6.3
		c-5.5,27.2-14.2,48.7-26,64.6l2.9,2.6C104.9,27.3,112.8,14.8,119,0h52.7v11.6c-0.2,35.5-1.1,58.8-2.6,69.9
		c-0.8,5.7-4.4,8.6-10.8,8.6c-7.2,0-14.1-0.5-20.7-1.5v4c7.5,1.2,12.7,2.4,15.6,3.6c3.4,1.3,5.1,3.6,5.1,6.9
		c9.2-0.1,15.2-4.3,18-12.5c2.4-7,3.8-32.5,4-76.3V3.3l3.6-2.4c1-0.7,1.5-1.3,1.5-1.9C185.4-2.5,182.2-5.7,175.9-10.6z"/>
</g>
</svg>
