<?xml version="1.0" encoding="utf-8"?>
<!-- Generator: Adobe Illustrator 19.0.0, SVG Export Plug-In . SVG Version: 6.00 Build 0)  -->
<svg version="1.1" id="圖層_1" xmlns="http://www.w3.org/2000/svg" xmlns:xlink="http://www.w3.org/1999/xlink" x="0px" y="0px"
	 viewBox="45 -33.8 150 150" style="enable-background:new 45 -33.8 150 150;" xml:space="preserve">
<style type="text/css">
	.st0{enable-background:new    ;}
	.st1{fill:#DC6200;}
</style>
<g class="st0">
	<path d="M123.5-9.5h59l1.5-2.7c-3-3.8-5.7-6.7-8.1-8.9c-1.5-1.2-2.5-2-2.9-2.3l-7.6,10.2h-42v-8.7c4.5-1.5,6.7-2.9,6.7-4.2
		c0-2.1-5.2-3.3-15.6-3.7v16.6H56.4L58-9.5h56.6v4.9h8.9V-9.5z"/>
	<path class="st1" d="M123.5,23.5h33v4.7h8.3V7.7l3-2.1c1.1-0.8,1.6-1.5,1.6-2.1c0-1.4-2.9-4.1-8.7-8.1l-5.5,6.3h-31.6v-6.3h-8.9
		v6.3H83.3c-2.6-1.1-6-2.4-10.1-3.7v31.3h8.3v-5.9h33.2v7.4h8.9V23.5z M123.5,5.5h33v14.3h-33V5.5z M114.7,19.8H81.5V5.5h33.2V19.8z
		"/>
	<path d="M180.6,44.8l-7.1,9.7h-7.6V43.8l3.3-2.4c1.1-0.8,1.7-1.5,1.7-2.1c0-1.3-3-4-8.9-8.3l-5.7,6.2h-32.8v-6.3h-8.9v6.3H66
		l1.6,3.7h47v13.6H53.1l1.3,3.7h60.2v15.4H64.5l1.8,3.7h48.3v11.4c0,2.9-1.6,4.4-4.8,4.4c-6.3,0-13.4-0.5-21.2-1.5v3.9
		c7.6,1.4,12.7,2.6,15.2,3.6c3,1.4,4.5,3.5,4.5,6.5c10.1,0,15.2-3.8,15.2-11.3V77.4h33.8v9.9h8.6v-29h21.8l1.6-2.7
		C186.4,51.1,183.5,47.5,180.6,44.8z M157.4,73.7h-33.8V58.3h33.8V73.7z M157.4,54.5h-33.8V40.9h33.8V54.5z"/>
</g>
</svg>
