<?xml version="1.0" encoding="utf-8"?>
<!-- Generator: Adobe Illustrator 19.0.0, SVG Export Plug-In . SVG Version: 6.00 Build 0)  -->
<svg version="1.1" id="圖層_1" xmlns="http://www.w3.org/2000/svg" xmlns:xlink="http://www.w3.org/1999/xlink" x="0px" y="0px"
	 viewBox="45 -33.8 150 150" style="enable-background:new 45 -33.8 150 150;" xml:space="preserve">
<style type="text/css">
	.st0{enable-background:new    ;}
	.st1{fill:#DC6200;}
</style>
<g class="st0">
	<path class="st1" d="M158.1-11.3c0.9,4,2.7,6,5.3,6c3.5,0,5.3-1.9,5.3-5.7c0-3.2-1.9-6.5-5.6-9.9c-3.8-3.5-8.8-6.3-15-8.5l-1.6,2.9
		C152.9-21.7,156.8-16.6,158.1-11.3z"/>
	<path class="st1" d="M181.6,86c0-3,0.6-10.8,1.8-23.4l-4.1-2.1c-2.8,18.9-5.3,28.3-7.3,28.3c-0.8,0-2.3-1-4.5-2.9
		c-6.8-6.1-12.4-13.2-16.7-21.3c7.7-10.4,14.4-22.6,20.1-36.5c0.7,0.1,1.4,0.1,2.1,0.1c2.9,0,4.4-0.7,4.4-2c0-2.2-4-5.3-12-9.4
		C160,34,153.8,47.5,146.8,57.4c-5.7-14.4-9.5-31.3-11.4-50.8h49.2l1.5-2.9c-2.5-3.3-5.2-6.2-8-8.7c-0.5-0.5-1-0.9-1.5-1.3l-7.3,9.2
		h-34.4c0-0.3-0.1-0.7-0.1-1.2c0-0.8-0.1-1.4-0.1-1.7c-0.4-4.9-0.6-11.7-0.6-20.4v-1.7c3.8-1.5,5.7-2.9,5.7-4
		c0-2.1-4.8-3.3-14.4-3.6v9.1c0,9.7,0.3,17.7,1,24.2H54.1l1.3,3.7h71.4c2.2,21.8,7,41.1,14.3,57.7c-9.7,13.8-22.4,25.6-38.1,35.3
		l2.2,3.1c17.1-8.3,30.6-18.8,40.4-31.2l0.6,0.9c5.6,10.5,13,18.8,22.3,25c4.4,2.9,8,4.3,10.6,4.3c3.4,0,5.9-2.1,7.4-6.3
		C183.3,95.2,181.6,91.8,181.6,86z"/>
	<path d="M108.8,90V50.5h18.5l1.6-3c-2.8-3.8-5.4-6.9-7.6-9.2l-6.4,8.4h-6V22.9c3.9-1.2,5.9-2.4,5.9-3.6c0-2.2-4.8-3.4-14.4-3.7
		v31.2H84.6V23.4c3.6-1.4,5.4-2.6,5.4-3.8c0-2.1-4.8-3.3-14.3-3.7v30.9H55.5l1.2,3.7h19c-0.4,21.8-6.5,38.1-18.3,48.8l2.4,3
		c9.6-6.4,16.3-14.1,19.9-23.1c3.1-7.5,4.7-17,4.8-28.6h15.6V90H108.8z"/>
</g>
</svg>
