<?xml version="1.0" encoding="utf-8"?>
<!-- Generator: Adobe Illustrator 19.0.0, SVG Export Plug-In . SVG Version: 6.00 Build 0)  -->
<svg version="1.1" id="圖層_1" xmlns="http://www.w3.org/2000/svg" xmlns:xlink="http://www.w3.org/1999/xlink" x="0px" y="0px"
	 viewBox="45 -33.8 150 150" style="enable-background:new 45 -33.8 150 150;" xml:space="preserve">
<style type="text/css">
	.st0{enable-background:new    ;}
	.st1{fill:#DC6200;}
</style>
<g class="st0">
	<path d="M150.6,32.1c7.5,6.9,12.6,13.5,15.2,19.9c1.3,3.6,3.1,5.4,5.3,5.4c3.1,0,4.7-1.8,4.7-5.4c0-7.1-7.9-15-23.6-23.8
		c1.1-2.6,2.3-6.2,3.6-10.5c4.1-0.6,6.2-1.5,6.2-2.7c0-2.1-4.6-4.4-13.8-7c-2.3,15.4-6.9,28.8-13.9,40.1l2.8,3.4
		C142.5,46.3,147,39.9,150.6,32.1z"/>
	<path class="st1" d="M137.1,51.5c0,0,0.1-0.1,0.1-0.1l-2.8-3.4c0,0.1-0.1,0.2-0.1,0.2c-3.1-3.8-6.6-8.8-10.5-15V1.1H182l1.9-3.3
		c-2.8-3.3-6.4-7-10.8-11.1L165-2.6h-41.2v-18.9c4.7-1.7,7-3.2,7-4.5c0-2.3-5.3-3.4-15.9-3.4v26.9H56.3l1.4,3.7h57.3v31.9
		c-11.2,24.3-32,45.2-62.3,62.8l2.4,3.3c25.4-12,45.3-28.6,59.8-49.7v55.7h8.9V41.4c13.3,23,32.4,40.5,57.3,52.6
		c1.6-3.2,4.2-6.2,7.8-8.9C167.7,77,150.4,65.8,137.1,51.5z"/>
	<path d="M96.2,15.1c0-2.2-4.7-4.6-14.1-7C77.1,29,69.3,45.9,58.7,58.9l2.9,2.5c9.7-8.8,17.1-18.3,22.2-28.6l0.3-0.9
		c4.9,3.9,8.5,8.3,10.7,13.3c1.5,3.3,3.1,5,4.9,5c3.2,0,4.8-1.8,4.8-5.4c0-5.9-6.2-11.5-18.5-16.9c1.6-4.1,2.8-7.4,3.6-9.7
		C94,17.5,96.2,16.5,96.2,15.1z"/>
</g>
</svg>
