<?xml version="1.0" encoding="utf-8"?>
<!-- Generator: Adobe Illustrator 19.0.0, SVG Export Plug-In . SVG Version: 6.00 Build 0)  -->
<svg version="1.1" id="圖層_1" xmlns="http://www.w3.org/2000/svg" xmlns:xlink="http://www.w3.org/1999/xlink" x="0px" y="0px"
	 viewBox="45 -33.8 150 150" style="enable-background:new 45 -33.8 150 150;" xml:space="preserve">
<style type="text/css">
	.st0{enable-background:new    ;}
	.st1{fill:#DC6200;}
</style>
<g class="st0">
	<path class="st1" d="M110.8,70.6c-17.5,7.1-34.2,12.3-50.1,15.7c3.1,8.1,5.7,12.2,7.6,12.2c1.1,0,1.8-1.8,2.1-5.5
		c13.6-5,27.5-11.4,41.7-19L110.8,70.6z"/>
	<path d="M52.3,34.4l2.3,3c11.3-7.3,20.6-15.8,27.9-25.5v27.8h8.1V12.4c5.4,2.8,9.2,6,11.4,9.7c1.5,2.4,3.1,3.6,4.7,3.6
		c2.9,0,4.3-1.6,4.3-4.8c0-5.4-6.8-9.6-20.4-12.6V1.9h25l1.8-2.9c-2.2-2.9-5-5.9-8.3-8.8l-6.2,7.9H90.6v-14.4c6.6-1,11.6-1.8,15-2.5
		c1.7,0.4,3.2,0.6,4.6,0.6c1.9,0,2.9-0.4,2.9-1.3c0-1.7-2.9-4.2-8.6-7.7c-12,4.8-28.2,8.3-48.6,10.6l1.6,3.8
		c5.6-0.3,13.9-1.1,24.9-2.4v13.3H54.7l1.4,3.7h24.1C72.3,15.4,63,26.2,52.3,34.4z"/>
	<path d="M116.7,13.3c7.2-6.2,13.1-13.5,17.8-22.2h13.5c-2,13.6-8.1,25.3-18.5,35.2l2.9,2.6c13.1-9.2,21.3-21.8,24.6-37.8h14.4
		c0.1,12.8-0.8,22.6-2.7,29.4c-1,3.7-3.4,5.6-7,5.6c-5.2,0-10.2-0.4-15.2-1.2v3.9c9.3,1.4,14,4.1,14.1,8.3c5.2,0.1,9.3-1.4,12.5-4.7
		c4.1-4.2,6.3-17.1,6.7-38.8l3.1-2.1c0.9-0.6,1.3-1.2,1.3-1.8c0-1.1-2.9-4-8.8-8.7l-5.6,6.4h-33.6c0.7-1.3,1.8-4,3.4-8.1
		c4.1-0.4,6.2-1.3,6.2-2.6c0-2.1-4.4-4-13.2-5.7c-3.9,16.6-10.2,29.9-18.8,40L116.7,13.3z"/>
	<path class="st1" d="M142.3,73.1c4.5-2.6,8.6-5.6,12.3-9c3.9,0,5.9-0.6,5.9-1.8c0-1.5-3.6-4-10.7-7.5c-3.1,5.7-7.1,11.4-12,17.1
		c-4.6-1.3-9.2-2.4-13.8-3.3v-16c3.6-1.4,5.4-2.6,5.4-3.8c0-2-4.6-3.1-13.7-3.4v44.1c0,3-1.7,4.5-5.1,4.5c-5.9,0-12-0.5-18.5-1.4v4
		c6.4,1.1,10.7,2.1,12.8,3c3.2,1.4,4.8,3.4,4.6,6.2c9.6,0.1,14.4-3.7,14.4-11.6V72.6l0.9,0.3c16.6,5.6,30.1,12,40.4,19.3
		c3,2.1,5.1,3.1,6.4,3.1c2.6,0,3.9-1.4,3.9-4.3C175.7,85.7,164.6,79.7,142.3,73.1z"/>
	<path d="M121.8,30.1c3.9-0.4,5.9-1.2,5.9-2.3c0-1.4-3.6-3.2-10.8-5.5C101.3,40.9,79.7,55.2,52,65.2l1.8,3.6
		c10.2-3.1,19.6-6.9,28.3-11.2c0,0,0,0,0.1,0.1l4-1.8c-0.1,0-0.1-0.1-0.2-0.1c13.2-7,24.2-14.6,33-22.9l0.7,0.6
		c16.1,13.5,36.9,23.6,62.5,30.3c1.2-3.2,3.4-6.1,6.4-8.9C162.2,50.6,139.9,42.4,121.8,30.1z"/>
	<path class="st1" d="M90.4,69.9c0.8,2.9,2.2,4.3,4.4,4.3c3.2,0,4.8-1.8,4.8-5.3c0-4.8-4.4-9.2-13.3-13.1l-4,1.8
		C86.7,61.3,89.4,65.4,90.4,69.9z"/>
</g>
</svg>
