<?xml version="1.0" encoding="utf-8"?>
<!-- Generator: Adobe Illustrator 19.0.0, SVG Export Plug-In . SVG Version: 6.00 Build 0)  -->
<svg version="1.1" id="圖層_1" xmlns="http://www.w3.org/2000/svg" xmlns:xlink="http://www.w3.org/1999/xlink" x="0px" y="0px"
	 viewBox="45 -33.8 150 150" style="enable-background:new 45 -33.8 150 150;" xml:space="preserve">
<style type="text/css">
	.st0{enable-background:new    ;}
	.st1{fill:#DC6200;}
</style>
<g class="st0">
	<path d="M142.9-9.8V4.4h-21.2l1.7,3.7h19.5v15.5H116l1.5,3.7h25.3v14.7h8.7V27.4h31.6L185,25c-2.7-3.3-5.8-6.4-9.3-9.4l-6.8,8.1
		h-17.2V8.2h25.2l1.7-2.7c-2.3-2.6-5.2-5.4-8.6-8.3l-6.3,7.3h-12V-9.8h29.7l1.7-2.4c-2.1-2.6-4.3-5.1-6.7-7.5
		c-0.9-0.9-1.8-1.6-2.6-2.3l-7,8.4h-15V-21c4.4-1.5,6.6-2.9,6.6-4.1c0-1.9-5.1-3-15.3-3.4v15H118l1.8,3.7H142.9z"/>
	<path d="M54.4,25.5c2.3,8.6,4.3,12.9,6.2,12.9c1.1,0,2.1-1.8,3-5.3c7.2-1.3,13.2-2.4,18-3.4v12.7h8.7V27.7
		c9.3-2.2,18.1-4.6,26.5-7.2l-0.7-3.7c-7.8,1.6-16.4,3.1-25.8,4.6V8.2h21.8l1.6-2.4c-2.4-2.8-5.3-5.6-8.5-8.3l-6.6,7h-8.3V-9.8h24.9
		l1.6-2.4c-2.7-3-5.6-5.9-8.8-8.8l-6.4,7.5H90.3v-7.3c4.2-1.5,6.3-2.9,6.3-4.1c0-2.1-5-3.3-15-3.4v14.9H55.7l1.8,3.7h24.2V4.4H61.3
		l1.4,3.7h18.9v14.4C77.6,23.1,68.6,24.1,54.4,25.5z"/>
	<polygon points="53.3,70 54.6,73.7 150.8,73.7 150.8,70 	"/>
	<path class="st1" d="M155.4,43.2l-5.7,6.4H69.9l1.4,3.7h79.5V70h0v3.7h0V92H68.6l1.8,3.7h80.4v9.3h8.9V73.7h0V70h0V56.7l4.2-2.6
		c0.8-0.5,1.2-1,1.2-1.6C165,51,161.8,47.9,155.4,43.2z"/>
	<path d="M187.7,71.2c-4.1-4.4-7.5-7.8-10.3-10.2l-7.7,9h-10v3.7H186L187.7,71.2z"/>
</g>
</svg>
