<?xml version="1.0" encoding="utf-8"?>
<!-- Generator: Adobe Illustrator 19.0.0, SVG Export Plug-In . SVG Version: 6.00 Build 0)  -->
<svg version="1.1" id="圖層_1" xmlns="http://www.w3.org/2000/svg" xmlns:xlink="http://www.w3.org/1999/xlink" x="0px" y="0px"
	 viewBox="45 -33.8 150 150" style="enable-background:new 45 -33.8 150 150;" xml:space="preserve">
<style type="text/css">
	.st0{enable-background:new    ;}
	.st1{fill:#DC6200;}
</style>
<g class="st0">
	<path class="st1" d="M124.2-8.7H181l1.8-3.1c-4.2-4.6-8.2-8.4-11.9-11.4l-8.9,10.8H57.5l1.6,3.7h55.8v0.1h9.3V-8.7z"/>
	<path d="M125.5,32.5h50.6l1.8-3.1c-3.6-4.1-7.3-7.8-11.2-11.1l-8.4,10.5h-34.4c0.2-3.6,0.3-6.5,0.3-8.6V-8.6h-9.3v28.9
		c0,1-0.1,3.8-0.3,8.4H61.9l1.7,3.7h50.5c-3.9,32.2-23.7,54-59.3,65.3l2.1,3.6c38.4-9.3,60.4-30.6,66-64
		c9.8,27.3,28.6,47.9,56.4,61.7c2-3.4,4.6-6.4,8.1-9C158,78.8,137.4,59.6,125.5,32.5z"/>
</g>
</svg>
