<?xml version="1.0" encoding="utf-8"?>
<!-- Generator: Adobe Illustrator 19.0.0, SVG Export Plug-In . SVG Version: 6.00 Build 0)  -->
<svg version="1.1" id="圖層_1" xmlns="http://www.w3.org/2000/svg" xmlns:xlink="http://www.w3.org/1999/xlink" x="0px" y="0px"
	 viewBox="45 -33.8 150 150" style="enable-background:new 45 -33.8 150 150;" xml:space="preserve">
<style type="text/css">
	.st0{enable-background:new    ;}
	.st1{fill:#DC6200;}
</style>
<g class="st0">
	<path d="M67.3,2.8c1,3.4,2.7,5.1,5.1,5.1c3.5,0,5.3-2,5.3-5.9c0-2.3-1.1-4.9-3.4-7.8c-3.8-4.8-9.7-8.8-17.7-12l-1.8,2.9
		C61.1-9.7,65.3-3.8,67.3,2.8z"/>
	<path class="st1" d="M72.8,64.1c0-2.3,0.7-5.9,2.1-10.8l17-59l-3.5-2.3c-6.5,21.9-13.4,40.2-20.5,54.8c-2.2,4.6-5.2,6.9-9,6.9
		c-1.7,0-3.8-0.2-6.3-0.6v3.9c4.2,0.8,7.2,1.7,8.9,2.9c3,2,4.5,5.9,4.5,11.7c0,3.3-0.3,6.9-0.9,10.9c-0.9,6.2-1.3,9.5-1.3,10
		c0,3.4,1.6,5.1,4.9,5.1c4.6,0,6.9-3.1,6.9-9.3c0-5.2-0.6-10.9-1.8-17.2C73.1,68,72.8,65.7,72.8,64.1z"/>
	<path d="M152.5,31.3c8.5-7.2,16.2-14.7,22.9-22.5c1.4,0.3,2.5,0.4,3.4,0.4c2.1,0,3.1-0.6,3.1-1.8c0-2.1-3.7-5.7-11.2-10.6
		c-6.1,11.1-12.8,21.2-20,30.2c-5.1-13-8.3-28.2-9.6-45.4c4-1.5,6-2.8,6-4c0-2.1-5.1-3.3-15.3-3.7V86.7c0,3.2-1.6,4.8-4.7,4.8
		c-5.5,0-12.6-0.5-21.2-1.6v3.9c6.7,1,11.4,2.2,14.1,3.4c3.2,1.3,4.8,3.5,5,6.4c10.2,0.1,15.3-4,15.3-12.5V-0.5
		c1.7,14.4,4.5,27.1,8.6,38.2c6.3,17.8,16.7,33.6,31.2,47.5c2.5-3.9,5.2-6.7,7.9-8.4C172,63.4,160.1,48.2,152.5,31.3z"/>
	<path d="M128.1,14.6c0.8-0.5,1.2-1,1.2-1.6c0-1.6-3-5-9-10.2l-5.9,7.3H90.6l1.7,3.7h22.9c-5.9,30.2-17,54-33.3,71.3l2.6,3
		C103.9,73,117.1,49.3,124,17L128.1,14.6z"/>
</g>
</svg>
