<?xml version="1.0" encoding="utf-8"?>
<!-- Generator: Adobe Illustrator 19.0.0, SVG Export Plug-In . SVG Version: 6.00 Build 0)  -->
<svg version="1.1" id="圖層_1" xmlns="http://www.w3.org/2000/svg" xmlns:xlink="http://www.w3.org/1999/xlink" x="0px" y="0px"
	 viewBox="45 -33.8 150 150" style="enable-background:new 45 -33.8 150 150;" xml:space="preserve">
<style type="text/css">
	.st0{enable-background:new    ;}
	.st1{fill:#DC6200;}
</style>
<g class="st0">
	<path class="st1" d="M101.8-4.4c0,19.5-2.3,36.7-7,51.7c-6.9,22.1-20,39.5-39.3,52.2l2.3,3.3c20-11,34.1-25.6,42.3-43.9
		c7.4-16.7,11.1-37.9,11.1-63.4v-5h-9.3V-4.4z"/>
	<path d="M172.1,19.9l-6,7.3h-21.8c3.4-11.4,5.9-22.7,7.5-33.8l4.2-2.1c1.2-0.6,1.8-1.2,1.8-1.9c0-1.6-3.1-5-9.4-10.2l-5.9,7.2H63.5
		l1.3,3.7h37.1v0.2h9.3v-0.2H144c-2.7,16.8-6.7,33.2-12.2,49.1l8.3,1.8l3.3-10h24.2c-0.4,18.9-2.3,34.3-5.7,46.1
		c-2,6.6-6.8,9.9-14.4,9.9c-8.1,0-17.9-1-29.7-2.9v4c11,2,18.3,3.6,21.8,4.7c4.9,1.6,7.3,3.9,7.3,6.9c7.6,0,13.5-2.4,17.7-7.2
		c6.9-7.9,10.8-27.4,11.5-58.5l4-2.3c0.9-0.4,1.3-1.1,1.3-1.9C181.3,28.4,178.3,25.1,172.1,19.9z"/>
</g>
</svg>
