<?xml version="1.0" encoding="utf-8"?>
<!-- Generator: Adobe Illustrator 19.0.0, SVG Export Plug-In . SVG Version: 6.00 Build 0)  -->
<svg version="1.1" id="圖層_1" xmlns="http://www.w3.org/2000/svg" xmlns:xlink="http://www.w3.org/1999/xlink" x="0px" y="0px"
	 viewBox="45 -33.8 150 150" style="enable-background:new 45 -33.8 150 150;" xml:space="preserve">
<style type="text/css">
	.st0{enable-background:new    ;}
	.st1{fill:#DC6200;}
</style>
<g class="st0">
	<path d="M99.2,77.8V42.4h27l1.8-3.1c-3.1-4.1-6.4-7.7-10-11.1l-7.8,10.5H62.4l1.5,3.7h26.6v37.1c-10.1,1.9-20.1,3.4-30,4.8
		c2.5,9.7,4.9,14.6,7,14.6c1.2,0,2.2-2,3-6c20.7-4.9,41.5-11.2,62.5-18.9l-0.7-3.9C122.3,72.7,111.3,75.3,99.2,77.8z"/>
	<path d="M150-25.3c6.2,5.1,9.9,10.6,11.2,16.4c0.8,3.3,2.5,4.9,5.3,4.9c3.5,0,5.3-1.9,5.3-5.6c0-6.9-6.7-13-20-18.4L150-25.3z"/>
	<path class="st1" d="M181.8,79.7c0-5.1,0.5-12.5,1.5-22l-3.9-2c-2.2,18.8-4.6,28.3-7.2,28.3c-2.6,0-7-4.7-13.3-14
		C148.1,54.2,141,34.1,137.6,9.7h45.7l1.7-3.3L183.8,5c-2.7-3.4-5.6-6.5-8.7-9.4L167.8,6h-30.7c-0.9-7.7-1.4-15.2-1.4-22.5v-3.1
		c3.8-1.7,5.7-3.1,5.7-4.2c0-2-5-3.3-14.9-4v10.2c0,7.7,0.3,14.4,0.9,20.1c0.1,1.7,0.3,3.1,0.4,4.3H56.6l1.5,3.7h70.4
		c4.6,32.5,15.3,58.1,32.1,77c8.2,9.1,14.7,13.6,19.6,13.6c3.8,0,6.2-2.2,7.3-6.7C183.7,93,181.8,88.1,181.8,79.7z"/>
</g>
</svg>
