<?xml version="1.0" encoding="utf-8"?>
<!-- Generator: Adobe Illustrator 19.0.0, SVG Export Plug-In . SVG Version: 6.00 Build 0)  -->
<svg version="1.1" id="圖層_1" xmlns="http://www.w3.org/2000/svg" xmlns:xlink="http://www.w3.org/1999/xlink" x="0px" y="0px"
	 viewBox="45 -33.8 150 150" style="enable-background:new 45 -33.8 150 150;" xml:space="preserve">
<style type="text/css">
	.st0{enable-background:new    ;}
	.st1{fill:#DC6200;}
	.st2{fill:#D3228C;}
</style>
<g class="st0">
	<path class="st1" d="M123.7,48.5h33v7.3h8.6V19c3.8-1.2,5.6-2.5,5.6-4c0-2.2-4.8-3.6-14.3-4.2v33.9h-33V12.3
		c4.1-1.6,6.2-2.9,6.2-4.1c0-2.3-5-3.6-15-3.7v40.4H82.6V19.5c3.9-1.4,5.9-2.7,5.9-4c0-2.2-4.8-3.5-14.4-3.8V57h8.6v-8.4h32.2v0
		L123.7,48.5L123.7,48.5z"/>
	<path d="M175.3-20l-7.2,9.3h-19.2v-10.6c4-1.4,6-2.7,6-4c0-2.3-4.9-3.4-14.6-3.4v18h-15.2l1.5,3.7h13.6V7.3h8.6V-7h35.5l1.7-2.9
		C183.2-13.2,179.6-16.6,175.3-20z"/>
	<path d="M88.9,7.3h8.6V-7h22.8l1.5-2.9c-2.7-3.1-6-6.3-10-9.6l-6.8,8.7h-7.5v-10.8c4.1-1.4,6.2-2.7,6.2-3.9c0-2.2-4.9-3.3-14.7-3.3
		v18H54.3L55.8-7h33.2V7.3z"/>
	<path class="st2" d="M165.8,60v32.2h-42.1V48.6h-8.9v43.6H73.9V69.1c3.8-1.4,5.7-2.7,5.7-3.9c0-2.5-4.9-3.8-14.6-4v43.9h8.9v-9.3
		h91.9v9.3h8.7V68.2c3.9-1.3,5.9-2.7,5.9-4C180.4,61.6,175.6,60.3,165.8,60z"/>
</g>
</svg>
