<?xml version="1.0" encoding="utf-8"?>
<!-- Generator: Adobe Illustrator 19.0.0, SVG Export Plug-In . SVG Version: 6.00 Build 0)  -->
<svg version="1.1" id="圖層_1" xmlns="http://www.w3.org/2000/svg" xmlns:xlink="http://www.w3.org/1999/xlink" x="0px" y="0px"
	 viewBox="45 -33.8 150 150" style="enable-background:new 45 -33.8 150 150;" xml:space="preserve">
<style type="text/css">
	.st0{enable-background:new    ;}
	.st1{fill:#DC6200;}
</style>
<g class="st0">
	<path class="st1" d="M150.4,86.7l-1.5-1.2l-7,8.4H99.1l1.3,3.7h56.4l1.7-2.9C156,91.8,153.3,89.1,150.4,86.7z"/>
	<path d="M78.8,14.5c5-10.4,9.5-21.6,13.7-33.6c4.7-0.7,7-1.8,7-3.3c0-2.3-4.9-4.6-14.7-6.9c-8.3,33.2-20.1,61-35.7,83.4l3,2.3
		c7-8.4,13.6-18,19.8-28.8v77.6h8.6V22.3c4.1-1.4,6.2-2.7,6.2-4C86.7,16.8,84.1,15.5,78.8,14.5z"/>
	<path d="M183.6,86.5c0-4.5,0.9-12.9,2.7-25l-3.7-1.8c-2.7,18-5.5,27-8.4,27c-0.9,0-2.8-2.1-5.6-6.3c-9.2-14-15-31.2-17.6-51.9h33.9
		l1.8-3.1c-3-3.7-6.2-7.1-9.6-10.2l-7.2,9.6h-19.3c-0.9-7.4-1.5-16.8-1.7-28.2c0-0.7-0.1-1.8-0.1-3.3c0-2.7-0.1-4.4-0.1-5.3
		c7.3-1.4,14.3-2.9,21-4.6c2.7,0.5,4.5,0.7,5.4,0.7c2.1,0,3.1-0.5,3.1-1.5c0-1.9-3.4-5-10.1-9.3c-15.4,7.1-33.5,12.5-54.3,16
		l-5.7-2.9c-2-1-3.1-1.6-3.4-1.7V73c-5,0.9-10.1,1.8-15.5,2.6c2.5,9.1,4.8,13.6,6.7,13.6c1.2,0,2.3-2.1,3.1-6.3
		c13.2-3.6,28.5-8.7,45.9-15.5l-0.7-3.9c-9.6,2.9-19.9,5.5-30.8,7.8V29.2h28.8c2,17,6.2,31.9,12.5,44.8c5,10.1,10.1,17.4,15.3,22
		c4.1,3.6,7.5,5.4,10.3,5.4c3.3,0,5.7-1.7,7.4-5.1C184.9,95,183.6,91.7,183.6,86.5z M113.4,25.5V-6.6c8.4-1,16.1-2.1,22.9-3.3
		l3.6-0.6c0.2,15.7,0.8,27.7,1.8,36H113.4z"/>
</g>
</svg>
