<?xml version="1.0" encoding="utf-8"?>
<!-- Generator: Adobe Illustrator 19.0.0, SVG Export Plug-In . SVG Version: 6.00 Build 0)  -->
<svg version="1.1" id="圖層_1" xmlns="http://www.w3.org/2000/svg" xmlns:xlink="http://www.w3.org/1999/xlink" x="0px" y="0px"
	 viewBox="45 -33.8 150 150" style="enable-background:new 45 -33.8 150 150;" xml:space="preserve">
<style type="text/css">
	.st0{enable-background:new    ;}
	.st1{fill:#DC6200;}
</style>
<g class="st0">
	<path d="M97.2,69.4h71.9l2.2-2.6c-3-2.6-6.3-4.9-9.9-7l-7.2,5.9H95.4L97.2,69.4z"/>
	<path d="M176.7-9.2L169.5,0h-42.8c5.1-4.1,9-7.5,11.6-10.3l4.9-1.5c1.2-0.4,1.8-1,1.8-1.7c0-1.7-3.3-5.1-10-10.2l-5.3,6.2H97.8
		c0.2-0.3,1.2-2,3-5.1c4.4-0.7,6.6-1.6,6.6-2.6c0-1.9-4.5-3.5-13.4-4.8C84.5-9.3,71.5,7.2,54.9,19.3l2.4,2.9
		c6.8-4.1,12.5-8.3,17.1-12.3v26.5c0,9.7-0.5,17.9-1.5,24.6c-2.2,16-8.3,29.8-18.4,41.6l2.6,2.6c9.3-8.1,15.9-17.1,19.8-27.1
		c4.2-10.8,6.3-24.8,6.3-42V3.7H113c0,0,0,0,0,0h9.2c0,0,0,0,0,0h14.4v0h8.1v0h40.1l1.8-2.9C184-2.3,180.7-5.6,176.7-9.2z M120.9,0
		H85.5l-0.7-0.3c3.8-4.1,7.3-8.5,10.5-13.4h34.8C128.1-9.9,125-5.3,120.9,0z"/>
	<path d="M165.1,72.9l-4.9,5.1h-55.7c-2.7-1.4-6.2-2.6-10.4-3.6v30.8h8.4v-6.2h58.9v6.2h8.4V84.6l3.1-2.3c0.9-0.6,1.3-1.2,1.3-1.8
		C174.3,79.5,171.2,76.9,165.1,72.9z M161.4,95.3h-58.9V81.7h58.9V95.3z"/>
	<path d="M171.3,55.3c-3.1-2.6-6.5-5-10-7.2l-6.9,6h-59l1.8,3.7h71.9L171.3,55.3z"/>
	<path class="st1" d="M136.6,15.3c0,3.9,1.2,6.3,3.6,7.2c2.3,0.9,8.2,1.3,17.6,1.3c9.3,0,15.3-0.3,18-0.9c3.5-0.8,5.3-3.1,5.3-7
		c-2.1,0-3.4-0.3-4-1c-0.8-1-1.2-3.4-1.2-7.3l-3.6-1.2L172.2,7c-0.6,4.2-1.4,6.9-2.4,8.1c-1.1,1.1-4.6,1.6-10.6,1.6l-9.3-0.1
		c-3.4,0-5.1-1.2-5.1-3.6V3.7h-8.1V15.3z"/>
	<path class="st1" d="M86.7,27.7l1.8,3.3c19.8-3.9,31-13,33.7-27.3H113C110.8,15.1,102,23.1,86.7,27.7z"/>
	<path d="M166.4,42.5h-82l2.2,3.7h95.6l1.8-2.9c-3.6-3.5-7-6.3-10-8.4L166.4,42.5z"/>
	<path d="M167.8,31.9c-2.2-1.9-5.4-4.1-9.6-6.9l-6.7,6h-53l1.5,3.7h66L167.8,31.9z"/>
</g>
</svg>
