<?xml version="1.0" encoding="utf-8"?>
<!-- Generator: Adobe Illustrator 19.0.0, SVG Export Plug-In . SVG Version: 6.00 Build 0)  -->
<svg version="1.1" id="圖層_1" xmlns="http://www.w3.org/2000/svg" xmlns:xlink="http://www.w3.org/1999/xlink" x="0px" y="0px"
	 viewBox="45 -33.8 150 150" style="enable-background:new 45 -33.8 150 150;" xml:space="preserve">
<style type="text/css">
	.st0{enable-background:new    ;}
	.st1{fill:#DC6200;}
</style>
<g class="st0">
	<path d="M100.8,73.3l2.3,3.1c13.2-5.1,24.6-11.3,34.1-18.6c11.2-8.5,21.4-19.9,30.5-34.1c4.3,0,6.5-0.7,6.5-2.1
		c0-1.8-3.9-4.5-11.6-8.3C148.1,41.1,127.5,61.1,100.8,73.3z"/>
	<path d="M104.3-1.6l1.5,3.7h31.2c-3.2,9.4-7,17.9-11.5,25.5c-4.9-3.5-10.4-6.7-16.6-9.4l-1.9,3.1c10.4,7.1,17,14.4,19.8,21.9
		c1.4,3.5,3,5.3,5,5.3c3.4,0,5.1-1.8,5.1-5.3c0-3.9-2.7-8.2-8.1-12.9c5-5.1,10-11.5,15-19.2c4.3-0.1,6.4-0.9,6.4-2.1
		c0-2-3.6-4.3-10.8-6.9h45.9l1.9-3c-2.6-3.7-5.8-7.4-9.4-11.1l-7.2,10.3H104.3z"/>
	<path d="M171.4-18.3l1.7-2.6c-2.4-3-5.3-6.1-8.9-9.3l-6.4,8.1h-43.1l1.5,3.7H171.4z"/>
	<path d="M158.8,71.1c5.4-5.4,10.8-11.8,16.3-19.3c0.7,0.1,1.6,0.1,2.8,0.1c2.7,0,4.1-0.6,4.1-1.9c0-2.2-3.8-5.2-11.4-8.7
		c-18.2,28.9-42.4,49-72.6,60.6l2.4,3.5c22.5-7.4,40.9-17.8,55.3-31.2c9.5,7.3,16.2,14.6,20.1,22c2,3.6,3.9,5.4,5.7,5.4
		c3.2,0,4.8-1.8,4.8-5.3c0-3.1-1.9-6.6-5.6-10.6C176,80.5,168.7,75.6,158.8,71.1z"/>
	<path d="M104.5-9.8l4.3-1.4c1.3-0.4,2-1,2-1.8c0-1.7-3.1-5.1-9.3-10l-6,6.9h-41l1.7,3.7h39.5C92.1-4.5,87.9,3,82.8,10.4l4.5,0.7
		C92.3,6.2,98-0.8,104.5-9.8z"/>
	<path class="st1" d="M103.2,30.4c-6.7,3.1-12.1,5.1-17,7.1V18.6c4.1-1.7,6.2-3.1,6.2-4.4c0-1.1-1.7-2.1-5.1-3c0,0,0,0,0.1-0.1
		l-4.5-0.7c-0.1,0.1-0.1,0.2-0.2,0.2c-2.4-0.2-4.1-0.3-5.2-0.3v30.3c-8.3,3-16.3,5.5-23.9,7.5C56.4,56.7,58.9,61,61,61
		c1.2,0,2-2.1,2.3-6.3c5.3-2.3,10-4.4,14.1-6.4v38.9c0,3.5-1.6,5.2-4.8,5.2c-4.1,0-9.7-0.4-16.9-1.3v4c5.6,0.8,9.5,1.8,11.8,3
		c2.5,1.2,3.7,3.1,3.7,5.7c5.3-0.3,9.1-1.2,11.2-2.6c2.5-1.6,3.8-5,3.8-10.2V44.1c7.1-3.5,9.6-5.4,19.2-10.8L103.2,30.4z"/>
</g>
</svg>
