<?xml version="1.0" encoding="utf-8"?>
<!-- Generator: Adobe Illustrator 19.0.0, SVG Export Plug-In . SVG Version: 6.00 Build 0)  -->
<svg version="1.1" id="圖層_1" xmlns="http://www.w3.org/2000/svg" xmlns:xlink="http://www.w3.org/1999/xlink" x="0px" y="0px"
	 viewBox="45 -33.8 150 150" style="enable-background:new 45 -33.8 150 150;" xml:space="preserve">
<style type="text/css">
	.st0{enable-background:new    ;}
	.st1{fill:#DC6200;}
</style>
<g class="st0">
	<path d="M177.9,85.6c-0.8-2.4-1.2-8.8-1.2-19.2l-4-1.7c-0.6,7.9-1.7,14.2-3.3,19c-1.2,3.5-3.4,5.5-6.4,6.2
		c-6.8,1.1-20,1.6-39.6,1.6c-22,0-34.5-0.5-37.4-1.5c-1.8-0.6-2.7-2.5-2.7-5.6V53.8h76.4v6.6h8.6V21.1l3.9-2.7
		c0.7-0.4,1.1-0.9,1.1-1.6c0-1.4-3-4.5-9.1-9.4l-5.9,7.2H124c0.1-0.1,0.2-0.2,0.2-0.2h-5.8c-0.1,0.1-0.1,0.2-0.2,0.2H84.9
		c-2.4-1.4-4.1-2.2-5-2.7l-5.5,5.6v68.3c0,6.1,1.8,9.9,5.3,11.4c3.8,1.4,19.8,2.1,48.3,2.1c25.7,0,41.6-0.6,47.8-1.7
		c4.9-1,7.5-4.1,7.6-9.2C180.5,88.3,178.7,87.4,177.9,85.6z M125.3,18.2h34.4v31.9h-34.4V18.2z M83.2,18.2h33.6v31.9H83.2V18.2z"/>
	<path class="st1" d="M79.8,11.8c5.8-6.5,11-13.7,15.7-21.6h37.6c-3.7,8-8.6,16-14.7,24.1h5.8c6.1-6.1,12.2-13.1,18.2-20.8l4.3-1.5
		c1.5-0.5,2.2-1.1,2.2-2c0-1.5-3.2-5-9.7-10.6l-6.4,7H97.8c0.5-1,1.7-3.3,3.7-6.9c4.7-0.4,7-1.3,7-2.7c0-2.1-4.7-4.2-14.1-6.4
		C85.1-5.2,71.6,14.3,54,29.1l2.6,3c6.5-4.6,12.5-9.5,17.9-14.7v0.1l5.5-5.6C79.9,11.8,79.8,11.8,79.8,11.8z"/>
</g>
</svg>
