<?xml version="1.0" encoding="utf-8"?>
<!-- Generator: Adobe Illustrator 19.0.0, SVG Export Plug-In . SVG Version: 6.00 Build 0)  -->
<svg version="1.1" id="圖層_1" xmlns="http://www.w3.org/2000/svg" xmlns:xlink="http://www.w3.org/1999/xlink" x="0px" y="0px"
	 viewBox="45 -33.8 150 150" style="enable-background:new 45 -33.8 150 150;" xml:space="preserve">
<style type="text/css">
	.st0{enable-background:new    ;}
	.st1{fill:#DC6200;}
</style>
<g class="st0">
	<path d="M128.6,60l-2.9,2.2c9.9,19.5,27.6,32.9,53.1,40.4c1.6-3.9,3.7-7.1,6.3-9.4C160.7,89,141.9,77.9,128.6,60z"/>
	<path d="M75.3,35.6c0.1-2.7,0.1-5.2,0.1-7.6V-4.1h105.8l1.8-2.9c-3.2-4.1-6.6-7.6-10.4-10.8l-7.2,9.9h-40.6v-13.6
		c4.2-1.5,6.3-2.9,6.3-4.1c0-2.3-5-3.6-15-3.7v21.5H77c-3.9-1.7-7.3-3.1-10.4-4.3v40.1c0,33.4-5.3,58.7-15.9,75.9l3.1,2.3
		c13.1-15.5,20.2-37.7,21.5-66.7h0L75.3,35.6L75.3,35.6z"/>
	<path class="st1" d="M127.2,61.1h30.2v8h8.3V39.4h19.6l1.7-2.7c-2.8-3.7-5.8-7.1-8.9-10.2l-6.6,9.2h-5.9V21.3l3.4-2.4
		c0.8-0.6,1.2-1.2,1.2-1.6c0-1.4-2.9-4.3-8.7-8.6l-5.5,6.4H128v-10c3.9-1.5,5.9-2.8,5.9-4c0-2-4.8-3.1-14.4-3.4v17.4H84.8l1.5,3.7
		h33.1v16.8h-44l-0.1,3.7h44.1v9.9c0,2.7-0.2,5.4-0.6,8.1H82.4l1.8,3.7h33.9c-5,20-21.3,33.9-49.1,41.7l1.9,3.6
		c32.1-6.2,50.6-20.6,55.6-43.1C126.8,62.2,127.2,61.1,127.2,61.1z M128,18.9h29.4v16.8H128V18.9z M128,49.7V39.4h29.4v18h-29.8
		C127.8,54.6,128,52,128,49.7z"/>
</g>
</svg>
