<?xml version="1.0" encoding="utf-8"?>
<!-- Generator: Adobe Illustrator 19.0.0, SVG Export Plug-In . SVG Version: 6.00 Build 0)  -->
<svg version="1.1" id="圖層_1" xmlns="http://www.w3.org/2000/svg" xmlns:xlink="http://www.w3.org/1999/xlink" x="0px" y="0px"
	 viewBox="45 -33.8 150 150" style="enable-background:new 45 -33.8 150 150;" xml:space="preserve">
<style type="text/css">
	.st0{enable-background:new    ;}
	.st1{fill:#DC6200;}
</style>
<g class="st0">
	<path class="st1" d="M124.1,28.6v-44.8c4.4-1.7,6.6-3.1,6.6-4.5c0-2.3-5.1-3.7-15.2-4v53.2H88.1v-44.5c4.2-1.7,6.3-3.2,6.3-4.5
		c0-2.4-5.2-3.7-15.5-3.9v53H53.7l2,3.7h23.2v2.3c-0.1,10.5-1.1,20-2.9,28.5c-3.1,15.1-9.9,27.9-20.2,38.4l2.7,2.9
		c12.5-9.7,20.8-21.4,25-35.2c2.7-8.8,4.2-21.1,4.5-36.8h27.5v68.8h8.6V32.3h15.7l0-3.7H124.1z"/>
	<path d="M177.2,18.1l-7.1,10.5H162v-46.8c4.2-1.5,6.3-3,6.3-4.3c0-2.6-5.1-4-15.2-4.1v55.2h-13.4l0,3.7h13.8v70.7h8.9V32.3h22.6
		l1.5-2.6C183.9,25.7,180.8,21.9,177.2,18.1z"/>
</g>
</svg>
