<?xml version="1.0" encoding="utf-8"?>
<!-- Generator: Adobe Illustrator 19.0.0, SVG Export Plug-In . SVG Version: 6.00 Build 0)  -->
<svg version="1.1" id="圖層_1" xmlns="http://www.w3.org/2000/svg" xmlns:xlink="http://www.w3.org/1999/xlink" x="0px" y="0px"
	 viewBox="45 -33.8 150 150" style="enable-background:new 45 -33.8 150 150;" xml:space="preserve">
<style type="text/css">
	.st0{enable-background:new    ;}
	.st1{fill:#DC6200;}
</style>
<g class="st0">
	<path class="st1" d="M143.8,51.2c11.9-9.2,21.2-17.7,27.9-25.3c2.1,0.2,3.3,0.3,3.5,0.3c2.7,0,4-0.6,4-1.8c0-2.2-4.2-5.8-12.6-10.8
		c-6.5,11.8-14.9,23.2-25.2,34.1c-8.3-13.2-14.3-28.7-17.2-43.9L120,4.4c4.7,37.9,24.4,70.3,58.5,94.4c2.9-4.1,5.8-7.1,8.6-9
		C169.2,79.2,154.7,66.4,143.8,51.2z"/>
	<path d="M185.4,1.7c-3-3.7-6.7-7.5-11.3-11.5l-8.1,10.6h-42.3v-20.2c4.8-1.5,7.2-3,7.2-4.4c0-2.3-5.3-3.6-16-3.7V0.9H54.6l1.9,3.7
		h53.2c-11.6,22.6-31,41.1-58,55.5l2.1,3.3c13.1-5.7,25.3-13.1,36.6-22.2v0.3l8.9-8.2v0l1.2-1.3c8.5-8.6,15.1-17.3,19.8-26.2l-0.1,0
		l0.1,0c0,0,0.5-1.1,0.5-1.1c0,0,62.9,0,62.9,0L185.4,1.7z"/>
	<path class="st1" d="M90.4,85.2C83.8,86.6,75,88,64,89.5c2.8,9.6,5.4,14.4,7.6,14.4c1.4,0,2.4-2.1,3.1-6.4
		c21.4-5,43.5-11.9,66.2-20.6l-1.1-4c-13.3,4.2-26.8,7.6-40.6,10.5V33.3l-8.9,8.2V85.2z"/>
</g>
</svg>
