<?xml version="1.0" encoding="utf-8"?>
<!-- Generator: Adobe Illustrator 19.0.0, SVG Export Plug-In . SVG Version: 6.00 Build 0)  -->
<svg version="1.1" id="圖層_1" xmlns="http://www.w3.org/2000/svg" xmlns:xlink="http://www.w3.org/1999/xlink" x="0px" y="0px"
	 viewBox="45 -33.8 150 150" style="enable-background:new 45 -33.8 150 150;" xml:space="preserve">
<style type="text/css">
	.st0{enable-background:new    ;}
	.st1{fill:#DC6200;}
</style>
<g class="st0">
	<path d="M175.4,78.4l-8.3,10.3H81V56.2h0v-3.7h0V21.1h0v-3.7h0v-27.5h98.7l1.8-2.9c-3.2-3.8-6.8-7.5-10.8-11.1l-8,10.2H56.7
		l1.3,3.7h13.5v98.9H56.9l1.3,3.7h126.2l2-3C183.5,86.1,179.8,82.4,175.4,78.4z"/>
	<path class="st1" d="M155.7,21.1v31.4H81.1v3.7h74.7v7.9h9V24.2l3.6-2.6c0.9-0.6,1.4-1.2,1.4-1.8c0-1.5-3.2-4.7-9.5-9.6l-5.9,7
		H81.1v3.7H155.7z"/>
</g>
</svg>
