<?xml version="1.0" encoding="utf-8"?>
<!-- Generator: Adobe Illustrator 19.0.0, SVG Export Plug-In . SVG Version: 6.00 Build 0)  -->
<svg version="1.1" id="圖層_1" xmlns="http://www.w3.org/2000/svg" xmlns:xlink="http://www.w3.org/1999/xlink" x="0px" y="0px"
	 viewBox="45 -33.8 150 150" style="enable-background:new 45 -33.8 150 150;" xml:space="preserve">
<style type="text/css">
	.st0{enable-background:new    ;}
	.st1{fill:#DC6200;}
</style>
<g class="st0">
	<path d="M124.8-7.8c18.6-2.7,30.8-4.6,36.8-5.7c2.2,0.4,4.1,0.6,5.7,0.6c2.4,0,3.6-0.5,3.6-1.5c0-2-4-4.8-12-8.6
		c-22.3,7.2-55.1,13-98.4,17.4l1.5,4.1c20.8-1.6,38.6-3.3,53.7-5.1v44.5h9.2V-7.8z"/>
	<path class="st1" d="M174.6,35.2l-8.9,11.1h-40.9v-8.4h-9.2v8.4H55l1.3,3.7h59.3v37.1c0,3.1-1.9,4.6-5.6,4.6
		c-7.4,0-16.4-0.6-27-1.9v4c8.5,1.3,14.6,2.5,18.3,3.7c3.9,1.5,6,3.9,6.2,7.2c3.3,0,6.5-0.4,9.7-1.2c5-1.5,7.5-5.8,7.5-12.7V50.1
		h58.8l1.9-3.3C182.2,42.8,178.5,38.9,174.6,35.2z"/>
	<path d="M142-0.5L139.4,2c10.2,8.7,17,18.4,20.4,28.9c1.4,4,3,6,5,6c4,0,5.9-2,5.9-6c0-3.7-1.7-7.7-5.1-12
		C160.7,12.6,152.9,6.2,142-0.5z"/>
	<path d="M95.1,9.8C99,9,101,8.1,101,6.9c0-1.8-4.6-3.9-13.7-6.2C83.7,12.4,75.9,25.1,63.8,39l3,2C78.9,31.1,88.4,20.7,95.1,9.8z"/>
</g>
</svg>
