<?xml version="1.0" encoding="utf-8"?>
<!-- Generator: Adobe Illustrator 19.0.0, SVG Export Plug-In . SVG Version: 6.00 Build 0)  -->
<svg version="1.1" id="圖層_1" xmlns="http://www.w3.org/2000/svg" xmlns:xlink="http://www.w3.org/1999/xlink" x="0px" y="0px"
	 viewBox="45 -33.8 150 150" style="enable-background:new 45 -33.8 150 150;" xml:space="preserve">
<style type="text/css">
	.st0{enable-background:new    ;}
	.st1{fill:#DC6200;}
</style>
<g class="st0">
	<path d="M168.3,47.8l1.8-3c-3.1-3.4-6.9-6.8-11.3-10.2l-8.3,9.4H69.8l1.5,3.7H168.3z"/>
	<path class="st1" d="M80.7-0.7C87.3,6.8,91.4,14.7,93,23c0.7,3.3,2.3,5,4.6,5c3.7,0,5.6-2.1,5.6-6.2c0-6.9-5.9-14.4-17.7-22.5h32.7
		l1.8-2.7c-2.2-3.4-5.1-6.8-8.4-10.2l-7,9.2H80.2c1.7-4,3.1-8.4,4.3-13.2c4.5-1.1,6.7-2.3,6.7-3.6c0-2.3-5-4.2-15.1-5.6
		C72.9-4.6,63.9,15,49.3,32.2l2.7,2.2c11-9.4,19.8-21.1,26.4-35.1H80.7z"/>
	<path class="st1" d="M176-13.7l-7.1,9.3h-33.8c1.7-4.1,3.1-8.6,4.2-13.8c4.4-1.1,6.6-2.3,6.6-3.7c0-2.1-4.9-4-14.7-5.5
		c-3,22-10.8,41.1-23.4,57.3l3,2.3c9.6-9.2,17.2-20.1,22.8-32.9h4.3c7.9,8,12.7,15.8,14.6,23.4c0.9,3.7,2.6,5.6,5.2,5.6
		c3.6,0,5.4-1.9,5.4-5.7c0-7.2-6.6-15-19.8-23.2H184l1.7-2.7C182.3-7.6,179.1-11.1,176-13.7z"/>
	<path d="M171.4,79.5L162.3,90H56.6l1.5,3.7h123.3l1.7-2.9C179.5,87,175.6,83.2,171.4,79.5z"/>
</g>
</svg>
