<?xml version="1.0" encoding="utf-8"?>
<!-- Generator: Adobe Illustrator 19.0.0, SVG Export Plug-In . SVG Version: 6.00 Build 0)  -->
<svg version="1.1" id="圖層_1" xmlns="http://www.w3.org/2000/svg" xmlns:xlink="http://www.w3.org/1999/xlink" x="0px" y="0px"
	 viewBox="45 -33.8 150 150" style="enable-background:new 45 -33.8 150 150;" xml:space="preserve">
<style type="text/css">
	.st0{enable-background:new    ;}
	.st1{fill:#DC6200;}
</style>
<g class="st0">
	<path d="M98.8,81c-11.5,9.1-27,16.2-46.4,21.1l2.1,3.4c19.3-3.5,35.2-8.6,47.8-15.2c1,0.1,2.3,0.1,4,0.1c2.8,0,4.2-0.6,4.2-1.7
		C110.6,87,106.6,84.5,98.8,81z"/>
	<polygon points="51.3,-5.7 53,-2 78.4,-2 79.1,-5.7 	"/>
	<path class="st1" d="M161.5-5.7c0.1-1.5,0.5-4.6,1.1-9.3l3.4-2.1c0.8-0.5,1.2-1,1.2-1.6c0-1.5-2.9-4.4-8.6-8.7l-5.2,6.2h-63
		c-1.8-1.1-4.7-2.6-8.6-4.5c-0.8,7.2-1.7,13.9-2.7,20.1h-0.1L78.4-2h0.2c-0.8,5-2.2,11.6-4.2,19.9l8.3,1.7c0.3-1.2,0.7-3.1,1.2-5.6
		h66.1l-1.1,5.7l8.6,0.6C159,12,160.2,4.6,160.9-2h0.1L161.5-5.7L161.5-5.7z M152.8-5.7h-0.1L152.1-2h0.3c-0.7,5.2-1.4,9.3-1.9,12.3
		h-29.7c0,0,0,0,0-0.1h-8.6c0,0,0,0,0,0.1H84.6C85.1,7.9,85.9,3.8,87-2h0.1l0.7-3.7h-0.1c0.9-5.5,1.5-9.5,1.8-11.9h27.2c0,0,0,0,0,0
		h8.4c0,0,0,0,0,0h29.1C154-15.8,153.5-11.9,152.8-5.7z"/>
	<path d="M189.9-4.9c-3.3-4.1-6.4-7.4-9.4-10.2l-6.9,9.3h-12L161-2h27.1L189.9-4.9z"/>
	<path d="M125-17.6h-8.4c-0.3,4.2-0.9,8.1-1.5,11.9H87.8L87.1-2h27.4c-0.8,5.3-1.5,9.4-2.3,12.2h8.6c0.5-2.8,1.2-6.9,2.1-12.2h29.2
		l0.6-3.7h-29.2C124-9.5,124.5-13.4,125-17.6z"/>
	<path d="M130.6,81.7l-1.9,3.1c20.9,5.4,35.6,10.9,44.2,16.6c2.9,2,4.8,3,5.9,3c3,0,4.5-1.7,4.5-5C183.3,92,165.7,86.1,130.6,81.7z"
		/>
	<path d="M164.1,80.7V32.1l3.3-2.1c0.8-0.5,1.2-1,1.2-1.6c0-1.3-3-4-8.9-8.1l-4.9,5.4h-70c-4.2-1.8-7.7-3.2-10.4-4.2v61.5h8.6v-6.3
		h72.7v4.1H164.1z M82.9,29.3h72.7v11.3H82.9V29.3z M82.9,44.4h72.7v12H82.9V44.4z M82.9,72.9V60.1h72.7v12.7H82.9z"/>
</g>
</svg>
