<?xml version="1.0" encoding="utf-8"?>
<!-- Generator: Adobe Illustrator 19.0.0, SVG Export Plug-In . SVG Version: 6.00 Build 0)  -->
<svg version="1.1" id="圖層_1" xmlns="http://www.w3.org/2000/svg" xmlns:xlink="http://www.w3.org/1999/xlink" x="0px" y="0px"
	 viewBox="45 -33.8 150 150" style="enable-background:new 45 -33.8 150 150;" xml:space="preserve">
<style type="text/css">
	.st0{enable-background:new    ;}
	.st1{fill:#DC6200;}
</style>
<g class="st0">
	<path class="st1" d="M175.9-24.5l-7.2,9.3h-28.6v-7.5c4-1.4,6-2.6,6-3.8c0-2.1-4.8-3.1-14.4-3.3v27.9h8.4v-9.6h44.4l1.5-2.7
		C183-17.7,179.6-21.2,175.9-24.5z"/>
	<path d="M134.8,24.9h28.3v4h8.1V8.5l3.3-2.1c0.6-0.4,0.9-0.9,0.9-1.3c0-1-2.8-3.7-8.4-8.1l-4.8,5.7h-26.6c-2.9-1.3-5.9-2.4-9-3.4
		v28.5h8.1V24.9z M134.8,6.4h28.3v14.7h-28.3V6.4z"/>
	<path class="st1" d="M98.5-11.4v9.6h8.6v-20.5c4.2-1.4,6.3-2.7,6.3-4.1c0-2.1-5-3.3-14.9-3.4v14.7H54.4l1.5,3.7H98.5z"/>
	<path d="M172.8,83.7l-7.8,8.7h-38.1V78.7h43.4l1.5-2.7c-2.4-3-5.5-6.1-9.3-9.4l-7,8.4h-28.5V62.2H170l1.6-2.7
		c-2.4-2.7-5.5-5.6-9.3-8.6l-6.9,7.5h-28.5V46.4h50.8l1.7-2.7c-2.6-3.1-5.7-6.3-9.4-9.4l-7,8.4h-38.5c3-3,5.2-5.6,6.4-7.6
		c3.4-0.5,5.1-1.2,5.1-2.1c0-1.8-4.3-3.8-13-6c-0.4,4.4-1.6,9.6-3.5,15.7H85.4c1.8-2.6,3.2-5,4.5-7.3c4.4-0.5,6.6-1.3,6.6-2.6
		c0-1.8-4.1-4.1-12.3-6.7c-7,17.3-17.6,32.1-31.8,44.3l2.9,2.8c6.9-4.7,13.5-10.5,19.8-17.2v49.1h8.7v-8.9h97.8l1.8-2.9
		C180.3,90.2,176.8,87,172.8,83.7z M118.3,92.4H83.7V78.7h34.6V92.4z M118.3,75H83.7V62.2h34.6V75z M118.3,58.5H83.7V46.4h34.6V58.5
		z"/>
	<path d="M104.1,2.7H78.8c-2.7-1.2-6-2.4-9.9-3.6v31h8.3v-5.2h27.3v3.9h8.1V8.8l3-1.8c0.9-0.4,1.3-1,1.3-1.8c0-1.3-2.7-3.5-8.2-6.7
		L104.1,2.7z M104.5,21.1H77.2V6.4h27.3V21.1z"/>
</g>
</svg>
