<?xml version="1.0" encoding="utf-8"?>
<!-- Generator: Adobe Illustrator 19.0.0, SVG Export Plug-In . SVG Version: 6.00 Build 0)  -->
<svg version="1.1" id="圖層_1" xmlns="http://www.w3.org/2000/svg" xmlns:xlink="http://www.w3.org/1999/xlink" x="0px" y="0px"
	 viewBox="45 -33.8 150 150" style="enable-background:new 45 -33.8 150 150;" xml:space="preserve">
<style type="text/css">
	.st0{enable-background:new    ;}
	.st1{fill:#DC6200;}
</style>
<g class="st0">
	<path class="st1" d="M91.1,43.8h53.5V40H91.1V14.3h53.5v-3.7H91.1v-23.1h53.5v0h9.4v0h27.5l1.5-3.1c-4.6-5.3-8.4-9.1-11.4-11.6
		l-8.6,11H56.6l1.5,3.7h23.7v85.4l9.3-0.9V43.8z"/>
	<path d="M182.9,59.7c-8.8,1.4-13.8,2.2-15.2,2.4L154.1,64v-76.4h-9.4v23h0v3.7h0V40h0v3.7h0v21.8l-4.2,0.6
		c-8.7,1.3-22.4,3-41.2,5.1l-8.1,1V72l-9.3,0.9V73l-12.7,1.2c-7.5,0.7-12.3,1.1-14.3,1.2c2.1,10,4.3,14.9,6.6,14.9
		c1.3,0,2.4-2.1,3.4-6.3c27.6-3.8,52.2-7.7,74-11.6l5.9-1.1v33.9h9.4V69.7l14.4-2.9c1.9-0.3,6.9-1.3,15.2-3L182.9,59.7z"/>
</g>
</svg>
