<?xml version="1.0" encoding="utf-8"?>
<!-- Generator: Adobe Illustrator 19.0.0, SVG Export Plug-In . SVG Version: 6.00 Build 0)  -->
<svg version="1.1" id="圖層_1" xmlns="http://www.w3.org/2000/svg" xmlns:xlink="http://www.w3.org/1999/xlink" x="0px" y="0px"
	 viewBox="45 -33.8 150 150" style="enable-background:new 45 -33.8 150 150;" xml:space="preserve">
<style type="text/css">
	.st0{enable-background:new    ;}
	.st1{fill:#DC6200;}
</style>
<g class="st0">
	<path d="M146.1,69.1l-1.5,2.7c4.1,2.9,6.9,5.8,8.2,8.6c0.8,2,1.9,3,3.4,3c2.7,0,4-1.5,4-4.5C160.2,75.1,155.5,71.8,146.1,69.1z"/>
	<path d="M145.8,52.9l-1.3,3c4.2,2.6,7,5.4,8.3,8.5c0.7,1.9,1.9,2.9,3.4,2.9c2.7,0,4-1.4,4-4.3C160.2,58.8,155.4,55.5,145.8,52.9z"
		/>
	<path d="M115.2,53.2l-1,2.9c4.2,2,7.1,4.4,8.7,7.5c1,2.1,2.2,3.1,3.6,3.1c2.5,0,3.7-1.5,3.7-4.5C130.2,58,125.2,55,115.2,53.2z"/>
	<path d="M112.8,6.7c-3.2-1.5-6.5-2.7-9.7-3.6v39h8v-3H171v3h8V13.6l3.9-2.1c0.8-0.4,1.2-0.9,1.2-1.3c0-1.3-2.9-3.9-8.6-7.8
		l-4.4,4.3H112.8z M171,35.4h-59.9V10.5H171V35.4z"/>
	<path d="M115.2,69.1l-1.3,2.7c4.2,2.5,7.3,5.4,9.3,8.6c0.7,1.5,1.8,2.3,3.3,2.3c2.4,0,3.6-1.3,3.6-4
		C130,74.3,125.1,71.1,115.2,69.1z"/>
	<path d="M115.8,30.7l1.2,2.9c10.8-2.2,19.7-5.1,26.8-8.6c3.8,1.5,7.5,3.2,11,5.2c2.2,1.5,3.9,2.3,4.8,2.3c2,0,3-1,3-2.9
		c0-2.7-4.1-5.4-12.3-8.1c2.3-1.1,4.9-2.6,7.8-4.4c3.3-0.1,5-0.6,5-1.3c0-1.3-3-2.8-8.9-4.5c-3.5,3.2-7.2,5.9-11.1,8
		c-6-1.5-13.2-3-21.8-4.5l-1.2,2.6c4.8,1,10.6,2.7,17.2,5l-0.9,0.4C129.7,26,122.9,28.6,115.8,30.7z"/>
	<path class="st1" d="M186.6,93.6c0-2.9,0.6-9.1,1.8-18.8l-3.7-2.3l-0.4,2.1c-1.6,12-3.2,17.9-4.9,17.9c-0.9,0-2-1.7-3.3-5
		c-3.4-8-5.1-19.5-5.1-34.7c3.6-1.1,5.4-2.2,5.4-3.3c0-2-4.5-3.3-13.5-4c0,16.4,0.9,28.3,2.8,35.7c2.3,9.3,6,16.2,11,20.9
		c2.5,2.4,5,3.6,7.3,3.6c3,0,5-1.9,5.9-5.7C187.7,99.1,186.6,96.9,186.6,93.6z"/>
	<path d="M92.8-16.2c3.9-0.1,5.9-0.9,5.9-2.1c0-1.8-3.7-4.5-11.2-8.1c-4.2,8.7-8.6,16.4-13.1,23l-0.6,0.9l-0.4-0.9
		c-3.1-6.1-8-13.8-14.6-23L55.3-24c5.2,8.5,10,17.5,14.4,26.9c-5.7,7.3-11.8,13.6-18.5,18.8l2.4,3c6-3.9,12.2-9,18.8-15.2
		c2.5,6.5,4.4,12,5.6,16.5c-5.2,14.4-13.8,27.9-25.9,40.5l2.6,2.7C65.6,60,74.3,49.7,80.7,38.1c1.2,7.7,1.8,14.5,1.8,20.6
		c0,13.8-1.5,24-4.5,30.5c-1.3,3.1-4.3,4.6-9.1,4.6c-4.1,0-9-0.5-14.9-1.4v4.1c9.4,1.5,14.2,4.2,14.4,8.3c7.3,0,12.6-2.6,16-7.9
		c4.1-6.8,6.2-19,6.2-36.5c0-18.5-4.4-37.2-13.3-56.1C82.6-1.7,87.8-8.5,92.8-16.2z"/>
	<path d="M128.8,87c-4.9,1.5-10.1,2.9-15.6,4.2l-2.1,0.6V52.6c3.2-1.1,4.8-2.1,4.8-3.1c0-1.8-4.3-2.9-12.8-3.3v47.2
		c-7,1.2-10.8,1.8-11.3,1.9c2,7,3.8,10.5,5.6,10.5c1,0,1.8-1.6,2.4-4.8c10-2.8,20-6.4,29.9-10.6L128.8,87z"/>
	<path d="M142.2,92.5V52.3c3.4-1.1,5.1-2.1,5.1-3.1c0-1.9-4.4-3-13.1-3.5v48.5c-1.2,0.2-2.7,0.4-4.4,0.7c-2.4,0.4-3.9,0.6-4.5,0.7
		c1.8,6.9,3.6,10.4,5.4,10.4c1.1,0,1.9-1.6,2.4-4.8c10.6-2.9,20.7-6.6,30.2-10.9l-1-3.4C155.2,89.2,148.5,91.1,142.2,92.5z"/>
	<path d="M114.9,0.3c1.4,2.7,2.9,4,4.7,4c2.5,0,3.7-1.4,3.7-4.3c0-5.3-5.1-9.9-15.3-13.8c4.6-2.7,8.2-5.3,10.8-7.9
		c3.6,0,5.4-0.5,5.4-1.5c0-1.6-3.2-3.8-9.6-6.6c-3.4,6.4-7.5,12-12.3,16.7C108.1-9.3,112.3-4.9,114.9,0.3z"/>
	<path d="M164.5-0.5c1.3,2.5,2.8,3.7,4.5,3.7c2.7,0,4-1.6,4-4.7c0-4.5-5-8.7-15-12.5c4.9-2.6,8.9-5.2,12-7.6c3.5,0,5.3-0.5,5.3-1.5
		c0-1.2-3.3-3.4-9.8-6.6c-3,5.6-6.9,10.6-11.8,15l-1.4,1.2C157.8-9.6,161.9-5.3,164.5-0.5z"/>
	<path d="M139.9,0.6c1.1,2.3,2.5,3.4,4.2,3.4c2.7,0,4-1.4,4-4.2c0-5.1-5.2-9.5-15.7-13.3c4.2-2.5,8-5.3,11.4-8.3
		c3.5,0,5.3-0.6,5.3-1.7c0-1.4-3.1-3.6-9.4-6.4c-3.1,6.1-6.9,11.3-11.4,15.6l-1.2,1.1C133.2-8.9,137.5-4.3,139.9,0.6z"/>
</g>
</svg>
