<?xml version="1.0" encoding="utf-8"?>
<!-- Generator: Adobe Illustrator 19.0.0, SVG Export Plug-In . SVG Version: 6.00 Build 0)  -->
<svg version="1.1" id="圖層_1" xmlns="http://www.w3.org/2000/svg" xmlns:xlink="http://www.w3.org/1999/xlink" x="0px" y="0px"
	 viewBox="45 -33.8 150 150" style="enable-background:new 45 -33.8 150 150;" xml:space="preserve">
<style type="text/css">
	.st0{enable-background:new    ;}
	.st1{fill:#DC6200;}
</style>
<g class="st0">
	<path d="M179.5-12.5l1.9-3c-4.1-4.5-7.8-8.2-11.4-11.2l-8.3,10.5H58.8l1.4,3.7H179.5z"/>
	<path class="st1" d="M85.4,63.4c6.5,7.3,10.5,14.9,11.9,23c0.4,3,2.1,4.5,5.1,4.5c3.7,0,5.6-2.1,5.6-6.2c0-8.1-6.8-16.1-20.4-24
		L85.4,63.4z"/>
	<path d="M162.3,57.1V17.2l3.4-2.6c0.9-0.7,1.4-1.4,1.4-2.1c0-1.4-3.1-4.5-9.4-9.3l-5.6,7.2H87.2c-4.1-2-7.7-3.6-10.8-5v52.7h8.9
		v-7.6h68.2v6.6H162.3z M85.2,46.8V14.2h68.2v32.6H85.2z"/>
	<path class="st1" d="M173.8,83l-8.6,10.8h-30.9c6.5-8.5,11.7-16.7,15.6-24.6c4.3-0.1,6.4-1,6.4-2.4c0-2.2-4.7-4.9-14.2-8.1
		c-3.5,13.2-7.8,24.9-13,35.1h-74l1.5,3.7h126l1.8-3C181.5,90.8,178,86.9,173.8,83z"/>
</g>
</svg>
