<?xml version="1.0" encoding="utf-8"?>
<!-- Generator: Adobe Illustrator 19.0.0, SVG Export Plug-In . SVG Version: 6.00 Build 0)  -->
<svg version="1.1" id="圖層_1" xmlns="http://www.w3.org/2000/svg" xmlns:xlink="http://www.w3.org/1999/xlink" x="0px" y="0px"
	 viewBox="45 -33.8 150 150" style="enable-background:new 45 -33.8 150 150;" xml:space="preserve">
<style type="text/css">
	.st0{enable-background:new    ;}
	.st1{fill:#DC6200;}
</style>
<g class="st0">
	<path d="M93.6,54.7c2.1,3.2,3.9,4.8,5.6,4.8c3.3,0,5-1.7,5-5c0-2.5-1.7-4.9-5.1-7.1c-3.8-2.4-8.9-4.3-15.5-5.6l-1.6,3
		C87.3,47.8,91.2,51.1,93.6,54.7z"/>
	<path d="M99.1,80.8c3.3,0,5-1.7,5-5c0-2.5-1.7-4.9-5.1-7.1c-3.8-2.4-8.9-4.3-15.5-5.6l-1.6,3c5.4,3,9.3,6.3,11.6,9.9
		C95.6,79.2,97.5,80.8,99.1,80.8z"/>
	<path d="M143.4,13.2c-2.8-2.8-6.2-5.7-10-8.6l-6.6,7.6H96.1l1.8,3.7h43.8L143.4,13.2z"/>
	<path d="M113,25.5l-5.1,5.9H79.4c-2.2-1.2-5.4-2.4-9.6-3.7v77.1h8.6V35.1H109v55.1c0,2.7-1.2,4-3.7,4c-4.1,0-8.5-0.2-13.2-0.7v3.7
		c8.9,1.3,13.5,3.8,13.6,7.3c7.8-0.1,11.7-3.4,11.7-9.7v-57l3.3-2.3c0.8-0.5,1.2-1.1,1.2-1.8C121.9,32.5,118.9,29.8,113,25.5z"/>
	<path d="M154.1,1.3c-12.1-7.1-22.3-14.9-30.7-23.4c4.3-0.8,6.4-1.8,6.4-3c0-1.8-4.3-3.5-13-5.1c-17.1,25-38.6,44.3-64.5,57.8
		l2.1,3.4c11.8-5.1,22.4-11,31.9-17.7c12.2-8.5,23.6-19.3,34.3-32.3c15.7,18.8,36.1,33.6,61,44.4c2.1-3.8,4.4-6.7,7-8.7
		C176.6,12.8,165.1,7.7,154.1,1.3z"/>
	<path class="st1" d="M150.9,60.8c7.3-8,13.5-16.2,18.5-24.8c4.5-0.1,6.7-0.9,6.7-2.2c0-2-4-4.8-12-8.6c-5.3,13.3-11.4,25.3-18.5,36
		c11.8,12.8,19.4,24.9,22.9,36.2c0.9,3,2.4,4.5,4.5,4.5c3.7,0,5.6-2,5.6-6c0-4-2.3-9.1-7-15.3C166.1,73.7,159.3,67.1,150.9,60.8z"/>
	<path d="M130,62.5c-0.5-0.5-1.1-1-2-1.7c6.7-9,12.2-17.5,16.4-25.5c3.8,0,5.7-0.7,5.7-2c0-1.8-4.1-4.6-12.2-8.3
		c-4.1,12.9-9,24.8-14.9,35.7c10.1,12.8,16.5,24.5,19,35c1,4.6,2.8,6.9,5.3,6.9c3.4,0,5.1-2,5.1-5.9c0-2.8-1.1-6.3-3.1-10.3
		C145.3,78,138.8,70,130,62.5z"/>
</g>
</svg>
