<?xml version="1.0" encoding="utf-8"?>
<!-- Generator: Adobe Illustrator 19.0.0, SVG Export Plug-In . SVG Version: 6.00 Build 0)  -->
<svg version="1.1" id="圖層_1" xmlns="http://www.w3.org/2000/svg" xmlns:xlink="http://www.w3.org/1999/xlink" x="0px" y="0px"
	 viewBox="45 -33.8 150 150" style="enable-background:new 45 -33.8 150 150;" xml:space="preserve">
<style type="text/css">
	.st0{enable-background:new    ;}
	.st1{fill:#DC6200;}
</style>
<g class="st0">
	<path d="M148.6,20.6l-2.7,2.9c12.3,13.6,20.8,28,25.4,43.1c0.9,3.1,2.4,4.6,4.6,4.6c3.7,0,5.6-2.1,5.6-6.3c0-3.2-1.3-7.2-3.9-12
		C171.2,41.8,161.5,31,148.6,20.6z"/>
	<path class="st1" d="M103.4,12.1c0,16.8-1.7,31.1-5.1,42.8c-5.6,19.1-16.9,34.3-34,45.4l2.3,3.3c17.8-9,30.1-21.4,36.8-37
		c6-13.8,9-32,9-54.5V5.7h-9V12.1z"/>
	<path d="M172.4-8.6l-8.3,10.5h-39.6v-21.5c4.6-1.5,6.9-2.9,6.9-4.2c0-2.1-5.2-3.3-15.7-3.6V1.9h-59l1.2,3.7h45.6v0.1h9V5.6h18.2
		v77.9c0,3.3-1.7,4.9-5.1,4.9c-6.3,0-13.4-0.3-21.4-1v3.9c7.3,1.1,12.1,2.1,14.5,3c3.1,1.2,4.7,3.4,4.8,6.7
		c10.6,0,15.9-4.3,15.9-12.8V5.6h42.5l1.8-3C180.4-1.1,176.7-4.9,172.4-8.6z"/>
</g>
<path d="M82.4,20.1l-3.9-0.5c-3.9,17.9-10.7,33.2-20.3,45.7c-2,2.5-2.4,4.6-1.1,6.4c2.2,3,4.9,3.3,8.4,0.9c2.6-1.9,5.1-5.3,7.5-10.1
	C78.3,50.8,81.4,36.7,82.4,20.1z"/>
</svg>
