<?xml version="1.0" encoding="utf-8"?>
<!-- Generator: Adobe Illustrator 19.0.0, SVG Export Plug-In . SVG Version: 6.00 Build 0)  -->
<svg version="1.1" id="圖層_1" xmlns="http://www.w3.org/2000/svg" xmlns:xlink="http://www.w3.org/1999/xlink" x="0px" y="0px"
	 viewBox="45 -33.8 150 150" style="enable-background:new 45 -33.8 150 150;" xml:space="preserve">
<style type="text/css">
	.st0{enable-background:new    ;}
	.st1{fill:#DC6200;}
</style>
<g class="st0">
	<path d="M148.9,89.5l3,1.8c7.1-7.9,13.1-15.9,18-24c4.6-0.1,6.9-0.9,6.9-2.3c0-2.1-4.3-4.8-13-8.3
		C159.7,67.8,154.8,78.7,148.9,89.5z"/>
	<path d="M76.9,5.2h36.5V20l-32.9,2.7l2,3.7l30.9-2.6v9.3c0,4.4,1,7.3,3,8.7c2.2,1.6,9.6,2.4,22.3,2.4c17.8,0,28.4-0.6,31.6-1.8
		c2.8-1,4.2-3.4,4.4-7.2c-3.5-0.1-5.3-3.2-5.3-9.3c0-1.1,0-2.1,0.1-3l-3.6-1.1c-1,6-2.2,9.8-3.4,11.6c-1.7,2.1-9.5,3.1-23.4,3.1
		c-8.8,0-13.9-0.2-15.5-0.7c-1.3-0.4-1.9-1.8-1.9-4.1v-8.7l35.5-2.9l1.5-3.1c-3.3-2.8-6.3-5-9.2-6.7l-1.5-1l-6.2,8.1l-20.2,1.7V5.2
		h46.5c-0.9,3.5-2.5,7.6-4.7,12.3l3,1.8c3.3-2.4,6.8-5.6,10.5-9.7l4.7-0.7c1.3-0.1,2-0.6,2-1.5c0-1.9-3.6-6.1-10.7-12.6l-5.9,6.6
		h-44.8V-9.7h50.7l1.8-2.7c-3.3-4.2-6.4-7.5-9.3-9.9l-6.6,8.9h-36.6v-7.7c4.8-1.5,7.2-2.9,7.2-4.2c0-2.2-5.2-3.4-15.7-3.6V1.4H78.1
		l-1.9-1c-3.1-1.6-5.8-3-8.1-4.1v35.7c0,31.1-5.6,55.1-16.9,72.1l3,2.2C63,96.6,69,86.1,72.1,74.8c3.2-11.1,4.8-25.3,4.8-42.6V5.2z"
		/>
	<path class="st1" d="M175.1,87.7l-7.5,9.7h-25.3V58.3c3.9-1.2,5.9-2.4,5.9-3.6c0-2.3-4.8-3.6-14.4-3.7v46.5h-16.5V58.6
		c4-1.4,6-2.6,6-3.8c0-2.1-4.8-3.3-14.4-3.4v46.1H73.2l1.9,3.7h108.3l1.5-3C183.3,95.8,180,92.3,175.1,87.7z"/>
	<path d="M81.6,60l-2.4,2.4C84.8,69.6,88.4,77.2,90,85c0.7,3.5,2.1,5.3,4.2,5.3c3.9,0,5.9-2,5.9-6C100.1,76.8,93.9,68.7,81.6,60z"/>
</g>
</svg>
