<?xml version="1.0" encoding="utf-8"?>
<!-- Generator: Adobe Illustrator 19.0.0, SVG Export Plug-In . SVG Version: 6.00 Build 0)  -->
<svg version="1.1" id="圖層_1" xmlns="http://www.w3.org/2000/svg" xmlns:xlink="http://www.w3.org/1999/xlink" x="0px" y="0px"
	 viewBox="45 -33.8 150 150" style="enable-background:new 45 -33.8 150 150;" xml:space="preserve">
<style type="text/css">
	.st0{enable-background:new    ;}
	.st1{fill:#DC6200;}
</style>
<g class="st0">
	<path class="st1" d="M124.2-6.5c11.9-2.7,22.5-5.4,31.9-8.1c2.1,0.4,3.9,0.7,5.3,0.7c2.2,0,3.3-0.5,3.3-1.5c0-2-3.6-4.8-10.9-8.6
		C130.4-14.1,99.8-6,61.9,0.4l2,3.7c17.9-2.5,34-5.2,48.4-8.2l2.1-0.3v0.1l9.7-2.1V-6.5z"/>
	<path d="M174.6,24l-8.4,10.8h-42V-6.3l-9.7,2.1v39h-60l1.6,3.7h58.4v66.7h9.7V38.5h59.7l1.5-3.1C182,31,178.4,27.2,174.6,24z"/>
</g>
</svg>
