<?xml version="1.0" encoding="utf-8"?>
<!-- Generator: Adobe Illustrator 19.0.0, SVG Export Plug-In . SVG Version: 6.00 Build 0)  -->
<svg version="1.1" id="圖層_1" xmlns="http://www.w3.org/2000/svg" xmlns:xlink="http://www.w3.org/1999/xlink" x="0px" y="0px"
	 viewBox="45 -33.8 150 150" style="enable-background:new 45 -33.8 150 150;" xml:space="preserve">
<style type="text/css">
	.st0{enable-background:new    ;}
	.st1{fill:#DC6200;}
</style>
<g class="st0">
	<path d="M162.3,40.9l-5.3,6.4H82.2l-1.4-0.7c-2.4-1.3-5.4-2.7-8.9-4.2v62.8h8.4v-8.9h77.9v8.9h8.4V54l3.6-2.1
		c1-0.5,1.5-1.1,1.5-1.8C171.9,48.6,168.7,45.6,162.3,40.9z M115,92.6H80.4V73.3H115V92.6z M115,69.6H80.4V51.1H115V69.6z
		 M158.3,92.6h-34.7V73.3h34.7V92.6z M158.3,69.6h-34.7V51.1h34.7V69.6z"/>
	<path d="M123.6-16.4h44.2l1.8-3c-2.7-2.8-6.2-6.1-10.5-9.9l-7.5,9.2H70.3l1.5,3.7H115v56.1h8.6V-16.4z"/>
	<path class="st1" d="M176.8-10.6l-6,7.5H69.4c0-0.1-0.1-0.7-0.2-1.8c-0.1-1-0.2-1.9-0.4-2.6l-3.9-0.7c-0.4,9.6-3.4,17.1-9,22.6
		c-2.1,2.1-3.1,3.9-3.1,5.3c0,1.4,0.6,2.7,1.7,3.7c1.3,1.2,2.7,1.8,4.2,1.8c2.3,0,4.4-1.4,6.3-4.2c3-4.2,4.6-10.4,4.8-18.6V0.7
		h102.3c-0.7,4.2-1.6,8.6-2.9,13.2l3,1.7c4.6-4.6,7.7-8.1,9.3-10.5l4.8-1.3c0.9-0.3,1.3-0.7,1.3-1.3C187.6,0.7,184-3.6,176.8-10.6z"
		/>
	<path d="M164.5,17.2c0-4.5-11-7.7-33-9.6l-1.4,3.3c12.8,2.6,21,5,24.6,7.2c2.4,1.5,4.2,2.3,5.2,2.3C163,20.3,164.5,19.3,164.5,17.2
		z"/>
	<path d="M164.5,35.3c0-4.4-11-7.6-33-9.5l-1.4,3.2c12.8,2.6,21,4.9,24.6,7.1c2.4,1.5,4.2,2.3,5.2,2.3
		C163,38.4,164.5,37.3,164.5,35.3z"/>
	<path d="M107.5,17.2c0-4.5-11-7.7-33-9.6l-1.4,3.3c12.8,2.6,21,5,24.6,7.2c2.4,1.5,4.2,2.3,5.2,2.3C106,20.3,107.5,19.3,107.5,17.2
		z"/>
	<path d="M107.5,35.3c0-4.4-11-7.6-33-9.5L73.2,29c12.8,2.6,21,4.9,24.6,7.1c2.4,1.5,4.2,2.3,5.2,2.3
		C106,38.4,107.5,37.3,107.5,35.3z"/>
</g>
</svg>
