<?xml version="1.0" encoding="utf-8"?>
<!-- Generator: Adobe Illustrator 19.0.0, SVG Export Plug-In . SVG Version: 6.00 Build 0)  -->
<svg version="1.1" id="圖層_1" xmlns="http://www.w3.org/2000/svg" xmlns:xlink="http://www.w3.org/1999/xlink" x="0px" y="0px"
	 viewBox="45 -33.8 150 150" style="enable-background:new 45 -33.8 150 150;" xml:space="preserve">
<style type="text/css">
	.st0{enable-background:new    ;}
	.st1{fill:#DC6200;}
</style>
<g class="st0">
	<path d="M120.7-6.3c0.6,3,2,4.5,4.2,4.5c3.9,0,5.9-2,5.9-5.9c0-7-6.3-14-19-20.8l-2.3,2.7C115.6-20.3,119.4-13.8,120.7-6.3z"/>
	<path d="M159.5,43c7.3-5.1,13.7-10.7,19.2-16.8c1.6,0.2,2.4,0.3,2.6,0.3c2.1,0,3.1-0.6,3.1-1.7c0-1.9-3.3-5-10-9.5
		c-4.7,8.7-10.3,16.7-16.8,24.1c-4.8-11.1-8.5-22.8-11-35.2h39.2l1.8-3.1c-2.7-3.2-5.9-6.6-9.6-10.2L171,0.4h-23.2
		c5.8-7.1,10.3-13.8,13.6-19.9c4.5-0.5,6.7-1.3,6.7-2.6c0-1.9-4.5-4.4-13.5-7.4c-3.6,11.9-7.5,21.8-11.6,29.9h-48l1.3,3.7h32.7
		c0,0,0,0,0,0.1h10.5l0-0.1h2.4c5.4,33.8,18.4,62.7,39,86.7c2.7-3.3,5.5-6,8.4-8.1C176.8,70.7,166.8,57.5,159.5,43z"/>
	<path d="M97.1,58.4l2.2,3.4c13.4-6.2,24.4-14.6,33.1-25l-4.8-7.4C120,41.4,109.9,51.1,97.1,58.4z"/>
	<path class="st1" d="M125.7,19.2c5.5-4.8,10-9.6,13.5-14.4l0.4-0.5h-10.5c-8.3,12-19.8,21.8-34.6,29.5l1.9,3.5
		c9.4-4.1,18.1-9.1,26-15.2c1.8,2.4,3.5,4.8,5.2,7.3c0,0-0.1,0.1-0.1,0.1l4.8,7.4c0,0,0,0,0.1-0.1c2.5,4.3,4.5,7.9,5.8,11l0-0.1
		l0,0.1c0,0,0,0,0,0.1c0,0,0,0,0,0l3.3,9.4c0-0.1,0.1-0.1,0.1-0.2c1.4,5,2.1,9.6,2.1,13.8c0,14.1-3.7,21.2-11.2,21.2
		c-4.2,0-10.4-0.5-18.8-1.6v4c7.1,1.2,11.7,2.3,13.8,3.3c2.9,1.4,4.4,3.4,4.5,6.2c2.8,0,5-0.3,6.6-1c8.9-3.6,13.3-13.3,13.3-29
		C152.1,56.9,143.3,38.7,125.7,19.2z"/>
	<path d="M87.6,90.4l2.2,3.4c20.5-8.2,37.8-20.4,51.8-36.6l-3.3-9.4C125.2,66.1,108.3,80.3,87.6,90.4z"/>
	<path d="M95.7,51.7c0-12.4-4.9-23.7-14.7-33.8C86.1,8.6,90.8-2,95-14l3.7-2c0.9-0.4,1.3-1,1.3-1.8c0-1.4-3-4.7-8.9-9.7l-5.7,7H68.5
		c-3.7-2-6.9-3.6-9.6-4.8v130.5h8.6V68.2c6.9,1.7,10.5,4.5,10.8,8.4C89.9,76.4,95.7,68.1,95.7,51.7z M77.8,65
		c-2.7,0-6.1-0.2-10.3-0.7v-81h18.5c-2.3,11.9-5.5,23.7-9.6,35.2c7.4,11,11.1,21,11.1,29.9C87.4,59.5,84.2,65,77.8,65z"/>
</g>
</svg>
