<?xml version="1.0" encoding="utf-8"?>
<!-- Generator: Adobe Illustrator 19.0.0, SVG Export Plug-In . SVG Version: 6.00 Build 0)  -->
<svg version="1.1" id="圖層_1" xmlns="http://www.w3.org/2000/svg" xmlns:xlink="http://www.w3.org/1999/xlink" x="0px" y="0px"
	 viewBox="45 -33.8 150 150" style="enable-background:new 45 -33.8 150 150;" xml:space="preserve">
<style type="text/css">
	.st0{enable-background:new    ;}
	.st1{fill:#DC6200;}
</style>
<g class="st0">
	<path d="M102.7,19.8c3.5-0.1,5.3-0.7,5.3-1.8c0-1.7-3.1-3.8-9.4-6.3c-2.3,5.4-5.2,10.4-8.6,14.9c-2-1.3-5.2-2.7-9.6-4.2l-1.7,2.7
		c4.6,2.9,7.4,6.2,8.4,9.9c0.9,2.6,2.3,3.9,4.2,3.9c2.9,0,4.3-1.5,4.3-4.6c0-1.7-1-3.5-2.9-5.4C97,25.7,100.3,22.6,102.7,19.8z"/>
	<path d="M127.9,35.2c1,2.5,2.3,3.7,4,3.7c2.9,0,4.3-1.5,4.3-4.5c0-2.1-1.2-4.2-3.6-6.2c3.2-2.4,6.6-5.5,10-9.2
		c3-0.1,4.5-0.8,4.5-1.8c0-1.6-3.1-3.6-9.4-5.9c-2,4.8-4.6,9.8-8.1,14.9c-2.1-1.2-5.1-2.4-9-3.6l-1.5,2.7
		C123.2,28.2,126.2,31.4,127.9,35.2z"/>
	<path d="M102.7,12.9h7.8v-30.3l3.3-2.4c0.7-0.4,1-1,1-1.6c0-1.4-2.7-4.1-8.1-8l-5.1,5.7H69.2c-2.3-1.3-5.8-3.1-10.3-5.3v134.3h8.4
		V8.8h35.4V12.9z M67.3-20h35.4v10H67.3V-20z M67.3,5V-6.3h35.4V5H67.3z"/>
	<path class="st1" d="M104.7,57.5v20.2H90V67.1c3.4-1.4,5.1-2.5,5.1-3.4c0-1.8-4.3-3-12.9-3.7v27.6H90v-6.2h14.4
		c-1.8,10.2-9.1,16.9-22,20.1l1.7,3.1c19.1-2.7,28.7-11.7,28.7-26.9V64.5c3.2-1.4,4.8-2.6,4.8-3.6C117.7,59.1,113.3,57.9,104.7,57.5
		z"/>
	<path class="st1" d="M154,86.7V66.4c3.2-1.4,4.8-2.6,4.8-3.6c0-1.9-4.2-3-12.6-3.4v18.3h-13.8V64.5c3.6-1.4,5.4-2.6,5.4-3.6
		c0-1.9-4.5-3-13.4-3.4v44h8V81.4h13.8v5.3H154z"/>
	<path d="M175.6-29.9l-5.2,6.2h-33.9c-1.9-1-5.1-2.5-9.6-4.5v41.1h7.8V8.8h37.1v79.7c0,3.1-1.9,4.7-5.7,4.7c-4.6,0-10-0.3-16.2-1
		v4.1c5.3,0.5,9.1,1.2,11.4,2.1c2.8,1,4.2,3,4.2,6c9.8-0.1,14.7-4.1,14.7-11.9V-17l3.3-2.3c0.8-0.4,1.2-1,1.2-1.8
		C184.6-22.5,181.6-25.4,175.6-29.9z M171.7,5h-37.1V-6.3h37.1V5z M171.7-10.1h-37.1v-10h37.1V-10.1z"/>
	<path d="M107.7,37.9l-2.1,2c1.6,1.9,2.9,3.9,4,6.2h-3.7l-5,0.1H99l-4.2,0.1c7.2-5.8,12.5-10.5,16-14.1c3.6,0,5.3-0.5,5.3-1.6
		c0-1.5-3-3.8-9-6.7c-4.6,7.2-10.5,14.7-17.7,22.5H76.9c1,7.2,2.4,10.8,4.2,10.8c1,0,2-1.3,2.9-4c5.7-0.5,14.6-1.7,26.7-3.6
		c0.2,1,0.3,1.6,0.3,1.8c0.4,3,1.7,4.5,3.7,4.5c3.1,0,4.6-1.6,4.6-4.9C119.3,46.3,115.5,42,107.7,37.9z"/>
	<path d="M128.2,51.8c5.7-0.4,14.3-1.5,25.8-3.4c0.3,1,0.7,2.1,1,3.3c0.4,2.2,1.7,3.3,3.7,3.3c3.1,0,4.6-1.6,4.6-4.8
		c0-5.1-4.6-9.6-13.9-13.5l-2,2.3c2.1,2.1,3.7,4.1,5,6c-3.6,0.2-9.2,0.5-16.8,0.7c5.8-4.6,11.6-9.8,17.4-15.6
		c0.5,0.1,1.1,0.1,1.8,0.1c2,0,3-0.5,3-1.5c0-1.8-3-4.2-8.9-7.3c-6.4,9.6-12.6,17.7-18.6,24.3h-9c1.2,6.7,2.6,10,4.2,10
		C126.4,55.9,127.3,54.5,128.2,51.8z"/>
</g>
</svg>
