<?xml version="1.0" encoding="utf-8"?>
<!-- Generator: Adobe Illustrator 19.0.0, SVG Export Plug-In . SVG Version: 6.00 Build 0)  -->
<svg version="1.1" id="圖層_1" xmlns="http://www.w3.org/2000/svg" xmlns:xlink="http://www.w3.org/1999/xlink" x="0px" y="0px"
	 viewBox="45 -33.8 150 150" style="enable-background:new 45 -33.8 150 150;" xml:space="preserve">
<style type="text/css">
	.st0{enable-background:new    ;}
	.st1{fill:#DC6200;}
</style>
<g class="st0">
	<path class="st1" d="M127,40.8h43.2l1.8-2.9c-3.1-3.9-6.6-7.6-10.5-11.2L153.8,37H127V-8.4h-9.2V91.7l9.2-0.1V40.8z"/>
	<path d="M179.2,83.6c-0.8-0.7-1.7-1.6-2.9-2.6L167.7,92H127v-0.4l-9.2,0.1V92H87.3V29.3c4.5-1.5,6.7-2.9,6.7-4.2
		c0-2.1-5.2-3.6-15.5-4.3V92H51.3l1.5,3.7h132.6l1.7-3C184.2,89.1,181.6,86,179.2,83.6z"/>
	<path d="M127-8.6h50.5l1.6-3c-3.3-4.4-6.9-8.4-10.9-11.9L160-12.3H60.6l1.7,3.7h55.6v0.2h9.2V-8.6z"/>
</g>
</svg>
