<?xml version="1.0" encoding="utf-8"?>
<!-- Generator: Adobe Illustrator 19.0.0, SVG Export Plug-In . SVG Version: 6.00 Build 0)  -->
<svg version="1.1" id="圖層_1" xmlns="http://www.w3.org/2000/svg" xmlns:xlink="http://www.w3.org/1999/xlink" x="0px" y="0px"
	 viewBox="45 -33.8 150 150" style="enable-background:new 45 -33.8 150 150;" xml:space="preserve">
<style type="text/css">
	.st0{enable-background:new    ;}
	.st1{fill:#DC6200;}
</style>
<g class="st0">
	<path class="st1" d="M140.9,10.3c3.7,0,5.6-2.3,5.6-6.9c0-8.9-6.2-19.2-18.6-31.1l-2.7,2.1c6.6,9.8,10.3,19.4,11,28.9
		C136.6,8,138.1,10.3,140.9,10.3z"/>
	<path class="st1" d="M179.7-14.6c4.6-0.1,7-0.9,7-2.3c0-2.4-5.1-5.5-15.2-9.3C166.7-8.3,161.2,7,154.9,19.8l3.4,1.9
		C165.9,11.5,173-0.6,179.7-14.6z"/>
	<path d="M186.3,42.8l1.7-3c-3-3.9-6.2-7.2-9.6-10l-7,9.3h-38.5c2-5.1,3.8-9.8,5.4-14.1c4.6-0.3,6.9-1.2,6.9-2.6
		c0-2-4.5-4.2-13.5-6.7c-2.2,7.6-5,15.4-8.3,23.4H98.1c-4-5.5-9.4-10.4-16.5-14.6V7.6h21.5l1.5-2.6c-2.7-4.1-5.4-7.5-8.1-10.3
		l-6.2,9.2h-8.7V-21c4.6-1.3,6.9-2.7,6.9-4.2c0-2.4-5.1-3.8-15.3-4.1V3.9H51.4l1,3.7h20.4c-3.8,22.1-11.3,44-22.5,65.7l3.3,2.1
		c8.2-13.1,14.7-27,19.5-41.5v71.4h8.4V29.5c5.2,6.1,8.8,12.8,10.8,20.2C93,51.9,94.2,53,96,53c3.5,0,5.3-1.9,5.3-5.7
		c0-1.3-0.3-2.8-1-4.5H122c-4.7,11.1-10,22-16,32.9l8.1,2.9c0.4-0.8,1-1.9,1.7-3.1c1.3-2.4,2-3.8,2.1-4L119,69
		c8.1,3.2,15.6,6.5,22.5,10.1c-10.4,12-25.9,19.8-46.7,23.4l1.5,3.6c23.5-2.5,41.1-10.1,52.8-22.6c8.3,4.9,15.4,9.8,21.2,14.7
		c3.3,2.8,5.6,4.2,7,4.2c2.9,0,4.3-1.7,4.3-5c0-4.6-9.5-11.4-28.5-20.2c6.4-10.2,11.1-21.7,13.9-34.4H186.3z M145.5,73.9
		c-6.9-2.7-15.1-5.5-24.7-8.4c4.4-9.1,7.9-16.7,10.5-22.6h26.1C155.2,53.4,151.2,63.7,145.5,73.9z"/>
	<path class="st1" d="M117.7,15.6c3.6,0,5.4-2.1,5.4-6.2c0-9.2-7.4-19.6-22.3-31.3l-2.4,2.6c7.6,9.3,12.3,18.8,14.3,28.6
		C113.6,13.5,115.2,15.6,117.7,15.6z"/>
</g>
</svg>
