<?xml version="1.0" encoding="utf-8"?>
<!-- Generator: Adobe Illustrator 19.0.0, SVG Export Plug-In . SVG Version: 6.00 Build 0)  -->
<svg version="1.1" id="圖層_1" xmlns="http://www.w3.org/2000/svg" xmlns:xlink="http://www.w3.org/1999/xlink" x="0px" y="0px"
	 viewBox="45 -33.8 150 150" style="enable-background:new 45 -33.8 150 150;" xml:space="preserve">
<style type="text/css">
	.st0{enable-background:new    ;}
	.st1{fill:#DC6200;}
</style>
<g class="st0">
	<path d="M152.9-25.3c7,5.5,11.5,11.8,13.7,18.8c1,3.5,2.8,5.3,5.2,5.3c3.6,0,5.4-1.9,5.4-5.7c0-7.7-7.5-14.7-22.5-21.2L152.9-25.3z
		"/>
	<path d="M108.5,84.9h8.3V47.1l3-2c1.2-0.7,1.8-1.5,1.8-2.2c0-1.4-3-4.5-8.9-9.2l-5.8,6.9H78.3C75.9,39.5,68.1,36,68,36v52.4h8.4
		V76.7h32.1V84.9z M76.4,73V44.4h32.1V73H76.4z"/>
	<path d="M180.4,85.6c0-4.1,0.5-11.4,1.6-21.9l-4-2.3c-2.5,19.6-4.9,29.4-7,29.4c-0.8,0-2.5-1.1-5.1-3.4C160,82.1,155.4,76,152,69
		c7.3-9.4,13.6-19.3,18.9-29.7c4.5,0,6.7-0.7,6.7-2.1c0-2-4.1-5-12.3-9c-4.4,12-10.3,23.1-17.4,33.3c-3.4-9.5-6-22.3-7.6-38.4h43.4
		l1.8-3c-2.7-3.4-5.9-7-9.7-10.6l-7.3,9.9H140c-0.8-12.3-1.2-25.8-1.2-40.4c4.2-1.7,6.3-3.1,6.3-4.3c0-2.1-5-3.5-14.9-4.1
		c0,22,0.5,38.5,1.5,49.5H96.6v-0.1h-8.4v0.1H53.6l1.6,3.7H132c1.8,18.2,5.2,33.1,10.1,44.8C130.9,82,116,92.7,97.2,100.6l2.1,3.4
		c20.5-7.2,36.1-16.3,46.9-27.5c4.8,8,9.6,14.1,14.2,18.3c7.1,6.5,13.2,9.7,18.2,9.7c3.7,0,6-2.3,7-7
		C182.1,96.8,180.4,92.8,180.4,85.6z"/>
	<path class="st1" d="M96.6-1.3h26.7l1.6-2.9c-2.5-3.5-5.5-7-9-10.5L108.8-5H96.6v-15.5c4.3-1.3,6.4-2.7,6.4-4c0-2.3-5-3.6-14.9-3.7
		V-5H62.3l1.3,3.7h24.6v21.3h8.4V-1.3z"/>
</g>
</svg>
