<?xml version="1.0" encoding="utf-8"?>
<!-- Generator: Adobe Illustrator 19.0.0, SVG Export Plug-In . SVG Version: 6.00 Build 0)  -->
<svg version="1.1" id="圖層_1" xmlns="http://www.w3.org/2000/svg" xmlns:xlink="http://www.w3.org/1999/xlink" x="0px" y="0px"
	 viewBox="45 -33.8 150 150" style="enable-background:new 45 -33.8 150 150;" xml:space="preserve">
<style type="text/css">
	.st0{enable-background:new    ;}
	.st1{fill:#DC6200;}
</style>
<g class="st0">
	<path d="M87.5-1.7c5.2,4.3,8.4,8.9,9.6,13.8c0.9,3.7,2.6,5.6,5.1,5.6c3.5,0,5.3-1.9,5.3-5.7c0-6.4-5.9-11.8-17.7-16.2L87.5-1.7z"/>
	<path d="M175.7-6.5l1.6-2.7c-3.3-4-6.9-7.6-10.6-10.9l-7.8,9.9h-35.1v-11.3c4-1.6,6-3.1,6-4.3c0-1.9-4.9-3-14.7-3.3v18.9H63
		l1.2,3.7H175.7z"/>
	<path d="M147.2,4.2c4.1-0.1,6.2-0.9,6.2-2.3c0-1.9-4.2-4.5-12.7-7.8c-2.8,8.3-6.8,16.6-12,24.9h5.4C138.8,14.4,143.2,9.5,147.2,4.2
		z"/>
	<path d="M163.1,44.9h-40.6v-9.9c4-1.6,6-3,6-4.2c0-1.9-4.8-3-14.4-3.5v17.6H58.8l1.5,3.7h42.3c-0.6,9.6-2.5,17.7-5.6,24.3
		c-6.3,12.9-19.5,22.8-39.5,29.6l1.5,3.7c27.6-6.2,44.4-19.5,50.2-39.9h45.2c-0.4,7.8-1.8,14.1-4,19c-1.6,3.7-5,5.6-10.2,5.6
		c-7.2,0-15.6-0.8-25-2.4v4c8.9,1.8,14.4,3.1,16.6,4c3.6,1.3,5.5,3.3,5.7,6c6,0,10.8-1.2,14.5-3.5c6.5-4.3,10.2-14.2,11.1-29.5
		l3.9-2.4c0.9-0.6,1.4-1.2,1.4-1.9c0-1.4-3.1-4.4-9.2-9l-6,6.4h-43.1c0.6-2.5,1.2-7.2,1.6-14h66.9l1.8-2.9
		c-3.5-3.2-6.9-5.9-10.1-8.1L163.1,44.9z"/>
	<path class="st1" d="M174.3,12.6l-5.7,6.7h-34.9c0.1-0.1,0.2-0.2,0.3-0.2h-5.4c-0.1,0.1-0.1,0.2-0.2,0.2H73.2
		c0.1-1.4,0-3.5-0.3-6.3L69,12.7c-1.1,7.7-4.1,13.7-9,17.9c-2.3,2-3.4,3.7-3.4,5.1c0,1.1,0.6,2.3,1.8,3.4c1.1,1.1,2.3,1.7,3.7,1.7
		c2.5,0,4.8-1.7,6.9-5.1c2.1-3.5,3.4-7.7,4-12.6h96.5c-2,4.7-4.5,9.2-7.5,13.3l2.7,2.3c5.6-4.3,10.1-8.3,13.5-12l4.3-0.9
		c1.5-0.3,2.3-0.9,2.3-1.8C184.8,22.2,181.3,18.4,174.3,12.6z"/>
</g>
</svg>
