<?xml version="1.0" encoding="utf-8"?>
<!-- Generator: Adobe Illustrator 19.0.0, SVG Export Plug-In . SVG Version: 6.00 Build 0)  -->
<svg version="1.1" id="圖層_1" xmlns="http://www.w3.org/2000/svg" xmlns:xlink="http://www.w3.org/1999/xlink" x="0px" y="0px"
	 viewBox="45 -33.8 150 150" style="enable-background:new 45 -33.8 150 150;" xml:space="preserve">
<style type="text/css">
	.st0{enable-background:new    ;}
	.st1{fill:#DC6200;}
</style>
<g class="st0">
	<path d="M55.3,96.7l2.1,3.4c24.1-9.1,43.9-21.9,59.4-38.2v43.3h8.7v-52h-12.7C97.8,71.5,78.6,86,55.3,96.7z"/>
	<path class="st1" d="M173,43.2l-5.6,6.3h-41.9v0h-8.7v0H77.2c1.6-6.1,3.1-13.4,4.5-22h35.2v0.1h8.7v-0.1h37.3v6.4h8.6v-29l3.3-2.7
		c0.8-0.8,1.2-1.4,1.2-2c0-1.4-2.9-4.2-8.7-8.3l-5.6,6.6h-28.1c0,0,0,0,0,0h-5.3l0,0H63.8l1.3,3.7h51.6v0.1h8.7V2.2h37.3v21.6h-37.3
		v0h-8.7v0H84.2c-2.2-1.4-5.5-3.1-9.7-5c-2.2,15.3-5.5,29.5-9.9,42.7l8.3,2.5c1.8-5.6,2.9-9.2,3.3-10.8h36.7c0,0,0,0,0,0h12.7v0h43
		c-0.1,9.7-1.2,17-3.1,21.9c-1.6,4.1-4.8,6.2-9.6,6.2c-5.2,0-11.9-0.6-19.9-1.8v4c7.8,1.4,12.9,2.7,15.2,3.9c2.3,1.1,3.4,3,3.4,5.7
		c6.6,0.1,11.5-1.8,14.9-5.7c4.5-5.1,7.1-15.6,7.5-31.6l3.1-2.1c0.9-0.6,1.3-1.2,1.3-1.9C181.4,50.3,178.6,47.4,173,43.2z"/>
	<rect x="116.8" y="27.6" width="8.7" height="21.9"/>
	<rect x="116.8" y="2.2" width="8.7" height="21.5"/>
	<path d="M97.7-9.4c1.1,3.5,2.8,5.3,5.3,5.3c3.6,0,5.4-2,5.4-6c0-6.2-7-12.3-20.9-18.4l-1.8,3C91.7-21,95.7-15.6,97.7-9.4z"/>
	<path d="M148.1-19.3c4.5-0.4,6.8-1.3,6.8-2.5c0-1.9-4.6-4.4-13.8-7.5c-3.4,10.4-7.4,19.2-12.1,26.6l-0.8,1.1h5.3
		C138.8-7,143.7-12.9,148.1-19.3z"/>
</g>
</svg>
