<?xml version="1.0" encoding="utf-8"?>
<!-- Generator: Adobe Illustrator 19.0.0, SVG Export Plug-In . SVG Version: 6.00 Build 0)  -->
<svg version="1.1" id="圖層_1" xmlns="http://www.w3.org/2000/svg" xmlns:xlink="http://www.w3.org/1999/xlink" x="0px" y="0px"
	 viewBox="45 -33.8 150 150" style="enable-background:new 45 -33.8 150 150;" xml:space="preserve">
<style type="text/css">
	.st0{enable-background:new    ;}
	.st1{fill:#DC6200;}
</style>
<g class="st0">
	<path class="st1" d="M175.8,79.9L167.2,92h-22.3V34.3h31.3l1.8-2.7c-2.4-3.2-5.3-6.6-8.6-10.2l-1.7-1.6l-7.8,10.8H90.1v3.7h46V92
		H90V92h-9.2V92H53l1.8,3.7h130l1.9-3.1C182.8,87.3,179.2,83,175.8,79.9z"/>
	<path d="M90,34.3L90,34.3l0-3.7h0V0.3c23.2-3.3,45.3-8.1,66.3-14.4c2.5,0.2,3.9,0.3,4.2,0.3c2.8,0,4.2-0.5,4.2-1.5
		c0-1.8-4.2-4.7-12.6-8.7c-15.6,8.1-36,14.7-61,20c-4.5-2.5-7.9-4.2-10.2-5.1V92H90V34.3z"/>
</g>
</svg>
