<?xml version="1.0" encoding="utf-8"?>
<!-- Generator: Adobe Illustrator 19.0.0, SVG Export Plug-In . SVG Version: 6.00 Build 0)  -->
<svg version="1.1" id="圖層_1" xmlns="http://www.w3.org/2000/svg" xmlns:xlink="http://www.w3.org/1999/xlink" x="0px" y="0px"
	 viewBox="45 -33.8 150 150" style="enable-background:new 45 -33.8 150 150;" xml:space="preserve">
<style type="text/css">
	.st0{enable-background:new    ;}
	.st1{fill:#DC6200;}
</style>
<g class="st0">
	<path class="st1" d="M169.4,64.9l-7.2,8.1h-37.1V61.8h36.5l1.6-2.7c-3.4-3.4-6.5-6.1-9.3-8.1l-6.6,7h-22.2V46l1.8-0.1
		c5.8-0.7,10.3-1.3,13.3-1.9c1.7,0.4,3.2,0.6,4.6,0.6c1.7,0,2.6-0.4,2.6-1.2c0-1.5-3.1-3.9-9.4-7.3c-13.4,4.8-29.7,7.8-49.1,9.2
		l1.7,3.4c9.7-0.4,18.3-1,25.9-1.8v11.1H76.9l1.7,3.7h37.9V73H61.5l1.8,3.7h53.2v11.9c0,3-1.6,4.5-4.8,4.5c-4.8,0-11.6-0.5-20.4-1.5
		v3.9c7.6,1.3,12.5,2.4,14.7,3.3c2.8,1.2,4.2,3.2,4.2,5.9c9.9,0.1,14.9-3.3,14.9-10.3V76.7h52.5l1.6-2.6
		C176.7,71.3,173.4,68.2,169.4,64.9z"/>
	<path d="M187.2,30.2l1.5-2.9c-2.5-3.8-5.1-7.4-7.8-10.8l-6,9.9h-4v-41.8l3.6-2.6c0.6-0.4,0.9-0.9,0.9-1.5c0-1.2-2.8-4.1-8.5-8.7
		l-5.4,6.2h-20.8l1.6,3.7h20.2v11.6h-19.8l1.7,3.7h18.1V9.9h-19.9l2,3.7h17.9v12.9H135V0.4l3-2c0.8-0.5,1.2-1,1.2-1.6
		c0-1.1-2.7-3.6-8.1-7.7l-4.8,5.4h-12.1v-9.2H138l1.5-2.6c-2.1-2.6-4.6-5.2-7.5-7.9l-5.2,6.7h-12.5v-6.3c3.1-1.3,4.7-2.5,4.7-3.4
		c0-1.8-4.1-2.7-12.2-2.7V2.4h7.5v-4.1h13v28.2h-13.1V13.2c3.2-1.4,4.8-2.5,4.8-3.4c0-1.7-4.1-2.6-12.2-2.7v19.5H78.3V13.6h20.9
		l1.6-2.7c-2.1-2.7-3.7-4.6-5.1-5.8c-0.4-0.4-0.9-0.8-1.3-1.2c-0.5-0.5-0.8-0.8-0.8-0.8l-5.6,6.7h-9.7V-2.9h21.9l1.5-2.4
		c-2.4-3-4.7-5.6-7-7.9l-5.6,6.6H78.3V-17c6.9-1.3,13-2.8,18.3-4.6c1.8,0.2,2.8,0.3,3,0.3c2.1,0,3.1-0.5,3.1-1.5
		c0-1.6-2.7-4.1-8.1-7.5c-3.9,3.3-9,6.4-15.5,9.3c-3.7-1.7-6.8-3-9.3-3.9v51.4H51.7l1.7,3.7h36.2c-7.9,13.5-20.8,24.6-38.9,33.3
		l2.1,3.1c21.9-7.7,37.6-19.8,47.2-36.5H141c10.7,14.7,24.6,25.1,41.5,31.2c1.8-3.5,3.9-6.3,6.2-8.3c-16.8-4.2-30.9-11.8-42.3-22.9
		H187.2z"/>
</g>
</svg>
