<?xml version="1.0" encoding="utf-8"?>
<!-- Generator: Adobe Illustrator 19.0.0, SVG Export Plug-In . SVG Version: 6.00 Build 0)  -->
<svg version="1.1" id="圖層_1" xmlns="http://www.w3.org/2000/svg" xmlns:xlink="http://www.w3.org/1999/xlink" x="0px" y="0px"
	 viewBox="45 -33.8 150 150" style="enable-background:new 45 -33.8 150 150;" xml:space="preserve">
<style type="text/css">
	.st0{enable-background:new    ;}
	.st1{fill:#DC6200;}
</style>
<g class="st0">
	<polygon points="50.9,29.2 52.3,32.9 73.2,32.9 73.7,29.2 	"/>
	<path d="M115.5,62.5c1.2,2.8,2.8,4.2,4.9,4.2c3.2,0,4.8-1.9,4.8-5.6c0-7.3-8.7-14.5-26.1-21.6l-2.1,2.7
		C106.4,48.7,112.5,55.4,115.5,62.5z"/>
	<polygon points="82.4,32.9 150.7,32.9 150.9,29.2 82.8,29.2 	"/>
	<path class="st1" d="M160.1,29.2c0.4-18.3,0.6-30.6,0.6-37.1l3.9-2.4c1-0.5,1.5-1.1,1.5-1.8c0-1.6-3.2-4.9-9.6-9.7l-6,7.2H89.1
		c-4.7-2.5-8-4.2-9.7-5.1c-0.8,9.1-2,20.7-3.7,34.8c-0.2,1.2-0.4,3-0.7,5.4c-0.5,4.6-0.9,7.5-1,8.7h-0.2l-0.5,3.7h0.3l-0.9,6.9
		c-1.3,11-3.9,26.8-7.8,47.3l8.9,1.5c0.4-2.1,1-5.5,1.8-10.3h72.3c-0.5,4.4-1,7.2-1.4,8.4c-1,3-3.6,4.5-7.6,4.5
		c-5.9,0-13.3-0.7-22.3-2v4c8.3,1.4,13.6,2.7,16.2,3.9c3.1,1.5,4.6,3.7,4.6,6.6c8.7-0.1,14.3-3.1,16.8-9c1.2-2.6,2.2-8.1,3-16.3
		h25.8l1.8-3c-3.3-4.8-6.4-8.6-9.2-11.4L168,74.5h-10.5c1.5-15.8,2.3-28.6,2.4-38.3v-3.3h0.1l0.2-3.7H160.1z M151.5,0.1
		c-0.1,12.8-0.3,21.7-0.4,26.8v2.3h-0.2l-0.2,3.7h0.2c-0.8,18.2-1.6,31.2-2.4,39l-0.3,2.6H76.1c2.6-16.3,4.3-26.9,4.9-31.9
		c0.1-0.5,0.6-3.7,1.4-9.7h0l0.4-3.7h0l0.1-0.5l0-0.1l0,0.1l0.4-2.4c0.7-4.8,1.8-15.2,3.4-31.1l0.6-6.2h64.2V0.1z"/>
	<path d="M187.7,29.9c-2.9-4.2-6-8-9.2-11.4l-7.4,10.6h-10.9l-0.2,3.7h25.7L187.7,29.9z"/>
	<path d="M117.4,17.2c1.1,2.6,2.7,3.9,4.8,3.9c3.3,0,5-1.9,5-5.6c0-7.2-8.2-13.6-24.7-19.2l-2,2.9C108.5,4,114.2,10,117.4,17.2z"/>
</g>
</svg>
