<?xml version="1.0" encoding="utf-8"?>
<!-- Generator: Adobe Illustrator 19.0.0, SVG Export Plug-In . SVG Version: 6.00 Build 0)  -->
<svg version="1.1" id="圖層_1" xmlns="http://www.w3.org/2000/svg" xmlns:xlink="http://www.w3.org/1999/xlink" x="0px" y="0px"
	 viewBox="45 -33.8 150 150" style="enable-background:new 45 -33.8 150 150;" xml:space="preserve">
<style type="text/css">
	.st0{enable-background:new    ;}
	.st1{fill:#DC6200;}
</style>
<g class="st0">
	<path d="M161.5,73.6l-5.6,5.6H82.9c-0.6-0.2-2-0.8-4.2-1.8c-1.9-0.8-3.2-1.4-4.2-1.8L72.8,75v30.2h8.7v-5.6H157v5.6h8.7V85.2
		l3.4-2.1c0.9-0.4,1.4-0.9,1.4-1.5C170.5,80.6,167.5,77.9,161.5,73.6z M157,95.9H81.5v-13H157V95.9z"/>
	<path d="M105,29.1l2.3,3.1c13.8-6.2,21.3-16,22.7-29.6H153v25.6h8.4V2.6h24.2l1.5-2.9c-3-3.5-6.1-6.7-9.3-9.6l-6.6,8.7h-40.8v-13.5
		c15.5-0.8,28.8-2.1,39.9-4.1c2.2,0.6,4,1,5.3,1c1.4,0,2.1-0.4,2.1-1.2c0-1.8-3.1-4.7-9.4-8.7c-10.1,4.4-22.5,7.5-37.4,9.2
		c-4.1-2-7.1-3.2-9-3.9v18.9C121.9,11.5,116.3,22.3,105,29.1z"/>
	<path class="st1" d="M53.8,4.2c1.4,7.9,2.9,11.8,4.7,11.8c1,0,1.9-1.4,2.9-4.3c8.3-1.1,14.9-2,19.6-2.9v9.4c0,3-1.5,4.5-4.5,4.5
		c-5.4,0-10.3-0.3-14.8-1v4c5.3,0.8,8.7,1.4,10,1.9c2.3,0.9,3.6,2.7,3.7,5.4c3.4,0,6-0.3,8-0.9c3.8-1.4,5.7-4.7,5.7-9.9v-15
		c10.6-2,19.3-3.6,26.1-5l-0.4-3.7c-8.1,1.2-16.7,2.2-25.6,3.1V-9.8h24.6l1.6-2.7c-3.9-4.5-6.6-7.5-8.2-8.8l-6.4,7.8H89.1v-9.3
		c4.1-1.4,6.2-2.6,6.2-3.6c0-2-4.8-3-14.3-3.1v16H55l1,3.7H81V2.5C75,3.1,65.9,3.6,53.8,4.2z"/>
	<path d="M142.5,34.3H83.2l1.6,3.7h74.4l1.7-2.6c-3.1-2.2-6.7-4.2-10.8-6.2L142.5,34.3z"/>
	<path d="M157.4,51.9l-8.4,4H72.7l2,3.7h92.6l1.5-2.4C164.6,55,160.8,53.2,157.4,51.9z"/>
	<path d="M176.4,37.8l-8.4,7.3H52.6l1.8,3.7h131.1l1.8-2.9C183.3,42.4,179.6,39.7,176.4,37.8z"/>
	<path d="M148.9,67H72.8l1.8,3.7h92.6l1.5-2.4c-4.6-2.7-8.4-4.6-11.4-5.6L148.9,67z"/>
</g>
</svg>
