<?xml version="1.0" encoding="utf-8"?>
<!-- Generator: Adobe Illustrator 19.0.0, SVG Export Plug-In . SVG Version: 6.00 Build 0)  -->
<svg version="1.1" id="圖層_1" xmlns="http://www.w3.org/2000/svg" xmlns:xlink="http://www.w3.org/1999/xlink" x="0px" y="0px"
	 viewBox="45 -33.8 150 150" style="enable-background:new 45 -33.8 150 150;" xml:space="preserve">
<style type="text/css">
	.st0{enable-background:new    ;}
	.st1{fill:#DC6200;}
</style>
<g class="st0">
	<path class="st1" d="M87.6,76.6h8.3V-0.9L99-3.3c0.9-0.7,1.3-1.4,1.3-2c0-1.2-2.8-4.2-8.5-9l-5.4,7.4H68.5
		c-4.5-2.6-7.7-4.4-9.7-5.3v94.6h8.4V66h20.4V76.6z M67.2,62.2V-3.2h20.4v65.4H67.2z"/>
	<path d="M141.6,5.5V3h28.1c-2.6,10.5-6.6,20.8-12,30.9l3.4,2.3c6.8-9.4,12.7-19.2,17.6-29.6l4.6-1.8c1-0.4,1.5-1,1.5-1.7
		c0-1.7-3.3-5.5-9.9-11.5l-5.7,7.6h-47.5c1.8-6.5,3.3-13.2,4.8-20.1c4-1.2,6-2.4,6-3.7c0-1.9-5-3.7-14.9-5.3
		c-3,27.3-9.6,50.3-19.8,69.1l3.4,2.1c8.2-11.2,14.4-23.4,18.6-36.7c0.1-0.3,0.2-0.6,0.4-1c0.1-0.4,0.2-0.6,0.2-0.7h12.2v5
		c0,43.2-15.5,74.6-46.5,94l2.3,3.3c29.8-15.3,47.1-40.6,51.9-76.1c3.8,31,17,55.4,39.8,73.2c1.6-2.7,4.2-5.5,7.8-8.4
		C157.2,74.9,141.8,45.4,141.6,5.5z"/>
</g>
</svg>
