<?xml version="1.0" encoding="utf-8"?>
<!-- Generator: Adobe Illustrator 19.0.0, SVG Export Plug-In . SVG Version: 6.00 Build 0)  -->
<svg version="1.1" id="圖層_1" xmlns="http://www.w3.org/2000/svg" xmlns:xlink="http://www.w3.org/1999/xlink" x="0px" y="0px"
	 viewBox="45 -33.8 150 150" style="enable-background:new 45 -33.8 150 150;" xml:space="preserve">
<style type="text/css">
	.st0{enable-background:new    ;}
	.st1{fill:#DC6200;}
</style>
<g class="st0">
	<path class="st1" d="M155.6-5.4c1,3.7,2.9,5.6,5.7,5.6c3.6,0,5.4-1.9,5.4-5.7c0-2.7-1.5-5.6-4.4-8.9c-4.3-4.7-11-8.9-20.1-12.5
		l-2,3C148.6-17.9,153.7-11.7,155.6-5.4z"/>
	<path d="M182.6,14.6c-3.6-4.4-7.2-8.2-10.7-11.4l-8.3,10.9h-43.8c0.1-3.1,0.1-6.1,0.1-9v-24.3c4.5-1.6,6.7-3.1,6.7-4.3
		c0-2.2-5.4-3.6-16.2-4V5.2c0,4.3,0,7.3-0.1,9H57.1l1.2,3.7h51.9c-1.1,18-4.2,32.6-9.3,43.8C93.2,78.6,78,92,55.3,101.8l2.1,3.4
		c22.9-7.7,39.1-19.1,48.6-34.2c8.2-13.3,12.8-31,13.7-53.1h61.3L182.6,14.6z"/>
	<path d="M179.9,86.8c-0.9-2.9-1.3-10.2-1.3-21.9l-4.1-1.4c-1.3,16.8-3.6,26-6.9,27.3c-2.1,0.8-7.8,1.2-17.2,1.2
		c-8.7,0-13.9-0.3-15.7-0.9c-1.8-0.4-2.7-2.1-2.7-4.8v-50c4.2-1.3,6.3-2.7,6.3-4c0-2.3-5.2-3.7-15.5-4.3v60.3c0,5,1.2,8.3,3.7,9.9
		c2.5,1.5,11.2,2.3,25.9,2.3c14.5,0,23.7-0.6,27.6-1.7c3.7-1,5.6-3.8,5.7-8.2C182.7,90.6,180.8,89.3,179.9,86.8z"/>
</g>
</svg>
