<?xml version="1.0" encoding="utf-8"?>
<!-- Generator: Adobe Illustrator 19.0.0, SVG Export Plug-In . SVG Version: 6.00 Build 0)  -->
<svg version="1.1" id="圖層_1" xmlns="http://www.w3.org/2000/svg" xmlns:xlink="http://www.w3.org/1999/xlink" x="0px" y="0px"
	 viewBox="45 -33.8 150 150" style="enable-background:new 45 -33.8 150 150;" xml:space="preserve">
<style type="text/css">
	.st0{enable-background:new    ;}
	.st1{fill:#DC6200;}
</style>
<g class="st0">
	<path d="M60,95.5c-2.2,1-3.3,2.5-3.3,4.3c0,3.4,1.8,5.1,5.5,5.1c3.2,0,6.2-1.5,8.9-4.5c6.2-6.5,9.7-15.6,10.4-27.3L77.9,72
		C75.1,83.4,69.1,91.2,60,95.5z"/>
	<path d="M127,71.2l-2.3,2.1c6.3,7.6,9.9,15.9,10.9,24.9c0.3,2.7,1.7,4,4.2,4c3.8,0,5.7-2.1,5.7-6.3C145.6,88.3,139.4,80.1,127,71.2
		z"/>
	<path d="M97.1,72.9c3.1,7.2,4.6,13.9,4.6,20.1l-0.1,4.8c0,3.2,1.5,4.8,4.4,4.8c3.9,0,5.9-2.4,5.9-7.3c0-6.8-4-14.8-11.9-23.9
		L97.1,72.9z"/>
	<path d="M155.7,71.8l-2,2.7c10,7.4,16.7,15.5,20.1,24.2c0.7,2.2,2.2,3.3,4.5,3.3c3.5,0,5.3-1.9,5.3-5.7c0-3.5-2.1-7.3-6.2-11.4
		C171.7,79.5,164.5,75.1,155.7,71.8z"/>
	<path class="st1" d="M162.1-26.1l-5.6,7H83.9c-3.2-1.7-6.6-3.3-10.2-4.7v58.1h8.6v-7.4h33v0.1h8.7v-0.1h33.8v5.9h8.6v-44.5l3.9-2.7
		c1-0.7,1.5-1.4,1.5-2.1C171.8-18,168.6-21.2,162.1-26.1z M157.8,23.2H124v-0.1h-8.7v0.1h-33v-38.5h33v0.1h8.7v-0.1h33.8V23.2z"/>
	<rect x="115.2" y="-15.3" width="8.7" height="38.3"/>
	<path d="M186.3,62.5c-3.9-3.8-7.3-6.8-10.3-9l-8,9h-44V46.8h48.9l1.5-2.6c-3.2-3.4-6.6-6.3-10.2-8.9l-7.3,7.7H124v-16h-8.7v16h-50
		l1.7,3.7h48.3v15.7H52.8l1.5,3.7h131.3l1.8-2.7L186.3,62.5z"/>
	<path d="M89.5-10.1l-2.2,2.3c5.5,6.5,8.5,13,9,19.4c0.3,4.3,1.7,6.4,4.3,6.4c3.5,0,5.3-2,5.3-5.9C105.9,4.5,100.5-2.9,89.5-10.1z"
		/>
	<path d="M153.6-4.7c0-1.9-4.1-4.3-12.3-7.5c-2.7,10.3-6.4,20.1-10.9,29.7l3.1,1.5c4.6-5.5,9.4-12.6,14.2-21.5
		C151.7-2.7,153.6-3.4,153.6-4.7z"/>
</g>
</svg>
