<?xml version="1.0" encoding="utf-8"?>
<!-- Generator: Adobe Illustrator 19.0.0, SVG Export Plug-In . SVG Version: 6.00 Build 0)  -->
<svg version="1.1" id="圖層_1" xmlns="http://www.w3.org/2000/svg" xmlns:xlink="http://www.w3.org/1999/xlink" x="0px" y="0px"
	 viewBox="45 -33.8 150 150" style="enable-background:new 45 -33.8 150 150;" xml:space="preserve">
<style type="text/css">
	.st0{enable-background:new    ;}
	.st1{fill:#DC6200;}
</style>
<g class="st0">
	<path d="M78.9,76.4l2.3,3.3C99,69.1,112.8,56,122.9,40.2c0.1-0.3,0.3-0.8,0.7-1.4l1.9,2c6.4,6.5,11.7,12.6,15.9,18.3
		c3.6,4.9,6.1,7.3,7.7,7.3c2.8,0,4.2-1.6,4.2-4.8c0-5.7-8.5-15.7-25.6-30.1c6.2-11.3,11.1-24,14.9-38.2c4.5-0.5,6.7-1.4,6.7-2.7
		c0-2.2-4.6-4.8-13.9-7.8c-4,17.6-8.8,32.1-14.6,43.4c-11.3-8.4-22.8-16-34.5-22.6L84,6.7c12.1,8.3,22.6,16.4,31.5,24.5l1.5,1.3
		C107.4,50.2,94.7,64.9,78.9,76.4z"/>
	<path class="st1" d="M166.3-18.2V86.4H70.8v-96c4.4-1.6,6.6-3,6.6-4.4c0-2.2-5.2-3.6-15.7-4v122h9.2V90.1h95.5v13.3h9.2v-113
		c4.2-1.4,6.3-2.8,6.3-4.2C181.7-16.1,176.6-17.6,166.3-18.2z"/>
</g>
</svg>
