<?xml version="1.0" encoding="utf-8"?>
<!-- Generator: Adobe Illustrator 19.0.0, SVG Export Plug-In . SVG Version: 6.00 Build 0)  -->
<svg version="1.1" id="圖層_1" xmlns="http://www.w3.org/2000/svg" xmlns:xlink="http://www.w3.org/1999/xlink" x="0px" y="0px"
	 viewBox="45 -33.8 150 150" style="enable-background:new 45 -33.8 150 150;" xml:space="preserve">
<style type="text/css">
	.st0{enable-background:new    ;}
	.st1{fill:#DC6200;}
</style>
<g class="st0">
	<path d="M159,45.8l-6,7.3H86.7c-3.9-1.9-7.7-3.4-11.5-4.6v54.9h9.2v-8.9h70v8.9h9V59.8l4-2.6c0.8-0.5,1.2-1.1,1.2-1.8
		C168.6,53.9,165.4,50.6,159,45.8z M154.4,90.7h-70V56.8h70V90.7z"/>
	<path class="st1" d="M183.1,1.9l1.8-3c-3.2-4.3-6.8-8.3-10.9-12l-8.3,11.3h-41.5v-18.6c4.8-1.5,7.2-3,7.2-4.3
		c0-2.2-5.4-3.6-16.3-4.1v27H56.7l1.5,3.7h56.8V31H65l1.3,3.7h106.8l1.8-3.1c-3-3.8-6.4-7.5-10.3-11.1L156.8,31h-32.7V1.9H183.1z"/>
</g>
</svg>
