<?xml version="1.0" encoding="utf-8"?>
<!-- Generator: Adobe Illustrator 19.0.0, SVG Export Plug-In . SVG Version: 6.00 Build 0)  -->
<svg version="1.1" id="圖層_1" xmlns="http://www.w3.org/2000/svg" xmlns:xlink="http://www.w3.org/1999/xlink" x="0px" y="0px"
	 viewBox="45 -33.8 150 150" style="enable-background:new 45 -33.8 150 150;" xml:space="preserve">
<style type="text/css">
	.st0{enable-background:new    ;}
	.st1{fill:#DC6200;}
</style>
<g class="st0">
	<path d="M81,18.7c0-1.5-2.6-2.7-7.8-3.6c3.8-10.2,7.3-21.8,10.5-34.8c4.1-1.1,6.2-2.2,6.2-3.3c0-2.1-4.7-4.1-14-6
		C70.3,3.8,61.5,31.6,49.3,54.2l3.1,1.9c5.2-7.8,9.8-16.1,13.9-24.9v74h8.3V22.6C78.9,21.2,81,19.9,81,18.7z"/>
	<path class="st1" d="M185.8,91.5c0-5.3,1.1-16.2,3.3-32.9l-3.6-1.9c-2.6,18.5-4.6,27.8-6,27.8c-0.9,0-2-3-3.1-8.9
		c-3.5-16.7-5.3-38.8-5.3-66.1v-20.9l3.9-2.1c1.1-0.6,1.7-1.3,1.7-1.9c0-1.4-3.1-4.6-9.2-9.4l-5.9,6.9h-56.4c0,0,0,0,0,0l-0.9,3.7
		h58.5V9.3c0,32.3,2.4,57,7.3,74.2c3.8,13.7,7.9,20.6,12.5,20.6c2.2,0,4.2-1.5,5.8-4.5C186.7,98.4,185.8,95.8,185.8,91.5z"/>
	<path d="M152.2,19l-5.2,6.2h-10.2v-19h21.1l1.8-2.9c-2.6-3.6-5.6-6.8-9-9.6l-6.4,8.7h-36.6l1.4,3.7h19.5v19h-9
		c-3.3-1.9-6.5-3.4-9.6-4.7v63h8.1V28.9h10.5v73h8.3V74.5c5.1,1.3,7.8,4,7.9,8.1c7.9-0.1,11.9-3.8,11.9-10.8V31.2l3.3-2.1
		c0.6-0.4,0.9-0.9,0.9-1.3C160.7,26.3,157.9,23.4,152.2,19z M148.6,67.3c0,2.7-1.2,4-3.7,4c-1.9,0-4.6-0.1-8.1-0.4v-42h11.8V67.3z"
		/>
	<path d="M95.7-22.2v46c0,34.8-5.3,61.6-15.9,80.6l3.3,2.1c14-17.8,21-45.3,21-82.7v-38.1h0.3l0.9-3.7
		C101.9-19.7,98.8-21.1,95.7-22.2z"/>
</g>
</svg>
