<?xml version="1.0" encoding="utf-8"?>
<!-- Generator: Adobe Illustrator 19.0.0, SVG Export Plug-In . SVG Version: 6.00 Build 0)  -->
<svg version="1.1" id="圖層_1" xmlns="http://www.w3.org/2000/svg" xmlns:xlink="http://www.w3.org/1999/xlink" x="0px" y="0px"
	 viewBox="45 -33.8 150 150" style="enable-background:new 45 -33.8 150 150;" xml:space="preserve">
<style type="text/css">
	.st0{enable-background:new    ;}
	.st1{fill:#DC6200;}
</style>
<g class="st0">
	<path class="st1" d="M162.1,54.5l-5.9,6.4H82.6c-3.4-1.6-6.8-3.1-10.2-4.3v48.6h8.7v-7.6h76.3v7.6h8.9V67.7l3.3-2.6
		c1.1-0.9,1.7-1.7,1.7-2.2C171.3,61.9,168.3,59.1,162.1,54.5z M157.5,93.9H81.2V80.3h74.4l1.8-2.9c-2.1-2.5-4.7-5.1-7.7-7.5
		l-5.1,6.7H81.2V64.7h76.3V93.9z"/>
	<path d="M177.3,38.2l-7.2,8.7h-47.2V34.5h54.3l1.5-2.9c-3.5-4.1-6.5-7.4-9.2-9.7l-6.9,8.9h-39.8v-12h31.1v4.9h8.6V2.3h22.2l1.3-2.7
		c-2.9-4.3-5.7-8.1-8.6-11.4L171-1.4h-8.3v-9.2l3.4-2.4c0.6-0.4,0.9-0.9,0.9-1.3c0-1.4-2.8-4.5-8.4-9.2l-5.9,6.7h-29.7v-5.6
		c4.1-1.4,6.2-2.7,6.2-4c0-2.4-5-3.6-14.9-3.6v13.2H71.4l1.3,3.7h41.5v11.6H53.9l1.5,3.7h58.8V15H69.9l1.7,3.7h42.6v12H61.8l1.6,3.7
		h50.8v12.5H52.8l1.7,3.7h131L187,48C184.1,44.3,180.8,41.1,177.3,38.2z M122.9-13h31.1v11.6h-31.1V-13z M122.9,2.3h31.1V15h-31.1
		V2.3z"/>
</g>
</svg>
