<?xml version="1.0" encoding="utf-8"?>
<!-- Generator: Adobe Illustrator 19.0.0, SVG Export Plug-In . SVG Version: 6.00 Build 0)  -->
<svg version="1.1" id="圖層_1" xmlns="http://www.w3.org/2000/svg" xmlns:xlink="http://www.w3.org/1999/xlink" x="0px" y="0px"
	 viewBox="45 -33.8 150 150" style="enable-background:new 45 -33.8 150 150;" xml:space="preserve">
<style type="text/css">
	.st0{enable-background:new    ;}
	.st1{fill:#DC6200;}
</style>
<g class="st0">
	<path class="st1" d="M91.6,47.4c3.7,0,5.6-2,5.6-5.9c0-3.3-1.7-6.8-5.1-10.6c-4.7-5.3-11.6-10-20.7-14.1l-1.9,2.7
		c8.7,6.7,14.5,14.6,17.2,23.9C87.4,46,89,47.4,91.6,47.4z"/>
	<path d="M150.8-5.7c0.9,3.6,2.7,5.4,5.3,5.4c3.6,0,5.4-1.9,5.4-5.6c0-3.2-1.9-6.6-5.7-10.2c-3.8-3.7-9.2-6.8-16.3-9.3l-1.7,2.7
		C145.1-17,149.4-11.4,150.8-5.7z"/>
	<path class="st1" d="M109.6,48C92.3,59.2,74.9,68.4,57.3,75.6c3.7,8.5,6.6,12.7,8.8,12.7c1.4,0,2.1-2.2,2.1-6.7
		C81.8,73.8,96,63.8,111,51.7L109.6,48z"/>
	<path d="M124.6,7.6h59l1.6-3c-2.7-3.4-6.1-7.1-10.3-10.9l-7.6,10.2h-42.8v-25.2c4.2-1.5,6.3-2.9,6.3-4.2c0-2.5-5.2-3.8-15.5-4V3.9
		h-60l1.2,3.7h58.8v5.1h9.3C124.6,12.6,124.6,7.6,124.6,7.6z"/>
	<path class="st1" d="M144.4,52.9c9.3-6.4,17.6-13.2,24.8-20.3c1.7,0.3,2.9,0.4,3.8,0.4c2.3,0,3.4-0.6,3.4-1.7
		c0-1.9-3.7-5.2-11.1-10c-6.6,9.8-14.4,19.3-23.4,28.4c-7.6-9.9-13.4-22.4-17.3-37.4h-9.3v75.3c0,3.2-1.8,4.8-5.3,4.8
		c-6.3,0-13.9-0.5-22.8-1.4V95c7.4,1.1,12.4,2.1,15,3c3.6,1.3,5.5,3.5,5.7,6.8c11,0,16.5-4.3,16.5-12.8V25.2
		c3.3,12.5,8.3,23.5,15.2,32.8c8.9,12.1,22.2,22.5,40.1,31.1c2.1-3.3,4.6-6.2,7.6-8.6C168.6,73.2,154.3,63.9,144.4,52.9z"/>
</g>
</svg>
