<?xml version="1.0" encoding="utf-8"?>
<!-- Generator: Adobe Illustrator 19.0.0, SVG Export Plug-In . SVG Version: 6.00 Build 0)  -->
<svg version="1.1" id="圖層_1" xmlns="http://www.w3.org/2000/svg" xmlns:xlink="http://www.w3.org/1999/xlink" x="0px" y="0px"
	 viewBox="45 -33.8 150 150" style="enable-background:new 45 -33.8 150 150;" xml:space="preserve">
<style type="text/css">
	.st0{enable-background:new    ;}
	.st1{fill:#DC6200;}
</style>
<g class="st0">
	<path d="M163.9-13c0.4,3.7,2,5.6,4.8,5.6c3.4,0,5.1-1.8,5.1-5.4c0-6-5.3-11.4-15.9-16.3l-2.1,2.3C160.4-22.6,163.1-17.9,163.9-13z"
		/>
	<path class="st1" d="M125.9,89.8c2.4,0,3.6-1.4,3.6-4.3c0-3.5-2.7-7.4-10-11.7c4.4-6.7,10.9-17.2,13-28.5c1-0.6,3.2-1.1,3.3-2.9
		c-0.1-1.8-5.7-6.4-9.1-9l-6,8.1H103c0.5-2.1,1.3-5,2.4-8.7c4.1-0.4,6.2-1.2,6.2-2.3c0-1.9-4.1-3.8-12.3-5.9
		c-1.7,7-3.2,12.6-4.6,16.9H78.3l1.7,3.7h13.5c-3.3,9.9-7,19.1-11.1,27.6l7.2,3c1.2-2.4,2.5-5.4,4-8.9c5.7,2.8,10.7,5.7,15,8.7
		c-7.7,8.7-19.2,17.1-30.5,21.1l1.8,3.5c15.2-4,27.2-12.1,34.8-19.8c2.6,2.3,4.5,4.2,5.9,5.9C122.6,88.6,124.3,89.8,125.9,89.8z
		 M112.7,70.1c-5.4-2.5-11.9-4.7-17.6-6.6c2.7-6.9,5-13,6.7-18.3h22.1C122.4,54,117,64.3,112.7,70.1z"/>
	<path d="M184.2,86.5c0-3.9,0.5-11.4,1.5-22.7l-3.9-2.5C179.4,79.8,177.1,89,175,89c-0.8,0-1.9-0.9-3.3-2.6
		c-5.4-6.5-9.7-13-12.9-19.5l-0.6-1.5c6.4-10.5,12.1-22.7,17.1-36.5c4.4,0,6.7-0.6,6.7-1.9c0-2-4.1-5.1-12.2-9.3
		c-3.7,13.6-8.8,26.6-15.2,39.1c-4-14-6.6-32.1-8-54.5H184l1.5-2.8c-3-3.9-5.8-6.9-8.3-8.9l-6.2,8h-24.6c-0.3-4.6-0.4-10.8-0.4-18.6
		v-1.8c3.4-1.3,5.1-2.5,5.1-3.6c0-2.1-4.5-3.4-13.6-3.9v8.9c0,6.3,0.1,12.3,0.4,18.2v1.7H76.6c-4.3-2.3-7.9-4-10.8-5v42.8
		c0,28.8-4.9,50.6-14.7,65.4l3,2.4c7.9-8.5,13.4-18.5,16.3-29.9c2.7-10.2,4.1-22.9,4.1-37.9V3.3h63.7c1.5,24.7,5.2,45.6,11.1,62.7
		c-8.6,14.7-18.9,26.5-30.7,35.4l2.4,3c12.8-8,23.5-18.1,32.2-30.4c5.4,10.4,11.3,18.4,17.7,24c4.2,3.5,7.8,5.3,10.6,5.3
		c3.5,0,5.9-2.1,7.1-6.2C185.7,95.7,184.2,92.2,184.2,86.5z"/>
	<path d="M133.6,18.7l-1.3-1.6c-3.1-3.6-5.6-6.1-7.4-7.5l-6.6,8.3h-39l1.8,3.7H132L133.6,18.7z"/>
</g>
</svg>
