<?xml version="1.0" encoding="utf-8"?>
<!-- Generator: Adobe Illustrator 19.0.0, SVG Export Plug-In . SVG Version: 6.00 Build 0)  -->
<svg version="1.1" id="圖層_1" xmlns="http://www.w3.org/2000/svg" xmlns:xlink="http://www.w3.org/1999/xlink" x="0px" y="0px"
	 viewBox="45 -33.8 150 150" style="enable-background:new 45 -33.8 150 150;" xml:space="preserve">
<style type="text/css">
	.st0{enable-background:new    ;}
	.st1{fill:#DC6200;}
</style>
<g class="st0">
	<path d="M134.8,80.7h8.3V44.5l3.4-2.1c1.1-0.8,1.7-1.5,1.7-2.1c0-1.4-3.2-4.4-9.7-9l-5.2,6.6h-27c-2.7-1.3-6.2-2.9-10.5-4.6v49.1
		h8.4V72h30.5V80.7z M104.3,68.2V41.7h30.5v26.6H104.3z"/>
	<path class="st1" d="M175.8-6.5c-2.6-2.3-6.4-4.8-11.4-7.6c-5.8-3.2-11.4-5.6-16.6-7.4l-1.7,3c4.9,3.1,9.5,6.6,13.8,10.5
		c5.5,4.9,9.3,9.4,11.5,13.3c1.7,3.2,3.6,4.8,5.9,4.8c3.2,0,4.8-2.3,4.8-6.9C182.1,0.5,180-2.8,175.8-6.5z"/>
	<path class="st1" d="M69.5,11c8.3-7.7,15-15.5,20.2-23.4c4.6,0,6.9-0.7,6.9-2.1c0-2.2-4.4-5.2-13.2-9.2C76-6.5,66.5,7.4,54.9,18
		l2.4,2.9c3.6-2.4,7.2-5.2,10.6-8.4v0.1L69.5,11C69.5,11,69.5,11,69.5,11z"/>
	<path class="st1" d="M124.6-21.6c4.2-1.4,6.3-2.7,6.3-3.9c0-2.2-5.1-3.6-15.2-4v44.9h8.9V-21.6z"/>
	<path d="M167.9,8.1l-5.9,7.3h-37.4v0h-8.9v0h-37c-1.2-0.7-4.3-2.2-9.3-4.5l-1.6,1.5v92.7h8.9V19.2h86.6v66.4c0,3.3-1.9,4.9-5.7,4.9
		c-7.8,0-15.7-0.5-23.9-1.5v4.2c7.6,1.2,12.9,2.3,16,3.4c3.7,1.3,5.6,3.5,5.7,6.6c11.1,0.1,16.7-4.4,16.7-13.8V22l3.9-2.6
		c1-0.7,1.5-1.4,1.5-2.1C177.6,15.8,174.4,12.7,167.9,8.1z"/>
</g>
</svg>
