<?xml version="1.0" encoding="utf-8"?>
<!-- Generator: Adobe Illustrator 19.0.0, SVG Export Plug-In . SVG Version: 6.00 Build 0)  -->
<svg version="1.1" id="圖層_1" xmlns="http://www.w3.org/2000/svg" xmlns:xlink="http://www.w3.org/1999/xlink" x="0px" y="0px"
	 viewBox="45 -33.8 150 150" style="enable-background:new 45 -33.8 150 150;" xml:space="preserve">
<style type="text/css">
	.st0{enable-background:new    ;}
	.st1{fill:#DC6200;}
</style>
<g class="st0">
	<path class="st1" d="M137.8-7.3l-2.1,3.1c9,7.1,16.8,14.4,23.4,21.9l-19.2,1.5c-13.7,0.9-27.4,1.7-41.1,2.3l-9.2,0.3
		C100,8.9,108.5-4,115.2-16.9c4.8-0.3,7.2-1.2,7.2-2.6c0-2.3-4.7-5-14.1-8.1C100.9-7.8,92.9,8.8,84.4,22l-12,0.3
		c-1.6,0-3.8,0.1-6.7,0.1c-3.3,0-5.7,0.1-7.3,0.1c1.4,9.9,3.1,14.9,5.1,14.9c1.2,0,2.5-2,3.9-5.9c35.7-2.7,66.1-5.8,91.2-9.3
		l3.7-0.4c3.1,4,5.7,7.6,7.7,10.8c2.3,4,4.5,6,6.4,6c3.3,0,4.9-1.8,4.9-5.4C181.5,24.1,166.9,10.6,137.8-7.3z"/>
	<path d="M158.9,41.1l-5.7,6.9H87.9c-3.2-1.7-7-3.4-11.4-5.1v61.1h9.2V92.6h68.7v11.3h9V55.1l3.7-2.4c0.9-0.6,1.4-1.2,1.4-1.9
		C168.5,49.2,165.3,45.9,158.9,41.1z M154.4,88.9H85.6V51.7h68.7V88.9z"/>
</g>
</svg>
