<?xml version="1.0" encoding="utf-8"?>
<!-- Generator: Adobe Illustrator 19.0.0, SVG Export Plug-In . SVG Version: 6.00 Build 0)  -->
<svg version="1.1" id="圖層_1" xmlns="http://www.w3.org/2000/svg" xmlns:xlink="http://www.w3.org/1999/xlink" x="0px" y="0px"
	 viewBox="45 -33.8 150 150" style="enable-background:new 45 -33.8 150 150;" xml:space="preserve">
<style type="text/css">
	.st0{enable-background:new    ;}
	.st1{fill:#DC6200;}
</style>
<g class="st0">
	<path d="M64.3,22.9c1.2,3.4,2.9,5.1,5.2,5.1c3.3,0,5-2,5-5.9c0-7-7-12.6-21-16.6L52,8.2C58.4,12.6,62.5,17.5,64.3,22.9z"/>
	<path class="st1" d="M135.9,46.3l-0.7-1.3h51.1l1.5-2.9c-2.2-3.1-5.1-6.7-8.6-10.6l-6.8,9.7h-7.8v-0.1h-8.4v0.1h-23.4
		c0.2-2.3,0.4-4.9,0.4-7.6h-8.9c-0.1,2.4-0.2,5-0.4,7.6H87l1.5,3.7h35.1c-3.8,26.3-17.8,45.3-42,56.8l2,3.4
		c28.6-9.6,44.7-28.7,48.5-57.1c9,23.5,24.7,41.5,47.2,54c2.6-3.8,5.3-6.6,8.2-8.5C164.2,83.8,147,68,135.9,46.3z"/>
	<path d="M133.2,31.6V3.1h22.9v37.9h8.4V5.8l4-2.6c0.7-0.4,1.1-1,1.1-1.6c0-1.4-3.1-4.7-9.2-9.9l-6,7.6h-21.3v-21
		c4.2-1.7,6.3-3.1,6.3-4.5c0-2.2-5.1-3.4-15.2-3.7v29.2h-23.2l1.5,3.7h21.8v28.3c0,0.7,0,1.4,0,2.1h8.9
		C133.2,32.9,133.2,32.3,133.2,31.6z"/>
	<path d="M76.6-10c1.2,3.2,2.8,4.8,4.8,4.8c3.6,0,5.4-2,5.4-6c0-6.9-7.3-12.1-22-15.7l-1.6,3C70.2-19.8,74.7-15.2,76.6-10z"/>
	<path d="M73.8,75.7c0-2.7,0.8-6.3,2.3-10.6l23.8-69L96-6.6C87.3,18.1,78.7,38.9,70,55.8c-2.6,5-6.3,7.5-11.1,7.5
		c-1.4,0-3.3-0.1-5.6-0.4v3.9c3.5,0.4,6,1.2,7.7,2.3c3.2,2.1,4.8,6.4,4.8,12.7c0,3.2-0.2,6.2-0.6,8.8c-0.7,5.2-1,8.2-1,9.2
		c0,3.5,1.9,5.3,5.6,5.3c4.5,0,6.7-3.2,6.7-9.6c0-3.7-0.6-8.3-1.8-13.8C74.1,79.2,73.8,77.2,73.8,75.7z"/>
</g>
</svg>
