<?xml version="1.0" encoding="utf-8"?>
<!-- Generator: Adobe Illustrator 19.0.0, SVG Export Plug-In . SVG Version: 6.00 Build 0)  -->
<svg version="1.1" id="圖層_1" xmlns="http://www.w3.org/2000/svg" xmlns:xlink="http://www.w3.org/1999/xlink" x="0px" y="0px"
	 viewBox="45 -33.8 150 150" style="enable-background:new 45 -33.8 150 150;" xml:space="preserve">
<style type="text/css">
	.st0{enable-background:new    ;}
	.st1{fill:#DC6200;}
</style>
<g class="st0">
	<path d="M175.9,87l-8.2,9.4h-43.4V78.7h46.2l1.9-2.6c-2.7-3.1-6.1-6.4-10.2-9.9l-7.5,8.7h-30.5v-16c14.2-0.7,26-1.5,35.5-2.6
		c5.7,1.4,8.6,1.3,8.6-0.3c0-1.7-3.4-4.7-10.3-8.9c-9.2,2.3-20.4,4.2-33.5,5.6c-12.4,1.3-30.4,2.6-53.9,3.8l1.9,3.7
		c18.8-0.3,33.1-0.7,42.9-1V75H68.1l1.6,3.7h45.8v17.7H52.6l1.5,3.7h131l1.8-2.9C183.6,93.7,179.9,90.3,175.9,87z"/>
	<path d="M107.3,32.9c-0.8,0-1.5,0-2.2,0.1c-4.5,0.5-10.4,0.8-17.4,0.8c-9.6,0-15.1-0.2-16.6-0.7C69.7,32.6,69,31,69,28.3V-5.2h50.6
		l1.5-2.7c-2.6-3.5-5.7-6.8-9.1-9.9l-7.1,8.9H91.7v-11.9c4-1.3,6-2.6,6-3.9c0-2.1-4.9-3.3-14.6-3.6v19.3H70.3
		c-4.7-2.2-8-3.7-9.9-4.3v44.7c0,4.2,1,7,3,8.3c2.1,1.3,11,2,27,2c10.1,0,16.5-0.2,19.3-0.7c1.9-0.4,2.9-1.3,2.9-2.6
		C112.5,34.8,110.8,32.9,107.3,32.9z"/>
</g>
<g>
	<path class="st1" d="M115.7,48c25.7-10.2,44.4-25.5,56.1-45.9l1.5-2.9c1.3-2.5,2.6-5.5,3.9-8.8l3.8-1.4c1-0.3,1.5-0.7,1.5-1.3
		c0-1.2-3-3.7-8.9-7.8L168-15h-21.1c0.8-1,2-3.2,2.4-4.1c4.4-0.6,7.6-2.3,7.6-3.3c0-1.4-4.6-4.1-13.8-6c-5.9,18.9-16.8,34-32.7,47.2
		l2.6,2.2c5.7-3.7,10.5-7.6,14.5-11.5c5.5,4.1,8.9,7.9,10.4,11.6c1,2.5,2.5,3.8,4.5,3.8c0.8,0,1.5-0.1,2.1-0.4
		c-8.5,8-18.9,15-31.1,21L115.7,48z M145.3-12.2h23.4c-2.4,7.1-6,14.1-10.5,21c0.1-0.4,0.1-0.8,0.1-1.4c0-4.3-6-8.3-18.1-11.9
		C141.9-7,143.6-9.5,145.3-12.2z M130,7.2c3.5-3.6,6.2-6.6,8.3-9.1c5.9,3.3,9.6,6.6,11.2,9.7c1.1,2.1,2.6,3.1,4.5,3.1
		c1.5,0,2.6-0.3,3.3-0.8c-3.3,4.5-6.9,8.7-10.8,12.6c0.2-0.5,0.3-1,0.3-1.6C146.8,16.5,141.2,11.8,130,7.2z"/>
</g>
</svg>
