<?xml version="1.0" encoding="utf-8"?>
<!-- Generator: Adobe Illustrator 19.0.0, SVG Export Plug-In . SVG Version: 6.00 Build 0)  -->
<svg version="1.1" id="圖層_1" xmlns="http://www.w3.org/2000/svg" xmlns:xlink="http://www.w3.org/1999/xlink" x="0px" y="0px"
	 viewBox="45 -33.8 150 150" style="enable-background:new 45 -33.8 150 150;" xml:space="preserve">
<style type="text/css">
	.st0{enable-background:new    ;}
	.st1{fill:#DC6200;}
</style>
<g class="st0">
	<path class="st1" d="M76.9,30.2h38.1v15.5h8.9V30.2h38.7V40h8.9V0l3.6-2.4c0.8-0.5,1.2-1.1,1.2-1.8c0-1.4-3.1-4.6-9.3-9.6l-6.1,7
		h-37v-12.6c4.8-1.5,7.2-3,7.2-4.3c0-2.2-5.3-3.5-16-3.7v20.6H79.4c-4.1-2.1-7.8-3.8-11.3-5v53h8.7V30.2z M123.8-3h38.7v29.5h-38.7
		V-3z M76.9-3h38.1v29.5H76.9V-3z"/>
	<path d="M108.6,49.3c8.8,7,14.7,14.4,17.6,22c1.2,3.4,3,5.1,5.3,5.1c3.3,0,5-1.9,5-5.6c0-8-8.6-16-25.9-24.2L108.6,49.3z"/>
	<path d="M156.3,52.8l-2.1,2.7c10.7,8.8,17.6,18,20.7,27.5c1.3,3.7,3.2,5.6,5.6,5.6c3.7,0,5.6-2.1,5.6-6.2
		C186.1,72.7,176.2,62.8,156.3,52.8z"/>
	<path d="M154.8,87.7c-0.9-2.4-1.3-7.7-1.3-15.9l-4.2-1.5c-1.4,12.6-3.5,19.5-6.4,20.6c-2.1,0.9-9.9,1.3-23.4,1.3
		c-9.1,0-14.5-0.2-16.3-0.7c-1.7-0.6-2.6-2.2-2.6-4.8V60.5c4.2-1.3,6.3-2.6,6.3-3.9c0-2.1-5.1-3.4-15.2-4.2v36.4
		c0,5,1.1,8.2,3.4,9.6c2.6,1.4,11.8,2.1,27.5,2.1c15.9,0,26.2-0.6,30.9-1.7c4.1-1,6.3-3.8,6.4-8.2C157.3,90.7,155.6,89.7,154.8,87.7
		z"/>
	<path d="M58.5,84c-3.3,1.9-5,3.8-5,5.6c0,3.6,1.8,5.4,5.4,5.4c3.4,0,7-2.5,10.8-7.5c5.4-7.1,8.3-16.8,8.7-29.2l-3.6-1.2
		C72.3,69.9,66.9,78.8,58.5,84z"/>
</g>
</svg>
