<?xml version="1.0" encoding="utf-8"?>
<!-- Generator: Adobe Illustrator 19.0.0, SVG Export Plug-In . SVG Version: 6.00 Build 0)  -->
<svg version="1.1" id="圖層_1" xmlns="http://www.w3.org/2000/svg" xmlns:xlink="http://www.w3.org/1999/xlink" x="0px" y="0px"
	 viewBox="45 -33.8 150 150" style="enable-background:new 45 -33.8 150 150;" xml:space="preserve">
<style type="text/css">
	.st0{enable-background:new    ;}
	.st1{fill:#DC6200;}
</style>
<g class="st0">
	<path class="st1" d="M79.6,65.7V14.8h18.9l1.7-3c-2.7-3.9-5.5-7.4-8.6-10.6L84.9,11h-5.3v-30.8c4.4-1.7,6.6-3.1,6.6-4.3
		c0-2.2-5.1-3.4-15.3-3.6V11H51.3l1.2,3.7h18.5v53.8c-6.3,2.1-9.9,3.7-14.6,4.8c2.5,8.4,4.8,12.6,6.9,12.6c1.4,0,2.3-2,2.7-5.9
		c9.1-4.7,19.4-11.7,29-17.5l-0.7-3.7C90.5,60.7,84.7,63.7,79.6,65.7z"/>
	<path d="M170.3,32.1l-5.2,5.9H120c-4.2-2-7.3-3.4-9.6-4.3v71.6h8.6V74.5h47.3v13.3c0,3.4-2,5.1-5.9,5.1c-5.6,0-11.5-0.4-17.8-1.1
		v4.2c6.7,0.9,11.3,1.7,13.8,2.6c3,1.1,4.5,3,4.5,5.7c2.8,0,5.4-0.5,7.8-1.5c4.1-1.7,6.2-5.8,6.2-12.5V44.5l3.3-2.3
		c0.8-0.5,1.2-1,1.2-1.6C179.3,39.3,176.3,36.4,170.3,32.1z M166.3,70.8H119V57.5h47.3V70.8z M166.3,53.8H119V41.7h47.3V53.8z"/>
	<path d="M165.4,21.8c-7.1,0-13.8-0.5-20.1-1.6V3.9h30.5l1.9-3c-2.7-2.7-4.5-4.4-5.3-5.1c3.5-3,6.3-6,8.5-8.9l4.4-1.2
		c1.1-0.3,1.6-0.9,1.6-1.5c0-1.6-3.4-5.2-10.2-10.9l-5.4,6.7H95.4l1.3,3.7h40.2v34.4c-7.8-2.6-14-6.6-18.6-12.1
		c1-2.6,1.8-5.2,2.4-7.5c3.9-0.9,5.9-1.9,5.9-3.1c0-2.1-4.3-4.1-13-6C109.9,8.7,103,24.5,92.7,36.5l2.7,2.6
		c9.4-8.2,16.5-17.7,21.2-28.6c8.9,12.7,26.6,19,53.1,19h14.2c0.6-3,1.9-6,4-9C179.2,21.4,171.8,21.8,165.4,21.8z M145.3-16.3h27
		c-1,3.8-2,7.1-3.1,9.8l-0.3-0.1l-6.2,6.7h-17.4V-16.3z"/>
</g>
</svg>
