<?xml version="1.0" encoding="utf-8"?>
<!-- Generator: Adobe Illustrator 19.0.0, SVG Export Plug-In . SVG Version: 6.00 Build 0)  -->
<svg version="1.1" id="圖層_1" xmlns="http://www.w3.org/2000/svg" xmlns:xlink="http://www.w3.org/1999/xlink" x="0px" y="0px"
	 viewBox="45 -33.8 150 150" style="enable-background:new 45 -33.8 150 150;" xml:space="preserve">
<style type="text/css">
	.st0{enable-background:new    ;}
	.st1{fill:#DC6200;}
</style>
<g class="st0">
	<path d="M146.3,8.2c-2.4-2.9-5.8-6.3-10.2-10.2l-7.7,9.4h-60l1.8,3.7h74.1L146.3,8.2z"/>
	<path class="st1" d="M166.1-23.4l-6.2,7.3H60.8l1.3,3.7h99.3v99.5c0,1.8-0.3,3.1-1,3.9c-0.7,0.9-2.7,1.3-6,1.3
		c-8.3,0-16.1-0.3-23.3-1v4c9.3,1.2,15.5,2.4,18.7,3.6c2.9,1.2,4.5,3.1,4.6,5.6c10.7,0,16-4.3,16-12.9V-8.9l4-2.4
		c1-0.5,1.5-1.2,1.5-2.1C176-14.8,172.7-18.2,166.1-23.4z"/>
	<path d="M131.9,78.9V37.5l3.8-2.4c0.8-0.5,1.2-1.1,1.2-1.8c0-1.5-3.1-4.4-9.2-8.9l-5.4,6.6H88.9c-3.8-2.1-7.3-3.9-10.5-5.1v56.7
		h8.8v-13h36.2v9.3H131.9z M87.1,65.8V34.8h36.2v31.1H87.1z"/>
</g>
</svg>
