<?xml version="1.0" encoding="utf-8"?>
<!-- Generator: Adobe Illustrator 19.0.0, SVG Export Plug-In . SVG Version: 6.00 Build 0)  -->
<svg version="1.1" id="圖層_1" xmlns="http://www.w3.org/2000/svg" xmlns:xlink="http://www.w3.org/1999/xlink" x="0px" y="0px"
	 viewBox="45 -33.8 150 150" style="enable-background:new 45 -33.8 150 150;" xml:space="preserve">
<style type="text/css">
	.st0{enable-background:new    ;}
	.st1{fill:#DC6200;}
</style>
<g class="st0">
	<path class="st1" d="M130.3,60.5c2.2,1.1,7.2,1.7,14.9,1.7c7.7,0,13-0.6,16-1.8c2.4-1,3.7-3.6,3.9-7.9c-2.3,0-3.7-1.2-4.3-3.5
		c-0.7-2.3-1.1-8.7-1.1-19.2l-3.9-1.3c-0.7,10.4-1.7,17.5-2.9,21.3c-0.7,3.1-3.8,4.7-9.2,4.7c-5.6,0-8.4-1.7-8.4-5V-5.8h-8.4v58.1
		C126.9,56.4,128,59.2,130.3,60.5z"/>
	<path d="M172.8-17.1l-6,7.5H72c-5.3-2.4-8.8-4-10.5-4.7V99.1h8.9v-9.9h97.8v9.9h8.7V-2.7l3.9-2.6c1-0.7,1.5-1.3,1.5-1.9
		C182.3-8.6,179.1-11.9,172.8-17.1z M168.1,85.5H70.3V-5.9h27.3v0.1h8.9v-0.1h20.4v0.1h8.4v-0.1h32.8V85.5z"/>
	<path class="st1" d="M95,33.2c-3.1,13.7-10.2,25.4-21.3,35.3l2.7,3c11.1-7.8,18.8-16.4,23.1-25.9c4.7-10.3,7-24.2,7-41.7v-9.8h-8.9
		v9.9C97.7,15.6,96.8,25.3,95,33.2z"/>
</g>
</svg>
