<?xml version="1.0" encoding="utf-8"?>
<!-- Generator: Adobe Illustrator 19.0.0, SVG Export Plug-In . SVG Version: 6.00 Build 0)  -->
<svg version="1.1" id="圖層_1" xmlns="http://www.w3.org/2000/svg" xmlns:xlink="http://www.w3.org/1999/xlink" x="0px" y="0px"
	 viewBox="45 -33.8 150 150" style="enable-background:new 45 -33.8 150 150;" xml:space="preserve">
<style type="text/css">
	.st0{enable-background:new    ;}
	.st1{fill:#DC6200;}
</style>
<g class="st0">
	<path d="M88.5,67.6h60.9v12.3h9.2V-8.4l3.4-2.3c1-0.7,1.5-1.3,1.5-1.9c0-1.5-3.2-4.7-9.7-9.7l-5.6,6.9H90.3
		c-5.9-2.9-9.6-4.6-11-5.1V81.1h9.2V67.6z M88.5-11.7h60.9v34.6H88.5V-11.7z M88.5,26.6h60.9v37.2H88.5V26.6z"/>
	<path class="st1" d="M175.4,84.2l-8.7,11H53l1.3,3.7h130.5l1.8-3C183,91.9,179.3,88,175.4,84.2z"/>
</g>
</svg>
