<?xml version="1.0" encoding="utf-8"?>
<!-- Generator: Adobe Illustrator 19.0.0, SVG Export Plug-In . SVG Version: 6.00 Build 0)  -->
<svg version="1.1" id="圖層_1" xmlns="http://www.w3.org/2000/svg" xmlns:xlink="http://www.w3.org/1999/xlink" x="0px" y="0px"
	 viewBox="45 -33.8 150 150" style="enable-background:new 45 -33.8 150 150;" xml:space="preserve">
<style type="text/css">
	.st0{enable-background:new    ;}
	.st1{fill:#DC6200;}
</style>
<g class="st0">
	<path d="M83.6-13.3c-2.1,12.2-5.2,24-9.3,35.5l-3,0.3c-2.5,0.1-7,0.4-13.4,0.8c1.8,9.1,3.8,13.6,6,13.6c1.2,0,2.1-1.9,2.9-5.7
		c16.7-2.2,33.6-5.2,50.8-9c0.9,2,1.7,4.1,2.3,6.3c1.4,4.2,3.1,6.3,5.1,6.3c3.3,0,4.9-2,4.9-6c0-3.3-1.7-7.5-5-12.5
		c-4.7-7-11.9-13.7-21.4-20.2l-2.4,2.6c6.2,6.5,11.1,13,14.6,19.5c-8.7,1.3-20.8,2.5-36.2,3.7C85.4,11.3,90.3,0,94.2-12l0.4-1.3
		h37.1l1.5-2.9c-3.1-3.8-6.4-7.2-9.9-10.2l-7.6,9.3H53.9l1.5,3.7H83.6z"/>
	<path d="M97.7,84V59.7h29.5l2-3c-3.3-4.1-6.5-7.5-9.6-10l-6.9,9.3h-15V41.1c4.1-1.5,6.2-2.9,6.2-4.2c0-2.1-4.9-3.3-14.7-3.7v22.8
		H58.6l1.5,3.7h28.9v25.6c-10.8,1.7-22.4,3.1-34.6,4.2c2.4,9.4,4.7,14.1,6.9,14.1c1.3,0,2.3-2,3-6c21.7-3.8,44.8-9.2,69.4-16
		l-1.1-4.3C120.8,79.8,109.1,82.1,97.7,84z"/>
	<path class="st1" d="M171-27.5V87.3c0,3-2,4.5-5.9,4.5c-5,0-11.5-0.4-19.5-1.3v4c7,1.2,11.8,2.3,14.4,3.4c3,1.4,4.5,3.4,4.5,6.2
		c10.1,0,15.2-4.1,15.2-12.3V-19.1c4.1-1.4,6.2-2.7,6.2-4.1C185.8-25.3,180.9-26.8,171-27.5z"/>
	<path d="M149.6-4.2c4.2-1.4,6.3-2.7,6.3-4.1c0-2.2-4.9-3.6-14.7-4v85h8.4V-4.2z"/>
</g>
</svg>
