<?xml version="1.0" encoding="utf-8"?>
<!-- Generator: Adobe Illustrator 19.0.0, SVG Export Plug-In . SVG Version: 6.00 Build 0)  -->
<svg version="1.1" id="圖層_1" xmlns="http://www.w3.org/2000/svg" xmlns:xlink="http://www.w3.org/1999/xlink" x="0px" y="0px"
	 viewBox="45 -33.8 150 150" style="enable-background:new 45 -33.8 150 150;" xml:space="preserve">
<style type="text/css">
	.st0{enable-background:new    ;}
	.st1{fill:#DC6200;}
</style>
<g class="st0">
	<path d="M148,70.2c8.3-13.5,15.8-29.8,22.7-49.1c4.2-0.3,6.3-1.1,6.3-2.5c0-2.5-4.9-5.4-14.7-8.6c-4.5,21.2-10.4,40.7-17.6,58.4
		L148,70.2z"/>
	<path class="st1" d="M176.6,81.4l-8.3,11.3h-30V-13.4c4.3-1.6,6.4-3.1,6.4-4.6c0-2.6-5.2-4.1-15.5-4.5V92.7h-19.9V-13.1
		c4.2-1.7,6.3-3.1,6.3-4.5c0-2.3-5.1-3.7-15.3-4.1V92.7H52.8l1.8,3.7h131.3l2-3C184.6,89.5,180.9,85.5,176.6,81.4z"/>
	<path d="M83.2,70.7c3.8,0,5.7-2.6,5.7-7.9c0-6.7-1.5-14.9-4.5-22.6c-3.8-9.5-9.5-19.8-17.2-28.9l-3,2c8.1,15,12.9,33,14.4,49.8
		C79.1,68.1,80.6,70.7,83.2,70.7z"/>
</g>
</svg>
