<?xml version="1.0" encoding="utf-8"?>
<!-- Generator: Adobe Illustrator 19.0.0, SVG Export Plug-In . SVG Version: 6.00 Build 0)  -->
<svg version="1.1" id="圖層_1" xmlns="http://www.w3.org/2000/svg" xmlns:xlink="http://www.w3.org/1999/xlink" x="0px" y="0px"
	 viewBox="45 -33.8 150 150" style="enable-background:new 45 -33.8 150 150;" xml:space="preserve">
<style type="text/css">
	.st0{enable-background:new    ;}
	.st1{fill:#DC6200;}
</style>
<g class="st0">
	<path class="st1" d="M125.1,31c4.3-1.5,6.4-2.9,6.4-4.2c0-2.2-5.1-3.6-15.3-4.1v27.4h8.9V31z"/>
	<path class="st1" d="M172.4,48.4c-2.5-3.8-5.8-7.4-9.7-11.1l-8.1,10.3H71.5v3.7h99.3L172.4,48.4z"/>
	<path d="M79.9,47.7c10.7-12.3,20-27,27.8-44h68.6l1.5-2.7c-3-3.8-6.3-7.5-10-11.1l-7.8,10h-50c2.5-6.8,5-12.8,7.4-18.2
		c5.6-0.5,8.3-1.8,8.3-3.7c-0.1-2.4-5.3-4.2-15.6-5.3c-2.5,8.6-5.9,17.6-10.2,27.1H60.7l1.6,3.7h35.2c-9.3,20.7-20.9,37.7-34.6,51.3
		l5.5,4.9l8.2-8.4L79.9,47.7z"/>
</g>
<g>
	<path class="st1" d="M116.3,87.8c0,3-1.7,4.5-5.1,4.5c-4.8,0-11.5-0.4-20-1.3v4c7.3,1.2,12.1,2.2,14.2,3c3.1,1.1,4.8,3.2,4.9,6.3
		c2.4-0.2,4.9-0.6,7.3-1.2c4.9-1.5,7.4-5.9,7.4-13.3V46.7h-8.7V87.8z"/>
	<path class="st1" d="M98.3,59.7c-9.9,11.3-20.1,22.6-32.7,28.5c-4.9,2.3-9.3,5.6-7.6,8.7c1.4,2.5,5.3,2.8,11.8-1.2
		c11.5-7,22.1-19,31.8-34L98.3,59.7z"/>
</g>
<g>
	<path class="st1" d="M176.5,81.3c-9.2-7.2-21-14.7-36.8-21.5l-2,3.2c17.3,10.3,29.3,20.6,37.9,31.1c2.9,3.3,5.6,4.2,7.3,4.2
		c1.8,0,3.3-1.4,3.3-3.9C186.2,91.9,183.7,87.3,176.5,81.3z"/>
</g>
</svg>
