<?xml version="1.0" encoding="utf-8"?>
<!-- Generator: Adobe Illustrator 19.0.0, SVG Export Plug-In . SVG Version: 6.00 Build 0)  -->
<svg version="1.1" id="圖層_1" xmlns="http://www.w3.org/2000/svg" xmlns:xlink="http://www.w3.org/1999/xlink" x="0px" y="0px"
	 viewBox="45 -33.8 150 150" style="enable-background:new 45 -33.8 150 150;" xml:space="preserve">
<style type="text/css">
	.st0{enable-background:new    ;}
	.st1{fill:#DC6200;}
</style>
<g class="st0">
	<path d="M169.5,74.5c1.5,5.6,3.5,8.4,5.9,8.4c3.5,0,5.3-2.2,5.3-6.7c0-4.4-1.9-10.4-5.8-18.1c-5.6-11.2-13.7-21.9-24.2-32
		C159.2,15.3,167,2.6,174.1-12c4.5,0,6.7-0.8,6.7-2.3c0-2.2-4.6-4.9-13.8-8.2c-5.4,17.5-12.5,33.8-21.5,48.7
		C156.9,41.1,164.9,57.2,169.5,74.5z"/>
	<path d="M141.5,74.2c1.2,5.4,3,8.1,5.4,8.1c3.4,0,5.1-2.2,5.1-6.7c0-4.6-2-11-6.1-19.1c-5.3-10.8-12.2-20.6-20.8-29.5
		c7.6-11.2,14.8-24.4,21.5-39.6c4.5-0.5,6.7-1.4,6.7-2.7c0-2.1-4.7-4.7-14-7.5c-5.5,19.7-12,36.3-19.3,50
		C130.2,40.7,137.4,56.4,141.5,74.2z"/>
	<path d="M112.4,74.5c0.5,3.2,1.1,5.5,1.8,6.7c0.8,1.4,2.1,2.1,3.9,2.1c3.2,0,4.8-2.4,4.8-7.2c0-5-1.7-11.5-5.1-19.3
		c-4.6-11-11-20.9-19.3-29.7c8.4-12.5,15.2-25.9,20.4-40.3c4.2-0.5,6.3-1.4,6.3-2.7c0-2.1-4.7-4.6-14.1-7.3
		c-4.2,18.4-9.9,35.1-17.2,50.1C103.9,42.5,110.1,58.4,112.4,74.5z"/>
	<path class="st1" d="M68.9,23.6c0.7,4,2.4,6,5,6c3.9,0,5.9-2,5.9-6c0-3.2-1.6-6.3-4.9-9.3C71.2,11,66.3,8.3,60,6.1L57.9,9
		C64.3,13.9,67.9,18.8,68.9,23.6z"/>
	<path class="st1" d="M147.5,93.4c-21.2,0-35.5-0.9-42.9-2.6c-4.5-1-8.2-2.5-11.1-4.4c-3.7-2.4-6.6-6-8.9-10.6V54.5l3.6-2.1
		c0.9-0.4,1.4-1,1.4-1.8c0-1.6-3.1-4.7-9.2-9.3l-5.7,6.9h-22l1.7,3.7h21.8v29c-8,5.4-15.9,9.6-23.7,12.5c4.1,7.8,7.1,11.6,9.2,11.6
		c1.3,0,2-2,2-6c7.3-5.9,13.6-11.9,18.9-18.1c4.9,9.5,12.9,15.4,24,17.8c8.1,1.8,24.1,2.7,48,2.7h28.6c0.9-3.8,2.6-7.2,5.1-10.2
		C172.4,92.7,158.8,93.4,147.5,93.4z"/>
	<path class="st1" d="M75-8.6c0.7,4,2.4,6,5,6c3.9,0,5.9-2,5.9-6c0-3.2-1.6-6.3-4.9-9.4c-3.6-3.3-8.5-6-14.8-8.2L64-23.3
		C70.5-18,74.2-13.1,75-8.6z"/>
</g>
</svg>
