<?xml version="1.0" encoding="utf-8"?>
<!-- Generator: Adobe Illustrator 19.0.0, SVG Export Plug-In . SVG Version: 6.00 Build 0)  -->
<svg version="1.1" id="圖層_1" xmlns="http://www.w3.org/2000/svg" xmlns:xlink="http://www.w3.org/1999/xlink" x="0px" y="0px"
	 viewBox="45 -33.8 150 150" style="enable-background:new 45 -33.8 150 150;" xml:space="preserve">
<style type="text/css">
	.st0{enable-background:new    ;}
	.st1{fill:#DC6200;}
</style>
<g class="st0">
	<path d="M148.9-10.8c9.9,7.1,16.6,14.4,20.1,22c1.5,3.3,3.1,5,5.1,5c3.1,0,4.7-1.7,4.7-5c0-8-9.3-16.3-27.9-24.8L148.9-10.8z"/>
	<path d="M84-10.3l2.7-0.1c9-0.4,16.4-1,22.3-1.8c3.3,7.3,5,14.3,5.1,20.9c0.1,3.9,1.4,5.9,3.9,5.9c3.6,0,5.4-2.3,5.4-7
		c0-6.4-3.2-13.1-9.7-20.2c13.3-1.6,26.2-3.7,38.7-6.2c2.8,0.5,4.8,0.7,5.9,0.7c2.1,0,3.1-0.5,3.1-1.5c0-1.9-3.6-4.8-10.8-8.9
		c-18.9,6.9-40.3,11.6-64.1,14.1c-3-1.7-6.6-3.5-10.8-5.4c-3.2,16.7-9.3,31.3-18.3,43.8l3,2.3C70.7,17,78.5,4.8,84-10.3z"/>
	<path d="M123.9,21.2h31.2v17.4h8.6V24.1l4-2.9c0.6-0.4,1-0.9,1-1.5c0-1.6-3.2-4.7-9.7-9.3l-5.7,7H72.5l2,3.7H115v0.1L123.9,21.2
		L123.9,21.2z"/>
	<polygon points="70.5,62.1 72.5,65.8 114.9,65.8 114.9,62.1 	"/>
	<polygon points="155.1,62.1 124.1,62.1 124,65.8 155.1,65.8 155.1,73 163.7,73 163.7,42.7 155.1,42.7 	"/>
	<path class="st1" d="M179,28.6l-6.6,10.2h-8.7v-0.1h-8.6v0.1h-31.2V21.3H115v17.5H52l1.6,3.7H115v19.6h-0.1v3.7h0.1v22.3
		c0,3.1-1.8,4.6-5.4,4.6c-6.3,0-13.6-0.6-22.2-1.8v3.9c7.5,1.4,12.5,2.6,14.9,3.6c3.1,1.4,4.6,3.6,4.6,6.6c11.3-0.1,17-4.1,17-11.9
		V65.8h0.2l0.1-3.7h-0.2V42.5h31.2v0.1h8.6v-0.1H186l1.7-2.9C185.5,36.2,182.6,32.5,179,28.6z"/>
</g>
</svg>
