<?xml version="1.0" encoding="utf-8"?>
<!-- Generator: Adobe Illustrator 19.0.0, SVG Export Plug-In . SVG Version: 6.00 Build 0)  -->
<svg version="1.1" id="圖層_1" xmlns="http://www.w3.org/2000/svg" xmlns:xlink="http://www.w3.org/1999/xlink" x="0px" y="0px"
	 viewBox="45 -33.8 150 150" style="enable-background:new 45 -33.8 150 150;" xml:space="preserve">
<style type="text/css">
	.st0{enable-background:new    ;}
	.st1{fill:#DC6200;}
</style>
<g class="st0">
	<path class="st1" d="M84.7,31.5V-3.3l0.4-0.1l1.3-4.4c-3.7-2.1-7.3-3.8-10.8-5.1v99.4c-2.7,0.4-6.1,0.8-10.1,1.3
		c-5.1,0.6-8.3,1.1-9.8,1.2c2.2,9,4.6,13.5,7,13.5c1.5,0,2.4-1.9,2.9-5.6c20.2-4.1,42.4-9.9,66.7-17.3l-1-4
		c-15.7,3.8-31.2,6.9-46.5,9.3V35.2h0.1v-3.7H84.7z"/>
	<path d="M178.2,81.9c0-4.4,0.3-11,1-19.8l-3.9-2c-2,18.5-4.4,27.8-7.3,27.8c-2.8,0-7.4-3.8-13.8-11.3
		c-8.9-10.1-15.1-24.2-18.8-42.4h44.8l1.6-3c-3-3.9-6.3-7.5-10-10.9l-8,10.2h-29.1c-1.8-11.6-2.7-24.8-2.7-39.8v-1.3
		c6.2-1.2,14.9-3.1,26.3-5.7c2.5,0.6,4.4,0.9,5.8,0.9c1.8,0,2.7-0.4,2.7-1.3c0-1.7-3.4-4.8-10.3-9.3c-22.5,8.7-45.8,14.8-70,18.3
		c0,0,0,0,0,0l-1.3,4.4l1.2-0.2c13.7-1.7,25.9-3.5,36.7-5.4c0,16.1,1,29.6,2.9,40.5h-41v3.7h41.5c5,24.2,14.3,42.4,27.8,54.7
		c8.4,7.7,15.6,11.6,21.5,11.6c4.3,0,6.9-2.5,7.7-7.5C179.9,93.4,178.2,89.4,178.2,81.9z"/>
</g>
</svg>
