<?xml version="1.0" encoding="utf-8"?>
<!-- Generator: Adobe Illustrator 19.0.0, SVG Export Plug-In . SVG Version: 6.00 Build 0)  -->
<svg version="1.1" id="圖層_1" xmlns="http://www.w3.org/2000/svg" xmlns:xlink="http://www.w3.org/1999/xlink" x="0px" y="0px"
	 viewBox="45 -33.8 150 150" style="enable-background:new 45 -33.8 150 150;" xml:space="preserve">
<style type="text/css">
	.st0{enable-background:new    ;}
	.st1{fill:#DC6200;}
</style>
<g class="st0">
	<path class="st1" d="M103.2,84.6V-5.6l3.4-2.4c0.8-0.6,1.2-1.3,1.2-1.9c0-1.5-2.8-4.5-8.5-9.2l-4.9,6.9H68.7
		c-3.9-2.2-7.2-3.9-10-4.8V90.7h8.1V75.3h28.5v9.3H103.2z M84.7-8.4h10.7v36.8H84.7V-8.4z M77.1,71.5H66.9V32.1h10.2V71.5z
		 M77.1,28.3H66.9V-8.4h10.2V28.3z M84.7,71.5V32.1h10.7v39.5H84.7z"/>
	<path d="M113.5,0.7H139v27.6h-32.2l1.3,3.7h77.3l1.7-3.1c-2.8-3.5-5.9-6.6-9.3-9.4l-7.3,8.9h-23.1V0.7H178l1.8-2.9
		c-2.7-3.4-5.7-6.6-9-9.6L164.3-3h-16.9v-18.3c4.2-1.7,6.3-3.1,6.3-4.3c0-2.3-4.9-3.6-14.7-3.8V-3h-26.7L113.5,0.7z"/>
	<path d="M179.2,85l-7.3,9.4h-24.5V63.7h33l1.8-3c-2.6-3.5-5.5-6.6-8.7-9.4l-6.6,8.7h-19.5V42.8c3.9-1.3,5.9-2.6,5.9-3.7
		c0-2.1-4.8-3.4-14.3-4V60h-28.5l1.2,3.7H139v30.8h-37.4l1.3,3.7h84.2l1.8-3C185.7,91.2,182.5,87.8,179.2,85z"/>
</g>
</svg>
