<?xml version="1.0" encoding="utf-8"?>
<!-- Generator: Adobe Illustrator 19.0.0, SVG Export Plug-In . SVG Version: 6.00 Build 0)  -->
<svg version="1.1" id="圖層_1" xmlns="http://www.w3.org/2000/svg" xmlns:xlink="http://www.w3.org/1999/xlink" x="0px" y="0px"
	 viewBox="45 -33.8 150 150" style="enable-background:new 45 -33.8 150 150;" xml:space="preserve">
<style type="text/css">
	.st0{enable-background:new    ;}
	.st1{fill:#DC6200;}
</style>
<g class="st0">
	<path class="st1" d="M69.1,62.4l-3.3,0.9c1.2,5.2,1.8,9.8,1.8,13.8c0,2.8-0.2,5.2-0.6,7.2c-0.3,1.5-0.4,2.5-0.4,3c0,2,1.1,3,3.4,3
		c3.1,0,4.6-2.6,4.6-7.8C74.7,76.9,72.8,70.2,69.1,62.4z"/>
	<path class="st1" d="M58,62.8c-0.1,10.6-2.4,19.6-6.9,26.8c-1.2,2-1.8,3.4-1.8,4.2c0,2.7,1.6,4,4.8,4c2,0,3.8-1.4,5.3-4.3
		c2.2-4.3,3.3-10.6,3.3-18.9c0-3.2-0.3-7.1-0.9-11.6L58,62.8z"/>
	<path d="M176.7-10.8l-5.6,7h-39.8c1.4-4.7,2.7-10.4,3.9-17.1c4.2-0.7,6.3-1.8,6.3-3.3c0-2-4.7-3.8-14.2-5.5
		c-3.4,25.3-9.3,45.9-17.7,61.9l3.1,2c8.1-11.4,13.9-22.8,17.4-34.2h42.4c0,42.3-0.7,69.4-2.2,81.3c-0.8,6-4,9-9.6,9
		c-5.6,0-12.4-0.5-20.4-1.5V93c6.7,1.1,11.5,2.3,14.3,3.4c3.2,1.4,4.8,3.6,4.8,6.6c4-0.5,7-1.1,9-2c5.9-2.5,9.4-8.2,10.6-16.9
		c1.4-10.1,2.1-33.5,2.1-70.2V3l3.4-2.4c0.7-0.4,1-0.9,1-1.6C185.6-2.6,182.6-5.9,176.7-10.8z"/>
	<path class="st1" d="M93.3,79c2.4,0,3.6-1.4,3.6-4.2c0-5.5-3.5-11.5-10.6-18l-2.4,1.6c3.6,5.4,5.7,10.7,6.2,16
		C90.3,77.5,91.4,79,93.3,79z"/>
	<path d="M104.8,39.2l-5.1,6.4H88.1V26.8h18.6l1.8-2.7l-1.2-1.5c-2.6-3.4-4.9-6-6.7-7.8L94.2,23h-6.2V4.9h18.6l1.5-2.7
		c-2.5-3.4-5.1-6.4-7.8-9.1l-6.2,8.1h-6.2v-16.9h23.6l1.6-2.9c-2.3-2.6-4.3-4.7-6-6.4c-0.8-0.9-1.7-1.8-2.7-2.9L98-19.5H68.4
		c-3.5-1.9-6.6-3.3-9.3-4.3v79.8h8.3v-6.5h33.9c0,16.7-1.1,29.6-3.3,38.8c-0.9,3.8-3.4,5.7-7.6,5.7c-5.4,0-10.7-0.3-15.8-0.8V97
		c5.1,0.6,8.6,1.2,10.5,1.8c3.1,1.1,4.8,3.1,5.1,6.2c0.5,0.1,1.1,0.1,1.8,0.1c6.4,0,10.8-3.1,13.3-9.3c2.7-7.2,4.2-21.9,4.3-44.1
		l2.9-2c0.7-0.4,1-0.9,1-1.6C113.4,46.7,110.6,43.7,104.8,39.2z M80.1,45.7H67.3V26.8h12.7V45.7z M80.1,23H67.3V4.9h12.7V23z
		 M80.1,1.1H67.3v-16.9h12.7V1.1z"/>
	<path d="M149.5,72.7h8.1V28.3l3.3-2.3c1-0.7,1.5-1.4,1.5-2.1c0-1.6-2.9-4.4-8.7-8.6l-5.1,6.2h-14.7c-2.3-1.3-5.5-2.9-9.4-4.8v57.9
		h8V61.4h17.1V72.7z M132.5,57.7V25.3h17.1v32.4H132.5z"/>
	<path class="st1" d="M74.7,61.1c2.9,6,4.4,12.5,4.5,19.5c0.1,3.5,1.1,5.3,3,5.3c2.9,0,4.3-1.7,4.3-5.1c0-6.3-2.9-13.2-8.7-20.8
		L74.7,61.1z"/>
</g>
</svg>
