<?xml version="1.0" encoding="utf-8"?>
<!-- Generator: Adobe Illustrator 19.0.0, SVG Export Plug-In . SVG Version: 6.00 Build 0)  -->
<svg version="1.1" id="圖層_1" xmlns="http://www.w3.org/2000/svg" xmlns:xlink="http://www.w3.org/1999/xlink" x="0px" y="0px"
	 viewBox="45 -33.8 150 150" style="enable-background:new 45 -33.8 150 150;" xml:space="preserve">
<style type="text/css">
	.st0{enable-background:new    ;}
	.st1{fill:#DC6200;}
</style>
<g class="st0">
	<path class="st1" d="M102.5-3.7l-2,2.9c8,4.8,13.6,10.8,16.9,18c1.1,2.6,2.7,3.9,4.8,3.9c3.3,0,5-1.9,5-5.6
		C127.2,8.3,118.9,1.9,102.5-3.7z"/>
	<path d="M148.5,72l-0.3,2.6H76.1c2.6-16.3,4.3-26.9,4.9-31.9c0.1-0.5,0.6-3.7,1.4-9.7h-8.9l-0.9,6.9c-1.3,11-3.9,26.8-7.8,47.3
		l8.9,1.5c0.4-2.1,1-5.5,1.8-10.3h72.3c-0.5,4.4-1,7.2-1.4,8.4c-1,3-3.6,4.5-7.6,4.5c-5.9,0-13.3-0.7-22.3-2v4
		c8.3,1.4,13.6,2.7,16.2,3.9c3.1,1.5,4.6,3.7,4.6,6.6c8.7-0.1,14.3-3.1,16.8-9c1.2-2.6,2.2-8.1,3-16.3h25.8l1.8-3
		c-3.3-4.8-6.4-8.6-9.2-11.4L168,74.5h-10.5c1.5-15.8,2.3-28.6,2.4-38.3V33h-9C150.1,51.1,149.3,64.1,148.5,72z"/>
	<path class="st1" d="M185.7,32.9l2-3c-2.9-4.2-6-8-9.2-11.4l-7.4,10.6h-11.1c0,0,0,0,0-0.1h-9v0.1H82.8l0-0.1h-8.9c0,0,0,0,0,0.1
		H50.9l1.5,3.7h21.2l0,0h8.9c0,0,0,0,0,0h68.6c0,0,0,0,0,0h9v0H185.7z"/>
	<path d="M83.2,26.3c0.7-4.8,1.8-15.2,3.4-31.1l0.6-6.2h64.2v11c-0.1,12.8-0.3,21.7-0.4,26.8v2.2h9c0.4-18.2,0.6-30.6,0.6-37
		l3.9-2.4c1-0.5,1.5-1.1,1.5-1.8c0-1.6-3.2-4.9-9.6-9.7l-6,7.2H89.1c-4.7-2.5-8-4.2-9.7-5.1c-0.8,9.1-2,20.7-3.7,34.8
		c-0.2,1.2-0.4,3-0.7,5.4c-0.5,4.6-0.9,7.5-1,8.7h8.9L83.2,26.3z"/>
	<path d="M115.5,62.5c1.2,2.8,2.8,4.2,4.9,4.2c3.2,0,4.8-1.9,4.8-5.6c0-7.3-8.7-14.5-26.1-21.6l-2.1,2.7
		C106.4,48.7,112.5,55.4,115.5,62.5z"/>
</g>
</svg>
