<?xml version="1.0" encoding="utf-8"?>
<!-- Generator: Adobe Illustrator 19.0.0, SVG Export Plug-In . SVG Version: 6.00 Build 0)  -->
<svg version="1.1" id="圖層_1" xmlns="http://www.w3.org/2000/svg" xmlns:xlink="http://www.w3.org/1999/xlink" x="0px" y="0px"
	 viewBox="45 -33.8 150 150" style="enable-background:new 45 -33.8 150 150;" xml:space="preserve">
<style type="text/css">
	.st0{enable-background:new    ;}
	.st1{fill:#DC6200;}
</style>
<g class="st0">
	<path d="M93.1,61.4c3.5,0,5.3-2,5.3-5.9c0-6.5-8.5-12.4-25.5-17.7l-2.1,2.7c8.5,4.9,14.5,10.9,18,18.1
		C89.7,60.5,91.1,61.4,93.1,61.4z"/>
	<path d="M110.1,60.3C94,68.3,76.7,75,58.3,80.3c3.3,9,6.1,13.5,8.3,13.5c1.5,0,2.3-2.1,2.4-6.4C83.3,81,97.4,73.2,111.4,64
		L110.1,60.3z"/>
	<path class="st1" d="M94.5,8.3c1.7-5.2,3.3-10.6,4.8-16.2l0.6-2.3h0.2l0.8-3.7h-0.1l0.3-1.2c0.5-1.9,1-3.7,1.4-5.6
		c4.4-1.5,6.6-2.8,6.6-3.9c0-1.8-4.8-3-14.3-3.8C90.9-9.8,86.4,6,81,18.9l9.3,1.5c0.3-0.7,0.7-1.8,1.2-3.2c1-2.9,1.6-4.6,1.8-5.2
		h40.3l0.9-3.7H94.5z"/>
	<path d="M146.6,64c8.2-5.4,15.4-11,21.8-16.9c1.8,0.2,2.9,0.3,3.3,0.3c2.4,0,3.6-0.6,3.6-1.8c0-2.2-3.8-5.5-11.3-9.9
		c-5.8,9-12.7,17.4-20.7,25.2c-7.2-7.5-13.2-17-18-28.5h56.5l1.7-2.7c-3.2-4-6.8-7.9-11-11.7l-8.1,10.7h-26.1
		c2.6-7.3,5.6-19.1,9.2-35.6l4-2c1.1-0.4,1.7-1.1,1.7-1.9c0-1.4-3.1-4.7-9.4-9.9l-5.4,6.9h-37.4l-0.8,3.7h38.8
		C137.1-1.9,136,3,135.6,4.6c-0.2,1.3-0.5,2.6-0.9,3.7h-0.2l-0.9,3.7h0.2c-2,7.5-3.7,13-5,16.6H56.4l1.3,3.7h58.1v55.2
		c0,3.2-1.8,4.8-5.3,4.8c-6,0-12.7-0.5-20.4-1.5v4c7.1,1.4,11.6,2.6,13.5,3.4c2.9,1.3,4.5,3.5,4.6,6.4c3.7,0,6.9-0.4,9.7-1.2
		c4.5-1.5,6.7-5.1,6.7-10.6v-51c9.3,24,27.1,40.9,53.4,50.8c1.6-3,4.1-6.2,7.5-9.4C169.1,78.8,156.2,72.4,146.6,64z"/>
</g>
</svg>
